<?xml version="1.0" encoding="utf-8"?>
<!-- Generator: Adobe Illustrator 18.0.0, SVG Export Plug-In . SVG Version: 6.00 Build 0)  -->
<!DOCTYPE svg PUBLIC "-//W3C//DTD SVG 1.1//EN" "http://www.w3.org/Graphics/SVG/1.1/DTD/svg11.dtd">
<svg version="1.1"
	 id="Layer_1" xmlns:rdf="http://www.w3.org/1999/02/22-rdf-syntax-ns#" xmlns:dc="http://purl.org/dc/elements/1.1/" xmlns:cc="http://creativecommons.org/ns#" xmlns:inkscape="http://www.inkscape.org/namespaces/inkscape" xmlns:svg="http://www.w3.org/2000/svg" xmlns:sodipodi="http://sodipodi.sourceforge.net/DTD/sodipodi-0.dtd"
	 xmlns="http://www.w3.org/2000/svg" xmlns:xlink="http://www.w3.org/1999/xlink" x="0px" y="0px" width="20px" height="20px"
	 viewBox="630 310 20 20" enable-background="new 630 310 20 20" xml:space="preserve">
<g transform="translate(0,-952.36218)">
	<path fill="#FFFFFF" d="M640,1262.4c-2.2,0-4.3,0.7-6,2c-2.4,1.8-4,4.7-4,8c0,5.5,4.5,10,10,10c5.5,0,10-4.5,10-10
		C650,1266.8,645.5,1262.4,640,1262.4z M640,1265.4c3.9,0,7,3.1,7,7c0,1.4-0.4,2.7-1.2,3.8l-9.7-9.7
		C637.3,1265.8,638.6,1265.4,640,1265.4L640,1265.4z M634.1,1268.7l9.6,9.6c-1.1,0.7-2.3,1.1-3.7,1.1c-3.9,0-7-3.1-7-7
		C633,1271,633.4,1269.7,634.1,1268.7L634.1,1268.7z"/>
</g>
</svg>
