<?xml version="1.0" encoding="utf-8"?>
<!-- Generator: Adobe Illustrator 19.1.0, SVG Export Plug-In . SVG Version: 6.00 Build 0)  -->
<svg version="1.1" id="Layer_1" xmlns="http://www.w3.org/2000/svg" xmlns:xlink="http://www.w3.org/1999/xlink" x="0px" y="0px"
	 viewBox="0 0 65 175" style="enable-background:new 0 0 65 175;" xml:space="preserve">
<style type="text/css">
	.st0{fill:#FAC78D;}
	.st1{fill:#EA812C;}
	.st2{opacity:0.1;clip-path:url(#SVGID_2_);fill:#112D46;}
	.st3{fill:#418CCB;}
	.st4{clip-path:url(#SVGID_4_);fill:#48B4E7;}
	.st5{fill:#112D46;}
	.st6{opacity:0.1;fill:#112D46;}
	.st7{fill:#48B4E7;}
	.st8{opacity:0.1;}
	.st9{clip-path:url(#SVGID_6_);fill:#112D46;}
	.st10{fill:#FFFFFF;}
	.st11{opacity:0.3;fill:#A1C9EA;}
	.st12{opacity:0.2;clip-path:url(#SVGID_8_);fill:#FFFFFF;}
	.st13{opacity:0.2;clip-path:url(#SVGID_10_);fill:#FFFFFF;}
	.st14{fill:none;stroke:#112D46;stroke-width:2;stroke-miterlimit:10;}
	.st15{fill:none;stroke:#112D46;stroke-width:3;stroke-miterlimit:10;}
</style>
<path class="st0" d="M8.9543991,60.1328735c-0.0648413-1.8032303,1.344636-3.3184395,3.148159-3.3839378l0,0
	c1.803731-0.0650101,3.3183374,1.3441658,3.3833485,3.1478958l1.7180748,47.5397301
	c0.0651894,1.8041306-1.3442945,3.3193359-3.1474066,3.3847046l0,0c-1.8036852,0.0649948-3.3190441-1.3449478-3.3839378-3.1481552
	L8.9543991,60.1328735z"/>
<path class="st1" d="M21.5721874,95.4555893l0.7077694-36.3555336c0.0709991-3.6547394-2.8342972-6.6749344-6.4882717-6.7466888
	c-3.654623-0.0704803-6.6758804,2.8346558-6.7474384,6.4890709L8.3525448,94.3754959
	C12.7524824,94.8099594,17.1597881,95.1592178,21.5721874,95.4555893z"/>
<circle class="st0" cx="15.9383965" cy="107.7019806" r="5.2220693"/>
<g>
	<defs>
		<path id="SVGID_1_" d="M21.5721874,95.4555893l0.7077694-36.3555336c0.0709991-3.6547394-2.8342972-6.6749344-6.4882717-6.7466888
			c-3.654623-0.0704803-6.6758804,2.8346558-6.7474384,6.4890709L8.3525448,94.3754959
			C12.7524824,94.8099594,17.1597881,95.1592178,21.5721874,95.4555893z"/>
	</defs>
	<clipPath id="SVGID_2_">
		<use xlink:href="#SVGID_1_"  style="overflow:visible;"/>
	</clipPath>
	<path class="st2" d="M20.9262676,91.6625977c0.2053757,0.0262604,0.4093609,0.060936,0.6077271,0.1153412
		c1.6337528,0.4492645,2.7076492,1.6023407,3.1831341,3.017128c1.8438911-0.1655197,3.8537197,0.5524139,4.7287693,2.3109131
		c0.8844147,1.7772827,1.2079678,3.5545654,1.1104393,5.4063721c0.1669159,0.1308517,0.326395,0.2738495,0.4773579,0.4295273
		c0.2663612,0.0501785,0.5275459,0.1205292,0.7831421,0.211525c0.0824966-0.0914764,0.1692677-0.1772842,0.2489777-0.2710648
		c0.9749298-1.1446838,1.8659248-2.3573532,2.8347092-3.5071716c2.4741325-2.9355469,5.4781075-4.9838409,9.4547043-4.3897018
		c2.021122-4.789711,3.8715363-9.6718063,5.3299217-14.6641006c1.2483025-4.2715302,2.7132645-9.4654617,3.1587372-13.4392319
		c0.3559189-3.1732864,0.5308533-6.7259254,1.7819862-9.7669716c-4.0849304-8.5196304-12.8385582-14.3546181-22.9075222-14.2218933
		C17.8959866,43.0761261,6.8384929,54.429554,7.0213494,68.2514496l0.1932287,14.6232758
		c0,8.1161804,2.724092,10.5328522,5.6143222,13.8207703c0.3451605-1.1319962-1.2147636-3.2856293-0.9231033-4.4448624
		C13.1147318,87.4459,19.2844963,88.1216736,20.9262676,91.6625977z"/>
</g>
<rect x="26.3750782" y="98.426506" class="st3" width="6.2189922" height="70.4801178"/>
<path class="st1" d="M57.4706612,80.7729797c0.1824341,13.8223267-10.8746262,25.1752777-24.6974335,25.3581314l0,0
	C18.9508572,106.3140182,7.5979581,95.2569656,7.4150538,81.4341583L7.2218251,66.8108749
	C7.0389686,52.9889832,18.0964622,41.6355553,31.9188271,41.4526978l0,0
	c13.8218918-0.181942,25.1757507,10.87463,25.3581734,24.6969528L57.4706612,80.7729797z"/>
<g>
	<defs>
		<path id="SVGID_3_" d="M57.4504929,80.7931061c0.1829147,13.8223724-10.8746262,25.1753159-24.6969528,25.3581696l0,0
			C18.9306889,106.3341827,7.5777903,95.2771301,7.3953657,81.4543228L7.201705,66.8310394
			c-0.1824241-13.821888,10.8750696-25.1753159,24.6969528-25.3581734l0,0
			c13.8218918-0.181942,25.1757507,10.87463,25.358654,24.6969566L57.4504929,80.7931061z"/>
	</defs>
	<clipPath id="SVGID_4_">
		<use xlink:href="#SVGID_3_"  style="overflow:visible;"/>
	</clipPath>
	<path class="st4" d="M65.5415115,116.0298996H1V89.3525925c0,0,13.3815575,3.3561935,32.0986519,3.3561935
		s32.4428596-3.3561935,32.4428596-3.3561935V116.0298996z"/>
</g>
<rect x="17.8141499" y="168.5202179" class="st5" width="14.9182625" height="1.6778809"/>
<path class="st0" d="M40.4614105,42.3530579c0,4.2738838-3.4639969,7.7378807-7.736969,7.7378807l0,0
	c-4.2738857,0-7.7378826-3.4639969-7.7378826-7.7378807V22.545208c0-4.2729244,3.4639969-7.7374496,7.7378826-7.7374496l0,0
	c4.2729721,0,7.736969,3.4645252,7.736969,7.7374496V42.3530579z"/>
<g>
	<path class="st6" d="M57.2887192,71.648407c-0.1678772-2.6734085-0.4544067-5.3458633-0.5420876-8.0230179
		c-1.8677979-1.9039078-3.9160881-3.6445961-5.9508057-5.3580589c-0.0834579-0.0703468-0.1566391-0.147274-0.2321243-0.2227592
		c-2.1495705,1.3275795-3.6436348,3.6938133-3.9005852,6.3700104l0.7948112,35.0773697
		c0.8750496-0.3062134,1.2769203-0.600235,1.6792717-0.8834991c0.6387024-0.4506149,1.2886391-0.8853302,1.9268608-1.3368988
		c0.3751717-0.2654495,0.7535629-0.5284958,1.1141853-0.8136368c0.2161827-0.1730118,0.3320122-0.2649155,0.3502998-0.2775955
		c0.7540398-0.6096039,1.6103172-1.0354385,2.4928589-1.2229996c1.0495033-0.3690262,2.1730537-0.4013901,3.2229881-0.0032654
		c-0.1163025-3.787117-0.2616539-7.5737991-0.3999977-11.3557739C57.6985588,79.6132736,57.5386581,75.6277924,57.2887192,71.648407
		z"/>
	<path class="st0" d="M57.1142654,63.6206818c0.0079689-1.8044586-1.4490242-3.274559-3.2534828-3.2825317l0,0
		c-1.8044586-0.0079689-3.2736473,1.4485435-3.2820511,3.2534828l-0.210083,47.57024
		c-0.0079727,1.8054199,1.4485397,3.2750397,3.2530022,3.2830124l0,0c1.8049393,0.0084534,3.2750397-1.4490204,3.2820511-3.253479
		L57.1142654,63.6206818z"/>
	<path class="st1" d="M48.508831,99.2091675l-1.9999924-35.8538857c-0.186657-3.6506462-0.1247597-7.1058083,3.5259323-7.2938499
		c3.6496887-0.1861687,6.7615585,2.6218376,6.9486885,6.2724838l1.818531,35.492836
		c-1.929203,0.90271-2.3099937,1.1821747-4.6907768,1.4626083C49.4664192,99.836586,50.5149612,99.5336838,48.508831,99.2091675z"/>
	<circle class="st0" cx="51.6417999" cy="111.3869858" r="5.2221313"/>
</g>
<rect x="32.357769" y="103.2284088" class="st7" width="6.2189922" height="70.4801178"/>
<rect x="32.2194252" y="173.322113" class="st5" width="14.9182148" height="1.6778809"/>
<g class="st8">
	<path class="st5" d="M40.2433548,42.2916412c-1.0438347-0.7976952-1.8438339-1.5493851-2.20681-2.8699074
		c-0.2288094-0.8511353-0.2288094-1.7017441,0-2.5528831c0.4853783-1.764122,1.8616982-2.9392929,3.534874-3.3585472
		c0.649456-1.7938938,0.5242233-3.8138142,0.6442719-5.6862679c0.0980072-1.5395374,0.3906441-2.9601803,0.7709541-4.3805847
		c-0.495182-0.4815826-1.0208855-0.9317608-1.5812683-1.3380966c0.2354279-0.7925072,0.3639297-1.6314468,0.3639297-2.4999199
		c0-3.2848854-1.8096466-6.1435061-4.483963-7.6445808c-0.9186592,0.6405745-1.8166618,1.3137045-2.6921921,2.0126696
		c0.0525322,0.9641266-0.1214409,1.9566317-0.5050163,2.8260641c-1.4133911,3.2013798-4.1280518,5.618515-5.3834133,8.9908905
		c-0.7062168,1.8958874-1.366478,3.8415222-1.6975212,5.8438683c-0.1449223,0.8743286-0.1749325,1.747509-0.1969738,2.6323547
		c-0.0117168,0.4595909,0.0257854,0.7465515,0.0576706,0.8980522c1.177042,2.2175674,0.7104416,5.1690559-1.705492,6.4867935
		c-0.0150299,0.0084038-0.0328445,0.0163727-0.0483074,0.0243454c-0.2053776,0.160862-0.4243908,0.3151474-0.671978,0.4558449
		c-0.6884003,0.3905869-1.3219643,0.840332-1.9864025,1.2703438c2.6185246,2.8487778,6.37467,4.6349411,10.5486736,4.6349411
		c3.9099998,0,7.4485703-1.5728149,10.0333862-4.1130219c-0.2176247-0.1285019-0.4328461-0.2640114-0.6429291-0.4131584
		C41.6295204,43.1849365,40.8932953,42.7882042,40.2433548,42.2916412z"/>
</g>
<g>
	<g>
		<path class="st0" d="M41.485569,20.2647839c0.2354279-0.7925053,0.3639259-1.6314468,0.3639259-2.499918
			c0-4.8407984-3.924057-8.7648649-8.7649117-8.7648649c-4.8403645,0-8.7643757,3.9240665-8.7643757,8.7648649
			c0,0.8684711,0.1284428,1.7074127,0.3638802,2.499918c-3.5901909,2.6034966-5.9259243,6.8314266-5.9259243,11.6051903
			c0,7.912817,6.414566,14.3269558,14.3264198,14.3269558c7.912384,0,14.3269577-6.4141388,14.3269577-14.3269558
			C47.411541,27.0962105,45.0757523,22.8682804,41.485569,20.2647839z"/>
	</g>
	<g>
		<defs>
			<path id="SVGID_5_" d="M41.485569,20.2647839c0.2354279-0.7925053,0.3639259-1.6314468,0.3639259-2.499918
				c0-4.8407984-3.924057-8.7648649-8.7649117-8.7648649c-4.8403645,0-8.7643757,3.9240665-8.7643757,8.7648649
				c0,0.8684711,0.1284428,1.7074127,0.3638802,2.499918c-3.5901909,2.6034966-5.9259243,6.8314266-5.9259243,11.6051903
				c0,7.912817,6.414566,14.3269558,14.3264198,14.3269558c7.912384,0,14.3269577-6.4141388,14.3269577-14.3269558
				C47.411541,27.0962105,45.0757523,22.8682804,41.485569,20.2647839z"/>
		</defs>
		<clipPath id="SVGID_6_">
			<use xlink:href="#SVGID_5_"  style="overflow:visible;"/>
		</clipPath>
		<path class="st9" d="M45.437767,22.3318596c-0.0403366-1.6858521-0.5627365-3.2712975-1.3031883-4.7761173
			c-0.1636505-0.3320026-0.2480583-0.6874886-0.2438393-1.0321693c-0.3535652-0.628808-0.7188454-1.2515669-1.0836868-1.8743258
			c-0.9491539-0.970705-1.8457642-2.0257788-2.2682343-3.2937689c-0.9200935-0.6227589-1.9868851-1.0883999-3.2272148-1.3191309
			c0,0-0.1524124,7.2549067,6.7545471,9.7862291l1.5573044,3.2966022
			C45.5128212,22.8959866,45.4452591,22.6342831,45.437767,22.3318596z"/>
		<path class="st9" d="M24.0327091,14.4893436c-0.2489777-0.0309238-0.3934116-0.1120758-0.3934116-0.1120758l1.4049339-3.4274549
			l5.8433857-3.2023406l4.494772,0.9547629l2.3034363,1.5169687C37.6858253,10.2192039,33.9211731,15.7254496,24.0327091,14.4893436
			z"/>
	</g>
	<circle class="st5" cx="30.0055561" cy="18.7646217" r="0.7306095"/>
	<circle class="st5" cx="35.8492088" cy="18.7646217" r="0.7303454"/>
	<path class="st10" d="M31.7533054,22.4786053c0.0290585,0.5008392,0.4435978,0.8984833,0.9524097,0.8984833
		c0.5083275,0,0.9228287-0.397644,0.9519272-0.8984833H31.7533054z"/>
	<g>
		<circle class="st11" cx="28.7694511" cy="18.8863506" r="3.3078866"/>
		<g>
			<defs>
				<circle id="SVGID_7_" cx="28.7694511" cy="18.8863506" r="3.3078866"/>
			</defs>
			<clipPath id="SVGID_8_">
				<use xlink:href="#SVGID_7_"  style="overflow:visible;"/>
			</clipPath>
			
				<rect x="26.7371368" y="14.9413652" transform="matrix(0.9563477 0.2922311 -0.2922311 0.9563477 6.7138925 -7.2749228)" class="st12" width="1.9417537" height="7.7886486"/>
		</g>
		<circle class="st11" cx="37.1345558" cy="18.8863506" r="3.3076465"/>
		<g>
			<defs>
				<circle id="SVGID_9_" cx="37.3347969" cy="19.1264458" r="3.3076465"/>
			</defs>
			<clipPath id="SVGID_10_">
				<use xlink:href="#SVGID_9_"  style="overflow:visible;"/>
			</clipPath>
			
				<rect x="35.2716141" y="14.8175097" transform="matrix(0.9564358 0.2919427 -0.2919427 0.9564358 7.0416842 -9.765604)" class="st13" width="1.9420267" height="7.788775"/>
		</g>
		<g>
			<circle class="st14" cx="28.7694511" cy="18.8863506" r="3.3078866"/>
			<circle class="st14" cx="37.1345558" cy="18.8863506" r="3.3076465"/>
			<line class="st15" x1="32.2292709" y1="18.8256054" x2="33.8133202" y2="18.8256054"/>
		</g>
	</g>
</g>
</svg>
