<?xml version="1.0" encoding="utf-8"?>
<!-- Generator: Adobe Illustrator 19.1.0, SVG Export Plug-In . SVG Version: 6.00 Build 0)  -->
<svg version="1.1" id="Layer_1" xmlns="http://www.w3.org/2000/svg" xmlns:xlink="http://www.w3.org/1999/xlink" x="0px" y="0px"
	 viewBox="0 0 75 118" style="enable-background:new 0 0 75 118;" xml:space="preserve">
<style type="text/css">
	.st0{fill:#EFBB89;}
	.st1{fill:#FAC78D;}
	.st2{fill:#3049A2;}
	.st3{fill:#F97432;}
	.st4{fill:#E71E3F;}
	.st5{fill:#FBAE17;}
	.st6{clip-path:url(#SVGID_2_);}
	.st7{opacity:0.2;fill:none;stroke:#000000;stroke-width:2;stroke-linecap:round;stroke-miterlimit:10;}
	.st8{fill:none;stroke:#FBAE17;stroke-width:4;stroke-miterlimit:10;}
</style>
<g>
	<polygon class="st0" points="49.2538872,118.0217819 14.6578741,118.0566711 29.4206753,69.3909073 65.1725616,80.2360764 	"/>
	<path class="st1" d="M60.5682831,35.7051315c0.104599,0.5612907,6.6154404,32.8622437,6.6154404,32.8622437l-17.0811958-0.6469879
		l-7.0468521-23.1381302"/>
	<circle class="st1" cx="46.1377869" cy="70.989563" r="20.9901943"/>
	<g>
		<path class="st2" d="M67.5503159,3.8110018C61.7806511-1.019034,51.5406303-0.7668548,40.7345772,3.8481662
			c3.1330032,25.794548,4.7397385,51.4172745,2.96455,74.3493118c6.4280968-4.1123657,12.6690521-9.691864,17.8988113-16.6373062
			C78.1133957,39.6265831,78.4717865,12.9539814,67.5503159,3.8110018z"/>
		<path class="st3" d="M40.7345772,3.8481662c-7.2285461,3.0871284-14.7091961,8.1285057-21.2757969,14.9065104
			c6.8320618,24.5058861,8.9557343,42.268959,10.6696644,65.9037247c4.4251518-1.4023666,9.0437164-3.5648346,13.5706825-6.4609222
			C45.4743156,55.2654419,43.8675804,29.6427135,40.7345772,3.8481662z"/>
		<path class="st4" d="M19.4587803,18.7546768c-2.0186958,2.0837078-3.9520617,4.3295708-5.7638292,6.7357311
			C7.8257952,33.2849922,3.9111848,41.6573181,1.8207152,49.6308365
			c9.2296467,10.446209,17.4690971,21.7167816,21.974659,36.5331955c2.0416012-0.3153,4.1636944-0.8181381,6.3330708-1.5056305
			C28.4145145,61.0236359,26.2908421,43.2605629,19.4587803,18.7546768z"/>
		<path class="st5" d="M1.8207152,49.6308365c-1.1901996,4.539711-1.7912073,8.9506187-1.819649,13.0508461
			c-0.0621751,8.963047,2.5959163,16.4452934,7.7415094,20.5578957c0.2992201,0.2391586,0.6151028,0.4603195,0.9383678,0.6732559
			c3.7504101,2.4707565,9.0796366,3.1831665,15.1144304,2.2511978
			C19.2898121,71.3476181,11.0503616,60.0770454,1.8207152,49.6308365z"/>
		<g>
			<defs>
				<path id="SVGID_1_" d="M67.5503082,3.8109999c-5.7696571-4.8300347-16.009697-4.5778418-26.8157463,0.0371549
					c-7.2285385,3.0871475-14.7092094,8.1285162-21.2757568,14.9065199
					c-2.0186958,2.0837173-3.9520941,4.3295345-5.7638283,6.7356873C7.8258157,33.2849693,3.9111793,41.657299,1.8207221,49.6308212
					c-1.1902363,4.5397148-1.7912132,8.9506035-1.8196259,13.0508308c-0.0622286,8.963047,2.595875,16.4453011,7.7414846,20.5579109
					c0.2992435,0.2391434,0.6151223,0.4603119,0.9383473,0.6732864c3.7504129,2.4707489,9.0796728,3.1831284,15.1144533,2.2511597
					c2.0415859-0.3152695,4.1636734-0.8181381,6.3330536-1.5056305c4.4251537-1.402359,9.0437336-3.5648193,13.5706997-6.4609146
					c6.4280663-4.1123657,12.6690216-9.6918793,17.898777-16.6373215
					C78.1133881,39.6265831,78.4717636,12.9539948,67.5503082,3.8109999z"/>
			</defs>
			<clipPath id="SVGID_2_">
				<use xlink:href="#SVGID_1_"  style="overflow:visible;"/>
			</clipPath>
			<g class="st6">
				<path class="st7" d="M3.1176026,77.2192612C1.1565447,40.4753189,33.6929512,8.1573925,60.9462013,1"/>
				<path class="st7" d="M14.1908245,85.9536819C50.0458145,77.6843033,72.113884,37.4839745,71.4611969,9.3140945"/>
			</g>
		</g>
		<path class="st8" d="M45.4310265,83.6250534"/>
	</g>
	<path class="st1" d="M49.2121086,88.9216919c-1.8344955,2.3631668-5.2371178,2.7921982-7.6005249,0.9580002L24.2095451,76.3733063
		c-2.363409-1.834198-2.7922001-5.2368469-0.9580288-7.6005249l0.996212-1.2833252
		c1.8344975-2.3634415,5.2373581-2.7925262,7.6005268-0.9580002l17.4020348,13.5060883
		c2.3633804,1.8339615,2.792469,5.2370911,0.9579468,7.6000137L49.2121086,88.9216919z"/>
</g>
</svg>
