<?xml version="1.0" encoding="utf-8"?>
<!-- Generator: Adobe Illustrator 19.1.0, SVG Export Plug-In . SVG Version: 6.00 Build 0)  -->
<svg version="1.0" id="Layer_1" xmlns="http://www.w3.org/2000/svg" xmlns:xlink="http://www.w3.org/1999/xlink" x="0px" y="0px"
	 viewBox="0 0 50 50" style="enable-background:new 0 0 50 50;" xml:space="preserve">
<style type="text/css">
	.st0{fill:#E32222;}
	.st1{fill-rule:evenodd;clip-rule:evenodd;fill:#FFFFFF;}
</style>
<g>
	<g>
		<path class="st0" d="M24.9999905,0c-13.8085938,0-25,11.1929321-25,25c0,13.8070068,11.1914062,25,25,25
			c13.8045673,0,25.0000019-11.1929932,25.0000019-25C49.9999924,11.1929321,38.8045578,0,24.9999905,0z"/>
	</g>
	<g>
		<path class="st1" d="M44.9999924,28.3896465l-1.4947815-0.1798515c-0.7938766,0-1.4079132,0.1178074-1.8669281,0.3969898
			c-0.3660698,0.210947-0.6079559,0.514782-0.7009964,0.8559132c-0.1860352,0.6077652,0.1550941,1.0357723,1.0049095,1.2839279
			l0.5519981,0.1798344c0.4280014,0.0930691,0.6140366,0.2730064,0.5519905,0.4899654
			c-0.0620422,0.2728939-0.4279099,0.4279995-1.0730476,0.4279995l-1.5258064-0.2729034l-0.2728271,0.9117699l1.7676926,0.2171478
			c0.738121,0,1.3148575-0.1239929,1.7738838-0.3349571c0.4590263-0.2171364,0.7381058-0.5519791,0.8560066-0.9799976
			c0.1550026-0.6140347-0.1799278-1.0420341-1.0668755-1.2839108l-0.3659554-0.0868855
			c-0.5209808-0.1550102-0.7319374-0.3410263-0.7071037-0.5519905c0.0620422-0.2480621,0.3721581-0.3658695,0.9489822-0.3969822
			l1.3459549,0.1799278L44.9999924,28.3896465L44.9999924,28.3896465z"/>
		<path class="st1" d="M39.9263573,28.6377087c-0.2170563-0.2790031-0.5769196-0.4279137-1.0978966-0.4279137
			c-0.7628593,0-1.4079094,0.2418861-1.9227104,0.7319279l0.1798515-0.6450424h-1.5568314l-1.1908607,4.3106918h1.5878525
			l0.5209618-1.7738781c0.148838-0.5459023,0.3969917-0.9738159,0.7009239-1.2840157
			c0.2729034-0.2418671,0.5457191-0.36586,0.8869362-0.36586l0.3968964,0.1239929l-0.0309296,0.6141109l-0.793972,2.6856499
			h1.5877609l0.8250656-2.7787018C40.1745033,29.3076115,40.1433983,28.9107151,39.9263573,28.6377087L39.9263573,28.6377087z"/>
		<polygon class="st1" points="34.6107292,27.5027084 34.9147339,26.4668503 33.3268967,26.4668503 33.0229645,27.5027084 
			34.6107292,27.5027084 		"/>
		<path class="st1" d="M9.2177286,22.4043064v0.0867062l-1.0049219,4.9248199l-0.1549244,0.4279976l-0.0931511,0.1179028
			L7.871675,27.8686638l-0.0620394-0.1799374L7.2018805,23.595089v-0.0929756L7.1708536,23.378027v-0.607851
			c0-0.3101044-0.1550951-0.4590149-0.4899569-0.4590149l-0.3350277,0.1489105l-1.2218857,3.7276802l-0.1239924,0.61413
			l0.0929704,0.2107849l0.2171488,0.09305c0.148911,0,0.3039203-0.1178074,0.3969812-0.3658676l0.6698852-1.6126938
			l0.1550097-0.1550941l0.0868716,0.3659725l0.1860409,1.4638481v0.0619583l0.1550908,0.8248863v0.1240959l0.4837675,2.5057964
			l0.1240783,0.334938l0.093061,0.5209923c0.0619583,0.3969727,0.2107787,0.6079273,0.4279175,0.6079273
			c0.0930614,0,0.2108641-0.0310268,0.3039207-0.1240788l0.1240826-0.3659649v-0.0620422L8.5788565,30.77145v-0.3350334
			l0.2418814-1.7427635v-0.849823l0.2418861-1.1660347c0.2480707-0.9737968,0.3720636-1.5816479,0.4031754-1.8298035
			l0.0557642-0.3658791l0.0311127-0.0621376l0.0309267-0.0929661V24.109869l0.0620394-0.1178074l0.3969812-1.9290581
			l0.2729034-0.3348618l0.1551046-0.3658695v-0.2729969l0.2480659-0.552002l0.1488295-0.521059l0.3039207-0.4899559
			l0.1240788-0.3038254l0.155014-0.2729988c0.0930557-0.0930519,0.1178885-0.1860275,0.1489105-0.3040161l0.0929708-0.2169495
			l0.2481613-0.4280167l0.4590206-0.4279995l0.1488247-0.3039303l0.0930614-0.365963v-0.0929661l-0.0930614-0.3659554
			c-0.1799326-0.2480793-0.3659639-0.3659649-0.5768242-0.3659649l-0.2791824,0.0620346l-0.3968954,0.3659554l-0.1799288,0.3348713
			l-1.252902,3.9137936l-0.0929756,0.4218235L9.2177286,22.4043064L9.2177286,22.4043064z"/>
		<path class="st1" d="M10.8365955,23.1051235l-0.3350372-0.2171402c-0.2108641,0-0.3348475,0.1240883-0.3659639,0.3411331
			l-0.0620394,0.2418957l0.1240778,0.3350315c0.0930614,0.0930424,0.2109547,0.1550865,0.3039255,0.1550865
			c0.1550999,0,0.2418861-0.0311031,0.3350372-0.1240692l0.1239929-0.3349476l0.0310173-0.0620422L10.8365955,23.1051235
			L10.8365955,23.1051235z"/>
		<path class="st1" d="M10.8054838,24.8790855l-0.3039255-0.1550865l-0.3348475,0.3101158l-0.1240873,0.3039188l-0.1240778,0.514782
			L9.893712,25.9458847l-0.3101091,1.5258064l0.1550999,0.5520668c0.1239929,0.1551151,0.2418814,0.2418957,0.3968916,0.2418957
			c0.1550999,0,0.2729931-0.0558586,0.3659639-0.1799278l0.1240778-0.4279213l-0.0309267-1.0978851l0.1239882-0.4590244
			l0.2729082-0.6449757v-0.1178856C10.9916058,25.1830158,10.9295616,25.0341148,10.8054838,24.8790855L10.8054838,24.8790855z"/>
		<path class="st1" d="M11.8785439,24.109869l-0.5210648,0.7381229v0.1240692l-0.0619526,0.3659725l0.0309315,1.035841
			l-0.0309315,0.217062l0.1240778,0.3039207l0.3349466,0.1178093c0.2170534,0,0.3658743-0.086792,0.4590206-0.2728176
			l0.0619535-0.1489124l0.0310173-1.1660347l0.0930614-0.1799374l0.3658781-0.1178093
			c0.2109547-0.2171383,0.3349476-0.4031563,0.3349476-0.5582504l-0.0929756-0.3039303l-0.1550999-0.272913
			c-0.1489153-0.2791729-0.3349476-0.4279041-0.5147896-0.4279041l-0.3101997,0.1487312L11.8785439,24.109869L11.8785439,24.109869z
			"/>
		<path class="st1" d="M14.9302416,23.1361408c0-0.1550865-0.0311031-0.2481575-0.0869627-0.2791653v-0.0247555
			l-0.0309219-0.0620441l-0.123992-0.0930424l-0.1862078-0.0310364l-0.3658791,0.1861229l-0.2791824,0.3968964l-0.3286676,0.8560066
			l-0.3348522,1.4948826v0.3658791l0.2418814,0.9179554c0.1550999,0.2108498,0.334857,0.3039207,0.5457163,0.3039207
			l0.3411322-0.1550941l0.1550093-0.1178093l0.0869617,0.1178093c0,0.1550941-0.0310163,0.2481461-0.0869617,0.2790871
			l-0.6202192,0.4901276l-0.7875977,0.8868523l-0.793973,0.6079369l-0.3349419,0.3969917l-1.0420389,0.7627544l-0.1240778,0.2171402
			l-0.1797571,0.1489201l-0.3970766,0.3969898l-1.0110159,0.7381039l-0.886939,0.9737186l-0.179842,0.3101158L8.23773,33.5253258
			l0.2790871,0.1551132l0.2418814-0.093071l0.5209742-0.310112l2.4748783-2.4128208l0.2417917-0.3349476l0.4032612-0.334938
			l1.5815697-1.5008965l0.1860361-0.1179886l0.1861172-0.0619488l0.1239882,0.1550179l0.2419815,2.3507957l-0.0309315,0.88694
			l0.1860266,0.973814l0.0247469,0.5582619l0.1860275,0.4217262l0.4280033,0.0620537
			c0.396986-0.0310364,0.5831022-0.2171555,0.5831022-0.5519981l-0.0930595-0.4590378l-0.2728996-0.5458069l-0.0620432-0.2171364
			l-0.1240788-0.793869V30.77145l-0.1860313-1.1288147v-0.4590168l0.0620394-0.3658867l-0.0620394-0.7009125l0.1239929-0.2729893
			l0.0931463-0.1239929l2.1398411-1.7429352l0.4899521-0.2171383l4.0006886-2.3507195l0.458931-0.1489105l0.3040161,0.0558586
			h0.0929661l0.3968945-0.1488247l0.2729988-0.2791843l0.0620441-0.3658772V22.311161l-0.0931473-0.2481575
			c-0.0867901-0.210783-0.2418957-0.3038445-0.4589386-0.3038445l-0.700922,0.2729034l-0.8248844,0.5209846l-0.5768337,0.2791729
			l-0.2791786,0.0867805l-0.1487331-0.0620251l-0.1241703-0.0867996l-0.123991-0.1240788l-0.0929718-0.2170429l0.0929718-1.3397789
			c0.0310211-0.1860275,0-0.3349476-0.0929718-0.4589405c-0.0868759-0.1240788-0.2109489-0.186018-0.3660488-0.186018
			l-0.4279232,0.186018l-0.3349419,0.3658886l-0.2418823,0.1799278l-0.396986-0.1488247l-0.2480659,0.1798515l-0.1798477,0.2480698
			l-0.1241684,0.3969727l-0.0619526,0.1239929l-0.1550045,0.8249035l-0.0248375,0.3350239l-0.1550999,0.731842l0.1799374,0.3659744
			l0.3720531,0.1550961c0.179842,0,0.3039303-0.1240788,0.396986-0.3349476l0.396986-1.2529888l0.2109547-0.3101044
			l0.2790031-0.2729034l0.024828,0.0311031v0.0619488l-0.1489105,0.7009106v0.1860275l0.0620384,0.3040142l0.1178074,0.2418766
			l-0.1798458,0.1860371l-0.7319241,0.4279995l-0.3410416,0.3039207l-1.0047474,0.6140347l-0.5831928,0.4590244
			l-0.7938776,0.4837818l-0.1798429,0.0929565l-0.0620432-0.0619392l-0.0310173-0.1799374l0.3659601-2.4747791
			c0-0.2480698-0.0930567-0.4279213-0.2480717-0.5209827l-0.241971-0.0310173c-0.210865,0-0.3968916,0.1860275-0.5209742,0.552
			l-0.6698895,1.7677784l-0.1239834,0.1550961l-0.0620441-0.0930614v-0.1178932l0.2170486-1.1039925l0.2729082-0.4279995
			l0.2170439-0.2418861c0.0558596-0.0930595,0.0869627-0.1861115,0.0869627-0.2729969V23.1361408L14.9302416,23.1361408z"/>
		<path class="st1" d="M18.2609406,20.047327l-0.1178875-0.2418861l-0.3100147-0.1240788l-0.3040161,0.1550102l-0.1239929,0.3658791
			l0.1239929,0.3040047l0.2791786,0.1240788c0.1488304-0.0310078,0.2417946-0.0620251,0.2728119-0.1240788l0.0931511-0.1799278
			C18.2361183,20.2333622,18.2609406,20.1402931,18.2609406,20.047327L18.2609406,20.047327z"/>
		<path class="st1" d="M17.4670696,22.8569756l0.1860313-0.4279213c0-0.272913-0.1550999-0.3969917-0.4899483-0.3969917
			c-0.2108688,0-0.3349514,0.1240788-0.3970757,0.3411407l-0.3968105,1.308754l-0.0622158,0.8001556l0.1551056,0.334938
			c0.0931454,0.0929661,0.1799278,0.1550102,0.3039207,0.1550102l0.3349419-0.1240692
			c0.0931473-0.0929756,0.1550999-0.1860447,0.1550999-0.3411312v-0.7008171l0.0620346-0.3350315l0.0868759-0.2108784
			L17.4670696,22.8569756L17.4670696,22.8569756z"/>
		<path class="st1" d="M28.6811447,29.1215668c0.5520096,0.0310249,0.887043,0.0930691,1.011034,0.2480698
			c0.0620346,0.0930614,0.0620346,0.2418957,0,0.459034l-0.8869381-0.030941c-0.9490681,0-1.6498833,0.1239929-2.1708679,0.3658791
			c-0.514883,0.2418861-0.8559113,0.6388683-1.0048313,1.1598415c-0.0930614,0.3349476-0.0619583,0.6450615,0.0930519,0.8869495
			c0.2418861,0.3349457,0.7009201,0.4900398,1.3707199,0.4900398c0.7319183,0,1.3769817-0.2171478,1.9599895-0.6450615
			l-0.1239929,0.5519943h1.4637814l0.0310078-0.0309258l0.7628593-2.747776
			c0.1240883-0.4279118,0.093071-0.7629547-0.0557632-1.0109386c-0.2791843-0.3350334-0.8249054-0.5210514-1.7119198-0.5520782
			l-2.2329102,0.0619488l-0.2729034,0.8870335L28.6811447,29.1215668L28.6811447,29.1215668z M29.5060577,30.4674435
			L29.4192753,30.77145c-0.0929737,0.2791061-0.2480698,0.5209827-0.4899654,0.7381229
			c-0.3039207,0.2108593-0.6761551,0.3348522-1.1040783,0.3348522c-0.2728939,0-0.4837627-0.0619488-0.6077538-0.1860275
			c-0.0931473-0.0868759-0.0931473-0.241972-0.0311127-0.4280071c0.1240864-0.51478,0.6388664-0.7629471,1.5568218-0.7629471
			H29.5060577L29.5060577,30.4674435z"/>
		<path class="st1" d="M24.4696903,28.2966805H22.906683l-1.2218857,4.3106918h1.6187916l0.5209732-1.7429371
			c0.1489105-0.5768433,0.42799-1.0047569,0.7939625-1.283844c0.3659649-0.2729797,0.8559113-0.3969727,1.4390259-0.3659554
			l0.3038349-0.9179554c-0.9799995-0.0868855-1.680912,0.1550007-2.1088333,0.707077L24.4696903,28.2966805L24.4696903,28.2966805z"
			/>
		<polygon class="st1" points="31.4970646,32.6073723 33.0849991,32.6073723 34.3688431,28.2966805 32.750061,28.2966805 
			31.4970646,32.6073723 		"/>
		<path class="st1" d="M19.5138493,27.3538837l-0.2729034,0.9427967h-1.0048275l-0.2480755,0.8248863h1.0110207
			l-0.7381229,2.3880062c-0.0867767,0.3348522-0.0558491,0.607851,0.093071,0.7938671
			c0.2169628,0.2730064,0.6139488,0.3969994,1.2218761,0.3969994l1.1907825-0.1239929l0.2481461-0.7939701l-0.6140251,0.0310268
			l-0.4590206-0.1551056v-0.4280071l0.645052-2.1088238h1.1909504l0.272913-0.8248863h-1.2218857l0.3659554-1.2840137
			L19.5138493,27.3538837L19.5138493,27.3538837z"/>
	</g>
</g>
<g>
</g>
<g>
</g>
<g>
</g>
<g>
</g>
<g>
</g>
<g>
</g>
<g>
</g>
<g>
</g>
<g>
</g>
<g>
</g>
<g>
</g>
<g>
</g>
<g>
</g>
<g>
</g>
<g>
</g>
</svg>
