<svg id="Layer_1" data-name="Layer 1" xmlns="http://www.w3.org/2000/svg" width="15.68559" height="13.44478" viewBox="0 0 15.68559 13.44478"><defs><style>.cls-1{fill:#fff;}</style></defs><title>icon-helper</title><path class="cls-1" d="M18.34273,4.84346a1.12,1.12,0,0,0-1.11636-1.11958V3.72306H3.77344V3.72388a1.11958,1.11958,0,0,0,0,2.23916V5.96386H17.22637V5.963A1.12,1.12,0,0,0,18.34273,4.84346Z" transform="translate(-2.65714 -3.72306)"/><path class="cls-1" d="M18.34273,10.44545a1.12,1.12,0,0,0-1.11636-1.11958V9.32505H3.77344V9.32587a1.11958,1.11958,0,0,0,0,2.23916v0.00082H17.22637V11.565A1.12,1.12,0,0,0,18.34273,10.44545Z" transform="translate(-2.65714 -3.72306)"/><path class="cls-1" d="M18.34273,16.04744a1.12,1.12,0,0,0-1.11636-1.11958V14.927H3.77344v0.00082a1.11958,1.11958,0,0,0,0,2.23916v0.00082H17.22637V17.167A1.12,1.12,0,0,0,18.34273,16.04744Z" transform="translate(-2.65714 -3.72306)"/></svg>