<svg id="Layer_1" data-name="Layer 1" xmlns="http://www.w3.org/2000/svg" width="17.51758" height="21.26416" viewBox="0 0 17.51758 21.26416"><defs><style>.cls-1{fill:#fff;}</style></defs><title>icon-my_account</title><path class="cls-1" d="M10.499,11.86841A5.50024,5.50024,0,1,1,16,6.36792,5.50664,5.50664,0,0,1,10.499,11.86841Zm0-10.022a4.52173,4.52173,0,1,0,4.52246,4.52148A4.52659,4.52659,0,0,0,10.499,1.84644Z" transform="translate(-1.74121 -0.86792)"/><path class="cls-1" d="M10.49951,22.13208A11.74692,11.74692,0,0,1,1.92236,18.3772l-0.18115-.19531,0.06543-.25781A8.96366,8.96366,0,0,1,6.55615,12.093l0.26367-.13037L7.05811,12.135a5.953,5.953,0,0,0,6.8833,0l0.23828-.17236L14.44336,12.093a8.96263,8.96263,0,0,1,4.749,5.83008l0.06641,0.25879-0.18164.19531A11.7488,11.7488,0,0,1,10.49951,22.13208ZM2.8252,17.90649a10.69365,10.69365,0,0,0,15.34961,0,7.99117,7.99117,0,0,0-3.91113-4.80664,6.92787,6.92787,0,0,1-7.52832,0A7.98732,7.98732,0,0,0,2.8252,17.90649Z" transform="translate(-1.74121 -0.86792)"/></svg>