<svg id="Layer_1" data-name="Layer 1" xmlns="http://www.w3.org/2000/svg" viewBox="0 0 21.43945 21.3689"><defs><style>.cls-1{fill:#fff;}</style></defs><title>icon-tickets</title><path class="cls-1" d="M7.36816,21.3689a1.892,1.892,0,0,1-1.33838-.55273l-0.7793-.77051a0.72147,0.72147,0,0,1-.001-1.01465,2.05561,2.05561,0,0,0-2.92285-2.87793,0.72052,0.72052,0,0,1-.98975-0.01953l-0.78125-.78027A1.87171,1.87171,0,0,1,0,14.02124a1.85268,1.85268,0,0,1,.54736-1.31934l0.002,0.002q0.03-.03076.063-0.05859L12.751,0.52466A1.95092,1.95092,0,0,1,15.41895.53l0.76953,0.77539a0.736,0.736,0,0,1,.02344,1.00146,2.00892,2.00892,0,0,0,.0791,2.7959,2.05982,2.05982,0,0,0,2.82422.08594,0.73505,0.73505,0,0,1,.999.0249l0.77637,0.78271a1.87138,1.87138,0,0,1-.002,2.6499L8.69238,20.823A1.86646,1.86646,0,0,1,7.36816,21.3689ZM6.69629,19.42847l0.36377,0.36816a0.43129,0.43129,0,0,0,.604.00586l5.584-5.58008-0.36523-.36035A0.70433,0.70433,0,0,1,12.71,13.12964a0.73718,0.73718,0,0,1,.59375-0.51172,0.77609,0.77609,0,0,1,.60645.21387L14.27441,13.199l5.58594-5.57373a0.41957,0.41957,0,0,0,0-.60889l-0.34473-.34424a3.48618,3.48618,0,0,1-4.7793-4.76855L14.38574,1.554a0.44313,0.44313,0,0,0-.61328-0.00049L8.1875,7.12622,8.56006,7.49341a0.74977,0.74977,0,0,1,.2085.52832,0.71945,0.71945,0,0,1-.23145.51953,0.6719,0.6719,0,0,1-.4751.19238,0.76913,0.76913,0,0,1-.53613-0.20947L7.16016,8.15162l-5.584,5.57861a0.41775,0.41775,0,0,0,.00342.59863L1.938,14.68531a3.52259,3.52259,0,0,1,4.2417.52148A3.44,3.44,0,0,1,6.69629,19.42847Zm6.87988-6.28613,0.01172,0.01074Zm-5.73779-4.957h0Zm4.19189,4.52051c-0.02246,0-.04395-0.001-0.06641-0.00293a0.70228,0.70228,0,0,1-.52051-0.29785l-0.55908-.5293a0.73378,0.73378,0,0,1-.17969-0.74365,0.71564,0.71564,0,0,1,.54736-0.49951,0.49733,0.49733,0,0,1,.09277-0.00879h0.00879a0.71472,0.71472,0,0,1,.55273.2168l0.61426,0.61279a0.67227,0.67227,0,0,1,.23047.49951,0.715,0.715,0,0,1-.23145.56152A0.69254,0.69254,0,0,1,12.03027,12.70581Zm-0.21973-.55469a0.27525,0.27525,0,0,0,.05371.05273Zm0.38281-.39746,0.00977,0.00879h0C12.20605,11.76246,12.20215,11.75855,12.19336,11.75367ZM10.0332,10.71119H10.01514a0.73536,0.73536,0,0,1-.54688-0.25928L8.915,9.90308A0.69389,0.69389,0,0,1,8.72559,9.2146,0.73985,0.73985,0,0,1,9.2793,8.66773a0.48889,0.48889,0,0,1,.10986-0.01221H9.4209a0.69894,0.69894,0,0,1,.54443.251l0.55908,0.54639a0.70377,0.70377,0,0,1,.22607.50146,0.72608,0.72608,0,0,1-.207.5459A0.69974,0.69974,0,0,1,10.0332,10.71119Zm-0.21436-.55176a0.27553,0.27553,0,0,0,.03418.0332ZM10.189,9.761l0.01563,0.01563A0.07878,0.07878,0,0,0,10.189,9.761ZM9.23145,9.58423a0.08356,0.08356,0,0,0,.01611.01611Zm0.36523-.41211L9.625,9.20044A0.31,0.31,0,0,0,9.59668,9.17212Z"/></svg>