<svg id="Layer_1" data-name="Layer 1" xmlns="http://www.w3.org/2000/svg" viewBox="0 0 20.99951 21"><defs><style>.cls-1{fill:#fff;}</style></defs><title>icon-scanner</title><path class="cls-1" d="M14.41357,14.252a0.99843,0.99843,0,0,1-.60742-0.20605l-3.91455-3A1.00174,1.00174,0,0,1,9.5,10.252V5a0.99976,0.99976,0,1,1,1.99951,0V9.7583L15.02295,12.458A1,1,0,0,1,14.41357,14.252Z"/><path class="cls-1" d="M10.5,21A10.5,10.5,0,1,1,20.99951,10.5,10.5118,10.5118,0,0,1,10.5,21Zm0-20a9.5,9.5,0,1,0,9.49951,9.5A9.51081,9.51081,0,0,0,10.5,1Z"/></svg>