<?xml version="1.0" encoding="utf-8"?>
<!-- Generator: Adobe Illustrator 19.1.0, SVG Export Plug-In . SVG Version: 6.00 Build 0)  -->
<svg version="1.0" id="Layer_1" xmlns="http://www.w3.org/2000/svg" xmlns:xlink="http://www.w3.org/1999/xlink" x="0px" y="0px"
	 viewBox="0 0 50 50" style="enable-background:new 0 0 50 50;" xml:space="preserve">
<style type="text/css">
	.st0{fill:#E71E3F;}
	.st1{fill:#FFCF32;}
	.st2{fill:#E95A0C;}
</style>
<g>
	<path class="st0" d="M25,0C11.1914062,0,0,11.1929321,0,25c0,13.8070068,11.1914062,25,25,25c13.8045654,0,25-11.1929932,25-25
		C50,11.1929321,38.8045654,0,25,0z"/>
	<path class="st1" d="M25.10853,13.2349291c-6.3924675,0-11.5931053,5.2006388-11.5931053,11.5931063
		s5.2006378,11.5922565,11.5931034,11.5922565s11.5931015-5.2006359,11.5931015-11.5922565
		C36.7016373,18.4355679,31.5009975,13.2349291,25.10853,13.2349291z"/>
	<g>
		<g>
			<circle class="st2" cx="30.501873" cy="21.7237186" r="1.1417376"/>
			<circle class="st2" cx="19.498127" cy="21.7237186" r="1.1417376"/>
		</g>
		<path class="st2" d="M27.7121754,24.0314617c-0.3873196,0.0364056-0.6735115,0.3812523-0.6391277,0.7695866
			c0.0010109,0.0101109,0.0819149,1.0143127-0.4874363,1.6372623c-0.3276558,0.3579941-0.8403759,0.5390148-1.5240002,0.5390148
			c-0.6896935,0-1.2165699-0.1860752-1.5674839-0.5521622c-0.6077824-0.636097-0.5703621-1.6514206-0.5703621-1.6615353
			c0.0192146-0.3883305-0.2781029-0.7210445-0.6684551-0.7432919c-0.4085579-0.0212364-0.7240772,0.2781029-0.7463245,0.6684551
			c-0.0040474,0.065733-0.0778675,1.6180477,0.9495926,2.7031536c0.6290169,0.6654243,1.5047836,1.002182,2.6030369,1.002182
			c1.1033077,0,1.9709873-0.3397903,2.5787659-1.011282c0.9910545-1.0952168,0.8494759-2.6525898,0.8423958-2.7183228
			C28.4443455,24.2772026,28.0984859,23.9930305,27.7121754,24.0314617z"/>
	</g>
	<path class="st1" d="M41.80019,24.3917961c-0.0241585-0.021368-2.3646507-2.2150631-0.8529472-5.4345245
		c0.0771179-0.1644554,0.0817642-0.354002,0.0130081-0.5221748c-0.0687523-0.1681747-0.2053413-0.3001137-0.37537-0.3642216
		c-0.145874-0.0548172-3.5585976-1.3760509-2.7530365-4.701437c0.0529594-0.2174196-0.0092888-0.4459858-0.1653862-0.6057987
		c-0.1560974-0.1607409-0.3828049-0.2304268-0.6011543-0.1839705c-0.0213661,0.0046463-2.1165733,0.4292631-3.577179-0.5611992
		c-0.708004-0.4812946-1.1567726-1.2413263-1.333313-2.2615232c-0.0371666-0.2109156-0.1756058-0.3902359-0.3697948-0.479434
		c-0.195118-0.090126-0.4218273-0.0780468-0.6057987,0.0315914c-0.1412296,0.083622-3.4768333,2.0218019-5.6240711-0.5825682
		c-0.1486626-0.180253-0.3716564-0.2480783-0.5862865-0.2202053c-0.2164898-0.0288019-0.4404106,0.0399523-0.5900002,0.2211332
		c-0.0891991,0.1087103-2.2187824,2.6359653-5.2468395,0.541688c-0.1579533-0.1096382-0.3549309-0.1421585-0.54076-0.0929127
		c-0.1848984,0.0501747-0.3391361,0.180253-0.4190407,0.354002c-0.013937,0.0306625-1.4689674,3.0596495-5.1780825,2.3572216
		c-0.2220621-0.0390244-0.4487753,0.035305-0.6002226,0.201622c-0.15238,0.166316-0.2071972,0.3995295-0.1458759,0.6169481
		c0.0464563,0.1635275,1.0843029,4.0129461-2.7576799,5.2932959c-0.1793242,0.0594635-0.3242674,0.195118-0.39674,0.3707237
		c-0.0715427,0.1756077-0.0631819,0.3735142,0.0232306,0.5426178c0.0185833,0.035305,1.7597876,3.5288639-0.8910427,5.6928253
		c-0.1514502,0.1235733-0.2397175,0.3168354-0.2397175,0.5119534c0,0.181181,0.0771189,0.3558578,0.2099867,0.4785042
		c0.0966311,0.0901279,2.3544359,2.2429409,0.8557377,5.4363823c-0.0771189,0.1644573-0.0817652,0.354002-0.0130081,0.5221767
		c0.0687571,0.1681728,0.2053404,0.3001137,0.375371,0.3642197c0.1458759,0.0548172,3.5585957,1.3760529,2.7530355,4.7014389
		c-0.0529594,0.2164917,0.0102224,0.4450531,0.1653881,0.6057968c0.1542377,0.1588821,0.3809462,0.2276421,0.6002226,0.1848984
		c0.0204411-0.0046463,2.1351595-0.4236908,3.5846157,0.5639877c0.7052135,0.4812889,1.152132,1.2413254,1.3277378,2.2578049
		c0.0362377,0.2109108,0.1756058,0.3902359,0.3697948,0.479435c0.1932621,0.0891953,0.4199715,0.0771179,0.6057987-0.0315895
		c0.1412296-0.0836182,3.4777622-2.0208778,5.6240711,0.5825691C24.5739918,41.4191666,24.7598209,41.5,24.947506,41.5
		c0.028801,0,0.0566788-0.0111504,0.0845509-0.0148659C25.0608597,41.4888496,25.0887356,41.5,25.1175365,41.5
		c0.187685,0,0.3744431-0.0808334,0.5035934-0.2378578c0.0891972-0.1087036,2.2187805-2.6350327,5.2468395-0.541687
		c0.1579514,0.1087074,0.3549309,0.1412315,0.5389004,0.0919838c0.1849003-0.0492439,0.3382053-0.1783943,0.4208984-0.3512115
		c0.0594654-0.1245079,1.4959126-3.0512848,5.1790142-2.3590813c0.2202072,0.0390244,0.4478455-0.0353088,0.6002235-0.2016258
		c0.1523819-0.166317,0.2071991-0.3995285,0.1458778-0.6169472c-0.0464592-0.1635323-1.0843048-4.0129471,2.757679-5.2932968
		c0.1793213-0.0594654,0.3233376-0.1951199,0.394886-0.3707256c0.0724754-0.1746769,0.0641098-0.3725853-0.0213737-0.541687
		c-0.0724754-0.1440144-1.7458458-3.541872,0.8901138-5.6937542c0.1514511-0.1235752,0.2397194-0.3168354,0.2397194-0.5119534
		C42.0120392,24.6891212,41.9358482,24.5144424,41.80019,24.3917961z M39.438324,31.0109749
		c-2.8347969,1.2701302-3.3244553,3.8865852-3.1200447,5.6946869c-2.9351463-0.1848984-4.6048088,1.5990448-5.2932968,2.5811424
		c-2.5885773-1.4355164-4.8296566-0.3660774-5.9882927,0.7033615c-1.930748-1.8796463-4.5026016-1.5005569-6.1155853-0.8157806
		c-0.3196239-0.9746704-0.8826809-1.7402763-1.6798801-2.2810364c-1.2283173-0.8343658-2.722373-0.9198418-3.6645184-0.8659554
		c0.2062693-2.6257439-1.6408558-4.3056221-3.0940304-5.055439c0.9133444-2.5356178-0.0176544-4.6735611-0.9319229-5.8219757
		c1.875001-1.9493313,1.5943995-4.5741444,1.0090418-6.1731911c2.8347979-1.2701321,3.3244543-3.8865824,3.1200457-5.6946869
		c2.9342175,0.1681738,4.6038799-1.5999746,5.2932968-2.5811443c2.5876484,1.4355164,4.8296547,0.3660812,5.9882908-0.7033567
		c1.9298191,1.8787155,4.5016747,1.4986982,6.1155853,0.8157816c0.3196259,0.9746647,0.8826809,1.7402754,1.6798801,2.2810307
		c1.2301788,0.8343649,2.7251587,0.9189157,3.6645203,0.8659554c-0.2062721,2.6257439,1.6408539,4.305624,3.0940285,5.0554409
		c-0.9133453,2.5356159,0.0176506,4.6735611,0.9319229,5.8219738C38.5723686,26.7871132,38.8529701,29.4119282,39.438324,31.0109749
		z"/>
</g>
<g>
</g>
<g>
</g>
<g>
</g>
<g>
</g>
<g>
</g>
<g>
</g>
<g>
</g>
<g>
</g>
<g>
</g>
<g>
</g>
<g>
</g>
<g>
</g>
<g>
</g>
<g>
</g>
<g>
</g>
</svg>
