<?xml version="1.0" encoding="utf-8"?>
<!-- Generator: Adobe Illustrator 19.1.0, SVG Export Plug-In . SVG Version: 6.00 Build 0)  -->
<svg version="1.1" id="Layer_1" xmlns="http://www.w3.org/2000/svg" xmlns:xlink="http://www.w3.org/1999/xlink" x="0px" y="0px"
	 viewBox="0 0 65 175" style="enable-background:new 0 0 65 175;" xml:space="preserve">
<style type="text/css">
	.st0{fill:#112D46;}
	.st1{fill:#418CCB;}
	.st2{clip-path:url(#SVGID_2_);fill:#48B4E7;}
	.st3{fill:#48B4E7;}
	.st4{fill:#FAC78D;}
	.st5{fill:#FBBC30;}
	.st6{opacity:0.1;fill:#FBBC30;}
	.st7{opacity:0.1;}
	.st8{clip-path:url(#SVGID_4_);fill:#112D46;}
	.st9{fill:#FFFFFF;}
</style>
<g>
	<path class="st0" d="M52.0330849,139.3041382c0,0.6856079-0.5552406,1.2408142-1.2403297,1.2408142l0,0
		c-0.6851349,0-1.2403793-0.5552063-1.2403793-1.2408142v-31.6119003c0-0.6855698,0.5552444-1.2408142,1.2403793-1.2408142l0,0
		c0.6850891,0,1.2403297,0.5552444,1.2403297,1.2408142V139.3041382z"/>
	<path class="st0" d="M59.2748375,153.4228821c0,2.1069336-1.7083244,3.8152618-3.8147774,3.8152618h-8.7747574
		c-2.1078453,0-3.815258-1.7083282-3.815258-3.8152618v-33.1912842c0-2.1069336,1.7074127-3.8152618,3.815258-3.8152618h8.7747574
		c2.1064529,0,3.8147774,1.7083282,3.8147774,3.8152618V153.4228821z"/>
	<rect x="26.7780495" y="98.4265289" class="st1" width="6.2190418" height="70.4801407"/>
	<g>
		<defs>
			<path id="SVGID_1_" d="M57.8535233,80.7931213c0.1828575,13.8223801-10.8746338,25.1753311-24.69701,25.3581848l0,0
				C19.3337059,106.3342133,7.9807558,95.277153,7.7983346,81.4543457L7.6046705,66.8310089
				c-0.1824241-13.821846,10.8751116-25.1752777,24.6969604-25.3581314l0,0
				c13.8218956-0.1819916,25.1758041,10.8745842,25.3586617,24.6969604L57.8535233,80.7931213z"/>
		</defs>
		<clipPath id="SVGID_2_">
			<use xlink:href="#SVGID_1_"  style="overflow:visible;"/>
		</clipPath>
		<path class="st2" d="M65.9445419,116.0299301H1.4030116V89.3526154c0,0,13.3815622,3.3561935,32.0986633,3.3561935
			s32.4428673-3.3561935,32.4428673-3.3561935V116.0299301z"/>
	</g>
	<rect x="18.2171669" y="168.5202637" class="st0" width="14.9182673" height="1.6778333"/>
	<rect x="32.7607422" y="103.2284393" class="st3" width="6.2190418" height="70.4801407"/>
	<rect x="32.6223984" y="173.3221741" class="st0" width="14.9182673" height="1.6778333"/>
	<g>
		<path class="st4" d="M7.9137211,63.0316963c-0.0060983-1.8044586,1.451808-3.2731705,3.2567472-3.2797012l0,0
			c1.8049402-0.0065765,3.2731695,1.4513283,3.2792683,3.2557869l0.1725836,47.5707397
			c0.0070076,1.8054199-1.4513788,3.2736511-3.2553577,3.2807083l0,0c-1.8049402,0.0060959-3.2736502-1.4522934-3.2797489-3.2567978
			L7.9137211,63.0316963z"/>
		<path class="st5" d="M18.2284031,104.6990204l2.1453953-41.2527733c0.2152214-4.1472626-0.5050659-7.2549095-4.6508818-7.4715729
			c-4.1473112-0.2147408-7.684967,2.9721375-7.900672,7.1194l-2.0970874,40.3195686
			C10.7048283,104.069252,13.2300053,104.1996231,18.2284031,104.6990204z"/>
		<circle class="st4" cx="13.3488998" cy="110.8024521" r="5.2221646"/>
	</g>
	<path class="st5" d="M7.9605875,98.1686249H57.729248c0.1041069-0.9819412,0.1580315-1.9784317,0.1444435-2.9899597
		l-0.1937103-29.0289993c-0.1824188-13.8223724-11.5362854-24.8789024-25.358181-24.6969566
		C18.4994698,41.6355667,7.4419341,52.9889946,7.6248384,66.8108902l0.1931839,29.0289993
		C7.8283434,96.6258163,7.8794866,97.4019012,7.9605875,98.1686249z"/>
	<path class="st4" d="M40.8644333,42.3530655c0,4.2738876-3.4640465,24.544548-7.736969,24.544548l0,0
		c-4.2738876,0-7.7379341-20.2706604-7.7379341-24.544548V22.5452118c0-4.2729759,3.4640465-7.7374525,7.7379341-7.7374525l0,0
		c4.2729225,0,7.736969,3.4644766,7.736969,7.7374525V42.3530655z"/>
	<g>
		<path class="st6" d="M56.3711739,70.0878067c-0.1678734-2.6734085-0.4543571-5.3458633-0.5420876-8.0230217
			c-1.8677483-1.9039078-3.9160461-3.6445961-5.9507599-5.3580589c-0.0834999-0.0703506-0.1566353-0.147274-0.2321205-0.2227631
			c-2.1496239,1.3275375-3.6436386,3.6938171-3.9006348,6.3700142l0.794857,35.0773354
			c0.8750572-0.3061676,1.2769241-0.600235,1.6792755-0.8834534c0.6386528-0.4506607,1.2886391-0.8853302,1.9268608-1.3369446
			c0.3751221-0.2654037,0.7535591-0.5285034,1.1141853-0.813591c0.2161865-0.1730576,0.3320007-0.2649689,0.350296-0.2775955
			c0.7540436-0.6096497,1.610321-1.0354385,2.4928627-1.2229996c1.0494537-0.369072,2.1730537-0.4013901,3.2229881-0.0032654
			c-0.1163025-3.7871628-0.2616539-7.5737991-0.3999977-11.3557816
			C56.7810669,78.052681,56.6211624,74.0671921,56.3711739,70.0878067z"/>
		<path class="st4" d="M56.1967697,62.0600815c0.0079727-1.8044624-1.4490242-3.2745628-3.2534828-3.2825356l0,0
			c-1.8044586-0.0079689-3.2736511,1.4485435-3.2821007,3.2534828l-0.210083,47.5702515
			c-0.0079727,1.8053741,1.4485435,3.2750473,3.2530022,3.28302l0,0c1.8049393,0.0084457,3.2750435-1.449028,3.2821007-3.2534866
			L56.1967697,62.0600815z"/>
		<path class="st5" d="M47.6447716,103.1646652l-2.2490196-40.312561c-0.2096024-4.1045685-0.1402168-7.9897423,3.9648361-8.2012177
			c4.1032257-0.2091217,7.6024208,2.9482231,7.8125038,7.0527954l2.0450363,39.9069443
			c-2.1693077,1.01474-2.5974464,1.3289261-5.2741241,1.6445541
			C48.7214546,103.8703995,49.9003677,103.5295181,47.6447716,103.1646652z"/>
		<circle class="st4" cx="50.7242546" cy="109.8263474" r="5.2221332"/>
	</g>
	<g class="st7">
		<path class="st0" d="M40.6463814,42.2915993c-1.0438881-0.7976418-1.8438835-1.5493317-2.2068138-2.8698578
			c-0.2288551-0.8511353-0.2288551-1.7017937,0-2.5528831c0.4853287-1.7641716,1.8616524-2.9392929,3.5348282-3.3585472
			c0.649456-1.7936554,0.5242691-3.8138638,0.6443176-5.6863194c0.0980072-1.5394897,0.3906364-2.9603729,0.7709465-4.3802967
			c-0.4952202-0.482111-1.0208855-0.9322891-1.5812683-1.3383865c0.2353897-0.7924576,0.3638916-1.6313992,0.3638916-2.4998703
			c0-3.2848873-1.8096008-6.1435566-4.4839706-7.6445837c-0.9186516,0.6405735-1.816658,1.3134642-2.6921425,2.0126696
			c0.0524902,0.9641266-0.1214867,1.956872-0.5050621,2.8262577c-1.4133453,3.2009487-4.1280537,5.6183224-5.3833637,8.9904594
			c-0.7062187,1.896368-1.3664818,3.8415241-1.6975727,5.8438702c-0.1448727,0.8745708-0.1748848,1.7477016-0.1969261,2.632597
			c-0.0117168,0.4595413,0.0257854,0.7465515,0.0576706,0.8980026c1.1770477,2.217617,0.7104416,5.1691055-1.7055359,6.4867973
			c-0.014986,0.0084496-0.0328007,0.0164223-0.0483112,0.0243912c-0.2053776,0.1608658-0.4243927,0.3151512-0.6719742,0.4557991
			c-0.688406,0.3906326-1.3219204,0.840332-1.9864082,1.2703438c2.6185265,2.8487778,6.3747196,4.6349907,10.548727,4.6349907
			c3.9099998,0,7.4485703-1.5728188,10.0333366-4.1130714c-0.2175713-0.1284523-0.4328423-0.2640114-0.6429253-0.4131088
			C42.0325508,43.184948,41.2963181,42.7882156,40.6463814,42.2915993z"/>
	</g>
	<g>
		<g>
			<path class="st4" d="M41.8885841,20.2647381c0.2353897-0.7925053,0.3638916-1.6313972,0.3638916-2.4998703
				C42.2524757,12.9240198,38.3284035,9,33.487606,9c-4.8403645,0-8.7644367,3.9240198-8.7644367,8.7648678
				c0,0.8684731,0.1285,1.707365,0.3638897,2.4998703c-3.5901432,2.6035442-5.9259338,6.8314781-5.9259338,11.6052418
				c0,7.9128189,6.4145756,14.3269119,14.3264809,14.3269119c7.9123383,0,14.3269157-6.414093,14.3269157-14.3269119
				C47.8145218,27.0962162,45.478775,22.8682823,41.8885841,20.2647381z"/>
		</g>
		<g>
			<defs>
				<path id="SVGID_3_" d="M41.8885841,20.2647381c0.2353897-0.7925053,0.3638916-1.6313972,0.3638916-2.4998703
					C42.2524757,12.9240198,38.3284035,9,33.487606,9c-4.8403645,0-8.7644367,3.9240198-8.7644367,8.7648678
					c0,0.8684731,0.1285,1.707365,0.3638897,2.4998703c-3.5901432,2.6035442-5.9259338,6.8314781-5.9259338,11.6052418
					c0,7.9128189,6.4145756,14.3269119,14.3264809,14.3269119c7.9123383,0,14.3269157-6.414093,14.3269157-14.3269119
					C47.8145218,27.0962162,45.478775,22.8682823,41.8885841,20.2647381z"/>
			</defs>
			<clipPath id="SVGID_4_">
				<use xlink:href="#SVGID_3_"  style="overflow:visible;"/>
			</clipPath>
			<path class="st8" d="M45.8407898,22.3318138c-0.0403328-1.6858044-0.5627327-3.2712975-1.3031883-4.7761173
				c-0.1636429-0.3320026-0.2480659-0.6874409-0.2438354-1.0321217c-0.3536148-0.628809-0.7188988-1.2515678-1.083744-1.8743267
				c-0.9490967-0.970705-1.8457108-2.0257797-2.2682304-3.2938185c-0.9200439-0.6227102-1.9868813-1.0883989-3.2272148-1.3190823
				c0,0-0.1524124,7.2549086,6.7545509,9.7861834l1.557354,3.2966518
				C45.9157982,22.8959427,45.8482819,22.6342869,45.8407898,22.3318138z"/>
			<path class="st8" d="M24.4357281,14.4893446c-0.2490273-0.0309725-0.3934689-0.1120768-0.3934689-0.1120768l1.4049416-3.4274549
				l5.8434372-3.2023416l4.4947281,0.9547143l2.3034248,1.5170174C38.0887909,10.219203,34.324192,15.7254505,24.4357281,14.4893446
				z"/>
			<path class="st8" d="M24.2303505,21.7400284c0.9669113-0.9538021,1.8428745-1.5816994,2.1327171-1.8818188
				c0,0-0.8197327-1.3205242-0.6598282-3.4813805c0.1599026-2.1608572,1.1202831-3.8415232,1.1202831-3.8415232
				l-2.0806637-1.1203327l-2.5608559,7.1227121l-0.9941387,1.2839336
				C22.1679325,20.4973431,23.2028866,21.1214943,24.2303505,21.7400284z"/>
			<path class="st8" d="M40.6498833,20.1780167c0.279953,0.2902756,1.1071777,0.885807,2.0351944,1.7856846
				c0.9786797-0.6987267,1.9648399-1.3847733,2.9645996-2.0483017l-0.8187752-1.0579071l-2.5608559-7.1226645l-2.0806618,1.120285
				c0,0,0.9603806,1.680666,1.1202812,3.8415232C41.4695702,18.8574924,40.6498833,20.1780167,40.6498833,20.1780167z"/>
		</g>
		<circle class="st0" cx="30.4085522" cy="18.7646236" r="0.7305857"/>
		<circle class="st0" cx="36.2522049" cy="18.7646236" r="0.7303696"/>
		<path class="st9" d="M32.1562767,22.4786091c0.0290985,0.5008373,0.4435997,0.8984833,0.9524155,0.8984833
			c0.5083237,0,0.9228745-0.397646,0.9519234-0.8984833H32.1562767z"/>
	</g>
</g>
</svg>
