<?xml version="1.0" encoding="utf-8"?>
<!-- Generator: Adobe Illustrator 19.1.0, SVG Export Plug-In . SVG Version: 6.00 Build 0)  -->
<svg version="1.1" id="Layer_1" xmlns="http://www.w3.org/2000/svg" xmlns:xlink="http://www.w3.org/1999/xlink" x="0px" y="0px"
	 viewBox="0 0 375 74" style="enable-background:new 0 0 375 74;" xml:space="preserve">
<style type="text/css">
	.st0{clip-path:url(#SVGID_2_);}
	.st1{fill:#3049A2;}
	.st2{fill-rule:evenodd;clip-rule:evenodd;fill:#3049A2;}
</style>
<g>
	<defs>
		<rect id="SVGID_1_" x="0.0000219" width="375" height="74"/>
	</defs>
	<clipPath id="SVGID_2_">
		<use xlink:href="#SVGID_1_"  style="overflow:visible;"/>
	</clipPath>
	<g class="st0">
		<rect x="-152.296936" y="57.2923393" class="st1" width="235.551178" height="14.1487608"/>
		<g>
			<rect x="0.2788361" y="45.8854904" class="st1" width="11.7140875" height="12.2026958"/>
			<polygon class="st1" points="12.877615,46.0775986 -0.6060072,46.0775986 6.1358008,40.4697571 			"/>
		</g>
		<g>
			<rect x="15.0876541" y="45.8854904" class="st1" width="11.714057" height="12.2026958"/>
			<polygon class="st1" points="27.6865864,46.0775986 14.2029324,46.0775986 20.9447441,40.4697571 			"/>
		</g>
		<g>
			<rect x="29.896595" y="45.8854904" class="st1" width="11.7140865" height="12.2026958"/>
			<polygon class="st1" points="42.4955254,46.0775986 29.0119038,46.0775986 35.7537155,40.4697571 			"/>
		</g>
		<g>
			<rect x="44.7055626" y="45.8854904" class="st1" width="11.7140875" height="12.2026958"/>
			<polygon class="st1" points="57.304493,46.0775986 43.8207207,46.0775986 50.5626831,40.4697571 			"/>
		</g>
		<g>
			<path class="st1" d="M-8.6358643,58.0662193c0,0.1381607-0.0667238,0.2501602-0.1485691,0.2501602l0,0
				c-0.0819979,0-0.1487217-0.1119995-0.1487217-0.2501602v-18.055069c0-0.1380119,0.0667238-0.250042,0.1487217-0.250042l0,0
				c0.0818453,0,0.1485691,0.11203,0.1485691,0.250042V58.0662193z"/>
			<circle class="st1" cx="-8.7937899" cy="39.6428452" r="1.1329505"/>
			<rect x="-9.0910654" y="40.5897865" class="st1" width="0.5850274" height="0.4318943"/>
			<path class="st1" d="M-8.0475512,57.7618065c-0.001339,0.4101715-0.3350182,0.7417831-0.7453413,0.7402916l0,0
				c-0.4103527-0.0014915-0.7417812-0.3350182-0.7402897-0.7453423l0.0114403-3.3985291
				c0.0014601-0.4103546,0.3351402-0.7417831,0.7453403-0.7404442l0,0c0.4103222,0.0014915,0.7417812,0.3351402,0.7404423,0.7454948
				L-8.0475512,57.7618065z"/>
		</g>
		<rect x="82.6657715" y="57.2914543" class="st1" width="147.1089325" height="1.6734194"/>
		<rect x="89.5860062" y="57.817215" class="st1" width="0.5578551" height="8.5323086"/>
		<rect x="99.0180054" y="57.817215" class="st1" width="0.5580093" height="8.5323086"/>
		<rect x="108.4500046" y="57.817215" class="st1" width="0.5580093" height="8.5323086"/>
		<rect x="117.8820038" y="57.817215" class="st1" width="0.5580093" height="8.5323086"/>
		<rect x="127.314003" y="57.817215" class="st1" width="0.5580093" height="8.5323086"/>
		<rect x="136.7460022" y="57.817215" class="st1" width="0.5580093" height="8.5323086"/>
		<rect x="146.4822693" y="57.817215" class="st1" width="0.5580093" height="8.5323086"/>
		<rect x="155.9142609" y="57.817215" class="st1" width="0.5580093" height="8.5323086"/>
		<rect x="165.3462677" y="57.817215" class="st1" width="0.5580093" height="8.5323086"/>
		<rect x="174.7782593" y="57.817215" class="st1" width="0.5580093" height="8.5323086"/>
		<rect x="184.2102661" y="57.817215" class="st1" width="0.5580093" height="8.5323086"/>
		<rect x="193.6422577" y="57.817215" class="st1" width="0.5580093" height="8.5323086"/>
		<rect x="203.0742645" y="57.817215" class="st1" width="0.5580093" height="8.5323086"/>
		<rect x="212.5062561" y="57.817215" class="st1" width="0.5580093" height="8.5323086"/>
		<rect x="221.9382629" y="57.817215" class="st1" width="0.5580093" height="8.5323086"/>
		<g>
			<g>
				<g>
					<path class="st1" d="M77.2757263,22.8137283c6.9981689,0,12.6916046,5.6934814,12.6916046,12.6916504
						s-5.6934357,12.6916504-12.6916046,12.6916504s-12.6916199-5.6934814-12.6916199-12.6916504
						S70.2775574,22.8137283,77.2757263,22.8137283 M77.2757263,21.8137283
						c-7.5615845,0-13.6916199,6.1297607-13.6916199,13.6916504c0,7.5612793,6.1300354,13.6916504,13.6916199,13.6916504
						c7.5619049,0,13.6916046-6.1303711,13.6916046-13.6916504C90.9673309,27.9434891,84.8376312,21.8137283,77.2757263,21.8137283
						L77.2757263,21.8137283z"/>
				</g>
			</g>
			<g>
				<path class="st1" d="M63.4701691,58.43116c-0.0883789,0-0.1777344-0.0234375-0.2587891-0.0722656
					c-0.2358398-0.1435547-0.3115234-0.4501953-0.168457-0.6865234l13.6401367-22.5146484
					c0.1435547-0.2363281,0.4506836-0.3115234,0.6870117-0.1689453c0.2358398,0.1435547,0.3115234,0.4501953,0.168457,0.6865234
					L63.8983917,58.189949C63.8041534,58.3452225,63.6391144,58.43116,63.4701691,58.43116z"/>
			</g>
			<g>
				<path class="st1" d="M90.9037628,58.43116c-0.1689453,0-0.3339844-0.0859375-0.4277344-0.2412109L76.8358917,35.6753006
					c-0.1430664-0.2363281-0.0673828-0.5429688,0.168457-0.6865234c0.2368164-0.1416016,0.5444336-0.0673828,0.6870117,0.1689453
					l13.6401367,22.5146484c0.1425781,0.2363281,0.0673828,0.5429688-0.1689453,0.6865234
					C91.0814972,58.4077225,90.99263,58.43116,90.9037628,58.43116z"/>
			</g>
			<circle class="st1" cx="77.2758713" cy="35.5053596" r="1.9522719"/>
			<circle class="st1" cx="77.200264" cy="22.4727707" r="1.9396452"/>
			<circle class="st1" cx="67.7935181" cy="26.6692505" r="1.9396452"/>
			<circle class="st1" cx="86.9112701" cy="26.8215313" r="1.9396452"/>
			<circle class="st1" cx="64.1550446" cy="35.1502914" r="1.9396452"/>
			<circle class="st1" cx="90.4733734" cy="36.012558" r="1.9396452"/>
			<circle class="st1" cx="66.7919006" cy="43.5173874" r="1.9396452"/>
			<circle class="st1" cx="87.0757217" cy="44.0752449" r="1.9396452"/>
			<circle class="st1" cx="76.9468155" cy="48.7404327" r="1.9396452"/>
		</g>
		<ellipse class="st1" cx="164.1559753" cy="36.5203362" rx="19.0161285" ry="7.3139381"/>
		<path class="st1" d="M197.0919037,57.3230972V43.3272285c0-1.6803894-1.3623199-3.0425835-3.042572-3.0425835H134.262619
			c-1.6802673,0-3.0425873,1.3621941-3.0425873,3.0425835v13.9958687H197.0919037z"/>
		<path class="st1" d="M192.0505676,42.4905167c0,3.7389069-3.0310211,6.7697411-6.7697449,6.7697411h-42.2496948
			c-3.7387543,0-6.7697449-3.0308342-6.7697449-6.7697411l0,0c0-3.738903,3.0309906-6.7697411,6.7697449-6.7697411h42.2496948
			C189.0195465,35.7207756,192.0505676,38.7516136,192.0505676,42.4905167L192.0505676,42.4905167z"/>
		<path class="st1" d="M163.5210114,32.1203384c0,0.2800369-0.227005,0.5071983-0.5071869,0.5071983l0,0
			c-0.2801971,0-0.5072021-0.2271614-0.5072021-0.5071983V19.6459084c0-0.2801914,0.227005-0.5071983,0.5072021-0.5071983l0,0
			c0.2801819,0,0.5071869,0.2270069,0.5071869,0.5071983V32.1203384z"/>
		<rect x="162.6082458" y="19.3414993" class="st1" width="8.4176035" height="5.6795855"/>
		<g>
			<path class="st2" d="M193.6773071,66.2838669c-0.6967468,0-1.3510284-0.1687775-1.9191437-0.4644241
				c-0.5389862-0.2810745-1.1127319-0.4213333-1.6861877-0.4213333c-0.5734406,0-1.1472015,0.1402588-1.6864777,0.4213333
				c-0.5678406,0.2956467-1.2223816,0.4644241-1.9188538,0.4644241c-0.6967621,0-1.3513336-0.1687775-1.9191437-0.4644241
				c-0.5393066-0.2810745-1.1127319-0.4213333-1.686203-0.4213333c-0.5737305,0-1.1472015,0.1402588-1.6864929,0.4213333
				c-0.5678101,0.2956467-1.2223663,0.4644241-1.9188385,0.4644241c-0.6967468,0-1.3513336-0.1687775-1.9191437-0.4644241
				c-0.5392914-0.2810745-1.1127319-0.4213333-1.6864929-0.4213333c-0.5734711,0-1.1472168,0.1402588-1.686203,0.4213333
				c-0.5678101,0.2956467-1.2223816,0.4644241-1.9191437,0.4644241c-0.6967468,0-1.3510284-0.1687775-1.9191284-0.4644241
				c-0.5390015-0.2810745-1.1127319-0.4213333-1.686203-0.4213333c-0.5737457,0-1.1472015,0.1402588-1.6864929,0.4213333
				c-0.5678101,0.2956467-1.2223969,0.4644241-1.9191437,0.4644241c-0.6964874,0-1.3510284-0.1687775-1.9188385-0.4644241
				c-0.5392914-0.2810745-1.1127625-0.4213333-1.6865082-0.4213333c-0.5734558,0-1.1468964,0.1402588-1.6861877,0.4213333
				c-0.5678101,0.2956467-1.2223969,0.4644241-1.9191437,0.4644241c-0.6964722,0-1.3510284-0.1687775-1.918869-0.4644241
				c-0.5392609-0.2810745-1.1130371-0.4213333-1.6864624-0.4213333c-0.5734711,0-1.1469269,0.1402588-1.686203,0.4213333
				c-0.5681152,0.2956467-1.2223816,0.4644241-1.9191284,0.4644241c-0.6967926,0-1.3510742-0.1687775-1.9191437-0.4644241
				c-0.5390015-0.2810745-1.1127625-0.4213333-1.686203-0.4213333c-0.5737762,0-1.1472015,0.1402588-1.6865082,0.4213333
				c-0.5677948,0.2956467-1.2223816,0.4644241-1.9188232,0.4644241c-0.6967926,0-1.3513641-0.1687775-1.9191742-0.4644241
				c-0.4825287-0.2513733-0.9924011-0.3838806-1.5049438-0.4103241v-0.0110092c-0.030304,0-0.0603027,0.004776-0.0906067,0.005661
				c-0.0303192-0.000885-0.060318-0.005661-0.0906525-0.005661v0.0110092
				c-0.5125122,0.0264435-1.0223846,0.1589508-1.5049133,0.4103241c-0.5678406,0.2956467-1.2223816,0.4644241-1.9191742,0.4644241
				c-0.6967468,0-1.3510284-0.1687775-1.9191284-0.4644241c-0.5390015-0.2810745-1.1127319-0.4213333-1.686203-0.4213333
				c-0.5734406,0-1.1472015,0.1402588-1.6864777,0.4213333c-0.5678253,0.2956467-1.2223816,0.4644241-1.9188538,0.4644241
				c-0.6967468,0-1.3513336-0.1687775-1.9191437-0.4644241c-0.539299-0.2810745-1.1127319-0.4213333-1.6861954-0.4213333
				c-0.5737457,0-1.1472092,0.1402588-1.6865082,0.4213333c-0.5678024,0.2956467-1.2223511,0.4644241-1.9188309,0.4644241
				c-0.6967545,0-1.3513336-0.1687775-1.919136-0.4644241c-0.539299-0.2810745-1.1127319-0.4213333-1.6865082-0.4213333
				c-0.5734634,0-1.1472015,0.1402588-1.6861954,0.4213333c-0.5678024,0.2956467-1.2223892,0.4644241-1.919136,0.4644241
				c-0.6967545,0-1.3510284-0.1687775-1.919136-0.4644241c-0.5389938-0.2810745-1.1127396-0.4213333-1.6861954-0.4213333
				c-0.5737457,0-1.1472092,0.1402588-1.6865082,0.4213333c-0.5678101,0.2956467-1.2223892,0.4644241-1.919136,0.4644241
				c-0.6964798,0-1.3510284-0.1687775-1.9188385-0.4644241c-0.539299-0.2810745-1.1127625-0.4213333-1.6865005-0.4213333
				c-0.5734634,0-1.146904,0.1402588-1.6861954,0.4213333c-0.5678101,0.2956467-1.2223892,0.4644241-1.9191437,0.4644241
				c-0.6964722,0-1.3510284-0.1687775-1.9188614-0.4644241c-0.5392685-0.2810745-1.1130371-0.4213333-1.68647-0.4213333
				c-0.5734711,0-1.1469345,0.1402588-1.686203,0.4213333c-0.5681076,0.2956467-1.2223816,0.4644241-1.919136,0.4644241
				c-0.6967773,0-1.351059-0.1687775-1.919136-0.4644241c-0.5389938-0.2810745-1.1127625-0.4213333-1.686203-0.4213333
				c-0.5737686,0-1.1472015,0.1402588-1.6865005,0.4213333c-0.5678024,0.2956467-1.2223892,0.4644241-1.9188309,0.4644241
				c-0.696785,0-1.3513641-0.1687775-1.9191666-0.4644241c-0.5392685-0.2810745-1.1127396-0.4213333-1.686203-0.4213333v2.4340591
				v0.2148438v2.4340591c0.5734634,0,1.1469345,0.1405411,1.686203,0.4213409
				c0.5678024,0.2959213,1.2223816,0.464386,1.9191666,0.464386c0.6964417,0,1.3510284-0.1684647,1.9188309-0.464386
				c0.539299-0.2807999,1.1127319-0.4213409,1.6865005-0.4213409c0.5734406,0,1.1472092,0.1405411,1.686203,0.4213409
				c0.5680771,0.2959213,1.2223587,0.464386,1.919136,0.464386c0.6967545,0,1.3510284-0.1684647,1.919136-0.464386
				c0.5392685-0.2807999,1.1127319-0.4213409,1.686203-0.4213409c0.5734329,0,1.1472015,0.1405411,1.68647,0.4213409
				c0.5678329,0.2959213,1.2223892,0.464386,1.9188614,0.464386c0.6967545,0,1.3513336-0.1684647,1.9191437-0.464386
				c0.5392914-0.2807999,1.1127319-0.4213409,1.6861954-0.4213409c0.5737381,0,1.1472015,0.1405411,1.6865005,0.4213409
				c0.5678101,0.2959213,1.2223587,0.464386,1.9188385,0.464386c0.6967468,0,1.351326-0.1684647,1.919136-0.464386
				c0.539299-0.2807999,1.1127625-0.4213409,1.6865082-0.4213409c0.5734558,0,1.1472015,0.1405411,1.6861954,0.4213409
				c0.5681076,0.2959213,1.2223816,0.464386,1.919136,0.464386c0.6967468,0,1.3513336-0.1684647,1.919136-0.464386
				c0.5389938-0.2807999,1.1127319-0.4213409,1.6861954-0.4213409c0.5737762,0,1.1472092,0.1405411,1.6865082,0.4213409
				c0.5678024,0.2959213,1.2223816,0.464386,1.919136,0.464386c0.6964798,0,1.3510284-0.1684647,1.9188309-0.464386
				c0.539299-0.2807999,1.1127625-0.4213409,1.6865082-0.4213409c0.5734634,0,1.1468964,0.1405411,1.6861954,0.4213409
				c0.5678101,0.2959213,1.2223969,0.464386,1.9191437,0.464386c0.6964722,0,1.3510284-0.1684647,1.9188538-0.464386
				c0.5392761-0.2807999,1.1130371-0.4213409,1.6864777-0.4213409c0.5734711,0,1.1472015,0.1405411,1.686203,0.4213409
				c0.5681,0.2959213,1.2223816,0.464386,1.9191284,0.464386c0.6967926,0,1.3513336-0.1684647,1.9191742-0.464386
				c0.5107574-0.2659531,1.0523987-0.4017487,1.5955658-0.4157104c0.5431213,0.0139618,1.0847931,0.1497574,1.5955505,0.4157104
				c0.5678101,0.2959213,1.2223816,0.464386,1.9191742,0.464386c0.6964417,0,1.3510284-0.1684647,1.9188232-0.464386
				c0.5393066-0.2807999,1.1127319-0.4213409,1.6865082-0.4213409c0.5734406,0,1.1472015,0.1405411,1.686203,0.4213409
				c0.5680695,0.2959213,1.2223511,0.464386,1.9191437,0.464386c0.6967468,0,1.3510132-0.1684647,1.9191284-0.464386
				c0.5392761-0.2807999,1.1127319-0.4213409,1.686203-0.4213409c0.5734253,0,1.1472015,0.1405411,1.6864624,0.4213409
				c0.5678406,0.2959213,1.2223969,0.464386,1.918869,0.464386c0.6967468,0,1.3513336-0.1684647,1.9191437-0.464386
				c0.5392914-0.2807999,1.1127319-0.4213409,1.6861877-0.4213409c0.5737457,0,1.1472168,0.1405411,1.6865082,0.4213409
				c0.5678101,0.2959213,1.2223511,0.464386,1.9188385,0.464386c0.6967468,0,1.3513336-0.1684647,1.9191437-0.464386
				c0.5392914-0.2807999,1.1127472-0.4213409,1.6864929-0.4213409c0.5734711,0,1.1472015,0.1405411,1.686203,0.4213409
				c0.5681,0.2959213,1.2223816,0.464386,1.9191284,0.464386c0.6967621,0,1.3513336-0.1684647,1.9191437-0.464386
				c0.5389862-0.2807999,1.1127319-0.4213409,1.686203-0.4213409c0.573761,0,1.1472015,0.1405411,1.6864929,0.4213409
				c0.5678101,0.2959213,1.2223969,0.464386,1.9191437,0.464386c0.6964722,0,1.3510284-0.1684647,1.9188385-0.464386
				c0.5392914-0.2807999,1.1127625-0.4213409,1.6864929-0.4213409c0.5734711,0,1.1468964,0.1405411,1.686203,0.4213409
				c0.5678101,0.2959213,1.2223816,0.464386,1.9191437,0.464386c0.6964722,0,1.3510132-0.1684647,1.9188538-0.464386
				c0.5392761-0.2807999,1.1130371-0.4213409,1.6864777-0.4213409c0.5734558,0,1.1472015,0.1405411,1.6861877,0.4213409
				c0.5681152,0.2959213,1.2223969,0.464386,1.9191437,0.464386c0.6967773,0,1.3513336-0.1684647,1.9191742-0.464386
				c0.5392609-0.2807999,1.1127319-0.4213409,1.6861572-0.4213409v-2.4340591v-0.2148438v-2.4340591
				c-0.5734253,0-1.1468964,0.1402588-1.6861572,0.4213333C195.0286407,66.1150894,194.3740845,66.2838669,193.6773071,66.2838669z"
				/>
			<path class="st2" d="M308.889801,66.2838669c-0.6967468,0-1.3510437-0.1687775-1.9191284-0.4644241
				c-0.5390015-0.2810745-1.1127319-0.4213333-1.6862183-0.4213333c-0.5734253,0-1.1471863,0.1402588-1.6864929,0.4213333
				c-0.5678101,0.2956467-1.2223511,0.4644241-1.9188232,0.4644241c-0.6967468,0-1.3513489-0.1687775-1.9191589-0.4644241
				c-0.5392761-0.2810745-1.1127319-0.4213333-1.6861877-0.4213333c-0.5737305,0-1.1472168,0.1402588-1.6864929,0.4213333
				c-0.5678101,0.2956467-1.2223816,0.4644241-1.9188538,0.4644241c-0.6967468,0-1.3513184-0.1687775-1.9191284-0.4644241
				c-0.5393066-0.2810745-1.1127625-0.4213333-1.6864929-0.4213333c-0.5734863,0-1.1472168,0.1402588-1.6862183,0.4213333
				c-0.5677795,0.2956467-1.2223816,0.4644241-1.9191284,0.4644241s-1.3510437-0.1687775-1.9191284-0.4644241
				c-0.5390015-0.2810745-1.1127319-0.4213333-1.6862183-0.4213333c-0.573761,0-1.1471863,0.1402588-1.6864929,0.4213333
				c-0.5678101,0.2956467-1.2223816,0.4644241-1.9191284,0.4644241c-0.6965027,0-1.3510437-0.1687775-1.9188538-0.4644241
				c-0.5392761-0.2810745-1.1127625-0.4213333-1.6864929-0.4213333c-0.5734558,0-1.1469116,0.1402588-1.6861877,0.4213333
				c-0.5678101,0.2956467-1.2224121,0.4644241-1.9191589,0.4644241c-0.6964722,0-1.3510132-0.1687775-1.9188538-0.4644241
				c-0.5392761-0.2810745-1.1130371-0.4213333-1.6864624-0.4213333c-0.5734863,0-1.1469421,0.1402588-1.6862183,0.4213333
				c-0.5681152,0.2956467-1.2223816,0.4644241-1.9191284,0.4644241c-0.6967773,0-1.3510437-0.1687775-1.9191589-0.4644241
				c-0.5389709-0.2810745-1.1127319-0.4213333-1.6861877-0.4213333c-0.573761,0-1.1472168,0.1402588-1.6864929,0.4213333
				c-0.5678101,0.2956467-1.2223816,0.4644241-1.9188538,0.4644241c-0.6967468,0-1.3513489-0.1687775-1.9191589-0.4644241
				c-0.4825134-0.2513733-0.9923859-0.3838806-1.5049438-0.4103241v-0.0110092c-0.030304,0-0.0603027,0.004776-0.0906067,0.005661
				c-0.030304-0.000885-0.0603333-0.005661-0.0906372-0.005661v0.0110092
				c-0.5125275,0.0264435-1.0223999,0.1589508-1.5049591,0.4103241c-0.5677948,0.2956467-1.2223511,0.4644241-1.9191284,0.4644241
				c-0.6967468,0-1.3510284-0.1687775-1.9191437-0.4644241c-0.5389862-0.2810745-1.1127319-0.4213333-1.6861877-0.4213333
				c-0.5734406,0-1.1472168,0.1402588-1.6865082,0.4213333c-0.5678101,0.2956467-1.2223511,0.4644241-1.9188232,0.4644241
				c-0.6967621,0-1.3513489-0.1687775-1.9191437-0.4644241c-0.5393066-0.2810745-1.1127319-0.4213333-1.686203-0.4213333
				c-0.5737457,0-1.1472015,0.1402588-1.6865082,0.4213333c-0.5677948,0.2956467-1.2223511,0.4644241-1.9188232,0.4644241
				c-0.6967621,0-1.3513336-0.1687775-1.9191437-0.4644241c-0.5392914-0.2810745-1.1127625-0.4213333-1.6865082-0.4213333
				c-0.5734558,0-1.1472015,0.1402588-1.6861877,0.4213333c-0.5678101,0.2956467-1.2223969,0.4644241-1.9191437,0.4644241
				s-1.3510284-0.1687775-1.9191284-0.4644241c-0.5390015-0.2810745-1.1127472-0.4213333-1.686203-0.4213333
				c-0.5737762,0-1.1472168,0.1402588-1.6865082,0.4213333c-0.5678101,0.2956467-1.2223816,0.4644241-1.9191437,0.4644241
				c-0.6964722,0-1.3510132-0.1687775-1.9188232-0.4644241c-0.5393066-0.2810745-1.1127625-0.4213333-1.6865082-0.4213333
				c-0.5734558,0-1.1468964,0.1402588-1.686203,0.4213333c-0.5677948,0.2956467-1.2223816,0.4644241-1.9191284,0.4644241
				c-0.6964874,0-1.3510284-0.1687775-1.918869-0.4644241c-0.5392609-0.2810745-1.1130371-0.4213333-1.6864777-0.4213333
				c-0.5734558,0-1.1469269,0.1402588-1.6861877,0.4213333c-0.5681152,0.2956467-1.2223816,0.4644241-1.9191437,0.4644241
				c-0.6967773,0-1.351059-0.1687775-1.9191742-0.4644241c-0.5389557-0.2810745-1.1127319-0.4213333-1.6861572-0.4213333
				c-0.5737762,0-1.1472321,0.1402588-1.6865082,0.4213333c-0.5678101,0.2956467-1.2223816,0.4644241-1.918869,0.4644241
				c-0.6967468,0-1.3513184-0.1687775-1.9191284-0.4644241c-0.5392761-0.2810745-1.1127319-0.4213333-1.686203-0.4213333v2.4340591
				v0.2148438v2.4340591c0.5734711,0,1.1469269,0.1405411,1.686203,0.4213409
				c0.5678101,0.2959213,1.2223816,0.464386,1.9191284,0.464386c0.6964874,0,1.351059-0.1684647,1.918869-0.464386
				c0.5392761-0.2807999,1.1127319-0.4213409,1.6865082-0.4213409c0.5734253,0,1.1472015,0.1405411,1.6861572,0.4213409
				c0.5681152,0.2959213,1.2223969,0.464386,1.9191742,0.464386c0.6967621,0,1.3510284-0.1684647,1.9191437-0.464386
				c0.5392609-0.2807999,1.1127319-0.4213409,1.6861877-0.4213409c0.5734406,0,1.1472168,0.1405411,1.6864777,0.4213409
				c0.5678406,0.2959213,1.2223816,0.464386,1.918869,0.464386c0.6967468,0,1.3513336-0.1684647,1.9191284-0.464386
				c0.5393066-0.2807999,1.1127472-0.4213409,1.686203-0.4213409c0.5737457,0,1.1472015,0.1405411,1.6865082,0.4213409
				c0.5678101,0.2959213,1.2223511,0.464386,1.9188232,0.464386c0.6967621,0,1.3513336-0.1684647,1.9191437-0.464386
				c0.5392914-0.2807999,1.1127319-0.4213409,1.6865082-0.4213409c0.5734558,0,1.1472015,0.1405411,1.686203,0.4213409
				c0.5681,0.2959213,1.2223816,0.464386,1.9191284,0.464386s1.3513336-0.1684647,1.9191437-0.464386
				c0.5389862-0.2807999,1.1127319-0.4213409,1.6861877-0.4213409c0.5737457,0,1.1472168,0.1405411,1.6865082,0.4213409
				c0.5678101,0.2959213,1.2223816,0.464386,1.9191437,0.464386c0.6964722,0,1.3510284-0.1684647,1.9188232-0.464386
				c0.5393066-0.2807999,1.1127625-0.4213409,1.6865082-0.4213409c0.5734711,0,1.1468964,0.1405411,1.686203,0.4213409
				c0.5677948,0.2959213,1.2223816,0.464386,1.9191437,0.464386c0.6964722,0,1.3510132-0.1684647,1.9188232-0.464386
				c0.5392914-0.2807999,1.1130676-0.4213409,1.6865082-0.4213409c0.5734558,0,1.1472015,0.1405411,1.6861877,0.4213409
				c0.5681152,0.2959213,1.2223969,0.464386,1.9191437,0.464386c0.6967773,0,1.3513336-0.1684647,1.9191284-0.464386
				c0.5108032-0.2659531,1.0524292-0.4017487,1.5955963-0.4157104c0.5431366,0.0139618,1.0848083,0.1497574,1.5955505,0.4157104
				c0.5678101,0.2959213,1.2224121,0.464386,1.9191589,0.464386c0.6964722,0,1.3510437-0.1684647,1.9188538-0.464386
				c0.5392761-0.2807999,1.1127319-0.4213409,1.6864929-0.4213409c0.5734558,0,1.1472168,0.1405411,1.6861877,0.4213409
				c0.5681152,0.2959213,1.2223816,0.464386,1.9191589,0.464386c0.6967468,0,1.3510132-0.1684647,1.9191284-0.464386
				c0.5392761-0.2807999,1.1127319-0.4213409,1.6862183-0.4213409c0.5734253,0,1.1471863,0.1405411,1.6864624,0.4213409
				c0.5678406,0.2959213,1.2223816,0.464386,1.9188538,0.464386c0.6967468,0,1.3513489-0.1684647,1.9191589-0.464386
				c0.5392761-0.2807999,1.1127319-0.4213409,1.6861877-0.4213409c0.5737305,0,1.1472168,0.1405411,1.6864929,0.4213409
				c0.5678101,0.2959213,1.2223511,0.464386,1.9188538,0.464386c0.6967468,0,1.3513184-0.1684647,1.9191284-0.464386
				c0.5393066-0.2807999,1.1127319-0.4213409,1.6864929-0.4213409c0.5734863,0,1.1472168,0.1405411,1.6862183,0.4213409
				c0.5680847,0.2959213,1.2223816,0.464386,1.9191284,0.464386s1.3513489-0.1684647,1.9191284-0.464386
				c0.5390015-0.2807999,1.1127319-0.4213409,1.6862183-0.4213409c0.5737305,0,1.1471863,0.1405411,1.6864929,0.4213409
				c0.5678101,0.2959213,1.2223816,0.464386,1.9191284,0.464386c0.6964722,0,1.3510437-0.1684647,1.9188538-0.464386
				c0.5392761-0.2807999,1.1127625-0.4213409,1.6864929-0.4213409c0.5734558,0,1.1469116,0.1405411,1.6861877,0.4213409
				c0.5678101,0.2959213,1.2224121,0.464386,1.9191589,0.464386c0.6964722,0,1.3510132-0.1684647,1.9188232-0.464386
				c0.5393066-0.2807999,1.1130676-0.4213409,1.6864929-0.4213409c0.5734863,0,1.1472168,0.1405411,1.6862183,0.4213409
				c0.5680847,0.2959213,1.2223816,0.464386,1.9191284,0.464386c0.6967773,0,1.3513184-0.1684647,1.9191284-0.464386
				c0.5393066-0.2807999,1.1127625-0.4213409,1.6862183-0.4213409v-2.4340591v-0.2148438v-2.4340591
				c-0.5734558,0-1.1469116,0.1402588-1.6862183,0.4213333C310.2411194,66.1150894,309.5865784,66.2838669,308.889801,66.2838669z"
				/>
			<path class="st2" d="M424.1017151,66.2838669c-0.6967773,0-1.3510437-0.1687775-1.9191589-0.4644241
				c-0.5389709-0.2810745-1.1127319-0.4213333-1.6861877-0.4213333s-1.1472168,0.1402588-1.6864929,0.4213333
				c-0.5678101,0.2956467-1.2223816,0.4644241-1.9188538,0.4644241c-0.6967468,0-1.3513489-0.1687775-1.9191589-0.4644241
				c-0.5392456-0.2810745-1.1127319-0.4213333-1.6861877-0.4213333c-0.5737305,0-1.1472168,0.1402588-1.6864624,0.4213333
				c-0.5678101,0.2956467-1.2223816,0.4644241-1.9188843,0.4644241c-0.6967468,0-1.3513184-0.1687775-1.9191284-0.4644241
				c-0.5392761-0.2810745-1.1127319-0.4213333-1.6864929-0.4213333c-0.5734558,0-1.1472168,0.1402588-1.6861877,0.4213333
				c-0.5678101,0.2956467-1.2223816,0.4644241-1.9191589,0.4644241c-0.6967468,0-1.3510132-0.1687775-1.9191284-0.4644241
				c-0.5390015-0.2810745-1.1127319-0.4213333-1.6862183-0.4213333c-0.5737305,0-1.1471863,0.1402588-1.6864624,0.4213333
				c-0.5678406,0.2956467-1.2223816,0.4644241-1.9191589,0.4644241c-0.6964417,0-1.3510437-0.1687775-1.9188538-0.4644241
				c-0.5392761-0.2810745-1.1127319-0.4213333-1.6864929-0.4213333c-0.5734253,0-1.1469116,0.1402588-1.6861877,0.4213333
				c-0.5678101,0.2956467-1.2223511,0.4644241-1.9191589,0.4644241c-0.6964417,0-1.3510132-0.1687775-1.9188232-0.4644241
				c-0.5393066-0.2810745-1.1130371-0.4213333-1.6864929-0.4213333c-0.5734863,0-1.1469116,0.1402588-1.6862183,0.4213333
				c-0.5680847,0.2956467-1.2223816,0.4644241-1.9191284,0.4644241s-1.3510132-0.1687775-1.9191284-0.4644241
				c-0.5390015-0.2810745-1.1127319-0.4213333-1.6862183-0.4213333c-0.573761,0-1.1471863,0.1402588-1.6864929,0.4213333
				c-0.5678101,0.2956467-1.2223816,0.4644241-1.9188232,0.4644241c-0.6967773,0-1.3513489-0.1687775-1.9191589-0.4644241
				c-0.4825439-0.2513733-0.9924011-0.3838806-1.5049438-0.4103241v-0.0110092c-0.030304,0-0.0603333,0.004776-0.0906372,0.005661
				c-0.030304-0.000885-0.0603027-0.005661-0.0906067-0.005661v0.0110092
				c-0.5125427,0.0264435-1.0224304,0.1589508-1.5049438,0.4103241c-0.5678101,0.2956467-1.2223816,0.4644241-1.9191284,0.4644241
				c-0.6968079,0-1.3510742-0.1687775-1.9191895-0.4644241c-0.5389404-0.2810745-1.1127319-0.4213333-1.6861572-0.4213333
				c-0.5734558,0-1.1472473,0.1402588-1.6864929,0.4213333c-0.5678101,0.2956467-1.2224121,0.4644241-1.9188843,0.4644241
				c-0.6967468,0-1.3513184-0.1687775-1.9191284-0.4644241c-0.5392761-0.2810745-1.1127319-0.4213333-1.6861877-0.4213333
				c-0.573761,0-1.1472168,0.1402588-1.6864929,0.4213333c-0.5678101,0.2956467-1.2223816,0.4644241-1.9188538,0.4644241
				c-0.6967468,0-1.3513489-0.1687775-1.9191284-0.4644241c-0.5392761-0.2810745-1.1127319-0.4213333-1.6865234-0.4213333
				c-0.5734253,0-1.1471863,0.1402588-1.6861572,0.4213333c-0.5678406,0.2956467-1.2223816,0.4644241-1.9191589,0.4644241
				s-1.3510437-0.1687775-1.9191589-0.4644241c-0.5389709-0.2810745-1.1127319-0.4213333-1.6861877-0.4213333
				c-0.5737305,0-1.1472168,0.1402588-1.6864624,0.4213333c-0.5678406,0.2956467-1.2224121,0.4644241-1.9191895,0.4644241
				c-0.6964417,0-1.3510132-0.1687775-1.9188232-0.4644241c-0.5393066-0.2810745-1.1127319-0.4213333-1.6864929-0.4213333
				c-0.5734558,0-1.1469116,0.1402588-1.6862183,0.4213333c-0.5678101,0.2956467-1.2223511,0.4644241-1.9191284,0.4644241
				c-0.6964417,0-1.3510132-0.1687775-1.9188232-0.4644241c-0.5393066-0.2810745-1.1130371-0.4213333-1.6865234-0.4213333
				c-0.5734558,0-1.1468811,0.1402588-1.6861877,0.4213333c-0.5681152,0.2956467-1.2223816,0.4644241-1.9191284,0.4644241
				s-1.3510437-0.1687775-1.9191589-0.4644241c-0.5389709-0.2810745-1.1127319-0.4213333-1.6861877-0.4213333
				c-0.573761,0-1.1472168,0.1402588-1.6864929,0.4213333c-0.5678101,0.2956467-1.2223816,0.4644241-1.9188538,0.4644241
				c-0.6967773,0-1.3513184-0.1687775-1.9191284-0.4644241c-0.5393066-0.2810745-1.1127625-0.4213333-1.6861877-0.4213333v2.4340591
				v0.2148438v2.4340591c0.5734253,0,1.1468811,0.1405411,1.6861877,0.4213409
				c0.5678101,0.2959213,1.2223511,0.464386,1.9191284,0.464386c0.6964722,0,1.3510437-0.1684647,1.9188538-0.464386
				c0.5392761-0.2807999,1.1127319-0.4213409,1.6864929-0.4213409c0.5734558,0,1.1472168,0.1405411,1.6861877,0.4213409
				c0.5681152,0.2959213,1.2224121,0.464386,1.9191589,0.464386s1.3510132-0.1684647,1.9191284-0.464386
				c0.5393066-0.2807999,1.1127319-0.4213409,1.6861877-0.4213409c0.5734863,0,1.1472168,0.1405411,1.6865234,0.4213409
				c0.5678101,0.2959213,1.2223816,0.464386,1.9188232,0.464386c0.6967773,0,1.3513184-0.1684647,1.9191284-0.464386
				c0.5393066-0.2807999,1.1127625-0.4213409,1.6862183-0.4213409c0.573761,0,1.1471863,0.1405411,1.6864929,0.4213409
				c0.5678101,0.2959213,1.2223816,0.464386,1.9188232,0.464386c0.6967773,0,1.3513489-0.1684647,1.9191895-0.464386
				c0.5392456-0.2807999,1.1127319-0.4213409,1.6864624-0.4213409c0.5734558,0,1.1472168,0.1405411,1.6861877,0.4213409
				c0.5681152,0.2959213,1.2223816,0.464386,1.9191589,0.464386s1.3513184-0.1684647,1.9191589-0.464386
				c0.5389709-0.2807999,1.1127319-0.4213409,1.6861572-0.4213409c0.5737915,0,1.1472473,0.1405411,1.6865234,0.4213409
				c0.5677795,0.2959213,1.2223816,0.464386,1.9191284,0.464386c0.6964722,0,1.3510437-0.1684647,1.9188538-0.464386
				c0.5392761-0.2807999,1.1127319-0.4213409,1.6864929-0.4213409c0.5734558,0,1.1469116,0.1405411,1.6861877,0.4213409
				c0.5678101,0.2959213,1.2223816,0.464386,1.9191284,0.464386c0.6964722,0,1.3510742-0.1684647,1.9188843-0.464386
				c0.5392456-0.2807999,1.1130371-0.4213409,1.6864929-0.4213409c0.5734253,0,1.1472168,0.1405411,1.6861572,0.4213409
				c0.5681152,0.2959213,1.2223816,0.464386,1.9191895,0.464386c0.6967468,0,1.3513184-0.1684647,1.9191284-0.464386
				c0.5107422-0.2659531,1.0524292-0.4017487,1.5955505-0.4157104c0.5431824,0.0139618,1.0848389,0.1497574,1.5955811,0.4157104
				c0.5678101,0.2959213,1.2223816,0.464386,1.9191589,0.464386c0.6964417,0,1.3510132-0.1684647,1.9188232-0.464386
				c0.5393066-0.2807999,1.1127319-0.4213409,1.6864929-0.4213409c0.5734863,0,1.1472168,0.1405411,1.6862183,0.4213409
				c0.5681152,0.2959213,1.2223816,0.464386,1.9191284,0.464386s1.3510437-0.1684647,1.9191284-0.464386
				c0.5393066-0.2807999,1.1127319-0.4213409,1.6862183-0.4213409c0.5734558,0,1.1471863,0.1405411,1.6864929,0.4213409
				c0.5678101,0.2959213,1.2223816,0.464386,1.9188232,0.464386c0.6968079,0,1.3513489-0.1684647,1.9191589-0.464386
				c0.5392761-0.2807999,1.1127625-0.4213409,1.6861877-0.4213409c0.573761,0,1.1472168,0.1405411,1.6864929,0.4213409
				c0.5678101,0.2959213,1.2224121,0.464386,1.9188538,0.464386c0.6967773,0,1.3513184-0.1684647,1.9191589-0.464386
				c0.5392761-0.2807999,1.1127319-0.4213409,1.6864624-0.4213409c0.5734863,0,1.1472168,0.1405411,1.6862183,0.4213409
				c0.5681152,0.2959213,1.2223816,0.464386,1.9191284,0.464386c0.6967773,0,1.3513489-0.1684647,1.9191589-0.464386
				c0.5389709-0.2807999,1.1127319-0.4213409,1.6861877-0.4213409c0.573761,0,1.1472168,0.1405411,1.6864929,0.4213409
				c0.5678101,0.2959213,1.2223816,0.464386,1.9191284,0.464386c0.6965027,0,1.3510742-0.1684647,1.9188843-0.464386
				c0.5392456-0.2807999,1.1127319-0.4213409,1.6864624-0.4213409c0.5734558,0,1.1469421,0.1405411,1.6861877,0.4213409
				c0.5678101,0.2959213,1.2224121,0.464386,1.9191589,0.464386c0.6964722,0,1.3510437-0.1684647,1.9188538-0.464386
				c0.5392761-0.2807999,1.1130371-0.4213409,1.6864929-0.4213409s1.1472168,0.1405411,1.6861877,0.4213409
				c0.5681152,0.2959213,1.2223816,0.464386,1.9191589,0.464386c0.6967468,0,1.3513184-0.1684647,1.9191284-0.464386
				c0.5392761-0.2807999,1.1127319-0.4213409,1.6862183-0.4213409v-2.4340591v-0.2148438v-2.4340591
				c-0.5734863,0-1.1469421,0.1402588-1.6862183,0.4213333C425.4530334,66.1150894,424.7984619,66.2838669,424.1017151,66.2838669z"
				/>
			<path class="st2" d="M541.2333374,65.8194427c-0.5678101,0.2956467-1.2223511,0.4644241-1.9191284,0.4644241
				s-1.3510742-0.1687775-1.9191895-0.4644241c-0.5389404-0.2810745-1.1127319-0.4213333-1.6861572-0.4213333
				c-0.5734863,0-1.1472168,0.1402588-1.6865234,0.4213333c-0.567749,0.2956467-1.2223511,0.4644241-1.9188232,0.4644241
				c-0.6967773,0-1.3513184-0.1687775-1.9191284-0.4644241c-0.5393066-0.2810745-1.1127319-0.4213333-1.6862183-0.4213333
				c-0.5737305,0-1.1472168,0.1402588-1.6864624,0.4213333c-0.5678101,0.2956467-1.2224121,0.4644241-1.9188843,0.4644241
				c-0.6967163,0-1.3513184-0.1687775-1.9191284-0.4644241c-0.5393066-0.2810745-1.1127319-0.4213333-1.6865234-0.4213333
				c-0.5734253,0-1.1471558,0.1402588-1.6861572,0.4213333c-0.5678101,0.2956467-1.2223511,0.4644241-1.9191895,0.4644241
				c-0.6967163,0-1.3510132-0.1687775-1.9191284-0.4644241c-0.5390015-0.2810745-1.1127319-0.4213333-1.6861572-0.4213333
				c-0.5737305,0-1.1472168,0.1402588-1.6865234,0.4213333c-0.5678101,0.2956467-1.2223511,0.4644241-1.9191284,0.4644241
				c-0.6964417,0-1.3510437-0.1687775-1.9188538-0.4644241c-0.5392761-0.2810745-1.1127319-0.4213333-1.6864929-0.4213333
				c-0.5734253,0-1.1469116,0.1402588-1.6861877,0.4213333c-0.5678101,0.2956467-1.2223816,0.4644241-1.9191589,0.4644241
				c-0.6964722,0-1.3510132-0.1687775-1.9188232-0.4644241c-0.5393066-0.2810745-1.1130371-0.4213333-1.6864929-0.4213333
				c-0.5734863,0-1.1469116,0.1402588-1.6862183,0.4213333c-0.5681152,0.2956467-1.2223816,0.4644241-1.9191284,0.4644241
				s-1.3510132-0.1687775-1.9191284-0.4644241c-0.5390015-0.2810745-1.1127625-0.4213333-1.6862183-0.4213333
				c-0.573761,0-1.1471863,0.1402588-1.6864929,0.4213333c-0.5678101,0.2956467-1.2223816,0.4644241-1.9188232,0.4644241
				c-0.6967773,0-1.3513489-0.1687775-1.9191589-0.4644241c-0.4825439-0.2513733-0.9924316-0.3838806-1.5049438-0.4103241
				v-0.0110092c-0.030304,0-0.0603333,0.004776-0.0906372,0.005661c-0.030304-0.000885-0.0603027-0.005661-0.0906067-0.005661
				v0.0110092c-0.5125427,0.0264435-1.0224304,0.1589508-1.5049438,0.4103241
				c-0.5678101,0.2956467-1.2223816,0.4644241-1.9191589,0.4644241s-1.3510437-0.1687775-1.9191589-0.4644241
				c-0.5389709-0.2810745-1.1127319-0.4213333-1.6861877-0.4213333s-1.1472168,0.1402588-1.6864929,0.4213333
				c-0.5677795,0.2956467-1.2223816,0.4644241-1.9188538,0.4644241c-0.6967468,0-1.3513184-0.1687775-1.9191284-0.4644241
				c-0.5392761-0.2810745-1.1127319-0.4213333-1.6862183-0.4213333c-0.5737305,0-1.1471863,0.1402588-1.6864624,0.4213333
				c-0.5678101,0.2956467-1.2223816,0.4644241-1.9188538,0.4644241c-0.6967468,0-1.3513489-0.1687775-1.9191589-0.4644241
				c-0.5392761-0.2810745-1.1127319-0.4213333-1.6864929-0.4213333c-0.5734253,0-1.1471863,0.1402588-1.6861877,0.4213333
				c-0.5678101,0.2956467-1.2223511,0.4644241-1.9191284,0.4644241s-1.3510437-0.1687775-1.9191589-0.4644241
				c-0.5390015-0.2810745-1.1127319-0.4213333-1.6861877-0.4213333c-0.5737305,0-1.1472168,0.1402588-1.6864929,0.4213333
				c-0.5678101,0.2956467-1.2223816,0.4644241-1.9191589,0.4644241c-0.6964417,0-1.3510132-0.1687775-1.9188232-0.4644241
				c-0.5393066-0.2810745-1.1127319-0.4213333-1.6864929-0.4213333c-0.5734558,0-1.1469116,0.1402588-1.6862183,0.4213333
				c-0.5678101,0.2956467-1.2223511,0.4644241-1.9191284,0.4644241c-0.6964722,0-1.3510437-0.1687775-1.9188232-0.4644241
				c-0.5393066-0.2810745-1.1130371-0.4213333-1.6865234-0.4213333c-0.5734558,0-1.1468811,0.1402588-1.6861877,0.4213333
				c-0.5681152,0.2956467-1.2223816,0.4644241-1.9191284,0.4644241c-0.6967773,0-1.3510437-0.1687775-1.9191589-0.4644241
				c-0.5389709-0.2810745-1.1127625-0.4213333-1.6861877-0.4213333c-0.573761,0-1.1472168,0.1402588-1.6864929,0.4213333
				c-0.5678101,0.2956467-1.2224121,0.4644241-1.9188538,0.4644241c-0.6967773,0-1.3513184-0.1687775-1.9191284-0.4644241
				c-0.5393066-0.2810745-1.1127625-0.4213333-1.6861877-0.4213333v2.4340591v0.2148438v2.4340591
				c0.5734253,0,1.1468811,0.1405411,1.6861877,0.4213409c0.5678101,0.2959213,1.2223511,0.464386,1.9191284,0.464386
				c0.6964417,0,1.3510437-0.1684647,1.9188538-0.464386c0.5392761-0.2807999,1.1127319-0.4213409,1.6864929-0.4213409
				c0.5734253,0,1.1472168,0.1405411,1.6861877,0.4213409c0.5681152,0.2959213,1.2223816,0.464386,1.9191589,0.464386
				c0.6967468,0,1.3510132-0.1684647,1.9191284-0.464386c0.5393066-0.2807999,1.1127319-0.4213409,1.6861877-0.4213409
				c0.5734863,0,1.1472168,0.1405411,1.6865234,0.4213409c0.5677795,0.2959213,1.2223511,0.464386,1.9188232,0.464386
				c0.6967773,0,1.3513184-0.1684647,1.9191284-0.464386c0.5393066-0.2807999,1.1127625-0.4213409,1.6862183-0.4213409
				c0.573761,0,1.1471863,0.1405411,1.6864929,0.4213409c0.5678101,0.2959213,1.2223816,0.464386,1.9188232,0.464386
				c0.6967773,0,1.3513489-0.1684647,1.9191589-0.464386c0.5392761-0.2807999,1.1127625-0.4213409,1.6864929-0.4213409
				c0.5734558,0,1.1471863,0.1405411,1.6861877,0.4213409c0.5681152,0.2959213,1.2223816,0.464386,1.9191589,0.464386
				s1.3513184-0.1684647,1.9191284-0.464386c0.5390015-0.2807999,1.1127625-0.4213409,1.6861877-0.4213409
				c0.573761,0,1.1472168,0.1405411,1.6864929,0.4213409c0.5678101,0.2959213,1.2224121,0.464386,1.9191589,0.464386
				c0.6964722,0,1.3510437-0.1684647,1.9188538-0.464386c0.5392761-0.2807999,1.1127319-0.4213409,1.6864624-0.4213409
				c0.5734863,0,1.1469421,0.1405411,1.6862183,0.4213409c0.5678101,0.2959213,1.2223816,0.464386,1.9191284,0.464386
				c0.6964722,0,1.3510742-0.1684647,1.9188538-0.464386c0.5392761-0.2807999,1.1130371-0.4213409,1.6864929-0.4213409
				s1.1472168,0.1405411,1.6861877,0.4213409c0.5681152,0.2959213,1.2223816,0.464386,1.9191589,0.464386
				s1.3513489-0.1684647,1.9191589-0.464386c0.5107422-0.2659531,1.0524292-0.4017487,1.5955505-0.4157104
				c0.5431519,0.0139618,1.0848083,0.1497574,1.5955811,0.4157104c0.5678101,0.2959213,1.2223816,0.464386,1.9191589,0.464386
				c0.6964417,0,1.3510132-0.1684647,1.9188232-0.464386c0.5393066-0.2807999,1.1127319-0.4213409,1.6864929-0.4213409
				c0.5734558,0,1.1472168,0.1405411,1.6862183,0.4213409c0.5681152,0.2959213,1.2223816,0.464386,1.9191284,0.464386
				s1.3510132-0.1684647,1.9191284-0.464386c0.5393066-0.2807999,1.1127319-0.4213409,1.6862183-0.4213409
				c0.5734558,0,1.1471863,0.1405411,1.6864929,0.4213409c0.5678101,0.2959213,1.2223511,0.464386,1.9188232,0.464386
				c0.6967773,0,1.3513489-0.1684647,1.9191589-0.464386c0.5392761-0.2807999,1.1127625-0.4213409,1.6861877-0.4213409
				c0.573761,0,1.1472168,0.1405411,1.6864929,0.4213409c0.5678101,0.2959213,1.2224121,0.464386,1.9188538,0.464386
				c0.6967773,0,1.3513184-0.1684647,1.9191284-0.464386c0.5393066-0.2807999,1.112793-0.4213409,1.6865234-0.4213409
				c0.5734253,0,1.1471558,0.1405411,1.6861572,0.4213409c0.5681152,0.2959213,1.2224121,0.464386,1.9191284,0.464386
				c0.6968384,0,1.3513794-0.1684647,1.9191895-0.464386c0.5390015-0.2807999,1.1127319-0.4213409,1.6861572-0.4213409
				c0.5737915,0,1.1472168,0.1405411,1.6865234,0.4213409c0.5678101,0.2959213,1.2224121,0.464386,1.9191284,0.464386
				c0.6964722,0,1.3510742-0.1684647,1.9188843-0.464386c0.5392456-0.2807999,1.1127319-0.4213409,1.6864624-0.4213409
				c0.5734863,0,1.1469116,0.1405411,1.6862183,0.4213409c0.5678101,0.2959213,1.2223511,0.464386,1.9191284,0.464386
				c0.6964722,0,1.3510742-0.1684647,1.9188232-0.464386c0.5393066-0.2807999,1.1130371-0.4213409,1.6865234-0.4213409
				c0.5734253,0,1.1472168,0.1405411,1.6861572,0.4213409c0.5681152,0.2959213,1.2224121,0.464386,1.9191895,0.464386
				s1.3513184-0.1684647,1.9191284-0.464386c0.5392456-0.2807999,1.1127319-0.4213409,1.6862183-0.4213409v-2.4340591v-0.2148438
				v-2.4340591C542.3460693,65.3981094,541.772583,65.5383682,541.2333374,65.8194427z"/>
		</g>
		<rect x="95.9754257" y="46.3698082" class="st1" width="0.4563871" height="11.2575483"/>
		<rect x="113.6223907" y="46.3698082" class="st1" width="0.4563871" height="11.2575483"/>
		<g>
			<path class="st1" d="M104.3510284,48.2251053c-4.8564453,0-8.1542969-0.8583984-8.2050781-0.8720703l0.0644531-0.2421875
				c0.0791016,0.0214844,8.0419922,2.09375,17.4833984-0.2539062l0.0605469,0.2421875
				C110.3256378,47.9516678,107.0902863,48.2251053,104.3510284,48.2251053z"/>
		</g>
		<g>
			<path class="st1" d="M121.9994659,47.9213943c-4.8574219,0-8.15625-0.859375-8.2070312-0.8730469l0.0644531-0.2421875
				c0.0791016,0.0205078,8.0400391,2.0927734,17.4833984-0.2529297l0.0605469,0.2421875
				C127.9740753,47.6479568,124.7387238,47.9213943,121.9994659,47.9213943z"/>
		</g>
		<polygon class="st1" points="98.8547363,47.8003387 97.7675323,49.5414848 97.4401245,47.5149422 		"/>
		<polygon class="st1" points="116.5523605,47.5721436 115.4651566,49.3132935 115.1377487,47.2867508 		"/>
		<polygon class="st1" points="111.886261,47.4205933 111.5356674,49.4428444 110.468689,47.6890411 		"/>
		<polygon class="st1" points="129.4571686,47.0909309 129.1065674,49.1131821 128.0395966,47.359375 		"/>
		<polygon class="st1" points="102.124176,48.0351944 101.3135986,49.9210777 100.6831131,47.9676208 		"/>
		<polygon class="st1" points="105.2683792,48.1366653 104.4578018,50.0225487 103.8272858,48.069088 		"/>
		<polygon class="st1" points="108.5358658,47.9688072 107.9754791,49.9433479 107.0983658,48.0876503 		"/>
		<polygon class="st1" points="120.0147858,47.8073044 119.2238388,49.7014961 118.5731201,47.7547302 		"/>
		<polygon class="st1" points="123.159874,47.8762512 122.368927,49.7704391 121.7182083,47.8236427 		"/>
		<polygon class="st1" points="126.4255981,47.6746483 125.8854218,49.65485 124.9892883,47.8083382 		"/>
		<rect x="193.7943878" y="45.9134216" class="st1" width="0.4563871" height="11.2575483"/>
		<rect x="211.4413605" y="46.2176781" class="st1" width="0.4563871" height="11.2575483"/>
		<rect x="228.7840729" y="46.2176781" class="st1" width="0.4563871" height="11.2575483"/>
		<g>
			<path class="st1" d="M202.1723175,48.0737381c-4.8574219,0-8.15625-0.859375-8.2070312-0.8730469l0.0644531-0.2421875
				c0.0791016,0.0214844,8.0419922,2.0947266,17.4824219-0.2529297l0.0605469,0.2421875
				C208.1459503,47.8003006,204.9105988,48.0737381,202.1723175,48.0737381z"/>
		</g>
		<g>
			<path class="st1" d="M219.8168488,47.7690506c-4.8564453,0-8.1542969-0.8583984-8.2050781-0.8720703l0.0644531-0.2421875
				c0.0791016,0.0214844,8.0458984,2.09375,17.4833984-0.2539062l0.0605469,0.2421875
				C225.7914581,47.4956131,222.5561066,47.7690506,219.8168488,47.7690506z"/>
		</g>
		<polygon class="st1" points="196.6735535,47.3439522 195.5866547,49.0850983 195.2592316,47.0585556 		"/>
		<polygon class="st1" points="214.3713226,47.4200172 213.2841187,49.1611633 212.9567108,47.1346207 		"/>
		<polygon class="st1" points="209.7052307,47.2684631 209.3546295,49.2907143 208.2876587,47.536911 		"/>
		<polygon class="st1" points="227.2761383,46.9388008 226.9255371,48.9610519 225.8585663,47.2072487 		"/>
		<polygon class="st1" points="199.9431458,47.5788078 199.1325684,49.4646912 198.5020752,47.5112305 		"/>
		<polygon class="st1" points="203.0873413,47.6802788 202.2767639,49.5661621 201.6462555,47.6127014 		"/>
		<polygon class="st1" points="206.3548279,47.8166771 205.7944489,49.7912216 204.9173279,47.9355202 		"/>
		<polygon class="st1" points="217.8337555,47.6551781 217.0428009,49.549366 216.3920898,47.6026001 		"/>
		<polygon class="st1" points="220.9788361,47.7241211 220.1878967,49.618309 219.5371704,47.6715164 		"/>
		<polygon class="st1" points="224.2445679,47.5225182 223.7043915,49.5027237 222.8082581,47.6562119 		"/>
		<path class="st1" d="M108.0191727,18.13904c-0.0205078,0.0074234-0.0356598,0.0102234-0.0240707,0.0383072
			c0.0243759,0.0588436,0.0329819,0.1182652,0.0202026,0.1592789c-0.0145721,0.0475254-0.0145721,0.1048775,0.0326767,0.1669769
			c0.0475616,0.0619469,0.007431,0.1326561-0.0139618,0.1341476c-0.0306091,0.0019455-0.1137924-0.1341476-0.1137924-0.0976067
			c0,0.0346241-0.0900269,0.1717529-0.2448349,0.2379913c-0.0077286,0.0035896-0.0193253,0.0188942-0.0071182,0.0300293
			c0.0698242,0.0649281,0.2260895,0.2014484,0.1533127,0.2142277c-0.0065384,0.001339-0.0083389,0.003561-0.0035629,0.0096455
			c0.0172272,0.0218449,0.0606079,0.0791988,0.0439682,0.0919781c-0.0178299,0.0135078-0.042778-0.0125065-0.0585403-0.0249805
			c-0.0008774-0.0005779-0.0083084-0.0053253-0.0017929,0.0035591c0.0086365,0.011898,0.0216904,0.0324039,0.0104065,0.0454865
			c-0.0288162,0.0331039-0.194603-0.1626854-0.2201614-0.2284966c-0.0255585-0.0656586,0.0145416-0.0910645-0.0401001-0.0984879
			c-0.054985-0.0073032-0.157486-0.094656-0.2264328-0.1716022c-0.0460663-0.0514202-0.0243683-0.1264191-0.0231857-0.1995335
			c0-0.0149994,0-0.0310326-0.0404053-0.0325241c-0.0888443-0.0034084-0.3128662-0.0127792-0.5095673-0.0270481
			c-0.2516556-0.0182552-0.4046936,0.036541-0.6605148,0.0656586c-0.2552109,0.0292702-0.2917786,0.1460438-0.3719864,0.2299881
			c-0.0802307,0.0839443-0.3104935,0.2189751-0.4159851,0.2920876c-0.1060944,0.0729313-0.4382477,0.3394604-0.6281357,0.3394604
			c-0.1895523,0,0.0145721-0.2118549,0.0585403-0.251955c0.0436859-0.0401325,0.2371063-0.189888,0.437973-0.3977261
			c0.2008438-0.2081127,0.2555161-0.2957687,0.3942947-0.4198151c0.1384354-0.1241989,0.3211746-0.2591076,0.4085236-0.3212051
			c0.0876541-0.0619469,0.1569061-0.1605873,0.3978806-0.1204872c0.2409439,0.0402546,0.4926224,0.0839443,0.6569214,0.0729313
			c0.1643295-0.0108318,0.2448349-0.0326767,0.3871689-0.076643c0.1420288-0.0436916,0.3283234-0.0984879,0.4159851-0.1605873
			c0.0876541-0.0619774,0.1678543-0.1423321,0.3538818-0.3027973c0.1859894-0.1607399,0.2775116-0.3103428,0.5000458-0.2883453
			c0.2228394,0.0218449,0.5295029,0.0401001,1.0147018,0.2005672c0.4855042,0.160738,0.8803711,0.3905754,0.7193222,0.3905754
			c-0.1607361,0-0.4566574-0.0509624-0.6390915-0.0509624c-0.1824646,0-0.2992096-0.0218468-0.4745178-0.0548286
			c-0.1750107-0.0328293-0.237114-0.0035591-0.3794403,0.0656586c-0.142334,0.0695248-0.3541565,0.1314716-0.5110626,0.2409725
			C108.2731934,17.942915,108.1481171,18.0919418,108.0191727,18.13904z"/>
		<path class="st1" d="M195.7352142,23.7171555c-0.0195923-0.0179806-0.0374146-0.0230331-0.0600281-0.0237923
			c-0.0891113-0.0029526-0.1568604-0.0142403-0.2353058-0.0576267c-0.0882416-0.0490475-0.1524353-0.1155872-0.2311859-0.1455879
			c-0.0787354-0.0298786-0.1577454-0.0285397-0.2094421-0.0298786c-0.0517273-0.001339-0.1114197,0.0081844-0.1387787,0.0203552
			c-0.0270386,0.0121708-0.1455841,0.0693703-0.1619263,0.0815716c-0.0160675,0.0123234-0.0312195,0.0136623-0.0297241-0.0176773
			c0.0011902-0.0312176,0.0095215-0.0733871,0.0692444-0.0992489c0.0600128-0.0258617,0.1429138-0.0748787,0.153595-0.0992489
			c0.0110168-0.0244923,0.0389404-0.1017437,0.141449-0.1509418c0.0995178-0.0478306,0.2320709-0.0894222,0.4418182-0.0935898
			c0.0312195-0.0005779,0.0353546-0.0071201,0.0368347-0.0314922c0.0023804-0.0380306,0.0038757-0.1032639-0.0091858-0.1509418
			c-0.0032806-0.0111351-0.0121918-0.0179806-0.0279236-0.0218449c-0.0802307-0.0192909-0.3509369-0.0903034-0.3963928-0.1265717
			c-0.0579224-0.0459137-0.0834808-0.0543709-0.1108093-0.0652027c-0.0270538-0.0110149-0.0463715-0.0251312-0.0537872-0.0463696
			c-0.013092-0.0366936,0.0407104-0.0774021,0.1699524-0.0680313c0.1292572,0.0096455,0.4745178,0.0558624,0.5805817,0.0640163
			c0.106369,0.0081844,0.3212128,0.0393696,0.4433136,0.0775547c0.1224365,0.0380325,0.279007,0.1712971,0.3348694,0.2978687
			c0.0428009,0.0970287,0.0748749,0.2204647,0.0879517,0.2726154c0.0050507,0.0210857,0.008316,0.0251007,0.0279388,0.0262871
			c0.0511169,0.0026779,0.1705322,0.0127792,0.1423187,0.0451832c-0.0353851,0.0408611-0.0814056,0.0570488-0.0243683,0.0775547
			c0.0570526,0.0203552,0.1628113,0.0717449,0.2204742,0.1182346c0.0496216,0.0402851,0.1274567,0.0965729,0.2201538,0.1102333
			c0.0924072,0.0135384,0.1251068,0.0081844,0.1619263,0.0802326c0.0365753,0.0720482,0.1194611,0.1522808-0.0068054,0.1127586
			c-0.1265717-0.0393715-0.3173523-0.0799294-0.2599945-0.0298481c0.0641632,0.0558624,0.0817261,0.0897255,0.0748749,0.0938931
			c-0.0062408,0.0037136-0.2094727-0.0938931-0.317337-0.1148567c-0.008606-0.0017643-0.0178375,0.0032864-0.0089111,0.0148487
			c0.019928,0.0257092,0.0531769,0.0754852,0.0707092,0.1307392c0.0053558,0.0166435,0.0121918,0.0341682,0.0214081,0.0450306
			c0.0421753,0.0493202,0.1613312,0.1898556,0.1934204,0.2342777c0.0395203,0.0543709,0.3630981,0.2937012,0.355072,0.3318844
			c-0.0083313,0.0381851-0.195816-0.0231533-0.3930969-0.102047
			C196.8152771,24.4003983,196.1000824,24.0503788,195.7352142,23.7171555z"/>
		<path class="st1" d="M130.776123,30.7150917c-0.0195923-0.0179825-0.0374298-0.0230331-0.0600281-0.0237942
			c-0.0891266-0.0029507-0.1568756-0.0142384-0.235321-0.0576267c-0.0882263-0.0490456-0.15242-0.1155872-0.2311707-0.145586
			c-0.0787354-0.0298786-0.1577606-0.0285397-0.2094421-0.0298786c-0.0517273-0.001339-0.1114197,0.0081844-0.1387787,0.0203552
			c-0.0270538,0.0121708-0.1455841,0.0693703-0.1619263,0.0815716c-0.0160675,0.0123215-0.0312195,0.0136604-0.0297241-0.0176773
			c0.0011902-0.0312176,0.0095215-0.0733871,0.0692444-0.0992489c0.0599976-0.0258617,0.1429138-0.0748787,0.153595-0.0992489
			c0.0110168-0.0244942,0.0389404-0.1017437,0.141449-0.1509438c0.0995178-0.0478287,0.2320557-0.0894203,0.441803-0.0935898
			c0.0312195-0.0005779,0.0353546-0.0071182,0.03685-0.0314903c0.0023804-0.0380325,0.0038605-0.1032658-0.0091858-0.1509418
			c-0.0032806-0.011137-0.012207-0.0179825-0.0279236-0.0218468c-0.080246-0.019289-0.3509369-0.0903034-0.3963928-0.1265697
			c-0.0579376-0.0459137-0.0834961-0.0543709-0.1108093-0.0652027c-0.0270538-0.0110149-0.0463715-0.0251331-0.0538025-0.0463696
			c-0.0130768-0.0366936,0.0407104-0.077404,0.1699677-0.0680313c0.1292419,0.0096436,0.4745178,0.0558605,0.5805817,0.0640144
			c0.106369,0.0081844,0.3212128,0.0393715,0.4432983,0.0775566c0.1224365,0.0380325,0.279007,0.1712971,0.3348694,0.2978687
			c0.0428162,0.0970268,0.0748749,0.2204647,0.0879669,0.2726154c0.0050507,0.0210838,0.0083008,0.0251007,0.0279388,0.0262871
			c0.0511017,0.0026779,0.1705322,0.0127792,0.1423187,0.0451832c-0.0353851,0.0408611-0.0814209,0.0570469-0.0243683,0.0775547
			c0.0570526,0.0203552,0.1628113,0.071743,0.220459,0.1182346c0.0496368,0.0402832,0.1274567,0.096571,0.2201691,0.1102333
			c0.0924072,0.0135384,0.1251068,0.0081844,0.1619263,0.0802326c0.0365753,0.0720482,0.1194458,0.1522808-0.0068207,0.1127567
			c-0.1265717-0.0393696-0.317337-0.0799274-0.2599792-0.0298462c0.0641632,0.0558605,0.0817108,0.0897255,0.0748749,0.0938931
			c-0.0062408,0.0037117-0.2094879-0.0938931-0.317337-0.1148567c-0.0086212-0.0017643-0.0178375,0.0032864-0.0089111,0.0148468
			c0.0199127,0.0257111,0.0531769,0.0754871,0.070694,0.1307392c0.0053558,0.0166435,0.012207,0.0341682,0.0214233,0.0450306
			c0.0421753,0.0493202,0.1613159,0.1898575,0.1934204,0.2342796c0.0395203,0.0543709,0.3630981,0.2936993,0.355072,0.3318844
			c-0.0083466,0.0381851-0.1958313-0.0231533-0.3931122-0.1020489
			C131.8561859,31.3983326,131.1409912,31.048315,130.776123,30.7150917z"/>
		<path class="st1" d="M39.8398094,33.5909691c-0.0196266-0.0179825-0.037426-0.0230331-0.0600319-0.0237617
			c-0.0891151-0.0029831-0.1568756-0.0142708-0.2353134-0.0576591c-0.0882339-0.049015-0.1524315-0.1155853-0.2311745-0.1455879
			c-0.078743-0.0298462-0.1577568-0.0285072-0.2094498-0.0298462c-0.0517235-0.001339-0.1114502,0.0081558-0.1387711,0.0203552
			c-0.02705,0.0121689-0.1455917,0.0693703-0.1619301,0.0815392c-0.0160637,0.0123558-0.0312157,0.0136642-0.0297241-0.0176773
			c0.0011864-0.0311852,0.0095215-0.0733871,0.0692482-0.099247c0.0600014-0.0258331,0.14291-0.0748482,0.1535912-0.0992203
			c0.011013-0.0245209,0.0389442-0.1017723,0.141449-0.1509399c0.0995216-0.0478287,0.2320557-0.0894547,0.4418106-0.0935898
			c0.0312195-0.0006104,0.0353584-0.0071526,0.0368462-0.0315208c0.0023727-0.0380325,0.0038643-0.1032372-0.0091858-0.1509132
			c-0.0032883-0.0111656-0.0122032-0.0179825-0.0279312-0.0218468c-0.0802345-0.0193176-0.3509331-0.090332-0.396389-0.1265717
			c-0.05793-0.0459099-0.0834885-0.0544014-0.1108093-0.0652313c-0.02705-0.0109825-0.0463715-0.0251007-0.0537949-0.0463371
			c-0.0130806-0.0366936,0.0407104-0.077404,0.16996-0.0680656c0.1292496,0.0096779,0.4745216,0.0558624,0.5805855,0.0640488
			c0.106369,0.008152,0.3212051,0.0393715,0.4433022,0.0775528c0.1224365,0.0380325,0.279007,0.1712685,0.3348694,0.2978706
			c0.042778,0.0969963,0.0748749,0.2204666,0.0879593,0.2726135c0.0050507,0.0210876,0.0083046,0.0251007,0.0279312,0.0262909
			c0.0510864,0.0026741,0.170536,0.0127754,0.1423302,0.0451508c-0.0353851,0.040863-0.0814171,0.0570488-0.0243683,0.0775566
			c0.0570488,0.0203514,0.1628075,0.071743,0.2204628,0.1182632c0.0496254,0.0402527,0.1274567,0.0965729,0.2201614,0.1102333
			c0.0924034,0.0135078,0.1250801,0.008152,0.1619263,0.0802307c0.0365715,0.0720482,0.1194534,0.1522522-0.006813,0.1127586
			c-0.1265717-0.0393715-0.3173409-0.0799294-0.2599907-0.0298767c0.064167,0.0558624,0.0816956,0.0897255,0.0748787,0.093895
			c-0.006237,0.0037117-0.2094803-0.093895-0.3173409-0.11483c-0.0086098-0.0017929-0.0178299,0.0032578-0.0089149,0.0148506
			c0.0198975,0.0257072,0.0531845,0.0754547,0.0707092,0.1307373c0.0053558,0.0166435,0.0121994,0.0341682,0.0214195,0.045002
			c0.0421715,0.0493202,0.1613197,0.189888,0.1934166,0.2343063c0.0395241,0.0543709,0.363102,0.2937012,0.3550682,0.3318863
			c-0.0083351,0.0381851-0.1958199-0.0231857-0.3931007-0.1020775
			C40.9198647,34.2742119,40.2046738,33.9241905,39.8398094,33.5909691z"/>
		<path class="st1" d="M15.5367393,25.517725c-0.0133572,0.003437-0.0216932,0.0084877-0.0182552,0.022728
			c0.0231533,0.0964184,0.0935898,0.1759224,0.1252327,0.2062263c0.0335588,0.0322208,0.0839443,0.1032333,0.0968752,0.1923809
			c0.0129004,0.0889969,0.009037,0.1380119,0.0129004,0.1652126c0.0038643,0.0271702,0.0387936,0.1522503,0.0102539,0.3149376
			c-0.0283566,0.1626873-0.0463381,0.3470364-0.0540667,0.3843384c-0.0078802,0.0374241-0.0239143,0.2047062-0.0878086,0.2307186
			c-0.0442696,0.0179825-0.1354866-0.011591-0.207839-0.1701107c-0.0723524-0.1585178-0.1458921-0.3972683-0.1653337-0.490097
			c-0.0193205-0.0930119-0.0268965-0.1640263-0.0747261-0.2504959c-0.0478592-0.086441-0.1742783-0.3716831-0.2040043-0.4439125
			c-0.0296965-0.0723228-0.0335598-0.1240463-0.129097-0.0607605c-0.0955067,0.0632858-0.2026358,0.1123314-0.2697859,0.1381626
			c-0.0671501,0.0258617-0.1200294,0.0167961-0.1704149-0.051693c-0.050355-0.0683365-0.0709829-0.1018963-0.0270176-0.1238937
			c0.0438128-0.0219975,0.0374231-0.038763-0.0026779-0.0515423c-0.0399799-0.0129299-0.0298786-0.027504-0.0231848-0.0465202
			c0.0060854-0.0175247,0.0154562-0.0348988,0.0167952-0.078743c0.001339-0.0439644-0.0017948-0.0813885,0.0980625-0.0748768
			c0.0401011,0.0025253,0.2439241,0.0090675,0.2969561,0.0090675c0.0529108,0,0.0687923-0.0178299,0.0837927-0.0356598
			c0.0190163-0.0225754,0.0208111-0.0507812,0.0129309-0.0843716c-0.0077286-0.0335884-0.0554056-0.2840538-0.0464907-0.4531307
			c0.0090666-0.1691971,0.0543709-0.1885185-0.0063896-0.2852421c-0.0606079-0.0968456-0.06359-0.3297844-0.0619469-0.3724422
			c0.001339-0.0335598,0.0496244-0.0115929,0.0652027-0.0053558c0.0515718,0.0205078,0.3116817,0.1261463,0.4150991,0.2074127
			c0.1030827,0.0812683,0.1085901,0.1166229,0.1469259,0.1703854c0.0323734,0.0451832,0.0433874,0.1053333,0.0194731,0.1922607
			c-0.0245237,0.0891171-0.0491991,0.1833153-0.0219984,0.2943096c0.0271702,0.1109619,0.0568962,0.2155666,0.1329613,0.2568531
			c0.0762167,0.0412884,0.160161,0.0454578,0.178112,0.0451527c0.0364199-0.0004253,0.1008921,0.0090675,0.1510954,0.0530624
			c0.0425043,0.0371189,0.0922813,0.0430832,0.1117229,0.0456085c0.0193205,0.0025253,0.0523024,0.0148468,0.0567446,0.0585079
			c0.0024033,0.0254059-0.0368462,0.0184383-0.0715923,0.0081844c-0.0349283-0.0104046-0.0943499-0.0219975-0.1717539,0.0050526
			C15.6863432,25.4628963,15.5912628,25.503912,15.5367393,25.517725z"/>
		<path class="st1" d="M236.2565155,38.7406273c-0.0130768,0.0034065-0.0213776,0.0084572-0.0181274,0.022728
			c0.0231781,0.0964203,0.0935822,0.1758919,0.1250763,0.2061958c0.033905,0.0322533,0.0841064,0.1032677,0.0968781,0.1924133
			c0.0130768,0.0889664,0.0092163,0.1380119,0.0130768,0.1651802c0.0038757,0.0272026,0.03862,0.1522827,0.0101013,0.3149681
			c-0.0282288,0.1626892-0.0463562,0.3470383-0.0540924,0.3843422c-0.0077209,0.0374222-0.0237579,0.2047043-0.0876617,0.2307167
			c-0.0442657,0.0179825-0.1354828-0.0115929-0.2076721-0.1701088c-0.0725098-0.1585197-0.1461792-0.3972702-0.1654968-0.4901314
			c-0.0193176-0.0929794-0.0270386-0.1639938-0.0745697-0.2504654c-0.0481262-0.0864677-0.1744385-0.3717117-0.2041321-0.4439125
			c-0.0297241-0.0723534-0.0335846-0.1240463-0.1292419-0.0607605c-0.0953827,0.0632858-0.2026672,0.1123314-0.2698212,0.1381645
			c-0.0671387,0.0258636-0.1200256,0.0167961-0.1702271-0.051693c-0.0502319-0.0683365-0.0710144-0.1019287-0.0270538-0.1238937
			c0.0439758-0.0219994,0.0374603-0.0387955-0.0026703-0.0515709c-0.0401001-0.0129013-0.0299988-0.0274773-0.0231934-0.0464935
			c0.0062714-0.0175247,0.0154572-0.0348969,0.0169525-0.0787392c0.0011902-0.0439682-0.0018005-0.0814209,0.0980682-0.0748787
			c0.0397949,0.0025253,0.2436371,0.0090675,0.2968292,0.0090675c0.0528717,0,0.0686035-0.0178299,0.083786-0.0356598
			c0.0190277-0.0225754,0.0207825-0.0508118,0.0127563-0.0843697c-0.0077057-0.0335922-0.0552521-0.2840576-0.0463409-0.4531326
			c0.0089111-0.1691971,0.0543671-0.1885185-0.006546-0.285244c-0.0606079-0.0968437-0.0635834-0.3298149-0.0617828-0.3724403
			c0.0011749-0.0335922,0.0496216-0.0115929,0.0653534-0.0053558c0.0514069,0.0205078,0.3114014,0.1261444,0.4147949,0.2074127
			c0.1034088,0.0812378,0.1087341,0.1166229,0.1470795,0.1703835c0.0323944,0.0451851,0.0433807,0.1053352,0.0193176,0.1922302
			c-0.0243683,0.0891495-0.0490265,0.1833458-0.0220032,0.2943115c0.027359,0.1109924,0.0570526,0.2155647,0.1331177,0.2568855
			c0.0760651,0.0412865,0.1601562,0.0454559,0.178299,0.0451508c0.0362244-0.0004578,0.100708,0.0090675,0.1509399,0.0530319
			c0.0424652,0.0371513,0.0920868,0.0430832,0.1116943,0.0456085c0.0193176,0.0025253,0.0522919,0.0148773,0.0567627,0.0585403
			c0.0023804,0.0254021-0.0368347,0.0184364-0.0716095,0.0081825c-0.0350647-0.0104065-0.0944824-0.0219994-0.1717377,0.0050507
			C236.4062805,38.6858025,236.311203,38.7268143,236.2565155,38.7406273z"/>
	</g>
</g>
<rect y="68" class="st1" width="375.0000305" height="6"/>
<g>
</g>
<g>
</g>
<g>
</g>
<g>
</g>
<g>
</g>
<g>
</g>
<g>
</g>
<g>
</g>
<g>
</g>
<g>
</g>
<g>
</g>
<g>
</g>
<g>
</g>
<g>
</g>
<g>
</g>
</svg>
