<?xml version="1.0" encoding="utf-8"?>
<!-- Generator: Adobe Illustrator 19.0.1, SVG Export Plug-In . SVG Version: 6.00 Build 0)  -->
<svg version="1.1" id="Layer_1" xmlns="http://www.w3.org/2000/svg" xmlns:xlink="http://www.w3.org/1999/xlink" x="0px" y="0px"
	 viewBox="0 0 75 105" style="enable-background:new 0 0 75 105;" xml:space="preserve">
<style type="text/css">
	.st0{fill:#EFBB89;}
	.st1{fill:#FAC78D;}
	.st2{fill:#112D46;}
	.st3{fill:#164160;}
	.st4{fill:#169B38;}
	.st5{fill:#FFCD01;}
</style>
<polygon class="st0" points="57.1014442,105 67.8373184,79.6328583 32.2138023,64.5561981 15.0968199,105 "/>
<path class="st1" d="M67.9676666,33.280632c0.0462952,0.5893402,3.2166672,34.5582428,3.2166672,34.5582428l-17.5158577-2.5345078
	l-4.7244835-24.5935783"/>
<circle class="st1" cx="49.2506943" cy="68.0307007" r="21.7329082"/>
<path class="st2" d="M41.604187,83.8742828c-1.5206871,2.6988068-4.9408302,3.6534576-7.639637,2.1327744L2.8562877,68.4777679
	c-2.6988068-1.5206909-3.6534562-4.940834-2.1330218-7.639389L33.3957367,2.8562109
	c1.5207138-2.6988068,4.9408569-3.6534564,7.6393852-2.1327696l31.1085167,17.5292873
	c2.6985474,1.5204353,3.6537323,4.9408302,2.133049,7.6393852L41.604187,83.8742828z"/>
<circle class="st3" cx="21.8660221" cy="69.4729462" r="5.9148464"/>
<path class="st4" d="M46.393589,66.6161118c-1.5206909,2.698555-4.9411125,3.6537323-7.6393852,2.133049L15.6262932,55.7168159
	c-2.6988068-1.5207138-3.6534567-4.9408569-2.1327419-7.6396637l21.1999912-37.6231728
	c1.5206871-2.6988354,4.9411087-3.6534848,7.639637-2.1327696l23.1279106,13.0320625
	c2.698555,1.5207138,3.6534805,4.9408569,2.1327667,7.6393833L46.393589,66.6161118z"/>
<path class="st1" d="M50.4545555,86.8297043c-2.1472664,2.2324371-5.6974983,2.3020096-7.9302101,0.1549911L26.0847301,71.1752243
	c-2.2327423-2.1470108-2.3020058-5.6972198-0.1550198-7.9302101l1.1660614-1.2123604
	c2.1472969-2.2327118,5.6977844-2.3022575,7.9302139-0.1549911L51.4655991,77.686882
	c2.2327423,2.1467056,2.3022881,5.6974716,0.1550179,7.9296494L50.4545555,86.8297043z"/>
<g>
	<circle class="st5" cx="40.7577095" cy="38.1096954" r="9.5534906"/>
	<path class="st4" d="M44.0721474,39.7100105c-1.0206337,1.6644592-3.1832695,2.2551765-4.9118042,1.3046188
		c-1.7288437-0.9506683-2.3877335-3.0932808-1.5289345-4.8467751l-1.2824364-0.7052956
		c-1.2498512,2.4624939-0.3302536,5.490181,2.1078415,6.8309746c2.4383736,1.3409081,5.4874611,0.4959335,6.8980522-1.878479
		L44.0721474,39.7100105z"/>
</g>
</svg>
