<?xml version="1.0" encoding="utf-8"?>
<!-- Generator: Adobe Illustrator 19.1.0, SVG Export Plug-In . SVG Version: 6.00 Build 0)  -->
<svg version="1.0" id="Layer_1" xmlns="http://www.w3.org/2000/svg" xmlns:xlink="http://www.w3.org/1999/xlink" x="0px" y="0px"
	 viewBox="0 0 50 50" style="enable-background:new 0 0 50 50;" xml:space="preserve">
<style type="text/css">
	.st0{fill:#3D59BC;}
	.st1{fill:#FFFFFF;}
	.st2{fill:#FCB131;}
	.st3{fill:#ED1C2E;}
</style>
<g>
	<path class="st0" d="M25.0000248,0c-13.8085938,0-25,11.1929321-25,25c0,13.8070068,11.1914062,25,25,25
		c13.8045673,0,25.0000019-11.1929932,25.0000019-25C50.0000267,11.1929321,38.8045921,0,25.0000248,0z"/>
	<g>
		<path class="st1" d="M10.0486393,26.1433983c-0.1899109,0.1960297-0.4202862,0.2940559-0.6909008,0.2940559
			c-0.2708416,0-0.5006475-0.0980263-0.6896915-0.2940559c-0.1890202-0.1958294-0.2837238-0.4407673-0.2837238-0.7350292
			c0-0.2405033,0.0957966-0.4521027,0.2873878-0.6355686c0.1917067-0.1831493,0.4204206-0.274826,0.6860275-0.274826
			c0.2639465,0,0.4925461,0.0916767,0.6860275,0.274826c0.1932535,0.183466,0.289938,0.3950653,0.289938,0.6355686
			C10.333704,25.702631,10.2386837,25.9475689,10.0486393,26.1433983L10.0486393,26.1433983z M19.7173615,23.7413921h-0.8950558
			v1.3315639h-1.2963543v-1.3315639l-2.814436-0.0024586l-0.461297,0.4842167v-0.4817581h-0.8979445v1.8183289
			c0,0.1900444-0.0100145,0.3378487-0.0302248,0.4438629c-0.0285635,0.1546993-0.0841436,0.2722759-0.1663752,0.3529606
			c-0.0959072,0.0942459-0.2337208,0.1413574-0.4136343,0.1413574c-0.1799192,0-0.3186178-0.0480232-0.4160757-0.144022
			c-0.0807972-0.078907-0.1353531-0.1964855-0.1640301-0.3529587c-0.0184584-0.0991421-0.0275621-0.2462616-0.0275621-0.4412003
			v-1.8183289h-0.8977165v1.3391209c-0.0825701-0.4287281-0.3052778-0.7800255-0.6683655-1.0541897
			c-0.3530483-0.2656078-0.7565804-0.3985252-1.2105513-0.3985252c-0.5127563,0-0.9556179,0.1657143-1.3290358,0.49687
			c-0.3867378,0.3430824-0.5799913,0.769146-0.5799913,1.2785797c0,0.0791359,0.0034366,0.1489182,0.0101051,0.2093678
			c-0.0655684-0.1328945-0.1673532-0.242918-0.3051639-0.3302689c-0.1159134-0.0757904-0.2681565-0.1404762-0.4564261-0.1942768
			l-0.2294874-0.0680065c-0.1210141-0.0386696-0.2068186-0.0749035-0.2571406-0.1085644
			c-0.0925846-0.0587902-0.1388125-0.1328049-0.1388125-0.2219315c0-0.0890141,0.0437899-0.1613674,0.1312561-0.2168369
			c0.0739923-0.0471115,0.157794-0.0706654,0.2520452-0.0706654c0.1076741,0,0.2126884,0.0203247,0.3153806,0.060564
			c0.1022372,0.040329,0.1955981,0.0957947,0.2797184,0.1664619l0.3556228-0.6934433
			c-0.1546988-0.0874672-0.3287206-0.156929-0.5219746-0.2081623c-0.1932764-0.0512333-0.3792014-0.0769062-0.557229-0.0769062
			c-0.3499556,0-0.6355662,0.1059246-0.8575912,0.3178425c-0.2218399,0.2117119-0.33284,0.4917717-0.33284,0.839838
			c0,0.2151489,0.0386715,0.3876228,0.1160069,0.5167618c0.0689168,0.11446,0.1774817,0.2093678,0.3252864,0.2849312
			c0.0992532,0.0506859,0.2639432,0.1084728,0.4943185,0.1742496c0.1563601,0.0435619,0.2707057,0.0849171,0.3430591,0.1233578
			c0.13269,0.0724678,0.1991487,0.1622543,0.1991487,0.2698402c0,0.1126842-0.046339,0.2011528-0.1386981,0.264925
			c-0.0805702,0.0555763-0.179143,0.0831413-0.2949452,0.0831413c-0.1413612,0-0.2843843-0.0351181-0.4288406-0.1058102
			c-0.121151-0.0606785-0.2437124-0.1446838-0.3681836-0.2522697l-0.3833013,0.7236938
			c0.181601,0.1277943,0.375401,0.2253914,0.5813322,0.292511c0.2059312,0.0673447,0.4163003,0.1008911,0.6316767,0.1008911
			c0.1798029,0,0.3559642-0.0268764,0.5284381-0.0804539c0.1722465-0.0540085,0.3218241-0.1351242,0.4487581-0.2435989
			c0.1269069-0.1082458,0.2206998-0.2458286,0.2812638-0.4122944c0.0520062-0.1447067,0.078021-0.3082809,0.078021-0.4916573
			c0.1245646,0.3831844,0.3480659,0.687685,0.6708918,0.9128513c0.3227348,0.2253685,0.7018003,0.3378239,1.137332,0.3378239
			c0.4892006,0,0.9052734-0.1411343,1.2483549-0.4236279c0.3429461-0.2822685,0.5529728-0.6538906,0.6305618-1.1146412
			c0,0.243803,0.0207796,0.4447479,0.0627718,0.6027718c0.0555792,0.2102547,0.1555862,0.3858471,0.3001795,0.5269814
			c0.1344652,0.1346931,0.311058,0.2347202,0.5297585,0.300066c0.1881552,0.057127,0.3923111,0.0857792,0.6126747,0.0857792
			c0.2252741,0,0.4312992-0.0286522,0.6177912-0.0857792c0.2169237-0.0653458,0.3926296-0.1653728,0.5272083-0.300066
			c0.1210146-0.1175785,0.2100277-0.2553654,0.2672691-0.4136372c0.063796-0.1780281,0.0959101-0.4454098,0.0959101-0.801693
			v-1.1803493h0.7665739v2.6908512h0.8977423v-2.6908512h0.7162523v2.6908512h0.8951645v-1.4147053h1.2963543v1.4147053h0.8950558
			V23.7413921L19.7173615,23.7413921z"/>
		<path class="st1" d="M32.0377884,24.5032997h-0.7414665v2.6907387h-0.8979473v-2.6907387h-0.8621655l-0.078249,0.1261368
			c-0.0857811-0.0688953-0.1800289-0.1239052-0.2824955-0.1652603c-0.1026707-0.0411034-0.2067051-0.0617733-0.3127193-0.0617733
			c-0.0957966,0-0.1809177,0.0236702-0.2547073,0.070673c-0.0875778,0.0555573-0.1311398,0.1277943-0.1311398,0.2169228
			c0,0.0874672,0.0469074,0.1613674,0.1411324,0.2218189c0.0522327,0.0337982,0.1378117,0.0698032,0.257391,0.1084728
			l0.2293739,0.0680065c0.2722778,0.0791359,0.4747505,0.1833763,0.6078968,0.3127193
			c0.1629124,0.1580429,0.244482,0.3683014,0.244482,0.6305847c0,0.1900234-0.0253315,0.3580589-0.0755615,0.5043106
			c-0.0604744,0.1749115-0.1546993,0.3165016-0.2827206,0.4249744c-0.1275959,0.1084499-0.2776051,0.1895885-0.4498749,0.243372
			c-0.1724739,0.0537815-0.3484974,0.0806808-0.5283241,0.0806808c-0.1969166,0-0.387619-0.0273323-0.572546-0.0820255
			c-0.1851482-0.0544395-0.3629513-0.1348972-0.5345364-0.2407093v0.2318344h-2.1915207v-3.0539169l-0.9785175,3.0539169h-0.8372898
			l-0.5345383-1.9997253l-0.6052284,1.9997253h-0.8322582l-1.0314083-3.4523277h0.933176l0.6025429,2.2294178l0.5775547-2.2294178
			h0.7135887l0.5273266,2.2294178l0.6581211-2.2294178h2.9228649v0.7615891h-1.2206573v0.5750065h1.0112877v0.7592449h-1.0112877
			v0.5950108h1.2962437v0.2595997l0.2773724-0.5243206c0.1260223,0.1091347,0.2480583,0.1933689,0.3656368,0.2520428
			c0.1429119,0.0706921,0.2865028,0.1060143,0.4311848,0.1060143c0.1160316,0,0.2142658-0.0277672,0.2951736-0.0833454
			c0.0924511-0.0635681,0.1386986-0.1520119,0.1386986-0.264719c0-0.1091328-0.0664577-0.1993542-0.1993752-0.2698174
			c-0.0740166-0.0402393-0.1891575-0.0813446-0.3454037-0.1235867c-0.2287159-0.0655708-0.3925171-0.1235867-0.4918633-0.1740227
			c-0.1478024-0.0755844-0.2562771-0.1706982-0.3251724-0.2849522c-0.0775871-0.1293449-0.1160278-0.3018417-0.1160278-0.5171032
			c0-0.3478394,0.1109104-0.6277847,0.3329525-0.8395882c0.2218189-0.2119408,0.5076389-0.3178425,0.8572731-0.3178425
			c0.1833534,0,0.3838444,0.0286789,0.6016579,0.085783c0.2176056,0.057127,0.3987522,0.1311417,0.5432301,0.2219315
			l-0.0100136,0.0151348l0.2244816-0.2344952l1.9443722,0.0024357V24.5032997L32.0377884,24.5032997z"/>
		<path class="st2" d="M37.1116409,25.8386669l0.6505661-1.5987434l0.6459045,1.5987434H37.1116409L37.1116409,25.8386669z
			 M44.9066582,25.8275604c-0.0622215-0.1049232-0.1573563-0.1980343-0.2849503-0.278717l-0.6327705-0.3302917
			c-0.1198044-0.0555801-0.2111626-0.1026917-0.2751656-0.1413612c-0.1042404-0.0620213-0.1807137-0.1260223-0.2293739-0.1917057
			c-0.0624504-0.0822315-0.0933609-0.1780281-0.0933609-0.2872753c0-0.1749325,0.0602455-0.3241711,0.1802559-0.4477577
			c0.1202431-0.12356,0.2676125-0.1853523,0.4427528-0.1853523c0.1513786,0,0.2838402,0.0354366,0.3982964,0.1058998
			c0.1042366,0.0640011,0.1958237,0.1599121,0.2749367,0.2875023l0.1487122-0.1235847
			c-0.0791359-0.1426811-0.1915932-0.2563896-0.3378448-0.3405132c-0.1462555-0.083889-0.3036156-0.1259041-0.4714279-0.1259041
			c-0.2489433,0-0.4525299,0.0781345-0.6103477,0.2343807c-0.1582489,0.1564732-0.237133,0.3581715-0.237133,0.6054344
			c0,0.1309147,0.02845,0.2449417,0.0857811,0.3415108c0.0569,0.0966816,0.142704,0.1804867,0.2571602,0.2509499
			l0.5978775,0.3178196c0.1475983,0.0722389,0.2476082,0.1235867,0.3000679,0.1538086
			c0.1160278,0.0673485,0.2022667,0.1369247,0.2595978,0.2093906c0.0720139,0.0906773,0.1084747,0.1931419,0.1084747,0.3076019
			c0,0.2169228-0.0817986,0.4018478-0.2447166,0.5547676c-0.1631432,0.1531544-0.3540726,0.2296047-0.5723381,0.2296047
			c-0.193367,0-0.3598328-0.0555573-0.499424-0.1666927c-0.1260185-0.1006927-0.2269325-0.2444878-0.302494-0.4309807
			l-0.1842651,0.0831413c0.0791321,0.2186966,0.2049255,0.3918343,0.3769684,0.5194244
			c0.1724739,0.1277981,0.3720779,0.1915932,0.5989914,0.1915932c0.2756271,0,0.5158768-0.0913582,0.7212601-0.2747116
			c0.2120323-0.1900444,0.3178482-0.4194183,0.3178482-0.6885757
			C45.0000267,26.0591412,44.9686813,25.9326878,44.9066582,25.8275604L44.9066582,25.8275604z M42.7758179,23.8111744h-0.2118301
			v2.8927765l-2.4160042-2.9354515v3.3590794h0.2120361v-2.8496456l2.4157982,2.9580975V23.8111744L42.7758179,23.8111744z
			 M39.6236687,27.1275787v-3.3160629h-0.209362v3.3160629H39.6236687L39.6236687,27.1275787z M37.762207,23.7028141
			l-1.354023,3.3389606l-1.0266571-1.4853764c0.2858429,0,0.5129852-0.0722389,0.6810226-0.2169456
			c0.1780243-0.1529026,0.2673836-0.3689632,0.2673836-0.6479988c0-0.1479149-0.0262184-0.2807178-0.078228-0.3984089
			c-0.0571251-0.1294804-0.1391563-0.232378-0.2458267-0.3089428c-0.106926-0.0765858-0.2307167-0.1265888-0.3720818-0.1501465
			c-0.0906715-0.0151138-0.2218132-0.0227814-0.3933983-0.0227814h-0.4136429v3.3164043h0.2120552v-1.5711803h0.1057854
			l1.079319,1.5711803h0.3658447l0.443634-1.0919952h1.4551735l0.4438629,1.0919952h0.214489L37.762207,23.7028141
			L37.762207,23.7028141z M34.5569382,23.8111744h-1.9265976v0.1992626h0.8574982v3.1171417h0.2118301V24.010437h0.8572693
			V23.8111744L34.5569382,23.8111744z M36.0587692,24.9751797c-0.0395508,0.093338-0.0969086,0.1702442-0.172924,0.2306938
			c-0.0604515,0.0522346-0.1306915,0.0906982-0.2102585,0.1160278c-0.0800247,0.0251064-0.2031555,0.0377808-0.3696213,0.0377808
			h-0.2671547V24.010437h0.2344704c0.099144,0,0.1902771,0.0052109,0.2736206,0.0151119
			c0.0831223,0.0102196,0.1567001,0.0303383,0.2207031,0.0604496c0.114254,0.0506859,0.2024727,0.132143,0.2644882,0.2449398
			c0.0573578,0.1041279,0.0860138,0.2218189,0.0860138,0.3529606
			C36.1181068,24.7847939,36.0983276,24.8818188,36.0587692,24.9751797L36.0587692,24.9751797z"/>
		<path class="st3" d="M39.9470634,23.1178169c0,0.2347221-0.1902733,0.4249725-0.4249725,0.4249725
			c-0.2349281,0-0.4249687-0.1902504-0.4249687-0.4249725c0-0.2344933,0.1900406-0.4249706,0.4249687-0.4249706
			C39.7567902,22.6928463,39.9470634,22.8833237,39.9470634,23.1178169L39.9470634,23.1178169z"/>
	</g>
</g>
<g>
</g>
<g>
</g>
<g>
</g>
<g>
</g>
<g>
</g>
<g>
</g>
<g>
</g>
<g>
</g>
<g>
</g>
<g>
</g>
<g>
</g>
<g>
</g>
<g>
</g>
<g>
</g>
<g>
</g>
</svg>
