<?xml version="1.0" encoding="utf-8"?>
<!-- Generator: Adobe Illustrator 19.1.0, SVG Export Plug-In . SVG Version: 6.00 Build 0)  -->
<svg version="1.1" id="Layer_1" xmlns="http://www.w3.org/2000/svg" xmlns:xlink="http://www.w3.org/1999/xlink" x="0px" y="0px"
	 viewBox="0 0 8 14" style="enable-background:new 0 0 8 14;" xml:space="preserve">
<style type="text/css">
	.st0{fill:#FFFFFF;}
</style>
<g>
	<path class="st0" d="M7.7068982,13.7068024c0.3903852-0.3905258,0.3905578-1.0227718,0.0020323-1.4143791l0.0005193-0.0005188
		L1.7074823,6.2877769L1.7069635,6.2882962C1.3154541,5.8995876,0.6835216,5.899847,0.2931366,6.2903724
		C-0.0972052,6.6808548-0.0975079,7.3130579,0.291061,7.7047081L0.2905421,7.7052274l6.0019674,6.004127l0.0005188-0.0005188
		C6.6844945,14.0975008,7.3165565,14.0972843,7.7068982,13.7068024z"/>
	<path class="st0" d="M7.7069144,0.2932138C7.3165298-0.0973118,6.6845107-0.0974848,6.2930446,0.2911807L6.2925253,0.2906616
		l-6.001967,6.0041275l0.0005189,0.0005193C-0.0974917,6.6869583-0.0972322,7.319118,0.2931528,7.7096438
		C0.6834946,8.1001263,1.3154703,8.1004286,1.7069796,7.71172l0.0005189,0.0005193L7.709466,1.7081118l-0.0005193-0.000519
		C8.0974722,1.3159858,8.0972567,0.683696,7.7069144,0.2932138z"/>
</g>
</svg>
