<?xml version="1.0" encoding="utf-8"?>
<!-- Generator: Adobe Illustrator 19.0.1, SVG Export Plug-In . SVG Version: 6.00 Build 0)  -->
<svg version="1.1" id="Layer_1" xmlns="http://www.w3.org/2000/svg" xmlns:xlink="http://www.w3.org/1999/xlink" x="0px" y="0px"
	 viewBox="0 0 80 25" style="enable-background:new 0 0 80 25;" xml:space="preserve">
<style type="text/css">
	.st0{fill-rule:evenodd;clip-rule:evenodd;fill:#3AAEF8;}
	.st1{fill:#FFFFFF;}
</style>
<g>
	<g>
		<path class="st0" d="M80,11.6868896l-2.9099731-2.9099731C75.6184692,3.7077637,70.958374,0,65.4266968,0H12.1543579
			C5.4417114,0,0,5.4550781,0,12.1842041s5.4417114,12.1842041,12.1543579,12.1842041h53.2723389
			c5.9910278,0,10.9577026-4.3491211,11.9589233-10.0671387L80,11.6868896z"/>
	</g>
</g>
<g>
	<path class="st1" d="M26.3505859,11.2602539c0,0.7661133-0.1323242,1.4384766-0.3974609,2.0166016
		c-0.2651367,0.5786133-0.6435547,1.0224609-1.1357422,1.3320312c-0.4926758,0.3100586-1.059082,0.4648438-1.7001953,0.4648438
		c-0.6337891,0-1.1987305-0.1547852-1.6943359-0.4648438c-0.4960938-0.3095703-0.8793945-0.7509766-1.1494141-1.3237305
		c-0.2705078-0.5727539-0.4077148-1.2333984-0.4111328-1.9819336V10.862793c0-0.7626953,0.1352539-1.4360352,0.4052734-2.0195312
		c0.2705078-0.5834961,0.6518555-1.0302734,1.1445312-1.3398438c0.4921875-0.3100586,1.0571289-0.4648438,1.6943359-0.4648438
		s1.2021484,0.1533203,1.6943359,0.4589844c0.4926758,0.3066406,0.8730469,0.7470703,1.1416016,1.3212891
		c0.2685547,0.5751953,0.4047852,1.2436523,0.4082031,2.0063477V11.2602539z M24.9916992,10.8520508
		c0-0.8666992-0.1635742-1.5307617-0.4916992-1.9926758c-0.3271484-0.4619141-0.7919922-0.6928711-1.3935547-0.6928711
		c-0.5874023,0-1.0463867,0.2299805-1.3779297,0.6904297c-0.3310547,0.4599609-0.5,1.1108398-0.5073242,1.9521484v0.4511719
		c0,0.859375,0.1674805,1.5234375,0.5024414,1.9926758c0.3344727,0.4692383,0.7993164,0.7036133,1.3935547,0.7036133
		c0.6015625,0,1.0644531-0.2290039,1.3886719-0.6875c0.3237305-0.4584961,0.4858398-1.1279297,0.4858398-2.0087891V10.8520508z"/>
	<path class="st1" d="M28.7890625,9.1547852l0.0375977,0.6713867c0.4296875-0.519043,0.9936523-0.7788086,1.6918945-0.7788086
		c1.2104492,0,1.8261719,0.6928711,1.8476562,2.0786133v3.840332h-1.3051758v-3.7651367
		c0-0.3686523-0.0795898-0.6420898-0.2387695-0.8188477c-0.159668-0.1777344-0.4199219-0.2661133-0.7817383-0.2661133
		c-0.5263672,0-0.918457,0.2382812-1.1762695,0.7143555v4.1357422H27.559082V9.1547852H28.7890625z"/>
	<path class="st1" d="M41.8891602,8.2416992h-2.4384766v6.7246094h-1.3481445V8.2416992h-2.4169922V7.1459961h6.2036133V8.2416992z"
		/>
	<path class="st1" d="M42.7915039,7.6401367c0-0.2021484,0.0634766-0.3696289,0.190918-0.503418
		c0.1269531-0.1333008,0.3085938-0.2001953,0.5449219-0.2001953s0.4189453,0.0668945,0.5478516,0.2001953
		c0.1289062,0.1337891,0.1933594,0.3012695,0.1933594,0.503418c0,0.1987305-0.0644531,0.3637695-0.1933594,0.4951172
		c-0.1289062,0.1318359-0.3115234,0.1977539-0.5478516,0.1977539s-0.4179688-0.065918-0.5449219-0.1977539
		C42.8549805,8.0039062,42.7915039,7.8388672,42.7915039,7.6401367z M44.1772461,14.9663086h-1.3051758V9.1547852h1.3051758
		V14.9663086z"/>
	<path class="st1" d="M46.8251953,9.1547852l0.0375977,0.6069336c0.4082031-0.4760742,0.9667969-0.7143555,1.6757812-0.7143555
		c0.7768555,0,1.3085938,0.2973633,1.5952148,0.8916016c0.4223633-0.5942383,1.0170898-0.8916016,1.7832031-0.8916016
		c0.6411133,0,1.1181641,0.1772461,1.4311523,0.5317383c0.3134766,0.3544922,0.4736328,0.8774414,0.480957,1.5683594v3.8188477
		h-1.3051758v-3.78125c0-0.3686523-0.0805664-0.6391602-0.2416992-0.8110352s-0.4277344-0.2578125-0.800293-0.2578125
		c-0.2973633,0-0.5400391,0.0795898-0.7275391,0.2387695c-0.1884766,0.159668-0.3198242,0.3681641-0.3950195,0.6259766
		l0.0053711,3.9853516h-1.3051758v-3.8242188c-0.0180664-0.684082-0.3671875-1.0258789-1.0473633-1.0258789
		c-0.5229492,0-0.8935547,0.2128906-1.1118164,0.6391602v4.2109375h-1.3051758V9.1547852H46.8251953z"/>
	<path class="st1" d="M57.7285156,15.0737305c-0.8271484,0-1.4975586-0.2607422-2.0112305-0.78125
		c-0.5141602-0.5214844-0.7709961-1.2148438-0.7709961-2.081543v-0.1611328c0-0.5800781,0.1118164-1.0981445,0.3354492-1.5551758
		c0.2241211-0.4560547,0.5380859-0.8115234,0.9428711-1.065918s0.855957-0.3813477,1.3535156-0.3813477
		c0.7915039,0,1.402832,0.2524414,1.8344727,0.7573242c0.4311523,0.5048828,0.6469727,1.2192383,0.6469727,2.1430664v0.5263672
		H56.262207c0.0395508,0.4799805,0.199707,0.859375,0.4804688,1.1386719c0.28125,0.2792969,0.6347656,0.4189453,1.0610352,0.4189453
		c0.5981445,0,1.0849609-0.2416992,1.4609375-0.7250977l0.7036133,0.6713867
		c-0.2329102,0.347168-0.543457,0.6166992-0.9316406,0.8085938C58.6479492,14.9780273,58.2119141,15.0737305,57.7285156,15.0737305z
		 M57.5727539,10.0947266c-0.3579102,0-0.6474609,0.1254883-0.8671875,0.3759766
		c-0.2207031,0.2504883-0.3608398,0.5996094-0.421875,1.0473633h2.4868164v-0.0966797
		c-0.0288086-0.4370117-0.1450195-0.7670898-0.3491211-0.9912109C58.2172852,10.206543,57.9345703,10.0947266,57.5727539,10.0947266
		z"/>
</g>
</svg>
