<?xml version="1.0" encoding="utf-8"?>
<!-- Generator: Adobe Illustrator 19.1.0, SVG Export Plug-In . SVG Version: 6.00 Build 0)  -->
<svg version="1.1" id="Layer_1" xmlns="http://www.w3.org/2000/svg" xmlns:xlink="http://www.w3.org/1999/xlink" x="0px" y="0px"
	 viewBox="-2 7 16 10" style="enable-background:new -2 7 16 10;" xml:space="preserve">
<style type="text/css">
	.st0{fill:#FFFFFF;}
</style>
<g>
	<g>
		<g>
			<path class="st0" d="M13.9419622,11.8951349c0.0297241-0.2810059-0.0479736-0.5708618-0.2607422-0.7889404L10.2475042,7.586175
				C9.8681097,7.19732,9.2454901,7.1892638,8.8566961,7.5685968c-0.388916,0.3793335-0.3966675,1.0020142-0.017334,1.3907471
				l1.8217773,1.8677378H-1.0120788c-0.5432129,0-0.9836426,0.4400015-0.9836426,0.9833975
				c0,0.5431519,0.4404297,0.9833374,0.9836426,0.9833374h12.0863647l-2.1913452,2.2467041
				c-0.3793945,0.3890991-0.371521,1.0114126,0.0172729,1.3909292c0.3887939,0.3791504,1.0115967,0.3712769,1.3908691-0.017395
				l3.4338379-3.5202627C13.9914618,12.6204767,14.0557308,12.233819,13.9419622,11.8951349z"/>
		</g>
	</g>
</g>
</svg>
