<?xml version="1.0" encoding="utf-8"?>
<!-- Generator: Adobe Illustrator 18.0.0, SVG Export Plug-In . SVG Version: 6.00 Build 0)  -->
<!DOCTYPE svg PUBLIC "-//W3C//DTD SVG 1.1//EN" "http://www.w3.org/Graphics/SVG/1.1/DTD/svg11.dtd">
<svg version="1.1" id="Layer_1" xmlns="http://www.w3.org/2000/svg" xmlns:xlink="http://www.w3.org/1999/xlink" x="0px" y="0px"
	 width="571.1px" height="573.5px" viewBox="358.5 33.8 571.1 573.5" enable-background="new 358.5 33.8 571.1 573.5"
	 xml:space="preserve">
<path fill="#FFFFFF" d="M786.9,33.8H501.3c-78.7,0-142.7,64-142.7,142.7v288c0,78.7,64,142.7,142.7,142.7h285.7
	c78.7,0,142.7-64,142.7-142.7v-288C929.7,97.9,865.6,33.8,786.9,33.8z M501.3,86.7h285.7c49.6,0,89.9,40.3,89.9,89.9v49.1H725.5
	c-22.2-15.8-49.2-25.1-78.5-25.1c-29.2,0-56.3,9.3-78.5,25.1H411.4v-49.1C411.4,127,451.7,86.7,501.3,86.7z M703.3,336.2
	c0,31-25.2,56.3-56.3,56.3c-31,0-56.3-25.2-56.3-56.3c0-31,25.2-56.3,56.3-56.3C678.1,279.9,703.3,305.1,703.3,336.2z M786.9,554.5
	H501.3c-49.6,0-89.9-40.3-89.9-89.9v-186h112.9c-8.2,17.5-12.9,37-12.9,57.6c0,74.8,60.8,135.6,135.6,135.6
	c74.8,0,135.6-60.8,135.6-135.6c0-20.6-4.6-40.1-12.9-57.6h107.1v186C876.8,514.1,836.5,554.5,786.9,554.5z"/>
<path fill="#FFFFFF" d="M835.4,183.6c0,8.7-7.1,15.9-15.9,15.9h-49c-8.7,0-15.9-7.1-15.9-15.9v-49c0-8.7,7.1-15.9,15.9-15.9h49
	c8.7,0,15.9,7.1,15.9,15.9V183.6z"/>
</svg>
