<?xml version="1.0" encoding="utf-8"?>
<!-- Generator: Adobe Illustrator 18.0.0, SVG Export Plug-In . SVG Version: 6.00 Build 0)  -->
<!DOCTYPE svg PUBLIC "-//W3C//DTD SVG 1.1//EN" "http://www.w3.org/Graphics/SVG/1.1/DTD/svg11.dtd">
<svg version="1.1" id="Layer_1" xmlns="http://www.w3.org/2000/svg" xmlns:xlink="http://www.w3.org/1999/xlink" x="0px" y="0px"
	 width="35px" height="32px" viewBox="0 0 35 32" enable-background="new 0 0 35 32" xml:space="preserve">
<path fill="#FFFFFF" d="M26.8,23.4L22.4,19c2.4-3.2,2.2-7.8-0.7-10.7c-1.5-1.5-3.6-2.4-5.8-2.4s-4.2,0.9-5.8,2.4
	c-3.2,3.2-3.2,8.4,0,11.6c1.5,1.5,3.6,2.4,5.8,2.4c1.4,0,2.8-0.4,4-1.1l4.5,4.5c0.6,0.6,1.7,0.6,2.3,0C27.4,25,27.4,24,26.8,23.4z
	 M11.8,18.1c-2.2-2.2-2.2-5.9,0-8.1c1.1-1.1,2.5-1.7,4.1-1.7c1.5,0,3,0.6,4.1,1.7c2.2,2.2,2.2,5.9,0,8.1c-1.1,1.1-2.5,1.7-4.1,1.7
	S12.9,19.2,11.8,18.1z"/>
</svg>
