<?xml version="1.0" encoding="utf-8"?>
<!-- Generator: Adobe Illustrator 19.2.1, SVG Export Plug-In . SVG Version: 6.00 Build 0)  -->
<svg version="1.1" id="Layer_1" xmlns="http://www.w3.org/2000/svg" xmlns:xlink="http://www.w3.org/1999/xlink" x="0px" y="0px"
	 viewBox="0 0 60.1 47.5" style="enable-background:new 0 0 60.1 47.5;" xml:space="preserve">
<style type="text/css">
	.st0{fill:#7E7AD1;}
</style>
<path d="M31.8,34.6C31.8,34.6,31.8,34.6,31.8,34.6C31.8,34.6,31.8,34.6,31.8,34.6z"/>
<path class="st0" d="M1.3,26.8l19.5,19.5c1.7,1.7,4.4,1.7,6.1,0c1.7-1.7,1.7-4.4,0-6.1L14.6,28h41.2c2.4,0,4.3-1.9,4.3-4.3
	c0-2.4-1.9-4.3-4.3-4.3H14.6L26.8,7.3c1.7-1.7,1.7-4.4,0-6.1c-0.8-0.8-1.9-1.3-3-1.3s-2.2,0.4-3,1.3L1.3,20.7
	C-0.4,22.4-0.4,25.1,1.3,26.8z"/>
</svg>
