<?xml version="1.0" encoding="utf-8"?>
<!-- Generator: Adobe Illustrator 19.2.1, SVG Export Plug-In . SVG Version: 6.00 Build 0)  -->
<svg version="1.1" id="Layer_1" xmlns="http://www.w3.org/2000/svg" xmlns:xlink="http://www.w3.org/1999/xlink" x="0px" y="0px"
	 viewBox="-245 344 80 80" style="enable-background:new -245 344 80 80;" xml:space="preserve">
<style type="text/css">
	.st0{fill:#CCCCCC;}
</style>
<g>
	<path class="st0" d="M-205,424c22.1,0,40-17.9,40-40c0-22.1-17.9-40-40-40c-22.1,0-40,17.9-40,40C-245,406.1-227.1,424-205,424z
		 M-205,352c17.6,0,32,14.4,32,32c0,17.6-14.4,32-32,32s-32-14.4-32-32S-222.6,352-205,352z"/>
	<path class="st0" d="M-208.9,384.8c0,0.1,0.1,0.2,0.1,0.3c0,0.1,0.1,0.3,0.1,0.4c0.1,0.1,0.1,0.2,0.2,0.4c0.1,0.1,0.1,0.2,0.2,0.3
		c0.1,0.2,0.3,0.4,0.5,0.6c0,0,0,0,0,0.1l14,14c1.6,1.6,4.1,1.6,5.7,0c1.6-1.6,1.6-4.1,0-5.7l-12.8-12.8v-16.1c0-2.2-1.8-4-4-4
		s-4,1.8-4,4V384C-209,384.3-209,384.5-208.9,384.8z"/>
</g>
</svg>
