<?xml version="1.0" encoding="utf-8"?>
<!-- Generator: Adobe Illustrator 19.2.1, SVG Export Plug-In . SVG Version: 6.00 Build 0)  -->
<svg version="1.1" id="Layer_1" xmlns="http://www.w3.org/2000/svg" xmlns:xlink="http://www.w3.org/1999/xlink" x="0px" y="0px"
	 viewBox="-235 354.2 60.5 60.5" style="enable-background:new -235 354.2 60.5 60.5;" xml:space="preserve">
<style type="text/css">
	.st0{fill:#726DCD;stroke:#726DCD;stroke-width:2;stroke-miterlimit:10;}
	.st1{fill:#726DCD;}
</style>
<path class="st0" d="M-176.5,408.1l-5.6-5.6c0,0-0.1-0.1-0.1-0.1c8.4-10.5,8.4-25.6,0-36.1c0,0,0.1-0.1,0.1-0.1l5.6-5.6
	c1.3-1.3,1.3-3.3,0-4.5c-1.3-1.3-3.3-1.3-4.5,0l-5.6,5.6c0,0-0.1,0.1-0.1,0.1c-10.5-8.4-25.6-8.4-36.1,0c0,0-0.1-0.1-0.1-0.1
	l-5.6-5.6c-1.3-1.3-3.3-1.3-4.5,0c-1.3,1.3-1.3,3.3,0,4.5l5.7,5.7c0,0,0,0,0,0c-8.4,10.5-8.4,25.6,0,36.1c0,0-0.1,0.1-0.1,0.1
	l-5.6,5.6c-1.3,1.3-1.3,3.3,0,4.5c1.3,1.3,3.3,1.3,4.5,0l5.6-5.6c0,0,0.1-0.1,0.1-0.1c10.5,8.4,25.6,8.4,36.1,0c0,0,0,0,0,0l5.7,5.7
	c1.3,1.3,3.3,1.3,4.5,0C-175.2,411.4-175.2,409.4-176.5,408.1z M-221.8,401.4c-9.4-9.4-9.4-24.7,0-34.1s24.7-9.4,34.1,0
	c9.4,9.4,9.4,24.7,0,34.1C-197.1,410.9-212.4,410.8-221.8,401.4z"/>
<polygon class="st1" points="-208.6,386.5 -205.4,394.8 -196.8,374.8 -216.8,383.4 "/>
</svg>
