<?xml version="1.0" encoding="utf-8"?>
<!-- Generator: Adobe Illustrator 19.0.0, SVG Export Plug-In . SVG Version: 6.00 Build 0)  -->
<svg version="1.1" id="Layer_1" xmlns="http://www.w3.org/2000/svg" xmlns:xlink="http://www.w3.org/1999/xlink" x="0px" y="0px"
	 viewBox="0 0 20 20" style="enable-background:new 0 0 20 20;" xml:space="preserve">
<style type="text/css">
	.st0{fill:#FFFFFF;}
</style>
<path id="XMLID_854_" class="st0" d="M14.6083975,12.1875c0.78125-1.229167,1.239583-2.6875,1.239583-4.255208
	C15.8479805,3.552084,12.3011055,0,7.926105,0C3.5458982,0-0.0009772,3.5520833-0.0009772,7.932292
	s3.5468755,7.932292,7.921875,7.932292c1.5885415,0,3.0677085-0.46875,4.3072906-1.270833l0.359375-0.25L18.2438145,20
	l1.755209-1.7864571l-5.651042-5.656251L14.6083975,12.1875z M12.3636055,3.4999998
	c1.1822929,1.1822917,1.833334,2.7552087,1.833334,4.427083s-0.651041,3.244792-1.833334,4.427084
	s-2.755208,1.833334-4.427083,1.833334s-3.244792-0.651041-4.427083-1.833334S1.676106,9.598959,1.676106,7.927084
	s0.6510417-3.244792,1.8333333-4.427083s2.7552078-1.8333333,4.427083-1.8333333
	C9.6083975,1.6666666,11.1813154,2.3177083,12.3636055,3.4999998z"/>
</svg>
