<?xml version="1.0" encoding="utf-8"?>
<!-- Generator: Adobe Illustrator 19.2.1, SVG Export Plug-In . SVG Version: 6.00 Build 0)  -->
<svg version="1.1" id="Layer_1" xmlns="http://www.w3.org/2000/svg" xmlns:xlink="http://www.w3.org/1999/xlink" x="0px" y="0px"
	 viewBox="0 0 80 40" style="enable-background:new 0 0 80 40;" xml:space="preserve">
<style type="text/css">
	.st0{fill:#A87E3B;}
</style>
<path id="no1" class="st0" d="M46.2,6.2c-0.1,0.1-0.2,0.2-0.2,0.3v0.4c0-0.2,0.1-0.3,0.1-0.5c0-0.1,0.1-0.1,0.2-0.1c0,0,0.2,0,0.2,0
	s-0.1,0.1-0.1,0.2c0,0-0.1,0.1-0.1,0.2c0,0,0.1,0,0.1,0c0.1-0.1,0.1-0.3,0.2-0.4c0.1,0,0.1-0.1,0.1-0.2L46.2,6.2z M46,4.5
	c0,0,0,0.1,0,0.1c0,0,0.1,0,0.1,0c0.1,0,0.3-0.1,0.4,0c0,0.1,0.1,0.1,0.2,0.1l0-0.2l-0.2-0.2l-0.2,0l-0.2,0.1L46,4.5z M44.5,5.9
	c-0.1-0.2-0.1-0.4-0.2-0.6c-0.2,0-0.3,0.1-0.4,0.2c-0.1,0.1-0.2,0.2-0.4,0.2c0,0-0.1,0.1-0.4,0.3c0.1-0.1,0.2-0.1,0.2-0.1
	c0.1,0,0.2,0,0.3-0.1c0.2-0.1,0.5-0.3,0.5-0.3c0,0.1,0,0.3,0.1,0.4c0,0.1,0,0.1,0,0.1c-0.9,0.2-1.7,0.6-2.5,0.9
	c0-0.1-0.1-0.2-0.1-0.3l-0.1-0.2c0.1,0,0.3,0,0.4-0.1c0,0,0,0-0.1,0c-0.2,0-0.4,0.1-0.5,0.2l0.1,0.3c0.1,0.1,0.1,0.3,0.1,0.4
	c0.9-0.5,1.9-0.9,2.9-1.1C44.5,6.1,44.5,6,44.5,5.9L44.5,5.9z M44.3,6C44.3,6,44.3,6,44.3,6C44.3,5.9,44.3,5.9,44.3,6
	c0-0.2-0.1-0.3-0.1-0.5c0,0-0.3,0.1-0.5,0.3c-0.1,0.1-0.2,0.1-0.3,0.1c0,0-0.1,0-0.3,0.1c-0.1,0.1-0.3,0.2-0.5,0.3
	c-0.1,0-0.1,0-0.2-0.1c-0.1,0-0.2,0-0.3,0c0,0-0.1,0.1-0.1,0.1c-0.1,0-0.2-0.3-0.3,0c0,0.1-0.1,0.1-0.2,0.1l0.1,0.2
	c0.1,0.1,0.1,0.2,0.1,0.3c0,0,0.1,0,0.1-0.1l0-0.3c0.2-0.1,0.5-0.2,0.7-0.2c0.1,0,1.5-0.5,1.6-0.7C44.1,5.8,44.2,5.9,44.3,6L44.3,6z
	 M41.8,3.7c0,0.3,0.2,0.5,0.5,0.5c0,0,0,0,0.1,0c0.3,0,0.5-0.3,0.5-0.5c0-0.3-0.2-0.5-0.5-0.5C42,3.2,41.8,3.5,41.8,3.7z M42,3.7
	c0.1-0.4,0.3-0.3,0.3-0.3c0.1,0.1-0.1,0.2-0.1,0.3c0,0.1,0.1,0.2,0.2,0.2c0.1,0,0.1,0.1,0.1,0.1c-0.1,0.1-0.3,0.1-0.4,0
	C42,3.9,42,3.8,42,3.7L42,3.7z M42.2,4.2c0,0.5,0.1,1,0.3,1.5c0,0,0,0.2,0.1,0c0.1-0.2,0.3-0.4,0.5-0.6c-0.1-0.4-0.2-0.8-0.3-1.1
	c0,0,0,0-0.1,0c0,0-0.1,0.1-0.1,0.1c0,0.1,0.1,0.1,0.1,0.2c-0.1,0.1-0.2,0.1-0.3,0.1c0,0,0,0.1,0.1,0.1c0.1,0,0.2-0.1,0.2-0.1
	c0.1,0,0.1,0.1,0.1,0.2c-0.1,0.1-0.3,0.1-0.4,0.1c0,0,0,0.1,0,0.1c0,0,0.4-0.1,0.4-0.1s0,0.2,0,0.2c0,0-0.4,0-0.4,0.1
	c0,0,0,0.1,0,0.1c0.1,0,0.3-0.1,0.4-0.1c0,0.1,0,0.1,0,0.2c0,0.1-0.4,0.1-0.4,0.1c0,0,0,0.1,0,0.1c0.1,0,0.2-0.1,0.2-0.1l-0.2,0.2
	c-0.2-0.3-0.3-0.7-0.3-1.1c0,0-0.1-0.1,0-0.1C42.3,4.3,42.3,4.1,42.2,4.2L42.2,4.2z M44.3,9.8c-0.2-0.5-0.3-1.1-0.5-1.7
	c-0.2-0.6-0.3-1.1-0.5-1.7c0,0,0,0,0,0c0.2,0.6,0.3,1.2,0.5,1.8C44,8.7,44.1,9.3,44.3,9.8C44.3,9.8,44.3,9.8,44.3,9.8L44.3,9.8
	L44.3,9.8z M42.7,6.7c0.3,1.3,0.6,2.6,0.9,3.8c0,0.1,0.2,0.1,0.1,0c-0.3-1.3-0.6-2.6-0.9-3.8C42.8,6.6,42.6,6.6,42.7,6.7L42.7,6.7z
	 M43,6.6c0,0.2,0,0.4,0.1,0.6c0.1,0.2,0.1,0.3,0.1,0.5c0,0-0.1,0-0.4-1.1L43,6.6z M43,6.6l0.9,3.3l0.4-0.1l-1-3.4L43,6.6z M43.4,8.4
	c0,0,0,0.4,0,0.4S43.6,8.8,43.4,8.4L43.4,8.4z M46.8,0.4c0,0.1-0.1,0.2-0.2,0.2c-0.1,0-0.2,0.1-0.3,0.2c-0.1-0.1-0.3-0.1-0.4-0.1
	c-0.2,0-0.5,0.1-0.7,0.2c0,0.1,0.1,0.1,0.1,0.2c0,0,0,0,0,0l0-0.1C45.4,1,45.5,1,45.6,1c0.1,0,0.3-0.1,0.4,0c0,0,0.2,0.1,0.2,0.1
	c0,0.1,0,0.1,0.1,0.2c0,0,0,0,0.1,0c0,0,0,0,0,0c0-0.1,0-0.2,0.1-0.3C46.5,0.9,46.9,0.7,46.8,0.4L46.8,0.4z M46.8,0.4
	C47,0.6,47.1,0.8,47.2,1c0.1-0.2,0.4-0.2,0.5-0.1c0.2,0.1,0.3,0.2,0.4,0.3c-0.2,0-0.3,0.1-0.4,0.2c0.2,0,0.5,0,0.7,0.1
	c0.2,0.1,0.2,0,0.2,0.1c0,0.3-0.2,0.5-0.4,0.7c0.1,0.1,0.3,0.2,0.5,0.1c0.1,0,0.1-0.1,0.2-0.2c0.1,0.2,0,0.4-0.1,0.5
	c-0.1,0.1-0.2,0.2-0.3,0.3c0.1,0.4,0.1,0.8-0.1,1.2c0,0.1,0.1,0.3,0.2,0.3c0.2,0.2,0.4,0.3,0.6,0.5c-0.1,0.1-0.2,0.1-0.3,0.1
	c-0.2-0.3-0.5-0.5-0.8-0.6c0-0.2,0.1-0.3,0.1-0.5c0.1-0.3,0.1-0.5,0.1-0.8c-0.1-0.1-0.2-0.2-0.3-0.3c0-0.1,0-0.2,0-0.3
	c0.1,0,0.1,0.1,0.2,0.1c0.1,0,0.1,0,0.2,0c0,0,0.2-0.2,0.2-0.2c-0.2,0.1-0.4,0.1-0.6-0.1c-0.1,0-0.1,0-0.2,0c0,0-0.1-0.2,0-0.2
	c0.1-0.1,0.2-0.2,0.3-0.3c0.1-0.1,0.1-0.2,0.1-0.3c-0.2-0.1-0.4-0.1-0.5-0.1c-0.2,0-0.3,0.1-0.4,0.2c0,0-0.1,0.1-0.3-0.1
	c0,0,0.2,0.1,0.2,0c-0.1-0.1-0.1-0.2-0.2-0.2c0,0,0-0.1,0.1-0.1c0,0,0.1,0.2,0.2,0.1c0.1-0.1,0.2-0.2,0.4-0.3c0,0-0.4-0.4-0.6-0.2
	c-0.1,0.1-0.2,0.2-0.3,0.3c0,0,0.1,0.1,0.1,0.1c-0.1,0-0.1,0-0.2,0c-0.1,0-0.1,0-0.2-0.1c0-0.1,0-0.1,0.1-0.1c0.1,0,0.2-0.1,0.2-0.2
	c0,0,0,0,0,0C47.1,0.9,47,0.6,46.8,0.4L46.8,0.4z M45.3,1.2c0.1,0.1,0.2,0.2,0.3,0.3c0,0.1-0.1-0.1-0.2-0.1c-0.3-0.1-0.6-0.1-0.9,0
	c0,0-0.1,0-0.1,0.1s0,0.1,0,0.2c0,0.2,0.1,0.5,0.3,0.7c-0.1,0.1-0.2,0.1-0.3,0.2c-0.1,0-0.3-0.1-0.3-0.3c0,0-0.1-0.1-0.1,0.1
	c0,0.1-0.1,0.7,0.3,0.8c-0.1,0-0.1,0.1-0.2,0.1c0,0.1-0.1,0.1-0.1,0.2c0,0,0,0.8,0.2,0.9c-0.1,0.3,0,0.7,0.3,1l0.1,0
	c0,0,0.1,0.2,0.1,0.3c0,0.1,0.1,0.2,0.2,0.3c0.1,0,0.1-0.1,0.1-0.1c0,0-0.5-0.3-0.3-0.7c0.2-0.3,0.5-0.9,0.5-0.9c0-0.1,0-0.3,0-0.4
	c0,0-0.2-0.1-0.2-0.1c0,0.1,0,0.1,0,0.2c0,0.1,0,0.1,0,0.2c0,0.1-0.1,0.1-0.1,0.2c0,0-0.1,0.1-0.1,0.2c-0.2,0.2-0.3,0.5-0.3,0.7
	c0,0,0,0.1-0.1,0c-0.1-0.1-0.3-0.6-0.1-0.7c0.1-0.3,0.3-0.5,0.5-0.8c0,0,0.1,0,0.1,0c0,0,0-0.1-0.1-0.1c-0.1-0.1-0.1-0.2-0.2-0.3
	c0,0,0,0.1,0,0.1c-0.1,0.2-0.2,0.3-0.3,0.4c0,0-0.2,0.3-0.3,0.3c-0.1-0.2-0.1-0.4-0.1-0.6c0-0.2,0.5-0.3,0.6-0.4l0.1,0.1
	c0,0-0.1-0.4-0.1-0.4c0,0.1,0,0.1-0.1,0.2c0,0-0.1,0-0.1,0.1c-0.3,0-0.4-0.3-0.4-0.5c0.2,0.2,0.5,0.2,0.7,0c0,0,0,0.1,0,0.1
	c0,0,0,0,0.1,0C45,2.4,45.2,2.2,45.4,2c0-0.2-0.1-0.4-0.3-0.4c0,0,0,0-0.1,0c0,0,0.3,0.2,0.2,0.4S45,2.3,44.8,2.2
	c-0.1-0.1-0.1-0.1-0.1-0.1h0.1c0,0-0.2-0.1-0.3-0.6c0.2-0.1,0.5-0.1,0.7,0c0,0,0.1,0.1,0.1,0.1c0,0.1,0.3,0.3,0.5,0.1
	c0,0-0.1,0-0.1,0c-0.1,0-0.1-0.1-0.1-0.1l0.3-0.1h-0.1l0.2-0.1c-0.1,0-0.2,0-0.2,0.1C45.6,1.3,45.5,1.2,45.3,1.2L45.3,1.2z
	 M47.2,2.7C47.2,2.7,47.1,2.7,47.2,2.7c-0.1,0.1,0,0.2-0.1,0.2c0,0,0,0-0.1,0.1c0,0,0,0,0,0c0.1,0,0.2,0,0.2,0
	C47.3,2.9,47.3,2.6,47.2,2.7L47.2,2.7z M45.8,3c-0.1,0-0.1,0-0.2-0.1c0,0,0.1-0.4,0.2-0.3c0,0,0,0.1,0,0.1v0.1 M48,2.3
	c0-0.1-0.1-0.2-0.1-0.3c0.1-0.1,0.1-0.1,0.2-0.1c-0.4,0-0.4,0.2-0.4,0.2C47.9,2.3,48,2.7,48,3.1c-0.1,0.3-0.3,0.5-0.6,0.6
	c0-0.1-0.1-0.2,0-0.2c0.1-0.1,0.2-0.2,0.2-0.3c-0.1,0.1-0.6,0.4-0.6,0.4c0.1,0,0.1,0,0.2,0.1c0.2,0.2,0.2,0.4,0,0.6
	C47,4.6,47,4.4,46.9,4.4c-0.1,0-0.1-0.1-0.2-0.2c-0.1,0-0.2-0.1-0.1-0.2c0,0,0,0,0-0.1c0,0,0-0.1,0.1-0.1l0.1-0.1l0,0.1l0.1-0.1
	c0-0.1,0.1-0.1,0.1-0.2c0,0,0.1-0.1,0.1-0.1c0-0.1,0-0.3-0.1-0.4c0,0,0-0.1,0-0.1c0,0,0.1,0,0.1,0c0.1,0,0.1,0,0.2,0
	c0.2-0.1,0.3-0.2,0.4-0.3c0,0,0.1-0.2,0.1-0.2c-0.1,0-0.1,0-0.2,0c0,0-0.2-0.1-0.2-0.1c0,0,0,0,0.1-0.1c0,0,0-0.1,0.1-0.1
	c0.1,0,0.1,0,0.2,0.1c0-0.2-0.2-0.2-0.2-0.2S47.1,2.4,47,2.5c0,0-0.1,0.1-0.2,0c-0.1,0-0.2-0.1-0.2-0.2c0-0.2,0-0.4,0-0.5
	c0-0.1,0.1-0.3,0.1-0.3c0,0,0-0.1-0.1-0.1c0,0,0,0.1-0.1-0.1c0-0.1-0.5,0.1-0.5,0.1c0,0.1,0.1,0.1,0.2,0.1c0.1,0,0.2,0,0.3,0v0.4
	l0,0.4c0,0,0,0,0,0.1c-0.2,0.1-0.3,0.1-0.5,0.1c-0.1-0.1-0.2-0.2-0.3-0.2h-0.1l-0.1-0.1c-0.1,0.3,0,0.3,0,0.3s0-0.1,0.1-0.1
	c0.1,0,0.1,0.1,0.2,0.2l-0.2,0.1l0,0l-0.1,0c0,0.2,0.2,0.3,0.3,0.4C45.8,3.1,46,3.1,46.1,3c-0.1,0.2-0.2,0.4-0.2,0.6
	C46,3.6,46,3.7,46,3.8c0,0.1,0.1,0.1,0.2,0.1c0,0.1,0,0.1,0,0.2c0,0-0.1,0.1-0.1,0.2c-0.1,0-0.2,0.1-0.3,0.1c-0.1,0.1-0.3,0.1-0.4,0
	c0-0.1-0.1-0.2-0.1-0.2c0-0.1,0-0.2,0-0.3c0.1-0.1,0.2-0.2,0.3-0.3c-0.1-0.2-0.3-0.3-0.5-0.5c0.1,0.1,0.2,0.3,0.3,0.5
	c0,0.1-0.1,0.1-0.1,0.2c0,0-0.1,0.1-0.1,0.1c0,0.2,0,0.4,0.1,0.6c0.1,0.1,0.3,0.1,0.4,0.1c0,0,0.2,0,0.2,0l0.2-0.1
	c0,0,0.1-0.1,0.4,0.1c0.1,0,0.1,0,0.2,0c0.1,0.1,0.3,0.1,0.4,0.1c0.1-0.1,0.3-0.3,0.4-0.4c0-0.1,0-0.2,0-0.2l0.1-0.1
	c0,0,0,0,0.1-0.1C47.9,3.6,48,3.5,48,3.3c0,0,0.1-0.1,0.1-0.1C48.2,2.9,48.1,2.6,48,2.3L48,2.3z M47.3,2.7c0.1,0,0.1,0.1,0.2,0.2
	C47.4,3,47.2,3,47,2.9c0,0-0.1-0.1-0.1-0.1C47,2.7,47.1,2.6,47.3,2.7L47.3,2.7z M45.9,3c-0.2,0-0.3-0.2-0.3-0.4
	c0.2-0.1,0.4,0,0.5,0.1c0,0,0,0.1,0,0.1C46.1,3,46.1,3.1,45.9,3L45.9,3z M46.1,3.5L46.1,3.5c-0.1-0.1,0.1-0.5,0.1-0.5
	c0,0,0.1,0,0.1,0l0-0.1h0l-0.2-0.4c0,0,0.1,0.1,0.4-0.1c0,0,0.1,0.1,0.2,0.1c0,0-0.1,0.1,0.2,0.2c-0.1,0.1-0.1,0.2-0.1,0.3
	c0,0.2,0,0.3,0.1,0.5l-0.2,0C46.4,3.6,46.3,3.5,46.1,3.5z M47.7,3.2C47.7,3.2,47.7,3.2,47.7,3.2C47.7,3.2,47.7,3.2,47.7,3.2
	L47.7,3.2z M44.7,2.8l0.1-0.1c0,0.3,0,0.5,0.2,0.7c0.2,0.3,0.4,0.3,0.4,0.3c0,0,0,0.2-0.1,0.2S44.6,3.2,44.7,2.8L44.7,2.8z
	 M47.4,4.3c0.1,0.1,0.2,0.3,0.2,0.6c0.1,0.3,0,0.6-0.2,0.9c-0.1,0.2-0.4,0.4-0.6,0.5c0,0,0,0.1,0.3,0c0.2-0.1,0.5-0.3,0.8-1.1
	c0,0,0.2-0.4,0.3-0.4c0-0.1,0.1-0.1,0.1-0.2c0.1-0.2,0.1-0.3,0.1-0.5c-0.1-0.1-0.1-0.3-0.2-0.4c0,0-0.1-0.3-0.1-0.3
	c0,0,0-0.1-0.1-0.1l-0.1,0.3c0,0,0.1,0,0.1,0.1c0.1,0.1,0.1,0.3,0.2,0.4c0,0.2,0,0.4-0.1,0.5C48.1,4.7,48,4.9,47.9,5
	c0-0.2-0.1-0.4-0.2-0.6c0-0.1-0.1-0.2-0.1-0.3L47.4,4.3z M45.7,4.8c0.1,0,0.3,0,0.4,0c0.2,0,0.3,0,0.4,0.1c0,0,0.1,0,0.1,0
	c0.1,0,0.1,0.1,0.1,0.2c-0.1,0.1-0.2,0.1-0.3,0.1c0,0,0,0,0,0c0,0,0,0,0,0c0,0.1-0.1,0.1-0.3,0.1c0-0.1,0-0.1,0-0.2c0,0,0,0,0,0
	c0,0,0,0,0,0C46,5.1,45.6,5.1,45.7,4.8C45.7,4.8,45.7,4.8,45.7,4.8c-0.1,0.1-0.1,0.2,0,0.3c0.1,0,0.1,0.1,0.2,0.1c0.1,0,0.1,0,0.2,0
	c0,0,0,0.1,0,0.1c0,0.1,0,0.1,0.1,0.2c0.2,0.1,0.2-0.2,0.3-0.2c0.1,0,0.3,0,0.3-0.2c0-0.2-0.2-0.1-0.3-0.1c-0.1,0-0.3-0.1-0.4-0.1
	c-0.1,0-0.2,0-0.3,0.1C45.9,4.8,45.8,4.8,45.7,4.8C45.7,4.8,45.7,4.8,45.7,4.8z M42.6,5.7c0.1-0.3,0.3-0.5,0.6-0.6
	c0.1,0,0.2,0,0.3,0.1c0.1,0.1,0.3,0.2,0.4,0.3c0.1,0-0.1,0.1-0.1,0.1c-0.2-0.1-0.4-0.2-0.6-0.3C43,5.4,42.8,5.5,42.6,5.7L42.6,5.7z
	 M43.5,5.6c-0.1,0-0.1-0.1-0.2-0.1c0,0,0,0.1,0.1,0.1c0,0,0,0.1-0.1,0.2C43.2,6,43.1,6,42.9,6c0-0.1,0-0.2,0-0.3c0-0.1-0.1,0-0.1,0
	c0,0.1,0,0.1,0,0.2c0,0,0,0.1-0.1,0.1c0,0-0.1,0.1-0.1,0.1c0,0,0,0,0,0c0,0.1-0.1,0.1-0.1,0.2c-0.1-0.1-0.1-0.3-0.1-0.5l0,0v0
	l-0.1,0.3c0,0-0.1,0.1-0.1,0C42.3,6,42.2,6,42.2,6c0,0,0,0.1,0,0.1c0,0,0,0,0,0c0,0.1-0.1,0.2-0.1,0.3c0.1-0.1,0.3-0.1,0.4-0.1
	c0.1,0.2,0.2,0.2,0.2,0.2c0-0.1,0.1-0.2,0.2-0.3c0.2,0,0.3,0,0.5-0.1C43.5,6,43.6,5.8,43.5,5.6L43.5,5.6z M43.4,6.4
	c0,0,0.3,1.1,0.9,1.2c-0.1,0.1-0.2,0.1-0.3,0.2c0.1,0.2,0.4,0.3,0.6,0.4c0.1,0,0.2-0.1,0.3-0.1c0.1-0.1,0.3,0.3,0.3,0.3
	c-0.1,0.1-0.2,0.2-0.2,0.2c0.2,0.1,0.3,0.1,0.5,0.1c0.1,0,0.3-0.1,0.4-0.2c0,0.2-0.1,0.3-0.3,0.4c-0.3,0-0.6-0.1-0.8-0.2l-0.2-0.1
	c0.2-0.1,0.3-0.2,0.4-0.3c0-0.1,0-0.1-0.1-0.1c-0.2,0.1-0.4,0.2-0.6,0.1c-0.2-0.2-0.6-0.4-0.6-0.4c-0.1-0.1,0-0.2,0.1-0.3
	c0,0,0.1,0,0.1,0C43.9,7.5,43.5,7.6,43.4,6.4L43.4,6.4z M44.2,6.1c0.1,0.1,0.3,0.2,0.4,0.4c0,0.1,0,0.2-0.1,0.2l-0.2-0.2
	c0,0-0.4-0.4-0.5-0.4C44,6.2,44.1,6.2,44.2,6.1L44.2,6.1z M47.9,6.4c-0.3-0.1-0.7-0.1-1,0c-0.3,0.1-0.6,0.4-0.7,0.7L46.1,7l0,0.1
	c0,0.1,0,0.3,0,0.4c0,0.1,0.1,0.2,0,0.3L46,8c0.2-0.1,0.4-0.1,0.6-0.3c0,0-0.2-0.1-0.2-0.1c-0.1-0.1-0.1-0.2-0.1-0.3
	c0,0,0.1-0.4,0.8-0.8C47.1,6.5,47.7,6.4,47.9,6.4L47.9,6.4z M46.4,8.6c-0.1,0.1-0.2,0.2-0.2,0.4c0,0.3,0,1.7-0.1,2.1
	c-0.1,0.3-0.2,0.5-0.3,0.8c0,0-0.4,0.4-0.7,0.2c0,0.1,0,0.2,0,0.3c0.1,0,0.3,0,0.4,0c0.4-0.3,0.6-0.7,0.8-1.1l0-0.1l0,0
	c0.1-0.7,0.1-1.4,0.1-2.1l0.1-0.1l0.1,0l0.1,0l0.1,0l0.1,0l0.1,0l-0.2-0.1l0,0L46.4,8.6z M47,12.2c0.1-0.1,0.1-0.3,0.1-0.4
	c-0.1-0.1-0.2-0.3-0.2-0.5c0.1,0.2,0.3,0.3,0.4,0.4c0.2,0.1,0.3,0.3,0.3,0.5c0,0,0.3-0.7,0.3-0.7c0-0.1-0.1-0.2-0.1-0.3
	c-0.1,0-0.1-0.1-0.2-0.1c0-0.1,0.1-0.1,0.1-0.2c0,0,0.2,0.2,0.2,0.3c0.1,0.2,0.2,0.5,0.1,0.7c-0.1,0.2-0.2,0.4-0.4,0.6
	c-0.1-0.1-0.1-0.3-0.2-0.4c-0.1,0-0.1,0.3-0.2,0.3C47,12.3,47,12.3,47,12.2L47,12.2z M47.4,9.3c0.2-0.2,0.2-0.5,0-0.8
	c0.1,0.1,0.2,0.2,0.3,0.3c0,0.1,0.2,0,0.2,0c0,0,0.2-0.2,0.1-0.3c-0.1,0-0.2-0.1-0.2-0.3c0-0.1,0-0.2,0.1-0.3
	c0.2-0.1,0.3-0.3,0.5-0.5c0,0.1-0.1,0.3-0.2,0.4c-0.1,0.1-0.1,0.2-0.1,0.2s-0.1,0.2,0,0.2c0.2,0,0.3-0.1,0.5-0.2l-0.1,0.3
	c-0.1,0-0.1,0.1-0.2,0.1c0,0.2,0,0.3-0.1,0.5C48.1,9,48,9,47.9,9.1c0,0.1,0,0.1,0,0.2L47.4,9.3z M53.3,9.3c-0.1-0.1-0.2-0.1-0.2-0.2
	L53.2,9C53.1,9,53,9,53,9.1c-0.1,0-0.3-0.1-0.3-0.2c0-0.1,0-0.2,0.1-0.3c0,0-0.1-0.1-0.2-0.1c-0.1-0.1-0.1-0.2-0.2-0.3
	c0-0.2,0-0.3,0-0.5c0-0.2,0-0.4,0-0.6c0,0,0,0,0-0.1c0,0,0.1-0.3,0.1-0.4c0,0,0-0.1,0-0.1c-0.2-0.2-0.6-0.3-0.9-0.2
	c0.3,0,0.5,0.1,0.7,0.2c0,0.1-0.1,0.2-0.2,0.3c-0.1,0-0.1,0-0.2,0c-0.1,0-0.1,0-0.2,0c-0.1,0-0.2,0-0.2,0c-0.1,0-0.2,0-0.3,0
	c0.1,0,0.2,0.1,0.3,0c0.2,0,0.5,0,0.7,0.1c0,0,0,0.1,0,0.1c-0.1,0-0.3,0-0.4,0l-0.3,0c-0.3,0-0.5,0.1-0.8,0.1
	c-0.1,0-0.1-0.1-0.1-0.1c-0.3,0.4-0.7,0.6-1.1,0.7C49.6,8.2,49.7,8,49.7,8S50,8,50.1,8c0.2-0.1,0.3-0.2,0.4-0.3c0,0,0.2-0.1,0.2-0.1
	c0.1-0.1,0.2-0.1,0.3-0.2c0.1,0,0.2,0.1,0.2,0.1l-0.1,0.3l0.2,0c-0.1,0.2-0.2,0.4-0.2,0.7v0c0,0.1-0.1,0.2-0.1,0.3
	c0.1,0.2,0.2,0.3,0.3,0.4l0,0c0.1,0.3,0.8,0.7,0.8,0.7c0,0.4-0.1,0.9-0.4,1.2c-0.1,0.1-0.2,0.2-0.2,0.3l-0.2,0.1l-0.4,0.2
	c-0.3,0-0.6,0.2-0.8,0.5c0,0,0.4,0.3,0.5,0.2s-0.1-0.2-0.1-0.2c0,0-0.1,0-0.1,0c0.1-0.1,0.1-0.1,0.2-0.2c0.1,0,0.1,0,0.2,0.1
	l0.2-0.1l0,0c0.1,0,0.1,0,0.2,0c0.1,0,0.4-0.5,0.3-0.4c-0.1,0.1-0.3,0.2-0.5,0.2c0,0,0.7-0.5,0.7-0.5c0.4-0.4,0.5-1.4,0.5-1.4l0.1,0
	h0.1c0,0,0.1,0,0.1-0.1c-0.1-0.1-0.2-0.2-0.3-0.2c-0.1-0.1-0.2-0.1-0.3-0.2c-0.1-0.1-0.2-0.2-0.2-0.3c0-0.1,0-0.1,0-0.1
	c0,0,0-0.1-0.1-0.1c0-0.1,0-0.1,0-0.2c0,0.1-0.1,0.2-0.3,0.2c0,0,0,0-0.1,0c0,0,0-0.1-0.1-0.1c0-0.1,0-0.2,0-0.2l0,0
	c0.1-0.1,0.1-0.2,0.1-0.3c0-0.1,0-0.3,0.1-0.4c0,0,0-0.1,0-0.1c0,0-0.2,0.1,0-0.1c0.2-0.2,0.5-0.2,0.7,0c0.1,0.1,0.1,0.2,0.1,0.4
	c0,0.1,0,0.2,0,0.3c0,0.2-0.1,0.3-0.2,0.5C52.1,8.9,52.1,9,52,9.1c0,0,0,0,0,0.1c0.2-0.1,0.4-0.2,0.5-0.3c0,0,0.1,0,0.1,0
	c0,0,0,0.1,0,0.1l0,0.2c0,0,0.1,0,0.1,0c0,0,0.2,0.1,0.2,0.1s-0.2,0.1-0.1,0.1c0.1,0,0.1,0.1,0.2,0.1C53.1,9.4,53.2,9.4,53.3,9.3
	L53.3,9.3z M52,7.5c-0.1,0-0.1,0-0.1,0c-0.1,0-0.1,0-0.2,0c0,0-0.1,0-0.1,0.1c0,0-0.1,0-0.1,0c0,0,0.1-0.1-0.1-0.3
	c0.3,0,0.6,0,0.9,0c0,0.1,0,0.2,0,0.3C52.3,7.6,52.1,7.5,52,7.5L52,7.5z M52.3,12.3c0.1-0.1,0.2-0.1,0.3-0.1c0,0,0.1,0,0.1,0.1
	l0,0.3L52.3,12.3z M52.8,12.6c0-0.1,0.1-0.1,0.1-0.2c0.1-0.1,0.2-0.2,0.3-0.2c0.1-0.1,0.2-0.3,0.3-0.4c0-0.1,0.1,0,0.1,0.1
	c-0.1,0.2-0.2,0.3-0.3,0.4c-0.1,0.1-0.2,0.2-0.3,0.3C53,12.6,52.9,12.6,52.8,12.6L52.8,12.6z M53,12.6c0-0.1,0.1-0.2,0.1-0.2
	c0.1,0,0.1,0,0.2,0c0,0-0.1,0.1,0,0.2C53.2,12.6,53.1,12.6,53,12.6L53,12.6z M52.2,12.2c0.1-0.1,0.3-0.3,0.5-0.4c0.2,0,0.3,0,0.5,0
	c0.1,0,0.3-0.6,0.2-0.6c0.1,0,0.1-0.1,0.2-0.1c0,0.2,0,0.4-0.1,0.5c-0.1,0.1-0.2,0.3-0.4,0.3c-0.1,0-0.4,0-0.4,0l-0.4,0.4L52.2,12.2
	z M54.9,9.3c0-0.1-0.1-0.2-0.1-0.3c0,0-0.1-0.1-0.1-0.1c-0.3-0.1-0.5-0.3-0.6-0.6c0,0-0.1,0-0.1,0c0,0-0.1,0.1-0.1,0.1
	c0.3-0.6,0.5-1.2,0.4-1.9C54,6.3,53.8,6.1,53.6,6h0.3c0.2,0.2,0.5,0.3,0.8,0.2C55.5,6,56,5.2,56,4.4c0-0.7-0.6-1.3-1.3-1.3
	c0,0,0,0,0,0C53.8,3,53,3,52.2,3.1c-1.7,0.1-2.4-1.2-1.4-1.7c0.3-0.1,0.7,0,0.9,0.3c0,0.2,0,0.4-0.1,0.6C51.8,2.2,52,2,52,1.8
	c-0.1-0.2-0.2-0.4-0.4-0.5c0.3,0.1,0.6,0.3,0.9,0.5C52.9,2,53.3,2,53.7,1.9c-0.4-0.1-0.8-0.3-1.2-0.5c0,0,1.3,0.5,1.4,0.5
	c0.2-0.1,0.4-0.2,0.5-0.3c-0.3,0-0.7,0-1-0.2c-0.7-0.3-1.4-0.4-2.1-0.5c0,0,0.8-0.1,0.9-0.5c-0.3,0.1-0.7,0.2-1,0.2
	c-0.5,0-1.6,0.7-1.4,1.5c0.2,0.8,0.7,1.4,1.9,1.5c0.5,0,0.9,0,1.4,0c0,0-0.2,0.1-0.3,0.1c-0.1,0-0.8,0.7-0.9,0.7
	c0.1,0.1,0.3,0.1,0.4,0.1c0.3-0.2,0.6-0.4,0.8-0.6c0-0.1,0.5-0.5,0.6-0.4c0,0-0.7,0.7-0.3,1.1c0.1,0.2,0.4,0.3,0.7,0.3
	c0,0-0.7-0.4,0-1.1c0.4-0.2,0.9-0.2,1.2,0.1c0.4,0.6,0.2,1.4-0.3,1.8c0,0-0.1,0-0.1,0.1c-0.5,0.1-1,0.1-1.5-0.1
	c-0.7-0.2-1.4-0.3-2.1-0.2c-0.1,0.1-0.1,0.2-0.2,0.3c0-0.1,0-0.2,0-0.3L50,5.4c-0.4,0-0.7,0-1.1-0.1c-0.1-0.1-0.3,0-0.4,0.1
	c-0.2,0.2-0.4,0.4-0.7,0.5c0.1-0.1,0.2-0.2,0.3-0.3c0.1-0.3,0.3-0.5,0.6-0.5c0.2,0,0.5,0,0.7-0.1c0.1,0.1,0.3,0.2,0.5,0.2
	c0.3,0,1.5-0.2,1.5-0.2c0.5,0,1,0,1.4,0.1c0.5,0.2,1,0.3,1.5,0.4c0.5,0,1-0.4,1-1c0,0,0,0,0-0.1c0,0,0.1-0.9-0.8-0.9
	c-0.9,0.1-0.6,1.3,0,1.1c0,0,0.1,0.1,0,0.1c-0.1,0-1.1,0.2-1.3-0.8c-0.4,0.5-1.1,0.5-1.6,0.1c-0.1,0-0.1-0.1-0.2-0.2
	c0.2,0.1,0.5,0.1,0.7-0.1c0.1-0.1,0.3-0.2,0.4-0.3c0,0-1.7,0.2-2.4-0.7c-0.6-0.6-0.5-1.6,0.1-2.2c0.4-0.4,1.5-0.5,1.5-0.5
	s0.8-0.1,0.8-0.4c0,0.3-0.1,0.6-0.3,0.8c0.5,0.1,1,0.3,1.5,0.6c0.4,0.2,0.9,0.1,1.2-0.2C54.8,1.5,54.4,1.9,54,2
	c-0.7,0.2-0.8,0.2-1.5-0.1l-0.3-0.2c0,0.3-0.2,0.5-0.5,0.6c-0.5,0.2-0.7,0.1-0.7,0c0,0,0.6,0.1,0.5-0.7c-0.2-0.2-0.5-0.3-0.7-0.1
	c0,0-0.1,0.1-0.1,0.1c-0.5,0.5,0.3,1.1,0.6,1.1C52,3,52.7,3,53.5,2.9c1.7-0.2,2.5,0.3,2.7,1.3c0.1,1-0.5,2-1.5,2.3
	c0,0-0.3,0-0.2,0.2l-0.2,1.3c0,0.2,0,0.3,0,0.5c0.1,0.2,0.2,0.3,0.4,0.3c0.2,0,0.3,0.1,0.4,0.4L54.9,9.3z M50.4,1.4
	C50.6,1.1,51,1,51.3,1.1c0.3,0.1,0.5,0.4,0.5,0.8c-0.1-0.3-0.3-0.5-0.5-0.7C50.9,1,50.4,1.4,50.4,1.4z M50.3,1.2
	c0.3-0.3,0.6-0.5,1-0.5C52,0.7,52,0.6,52,0.6c-0.3,0.1-0.6,0.2-1,0.2C50.8,0.9,50.5,1,50.3,1.2L50.3,1.2z M52.3,1.1
	c0,0,1.2,0.4,1.3,0.5C53.2,1.5,52.8,1.4,52.3,1.1L52.3,1.1z M52.3,1.4c0.2,0.1,0.4,0.2,0.6,0.4C53,1.8,53,1.8,53.1,1.9
	C52.8,1.8,52.5,1.6,52.3,1.4L52.3,1.4z M53.2,3.5c0,0-0.7,0.6-0.7,0.6c0,0,0.1,0,0.1,0C52.9,4,53.1,3.8,53.2,3.5L53.2,3.5z
	 M54.2,3.3c-0.3,0.2-0.5,0.6-0.5,0.9c0,0,0-0.7,0.5-0.8C54.1,3.5,54.2,3.4,54.2,3.3L54.2,3.3z M44.9,11.1c0,0,0.2,1.6,0.1,1.7
	c-0.1,0.1-0.4-0.5-0.4-1.1C44.6,11.2,44.9,11,44.9,11.1z M44.6,14c-0.1-0.2-0.2-0.4-0.4-0.6l0.2,0.6L44.6,14z M54.4,12.5l-0.5,1.9
	l0.2,0.2l0.8-2.5L54.4,12.5z M54,8.6c0,0.1,0.1,0.2,0.1,0.3c0,0.1,0.1,0.2,0.2,0.3c0.1,0,0.2,0.1,0.2,0.1c0,0,0.2-0.2,0.1-0.2
	C54.6,9,54.5,9,54.4,9c-0.1,0-0.1-0.1-0.1-0.2C54.2,8.8,54.1,8.8,54,8.6C54,8.7,54,8.7,54,8.6z M53.5,8L53.5,8c0,0.2,0,0.3,0,0.4
	c0.1-0.1,0.1-0.1,0.2-0.2C53.6,8.1,53.5,8,53.5,8L53.5,8z M53.7,7.5L53.7,7.5c0,0.2,0,0.3,0,0.4c0-0.1,0.1-0.1,0.1-0.2
	C53.9,7.7,53.8,7.6,53.7,7.5z M53.8,7.1c0,0,0.1,0,0.1,0c0,0.1,0,0.2,0,0.4c0,0,0,0,0-0.1C53.8,7.4,53.8,7.2,53.8,7.1z M53.9,6.7
	L53.9,6.7L54,7c0,0,0-0.1,0.1-0.1C54,6.8,54,6.7,53.9,6.7L53.9,6.7z M53.8,6.3c0.1,0.1,0.1,0.1,0.1,0.2c0,0,0,0,0,0
	C53.8,6.5,53.8,6.4,53.8,6.3z M46.6,1.4c0-0.1,0.1-0.3,0.1-0.4c0,0.1,0,0.2,0,0.3C46.7,1.4,46.7,1.5,46.6,1.4L46.6,1.4z M45.1,3.7
	c-0.1,0.2-0.2,0.4-0.3,0.5C44.9,4.1,45.1,4,45.1,3.7L45.1,3.7L45.1,3.7z M44.3,3.7c0,0,0.4-0.5,0.5-0.5c0,0,0.1,0,0.1,0.1L44.3,3.7z
	 M47.6,3.8c0,0,0.3,0.6,0.4,0.7c-0.1-0.2-0.1-0.5-0.2-0.7C47.8,3.8,47.6,3.8,47.6,3.8L47.6,3.8z M48.2,3.2l0.2,0.4c0,0-0.1,0-0.1,0
	c0,0-0.2-0.3-0.2-0.3L48.2,3.2z M45.8,6.1c0,0-0.2,0.2-0.1,0.8c0,0,0.1-0.4,0.1-0.4c0-0.1,0.1-0.1,0.1-0.2
	C45.9,6.2,45.9,6.1,45.8,6.1L45.8,6.1z M43.7,6.5c-0.1,0.2,0,0.3,0.1,0.5c0.1,0.1,0.1,0.1,0.2,0.1c-0.1,0-0.1-0.1-0.1-0.1
	c0-0.1-0.1-0.1-0.1-0.2L43.7,6.5z M44.1,6.8L44.1,6.8c-0.1,0.2,0,0.3,0,0.4c0.1,0,0.2,0.1,0.2,0.1h0.1C44.3,7.2,44.2,7,44.1,6.8
	L44.1,6.8z M45.7,3.8C45.7,3.8,45.7,3.8,45.7,3.8C45.7,3.8,45.7,3.8,45.7,3.8L45.7,3.8L45.7,3.8C45.8,3.8,45.7,3.8,45.7,3.8
	L45.7,3.8z M45.6,3.9C45.6,3.9,45.5,4,45.6,3.9C45.5,4,45.6,4,45.6,3.9c0,0.1-0.1,0.1-0.1,0.1c0,0,0,0,0,0c0,0,0,0,0,0c0,0,0,0,0,0
	c0,0,0,0,0,0C45.6,4,45.6,4,45.6,3.9C45.6,4,45.6,4,45.6,3.9L45.6,3.9z M45.8,4C45.8,4,45.8,4,45.8,4c-0.1,0.1,0,0.1,0,0.1
	c0,0,0.1,0,0.1,0C45.8,4,45.8,4,45.8,4C45.8,4,45.8,4,45.8,4z M46,4C46,4,46,4,46,4c0,0.1,0,0.1,0,0.1L46,4C46.1,4,46.1,4,46,4
	C46,4,46,4,46,4L46,4z M45.9,3.7C45.9,3.7,45.8,3.8,45.9,3.7C45.9,3.8,45.9,3.8,45.9,3.7C45.9,3.8,45.9,3.8,45.9,3.7
	C45.9,3.8,45.9,3.8,45.9,3.7L45.9,3.7z M45.7,4.2C45.7,4.2,45.7,4.2,45.7,4.2c0,0.1,0,0.1,0,0.1c0,0,0,0,0,0
	C45.8,4.3,45.8,4.2,45.7,4.2L45.7,4.2L45.7,4.2z M45.9,4.2C45.9,4.2,45.9,4.1,45.9,4.2C46,4.2,46,4.2,45.9,4.2
	C46,4.2,46,4.2,45.9,4.2C45.9,4.2,45.9,4.2,45.9,4.2L45.9,4.2z M46.8,3.8C46.8,3.8,46.9,3.8,46.8,3.8c0.1,0,0.1,0,0.1,0
	C46.9,3.9,46.9,3.9,46.8,3.8C46.8,3.9,46.8,3.9,46.8,3.8L46.8,3.8z M46.8,4C46.7,4,46.7,4,46.8,4c-0.1,0.1-0.1,0.1,0,0.1
	C46.7,4.1,46.8,4.1,46.8,4C46.8,4,46.8,4,46.8,4L46.8,4z M47,3.9C47,3.9,47,3.8,47,3.9C47.1,3.8,47.1,3.8,47,3.9c0.1,0,0.1,0,0.1,0
	c0,0,0,0,0,0.1C47.2,4,47.1,4,47,3.9C47.1,4,47,3.9,47,3.9L47,3.9z M47.3,4C47.3,4,47.2,4,47.3,4c-0.1,0.1-0.1,0.1,0,0.1
	c0,0,0.1,0,0.1,0C47.3,4.1,47.3,4,47.3,4L47.3,4z M46.7,4.2C46.8,4.2,46.8,4.2,46.7,4.2c0.1,0,0.1,0,0.1,0
	C46.9,4.2,46.8,4.3,46.7,4.2C46.8,4.2,46.8,4.2,46.7,4.2L46.7,4.2z M47.1,4.3C47,4.3,47,4.3,47.1,4.3c0,0.1,0,0.1,0,0.1
	C47.1,4.3,47.1,4.3,47.1,4.3C47.1,4.3,47.1,4.3,47.1,4.3L47.1,4.3z M47,4C47,4,47,4.1,47,4c0,0.1-0.1,0.1,0,0.1
	C47,4.1,47.1,4.1,47,4C47.1,4,47.1,4,47,4L47,4z M46.8,4.4l-0.4,0.1l-0.3,0L46,4.4l-0.5,0v0.1l0.1,0.1L45.5,5
	c0.1,0.1,0.1,0.2,0.2,0.2c0.1,0,0.3,0.1,0.3,0.1c0,0.1,0.1,0.2,0.2,0.4c0.2,0,0.3-0.1,0.3-0.3c0.1-0.1,0.2-0.1,0.3-0.2
	c0.1,0,0.1-0.1,0.1-0.2c0,0,0.2-0.5,0.2-0.5L46.8,4.4z M45.8,4.7C45.8,4.7,45.8,4.8,45.8,4.7c-0.1-0.1-0.1-0.2,0-0.2
	c0.1,0,0.1,0,0.1,0C45.9,4.6,45.9,4.7,45.8,4.7C45.9,4.7,45.9,4.7,45.8,4.7L45.8,4.7z M46.8,4.7C46.8,4.8,46.8,4.7,46.8,4.7
	c-0.1,0-0.2,0-0.2,0c0-0.1,0-0.1,0.1-0.2c0,0,0-0.1,0.1,0C46.8,4.6,46.8,4.6,46.8,4.7L46.8,4.7z M45.9,8.6l0.4-0.1
	c-0.1,0.1-0.3,0.1-0.4,0.2C45.8,8.7,45.9,8.6,45.9,8.6L45.9,8.6z M45.7,14.8C45.7,14.8,45.7,14.8,45.7,14.8c0,0,0.3,0.3,0.4,0.2
	c0,0.1,0.1,0.2,0.1,0.3C46,15.3,45.8,15.1,45.7,14.8C45.7,14.9,45.7,14.8,45.7,14.8L45.7,14.8z M44.9,15c0,0.2,0.1,0.3,0.2,0.3
	c0.2,0,0.3,0,0.3-0.1c0-0.2-0.1-0.4-0.3-0.6c-0.1,0-0.3,0.1-0.2,0.2c0.1,0.1,0.2,0.2,0.2,0.3C45.1,15.2,45,14.9,44.9,15L44.9,15z
	 M42,5.9l0.1-0.3c0,0,0.2-0.2,0.2-0.2l-0.2,0L42,5.5l-0.2,0.3l-0.1,0.2c0,0-0.2-0.1-0.2-0.1c0,0,0,0,0,0.1c0,0,0,0.1,0,0.1
	c0,0-0.1,0.3-0.1,0.4c-0.1-0.1-0.1-0.3-0.1-0.4l0.1-0.1l0,0l0.1-0.2l0.1-0.1c0.1-0.1,0.2-0.2,0.3-0.3c0.1,0,0.2-0.1,0.3-0.1
	c0,0,0-0.2,0-0.2c-0.3,0-0.5,0.1-0.7,0.3l0,0.1c-0.1,0.2-0.2,0.4-0.3,0.6c0,0.3,0.1,0.5,0.2,0.8c0.1,0.1,0.3-0.5,0.3-0.5l0.2,0
	C41.9,6.3,41.8,6.1,42,5.9C42,5.9,42,5.9,42,5.9L42,5.9z M43.3,12.3L44,14l0.1,0l-0.7-1.8L43.3,12.3z M47.5,14.3
	c-0.1-0.1-0.2-0.1-0.2-0.2c0,0.1-0.1-0.3-0.2-0.2c0.1,0.4,0.2,0.8,0.5,1.1c0.2,0,0.2,0,0.2-0.1C47.8,14.7,47.7,14.5,47.5,14.3
	L47.5,14.3z M48.3,13.8c0.1,0.4,0.3,0.8,0.5,1.2c0,0,0.1,0,0.1,0C48.9,15,48.5,13.9,48.3,13.8L48.3,13.8z M52,15.2
	c-0.1-0.1,0-0.1-0.1-0.4c-0.1-0.2-0.1-0.3,0-0.5c0.2,0.3,0.3,0.7,0.4,1.1C52.2,15.3,52.1,15.3,52,15.2L52,15.2z M53,11.5
	c0,0.1,0.1,0.2,0.2,0.2c0.1,0,0-0.1,0-0.1L53,11.5z M49.2,14.4c0,0.2,0.1,0.3,0.2,0.4c0.1,0.1,0.2,0.1,0.4,0.1c-0.1,0-0.1,0-0.2-0.1
	C49.4,14.7,49.3,14.6,49.2,14.4C49.3,14.4,49.2,14.3,49.2,14.4L49.2,14.4z M50.1,13.8c0.2,0.1,0.3,0.3,0.4,0.5
	c0.1,0.2,0.1,0.4,0.1,0.6c0,0-0.1,0-0.1,0c0,0,0,0,0,0c0-0.3-0.1-0.6-0.3-0.9C50.2,13.9,50.1,13.7,50.1,13.8L50.1,13.8z M52.7,14.7
	c0.1,0.2,0.2,0.5,0.3,0.7c0.1,0.1,0,0.2-0.1,0.1C52.8,15.3,52.7,15.1,52.7,14.7C52.6,14.7,52.7,14.6,52.7,14.7L52.7,14.7z
	 M53.9,15.3c0,0.1-0.1,0.2-0.1,0.2c0,0-0.1,0.1-0.1,0.1c0,0-0.1-0.1-0.1-0.1c0.1-0.1,0.2-0.3,0.3-0.4C53.9,14.9,53.9,15.2,53.9,15.3
	L53.9,15.3z M51.2,14.5C51.2,14.5,51.2,14.5,51.2,14.5C51.2,14.5,51.2,14.5,51.2,14.5C51.2,14.5,51.2,14.5,51.2,14.5L51.2,14.5
	L51.2,14.5z M56.3,8.8c-0.5-0.1-1,0.1-1.4,0.4c-0.2,0.2-0.3,0.5-0.3,0.7c0,0,0,0,0,0c0,0,0,0,0,0c-0.1-0.2-0.2-0.3-0.3-0.5
	c-1.5-1.1-2.6,1.4-1.2,2.3c0,0,0.1,0,0.1,0c0,0,0,0,0-0.1c-0.1-0.3,0.9-0.6,0.6,0.4c-0.3,0.9-1.5,0.6-1.8-0.1c0-0.1-0.1-0.5-0.2-0.5
	c-0.2,0-0.2,0.1-0.3,0.2c-0.2,0.3-0.4,0.5-0.6,0.7c-0.9,0-1.3-0.3-1.2-0.9c0.2-0.6,0.4-0.6,0.7,0c0,0.1,0,0.1,0.1,0.1
	c0.8-0.4,1.1-1.8,0.1-2.2c-0.3-0.1-0.6,0-0.8,0.1c-0.1,0-0.1,0.1-0.1,0.2c0,0,0,0,0,0c0-0.2,0.1-0.3,0.1-0.5
	c0.1-0.6-0.2-1.2-0.8-1.5c-0.2-0.1-0.6,0.6-0.7,0.7c-0.1,0.3-0.2,0.7-0.1,1.1c0,0,0,0.1,0,0.1c0,0-0.1-0.1-0.2-0.1
	c-0.5-0.2-1.1,0-1.4,0.5c-0.3,0.6,0.2,1.2,0.6,1.6l0.1,0c0,0,0,0,0,0c0.1,0,0.1,0,0.1-0.1c-0.1-0.2,0.5-1.2,0.7-0.1
	c0.1,0.4,0,0.8-0.4,1c-0.7,0.3-1.2-0.3-1.5-0.8c0-0.1-0.1-0.2-0.2-0.2c0,0,0,0-0.1,0c-0.1,0.2-0.2,0.5-0.3,0.8
	c-0.1,0.4-0.6,0.8-1.1,0.6c-0.3-0.2-0.5-0.4-0.5-0.7c-0.3-0.9,0.6,0,0.6-0.2c0,0.1,0.1,0.2,0.1,0.1c0.9-0.9,0.3-2.7-1-2
	c-0.1,0.1-0.3,0.2-0.3,0.3c0-0.1,0-0.3-0.1-0.4c-0.2-0.7-1-0.9-1.7-0.9l0,0c0,0,0,0,0,0c0,0-0.1,0-0.1,0.1c0,0,0,0,0,0c0,0,0,0,0,0
	c0.5,1.1,1,2.2,1.4,3.4c0,0,0.1,0,0.1,0c0.2,0.3,0.4,0.6,0.6,0.9c0.6,0.5,1.5,0.5,2-0.1c0.1-0.1,0.1-0.2,0.2-0.3c0,0,0.1-0.1,0.1,0
	c0.9,0.9,2,0.5,2.5-0.5c0,0,0.1-0.1,0.2,0c0.3,0.5,0.7,0.9,1.3,1.1c0,0,0.1,0,0.1,0c0.1,0,0.1,0,0.2,0c0,0,0,0,0,0
	c0.1,0,0.1,0,0.2,0c0,0,0,0,0,0c0.1,0,0.2-0.1,0.3-0.1c0.1-0.1,0.2-0.2,0.3-0.3c0,0,0.1-0.1,0.1,0c0.2,0.2,0.4,0.4,0.6,0.6
	c1.3,0.5,1.8-0.3,2.3-1.1c0,0,0.1,0,0.1,0c0.4-1.2,0.9-2.3,1.6-3.3C56.4,8.9,56.4,8.8,56.3,8.8C56.3,8.8,56.3,8.8,56.3,8.8L56.3,8.8
	z M53,11.6C53,11.6,53,11.6,53,11.6C53.1,11.6,53.1,11.6,53,11.6C53.1,11.7,53.1,11.7,53,11.6L53,11.6z M46.2,12.5
	C46.2,12.6,46.2,12.6,46.2,12.5C46.2,12.6,46.2,12.6,46.2,12.5C46.2,12.6,46.2,12.6,46.2,12.5L46.2,12.5c-0.3,0.4-0.7,0.6-1.2,0.7
	c-0.5,0-0.9-0.3-1.1-0.8c-0.4-0.8-0.8-1.6-1.1-2.4c-0.1-0.3-0.4-0.7-0.4-0.9c0,0,0-0.1-0.1-0.1c0,0,0,0,0,0l0,0
	c0.3,0,0.6,0.2,0.8,0.4l0,0c0.1,0.1,0.2,0.2,0.2,0.3c0.1,0.2,0.2,0.3,0.2,0.5c0,0.4,0.1,0.8,0.2,1.1c0-0.1,0-0.2,0-0.4
	c0,0,0-0.1,0-0.1c0,0,0,0,0,0c0,0,0-0.1,0-0.1c0-0.2,0.1-0.4,0.2-0.6c0,0,0,0,0,0c0.1-0.2,0.3-0.3,0.5-0.3c0,0,0,0,0,0
	c0.1,0,0.1,0,0.2,0c0.3,0.1,0.5,0.6,0.2,0.7s-1,0.1-1,0.6c0,0.6,0.4,1.5,0.8,1.6c0.3,0.1,0.6,0,0.8-0.1c0,0,0.1-0.1,0.1-0.1
	c0,0,0.1,0,0.1-0.1c0,0,0.1-0.1,0.1-0.1c0.2-0.2,0.3-0.5,0.4-0.8C46.5,12,46.4,12.3,46.2,12.5L46.2,12.5z M50.7,13.1
	c-0.3,0-0.6-0.1-0.9-0.3c0,0-0.1,0-0.1-0.1c0,0,0,0,0,0c-0.1,0-0.1-0.1-0.2-0.2c-0.1-0.1-0.2-0.3-0.2-0.4c0-0.1-0.1-0.3-0.2-0.4
	c0,0-0.2,0.1-0.3,0.1c-0.2,0.9-1.2,1.1-1.4,0.9c0.3,0,0.7-0.1,0.9-0.3c0.4-0.5,0.4-1.3-0.1-1.8c-0.2-0.2-0.5,0.1-0.6,0.2
	c0,0.1-0.1,0.2-0.2,0.3c0,0-0.2-0.1-0.4-0.6c-0.1-0.5,0-0.7,0.2-0.7c0.1-0.1,0.2-0.1,0.3-0.1c0.2-0.1,0.4,0,0.6,0.1
	c0,0,0.1,0.1,0.1,0.1c0,0,0,0,0,0c0.2,0.1,0.4,0.3,0.5,0.5c-0.1-0.1-0.1-0.3-0.1-0.4c0,0,0,0,0,0c0,0,0,0,0,0
	c-0.2-0.4-0.2-0.8-0.1-1.2C48.6,8.3,48.8,8,49,7.8c0.2,0.1,0.3,0.2,0.4,0.4c0.1,0.4,0.2,0.7,0.2,1.1c0,0.3,0,0.6-0.1,0.8
	c0,0,0.3-0.3,0.5-0.5c0.2-0.2,0.7-0.3,0.9-0.1c0.2,0.3,0.3,0.7,0.1,1c-0.1,0.2-0.2,0.3-0.4,0.4c-0.1-0.3-0.3-0.5-0.6-0.5
	c-0.3,0-0.6,0.2-0.6,0.5c0,0.4,0,0.9,0.3,1.2c0.3,0.4,0.6,0.4,0.9,0.5c0.2,0,0.5,0,0.7-0.1C51.2,12.9,51,13,50.7,13.1z M55.5,9.5
	c-0.4,0.8-0.7,1.6-1.1,2.4c-0.3,0.8-1.4,2.1-2.6,0.4c0.3,0.3,0.7,0.6,1.2,0.6c0.6,0,1.2-0.5,1.3-1.1c0.1-0.5-0.7-1.2-0.7-1.2
	s-0.5-0.8,0.6-0.4c0.2,0.3,0.4,0.7,0.4,1.1c0.2-0.3,0.3-0.6,0.4-0.9c0-0.3,0.3-1.1,0.7-1.1C55.5,9.2,55.7,9.3,55.5,9.5L55.5,9.5z
	 M50.5,6.8c0,0-0.4,0.4-0.5,0.5c-0.1,0.1-0.2,0.1-0.3,0.1c0-0.1,0-0.3,0-0.4c0,0-0.3,0.4-0.4,0.4c0,0-0.1-0.1-0.1,0S49,7.5,49,7.5
	c0.1-0.1,0.2-0.2,0.2-0.3c0,0-0.1,0.1-0.2,0.1c0,0-0.3,0.2-0.3,0.2l-0.2,0.1c0-0.1,0-0.2,0-0.3c0,0-0.2,0-0.2,0.1c0,0,0,0.1,0,0.1
	c-0.1,0.2-0.2,0.4-0.3,0.6c0.3,0,0.6-0.1,0.8-0.1c0,0,0,0,0,0c0-0.1,0.1-0.2,0.1-0.2c0.1,0,0.1,0.1,0.1,0.1c0.4-0.2,0.9-0.4,1.2-0.7
	l0,0C50.4,7,50.4,6.9,50.5,6.8L50.5,6.8z M48.5,10.1c-0.1-0.2-0.3-0.3-0.5-0.3c-0.2-0.1-0.5,0-0.6,0.1c-0.1,0.1-0.1,0.2,0,0.3
	c0,0.1,0.1,0,0.1-0.1c0-0.1,0.6-0.4,0.9-0.1C48.6,10.4,48.5,10.2,48.5,10.1z M49.7,10.3c0.1-0.1,0.3-0.3,0.5-0.3
	c0.2-0.1,0.4-0.1,0.6,0c0.1,0.1,0.1,0.2,0.1,0.3c0,0-0.1,0-0.1,0c-0.3-0.2-0.6-0.2-0.9,0C49.6,10.6,49.6,10.3,49.7,10.3L49.7,10.3z
	 M54.7,8.1c0.1,0,0.3-0.1,0.4-0.1c0.2,0,0.1-0.3,0.1-0.5c0-0.2-0.1-0.3-0.1-0.5c0-0.2-0.1-0.3-0.3-0.3c-0.1,0-0.2,0-0.3,0.1
	c0,0-0.1,0-0.1,0c-0.1,0.1-0.1,0.2-0.1,0.3c0,0,0,0,0,0c0.1,0.2,0.1,0.3,0.1,0.5c0,0.1,0,0.1,0.1,0.2C54.5,8,54.6,8.1,54.7,8.1
	L54.7,8.1z M54.7,7.7c-0.1-0.1-0.1-0.3-0.1-0.4c0,0,0,0,0,0c0-0.1,0-0.1,0-0.2c0,0,0.1,0,0.1,0c0,0,0.1,0,0.1,0
	c0.1,0,0.1,0.1,0.1,0.1c0,0.1,0.1,0.2,0.1,0.2c0,0.1,0,0.1,0.1,0.2c0,0.1,0,0.1,0,0.2c0,0-0.1,0-0.1,0c0,0-0.1,0-0.1,0
	C54.7,7.8,54.7,7.8,54.7,7.7L54.7,7.7z M54.8,8.2c0.4-0.1,0.7-0.1,0.6-0.5c-0.1-0.2-0.1-0.5-0.2-0.7c0-0.1-0.1-0.2-0.3-0.2
	c-0.2,0-0.4,0-0.6,0.1c-0.1,0.1-0.1,0.2-0.1,0.3c0,0.3,0.1,0.5,0.2,0.8C54.5,8.1,54.6,8.2,54.8,8.2c0.1,0,0.1-0.1,0-0.1
	c-0.2,0-0.3-0.5-0.4-0.7c0-0.1-0.2-0.4,0.1-0.4c0.2-0.1,0.3-0.1,0.5,0c0.1,0.2,0.2,0.4,0.2,0.7c0,0.1,0.1,0.2,0.1,0.3
	c0,0.1-0.4,0.1-0.5,0.2C54.7,8.1,54.7,8.2,54.8,8.2L54.8,8.2z M54.7,7.7c0-0.1-0.1-0.2-0.1-0.3c0-0.1-0.1-0.2,0.1-0.3
	c0.1,0,0.2,0.2,0.2,0.3c0,0.1,0,0.2,0.1,0.2C55,7.8,54.8,7.8,54.7,7.7c0-0.1-0.2,0-0.1,0C54.7,7.9,54.9,8,55,7.9c0,0,0,0,0.1,0
	c0-0.1,0.1-0.1,0-0.2c0-0.2-0.1-0.3-0.1-0.5C54.9,7,54.7,7,54.6,7c0,0,0,0-0.1,0c0,0.1-0.1,0.1,0,0.2c0,0.2,0.1,0.3,0.1,0.5
	C54.6,7.8,54.7,7.8,54.7,7.7C54.7,7.8,54.7,7.8,54.7,7.7L54.7,7.7z M54.8,8.8c-0.1,0-0.1-0.1-0.1-0.1l0-0.9c0-0.1,0.1-0.1,0.1-0.1
	c0,0,0,0,0,0l0,0C55,7.7,55,7.7,55,7.8c0,0,0,0,0,0l0,0.9C55,8.7,54.9,8.8,54.8,8.8L54.8,8.8z M54.9,8.7c-0.2,0-0.1-0.4-0.1-0.5
	c0-0.2,0-0.3,0-0.5c0-0.1,0.2,0,0.2,0c0,0,0,0.1,0,0.1c0,0.1,0,0.2,0,0.3C54.9,8.3,55,8.7,54.9,8.7c-0.1,0-0.1,0.1,0,0.1
	c0.3,0,0.2-0.4,0.2-0.6c0-0.2,0.1-0.6-0.2-0.7c-0.3-0.1-0.2,0.4-0.2,0.6c0,0.2-0.1,0.6,0.2,0.7C54.9,8.9,54.9,8.8,54.9,8.7
	C54.9,8.8,54.9,8.7,54.9,8.7L54.9,8.7z M54.7,7.3c-0.1,0-0.1,0-0.2-0.1l-0.2-0.8c0-0.1,0-0.1,0.1-0.1c0,0,0,0,0,0l0,0
	c0.1,0,0.1,0,0.2,0.1l0.2,0.8C54.8,7.2,54.8,7.3,54.7,7.3C54.7,7.3,54.7,7.3,54.7,7.3C54.7,7.3,54.7,7.3,54.7,7.3z M54.7,7.3
	c-0.1,0-0.2-0.3-0.2-0.4c0-0.1-0.1-0.3-0.1-0.4c0-0.1,0.1-0.1,0.2,0c0,0,0,0.1,0,0.1c0,0.1,0.1,0.2,0.1,0.3
	C54.7,6.9,54.8,7.2,54.7,7.3C54.7,7.3,54.7,7.3,54.7,7.3c0,0.1,0,0.1,0,0.1c0.2-0.1,0.1-0.4,0-0.6c-0.1-0.2-0.1-0.5-0.4-0.5
	s-0.1,0.4,0,0.6c0.1,0.2,0.1,0.6,0.4,0.5C54.8,7.4,54.8,7.3,54.7,7.3C54.8,7.3,54.8,7.3,54.7,7.3L54.7,7.3z M52,5.1
	c0-0.1,0.1-0.3,0.1-0.4c0-0.2-0.2-0.2-0.4-0.2s-0.3,0-0.4-0.1c-0.1-0.1-0.3,0-0.4,0.1c0,0.1,0,0.2-0.1,0.3c0,0,0,0.1,0,0.1
	c0,0.1,0.1,0.2,0.2,0.2c0,0,0,0,0,0c0.2,0,0.3,0.1,0.5,0.1c0.1,0,0.1,0,0.2,0C51.9,5.2,52,5.2,52,5.1L52,5.1z M51.7,5
	c-0.1,0-0.3,0-0.4-0.1c0,0,0,0,0,0c-0.1,0-0.1,0-0.1-0.1c0,0,0-0.1,0-0.1c0,0,0-0.1,0-0.1c0,0,0.1-0.1,0.1-0.1c0.1,0,0.1,0,0.2,0
	c0.1,0,0.1,0,0.2,0c0.1,0,0.1,0,0.1,0.1c0,0,0,0.1,0,0.1c0,0,0,0.1,0,0.1C51.8,4.9,51.7,5,51.7,5L51.7,5z M52.1,5.1
	c0.1-0.3,0.2-0.6-0.2-0.7c-0.2,0-0.9-0.2-1,0c-0.1,0.3-0.2,0.7,0.1,0.8c0.2,0.1,0.5,0.1,0.7,0.1C51.9,5.3,52,5.2,52.1,5.1
	C52.1,5,52,5,52,5c-0.1,0.2-0.6,0-0.8,0c-0.1,0-0.2-0.1-0.2-0.2c0,0,0,0,0,0c0-0.1,0-0.4,0.2-0.4c0.2,0,0.4,0,0.6,0.1
	c0.1,0,0.3,0,0.2,0.3c0,0.1,0,0.2-0.1,0.3C52,5.1,52,5.1,52.1,5.1C52.1,5.1,52.1,5.1,52.1,5.1L52.1,5.1z M51.7,4.9
	c-0.1,0-0.3,0-0.4-0.1c-0.1,0-0.1-0.2,0-0.2c0.1,0,0.2,0,0.3,0c0,0,0.2,0,0.2,0.1C51.8,4.8,51.8,4.9,51.7,4.9
	C51.6,4.9,51.6,4.9,51.7,4.9c-0.1,0.1,0,0.1,0,0.1l0,0c0.1,0,0.1,0,0.2-0.1c0-0.1,0.1-0.2,0.1-0.2c-0.1-0.2-0.4-0.2-0.6-0.2
	c-0.1,0-0.2,0-0.2,0.1c0,0.1-0.1,0.2-0.1,0.2C51.1,5,51.5,5,51.7,5C51.8,5,51.8,4.9,51.7,4.9L51.7,4.9z M45.6,8.4
	c0.1-0.1,0.2-0.2,0.3-0.3c0.2-0.1,0-0.3-0.1-0.4s-0.2-0.2-0.3-0.3c-0.1-0.1-0.2-0.2-0.4-0.1l-0.3,0.2c0,0-0.1,0.1-0.1,0.1
	c0,0.1,0,0.2,0.1,0.3c0,0,0,0,0,0c0.1,0.1,0.2,0.2,0.3,0.4c0,0.1,0.1,0.1,0.1,0.1C45.4,8.4,45.5,8.5,45.6,8.4L45.6,8.4z M45.4,8.1
	c-0.1-0.1-0.2-0.2-0.3-0.3c0,0,0,0,0,0c-0.1,0-0.1-0.1,0-0.2c0,0,0,0,0.1-0.1c0,0,0.1,0,0.1-0.1c0.1,0,0.1,0,0.2,0
	c0.1,0.1,0.1,0.1,0.2,0.2c0,0,0.1,0.1,0.1,0.1c0.1,0,0.1,0.1,0.1,0.2c0,0,0,0-0.1,0.1c0,0-0.1,0-0.1,0.1C45.5,8.2,45.4,8.1,45.4,8.1
	L45.4,8.1z M45.7,8.5C45.8,8.4,46,8.2,46.1,8c0-0.1-0.1-0.3-0.2-0.4c-0.1-0.2-0.6-0.8-0.8-0.5c-0.2,0.1-0.3,0.2-0.4,0.4
	c0,0.1,0,0.3,0.2,0.3C45,8.1,45.3,8.6,45.7,8.5C45.7,8.4,45.7,8.4,45.7,8.5C45.7,8.4,45.6,8.3,45.7,8.5c-0.3,0-0.5-0.4-0.6-0.5
	c-0.1-0.1-0.1-0.1-0.2-0.2c-0.2-0.2,0.1-0.3,0.2-0.4c0.3-0.3,0.6,0.1,0.8,0.3C45.9,7.8,46,8,45.9,8.1C45.8,8.2,45.7,8.3,45.7,8.5
	C45.6,8.4,45.6,8.4,45.7,8.5C45.6,8.5,45.6,8.5,45.7,8.5L45.7,8.5z M45.4,8.1c-0.1-0.1-0.2-0.2-0.2-0.3c0,0,0,0,0-0.1
	c-0.1-0.1,0-0.1,0.1-0.2c0.1-0.1,0.3,0.2,0.3,0.2c0,0,0.2,0.2,0.1,0.2C45.6,8.1,45.5,8.1,45.4,8.1C45.4,8,45.4,8,45.4,8.1
	C45.3,8.1,45.3,8.1,45.4,8.1c0.1,0.2,0.2,0.1,0.3,0c0,0,0,0,0-0.1c0-0.1,0-0.1-0.1-0.2c-0.1-0.1-0.2-0.2-0.3-0.3
	c-0.1-0.1-0.3,0-0.4,0.1c0,0,0,0,0,0.1c0,0.1,0,0.1,0.1,0.2c0.1,0.1,0.2,0.2,0.3,0.3C45.4,8.2,45.5,8.1,45.4,8.1L45.4,8.1z
	 M48.4,6.9c-0.1-0.1-0.2-0.2-0.3-0.3c-0.2-0.1-0.3,0-0.4,0.2c-0.1,0.1-0.2,0.2-0.3,0.3c-0.1,0.1-0.2,0.2-0.1,0.4c0,0,0,0,0,0
	c0.1,0.1,0.2,0.2,0.3,0.3c0,0,0.1,0.1,0.1,0.1c0.1,0,0.2,0,0.3-0.1c0,0,0,0,0,0c0.1-0.1,0.2-0.2,0.3-0.3c0,0,0.1-0.1,0.1-0.1
	C48.5,7.1,48.5,7,48.4,6.9L48.4,6.9z M48.1,7.1c-0.1,0.1-0.2,0.2-0.3,0.3c0,0,0,0,0,0c0,0.1-0.1,0.1-0.2,0.1c0,0-0.1,0-0.1-0.1
	c0,0-0.1,0-0.1-0.1c0-0.1,0-0.1,0-0.2c0-0.1,0.1-0.1,0.2-0.2c0,0,0.1-0.1,0.1-0.1c0-0.1,0.1-0.1,0.2-0.1c0,0,0.1,0,0.1,0.1
	c0,0,0.1,0,0.1,0.1C48.2,7,48.2,7.1,48.1,7.1L48.1,7.1z M48.4,6.8c-0.1-0.2-0.3-0.3-0.5-0.4c-0.1,0-0.2,0.1-0.3,0.2
	c-0.2,0.2-0.7,0.6-0.4,0.8C47.4,7.7,47.7,8,48,7.7c0.2-0.2,0.4-0.3,0.5-0.5C48.5,7.1,48.5,6.9,48.4,6.8C48.4,6.8,48.4,6.8,48.4,6.8
	C48.3,6.9,48.3,6.9,48.4,6.8c0.1,0.3-0.3,0.6-0.5,0.7s-0.2,0.3-0.4,0.1c-0.1-0.1-0.1-0.1-0.2-0.2c-0.2-0.2,0.2-0.6,0.3-0.7
	c0.1-0.1,0.3-0.2,0.4-0.1C48.2,6.8,48.3,6.8,48.4,6.8C48.4,7,48.5,6.9,48.4,6.8L48.4,6.8z M48.1,7.1c-0.1,0.1-0.1,0.2-0.2,0.3
	c-0.1,0.1-0.1,0.1-0.2,0c-0.1-0.1,0.1-0.3,0.1-0.4c0,0,0.1-0.1,0.1-0.1C48,6.8,48.1,7.1,48.1,7.1c0,0.1,0.1,0.1,0.1,0.1
	c0.1-0.1,0-0.3-0.2-0.4c0,0,0,0-0.1,0c-0.1,0-0.2,0.1-0.2,0.1c-0.1,0.1-0.2,0.2-0.3,0.3c-0.1,0.1,0,0.3,0.2,0.4c0,0,0,0,0.1,0
	c0.1,0,0.1,0,0.2-0.1C48,7.4,48.1,7.3,48.1,7.1C48.2,7.1,48.2,7.1,48.1,7.1C48.1,7.1,48.1,7.1,48.1,7.1L48.1,7.1z M49.4,5.7
	c-0.1-0.1-0.3-0.2-0.4-0.3c-0.2-0.1-0.3,0.1-0.4,0.2c-0.1,0.1-0.2,0.2-0.3,0.4c-0.1,0.1-0.1,0.3,0,0.4c0,0,0,0,0,0
	c0.1,0.1,0.2,0.1,0.3,0.2c0,0,0.1,0.1,0.1,0.1c0.1,0,0.2,0,0.3-0.1c0,0,0,0,0,0c0.1-0.1,0.2-0.3,0.3-0.4c0-0.1,0.1-0.1,0.1-0.2
	C49.5,5.9,49.5,5.7,49.4,5.7L49.4,5.7z M49.2,5.9c-0.1,0.1-0.1,0.2-0.2,0.3c0,0,0,0,0,0c0,0.1-0.1,0.1-0.2,0.1c0,0-0.1,0-0.1-0.1
	c0,0-0.1,0-0.1-0.1c0,0,0-0.1,0-0.2c0-0.1,0.1-0.1,0.1-0.2c0-0.1,0.1-0.1,0.1-0.2c0-0.1,0.1-0.1,0.2-0.1c0,0,0.1,0,0.1,0.1
	c0,0,0.1,0,0.1,0.1C49.2,5.8,49.2,5.9,49.2,5.9L49.2,5.9z M49.4,5.6c-0.3-0.2-0.5-0.5-0.8-0.1c-0.1,0.2-0.3,0.3-0.4,0.5
	c-0.1,0.1-0.1,0.2,0,0.4c0.2,0.2,0.6,0.5,0.8,0.2c0.2-0.2,0.3-0.4,0.4-0.6C49.6,5.8,49.5,5.7,49.4,5.6C49.4,5.6,49.3,5.6,49.4,5.6
	c0.1,0.3-0.3,0.6-0.4,0.7c-0.1,0.2-0.2,0.2-0.4,0.2c0,0-0.1,0-0.1,0c-0.1-0.1-0.3-0.2-0.3-0.4c0.1-0.2,0.2-0.3,0.3-0.5
	c0.1-0.1,0.2-0.3,0.4-0.1C49.2,5.6,49.3,5.6,49.4,5.6C49.4,5.7,49.5,5.7,49.4,5.6z M49.1,5.9C49,6,48.9,6.4,48.7,6.3
	c-0.2-0.1,0-0.3,0.1-0.4c0,0,0.1-0.1,0.1-0.1C49,5.6,49.1,5.9,49.1,5.9c0,0.1,0.1,0.1,0.1,0c0-0.2-0.1-0.3-0.2-0.3c0,0,0,0-0.1,0
	c-0.1,0-0.2,0.1-0.2,0.2c-0.1,0.1-0.2,0.2-0.2,0.3c0,0.2,0.1,0.3,0.2,0.3c0,0,0,0,0.1,0c0.1,0,0.1-0.1,0.2-0.1
	c0.1-0.1,0.2-0.2,0.2-0.4C49.2,5.9,49.2,5.9,49.1,5.9C49.1,5.9,49.1,5.9,49.1,5.9z M48.8,6.2c0.1,0,0.1,0.1,0,0.2c0,0,0,0,0,0
	L48.2,7C48.1,7,48,7,48,7l0,0c-0.1,0-0.1-0.1,0-0.2c0,0,0,0,0,0l0.6-0.6C48.6,6.1,48.7,6.1,48.8,6.2L48.8,6.2L48.8,6.2z M48.7,6.2
	c0.1,0.1-0.2,0.3-0.2,0.4c-0.1,0.1-0.2,0.2-0.3,0.3C48.1,7,48,6.9,48.1,6.8l0.1-0.1c0.1-0.1,0.1-0.1,0.2-0.2S48.6,6.2,48.7,6.2
	C48.8,6.3,48.9,6.2,48.7,6.2c-0.1-0.2-0.3,0.1-0.5,0.2c-0.1,0.1-0.5,0.4-0.3,0.6c0.2,0.2,0.4-0.2,0.5-0.3C48.6,6.6,49,6.4,48.7,6.2
	C48.8,6.1,48.8,6.1,48.7,6.2C48.7,6.2,48.7,6.2,48.7,6.2L48.7,6.2z M46.9,4.8c0.2,0.4,0,0.8-0.3,0.9c-0.4,0.2-0.8,0-0.9-0.3
	c-0.1-0.2-0.1-0.5,0.1-0.7l-0.2-0.2c-0.4,0.4-0.3,1.1,0.1,1.5C46,6.3,46.7,6.3,47,5.8c0.2-0.2,0.3-0.4,0.3-0.7
	c0-0.2-0.1-0.4-0.2-0.6L46.9,4.8z M46.8,4.8c0.1,0.3,0,0.7-0.3,0.9c0,0-0.1,0-0.2,0c-0.6,0.1-0.9-0.6-0.6-1c0,0,0-0.1,0-0.1
	c-0.1-0.1-0.1-0.2-0.2-0.2c0,0-0.1,0-0.1,0c0,0,0,0,0,0C45,4.9,45.1,5.6,45.6,6c0.2,0.1,0.4,0.2,0.6,0.2c1,0.2,1.5-1,1-1.7
	c0,0-0.1,0-0.1,0c0,0,0,0,0,0C47,4.6,46.9,4.7,46.8,4.8C46.8,4.8,46.9,4.9,46.8,4.8c0.2,0,0.2-0.1,0.3-0.2c0-0.1,0,0,0,0
	c0.3,0.5,0.1,1.1-0.4,1.3c-0.5,0.3-1.1,0.1-1.3-0.4c-0.2-0.3-0.1-0.7,0.1-1c0-0.1,0-0.1,0,0c0,0.1,0.1,0.1,0.1,0.2
	c-0.1,0.1-0.1,0.2-0.1,0.3c-0.1,0.4,0.2,0.8,0.6,0.9c0.4,0.1,0.8-0.2,0.9-0.6c0-0.2,0-0.3-0.1-0.4C46.9,4.7,46.8,4.8,46.8,4.8
	L46.8,4.8z M45.4,5.9c-0.2,0-0.3-0.1-0.5-0.1c-0.2-0.1-0.3,0.2-0.3,0.4c0,0.2-0.1,0.3-0.1,0.5c-0.1,0.2,0,0.3,0.1,0.4L45,7.3
	c0,0,0.1,0,0.1,0c0.1,0,0.2-0.1,0.2-0.2c0,0,0,0,0,0c0-0.2,0.1-0.4,0.1-0.5c0-0.1,0-0.1,0.1-0.2C45.6,6.2,45.6,6,45.4,5.9L45.4,5.9z
	 M45.3,6.3c0,0.2-0.1,0.3-0.1,0.5c0,0,0,0,0,0c0,0.1-0.1,0.1-0.1,0.1c0,0-0.1,0-0.1,0c0,0-0.1,0-0.1,0c-0.1,0-0.1-0.1-0.1-0.2
	c0-0.1,0-0.2,0.1-0.3c0-0.1,0-0.1,0.1-0.2c0-0.1,0.1-0.1,0.1-0.2c0,0,0.1,0,0.1,0c0,0,0.1,0,0.1,0C45.3,6.2,45.3,6.3,45.3,6.3
	L45.3,6.3z M45.5,5.9c-0.4-0.1-0.7-0.3-0.9,0.2c-0.1,0.2-0.1,0.5-0.2,0.7c0,0.1,0,0.3,0.1,0.4c0.2,0.1,0.4,0.2,0.6,0.2
	c0.1,0,0.3-0.1,0.3-0.3c0.1-0.3,0.2-0.6,0.2-0.9C45.7,6.1,45.6,6,45.5,5.9c-0.1,0-0.1,0.1,0,0.1c0.3,0.1,0,0.8-0.1,1
	c0,0.2-0.2,0.2-0.4,0.1c-0.2,0-0.3-0.1-0.4-0.2c0-0.3,0.1-0.5,0.2-0.8c0.1-0.4,0.4-0.2,0.7-0.2C45.5,6,45.5,5.9,45.5,5.9L45.5,5.9z
	 M45.2,6.3c0,0.1-0.1,0.3-0.1,0.4c0,0,0,0.1,0,0.1c-0.1,0.2-0.3,0-0.3-0.1c0-0.1,0-0.2,0.1-0.3c0-0.1,0-0.1,0-0.1
	C45,6.1,45.2,6.3,45.2,6.3c0,0.1,0.1,0.1,0.1,0C45.4,6.2,45.2,6,45,6c0,0-0.1,0-0.1,0c-0.1,0-0.1,0.1-0.1,0.2
	c-0.1,0.2-0.1,0.3-0.1,0.5C44.7,6.9,44.9,7,45,7c0,0,0.1,0,0.1,0c0.1,0,0.1-0.1,0.1-0.2c0.1-0.2,0.1-0.3,0.1-0.5
	C45.4,6.3,45.3,6.3,45.2,6.3L45.2,6.3z M45.3,7.6c-0.1,0-0.1,0-0.2,0l-0.3-0.7c0-0.1,0-0.1,0.1-0.1l0,0c0.1,0,0.1,0,0.2,0l0.3,0.7
	C45.4,7.6,45.3,7.6,45.3,7.6L45.3,7.6L45.3,7.6z M45.3,7.6c-0.1,0-0.2-0.2-0.2-0.3c0-0.1-0.1-0.2-0.1-0.3c0-0.1,0.1-0.1,0.1-0.1
	c0,0,0,0.1,0,0.1c0,0.1,0.1,0.1,0.1,0.2C45.2,7.3,45.4,7.5,45.3,7.6c-0.1,0,0,0.1,0.1,0.1c0.2-0.1,0-0.4,0-0.6
	c-0.1-0.2-0.1-0.5-0.4-0.4s0,0.4,0,0.5C45,7.5,45,7.8,45.3,7.7C45.4,7.7,45.3,7.6,45.3,7.6L45.3,7.6z M45.7,5.4c0.1,0,0.1,0.1,0,0.2
	l-0.5,0.7c0,0.1-0.1,0.1-0.2,0l0,0c-0.1,0-0.1-0.1,0-0.2c0,0,0,0,0,0l0.5-0.7C45.6,5.4,45.7,5.3,45.7,5.4L45.7,5.4L45.7,5.4z
	 M45.7,5.4c0.1,0.1-0.1,0.3-0.2,0.4l-0.3,0.4c-0.1,0.1-0.2-0.1-0.1-0.1c0,0,0-0.1,0.1-0.1l0.2-0.2C45.4,5.7,45.5,5.4,45.7,5.4
	c0.1,0,0.1-0.1,0.1-0.1c-0.3-0.1-0.4,0.3-0.5,0.4c-0.1,0.1-0.4,0.5-0.2,0.6c0.2,0.1,0.4-0.2,0.5-0.4C45.7,5.8,46,5.5,45.7,5.4
	C45.7,5.3,45.6,5.4,45.7,5.4L45.7,5.4z M47.3,8c-0.1-0.1-0.1-0.2-0.2-0.4c-0.1-0.2-0.3,0-0.4,0c-0.1,0.1-0.3,0.1-0.4,0.2
	c-0.1,0-0.2,0.2-0.2,0.3c0,0.1,0.1,0.2,0.1,0.3c0,0,0,0.1,0.1,0.1c0.1,0.1,0.2,0.1,0.3,0c0,0,0,0,0,0c0.1-0.1,0.3-0.2,0.4-0.2
	l0.2-0.1C47.3,8.2,47.3,8.1,47.3,8L47.3,8z M47,8.1c-0.1,0.1-0.2,0.1-0.4,0.2c0,0,0,0,0,0c0,0-0.1,0-0.2,0c0,0,0-0.1,0-0.1
	c0,0,0-0.1,0-0.1c0-0.1,0-0.1,0.1-0.1c0.1,0,0.1-0.1,0.2-0.1c0.1,0,0.1-0.1,0.2-0.1c0,0,0.1,0,0.2,0c0,0,0,0,0,0.1c0,0,0,0.1,0,0.1
	C47.1,8,47,8.1,47,8.1L47,8.1z M47.4,7.9c-0.1-0.3-0.2-0.6-0.6-0.4c-0.2,0.1-0.4,0.2-0.6,0.3C46.1,7.9,46,8,46,8.2
	c0,0.2,0.1,0.3,0.2,0.5c0.1,0.1,0.2,0.1,0.3,0c0.2-0.1,0.4-0.2,0.6-0.3C47.3,8.2,47.4,8.1,47.4,7.9c0-0.1-0.1,0-0.1,0
	c0.1,0.2-0.4,0.4-0.5,0.5c-0.1,0.1-0.2,0.1-0.3,0.1c-0.1,0-0.2-0.3-0.3-0.3c-0.1-0.3,0.4-0.5,0.6-0.6c0.1-0.1,0.2-0.2,0.3,0
	c0,0.1,0.1,0.2,0.1,0.3C47.3,8.1,47.4,8,47.4,7.9L47.4,7.9z M46.9,8.1c-0.1,0.1-0.2,0.1-0.3,0.2c-0.1,0.1-0.3,0-0.2-0.2
	c0.1-0.1,0.2-0.1,0.3-0.2c0,0,0.1,0,0.1,0C47,7.8,47,8,46.9,8.1C46.9,8.1,47,8.2,46.9,8.1c0.2,0,0.2-0.2,0.1-0.3c0,0,0,0-0.1-0.1
	c-0.1,0-0.1,0-0.2,0c-0.1,0.1-0.3,0.1-0.4,0.2c-0.1,0.1-0.1,0.3,0,0.4c0,0,0,0,0.1,0.1c0.1,0,0.1,0,0.2,0
	C46.8,8.3,46.9,8.2,46.9,8.1C47.1,8.1,47,8,46.9,8.1L46.9,8.1z M46.5,8.2c0,0.1-0.1,0.1-0.1,0.1l-0.7-0.1c-0.1,0-0.1-0.1-0.1-0.2
	l0,0c0-0.1,0.1-0.1,0.1-0.1L46.4,8C46.5,8.1,46.5,8.1,46.5,8.2L46.5,8.2L46.5,8.2z M46.4,8.2c0,0.1-0.3,0-0.4,0l-0.4-0.1
	c-0.1,0,0-0.2,0.1-0.2c0,0,0.1,0,0.1,0c0.1,0,0.2,0,0.3,0C46.1,8.1,46.4,8,46.4,8.2c0,0.1,0.1,0.1,0.1,0c0-0.3-0.3-0.2-0.5-0.3
	c-0.2,0-0.5-0.2-0.6,0.1c-0.1,0.3,0.3,0.3,0.5,0.3c0.2,0,0.5,0.1,0.6-0.1C46.6,8.2,46.5,8.1,46.4,8.2C46.5,8.1,46.4,8.1,46.4,8.2
	L46.4,8.2L46.4,8.2z M47.7,7.3c0,0,0,0.1,0,0.2L47.1,8c-0.1,0-0.1,0-0.2,0l0,0c0,0-0.1-0.1,0-0.2c0,0,0,0,0,0l0.6-0.5
	C47.6,7.3,47.7,7.3,47.7,7.3L47.7,7.3L47.7,7.3z M47.7,7.4c0.1,0.1-0.2,0.3-0.3,0.3c-0.1,0.1-0.2,0.2-0.3,0.3C47,8,47,7.9,47,7.8
	c0,0,0,0,0.1-0.1c0.1-0.1,0.1-0.1,0.2-0.2C47.4,7.5,47.6,7.3,47.7,7.4C47.8,7.4,47.8,7.3,47.7,7.4c-0.1-0.2-0.3,0-0.4,0.1
	c-0.2,0.1-0.5,0.3-0.4,0.5c0.1,0.2,0.4-0.1,0.6-0.2c0.2-0.1,0.5-0.3,0.4-0.5C47.8,7.3,47.7,7.3,47.7,7.4C47.7,7.3,47.7,7.3,47.7,7.4
	L47.7,7.4z M50.7,4.9c-0.1-0.1-0.1-0.3-0.2-0.4c-0.1-0.2-0.3-0.1-0.5,0c-0.1,0.1-0.3,0.1-0.4,0.2c-0.1,0-0.2,0.2-0.2,0.3
	c0,0,0,0,0,0c0.1,0.1,0.1,0.2,0.2,0.3c0,0,0,0.1,0.1,0.1c0.1,0.1,0.2,0.1,0.3,0c0,0,0,0,0,0c0.1-0.1,0.3-0.1,0.4-0.2
	c0.1,0,0.1-0.1,0.2-0.1C50.6,5.1,50.7,5,50.7,4.9L50.7,4.9z M50.3,5c-0.1,0.1-0.2,0.1-0.4,0.2l0,0c-0.1,0-0.1,0-0.2,0
	c0,0,0-0.1,0-0.1c0,0,0-0.1-0.1-0.1c0-0.1,0-0.1,0.1-0.1c0.1,0,0.1-0.1,0.2-0.1c0.1,0,0.1-0.1,0.2-0.1c0.1,0,0.1,0,0.2,0
	c0,0,0,0.1,0,0.1c0,0,0,0.1,0,0.1C50.4,4.9,50.4,5,50.3,5L50.3,5z M50.7,4.8c-0.2-0.3-0.3-0.7-0.6-0.5c-0.2,0.1-0.8,0.3-0.7,0.6
	c0,0.1,0.1,0.2,0.1,0.2c0,0.1,0.1,0.2,0.2,0.3c0.1,0.1,0.2,0.1,0.3,0c0.2-0.1,0.4-0.2,0.6-0.3C50.7,5.2,50.8,5,50.7,4.8
	c0-0.1-0.1,0-0.1,0.1c0.1,0.2-0.5,0.4-0.6,0.5c-0.1,0.1-0.2,0.1-0.3,0c0,0,0,0,0-0.1c-0.1-0.1-0.2-0.3-0.1-0.5
	c0.2-0.1,0.4-0.3,0.6-0.3c0.3-0.2,0.4,0.2,0.5,0.4C50.6,5,50.7,4.9,50.7,4.8L50.7,4.8z M50.3,5c-0.1,0.1-0.4,0.3-0.5,0.1
	s0.2-0.2,0.3-0.3c0,0,0.1-0.1,0.1-0.1C50.3,4.7,50.3,4.9,50.3,5C50.2,5,50.3,5.1,50.3,5c0.2,0,0.2-0.2,0-0.3c0,0,0,0-0.1,0
	c-0.1,0-0.1,0-0.2,0c-0.1,0.1-0.3,0.1-0.4,0.2c-0.1,0.1-0.1,0.3,0,0.4c0,0,0,0,0.1,0c0.1,0,0.1,0,0.2,0c0.1-0.1,0.3-0.1,0.4-0.2
	C50.4,5,50.4,5,50.3,5C50.3,4.9,50.3,4.9,50.3,5L50.3,5z M49.8,5c0.1,0.1,0,0.1,0,0.2l-0.7,0.6c-0.1,0-0.1,0-0.2,0c0,0,0,0,0,0l0,0
	c-0.1-0.1-0.1-0.1,0-0.2c0,0,0,0,0,0L49.6,5C49.7,5,49.8,5,49.8,5L49.8,5L49.8,5z M49.8,5.1c0.1,0.1-0.2,0.3-0.3,0.4
	c-0.1,0.1-0.2,0.2-0.3,0.3C49,5.8,49,5.7,49,5.6c0,0,0.1,0,0.1-0.1c0.1-0.1,0.2-0.1,0.2-0.2S49.7,5,49.8,5.1
	C49.8,5.1,49.9,5,49.8,5.1c-0.1-0.3-0.4,0.1-0.5,0.2c-0.1,0.1-0.5,0.3-0.3,0.6c0.2,0.2,0.5-0.1,0.6-0.2C49.6,5.4,50,5.2,49.9,5
	C49.8,4.9,49.7,5,49.8,5.1L49.8,5.1z M51.3,4.7c0,0.1,0,0.1-0.1,0.2l-0.9,0.1c-0.1,0-0.1-0.1-0.1-0.1l0,0c0-0.1,0-0.1,0.1-0.2
	l0.9-0.1C51.2,4.5,51.3,4.6,51.3,4.7C51.3,4.7,51.3,4.7,51.3,4.7L51.3,4.7L51.3,4.7z M51.2,4.7c0,0.2-0.4,0.1-0.5,0.1
	c-0.1,0-0.3,0-0.4,0c-0.1,0-0.1-0.2,0-0.2c0,0,0.1,0,0.1,0c0.1,0,0.2,0,0.3,0C50.8,4.6,51.2,4.5,51.2,4.7
	C51.2,4.7,51.3,4.7,51.2,4.7c0.1,0,0.1,0,0.1,0c-0.1-0.3-0.4-0.1-0.6-0.1c-0.2,0-0.6,0-0.6,0.3c0,0.3,0.5,0.2,0.6,0.1
	c0.2,0,0.6,0,0.6-0.3C51.3,4.6,51.2,4.6,51.2,4.7L51.2,4.7z M52.5,5.2C52.5,5.2,52.5,5.2,52.5,5.2C52.5,5.2,52.5,5.2,52.5,5.2
	c0.1-0.1,0.1-0.1,0.1-0.2l-0.6-0.3c-0.1,0-0.1,0-0.2,0.1c0,0.1,0,0.1,0,0.2l0.5,0.3C52.4,5.2,52.4,5.2,52.5,5.2L52.5,5.2z M52.5,5.3
	c0.1,0,0.2,0,0.2-0.2c0-0.1-0.1-0.1-0.1-0.2c-0.2-0.1-0.4-0.2-0.6-0.3c-0.1,0-0.2,0.1-0.2,0.2c0,0.1,0,0.2,0.1,0.2
	c0.1,0.1,0.2,0.1,0.4,0.2C52.3,5.3,52.4,5.3,52.5,5.3C52.5,5.3,52.5,5.2,52.5,5.3c0.1-0.1,0-0.1,0-0.1c-0.1,0-0.1,0-0.2,0
	c-0.1,0-0.1-0.1-0.2-0.1C52,5,52,5,51.9,4.9c0,0,0,0-0.1,0c-0.1,0,0-0.2,0.1-0.1C52,4.8,52.1,4.9,52.3,5c0.1,0,0.1,0.1,0.2,0.1
	c0.1,0,0.1,0.1,0,0.1C52.4,5.2,52.4,5.3,52.5,5.3L52.5,5.3z M50.7,15.3C50.7,15.3,50.7,15.3,50.7,15.3c-0.2,0-0.2-0.1-0.3-0.1
	c-0.1,0-0.2-0.1-0.2-0.1l-0.1,0c-0.2,0.1-0.4,0.1-0.6,0.1c-0.2,0-0.5-0.1-0.6-0.3c-0.2-0.5-0.4-1.1-0.4-1.1l0,0l0,0
	c0.1-0.2,0.2-0.4,0.5-0.4c0.2,0,0.4,0.1,0.5,0.3c0,0,0,0,0,0l0,0c0-0.1,0.1-0.2,0.2-0.2c0.1,0,0.1,0,0.2,0c0.4,0,0.9,0.7,0.9,1.2
	l0,0.1c0.1,0.2,0.1,0.4,0,0.5C50.8,15.3,50.8,15.3,50.7,15.3L50.7,15.3L50.7,15.3z M50.2,15c0.1,0,0.2,0,0.3,0.1
	c0.1,0,0.1,0.1,0.2,0.1c0,0,0,0,0,0v0.1l0-0.1c0-0.1-0.1-0.2-0.1-0.4l0-0.1c-0.1-0.5-0.6-1.2-0.8-1c-0.1,0-0.1,0.1-0.1,0.1
	c0,0.1,0,0.3,0.1,0.4c0.1,0.1,0.2,0.3,0.3,0.5v0.1l-0.1,0c-0.1,0-0.1,0-0.2-0.1c-0.1,0-0.1-0.1-0.1-0.2c0,0-0.2-0.4-0.4-0.7
	c-0.1-0.1-0.2-0.2-0.4-0.2c-0.1,0-0.2,0.1-0.3,0.2c0.1,0.1,0.3,0.7,0.4,1.1c0.1,0.2,0.2,0.2,0.4,0.2c0.2,0,0.4,0,0.6-0.1L50.2,15
	C50.2,15,50.2,15,50.2,15L50.2,15L50.2,15z M44.3,15.9c-0.3,0-0.6-0.1-0.8-0.4c-0.2-0.4-0.2-0.8,0-1.2c0.2-0.3,0.6-0.5,1-0.4
	c0.1,0,0.3,0,0.4,0c0.1,0,0.1,0,0.4,0.7c0.1,0.2,0.2,0.4,0.3,0.6c0,0,0.1,0.1,0,0.1c-0.1,0.2-0.4,0.4-0.6,0.4c-0.1,0-0.2,0-0.3-0.1
	c-0.1,0.1-0.2,0.2-0.3,0.2C44.5,15.9,44.4,15.9,44.3,15.9L44.3,15.9L44.3,15.9z M44.6,14.1c-0.3,0-0.7,0.1-0.9,0.3
	c-0.2,0.3-0.2,0.7-0.1,1c0.2,0.3,0.5,0.4,0.9,0.3c0.1,0,0.1,0,0.2-0.1l0,0c0-0.1-0.1-0.3-0.2-0.4c0,0,0-0.1-0.1-0.1
	c-0.1-0.1-0.2-0.2-0.3-0.3c0,0,0-0.1,0-0.1c0,0,0.1,0,0.1,0c0.1,0,0.2,0.1,0.3,0.3l0,0c0,0,0,0,0,0.1l0,0l0.1,0.1
	c0.1,0.2,0.2,0.3,0.4,0.4c0.2,0,0.4-0.1,0.5-0.3c-0.1-0.2-0.3-0.4-0.3-0.6c-0.1-0.2-0.2-0.5-0.3-0.6C44.9,14.1,44.7,14.1,44.6,14.1
	L44.6,14.1L44.6,14.1z M48.7,15.4c-0.1,0-0.1,0-0.2,0c-0.1-0.1-0.1-0.1-0.2-0.2c0,0.2-0.2,0.3-0.4,0.2c0,0,0,0,0,0
	c-0.2,0-0.5-0.1-0.6-0.3c-0.3-0.4-0.5-0.8-0.6-1.3l0-0.1l0.1,0c0.3-0.2,0.6-0.3,1-0.3c0.3,0,0.6,0.1,0.8,0.3l0,0
	c0.2,0.5,0.5,1.2,0.5,1.3c0,0,0,0.1,0,0.1C49.1,15.3,48.9,15.4,48.7,15.4L48.7,15.4L48.7,15.4z M48,14.1L48,14.1L48,14.1
	c0.1,0.1,0.2,0.2,0.2,0.2c0.1,0.3,0.3,0.6,0.5,0.8c0.1,0,0.2,0,0.3-0.1c-0.2-0.4-0.4-0.8-0.5-1.3c-0.2-0.1-0.4-0.2-0.7-0.2
	c-0.3,0-0.5,0.1-0.8,0.2c0.1,0.4,0.3,0.8,0.5,1.2c0.1,0.1,0.3,0.2,0.5,0.2c0.1,0,0.1,0,0.2-0.1c0-0.2-0.1-0.4-0.3-0.6
	c-0.1-0.1-0.1-0.2-0.1-0.3C47.9,14.2,47.9,14.1,48,14.1L48,14.1L48,14.1z M52.3,15.7c-0.1,0-0.3,0-0.4-0.1c0,0-0.1-0.1-0.1-0.1
	c0,0,0,0,0,0l0,0l-0.1,0c0,0-0.9-0.1-1-0.4l0-0.1c0-0.4-0.1-0.8-0.3-1.2l0-0.2c0.2,0,0.5-0.1,0.7-0.1c0.6,0,1,0.1,1.2,0.4
	c0.1,0.5,0.2,0.9,0.4,1.4c0,0,0,0.1,0,0.1C52.6,15.7,52.5,15.8,52.3,15.7L52.3,15.7L52.3,15.7z M51.4,14.4c0.1,0,0.2,0,0.3,0.1
	l0.1,0l0,0.1c0,0.3,0.1,0.7,0.3,1c0.2,0.1,0.4,0.1,0.6,0c-0.2-0.5-0.3-0.9-0.4-1.4c-0.3-0.2-0.7-0.3-1-0.3c-0.2,0-0.4,0-0.5,0
	c0.1,0.4,0.2,0.8,0.3,1.1l0,0.1c0.2,0.1,0.4,0.2,0.7,0.2c0,0,0-0.1,0-0.2c0-0.1,0-0.2,0-0.3c0-0.1,0-0.1-0.1-0.1
	c-0.1,0-0.2-0.1-0.2-0.2c0,0-0.1-0.1,0-0.2C51.3,14.4,51.3,14.4,51.4,14.4L51.4,14.4L51.4,14.4z M53.5,16.2c-0.1,0-0.1,0-0.2,0
	c-0.3-0.1-0.8-0.3-0.8-0.6c0-0.2-0.1-0.4-0.2-0.6c-0.2-0.6-0.3-0.9-0.2-1l0,0c0.3,0,0.6,0.1,0.8,0.3c0.1,0,0.1,0,0.2,0
	c0.5,0,1,0.4,1,0.9c0,0,0,0,0,0C54.2,15.8,53.9,16.2,53.5,16.2L53.5,16.2L53.5,16.2z M52.3,14.1c0.1,0.3,0.1,0.5,0.2,0.7
	c0.1,0.2,0.2,0.5,0.2,0.7c0,0.1,0.1,0.2,0.6,0.4c0.3,0.1,0.6-0.2,0.6-0.9c0-0.7-0.7-0.8-0.9-0.7c0,0,0,0,0,0
	c0.1,0.1,0.1,0.2,0.1,0.4l0,0.1c0,0.1,0.1,0.2,0.1,0.3c0,0,0,0.1,0,0.1l0,0h-0.1c-0.1,0-0.1,0-0.2-0.3c0-0.1,0-0.1,0-0.2
	c0-0.1-0.1-0.2-0.1-0.4C52.8,14.2,52.6,14.1,52.3,14.1L52.3,14.1L52.3,14.1z M46,15.5c-0.2,0-0.4-0.1-0.5-0.3
	c-0.2-0.5-0.5-1.1-0.5-1.1l0,0l0,0c0-0.2,0.2-0.4,0.4-0.4c0.2,0,0.3,0.1,0.5,0.2c0,0,0,0,0,0c0,0,0,0,0,0c0-0.1,0.1-0.2,0.2-0.3
	c0.1,0,0.1-0.1,0.2-0.1c0.4,0,0.9,0.6,1,1.1l0,0.1c0.1,0.4,0.1,0.5,0,0.5c0,0-0.1,0.1-0.1,0.1c0,0,0,0-0.1,0c-0.1,0-0.1,0-0.2-0.1
	c-0.1,0-0.2,0-0.2,0l-0.1,0C46.4,15.4,46.2,15.5,46,15.5L46,15.5L46,15.5z M45.2,14.1c0.1,0.1,0.3,0.6,0.5,1
	c0.1,0.1,0.2,0.2,0.3,0.2c0.2,0,0.4-0.1,0.6-0.2l0.1,0c0.1,0,0.2,0,0.4,0c0.1,0,0.1,0,0.2,0h0c0-0.1,0-0.2-0.1-0.4l0-0.1
	c-0.1-0.6-0.7-1.1-0.9-0.9c0,0-0.1,0.1-0.1,0.1c0,0.2,0,0.3,0.1,0.4c0.1,0.1,0.3,0.3,0.3,0.5l0,0l-0.1,0.1l-0.1,0
	c-0.1,0-0.2-0.1-0.3-0.2c0,0-0.2-0.4-0.4-0.7c-0.1-0.1-0.2-0.1-0.3-0.1C45.3,13.9,45.2,14,45.2,14.1L45.2,14.1L45.2,14.1z M25,1.2
	v0.9c0.2,0,0.4,0,0.6,0c3.3,0,6,2.6,6,5.9c0,0,0,0,0,0v21.7L9.8,1.2H0v0.9c0.2,0,0.4,0,0.6,0c3.1,0,5.9,2.3,6.3,5.2v24.3
	c0,3.3-3,5.9-6.3,5.9c-0.2,0-0.4,0-0.6,0v0.9h14.6v-0.9c-0.2,0-0.3,0-0.5,0c-3.3,0-6-2.6-6-5.9c0,0,0,0,0,0V6.3l24,32.7h1
	c0,0,0-30.8,0-31c0-3.3,2.7-5.9,6-5.9c0.2,0,0.3,0,0.5,0V1.2H25z M48.9,18.6c-4.3,0-7.9,4.4-7.9,9.9s3.5,9.9,7.9,9.9
	s7.9-4.4,7.9-9.9S53.2,18.6,48.9,18.6L48.9,18.6z M48.8,37.7c-3.7,0-4.5-4.1-4.5-9.2s0.9-9,4.5-9.2c3.6,0,4.5,4.1,4.5,9.2
	S52.5,37.7,48.8,37.7L48.8,37.7z M74.5,37.8c-1.2,0-2.3-0.9-2.3-2.2c0,0,0,0,0,0l0-34.3h-1.3c-2.2,2.4-6.1,3.9-10.5,3.9
	c-0.6,0-1.7-0.1-1.7-0.1v1.5c0,0,0.6,0,0.9,0c5.6,0,7.8,1.5,7.8,5.8l0,23.1c0,1.2-1,2.2-2.3,2.2c0,0,0,0,0,0l-6.3,0.1v1h21v-1.1
	L74.5,37.8z"/>
</svg>
