<svg id="Layer_1" data-name="Layer 1" xmlns="http://www.w3.org/2000/svg" viewBox="0 0 101.69836 40"><defs><style>.cls-1{fill:#a87e3b;}</style></defs><title>productlogo-1872</title><path class="cls-1" d="M16.2204,36.5907a1.35213,1.35213,0,0,1-1.42023-1.34161L14.79279,0.67316H12.3645l-0.24408.2663C10.04761,3.20135,6.45209,4.55194,2.5025,4.55194c-0.53442,0-1.61182-.07709-1.62268-0.07776L0,4.41107v3.2605l0.85675-.03723C0.8623,7.63409,1.41724,7.61,1.688,7.61c2.63373,0,4.3349.35138,5.35358,1.10565C8.016,9.43726,8.4505,10.60327,8.4505,12.49622L8.43683,35.24927a1.35535,1.35535,0,0,1-1.4317,1.34143l-6.96777.09784v2.63831H22.04053v-2.707l-5.816-.02917H16.2204ZM42.16052,17.77216c0.06281-.105.12451-0.21082,0.18414-0.31824A9.375,9.375,0,0,0,46.84729,9.56c0-5.27991-4.62494-9.56-10.33008-9.56a10.6676,10.6676,0,0,0-7.8374,3.3324,11.4512,11.4512,0,0,0-3.40161,8.31842A11.03582,11.03582,0,0,0,30.347,21.23175c-3.74176,1.66412-6.29529,4.98651-6.29529,8.816C24.05176,35.54407,29.30988,40,35.79608,40a12.78236,12.78236,0,0,0,8.54779-3.12805,11.50777,11.50777,0,0,0,3.973-8.86218A11.10589,11.10589,0,0,0,42.16052,17.77216ZM29.8913,9.2973a6.29849,6.29849,0,0,1,12.586,0c0,2.706-.80573,4.86725-3.9046,6.85352-0.51471.32977-1.27979-.36121-2.38837-0.81775C32.99969,14.02106,29.8913,12.6308,29.8913,9.2973ZM36.39453,36.447a7.1019,7.1019,0,0,1-7.36261-6.80878c0-3.05249.94269-5.49048,4.5683-7.7312,0.60217-.37213,1.49725.40729,2.79431,0.92273,3.726,1.48,7.36267,3.04828,7.36267,6.80847A7.10188,7.10188,0,0,1,36.39453,36.447ZM51.21838,14.32874l3.12231,0.00562A22.8995,22.8995,0,0,1,55.6,8.27917c1.017-2.40674,2.73022-2.11865,2.73022-2.11865L70.37164,6.19775s-1.44952,2.23071-4.40009,7.93579c-5.73077,11.0813-6.2915,14.85712-6.53955,16.265-0.24695,1.402-.32715,5.41321.3504,6.93848l0.00214,0.00513,0.00635,0.01538,0.00024-.00024a3.5602,3.5602,0,0,0,3.20184,2.3399c1.96667,0,3.561-1.86371,3.561-4.1629,0-.35608.14655-4.4895,0.14655-4.4895C66.63574,11.59552,76.84235.53876,76.84235,0.53876H53.3537ZM99.32092,25.72644l-0.038.52637c-0.00262.03632-.26642,3.66443-0.58282,5.89069a1.68711,1.68711,0,0,1-1.77081,1.6496l-0.02271-.002-0.02283.00024c-0.12579.00043-12.208,0.0481-14.14618,0.00488,0.16351-.4071.85712-1.57294,3.7746-4.51227,2.13593-2.15186,4.35565-4.13391,4.99817-4.63885,1.1524-.90582,4.72052-3.41687,5.12354-3.70032l0.08295-.06262a11.47649,11.47649,0,0,0,4.61816-9.22485A10.34277,10.34277,0,0,0,97.88,3.82642,12.33477,12.33477,0,0,0,89.61694.842a12.782,12.782,0,0,0-9.49683,3.96033,8.70252,8.70252,0,0,0-2.2179,6.91394A6.32333,6.32333,0,0,0,79.73,15.4964a4.79108,4.79108,0,0,0,3.04224,1.38776,3.9434,3.9434,0,0,0,2.81659-1.12524,3.31882,3.31882,0,0,0,1.00037-2.35443,3.35369,3.35369,0,0,0-1.08722-2.4743A3.84059,3.84059,0,0,0,82.86578,9.9259h-0.014A3.36112,3.36112,0,0,1,82.323,9.86261a1.2798,1.2798,0,0,1-1.32709-1.46753c0.18848-2.17194,3.5531-5.43079,7.63141-5.31226a6.09141,6.09141,0,0,1,4.57959,1.72046c1.39557,1.50055,2.03143,4.14954,1.88983,7.873-0.17657,4.64685-2.1756,6.57788-2.9281,7.30475-0.13422.1297-.33118,0.31757-0.5788,0.55377a119.71866,119.71866,0,0,0-9.17761,9.49426A23.8644,23.8644,0,0,0,78.541,36.39038l-0.02856.084v2.68378h22.13684l1.04907-13.27234Z"/></svg>