<?xml version="1.0" encoding="utf-8"?>
<!-- Generator: Adobe Illustrator 18.0.0, SVG Export Plug-In . SVG Version: 6.00 Build 0)  -->
<!DOCTYPE svg PUBLIC "-//W3C//DTD SVG 1.1//EN" "http://www.w3.org/Graphics/SVG/1.1/DTD/svg11.dtd">
<svg version="1.1" id="Isolation_Mode" xmlns="http://www.w3.org/2000/svg" xmlns:xlink="http://www.w3.org/1999/xlink" x="0px"
	 y="0px" width="540.6px" height="492.6px" viewBox="142.4 264.5 540.6 492.6" enable-background="new 142.4 264.5 540.6 492.6"
	 xml:space="preserve">
<path fill="#FFFFFF" stroke="#FFFFFF" stroke-width="12" stroke-miterlimit="10" d="M346.8,421.8c0-36.4,29.6-66,66-66
	s66,29.6,66,66c0,36.4-29.6,66-66,66C376.4,487.8,346.8,458.2,346.8,421.8z M372.4,421.8c0,22.2,18.2,40.4,40.4,40.4
	c22.2,0,40.4-18.2,40.4-40.4c0-22.2-18.2-40.4-40.4-40.4C390.5,381.4,372.4,399.6,372.4,421.8z M532,665.6
	c6.7-0.7,12.1-7.4,11.4-14.1C533.3,559.9,488.2,512,412.8,512c-74.8,0-119.9,48.5-130.7,139.4c-0.7,6.7,4,13.5,11.4,14.1
	c6.7,0.7,13.5-4,14.1-11.5c8.8-77.5,44.5-117.2,105.1-117.2c61.3,0,96.3,39.1,105.1,117.2c0.7,6.7,6.1,11.5,12.8,11.5
	C531.3,666.3,531.3,665.6,532,665.6z"/>
</svg>
