<?xml version="1.0" encoding="utf-8"?>
<!-- Generator: Adobe Illustrator 19.1.0, SVG Export Plug-In . SVG Version: 6.00 Build 0)  -->
<svg version="1.0" id="Layer_1" xmlns="http://www.w3.org/2000/svg" xmlns:xlink="http://www.w3.org/1999/xlink" x="0px" y="0px"
	 viewBox="261 -235 574 507" style="enable-background:new 261 -235 574 507;" xml:space="preserve">
<style type="text/css">
	.st0{fill:#112D46;}
	.st1{fill:#EA602C;}
	.st2{opacity:0.5;}
	.st3{fill:#E0421A;}
	.st4{clip-path:url(#SVGID_2_);}
	.st5{clip-path:url(#SVGID_4_);}
	.st6{fill:#17C167;}
	.st7{fill:#FAC78D;}
	.st8{fill:#EDB47C;}
	.st9{clip-path:url(#SVGID_6_);}
	.st10{fill:#FFFFFF;}
	.st11{fill:#FBC353;}
	.st12{fill:#FBBC30;}
	.st13{fill:#F6A733;}
	.st14{opacity:0.25;}
	.st15{fill:#F69B3A;}
	.st16{fill:#C66D24;}
	.st17{fill:#C97528;}
	.st18{fill:#C17734;}
	.st19{opacity:0.2;}
	.st20{fill:#48B4E7;}
	.st21{fill:#418CCB;}
	.st22{fill:#0B1B28;}
	.st23{opacity:0.75;}
	.st24{fill:#EAA434;}
	.st25{fill:#47B3E7;}
</style>
<g>
	<path class="st0" d="M700.0054321,135.6382294c0,4.6748047-3.7891235,8.4643097-8.4639282,8.4643097H310.1274414
		c-4.6748047,0-8.4648132-3.789505-8.4648132-8.4643097l0,0c0-4.675293,3.7900085-8.4648972,8.4648132-8.4648972h381.4140625
		C696.2163086,127.1733322,700.0054321,130.9629364,700.0054321,135.6382294L700.0054321,135.6382294z"/>
</g>
<g>
	<g>
		<g>
			<path class="st0" d="M607.4448242-68.4452515c14.3493652,0,26.0234985,11.6737976,26.0234985,26.0228882v6.2036133
				c0,14.3488464-11.6741333,26.0224915-26.0234985,26.0224915h-20.1650391
				c-14.3482666,0-26.0214844-11.673645-26.0214844-26.0224915v-6.2036133
				c0-14.3490906,11.6732178-26.0228882,26.0214844-26.0228882H607.4448242 M607.4448242-73.4452515h-20.1650391
				c-17.1327515,0-31.0214844,13.8886719-31.0214844,31.0228882v6.2036133
				c0,17.1342773,13.8887329,31.0224915,31.0214844,31.0224915h20.1650391
				c17.1328125,0,31.0234985-13.8882141,31.0234985-31.0224915v-6.2036133
				C638.4683228-59.5565796,624.5776367-73.4452515,607.4448242-73.4452515L607.4448242-73.4452515z"/>
		</g>
		<g>
			<path class="st1" d="M667.1606445,111.8647308V-11.1400633c0-17.1333008-13.8876953-31.0219994-31.0205078-31.0219994
				h-79.6240234c-17.1337891,0-31.0223999,13.8887005-31.0223999,31.0219994v123.0047913H667.1606445z"/>
		</g>
		<g>
			<path class="st1" d="M686.6772461,127.794426c0,9.0225143-7.3143921,16.3369064-16.3378296,16.3369064H520.1343384
				c-9.0215149,0-16.3359985-7.3143921-16.3359985-16.3369064l0,0c0-9.021492,7.3144836-16.3353958,16.3359985-16.3353958
				h150.2050781C679.362854,111.4590302,686.6772461,118.772934,686.6772461,127.794426L686.6772461,127.794426z"/>
		</g>
		<g class="st2">
			<rect x="525.4956055" y="101.6255341" class="st3" width="141.6649933" height="10.2391996"/>
		</g>
	</g>
	<g>
		<defs>
			<path id="SVGID_1_" d="M667.1606445,111.8647308V-11.1400633c0-17.1333008-13.8876953-31.0219994-31.0205078-31.0219994
				h-79.6240234c-17.1337891,0-31.0223999,13.8887005-31.0223999,31.0219994v123.0047913H667.1606445z"/>
		</defs>
		<clipPath id="SVGID_2_">
			<use xlink:href="#SVGID_1_"  style="overflow:visible;"/>
		</clipPath>
		<g class="st4">
			<g>
				<path class="st3" d="M518.1729126,10.4454346c2.4362793-7.3236761,10.798645-22.6500702,18.5827637-10.8835144
					c3.973999,6.0070782,7.2731934,12.3986712,11.4454346,18.294693c3.2437134,4.5839996,7.1064453,9.228941,12.9221191,10.3103085
					c6.3297729,1.1769505,12.8247681-1.9176445,17.2506714-6.33008c2.2192993-2.2124863,3.8441162-4.9719601,5.5799561-7.5630827
					c1.9683228-2.9381943,5.3328857-8.566721,9.1785889-9.349844c4.3028564-0.876224,8.0958862,5.2930703,10.7128296,7.9671607
					c2.2973022,2.3474598,4.9640503,4.751791,7.7855225,6.4484253c5.7763672,3.4734421,10.8461914,1.0567875,15.3080444-3.1911221
					c5.5978394-5.3293962,11.5507202-11.6911964,20.0881348-10.3612871
					c7.1768799,1.1179805,13.6708984,6.434453,21.2490845,4.682415c3.5534058-0.8215351,5.6832275-3.6445241,8.911438-4.9357338
					c3.8950195-1.5579162,8.0117798,1.7735424,11.925354,2.1849637c3.1964722,0.3360381,3.1728516-4.6664438,0-5
					c-3.2606812-0.3427832-5.9708862-2.6519597-9.2893677-2.7940791c-3.3439941-0.1432106-5.9361572,1.7638294-8.5539551,3.5585442
					c-7.6003418,5.210659-14.7929077-0.8899267-22.531189-2.4714158c-6.62677-1.3543196-13.1217041,1.0813501-18.3701172,5.0923405
					c-2.75177,2.1030097-4.9595337,4.7139821-7.515686,7.0233998c-2.4755249,2.2365694-5.5994263,3.7156448-8.6981201,1.8946209
					c-2.0146484-1.1839485-3.9751587-2.9579096-5.6654053-4.5592556
					c-4.2702026-4.0455308-8.4609375-11.5334368-15.3457031-10.624649
					c-6.5969238,0.8707994-11.0546875,8.2562342-14.3939819,13.2594595
					c-5.295105,7.933465-15.1067505,14.8237219-23.2355347,6.0470362
					c-5.3452148-5.7712278-9.3207397-13.2330723-13.2049561-20.0157394
					c-3.2853394-5.736968-8.9035034-11.7666321-16.0349731-8.1973934
					c-6.8803711,3.4436007-10.6179199,11.2573013-12.9223022,18.1846313
					C512.3335571,12.1764517,517.1605835,13.4887152,518.1729126,10.4454346L518.1729126,10.4454346z"/>
			</g>
		</g>
		<g class="st4">
			<g>
				<path class="st3" d="M524.5250854-35.5905952c6.3225708-6.8379021,15.0464478-4.9702797,20.388916,1.6963577
					c4.3982544,5.4883232,7.1390991,12.1394939,11.3275757,17.7967854
					c4.0377808,5.4536943,9.3438721,10.3224449,16.3355713,11.2581863
					c6.0993652,0.8163137,11.2979736-2.2248511,15.935791-5.8551688c6.8278198-5.3446121,13.168396-12.5424118,22.782959-10.2252274
					c8.5259399,2.0547981,14.6334229,7.9860754,23.895874,5.280879c4.6589355-1.3606901,8.7850952-4.088048,13.7059937-4.5644484
					c4.6625977-0.4513874,9.1517334,0.8291473,13.7688599,1.0946236c4.0527344,0.2330303,8.1661987-0.0099258,12.0204468-1.2726803
					c4.6952515-1.5383224,8.5893555-1.8407021,13.5136719-1.3999748c3.2039795,0.2867603,3.1846313-4.7149734,0-5
					c-2.9100342-0.2604485-5.8356323-0.5340729-8.7467041-0.1430378c-4.0740356,0.5472393-7.6201172,2.4144382-11.7826538,2.7283382
					c-7.0535889,0.5319138-13.9586792-1.9228001-21.00177-0.7468987c-3.3553467,0.5602055-6.3864136,2.0178623-9.520813,3.2661419
					c-5.223938,2.0804329-9.6120605,2.1754856-14.8665771-0.1226139c-5.6521606-2.472002-11.2192383-5.4229889-17.6062012-4.4604664
					c-5.600647,0.8440247-10.1787109,4.1378403-14.4296875,7.6652279
					c-4.7182617,3.9151163-10.1044922,9.5484953-16.7773438,8.8058968
					c-12.734436-1.4171743-17.4259644-17.6144104-24.0599365-26.4022121
					c-7.0788574-9.3770905-19.6697998-12.3980408-28.4194946-2.9352417
					C518.8075562-36.7662849,522.3348999-33.221859,524.5250854-35.5905952L524.5250854-35.5905952z"/>
			</g>
		</g>
		<g class="st4">
			<g>
				<path class="st3" d="M520.3028564,69.7486343c2.1971436-8.4137383,3.6439209-16.0281029,10.5571899-22.0117226
					c3.0070801-2.6027603,6.921875-4.8398018,10.8873291-5.5075645c4.8933105-0.8239975,8.9898682,1.7846565,12.5476074,4.8575554
					c9.7157593,8.3917503,19.0152588,24.3701744,34.1893311,21.0534401
					c13.0130615-2.8443832,13.7365112-15.8929634,21.6187134-24.1102257
					c6.2338867-6.4987984,13.8508911-1.2377434,20.1130371,2.3714523
					c5.4443359,3.1378403,12.0953369,5.8441086,18.2525635,3.1457405c3.5654907-1.5625496,6.1798706-4.5398865,9.4770508-6.5196266
					c5.4697266-3.2842331,9.5620117-0.7593422,14.4940796,1.8232841c2.5960083,1.3593788,4.9429932,2.2183456,7.8499756,1.3640747
					c1.9624023-0.5766945,3.6351318-1.8227539,5.5608521-2.4970703c3.1945801-1.1186676,6.30896-0.7761192,9.5917358-0.2017403
					c3.1468506,0.550602,4.4980469-4.2669487,1.3292236-4.8213959c-3.4067383-0.5960655-6.800354-1.0992241-10.2341309-0.4044609
					c-1.5889282,0.3214912-2.977417,0.9527664-4.4656982,1.5685844c-3.4036865,1.4084015-5.0784912,1.6587448-8.1209106,0
					c-6.572998-3.5837021-12.5637817-5.131855-19.1536255-0.7231445c-3.5671997,2.3865128-6.9229736,6.4067116-11.4907837,6.5712471
					c-4.538208,0.1634674-8.84375-2.6011467-12.5836792-4.827652c-5.6811523-3.3822174-12.0878906-6.7571106-18.7670288-4.1263161
					c-11.8909302,4.6836853-10.9634399,22.4003563-23.3581543,26.1899185
					c-17.8152466,5.4468269-26.0172119-22.5870667-41.7926636-25.587471
					c-7.2750854-1.3836899-14.7971802,2.564415-20.0304565,7.348896
					c-7.1931763,6.5763702-8.9281006,14.6591377-11.2929688,23.7149963
					C514.6677856,71.5352173,519.4891357,72.8643951,520.3028564,69.7486343L520.3028564,69.7486343z"/>
			</g>
		</g>
		<g class="st4">
			<g>
				<path class="st3" d="M522.1777344,91.2402344c-2.1987305-2.942421,4.675293-7.4923706,6.5939331-8.3842773
					c3.2334595-1.5031586,6.8942261-1.9693375,10.4256592-1.9435196c7.914917,0.0578537,15.5846558,2.8315964,23.1828613,4.7215958
					c7.1750488,1.7847443,14.6071167,3.0916748,21.9780273,1.7352753
					c7.8587036-1.4461517,14.7993774-5.6947632,22.3829346-8.0066223
					c8.8227539-2.6896515,15.8815308-0.1751556,24.3734131,2.1196518
					c6.5458984,1.7689209,12.6326904,2.1317444,18.9728394-0.4899902c4.5770874-1.8927002,9.0078735-4.3032837,14.1223755-2.9291534
					c3.3189087,0.8917007,6.0628052,3.2055817,9.4552002,3.9575729c2.9891968,0.6626205,5.4532471-0.2086792,8.2912598-1.1406021
					c3.8331909-1.2587357,6.7478638,0.7392883,10.5023193,0.4362564c3.1853027-0.2570877,3.2128906-5.2593155,0-5
					c-2.6304321,0.2123032-4.9579468-1.3049164-7.6035156-1.2167892c-3.2006226,0.1066284-5.9400635,2.1693726-9.1259155,1.9999084
					c-3.2525024-0.1730118-5.8283081-2.3164673-8.8167725-3.412735c-2.7144165-0.9957275-5.678772-1.2829895-8.5385742-0.851532
					c-7.2698975,1.0968399-12.8137207,5.9132309-20.5080566,4.9527435
					c-6.7536621-0.843071-12.980957-4.0093384-19.7775879-4.6863556
					c-14.5305786-1.4473953-26.1191406,9.9087524-40.4065552,9.8484573
					c-13.8217163-0.0583267-26.5849609-7.6924362-40.4869385-6.9901428
					c-5.4576416,0.2757034-11.1113281,1.7494965-15.2838745,5.4476242
					c-3.2036133,2.8393936-7.1668701,8.1855469-4.050415,12.3562317
					C519.7640991,96.3115234,524.1066284,93.8216171,522.1777344,91.2402344L522.1777344,91.2402344z"/>
			</g>
		</g>
	</g>
</g>
<g>
	<path class="st0" d="M418.8882141-68.0399475c14.3493652,0,26.023407,11.6738281,26.023407,26.0228882v6.2035828
		c0,14.348877-11.6740417,26.022522-26.023407,26.022522h-20.164093c-14.3482971,0-26.0214844-11.673645-26.0214844-26.022522
		v-6.2035828c0-14.3490601,11.6731873-26.0228882,26.0214844-26.0228882H418.8882141 M418.8882141-73.0399475h-20.164093
		c-17.132782,0-31.0214844,13.8885803-31.0214844,31.0228882v6.2035828c0,17.1343079,13.8887024,31.022522,31.0214844,31.022522
		h20.164093c17.132782,0,31.023407-13.8882141,31.023407-31.022522v-6.2035828
		C449.9116211-59.1513672,436.0209961-73.0399475,418.8882141-73.0399475L418.8882141-73.0399475z"/>
</g>
<g>
	<path class="st1" d="M478.6050415,112.2700348V-10.735364c0-17.1333008-13.8887024-31.0219002-31.0215149-31.0219002h-79.6231079
		c-17.132782,0-31.0233765,13.8885994-31.0233765,31.0219002v123.0054016H478.6050415z"/>
</g>
<g>
	<rect x="336.9741211" y="102.0308304" class="st3" width="141.6660004" height="10.2391996"/>
</g>
<g>
	<path class="st1" d="M498.120636,128.199234c0,9.022995-7.3135071,16.3374023-16.3349915,16.3374023H331.5796204
		c-9.0224915,0-16.3358765-7.3144073-16.3358765-16.3374023l0,0c0-9.0210037,7.313385-16.3354034,16.3358765-16.3354034h150.2060242
		C490.8071289,111.8638306,498.120636,119.1782303,498.120636,128.199234L498.120636,128.199234z"/>
</g>
<g>
	<defs>
		<path id="SVGID_3_" d="M478.6050415,112.2700348V-10.735364c0-17.1333008-13.8887024-31.0219002-31.0215149-31.0219002
			h-79.6231079c-17.132782,0-31.0233765,13.8885994-31.0233765,31.0219002v123.0054016H478.6050415z"/>
	</defs>
	<clipPath id="SVGID_4_">
		<use xlink:href="#SVGID_3_"  style="overflow:visible;"/>
	</clipPath>
	<g class="st5">
		<g>
			<path class="st3" d="M329.617218,10.8506346c2.4355774-7.3215446,10.8003845-22.653656,18.5822754-10.883605
				c3.9724731,6.0083256,7.273468,12.3985958,11.446228,18.2945843c3.2442017,4.5839272,7.1059265,9.2285805,12.921814,10.310215
				c6.3296509,1.1771793,12.8257141-1.917675,17.2515869-6.330183c2.2189331-2.2122536,3.8429565-4.9719105,5.5786133-7.5627041
				c1.9681702-2.9378738,5.3344116-8.5670013,9.1795044-9.350071c4.302887-0.8763041,8.0956116,5.2932105,10.7124939,7.9672942
				c2.2972717,2.3474684,4.9644775,4.7517366,7.7858582,6.4484529c5.7757263,3.4733601,10.8455505,1.057169,15.3065796-3.1912403
				c5.5966797-5.329895,11.5519409-11.6911602,20.0883179-10.3614779
				c7.1772461,1.1179724,13.6712341,6.4346609,21.2498169,4.6824713c3.5534058-0.8215599,5.6832581-3.6441751,8.911377-4.9354563
				c3.894989-1.5580325,8.0111084,1.7736301,11.9245605,2.1851215c3.1964722,0.3361053,3.1728821-4.666378,0-5
				c-3.2605591-0.3428395-5.9703674-2.6522508-9.2888794-2.7942154c-3.3440857-0.1430578-5.9357605,1.7639129-8.5537109,3.5586028
				c-7.6005554,5.2104573-14.793396-0.8903775-22.5317383-2.471828c-6.6270142-1.3543375-13.1212158,1.0817831-18.3699951,5.092442
				c-2.7521667,2.1029525-4.9598999,4.7135978-7.5158691,7.023499c-2.4751282,2.2368279-5.5984497,3.7157602-8.6968384,1.8947277
				c-2.014679-1.1840782-3.9752502-2.9579325-5.6656494-4.5592833c-4.2702637-4.0453157-8.4605408-11.53374-15.3451843-10.6248608
				c-6.5964661,0.8708326-11.0560913,8.2564716-14.3951416,13.2597351
				c-5.294342,7.9331436-15.1060181,14.8236523-23.2344055,6.0472393
				c-5.3447876-5.7709074-9.3249207-13.232563-13.2069397-20.0159931
				c-3.2839661-5.7384276-8.9027405-11.7660151-16.0342712-8.1975098
				c-6.8802795,3.4427776-10.6175842,11.2582054-12.9217834,18.184845
				C323.777832,12.5816469,328.6048584,13.8939095,329.617218,10.8506346L329.617218,10.8506346z"/>
		</g>
	</g>
	<g class="st5">
		<g>
			<path class="st3" d="M335.9694824-35.1852951c6.3234253-6.8371696,15.0456848-4.9718628,20.3887634,1.6958923
				c4.3981323,5.4885578,7.1384888,12.1399841,11.3274536,17.7971916
				c4.0378113,5.4530897,9.3435364,10.3220329,16.3348389,11.2577457
				c6.0995789,0.8163648,11.2986755-2.2250004,15.9367981-5.8552079
				c6.8280334-5.344223,13.1687927-12.5416117,22.7831726-10.2248201
				c8.5263367,2.0545979,14.6336365,7.9863071,23.8965149,5.2809372c4.6580505-1.3604584,8.7843323-4.088295,13.7041931-4.5648689
				c4.6631775-0.4517078,9.1534729,0.8291168,13.7712097,1.0945435c4.0527344,0.2329502,8.1656494-0.0095139,12.0198059-1.272316
				c4.6944275-1.5381107,8.5884399-1.8407173,13.5118103-1.3992653c3.2039185,0.287281,3.1845093-4.7144604,0-5
				c-2.9099731-0.2609215-5.8355103-0.5344448-8.746582-0.1432457c-4.0737305,0.5474358-7.6194153,2.4141483-11.7818298,2.7276955
				c-7.0535583,0.5313339-13.9595032-1.9237747-21.0023499-0.7469978c-3.3546143,0.5605164-6.3856506,2.0186329-9.5194702,3.2666492
				c-5.2241211,2.0804653-9.6125183,2.175272-14.867218-0.1228447c-5.6520386-2.4719028-11.2186584-5.4227829-17.6054993-4.4603233
				c-5.6006775,0.8439884-10.1785889,4.1375198-14.4297791,7.6647148
				c-4.7185974,3.915041-10.1057434,9.5485601-16.7787781,8.8059788
				c-12.7344055-1.4171038-17.4257507-17.6144772-24.0592957-26.4021969
				c-7.0795593-9.3785591-19.6685181-12.3965302-28.419281-2.9347954
				C330.2516479-36.3612213,333.7789917-32.8168182,335.9694824-35.1852951L335.9694824-35.1852951z"/>
		</g>
	</g>
	<g class="st5">
		<g>
			<path class="st3" d="M331.7471313,70.1539307c2.1982422-8.4138527,3.6433105-16.027874,10.5570374-22.0120544
				c3.0072327-2.6029282,6.9223633-4.8400002,10.8880615-5.5076981c4.8933105-0.8238754,8.9884033,1.7852249,12.5462036,4.8577728
				c9.7165833,8.3913727,19.0162659,24.3697586,34.1901245,21.0536041
				c13.0142517-2.8442001,13.7359924-15.893219,21.6193848-24.1104927
				c6.2342224-6.4982262,13.8504639-1.2377167,20.1127625,2.3714676c5.4437561,3.1374207,12.0951538,5.8448105,18.2518311,3.1464462
				c3.5654297-1.5626717,6.1795654-4.5406342,9.4767151-6.5204163c5.4700317-3.2844887,9.5629578-0.7596016,14.4951172,1.823658
				c2.5954285,1.3593826,4.9426575,2.2178268,7.8490601,1.3639793c1.962738-0.5766144,3.6361084-1.822628,5.5620117-2.4971695
				c3.1945496-1.1188583,6.3085327-0.7765083,9.5912781-0.2019958c3.1468506,0.5507317,4.4980164-4.2668228,1.3292236-4.8213959
				c-3.4066467-0.5961914-6.8003235-1.099369-10.2340393-0.4043884c-1.5887756,0.3215714-2.9768066,0.9530716-4.4648743,1.5689125
				c-3.4033203,1.4084625-5.0790405,1.6588745-8.1209106,0c-6.5730286-3.5845947-12.5655212-5.1323357-19.1553955-0.7234077
				c-3.5667725,2.3863335-6.9220581,6.4073715-11.4894409,6.571682c-4.538147,0.1632614-8.8439941-2.6015892-12.5838928-4.828022
				c-5.6812134-3.3821259-12.0873413-6.756752-18.766449-4.1262474
				c-11.8918457,4.6834869-10.9638367,22.4009514-23.3589478,26.1900673
				c-17.8151855,5.446003-26.0171814-22.5872498-41.7927551-25.587738
				c-7.2750854-1.383709-14.7974548,2.5643616-20.0306702,7.3489189
				c-7.1936646,6.5769806-8.9268188,14.6593132-11.2928467,23.7153244
				C326.1116943,71.9404373,330.9331055,73.2695923,331.7471313,70.1539307L331.7471313,70.1539307z"/>
		</g>
	</g>
	<g class="st5">
		<g>
			<path class="st3" d="M333.6231079,91.6449356c-2.199585-2.9412918,4.6748047-7.4922256,6.5927124-8.383812
				c3.23349-1.5031509,6.8943176-1.9692078,10.4257507-1.9433899c7.914917,0.0578766,15.5847168,2.8316879,23.1829834,4.72155
				c7.175415,1.7846909,14.6077576,3.0914612,21.9789429,1.7348862c7.8582764-1.4462128,14.798584-5.6943893,22.3816833-8.0062027
				c8.8229065-2.6897659,15.8815002-0.1748657,24.3735962,2.1196289c6.5461731,1.7687149,12.6335449,2.1320953,18.9739075-0.4899521
				c4.5771484-1.892868,9.0059814-4.3028336,14.120697-2.9291534c3.3193359,0.8914948,6.0639648,3.2050247,9.456604,3.9571533
				c2.9891663,0.662674,5.453064-0.2086792,8.2911377-1.1404114c3.8330078-1.2583771,6.7467041,0.7388916,10.5007935,0.4365005
				c3.1854553-0.2565842,3.2129517-5.2587967,0-5c-2.6296692,0.2118225-4.956604-1.3049088-7.601593-1.2167969
				c-3.2007141,0.1066208-5.9405212,2.1691055-9.1263123,1.999527c-3.2526245-0.1731339-5.828949-2.3163071-8.8176575-3.4123688
				c-2.7145691-0.9955444-5.6790466-1.2830505-8.5389404-0.8515167c-7.2695007,1.0969086-12.8123169,5.9131165-20.5063477,4.9527359
				c-6.7543945-0.8430862-12.9824524-4.0095673-19.7797852-4.6864548
				c-14.5297546-1.446907-26.1178284,9.9082413-40.4045715,9.8482971
				c-13.822052-0.0579987-26.5856323-7.6921082-40.487915-6.9898834
				c-5.4573364,0.2756577-11.1112976,1.7491226-15.2834473,5.4473419
				c-3.2029724,2.8391113-7.1677246,8.1863251-4.0495911,12.3559189
				C331.2103271,96.7153397,335.552948,94.2255173,333.6231079,91.6449356L333.6231079,91.6449356z"/>
		</g>
	</g>
</g>
<g>
	<path class="st0" d="M615.2612305-96.060463c0,4.9277039-3.9951172,8.9213028-8.921814,8.9213028h-51.9033813
		c-4.9248047,0-8.9199219-3.9935989-8.9199219-8.9213028l0,0c0-4.926796,3.9951172-8.9208984,8.9199219-8.9208984h51.9033813
		C611.2661133-104.9813614,615.2612305-100.9872589,615.2612305-96.060463L615.2612305-96.060463z"/>
</g>
<g>
	<path class="st0" d="M607.7183228-131.0214539c0,5.0893936-4.125,9.2143936-9.2149048,9.2143936h-53.6044922
		c-5.0888062,0-9.2138062-4.125-9.2138062-9.2143936l0,0c0-5.0884094,4.125-9.2134094,9.2138062-9.2134094h53.6044922
		C603.5933228-140.2348633,607.7183228-136.1098633,607.7183228-131.0214539L607.7183228-131.0214539z"/>
</g>
<g>
	<path class="st0" d="M609.5864258-113.7323608c0,5.8060989-4.7059937,10.5131989-10.5097046,10.5131989h-75.4873047
		c-5.8046875,0-10.5097656-4.7070999-10.5097656-10.5131989l0,0c0-5.8042145,4.7050781-10.5093002,10.5097656-10.5093002h75.4873047
		C604.8804321-124.2416611,609.5864258-119.5365753,609.5864258-113.7323608L609.5864258-113.7323608z"/>
</g>
<g>
	<g>
		<path class="st6" d="M532.4429321,85.9463348h126.0819702c0.2637329-2.4872971,0.3984375-5.0117035,0.3652344-7.5746994
			l-0.4902344-73.5401001c-0.4628906-35.0165977-29.2265625-63.0267982-64.2411499-62.5658989
			c-35.0166016,0.4634018-63.0303345,29.2256012-62.5664062,64.2411957l0.4901733,73.5405884
			C532.1069336,82.0381317,532.2368164,84.004425,532.4429321,85.9463348z"/>
	</g>
	<g>
		<path class="st7" d="M615.7993164-50.9413643c0,3.599102-8.7744141,20.6733017-19.5996094,20.6733017l0,0
			c-10.8270874,0-19.602478-17.0741997-19.602478-20.6733017v-16.684597c0-3.5990982,8.7753906-6.5166168,19.602478-6.5166168l0,0
			c10.8251953,0,19.5996094,2.9175186,19.5996094,6.5166168V-50.9413643z"/>
	</g>
	<g>
		<g>
			<path class="st8" d="M618.394043-111.4105759c0.5966797-2.0078888,0.921875-4.1328888,0.921875-6.3334885
				c0-12.2631989-9.9414062-22.2041016-22.2041016-22.2041016s-22.2041016,9.9409027-22.2041016,22.2041016
				c0,2.2005997,0.3262329,4.3255997,0.921936,6.3334885c-9.093811,6.5957184-15.0117188,17.3066177-15.0117188,29.4003143
				c0,20.0454979,16.25,36.2949982,36.2938843,36.2949982c20.0440063,0,36.2940063-16.2495003,36.2940063-36.2949982
				C633.4058228-94.1039581,627.4897461-104.8148575,618.394043-111.4105759z"/>
		</g>
		<g>
			<defs>
				<path id="SVGID_5_" d="M618.5337524-111.4193573c0.602478-2.0249023,0.9306641-4.1680069,0.9306641-6.3877029
					c0-12.3687057-10.0253906-22.3955154-22.3945923-22.3955154c-12.368103,0-22.3964844,10.0268097-22.3964844,22.3955154
					c0,2.219696,0.3300781,4.3628006,0.9317017,6.3877029c-9.1738281,6.6532974-15.1426392,17.4549942-15.1426392,29.6532974
					c0,20.2181969,16.390625,36.607399,36.6074219,36.607399s36.6065063-16.3892021,36.6065063-36.607399
					C633.6763306-93.9643631,627.7075195-104.7660599,618.5337524-111.4193573z"/>
			</defs>
			<clipPath id="SVGID_6_">
				<use xlink:href="#SVGID_5_"  style="overflow:visible;"/>
			</clipPath>
			<g class="st9">
				<path class="st0" d="M627.6333008-108.1371613c-0.102478-4.3076019-1.4384766-8.358902-3.3290405-12.2041016
					c-0.4199219-0.8481979-0.6348267-1.7554016-0.625-2.6371994c-0.9023438-1.6070023-1.8359375-3.1982956-2.7666016-4.7891159
					c-2.4268188-2.4803772-4.7178345-5.1757812-5.7958984-8.4164886c-2.3525391-1.5907898-7.1113281-3.7636871-10.2793579-4.3535004
					c0,0,1.0625,25.9888077,19.2910156,25.9888077l3.9794922,8.4233017
					C627.8237305-106.6962585,627.652832-107.3651581,627.6333008-108.1371613z"/>
			</g>
			<g class="st9">
				<path class="st0" d="M573.940918-126.1757584c-0.6366577-0.080101-1.0057983-0.2866058-1.0057983-0.2866058l3.5888062-8.7573013
					l14.9307251-8.1830902l11.484375,2.4398956l5.8856812,3.875
					C608.824707-137.0878601,599.206543-123.0170593,573.940918-126.1757584z"/>
			</g>
			<g class="st9">
				<path class="st0" d="M574.581543-107.1493607c2.4707031-2.4370041,4.7089844-4.0410004,5.4492798-4.8080978
					c0,0-2.093811-3.3745041-1.6865845-8.8960037c0.4091797-5.5205002,2.8623047-9.8149948,2.8623047-9.8149948l-5.3154297-2.863205
					l-6.5438843,18.1996994l-2.5410156,3.2812042C569.3110352-110.3241577,571.9546509-108.7294617,574.581543-107.1493607z"/>
			</g>
			<g class="st9">
				<path class="st0" d="M614.2866211-111.3080597c0.7158203,0.7421951,2.8291016,2.2641983,5.1992188,4.5629959
					c2.5029907-1.7856979,5.0214844-3.5375977,7.5742798-5.2343979l-2.0917969-2.7025986l-6.5410767-18.1996994
					l-5.3173218,2.8631897c0,0,2.453125,4.2945099,2.8641968,9.8149948
					C616.3813477-114.6820602,614.2866211-111.3080597,614.2866211-111.3080597z"/>
			</g>
			<g class="st9">
				<circle class="st0" cx="621.6714478" cy="-108.6210632" r="2.875"/>
			</g>
			<g class="st9">
				<circle class="st0" cx="572.4839478" cy="-109.1366577" r="2.875"/>
			</g>
		</g>
		<g>
			<circle class="st0" cx="589.3120117" cy="-115.2108612" r="1.8516001"/>
		</g>
		<g>
			<circle class="st0" cx="604.1157227" cy="-115.2108612" r="1.8506"/>
		</g>
		<g>
			<path class="st10" d="M593.7397461-105.8021622c0.0733032,1.2689972,1.1231079,2.2762985,2.4121704,2.2762985
				c1.2890015,0,2.3378296-1.0073013,2.4121094-2.2762985H593.7397461z"/>
		</g>
	</g>
</g>
<g>
	<g>
		<rect x="566.5864258" y="-10.3798637" class="st11" width="67.5839996" height="122.2172852"/>
	</g>
	<g>
		<polygon class="st12" points="567.0864258,112.0806351 501.4009399,100.2451324 501.4009399,-22.5448627 567.0864258,-10.3798637 
					"/>
	</g>
	<g>
		<polygon class="st13" points="698.3696289,102.029335 632.6851196,112.1938324 632.6851196,-10.595664 698.3696289,-18.4311638 		
			"/>
	</g>
	<g class="st14">
		<polygon class="st15" points="518.7358398,29.1597347 535.1587524,20.3403358 554.6216431,28.8555355 566.737854,34.1274261 
			566.7866211,82.9888306 536.3755493,91.2002335 518.4321289,62.9170341 		"/>
	</g>
	<g class="st14">
		<polygon class="st16" points="681.1362305,85.5737305 664.715332,94.393631 645.2505493,85.8779373 633.1353149,80.6060333 
			633.0854492,31.7446346 663.4976196,23.5332355 681.440918,51.8169365 		"/>
	</g>
	<g class="st14">
		<path class="st15" d="M567.1938477,34.8877335L583.465332,19.985836c0,0,23.5684204,4.2577991,24.0244141,4.2577991
			c0.4570923,0,0.4570923,3.4971008,0.4570923,3.4971008l-17.6397095,2.2812996c0,0,4.7139282,2.7367992,6.234375,2.584898
			c3.0410156-0.3041992,36.4932251-0.4559975,36.4932251-0.4559975s-0.6065063,47.5946999-0.3037109,48.2035942
			c0.3037109,0.6078949-11.4042969-1.6728973-11.4042969-1.6728973s-13.6856079,14.9013977-14.2929688,14.4454041
			c-0.6074219-0.4556122-38.3184204-6.6900024-38.3184204-6.6900024l-1.8270874-3.0415039l-0.3037109-48.2035942"/>
	</g>
	<g class="st14">
		<path class="st17" d="M539.4683228,43.0996361l26.7626953,3.0405006l11.3554077-6.690403l55.9561157,6.285202
			l11.3563843-4.4605103l18.8555298,7.0957108l8.1083984,14.8012886l-5.0674438,12.3672104l-23.3164062-5.2714996
			l-9.7333984-2.2294998l-17.6376953,0.4047928c0,0-19.6688843,5.2724075-20.6815796,5.0688095
			c-1.0126953-0.2031021-21.6934204-7.7041016-21.6934204-7.7041016l-7.0966797,0.2021942l-24.9384155,2.8393021
			l-6.2841797-16.0170975L539.4683228,43.0996361z"/>
	</g>
	<g class="st14">
		<polygon class="st18" points="563.237854,54.1997337 593.3481445,50.0942345 638.2075195,54.1997337 645.8091431,58.6099358 
			627.5630493,58.7612343 572.2114258,57.6968346 563.0884399,57.6968346 		"/>
	</g>
</g>
<g>
	<path class="st7" d="M517.019043,33.7285347c2.0214844,7.0205002-2.0283203,14.3530006-9.047821,16.3774986
		c-7.0195007,2.0239029-14.352478-2.0273972-16.3769836-9.0483971c-2.0244141-7.0205002,2.0263977-14.3506012,9.0478821-16.3774014
		C507.6626282,22.6587353,514.9946289,26.7095356,517.019043,33.7285347z"/>
</g>
<g>
	<path class="st7" d="M709.2241211,33.7285347c2.0234985,7.0205002-2.0292969,14.3530006-9.046875,16.3774986
		c-7.0214233,2.0239029-14.3535156-2.0273972-16.3789062-9.0483971c-2.0223999-7.0205002,2.0274048-14.3506012,9.0488892-16.3774014
		C699.8667603,22.6587353,707.1987305,26.7095356,709.2241211,33.7285347z"/>
</g>
<g>
	<g class="st19">
		<path class="st0" d="M711.8179321,226.6074219c0,2.2217102,1.7998047,4.0215149,4.0194702,4.0215149h60.281311
			c2.2225952,0,4.0214233-1.7998047,4.0214233-4.0215149l0,0c0-2.2201843-1.7988281-4.0209961-4.0214233-4.0209961h-60.281311
			C713.6177368,222.5864258,711.8179321,224.3872375,711.8179321,226.6074219L711.8179321,226.6074219z"/>
	</g>
	<g>
		<path class="st0" d="M727.5103149,139.9199371c0,1.9971008,1.618103,3.6142883,3.6123047,3.6142883l0,0
			c1.9960938,0,3.6132202-1.6171875,3.6132202-3.6142883V47.8457336c0-1.9965973-1.6171265-3.613308-3.6132202-3.613308l0,0
			c-1.9942017,0-3.6123047,1.6167107-3.6123047,3.613308V139.9199371z"/>
	</g>
	<g>
		<path class="st20" d="M716.7856445,212.4746246c0,7.7236023,6.2626953,13.9854126,13.9854126,13.9854126h32.1698608
			c7.7236328,0,13.984436-6.2618103,13.984436-13.9854126V90.794426c0-7.7230911-6.2608032-13.98629-13.984436-13.98629h-32.1698608
			c-7.7227173,0-13.9854126,6.2631989-13.9854126,13.98629V212.4746246z"/>
	</g>
	<g class="st19">
		<path class="st21" d="M763.4077148,210.1431274c0,1.5444031-1.2539062,2.7967987-2.7977905,2.7967987l0,0
			c-1.5440063,0-2.7958984-1.2523956-2.7958984-2.7967987V95.921936c0-1.544899,1.2518921-2.796402,2.7958984-2.796402l0,0
			c1.5438843,0,2.7977905,1.251503,2.7977905,2.796402V210.1431274z"/>
	</g>
	<g class="st19">
		<path class="st21" d="M749.4204102,210.1431274c0,1.5444031-1.2509766,2.7967987-2.7958984,2.7967987l0,0
			c-1.5458984,0-2.7987671-1.2523956-2.7987671-2.7967987V95.921936c0-1.544899,1.2528687-2.796402,2.7987671-2.796402l0,0
			c1.5449219,0,2.7958984,1.251503,2.7958984,2.796402V210.1431274z"/>
	</g>
	<g class="st19">
		<path class="st21" d="M734.0366211,210.1431274c0,1.5444031-1.2518921,2.7967987-2.796875,2.7967987l0,0
			c-1.546814,0-2.7977905-1.2523956-2.7977905-2.7967987V95.921936c0-1.544899,1.2509766-2.796402,2.7977905-2.796402l0,0
			c1.5449829,0,2.796875,1.251503,2.796875,2.796402V210.1431274z"/>
	</g>
	<g>
		<circle class="st0" cx="725.2548828" cy="218.4355316" r="9.7895498"/>
	</g>
	<g>
		<circle class="st22" cx="725.3803711" cy="218.4355316" r="3.16505"/>
	</g>
	<g>
		<circle class="st0" cx="729.2124023" cy="48.0874252" r="5.375"/>
	</g>
</g>
<g>
	<path class="st12" d="M746.3560181,164.4888306c-2.1591797,0-3.9111938-1.7509918-3.9111938-3.9107056v-23.8876953
		c0-2.1595917,1.7520142-3.9105988,3.9111938-3.9105988l0,0c2.1591187,0,3.9100952,1.7510071,3.9100952,3.9105988v23.8876953
		C750.2661133,162.7378387,748.5151367,164.4888306,746.3560181,164.4888306L746.3560181,164.4888306z"/>
</g>
<g>
	<rect x="741.0874023" y="140.3374329" class="st10" width="45.25" height="16.75"/>
</g>
<g>
	<rect x="750.5874023" y="142.9624329" class="st6" width="35.75" height="2.75"/>
</g>
<g>
	<rect x="750.5874023" y="151.7749329" class="st6" width="35.75" height="2.9374928"/>
</g>
<g>
	<g>
		<path class="st21" d="M583.7397461,230.9648285c0,4.0308075-3.2675171,7.299408-7.2977905,7.299408h-1.5215454
			c-4.0321655,0-7.2987671-3.2686005-7.2987671-7.299408V111.7490311c0-4.0302963,3.2666016-7.2987976,7.2987671-7.2987976
			h1.5215454c4.0302734,0,7.2977905,3.2685013,7.2977905,7.2987976V230.9648285z"/>
	</g>
	<g>
		<path class="st21" d="M615.3687134,214.1704254V111.7490311c0-4.0302963-3.2675781-7.2987976-7.2988892-7.2987976h-1.5194702
			c-4.031311,0-7.2988281,3.2685013-7.2988281,7.2987976v102.4213943H615.3687134z"/>
	</g>
	<g>
		<path class="st21" d="M581.0864258,111.9883347c0.0048828-0.1099091,0.0186157-0.217804,0.0186157-0.3291016
			c0-3.9994965-3.2442017-7.2422028-7.2442017-7.2422028h-1.9746094c-4,0-7.243103,3.2427063-7.243103,7.2422028
			c0,0.1112976,0.0106812,0.2191925,0.0184937,0.3291016H581.0864258z"/>
	</g>
	<g>
		<path class="st21" d="M619.0483398,111.9883347c0.0059204-0.1099091,0.0166016-0.217804,0.0166016-0.3291016
			c0-3.9994965-3.243103-7.2422028-7.243103-7.2422028h-1.9746094c-3.9981079,0-7.2421875,3.2427063-7.2421875,7.2422028
			c0,0.1112976,0.0117188,0.2191925,0.0175781,0.3291016H619.0483398z"/>
	</g>
	<g>
		<path class="st0" d="M619.0894165,215.8364258c0,3.6817017-2.9854126,6.6665039-6.6660767,6.6665039h-10.6727905
			c-3.6817017,0-6.6660156-2.9848022-6.6660156-6.6665039l0,0c0-3.6815948,2.984314-6.6664886,6.6660156-6.6664886h10.6727905
			C616.1040039,209.1699371,619.0894165,212.1548309,619.0894165,215.8364258L619.0894165,215.8364258z"/>
	</g>
	<g>
		<path class="st0" d="M583.9233398,232.0029297c0,3.6817017-2.9863281,6.6664886-6.6679077,6.6664886h-28.6708984
			c-3.6826172,0-6.6660156-2.984787-6.6660156-6.6664886l0,0c0-3.6815948,2.9833984-6.6665039,6.6660156-6.6665039h28.6708984
			C580.9370117,225.3364258,583.9233398,228.3213348,583.9233398,232.0029297L583.9233398,232.0029297z"/>
	</g>
</g>
<g>
	<g class="st19">
		<path class="st0" d="M484.7070312,243.8806763c0,1.9638977-1.592804,3.5541992-3.5556946,3.5541992H332.4619141
			c-1.9609985,0-3.5546875-1.5903015-3.5546875-3.5541992l0,0c0-1.9633942,1.593689-3.5552063,3.5546875-3.5552063h148.6894226
			C483.1142273,240.32547,484.7070312,241.9172821,484.7070312,243.8806763L484.7070312,243.8806763z"/>
	</g>
	<g>
		<path class="st0" d="M415.7744141,118.0398712c3.508667,0,6.3632202,2.8549652,6.3632202,6.364212v12.9833984
			c0,3.5101166-2.8545532,6.365799-6.3632202,6.365799h-20.7128906c-3.508728,0-6.3633118-2.8556824-6.3633118-6.365799v-12.9833984
			c0-3.5092468,2.8545837-6.364212,6.3633118-6.364212H415.7744141 M415.7744141,112.0398712h-20.7128906
			c-6.8320923,0-12.3633118,5.5346985-12.3633118,12.364212v12.9833984c0,6.8271942,5.5312195,12.3657837,12.3633118,12.3657837
			h20.7128906c6.8242188,0,12.3632202-5.5385895,12.3632202-12.3657837v-12.9833984
			C428.1376343,117.5745697,422.5986328,112.0398712,415.7744141,112.0398712L415.7744141,112.0398712z"/>
	</g>
	<g>
		<rect x="351.9384155" y="239.8620758" class="st0" width="9.7363997" height="4.0186"/>
	</g>
	<g>
		<rect x="453.3310242" y="239.8620758" class="st0" width="9.7363005" height="4.0186"/>
	</g>
	<g>
		<path class="st12" d="M481.9248352,228.5788727c0,6.8272095-5.5381165,12.3652954-12.3653259,12.3652954H344.0556335
			c-6.8301086,0-12.3633118-5.5380859-12.3633118-12.3652954V140.787384c0-6.8291016,5.5332031-12.3647003,12.3633118-12.3647003
			h125.5038757c6.8272095,0,12.3653259,5.5355988,12.3653259,12.3647003V228.5788727z"/>
	</g>
	<g class="st23">
		<path class="st24" d="M356.6259155,221.1599731c0,1.3647003,1.1094055,2.4730988,2.4727173,2.4730988l0,0
			c1.3652039,0,2.4736023-1.1083984,2.4736023-2.4730988V151.090683c0-1.3648071-1.1083984-2.472702-2.4736023-2.472702l0,0
			c-1.3633118,0-2.4727173,1.1078949-2.4727173,2.472702V221.1599731z"/>
	</g>
	<g class="st23">
		<path class="st24" d="M370.2255249,221.1599731c0,1.3647003,1.1094055,2.4730988,2.4746094,2.4730988l0,0
			c1.3671875,0,2.4736938-1.1083984,2.4736938-2.4730988V151.090683c0-1.3648071-1.1065063-2.472702-2.4736938-2.472702l0,0
			c-1.3652039,0-2.4746094,1.1078949-2.4746094,2.472702V221.1599731z"/>
	</g>
	<g class="st23">
		<path class="st24" d="M383.82901,221.1599731c0,1.3647003,1.1094055,2.4730988,2.4727173,2.4730988l0,0
			c1.3671875,0,2.4726868-1.1083984,2.4726868-2.4730988V151.090683c0-1.3648071-1.1054993-2.472702-2.4726868-2.472702l0,0
			c-1.3633118,0-2.4727173,1.1078949-2.4727173,2.472702V221.1599731z"/>
	</g>
	<g class="st23">
		<path class="st24" d="M397.4326172,221.1599731c0,1.3647003,1.1073914,2.4730988,2.4687195,2.4730988l0,0
			c1.3671875,0,2.4755859-1.1083984,2.4755859-2.4730988V151.090683c0-1.3648071-1.1083984-2.472702-2.4755859-2.472702l0,0
			c-1.3613281,0-2.4687195,1.1078949-2.4687195,2.472702V221.1599731z"/>
	</g>
	<g class="st23">
		<path class="st24" d="M411.0341187,221.1599731c0,1.3647003,1.1044922,2.4730988,2.4707031,2.4730988l0,0
			c1.3671875,0,2.4726868-1.1083984,2.4726868-2.4730988V151.090683c0-1.3648071-1.1054993-2.472702-2.4726868-2.472702l0,0
			c-1.3662109,0-2.4707031,1.1078949-2.4707031,2.472702V221.1599731z"/>
	</g>
	<g class="st23">
		<path class="st24" d="M424.6318359,221.1599731c0,1.3647003,1.109375,2.4730988,2.4735718,2.4730988l0,0
			c1.3662109,0,2.4736023-1.1083984,2.4736023-2.4730988V151.090683c0-1.3648071-1.1073914-2.472702-2.4736023-2.472702l0,0
			c-1.3641968,0-2.4735718,1.1078949-2.4735718,2.472702V221.1599731z"/>
	</g>
	<g class="st23">
		<path class="st24" d="M438.235321,221.1599731c0,1.3647003,1.1073914,2.4730988,2.4726868,2.4730988l0,0
			c1.3652039,0,2.4707031-1.1083984,2.4707031-2.4730988V151.090683c0-1.3648071-1.1054993-2.472702-2.4707031-2.472702l0,0
			c-1.3652954,0-2.4726868,1.1078949-2.4726868,2.472702V221.1599731z"/>
	</g>
	<g class="st23">
		<path class="st24" d="M451.8349304,221.1599731c0,1.3647003,1.1094055,2.4730988,2.4745789,2.4730988l0,0
			c1.3653259,0,2.4727173-1.1083984,2.4727173-2.4730988V151.090683c0-1.3648071-1.1073914-2.472702-2.4727173-2.472702l0,0
			c-1.3651733,0-2.4745789,1.1078949-2.4745789,2.472702V221.1599731z"/>
	</g>
	<g>
		<circle class="st1" cx="380.9433289" cy="171.286972" r="14.8388996"/>
		<path class="st10" d="M380.9423828,187.625c-9.0087891,0-16.3378906-7.3291016-16.3378906-16.3378906
			c0-9.0078125,7.3291016-16.3369141,16.3378906-16.3369141c9.0097656,0,16.3398438,7.3291016,16.3398438,16.3369141
			C397.2822266,180.2958984,389.9521484,187.625,380.9423828,187.625z M380.9423828,157.9501953
			c-7.3544922,0-13.3378906,5.9833984-13.3378906,13.3369141c0,7.3544922,5.9833984,13.3378906,13.3378906,13.3378906
			c7.3554688,0,13.3398438-5.9833984,13.3398438-13.3378906
			C394.2822266,163.9335938,388.2978516,157.9501953,380.9423828,157.9501953z"/>
	</g>
	<g>
		
			<rect x="404.2304077" y="187.157959" transform="matrix(0.9861386 -0.1659238 0.1659238 0.9861386 -26.8532162 73.8976059)" class="st25" width="49.2539291" height="21.0196381"/>
		<path class="st10" d="M405.0864258,213.8466797l-3.9873047-23.6875l51.5307617-8.671875l3.9858398,23.6884766
			L405.0864258,213.8466797z M404.5551758,192.6201172l2.9912109,17.7695312l45.6132812-7.6748047l-2.9907227-17.7705078
			L404.5551758,192.6201172z"/>
	</g>
	<g>
		<polygon class="st1" points="440.8955078,163.6614685 424.95401,191.2766724 409.008728,163.6614685 		"/>
		<path class="st10" d="M424.9541016,194.2763672l-18.543457-32.1152344h37.0825195L424.9541016,194.2763672z
			 M411.6069336,165.1611328l13.347168,23.1152344l13.34375-23.1152344H411.6069336z"/>
	</g>
</g>
<g>
	<g>
		<rect x="397.6162109" y="91.2429733" class="st10" width="16.75" height="45.25"/>
	</g>
	<g>
		<rect x="408.9912109" y="100.7429733" class="st6" width="2.75" height="35.75"/>
	</g>
	<g>
		<rect x="399.9912109" y="100.7429733" class="st6" width="2.9354999" height="35.75"/>
	</g>
</g>
</svg>
