<?xml version="1.0" encoding="utf-8"?>
<!-- Generator: Adobe Illustrator 19.1.0, SVG Export Plug-In . SVG Version: 6.00 Build 0)  -->
<svg version="1.1" id="Layer_1" xmlns="http://www.w3.org/2000/svg" xmlns:xlink="http://www.w3.org/1999/xlink" x="0px" y="0px"
	 viewBox="0 0 65 124.9298477" style="enable-background:new 0 0 65 124.9298477;" xml:space="preserve">
<style type="text/css">
	.st0{fill:#112D46;}
	.st1{fill:#FAC78D;}
	.st2{fill:#418CCB;}
	.st3{clip-path:url(#SVGID_2_);fill:#48B4E7;}
	.st4{fill:#48B4E7;}
	.st5{opacity:0.1;}
	.st6{clip-path:url(#SVGID_4_);fill:#112D46;}
	.st7{fill:#FFFFFF;}
	.st8{fill:#FFFFFF;stroke:#FBBC30;stroke-width:0.4291213;stroke-miterlimit:10;}
</style>
<g>
	<path class="st0" d="M39.3028755,15.5711384c0,1.7382851-1.4088936,3.1471748-3.1467438,3.1471748H17.8468113
		c-1.7378559,0-3.1467457-1.4088898-3.1467457-3.1471748l0,0c0-1.737855,1.4088898-3.1467466,3.1467457-3.1467466h18.3093204
		C37.8939819,12.4243917,39.3028755,13.8332834,39.3028755,15.5711384L39.3028755,15.5711384z"/>
	<path class="st0" d="M35.9235458,3.3411813c0,1.7382846-1.4088936,3.1471758-3.1467476,3.1471758H14.4674816
		c-1.7378569,0-3.1467466-1.4088912-3.1467466-3.1471758l0,0c0-1.7378553,1.4088898-3.1467464,3.1467466-3.1467464h18.3093166
		C34.5146523,0.1944349,35.9235458,1.603326,35.9235458,3.3411813L35.9235458,3.3411813z"/>
	<path class="st0" d="M37.3014107,9.3375511c0,2.0479813-1.6598854,3.7083368-3.7074356,3.7083368H6.9654102
		c-2.0475521,0-3.7074792-1.6603556-3.7074792-3.7083368l0,0c0-2.0475097,1.6599271-3.7074366,3.7074792-3.7074366h26.6285648
		C35.6415253,5.6301146,37.3014107,7.2900414,37.3014107,9.3375511L37.3014107,9.3375511z"/>
	<g>
		<rect x="29.3907738" y="90.5344162" class="st1" width="1.9100617" height="25.4249535"/>
		<rect x="33.8965454" y="94.7183456" class="st1" width="1.9100617" height="21.2410221"/>
		<rect x="26.6190796" y="71.0055466" class="st2" width="5.5576358" height="22.7937946"/>
		<g>
			<defs>
				<path id="SVGID_1_" d="M54.389576,55.2474823c0.163456,12.3523407-9.7180519,22.4978867-22.0703926,22.661293l0,0
					c-12.3527279,0.1634521-22.4982719-9.7176666-22.661293-22.0703926l-0.1730661-4.0680733
					c-0.163023-12.3519135,9.718482-22.4978867,22.0703926-22.6612949l0,0
					c12.3519135-0.1625938,22.4982758,9.7180958,22.6617241,22.0703945L54.389576,55.2474823z"/>
			</defs>
			<clipPath id="SVGID_2_">
				<use xlink:href="#SVGID_1_"  style="overflow:visible;"/>
			</clipPath>
			<path class="st3" d="M61.6200981,86.7367935H3.9426799V62.896656c0,0,11.9584084,2.9992561,28.6849136,2.9992561
				c16.7265472,0,28.9925041-2.9992561,28.9925041-2.9992561V86.7367935z"/>
		</g>
		<rect x="18.8613815" y="115.9358978" class="st0" width="13.3316402" height="1.4994357"/>
		<rect x="31.9655018" y="75.2967606" class="st4" width="5.5575929" height="21.6853752"/>
		<rect x="33.665638" y="115.8286133" class="st0" width="13.3316832" height="1.4994357"/>
		<g>
			<path class="st1" d="M9.7609634,48.3750572c-0.0054493-1.6125946,1.2974482-2.9251022,2.91043-2.9309387l0,0
				c1.6129808-0.0058784,2.9250622,1.2969742,2.9305115,2.9095268l0.1541834,33.5115433
				c0.0063086,1.6133728-1.2969761,2.9254532-2.9091415,2.9317627l0,0
				c-1.6129379,0.0054474-2.9254484-1.2978363-2.9308987-2.9103928L9.7609634,48.3750572z"/>
			<path class="st0" d="M18.9787045,76.6109467l1.9172268-27.8654709c0.1923332-3.706192-0.4513493-6.4833374-4.1562977-6.6769142
				c-3.7061911-0.1919441-6.8676119,2.6560059-7.0603743,6.3621979l-1.8740587,27.031559
				C12.2552309,76.0481491,14.5118942,76.1646576,18.9787045,76.6109467z"/>
			<circle class="st1" cx="14.618145" cy="82.0652924" r="4.6667719"/>
		</g>
		<path class="st0" d="M9.8028889,70.7750626h44.4756317c0.0930328-0.8775101,0.1412239-1.7680206,0.1290779-2.6719666
			l-0.1730652-16.9417114c-0.1630211-12.3522987-10.3093796-22.2329884-22.661293-22.0703926
			C19.2209435,29.2544003,9.3393946,39.4003716,9.5028477,51.752285l0.172636,16.9417152
			C9.6847086,69.3963394,9.7303677,70.0898895,9.8028889,70.7750626z"/>
		<path class="st1" d="M39.2073517,31.4872036c0,1.2697277-3.0956383,7.292532-6.9141731,7.292532l0,0
			c-3.8193073,0-6.9149456-6.0228043-6.9149456-7.292532v-5.885355c0-1.2697697,3.0956383-2.298975,6.9149456-2.298975l0,0
			c3.8185349,0,6.9141731,1.0292053,6.9141731,2.298975V31.4872036z"/>
		<g>
			<path class="st1" d="M53.1235847,47.9358521c0.007122-1.6125526-1.2948723-2.9263077-2.9074707-2.9334297l0,0
				c-1.6125488-0.007122-2.9254456,1.294487-2.9329987,2.9074707l-0.1877403,33.5110741
				c-0.0071259,1.6134109,1.294487,2.9267349,2.9070396,2.9338531l0,0c1.6129799,0.0075531,2.9267349-1.2949142,2.9330444-2.9074631
				L53.1235847,47.9358521z"/>
			<path class="st0" d="M45.4811478,75.6688919l-2.0098305-27.0252457c-0.1873131-3.668045-0.1253052-7.1399765,3.5431671-7.3290062
				c3.6667976-0.186882,6.7938499,2.6346779,6.9815903,6.3027191l1.8275414,26.6627693
				c-1.9385567,0.9068604-2.3211594,1.1876373-4.7132111,1.4696579
				C46.443325,76.2995758,47.4968185,75.9949417,45.4811478,75.6688919z"/>
			<circle class="st1" cx="48.2331238" cy="81.6221161" r="4.6667557"/>
		</g>
		<g class="st5">
			<path class="st0" d="M39.0124893,29.8406658c-0.932869-0.7128124-1.6477852-1.3845596-1.9721565-2.5646439
				c-0.2044754-0.7606163-0.2044754-1.5208054,0-2.2813797c0.433754-1.5765495,1.6637039-2.6266937,3.1589317-3.0013599
				c0.5803871-1.6028976,0.4685173-3.4082108,0.575798-5.0815697c0.0875816-1.375762,0.3490448-2.6455317,0.6889114-3.914444
				c-0.4425125-0.4307947-0.9122696-0.8330956-1.4130554-1.1960039c0.2103539-0.7082214,0.3251915-1.4579391,0.3251915-2.2340479
				c0-2.9355335-1.6171913-5.4901352-4.0070953-6.8315687c-0.8209496,0.5724478-1.6234512,1.1737754-2.4058685,1.798619
				c0.0469475,0.8615894-0.1085243,1.748755-0.4513054,2.5256791c-1.2630768,2.8605227-3.6890278,5.0208049-4.8108349,8.0343094
				c-0.6311111,1.6946869-1.2211514,3.43297-1.5170307,5.2223644c-0.1295071,0.7815571-0.1563301,1.5618725-0.1760254,2.3526134
				c-0.0104713,0.4107132,0.0230865,0.6671562,0.0515804,0.8024998c1.0518188,1.9817677,0.6348839,4.6193619-1.5241528,5.7969151
				c-0.0133896,0.0075512-0.0293522,0.0146751-0.0431709,0.0217991c-0.1835346,0.143755-0.3792572,0.2816315-0.6005096,0.4073219
				c-0.6151905,0.3490906-1.1813297,0.7509613-1.7751484,1.1352406c2.3400421,2.5458469,5.6967564,4.1420498,9.4268513,4.1420498
				c3.4941177,0,6.6563988-1.4055443,8.9662743-3.6755962c-0.1944351-0.1148319-0.3868103-0.2359295-0.5745506-0.369215
				C40.251236,30.6390038,39.5933037,30.2844639,39.0124893,29.8406658z"/>
		</g>
		<g>
			<g>
				<path class="st1" d="M40.1225815,10.1564426c0.2103577-0.7082214,0.3251915-1.4579391,0.3251915-2.2340479
					c0-4.326015-3.5067406-7.8327084-7.8327522-7.8327084c-4.3255424,0-7.8322792,3.5066934-7.8322792,7.8327084
					c0,0.7761087,0.1148319,1.5258265,0.3251877,2.2340479c-3.2083683,2.3266106-5.2957001,6.1048946-5.2957001,10.3709602
					c0,7.0712757,5.7323742,12.8032627,12.8027916,12.8032627c7.0708885,0,12.8032646-5.731987,12.8032646-12.8032627
					C45.4182854,16.2613373,43.3309059,12.4830532,40.1225815,10.1564426z"/>
			</g>
			<g>
				<defs>
					<path id="SVGID_3_" d="M40.1720161,10.1534824c0.2124596-0.7144871,0.3281097-1.4704704,0.3281097-2.2533164
						C40.5001259,3.5369036,36.9632645,0,32.5999565,0c-4.362875,0-7.8997784,3.5369036-7.8997784,7.900166
						c0,0.782846,0.1160774,1.5388293,0.3281479,2.2533164c-3.2360458,2.3467779-5.3414001,6.1572895-5.3414001,10.4602604
						c0,7.1320381,5.7818089,12.9134598,12.9130306,12.9134598c7.1316109,0,12.9134636-5.7814217,12.9134636-12.9134598
						C45.5134201,16.3107719,43.40802,12.5002604,40.1720161,10.1534824z"/>
				</defs>
				<clipPath id="SVGID_4_">
					<use xlink:href="#SVGID_3_"  style="overflow:visible;"/>
				</clipPath>
				<path class="st6" d="M43.7344971,12.0166407c-0.0364761-1.5195179-0.5070953-2.948535-1.174633-4.3050303
					c-0.1475334-0.2992263-0.2237892-0.6193938-0.2200127-0.930335c-0.3184929-0.5665689-0.6478882-1.1281171-0.9764214-1.6892362
					c-0.8557549-0.875021-1.6637039-1.8258681-2.0446358-2.9690902c-0.829319-0.561119-1.7910652-0.9810143-2.9087105-1.1888806
					c0,0-0.1374474,6.5390792,6.0881577,8.8208885l1.4034386,2.9711494
					C43.8019524,12.5249777,43.7411919,12.2890472,43.7344971,12.0166407z"/>
				<path class="st6" d="M24.4412022,4.9478974c-0.2246017-0.0281076-0.354538-0.1010151-0.354538-0.1010151l1.2659931-3.0893302
					l5.2672062-2.8865275l4.0511189,0.8607745l2.0760498,1.366966C36.7470322,1.0987651,33.3538361,6.0621538,24.4412022,4.9478974z
					"/>
				<path class="st6" d="M24.2559948,11.4831572c0.8716297-0.8599157,1.6611271-1.4256268,1.9222069-1.6963596
					c0,0-0.7387772-1.1901245-0.594635-3.137949C25.7277088,4.7014527,26.593504,3.186569,26.593504,3.186569l-1.8753033-1.00998
					l-2.30863,6.420084l-0.8959618,1.1574688C22.3969975,10.3630219,23.3298645,10.9258146,24.2559948,11.4831572z"/>
				<path class="st6" d="M39.0556145,10.0751247c0.2527084,0.2619352,0.9982262,0.7987232,1.8342781,1.6096334
					c0.882534-0.6298637,1.7709427-1.2479706,2.6719246-1.8464231l-0.7379608-0.9533358l-2.3077698-6.4200835l-1.8757324,1.0099368
					c0,0,0.8657532,1.5149269,1.0103645,3.4623222C39.7944336,8.8849993,39.0556145,10.0751247,39.0556145,10.0751247z"/>
			</g>
			<circle class="st0" cx="29.863472" cy="8.8158255" r="0.6528866"/>
			<circle class="st0" cx="35.0856438" cy="8.8158255" r="0.6526935"/>
			<path class="st7" d="M31.4253235,12.1348209c0.0259628,0.4475737,0.3964214,0.8029289,0.85112,0.8029289
				c0.4542656,0,0.8247261-0.3553553,0.8506889-0.8029289H31.4253235z"/>
		</g>
		<rect x="0.8378585" y="117.3305435" class="st4" width="63.3243141" height="1.4994357"/>
		<circle class="st0" cx="12.1970005" cy="121.8723602" r="3.0574892"/>
		<circle class="st0" cx="52.1052818" cy="121.8723602" r="3.0574892"/>
	</g>
	<g>
		<circle class="st7" cx="31.9183426" cy="53.7277451" r="5.3638015"/>
		<rect x="29.9158478" y="57.0178185" class="st7" width="3.9337549" height="1.5847059"/>
		<circle class="st0" cx="30.3093529" cy="54.2641487" r="1.322981"/>
		<circle class="st0" cx="33.7423248" cy="54.2641487" r="1.322981"/>
		<line class="st8" x1="31.0246983" y1="58.9599838" x2="31.0246983" y2="55.5001945"/>
		<line class="st8" x1="32.3120613" y1="58.9599838" x2="32.3120613" y2="55.5001945"/>
	</g>
</g>
</svg>
