<?xml version="1.0" encoding="utf-8"?>
<!-- Generator: Adobe Illustrator 19.0.1, SVG Export Plug-In . SVG Version: 6.00 Build 0)  -->
<svg version="1.1" id="Layer_1" xmlns="http://www.w3.org/2000/svg" xmlns:xlink="http://www.w3.org/1999/xlink" x="0px" y="0px"
	 viewBox="0 0 32 26.0040073" style="enable-background:new 0 0 32 26.0040073;" xml:space="preserve">
<style type="text/css">
	.st0{fill:#3AAEF8;}
</style>
<g>
	<path class="st0" d="M31.9950676,3.0776818c-0.3636932,0.5770655-0.8550892,1.1861899-1.4747219,1.8273737
		c-0.49193,0.5129471-1.0900135,1.0369368-1.7953148,1.5709v0.1923552V6.892725
		c0,0.1072202,0.0105076,0.1818471,0.0320587,0.2244143v0.2244143c0,2.2015753-0.416769,4.4081383-1.2503071,6.6202221
		c-0.83354,2.2120829-2.0197296,4.194766-3.5585709,5.9469786c-1.6460609,1.8809834-3.6442394,3.3662148-5.9950676,4.4562263
		C15.6017809,25.4549942,12.972928,26,10.0665846,26c-1.8809834,0-3.6547475-0.2564735-5.321825-0.7694206
		C3.03458,24.7176323,1.4531716,23.9913139,0,23.0505543c0.085135,0.0215511,0.2133717,0.0320606,0.3847102,0.0320606
		c0.3416084,0.0431004,0.5980819,0.0641174,0.7694205,0.0641174h0.4167694c1.4957391,0,2.9599538-0.24543,4.3921084-0.7373619
		c1.324935-0.4698448,2.5752435-1.154129,3.7509246-2.0517864c-1.3680363-0.0210171-2.6398954-0.4698467-3.8150425-1.346487
		c-1.1541309-0.8545551-1.9235513-1.9340591-2.3082616-3.237977c0.3205919,0.0641184,0.5234554,0.0961771,0.6091244,0.0961771
		h0.3205919c0.0641184,0.0215511,0.160296,0.0320597,0.2885327,0.0320597c0.1923552,0,0.3416085-0.0105085,0.4488287-0.0320597
		c0.2133718,0,0.5129471-0.0425673,0.8976569-0.1282368c0.0425677,0,0.1066861-0.0105085,0.1923552-0.0320587
		c0.085135-0.0210171,0.1492534-0.0320597,0.1923552-0.0320597c-1.5178242-0.2990408-2.7681324-1.0579529-3.7509246-2.2762022
		c-1.0048774-1.2182493-1.5067818-2.6073027-1.5067818-4.1676941V9.2009869V9.1689272V9.1368685
		C1.6880943,9.393342,2.1584737,9.5856962,2.6929717,9.713933c0.5555143,0.171339,1.0789697,0.2564735,1.5709,0.2564735
		C3.3231127,9.3292236,2.6178107,8.5492945,2.1479654,7.6300864C1.6134676,6.6898618,1.3464859,5.642417,1.3464859,4.488286
		c0-0.6411836,0.0746267-1.2182491,0.2244142-1.7311959c0.085135-0.3631594,0.299041-0.8866147,0.6411837-1.5709002
		c1.6670778,2.0517879,3.6547475,3.6547472,5.9630089,4.8088779c2.3723793,1.2398,4.8940125,1.9235516,7.5659676,2.0517883
		c-0.0641184-0.4488287-0.0961771-0.6942596-0.0961771-0.7373614c-0.0431023-0.2990408-0.0641184-0.5450063-0.0641184-0.7373614
		c0-1.8163309,0.6411839-3.3662145,1.9235516-4.648582S20.3360329,0,22.1528969,0
		c0.9402256,0,1.8273735,0.1818468,2.6609135,0.5450062c0.8335381,0.4062611,1.5493488,0.9192082,2.1479645,1.5388409
		c0.6837521-0.1492532,1.4106045-0.3631593,2.1800251-0.6411836c0.6411839-0.2349226,1.3033848-0.5555145,1.987669-0.9617757
		c-0.2564735,0.7694205-0.6306744,1.4642143-1.1220703,2.083847c-0.5560493,0.6411836-1.1436234,1.1541307-1.7632561,1.5388408
		c0.6411839-0.1066856,1.2823677-0.2349224,1.9235516-0.3847101C30.65909,3.5906289,31.2682152,3.3772571,31.9950676,3.0776818z"/>
</g>
</svg>
