<?xml version="1.0" encoding="utf-8"?>
<!-- Generator: Adobe Illustrator 19.1.0, SVG Export Plug-In . SVG Version: 6.00 Build 0)  -->
<svg version="1.1" id="Layer_1" xmlns="http://www.w3.org/2000/svg" xmlns:xlink="http://www.w3.org/1999/xlink" x="0px" y="0px"
	 viewBox="294 -294.5606079 610.5600586 610.5606079" style="enable-background:new 294 -294.5606079 610.5600586 610.5606079;"
	 xml:space="preserve">
<style type="text/css">
	.st0{fill:#41B5E8;}
</style>
<path class="st0" d="M599.2797852-294.5606079C430.7992859-294.5606079,294-157.7603302,294,10.7196655
	C294,179.2001953,430.7992859,316,599.2797852,316S904.5600586,179.2001953,904.5600586,10.7196655
	C904.5600586-157.7603302,767.7602539-294.5606079,599.2797852-294.5606079z M599.2797852,282.1591797
	c-149.7597961,0-271.4398804-121.6796875-271.4398804-271.4395142S449.519989-260.7202148,599.2797852-260.7202148
	S870.7192383-139.0401154,870.7192383,10.7196655S749.0395508,282.1591797,599.2797852,282.1591797z"/>
<path class="st0" d="M710.159668-8.0000305h-92.8798828v-173.5204773c0-10.0796051-7.9199219-18.7198181-18.7197266-18.7198181
	c-10.0800781,0-18.7197266,7.9199982-18.7197266,18.7198181V10.7196655l0,0l0,0
	c0,10.0801086,7.9199219,18.7197266,18.7197266,18.7197266H710.159668c10.0802002,0,18.7197266-7.9199219,18.7197266-18.7197266
	C728.159668,0.6395874,720.2398682-8.0000305,710.159668-8.0000305z"/>
</svg>
