<?xml version="1.0" encoding="utf-8"?>
<!-- Generator: Adobe Illustrator 19.2.1, SVG Export Plug-In . SVG Version: 6.00 Build 0)  -->
<svg version="1.1" id="Layer_1" xmlns="http://www.w3.org/2000/svg" xmlns:xlink="http://www.w3.org/1999/xlink" x="0px" y="0px"
	 viewBox="0 0 57 57" style="enable-background:new 0 0 57 57;" xml:space="preserve">
<style type="text/css">
	.st0{fill:#FFFFFF;}
	.st1{fill:#FBBF00;}
	.st2{clip-path:url(#SVGID_2_);}
	.st3{fill:#979797;}
	.st4{fill:#84405C;}
	.st5{fill:#F1DC0F;}
	.st6{fill:#F7C6DB;}
	.st7{fill:#446B8F;}
	.st8{fill:#F1AF23;}
	.st9{fill:#27272A;}
	.st10{fill:#F0AF24;}
	.st11{fill:#124465;}
	.st12{fill:#F6A0C1;}
	.st13{fill:#121649;}
	.st14{fill:#1F1F23;}
	.st15{fill:#F9D9E7;}
	.st16{fill:#FEFEFE;}
	.st17{fill:#373635;}
	.st18{fill:none;stroke:#363636;stroke-width:0.4;stroke-linecap:round;stroke-linejoin:round;stroke-miterlimit:10;}
</style>
<path class="st0" d="M30.2199993,9.4043703c-4.16152-0.0935202-9.3050003-0.7481403-11.5961514,0
	S14.228528,10.6201,13.5739079,12.2098904s2.4314499,3.7406998,2.5717297,4.3485603s-0.0935192,3.9744892,0.0467606,5.3304901
	s0.5143509,2.805521,0.28055,3.2731094c-0.5967741,0.4798317-1.3384008,0.7435207-2.1041403,0.7481403
	c0.2659597-0.5462437,0.5625725-1.0770226,0.8884201-1.5897999c0,0-0.1403275-2.2443905-0.1403275-2.6184902
	s-2.5717297-1.9171104-3.31987-0.7013798s0-4.5355892-0.8884201-5.1434593s-1.8330002-1.12815-2.3237696-0.41078
	c-0.4907694,0.7173691-0.3882303,3.5903797-0.7155399,3.7306499s-0.9819298-0.6074295-0.8884201-1.6830997
	s0.0467601-2.8992596-0.5143499-2.6654606s-1.7992702-1.0286903-2.4660501,0S1.931,16.8861904,1.69716,17.4938393
	s-1.91711,4.067791-1.02869,5.7978611S1.74392,26.5179996,2.67909,27.1259098s2.2911801,6.686491,3.4133801,7.8554592
	s3.8342199,3.9744911,5.5175295,4.1615219s3.6471796-0.2337914,3.9277296,0s-0.2219105,9.9128418-0.2219105,9.9128418
	c-0.6836805,0.8418541-0.5554552,2.0785446,0.2863998,2.7622261c0.1101122,0.0894241,0.2295895,0.1666527,0.3563404,0.2303352
	c2.0106201,1.1222115,10.0998802,3.6004181,12.6716003,3.4601402s11.9234676-1.6833115,15.7576809-4.1147614
	s3.4133797-9.5387688,3.4133797-9.5387688s0.4675903-7.1540794,0.3273087-9.3050003s-6.4527016-7.0137997-6.405941-7.8087006
	s1.0754509-2.8522797,1.1222115-3.9277306c-0.1121368-1.1674595-0.3153763-2.3243637-0.6078606-3.4601402
	c-0.0467606-0.5611,2.1041412-1.9638596,2.4782104-2.8055201c0.3435974-1.0995655-0.0066948-2.2979174-0.8884201-3.0393095
	c-0.9351692-0.7948999-6.5929985-3.2731094-8.6503601-2.8055201C33.5392265,9.0325928,31.8843136,9.2667828,30.2199993,9.4043703z"
	/>
<title>carrier-icon-megabus</title>
<circle class="st1" cx="29.0004902" cy="29" r="25"/>
<g>
	<defs>
		<path id="SVGID_1_" d="M54.0004883,29c0,13.8071175-11.1928825,25-25,25s-25-11.1928825-25-25
			c-9.5029202-6.578949-4.5515399-11.3646889-0.5848-15.7894697C7.9929399,8.1047602,21.6036491,4,29.0004902,4
			C42.8076096,4,54.0004883,15.1928825,54.0004883,29z"/>
	</defs>
	<clipPath id="SVGID_2_">
		<use xlink:href="#SVGID_1_"  style="overflow:visible;"/>
	</clipPath>
	<g class="st2">
		<path class="st3" d="M30.1544704,9.3661938c-0.3171349,0.0710974-0.6342716,0.0741129-0.9514084,0
			C29.5201988,9.3661938,29.8373356,9.3661938,30.1544704,9.3661938z"/>
		<path class="st4" d="M47.7892761,38.6807289c0.0064507-0.2878189-0.0586662-0.5784836,0.0342178-0.8628807
			c0,0.2869339,0,0.5738678,0,0.8608017C47.8122597,38.6821365,47.8008575,38.6828308,47.7892761,38.6807289z"/>
		<path class="st3" d="M47.7892838,38.6807289c0.0115738,0.0021019,0.0229759,0.0014076,0.0342102-0.002079
			c0,0.2567291,0,0.5134583,0,0.7701874c-0.0146179,0.0004196-0.0292282,0.0008354-0.0438461,0.001255
			C47.7828598,39.1936378,47.7860756,38.9371834,47.7892838,38.6807289z"/>
		<path class="st5" d="M6.2309232,27.8043232c0.5872011,0.1664562,1.177002,0.307127,1.7941718,0.3141212
			c1.5397224,0.0174465,2.7099266-0.6438618,3.5571289-1.9095516c0.1420498-0.2122173,0.2871399-0.4231205,0.378253-0.665802
			c0.0420027-0.1118736,0.1283684-0.1674957,0.2191687-0.0516109c0.4647169,0.5931091,0.9331579,1.1841202,1.2321253,1.8862991
			c0.2665033,0.6259327,0.4030333,1.263998,0.1918802,1.9354c-0.0363102,0.1154575-0.0099936,0.2013493,0.0956488,0.2402515
			c0.1166782,0.0429688,0.2051201-0.0087376,0.2449398-0.1312675c0.0917082-0.2822075,0.1411991-0.5723515,0.1226063-0.8679752
			c-0.0094042-0.149538,0.0479422-0.2000923,0.1845131-0.2192135c0.2630234-0.036829,0.4714909,0.0510616,0.6463604,0.2439671
			c0.1861162,0.2053165,0.3132486,0.4440002,0.3894186,0.7067471c0.037919,0.1307964,0.1049013,0.2154102,0.2356167,0.1778202
			c0.1296549-0.0372849,0.1497278-0.1454086,0.1057501-0.2751732c-0.1101551-0.3250179-0.2488689-0.6345119-0.5011806-0.8736763
			c-0.1037617-0.0983524-0.0983725-0.1725941-0.0371723-0.2894306c0.5643263-1.0773315,1.4012136-1.8753433,2.4710493-2.4403877
			c0.4677944-0.2470722,0.9570847-0.439188,1.4559269-0.6130867c0.1845779-0.0643463,0.2543697-0.0357609,0.316782,0.1567192
			c0.3430882,1.0580864,0.8011818,2.0652161,1.4122562,2.9968433c0.2348576,0.358057,0.5008507,0.695694,0.7526779,1.0426388
			c0.0058136,0.0390949,0.011652,0.0781441,0.0669308,0.0698071c0,0-0.0018005,0.0009327-0.0019226,0.0010567
			c-0.0047455,0.0342693,0.0095387,0.0495358,0.0441704,0.0444889c0,0,0.0049973,0.0005379,0.0048199,0.0006313
			c-0.0351086,0.084631,0.0188789,0.1450558,0.0603924,0.2052803c0.5690517,0.8255138,1.2080822,1.5927105,1.950531,2.2673626
			c0.3713703,0.3374577,0.7715664,0.6428776,1.2349243,0.8516788c-0.0335102,0.4847527,0.0743465,0.9526367,0.1791744,1.4192123
			c0.0643425,0.2863884,0.1422882,0.3167343,0.4128551,0.2084808c0.0556316-0.0222588,0.1125221-0.0413704,0.1688271-0.0618858
			c0.017231,0.0726662,0.0372639,0.1447563,0.0512409,0.2180023c0.0862522,0.4520111,0.6158199,0.7850037,1.0291958,0.6046982
			c0.3531322-0.1540222,0.6905994-0.3373032,1.038002-0.5013657c0.2274189-0.107399,0.4584446-0.1835709,0.7162533-0.1692276
			c0.352602,0.019619,0.7055473-0.0131645,1.0592537,0.0429649c0.47612,0.0755539,0.9249134-0.0631866,1.3594074-0.2436485
			c0.1511154-0.062767,0.2758465-0.0465431,0.4259911,0.0215607c0.6580696,0.2984772,1.2884579,0.6574059,1.9705257,0.9036369
			c0.2162819,0.078083,0.4295883,0.1386642,0.6562996,0.0403366c0.3383217-0.1467438,0.5089302-0.4319687,0.6277351-0.7582169
			c0.2467079-0.6774712,0.3533058-1.3793564,0.3586769-2.0984764c0.0007515-0.1010017-0.0280228-0.2061424,0.1437263-0.2189064
			c0.8524323-0.0633678,1.5365181-0.4892006,2.147049-1.0465641c0.6666298-0.6085815,1.1882172-1.3353767,1.6546631-2.103981
			c0.6360855-1.0481319,1.1299858-2.1579075,1.4757805-3.3351593c0.079422-0.2703953,0.0783386-0.5658588,0.2433891-0.8104019
			c2.2571869,1.2933216,4.2028122,2.9059277,5.3977165,5.2834206c0.5095139,1.013773,0.7477112,2.1137791,0.9829063,3.2111988
			c0.2945366,1.3742981,0.4415359,2.7670212,0.4799576,4.1727562c0.0425339,1.5562973-0.0322723,3.1051674-0.2459373,4.6470566
			c-0.0380173,0.274334-0.150753,0.5213547-0.3318672,0.7323608c-0.1931267,0.2250099-0.4158859,0.3671303-0.7379532,0.3653946
			c-0.4889755-0.002636-0.9781799,0.0386276-1.467289,0.0612488c-0.0295677-0.1754341,0.0367546-0.3423882,0.0463753-0.5150757
			c0.0229645-0.4119186,0.0539436-0.8238144,0.0972137-1.2340851c0.0777702-0.7373734,0.0538788-1.4743996-0.0337143-2.2062225
			c-0.0880737-0.7358017-0.2351227-1.4643669-0.3334846-2.1991615c-0.1480522-1.1059608-0.5488434-2.1045685-1.2234001-2.991436
			c-0.1399727-0.1840286-0.2785835-0.3764915-0.4962273-0.485096c-0.0838203-0.0418282-0.1714325-0.0769577-0.257988-0.0270882
			c-0.098484,0.0567474-0.0706139,0.1596107-0.0572205,0.2458725c0.0171967,0.1107826,0.0502129,0.2190781,0.0757332,0.3286057
			c0.0763168,0.3275261,0.2047119,0.6388626,0.1944656,0.990593c-0.0162125,0.5563583-0.0352287,1.1109505-0.0940399,1.6650505
			c-0.0569687,0.5367546-0.1126747,1.0729866-0.22435,1.6016922c-0.2018623,0.9556656-0.5588455,1.8575401-0.9721031,2.7371254
			c-0.6264496,1.3333588-1.4400787,2.5273819-2.5456543,3.524025c-0.901165,0.8123817-1.8733025,1.5112267-2.9515572,2.0585136
			c-1.1901627,0.6040916-2.4407234,1.0649681-3.6983299,1.5072098c-0.3254623,0.1144562-0.6732578,0.1559448-0.9846287,0.3125763
			c-0.8579979,0.0878677-1.7173424,0.0307503-2.5760136,0.0203857c-1.585865-0.0191422-3.1321507-0.2824783-4.6407108-0.7711792
			c-1.7477455-0.566185-3.3211651-1.4527435-4.7573547-2.5900536c-0.2776051-0.2198334-0.5520248-0.4452782-0.8124065-0.6849823
			c-1.0337486-0.9516602-1.660614-2.1412773-1.9791298-3.4949188c-0.3485165-1.4811325-0.1490231-2.9174461,0.415905-4.3151855
			c0.0600414-0.1485481,0.1638527-0.2950668,0.0697803-0.468483c0.1823349-0.3117485,0.3598061-0.6264648,0.5481243-0.9345474
			c0.2785606-0.4557152,0.5662003-0.9058723,0.8470764-1.3601875c0.1028328-0.1663246,0.0963058-0.4838982-0.0180378-0.5748177
			c-0.1686268-0.1340942-0.3230991-0.0790939-0.4916801,0.0328751c-0.4757938,0.3160057-0.9723949,0.6011963-1.4427605,0.9247475
			c-1.0317936,0.7097435-2.1487617,0.9680367-3.3825436,0.7104683c-1.7865973-0.3729668-3.1095295-1.4097977-4.0686731-2.9137535
			c-0.7197113-1.1285191-1.4194531-2.2705593-2.1296453-3.4056377C6.5948343,28.3889732,6.3616686,28.128088,6.2309232,27.8043232z
			 M29.6224842,37.2738075c-0.7822971-0.0000687-1.3798103,0.5933418-1.3783627,1.3689041
			c0.0014381,0.7707977,0.6088161,1.3876228,1.3674393,1.3887138c0.7706013,0.0011063,1.3957233-0.6204987,1.3973064-1.3894539
			C31.0104275,37.8841476,30.3920269,37.2738686,29.6224842,37.2738075z M29.6122723,45.9350281
			c0.7781544,0.0008354,1.3971386-0.6117439,1.3965931-1.3821411c-0.000536-0.7572708-0.6226196-1.3722496-1.3870296-1.3711853
			c-0.7763004,0.0010834-1.3784676,0.6010666-1.3777008,1.3727112
			C28.2449055,45.3324814,28.8411922,45.9342041,29.6122723,45.9350281z"/>
		<path class="st5" d="M15.3046789,12.4024973c-0.1221361-0.243187,0.0189285-0.4068947,0.1830063-0.5465918
			c0.3781395-0.32195,0.8483706-0.4522514,1.3111982-0.5844316c1.2002792-0.3427916,2.4241352-0.5849085,3.6731853-0.5870419
			c1.0678024-0.0018234,2.0872955-0.2702656,3.1268616-0.4309387c1.2078362-0.1866798,2.4213657-0.318099,3.6414032-0.3990526
			c1.1450729-0.0759802,2.2894497-0.1247473,3.4367599-0.0734034c2.0490646,0.0916986,4.0987015,0.1721678,6.1470413,0.2778826
			c0.7491722,0.0386658,1.4595757,0.2976608,2.1785355,0.4906225c1.0993881,0.2950649,2.1900635,0.6232185,3.2053452,1.1528845
			c0.3822174,0.1994028,0.7434158,0.4328871,0.9581261,0.830287c-0.3088837,0.4521646-0.7230949,0.775465-1.2119637,1.0160255
			c-1.0496979,0.516531-2.1748543,0.7915449-3.310276,1.0218267c-0.8071098,0.1636944-1.6236916,0.2828417-2.4384727,0.4057684
			c-0.5185165,0.078229-1.0413361,0.1777172-1.5624771,0.179204c-1.4098587,0.0040255-2.8195496,0.0294743-4.2305088-0.0235033
			c-1.2635937-0.0474443-2.5293369-0.0453138-3.7939987-0.0959215c-0.9313145-0.0372677-1.8641415-0.0003262-2.7923985-0.1369543
			c-0.7929115-0.1167078-1.585659-0.239357-2.388382-0.2865191c-0.6508579-0.0382385-1.300787-0.1026506-1.9487362-0.1764565
			c-0.4685383-0.0533705-0.953661-0.0825377-1.3692017-0.3326893c-0.6378918-0.3840027-1.2553234-0.8018608-1.8901443-1.1911535
			c-0.2853069-0.1749592-0.5446005-0.406826-0.8922606-0.4644499c0,0,0.0014277,0.0017347,0.0014257,0.0017262
			C15.3273888,12.4339046,15.3160343,12.4182014,15.3046789,12.4024973z"/>
		<path class="st6" d="M40.2179413,20.8255997c-0.0785217,0.7742405-0.2695961,1.5270882-0.4345322,2.2848873
			c-0.531601,2.4424572-1.778801,4.4730721-3.5792656,6.1778564c-0.5675697,0.537405-1.2330399,0.93964-1.9381485,1.2761154
			c-0.1353951,0.0646114-0.2108841,0.0557976-0.2248535-0.1103668c-0.0037117-0.044138-0.0244141-0.0867043-0.0359802-0.1303463
			c-0.058979-0.2225647-0.1151123-0.2546768-0.3396721-0.1692123c-0.6544838,0.2490826-1.3073616,0.502388-1.9608936,0.753973
			c-0.0210514,0.0081062-0.0431747,0.0138435-0.0634422,0.0235214c-0.3704853,0.176899-0.7094669,0.2054195-1.1438236,0.0881977
			c-0.7661133-0.2067509-1.5724583-0.2039566-2.2844391,0.2741222c-0.1021938,0.0686188-0.1716557,0.0187263-0.2495079-0.0121822
			c-0.8333759-0.3308468-1.6654205-0.6650372-2.4980316-0.9978199c-0.3117142-0.124588-0.3820972-0.0826054-0.4252815,0.2508965
			c-0.0366154,0.2827415-0.0370522,0.2844143-0.3058968,0.2141514c-1.6115093-0.421175-2.7793598-1.426403-3.6711998-2.7932472
			c-0.9091625-1.3933907-1.4773808-2.9239998-1.8243008-4.543335c-0.1104145-0.5153923-0.263237-1.0213795-0.3424377-1.5436382
			c0.0310669,0.0198498,0.0709076,0.0329704,0.091713,0.0604839c0.2335339,0.3088264,0.5309753,0.4676895,0.9289284,0.4437294
			c0.2925453-0.0176125,0.5871601,0.002552,0.8805542-0.0053024c0.2468281-0.0066071,0.4955883,0.0342064,0.7404995-0.0336285
			c0.6566143-0.1818695,1.3267612-0.2270832,2.004467-0.1920528c0.06007,0.0031052,0.1204319,0.000494,0.1806412,0.0005283
			c0.067976,0.1063004,0.1306133,0.2165298,0.2049313,0.3182182c0.2698746,0.3692722,0.6335373,0.6112251,1.0592442,0.7662888
			c0.0591545,0.3191319,0.334362,0.5288754,0.7039433,0.5463238c0.2492962,0.0117702,0.4964352-0.0094433,0.7408676-0.0478916
			c0.7538948-0.1185875,1.3234577-0.3869419,1.5637264-1.1889648c0.0579205-0.1933498,0.13834-0.2127571,0.3045788-0.2177601
			c0.8212872-0.0247116,1.6398582,0.0798759,2.4604111,0.0466156c0.2758389-0.011179,0.5326633,0.0835876,0.8016987,0.1054382
			c0.0818348,0.006649,0.1539402,0.0589523,0.1874962,0.1460896c0.064043,0.1662922,0.1794758,0.2947083,0.3094711,0.4114971
			c0.0594025,0.0533695,0.0932007,0.1149387,0.0881538,0.1979694c-0.0144691,0.2378979,0.1324005,0.3696651,0.3163872,0.4785118
			c0.2939835,0.1739197,0.6266403,0.211483,0.9526749,0.2404938c0.2266808,0.0201702,0.4739761,0.0727787,0.6895638-0.044796
			c0.4487076-0.2447224,0.9423752-0.4240303,1.3284225-0.7623158c0.3229256-0.2829781,0.6689224-0.3527203,1.0729485-0.320013
			c0.4619675,0.0373974,0.9117851-0.0323219,1.3485756-0.1972504c0.8016243-0.3026829,1.4444046-0.8256187,2.0208893-1.4407101
			C39.9893074,21.0608692,40.0710526,20.9123688,40.2179413,20.8255997z M32.1529694,24.8669167
			c-0.0016174-0.0937862-0.0357132-0.1755219-0.0912247-0.2498131c-0.2397728-0.3208942-0.5307579-0.5915966-0.8333187-0.850956
			c-0.0974102-0.0835018-0.1987228-0.1641331-0.3227921-0.2015533c-0.1463833-0.0441475-0.2502747-0.0199165-0.2559738,0.1693974
			c-0.005146,0.1709118,0.045702,0.3222885,0.1055202,0.4785576c0.1426029,0.3725815,0.3638077,0.7043858,0.5330009,1.0627613
			c-0.0458984,0.0386715-0.0897694,0.0800991-0.1380062,0.115593c-0.5078678,0.3737011-1.0503502,0.6314373-1.7069817,0.6136475
			c-0.5949402-0.0161209-1.0920372-0.2563152-1.5591545-0.5874443c-0.1292973-0.0916519-0.2475033-0.1318226-0.414093-0.1143513
			c-0.3028545,0.0317593-0.6099262,0.0236073-0.7915668-0.2981777c-0.0503521-0.0892029-0.1372814-0.119957-0.2335186-0.0693665
			c-0.0950508,0.0499649-0.1160316,0.1403694-0.0851192,0.2334328c0.0231152,0.0695858,0.0625057,0.1377602,0.1090031,0.1948814
			c0.1859684,0.2284527,0.4422722,0.3159809,0.723259,0.3021908c0.2764244-0.0135689,0.5031185,0.0590458,0.7328873,0.2195721
			c0.459095,0.3207474,0.9804287,0.5000229,1.5446548,0.5028954c0.7069778,0.0035973,1.316494-0.2766228,1.8680725-0.6987591
			c0.1087914-0.0832653,0.2170277-0.141325,0.3613644-0.1626034c0.2440681-0.035984,0.4924889-0.0914898,0.6735802-0.2856636
			c0.087719-0.0940514,0.1849709-0.1936779,0.1013222-0.3367863C32.3871574,24.7560005,32.2648773,24.8395081,32.1529694,24.8669167
			z M32.8741188,27.0869083c0.0935745-0.0479813,0.1886406-0.0932751,0.2804337-0.1444511
			c0.2614784-0.1457748,0.5560493-0.2385235,0.7634964-0.4714222c0.0708313-0.0795174,0.1616669-0.1713829,0.0579491-0.2712021
			c-0.0936775-0.0901566-0.2506104-0.1121387-0.3282318-0.010191c-0.1578636,0.2073402-0.3910599,0.2745285-0.6010437,0.3822727
			c-1.5596066,0.8002338-3.205162,1.0490417-4.9301338,0.7358418c-0.9235477-0.1676865-1.801897-0.476284-2.6394234-0.9008045
			c-0.1090641-0.0552807-0.2351952-0.1113262-0.3240032,0.0144444c-0.0925922,0.131134-0.0009041,0.2226582,0.1089935,0.2940197
			c0.1513596,0.2806854,0.4295578,0.4079876,0.6920357,0.5381393c0.3430519,0.1701088,0.7131863,0.2857037,1.0557442,0.456665
			c0.7597122,0.3791542,1.5639362,0.5573444,2.4062767,0.5935116c0.7989197,0.0342999,1.5436115-0.2017365,2.2833691-0.4571228
			c0.3479156-0.1201096,0.696312-0.2413578,0.9984741-0.4662533C32.8040504,27.3014622,32.8730812,27.2195854,32.8741188,27.0869083
			z M36.8598824,24.791111c0.0993996-0.7376785-0.669384-1.33992-1.2721558-1.3501186
			c-0.7023888-0.0118847-1.3771629,0.6758461-1.3609657,1.293047c0.0198174,0.7551708,0.5805855,1.3242149,1.3154869,1.3572788
			C36.1813622,26.1200695,36.9437408,25.5006142,36.8598824,24.791111z M24.5821762,24.6036205
			c0.10849-0.6647243-0.6124802-1.3295879-1.2228775-1.3444672c-0.8605042-0.0209713-1.3887863,0.6128654-1.3983917,1.3010044
			c-0.0107632,0.7710743,0.6131973,1.3366566,1.2997856,1.3406181
			C24.0313587,25.9052238,24.6592674,25.2597618,24.5821762,24.6036205z M29.8206749,28.9838924
			c-0.3235569,0-0.6471176-0.0004311-0.9706745,0.0002117c-0.1293945,0.0002556-0.2710152-0.0031223-0.3184395,0.149456
			c-0.0471268,0.1516323,0.0365753,0.2453613,0.1659927,0.3291912c0.4697456,0.3042831,0.9932823,0.3180294,1.520277,0.2845993
			c0.2703323-0.0171471,0.5294704-0.1115837,0.7462597-0.285923c0.104269-0.0838509,0.1761837-0.2015305,0.1302013-0.3372421
			c-0.0463791-0.1368828-0.1798306-0.1401882-0.3029461-0.140234
			C30.4677887,28.9838314,30.1442318,28.9839115,29.8206749,28.9838924z M28.9301491,24.5636826
			c0.0257721-0.2547779-0.0193996-0.4883022-0.2481079-0.63521c-0.1935368-0.1243153-0.5563793-0.0702648-0.7414093,0.0883331
			c-0.2336426,0.200264-0.3841438,0.621891-0.3001118,0.840744c0.0863628,0.2249107,0.3323307,0.3650551,0.641901,0.3657322
			c0.3838425,0.0008373,0.5057049-0.0712433,0.6196404-0.3493195
			C28.9444218,24.7705727,28.9225597,24.6664944,28.9301491,24.5636826z"/>
		<path class="st7" d="M33.9048347,58.2000847c-0.6163979-0.0148659-1.1888809-0.2029457-1.7154388-0.5021286
			c-0.7326965-0.4163094-1.380373-0.282692-1.998888,0.2220497c-0.0332584,0.0271378-0.056963,0.0734711-0.1229477,0.0628891
			c0.0696583-0.6627998,0.1407127-1.3257294,0.2083111-1.9890175c0.0243835-0.2392616,0.0456181-0.4790955,0.0586948-0.7191925
			c0.0101433-0.1862106,0.0500431-0.2842216,0.2838802-0.2968445c1.3768406-0.0743103,2.7057304-0.3777885,3.9831924-0.8999138
			c0.0976982-0.0399361,0.2029648-0.0807419,0.2160988-0.2069168c0.0167656-0.1610374-0.1439056-0.2319221-0.3522911-0.1435814
			c-0.6117516,0.2593384-1.2432518,0.4551125-1.8911285,0.5984993c-0.9278507,0.2053452-1.8666248,0.3441658-2.8175449,0.29142
			c-1.2567711-0.069706-2.4929276-0.2713318-3.6829033-0.7051888c-0.1833725-0.0668602-0.3723755-0.1112137-0.5355091-0.2296715
			c-0.1258469-0.0913811-0.2422562-0.0578156-0.3239517,0.077961c-0.1546497,0.1863594-0.1177158,0.410656-0.069788,0.6060333
			c0.2417889,0.9856071,0.5090332,1.9649353,0.7582836,2.9487648c0.0902061,0.356041,0.238327,0.6979103,0.2667999,1.0693054
			c-1.4165077,0.1026497-2.6198788-0.4490395-3.7447376-1.2298203c-0.5018864-0.3483696-0.9691601-0.7402534-1.4054241-1.1701126
			c-0.9961777-0.981514-1.6731491-2.1656075-2.1965904-3.446125c-0.3903484-0.9549332-0.5758018-1.9572258-0.68256-2.9802742
			c-0.0996819-0.9552383-0.2345238-1.9068069-0.3599987-2.9087753c0.187151,0.1973038-0.7948208-2.8161125,0.8143139-1.6200218
			c0.4684963,0.3482399,1.8713055,1.2244987,2.0702381,1.3609161c1.2886295,0.8836517,1.9102802,1.3095398,3.4091816,1.7670288
			c0.9092064,0.277504,1.8348961,0.4671974,2.7715721,0.6133995c0.1410561,0.0220146,0.2838287,0.0508499,0.4253063,0.0483437
			c0.2327232-0.0041313,0.446497,0.0427589,0.6440163,0.1648293c-0.0011311,0.0475693-0.0022125,0.0951271-0.0032902,0.1426811
			c-0.5562553-0.0180206,6.2193718-0.5874023,6.9036942-0.7638092c1.8031044-0.464817,3.4782791-1.2257195,5.055481-2.2092934
			c0.0509224-0.0317497,0.1052818-0.0579834,0.1580582-0.0868111c-0.0015984,0.0733414-0.0032158,0.1467056-0.0048332,0.2200699
			c-0.2944374,0.3508186-0.9426041,2.8857079-0.7180901,2.7655525c-0.0367317,0.3646965-0.1968422,0.6930542-0.3118782,1.033783
			c-0.1442909,0.4273796-0.26577,0.8702507-0.5088654,1.2525826c-0.2986259,0.4696655-0.6297073,0.9192963-0.9579239,1.3694458
			c-0.9756927,1.3381653-1.9859123,2.6520042-2.871788,4.0533943C34.3662186,57.2192802,34.080574,57.6817474,33.9048347,58.2000847
			z"/>
		<path class="st8" d="M15.3373213,12.4478912c0.3476601,0.0576239,0.6069536,0.2894907,0.8922606,0.4644499
			c0.6348209,0.3892927,1.2522526,0.8071508,1.8901443,1.1911535c0.4155407,0.2501516,0.9006634,0.2793188,1.3692017,0.3326893
			c0.6479492,0.0738058,1.2978783,0.1382179,1.9487362,0.1764565c0.8027229,0.0471621,1.5954704,0.1698112,2.388382,0.2865191
			c0.928257,0.1366282,1.861084,0.0996866,2.7923985,0.1369543c1.2646618,0.0506077,2.530405,0.0484772,3.7939987,0.0959215
			c1.4109592,0.0529776,2.8206501,0.0275288,4.2305088,0.0235033c0.5211411-0.0014868,1.0439606-0.100975,1.5624771-0.179204
			c0.8147812-0.1229267,1.6313629-0.242074,2.4384727-0.4057684c1.1354218-0.2302818,2.2605782-0.5052958,3.310276-1.0218267
			c0.4888687-0.2405605,0.90308-0.5638609,1.2119637-1.0160255c0.2713394,0.4958115,0.1459198,0.619854-0.2282677,0.9885435
			c-0.698204,0.6879606-1.4347038,1.337225-2.16045,1.9968882c-0.1169891,0.1063366-0.1718063,0.2175846-0.1601219,0.3745184
			c0.0106163,0.1426487-0.0149231,0.2892151,0.0055771,0.4296608c0.0533905,0.3657475-0.1084709,0.6608009-0.2928162,0.9473305
			c-0.1299095,0.2019138-0.3535576,0.2570972-0.5693207,0.284586c-1.1361084,0.1447449-2.2722855,0.2907619-3.4108849,0.4137154
			c-2.4021759,0.2594032-4.8123646,0.3698902-7.2283249,0.3378963c-1.5083885-0.0199757-3.0127773-0.1051903-4.513628-0.2687016
			c-1.8456764-0.2010784-3.6676178-0.5272369-5.4692497-0.9710407c-0.3544006-0.0873032-0.5756245-0.3292675-0.6629906-0.6730442
			c-0.0486698-0.1915207-0.1379013-0.3447437-0.2616844-0.4900894c-0.9000282-1.0568323-1.7988758-2.1146755-2.6954498-3.1744375
			C15.4471197,12.6441317,15.3572159,12.5673809,15.3373213,12.4478912z"/>
		<path class="st6" d="M3.9186673,22.4512482c0.4720616-0.1465893,0.6042924-0.5238705,0.3322506-1.0014725
			c-0.3579805-0.628479-0.7307606-1.248518-1.0958118-1.8729858c-0.2229745-0.3814259-0.401756-0.7754555-0.3726194-1.2349014
			c0.022841-0.3601742,0.2022142-0.6231327,0.4869988-0.8251686c0.1351871-0.0959072,0.2530153-0.0713444,0.3512726,0.061182
			c0.0860386,0.1160469,0.1488638,0.2439785,0.2011139,0.3779087c0.3358004,0.8607388,0.7990205,1.6541424,1.293637,2.4300079
			c0.101315,0.1589279,0.2322254,0.3041897,0.4279885,0.3507481c0.3673029,0.0873547,0.6759138-0.2297134,0.5749888-0.6365852
			c-0.1063881-0.428896-0.2789021-0.8411007-0.4158201-1.2627773c-0.2185287-0.6730137-0.4778972-1.332653-0.6630731-2.0164986
			c-0.0557604-0.2059212-0.0655136-0.4167061-0.0343266-0.6280079c0.0508389-0.3444462,0.3134265-0.6097269,0.6519651-0.6614027
			c0.2114058-0.0322685,0.3845553,0.0237246,0.5131049,0.2062292c0.1147199,0.1628695,0.186368,0.3424015,0.2414689,0.5314999
			c0.3053861,1.0480385,0.6114955,2.0958652,0.9193664,3.1431732c0.0232153,0.0789738,0.056035,0.1565819,0.0949073,0.2291946
			c0.0872121,0.1629124,0.2199759,0.280035,0.4106464,0.2697277c0.1956544-0.0105762,0.3425431-0.1079388,0.4487462-0.2907181
			c0.3078413-0.5298157,0.3630753-1.127018,0.4816828-1.7074471c0.0934801-0.4574661,0.1767654-0.9170074,0.2656088-1.3754272
			c0.0810566-0.4182415,0.4406452-0.6310253,0.9139338-0.5421638c0.3486452,0.0654583,0.5358763,0.3719196,0.4556055,0.7819538
			c-0.1348085,0.6886158-0.2504845,1.3798256-0.2916689,2.0806351c-0.0549746,0.9354801-0.0625753,1.870018,0.1582289,2.7899742
			c0.0634146,0.2642097,0.1562757,0.5186214,0.3061876,0.7492714c0.3503342,0.5390224,0.846036,0.5896778,1.2955036,0.1245651
			c0.2783575-0.288044,0.5626001-0.5674706,0.8978539-0.7908821c0.4144411-0.2761803,0.8615313-0.2865849,1.3226748-0.1639538
			c0.1907253,0.0507145,0.3091869,0.1878948,0.3428507,0.3806973c0.0351562,0.2013397-0.0643606,0.3419228-0.22826,0.4543133
			c-0.4480524,0.3072414-0.8756323,0.6414165-1.2912378,0.9916401c-0.5136118,0.4328098-0.9576521,0.9167118-1.1990538,1.5578728
			c-0.5851526,0.2932129-1.1407385,0.6429195-1.7382803,0.9122963c-0.474678,0.2139874-0.9613981,0.4088192-1.4840546,0.4404526
			c-0.6854072,0.0414829-1.3634892-0.020155-2.0305152-0.2157211c-1.1931276-0.3498154-1.9461966-1.0982399-2.1779699-2.3337021
			C4.2008204,23.3083954,4.2251353,22.8342361,3.9186673,22.4512482z"/>
		<path class="st9" d="M28.9313526,20.9112663c-2.018013,0-4.0360317-0.002964-6.054039,0.0014782
			c-0.7918854,0.0017452-1.5614986-0.1229-2.2868481-0.4358158c-0.7317944-0.3156986-1.3009262-0.8372211-1.6990547-1.5301151
			c-0.2884083-0.5019436-0.4964066-1.0387287-0.6211681-1.6059303c-0.0147495-0.06707-0.0487518-0.1470013,0.0157356-0.1914062
			c0.0552921-0.0380764,0.0208912-0.2834873,0.0722694-0.2524853c0.3632774,0.2191944,0.8732033,0.5772533,1.2727985,0.670557
			c1.1016426,0.2572269,2.2126007,0.4713669,3.3354244,0.6183014c0.8410892,0.1100655,1.6810417,0.2231445,2.5286179,0.2825832
			c0.6565399,0.0460434,1.3132324,0.0920601,1.9693222,0.1412868c0.5464478,0.0409985,1.0934544-0.0096931,1.6346912,0.0445557
			c0.5079823,0.0509167,1.0140476,0.0409966,1.5199661,0.0328979c0.8590488-0.0137539,1.7180252-0.0488358,2.5762596-0.0907516
			c0.6726074-0.0328503,1.3450623-0.0783272,2.0157204-0.1388721c0.6693382-0.0604267,1.3362427-0.1476021,2.0044212-0.2211456
			c0.5925484-0.0652199,1.1856079-0.1257744,1.7779427-0.1928482c0.1742363-0.0197296,0.3465729-0.0558434,0.5201454-0.0820255
			c0.0676994-0.01021,0.1484337-0.0349712,0.198719,0.0179825c0.0475006,0.0500221-0.0019989,0.1204185-0.0241547,0.1716156
			c-0.4646378,1.073658-1.1995049,1.8839111-2.2959366,2.3376522c-0.5286369,0.2187691-1.0847359,0.3294697-1.6504173,0.3730583
			c-1.4752045,0.1136723-2.9535675,0.0264053-4.4304161,0.0474205
			C30.5181713,20.9205475,29.7246952,20.9112663,28.9313526,20.9112663z"/>
		<path class="st10" d="M31.1953602,48.5058556c0.3113708-0.1566315,0.6591663-0.1981201,0.9846287-0.3125763
			c1.2576065-0.4422417,2.5081673-0.9031181,3.6983299-1.5072098c1.0782547-0.547287,2.0503922-1.2461319,2.9515572-2.0585136
			c1.1055756-0.9966431,1.9192047-2.1906662,2.5456543-3.524025c0.4132576-0.8795853,0.7702408-1.7814598,0.9721031-2.7371254
			c0.1116753-0.5287056,0.1673813-1.0649376,0.22435-1.6016922c0.0588112-0.5541,0.0778275-1.1086922,0.0940399-1.6650505
			c0.0102463-0.3517303-0.1181488-0.6630669-0.1944656-0.990593c-0.0255203-0.1095276-0.0585365-0.217823-0.0757332-0.3286057
			c-0.0133934-0.0862617-0.0412636-0.1891251,0.0572205-0.2458725c0.0865555-0.0498695,0.1741676-0.01474,0.257988,0.0270882
			c0.2176437,0.1086044,0.3562546,0.3010674,0.4962273,0.485096c0.6745567,0.8868675,1.0753479,1.8854752,1.2234001,2.991436
			c0.098362,0.7347946,0.2454109,1.4633598,0.3334846,2.1991615c0.0875931,0.731823,0.1114845,1.4688492,0.0337143,2.2062225
			c-0.0432701,0.4102707-0.0742493,0.8221664-0.0972137,1.2340851c-0.0096207,0.1726875-0.075943,0.3396416-0.0463753,0.5150757
			c-0.4666176,0.0254974-0.9332809,0.0501251-1.3998222,0.076889c-0.2100449,0.0120506-0.1313133-0.0927277-0.0790672-0.1885681
			c0.4483604-0.8224678,0.7322464-1.7005501,0.8875542-2.6222649c0.2280159-1.3531609,0.1200104-2.6900864-0.2005463-4.0151939
			c-0.0849876-0.3513107-0.1953125-0.6964226-0.2863274-1.0463791c-0.0375214-0.1442947-0.1051674-0.2488708-0.2639885-0.1997643
			c-0.1601639,0.0495224-0.1182213,0.1801186-0.0822868,0.3005714c0.2851715,0.9559784,0.5150414,1.925415,0.5676613,2.9238663
			c0.1045952,1.9846115-0.3368111,3.8208199-1.5601349,5.425148c-0.333416,0.4372559-0.7957878,0.738102-1.2260094,1.0667648
			c-1.9661484,1.5020027-4.1400986,2.5793381-6.5527878,3.1560822
			C33.3860626,48.3262749,32.3001747,48.488533,31.1953602,48.5058556z"/>
		<path class="st11" d="M33.9048347,58.2000847c0.1757393-0.5183372,0.4613838-0.9808044,0.7507515-1.438549
			c0.8858757-1.4013901,1.8960953-2.715229,2.871788-4.0533943c0.3282166-0.4501495,0.6592979-0.8997803,0.9579239-1.3694458
			c0.2430954-0.3823318,0.3645744-0.8252029,0.5088654-1.2525826c0.115036-0.3407288,0.2751465-0.6690865,0.3118782-1.033783
			c0.0000038,0-0.0013542,0.0015831-0.0013542,0.0015831c0.0150909-0.0139809,0.0301819-0.0279541,0.0452766-0.0419273
			c0.6784592-0.4631653,1.5222549-1.1457367,2.1656227-1.7333298c0.003006,0.2640533-0.2706413,0.6437836-0.3609695,0.8019562
			c-0.3600731,0.6305237,0.0595436,1.42593,0.6469688,1.7070274c0.1738319,0.0831795,0.1643791,0.1630363,0.1127014,0.305397
			c-0.2938271,0.8094215-0.6782112,1.5750885-1.1019173,2.3229141c-0.5649643,0.9971352-0.8517036,1.8785744-1.5498009,2.7810287
			c-0.7576599,0.9794617-2.0165634,1.8964577-3.1269531,2.4942131
			C35.4372711,58.0671272,34.7012062,58.2617302,33.9048347,58.2000847z"/>
		<path class="st12" d="M40.2179413,20.8255997c-0.1468887,0.0867691-0.2286339,0.2352695-0.3409195,0.3550758
			c-0.5764847,0.6150913-1.219265,1.1380272-2.0208893,1.4407101c-0.4367905,0.1649284-0.8866081,0.2346478-1.3485756,0.1972504
			c-0.404026-0.0327072-0.7500229,0.037035-1.0729485,0.320013c-0.3860474,0.3382854-0.879715,0.5175934-1.3284225,0.7623158
			c-0.2155876,0.1175747-0.462883,0.0649662-0.6895638,0.044796c-0.3260345-0.0290108-0.6586914-0.0665741-0.9526749-0.2404938
			c-0.1839867-0.1088467-0.3308563-0.2406139-0.3163872-0.4785118c0.0050468-0.0830307-0.0287514-0.1445999-0.0881538-0.1979694
			c-0.1299953-0.1167889-0.2454281-0.2452049-0.3094711-0.4114971c-0.033556-0.0871372-0.1056614-0.1394405-0.1874962-0.1460896
			c-0.2690353-0.0218506-0.5258598-0.1166172-0.8016987-0.1054382c-0.8205528,0.0332603-1.6391239-0.0713272-2.4604111-0.0466156
			c-0.1662388,0.005003-0.2466583,0.0244102-0.3045788,0.2177601c-0.2402687,0.8020229-0.8098316,1.0703773-1.5637264,1.1889648
			c-0.2444324,0.0384483-0.4915714,0.0596619-0.7408676,0.0478916c-0.3695812-0.0174484-0.6447887-0.2271919-0.7039146-0.5462971
			c0.0774117-0.0000668,0.1547966-0.0001621,0.2321796-0.0002556c0,0-0.003603-0.0027657-0.0035801-0.0027943
			c0.1256561,0.1005039,0.2719307,0.0291061,0.4072628,0.0488605c0.0867004-0.0456715,0.3009892,0.3195095,0.2760258-0.085722
			c0.3769169-0.10005,0.6793728-0.3183937,0.9348564-0.6036682c0.2025204-0.2261372,0.252615-0.4832401,0.1025639-0.7008572
			c-0.2007751-0.2911835-0.4763756-0.4958382-0.8392601-0.5550022c-0.0625629-0.0163727-0.1237431-0.03512-0.1615219-0.0940571
			c2.2366791,0.0015945,4.4733543,0.003191,6.710041,0.0047836c-0.1822777,0.1282158-0.40131,0.2042789-0.5470314,0.3843365
			c-0.1433239,0.1770935-0.2332954,0.3674355-0.1369019,0.5987701c0.1906433,0.45755,0.8761444,0.9147797,1.3728142,0.9170513
			l0.0192795-0.0000858l0.0179062,0.0071449c0.048851,0.050127,0.1128502,0.0410194,0.1707077,0.0351639
			c0.7269249-0.0735836,1.2599373-0.4466381,1.6322823-1.0644798c0.11269-0.1869946,0.006588-0.3315487-0.1011658-0.4697399
			c-0.1309509-0.1679478-0.3110085-0.2812767-0.4778328-0.4088345c0.6256294-0.010788,1.2470131-0.0373421,1.8646202-0.1695671
			c1.5047302-0.322155,2.6074982-1.1582832,3.2356758-2.5587883c0.1919403-0.4279175,0.4148712-0.7514725,0.8785286-0.8955555
			c0.0021782,0.4542007-0.0729713,0.9129734-0.1111221,1.3740578c-0.0149117,0.1801929-0.0412102,0.359417-0.0580025,0.539484
			c-0.011097,0.1190033,0.0335579,0.2188225,0.1593475,0.2323742c0.1214104,0.0130787,0.1926079-0.0587082,0.2062187-0.1873264
			c0.0698128-0.6595478,0.1477509-1.3183174,0.1738548-1.9817085c0.0038452-0.097723,0.0107994-0.1953926,0.0191002-0.2928486
			c0.0062752-0.0736732-0.0343895-0.1790009,0.0286903-0.2137985c0.0884361-0.0487862,0.1677628,0.0444126,0.2387543,0.0927258
			c0.3188438,0.2169857,0.4363327,0.544672,0.4778442,0.9091339c0.0533867,0.4686832,0.0118484,0.9327679-0.088028,1.390995
			c-0.1730156,0.7937908-0.2335014,1.6107388-0.4999123,2.3854771c-0.1926613,0.5602608-0.4300232,1.094492-0.8330269,1.5394096
			c-0.0590363,0.0651741-0.1114159,0.1430187-0.2306099,0.1773148c0.0906715-0.4021854,0.1764946-0.7896919,0.2655487-1.1764545
			c0.169281-0.7352028,0.2574997-1.4842911,0.3830223-2.2269783c0.0197334-0.1167336-0.0144768-0.2251587-0.1447182-0.2378902
			c-0.1112785-0.0108776-0.1991653,0.0453892-0.2195473,0.1777782
			C40.3055763,20.3532238,40.2598343,20.5891151,40.2179413,20.8255997z"/>
		<path class="st10" d="M6.2309232,27.8043232c0.1307454,0.3237648,0.3639112,0.58465,0.5463672,0.8762627
			c0.7101922,1.1350784,1.409934,2.2771187,2.1296453,3.4056377c0.9591436,1.5039558,2.2820759,2.5407867,4.0686731,2.9137535
			c1.2337818,0.2575684,2.35075-0.0007248,3.3825436-0.7104683c0.4703655-0.3235512,0.9669666-0.6087418,1.4427605-0.9247475
			c0.168581-0.111969,0.3230534-0.1669693,0.4916801-0.0328751c0.1143436,0.0909195,0.1208706,0.408493,0.0180378,0.5748177
			c-0.2808762,0.4543152-0.5685158,0.9044724-0.8470764,1.3601875c-0.1883183,0.3080826-0.3657894,0.6227989-0.5481243,0.9345474
			c-0.1108551-0.0607758-0.2126122-0.0324898-0.3227577,0.0152321c-0.7412586,0.3211861-1.5150614,0.5028381-2.3248568,0.5056343
			c-1.5155096,0.0052299-2.8742695-0.4727364-4.0857038-1.3691444c-1.6930923-1.2528038-2.8957396-2.9069061-3.8547149-4.7572269
			c-0.5108027-0.9855862-0.9336472-2.0087185-1.3118024-3.0509377c-0.0629826-0.173584-0.1368032-0.3519611-0.0649228-0.5676155
			c0.2351565,0.1455536,0.2960124,0.4510536,0.5385776,0.5578537C5.7294092,27.640976,5.9831433,27.7158871,6.2309232,27.8043232z"
			/>
		<path class="st10" d="M40.5767365,24.7193203c-0.1650505,0.2445431-0.1639671,0.5400066-0.2433891,0.8104019
			c-0.3457947,1.1772518-0.839695,2.2870274-1.4757805,3.3351593c-0.4664459,0.7686043-0.9880333,1.4953995-1.6546631,2.103981
			c-0.6105309,0.5573635-1.2946167,0.9831963-2.147049,1.0465641c-0.1717491,0.012764-0.1429749,0.1179047-0.1437263,0.2189064
			c-0.0053711,0.71912-0.111969,1.4210052-0.3586769,2.0984764c-0.1188049,0.3262482-0.2894135,0.6114731-0.6277351,0.7582169
			c-0.2267113,0.0983276-0.4400177,0.0377464-0.6562996-0.0403366c-0.6820679-0.2462311-1.3124561-0.6051598-1.9705257-0.9036369
			c-0.1501446-0.0681038-0.2748756-0.0843277-0.4259911-0.0215607c-0.434494,0.1804619-0.8832874,0.3192024-1.3594074,0.2436485
			c-0.3537064-0.0561295-0.7066517-0.0233459-1.0592537-0.0429649c-0.2578087-0.0143433-0.4888344,0.0618286-0.7162533,0.1692276
			c-0.3474026,0.1640625-0.6848698,0.3473434-1.038002,0.5013657c-0.4133759,0.1803055-0.9429436-0.1526871-1.0291958-0.6046982
			c-0.0139771-0.073246-0.0340099-0.1453362-0.0512409-0.2180023c0.8202114-0.3404236,1.6410465-0.6793022,2.4597683-1.0232239
			c0.094635-0.039753,0.1516819-0.0251274,0.2066574,0.0573311c0.3953304,0.5930252,0.9686642,0.5939178,1.5870361,0.4967613
			c0.1977921-0.0310745,0.4005432-0.0250626,0.5899639-0.1059456c0.1880798-0.0803146,0.3831692-0.1561317,0.5019093-0.3322029
			c0.0842972-0.1249962,0.170929-0.1068802,0.286293-0.0609779c0.7836342,0.3117867,1.5690002,0.6192398,2.3537331,0.9282684
			c0.2773438,0.1092224,0.3349495,0.0811882,0.4186897-0.2023392c0.2690735-0.9110222,0.3304558-1.8351097,0.1707649-2.7721367
			c-0.0187263-0.1099033-0.0044785-0.1772518,0.1117706-0.2284355c2.0363235-0.8965988,3.4263725-2.4640884,4.5036926-4.3534355
			c0.4107018-0.7202568,0.780838-1.4600887,1.064785-2.2496185C40.1171341,24.4387684,40.3512535,24.5710926,40.5767365,24.7193203z
			"/>
		<path class="st11" d="M26.1697044,58.384552c-0.0284729-0.3713951-0.1765938-0.7132645-0.2667999-1.0693054
			c-0.2492504-0.9838295-0.5164948-1.9631577-0.7582836-2.9487648c-0.0479279-0.1953773-0.0848618-0.4196739,0.069788-0.6060333
			c-0.0240707,0.1885796,0.0891132,0.2636261,0.2458649,0.3229332c1.0934391,0.413723,2.2174301,0.6962891,3.3815994,0.8195381
			c0.3207207,0.0339546,0.6401138,0.08498,0.9629726,0.0816498c0.1492329-0.0015373,0.1816139,0.065979,0.1691895,0.1929436
			c-0.0357666,0.365612-0.0673904,0.7316399-0.1046925,1.0970879c-0.038023,0.372551-0.0818787,0.7444992-0.1211605,1.1169243
			c-0.0204334,0.1937027-0.0365143,0.3878593-0.0582085,0.621006c-0.2853661-0.2147903-0.5958328-0.2686729-0.9325085-0.2674789
			c-0.4411716,0.001564-0.850565,0.1219025-1.2408371,0.2954407C27.0834446,58.2331047,26.6282177,58.3079109,26.1697044,58.384552z
			"/>
		<path class="st9" d="M21.5919571,48.5450821c0,0.030201-0.0000019,0.0604057-0.0000019,0.0906067
			c0,0.5334167-0.0058727,0.5442657-0.4850216,0.2848167c-0.6293945-0.3408127-1.2139606-0.7465591-1.7570705-1.2178001
			c-0.6118469-0.530899-1.166338-0.6218796-1.6542778-1.2640495c-0.0766563-0.1008911-0.2596149,0.4630432-0.2085857,0.8793259
			c0.054657,0.4458885,0.1080303,0.8919373,0.1637897,1.3376884c0.0380955,0.3045273,0.2796764,0.8990173,0.3256855,1.2023926
			c0.0298538,0.1968384-0.1643906,0.0876312-0.3782902,0.1956406c-0.1894588,0.0956688-0.3343811,0.0522499-0.5154419-0.1380043
			c-0.2136059-0.2244606-0.217474-0.5250778-0.2829571-0.7949371c-0.2599201-1.0711479-0.5121002-2.1447639-0.7082748-3.2300301
			c-0.0905342-0.5008583-0.2155161-0.9949036-0.2135-1.5122414c0.0023336-0.5992622-0.1592999-0.8451691,0.2827635-1.1967888
			c0.0892792-0.0710144,0.5055695-0.5669289,0.6048126-0.463047c0.6764317,0.708046,1.7235451,2.2778282,2.3353939,3.023632
			c0.6642303,0.8096542,0.8371525,1.1681557,1.7091999,1.7431755c0.1568031,0.1033936,0.316206,0.2081146,0.4870396,0.2836456
			c0.2186928,0.0966949,0.3399105,0.2289009,0.2973404,0.4819374
			C21.5785007,48.3465004,21.5919571,48.4469223,21.5919571,48.5450821z"/>
		<path class="st12" d="M3.9186673,22.4512482c0.306468,0.382988,0.2821531,0.8571472,0.3658943,1.3035278
			c0.2317734,1.2354622,0.9848423,1.9838867,2.1779699,2.3337021c0.667026,0.1955662,1.345108,0.2572041,2.0305152,0.2157211
			c0.5226564-0.0316334,1.0093765-0.2264652,1.4840546-0.4404526c0.5975418-0.2693768,1.1531277-0.6190834,1.7382803-0.9122963
			c-0.4199533,1.8293304-2.268857,3.0191536-3.9988866,2.7856922c-0.6608748-0.0891819-1.3023853-0.2372227-1.9237542-0.4762154
			c-0.0760632-0.0292549-0.1501012-0.0524826-0.2072744-0.1253033c-0.6688824-0.8519535-1.2741261-1.739254-1.5775933-2.7965736
			c-0.0250025-0.0871162-0.0837505-0.1405716-0.1425328-0.1981144c-0.646982-0.6333122-1.301172-1.2594738-1.938362-1.902483
			c-0.2991315-0.3018646-0.4518493-0.6762695-0.3652859-1.111742c0.0347384-0.1747589,0.1245736-0.332365,0.3112669-0.3831787
			c0.1874851-0.0510311,0.3182813,0.0368118,0.4418687,0.18787c0.3390102,0.4143677,0.7008903,0.8099384,1.0453167,1.220005
			C3.509763,22.3295403,3.6865849,22.4367123,3.9186673,22.4512482z"/>
		<path class="st13" d="M20.8386593,56.3409805c0.4970493,0.4223824,0.9869156,0.8414612,1.5215225,1.2049332
			c0.8866005,0.6027756,1.8364582,1.0720367,2.9112396,1.1917229c0.8394394,0.0934677,1.6659813-0.0249672,2.4470558-0.3800278
			c0.3956013-0.1798401,0.8099537-0.2760429,1.2489281-0.2451553c0.083437,0.005867,0.1627522,0.0122528,0.2408867,0.0478706
			c0.4062557,0.1852264,0.4542961,0.3613052,0.1787014,0.695652c-0.8155441,0.9893799-1.8881321,1.5251503-3.1364269,1.6944923
			c-0.704134,0.0955162-1.394062-0.0684738-2.041069-0.3597641c-0.7893867-0.3553963-1.5038414-0.8248634-2.0856819-1.4765244
			C21.5089455,58.025528,21.082346,57.2336807,20.8386593,56.3409805z"/>
		<path class="st13" d="M38.8119202,56.0226097c-0.1665993,0.3324432-0.3233147,0.6703148-0.5019722,0.996151
			c-0.3217621,0.5868301-0.6825218,1.1478882-1.0824165,1.6871758c-0.6940117,0.9359093-1.6239548,1.440506-2.7561569,1.6350327
			c-0.5705643,0.0980377-1.1315918,0.1219864-1.6982346-0.0039215c-0.4111404-0.0913506-0.7721329-0.2922325-1.1275291-0.5041809
			c-0.5256672-0.3134956-0.991272-0.7036934-1.4281845-1.1310081c-0.1177559-0.1151695-0.124794-0.1931496-0.0037594-0.3141785
			c0.3427792-0.3427582,0.7209091-0.5842323,1.2326965-0.5491982c0.1632881,0.0111732,0.3094616,0.0547295,0.4509449,0.1283188
			c0.4081841,0.2123184,0.8246155,0.4024315,1.2741814,0.5138855c1.1755028,0.2914238,2.2635727,0.0436287,3.2911072-0.5418739
			c0.6974907-0.3974457,1.2980003-0.9212151,1.8596191-1.4913025
			C38.4704742,56.2970161,38.5653801,56.0907555,38.8119202,56.0226097z"/>
		<path class="st3" d="M32.1995506,49.6471481c0.0017662,0.6251183,0.0013695,1.2502556,0.0071297,1.8753395
			c0.0011482,0.1247177-0.039711,0.1726151-0.1684303,0.1722832c-1.2581253-0.0032425-2.5162678-0.0028458-3.7743969-0.0005722
			c-0.1138134,0.000206-0.1624966-0.0365677-0.1611538-0.1559486c0.0071125-0.6324692,0.0090599-1.2649956,0.012804-1.89748
			C29.4768562,49.64291,30.8382053,49.6450272,32.1995506,49.6471481z"/>
		<path class="st12" d="M42.4749374,49.0089455c-0.1438637,0.1202316-0.2901268,0.2377396-0.4306755,0.3617287
			c-0.0827446,0.072998-0.1478539,0.0663452-0.2369728,0.0023804c-0.3538361-0.253952-0.4861526-0.6653595-0.3340721-1.0704193
			c0.0396767-0.1056824,0.0876732-0.2094498,0.1151352-0.3183136c0.2345314-0.9296722,0.7744637-1.6863289,1.3706665-2.4080849
			c0.2950592-0.357193,0.2656708-0.8044281,0.3758392-1.2127113c0.0547485-0.2029037,0.0867805-0.4120941,0.1252556-0.6191521
			c0.0136681-0.0735664,0.0343552-0.1225586,0.1240158-0.1266747c0.8486862-0.0389595,1.6972198-0.0812531,2.5842438-0.1244583
			c-0.2435265,0.5260582-0.4381523,1.0440254-0.7075043,1.5289955c-0.5422592,0.0909462-1.0207291,0.313797-1.4050941,0.7108765
			c-0.4501572,0.4650421-0.8520432,0.9765625-1.3302689,1.4142876c-0.4272575,0.3910751-0.4895172,0.8789406-0.4014397,1.4072227
			C42.3499031,48.7095985,42.3255615,48.8911781,42.4749374,49.0089455z"/>
		<path class="st12" d="M23.7230549,22.1429405c-0.0602264-0.0000439-0.1205883,0.0025673-0.1806583-0.0005379
			c-0.6777058-0.0350304-1.3478527,0.0101833-2.004467,0.1920528c-0.2449112,0.0678349-0.4936714,0.0270214-0.7404995,0.0336285
			c-0.2933941,0.0078545-0.5880089-0.01231-0.8805542,0.0053024c-0.397953,0.0239601-0.6953945-0.134903-0.9289284-0.4437294
			c-0.0208054-0.0275135-0.0606461-0.0406342-0.091713-0.0604839c-0.2386627-1.0616684-0.3279934-2.1429462-0.4407425-3.2252712
			c0.0904255-0.0063496,0.0861588,0.0602875,0.1048393,0.0998402c0.7150993,1.5141602,1.9624081,2.2507,3.577858,2.4442368
			c0.7817726,0.0936604,1.5682774,0.0124149,2.3518238,0.0502357c-0.1597309,0.1099854-0.3240299,0.2140026-0.478054,0.3314896
			C23.8254681,21.7119541,23.6947632,21.8891735,23.7230549,22.1429405z"/>
		<path class="st9" d="M37.4486427,48.9838867c0.0000725,0.1132393-0.0128021,0.2282791,0.0027351,0.3393478
			c0.0330734,0.2364388-0.0593605,0.3652496-0.2802887,0.4635925c-0.8745232,0.3892822-1.7627563,0.7348175-2.6953659,0.9601822
			c-0.5323639,0.1286469-1.0726547,0.2116203-1.6124763,0.2981339c-0.1766777,0.0283165-0.2774582-0.008709-0.2681084-0.2318459
			c0.0183144-0.4370995,0.0065422-0.875515,0.0046082-1.3133698c-0.0004425-0.1009369,0.0109978-0.1664467,0.1413231-0.1770821
			c1.4050674-0.1146431,2.774044-0.4047661,4.1075897-0.8617516c0.1352196-0.0463448,0.2705727-0.0931282,0.4027252-0.1473694
			c0.1325531-0.0543976,0.2017632-0.0310478,0.1981468,0.1266251C37.4453773,48.6214409,37.4485703,48.8027,37.4486427,48.9838867z"
			/>
		<path class="st9" d="M23.0371571,48.4378967c0.0929241,0.0368881,0.1896667,0.0781937,0.2883949,0.1140327
			c1.1244183,0.4081764,2.282299,0.6833534,3.4641209,0.8584137c0.236475,0.0350227,0.478487,0.0311394,0.7172165,0.053093
			c0.1482983,0.0136337,0.2415848,0.0306892,0.2174301,0.2556763c-0.0456085,0.4248543-0.0179234,0.857933-0.0142231,1.2875404
			c0.0012798,0.1484871,0.0035725,0.2129135-0.2044106,0.1899452c-1.28549-0.1419983-2.5174465-0.4754829-3.7059517-0.9765015
			c-0.2479515-0.1045227-0.4826908-0.2400284-0.7264671-0.3549995c-0.09618-0.0453606-0.1261806-0.1103973-0.1246891-0.2135277
			c0.005125-0.3542252,0.0004063-0.7085876,0.0035667-1.0628586C22.9526539,48.5315628,22.9186153,48.444519,23.0371571,48.4378967z
			"/>
		<path class="st14" d="M34.0210953,32.3634491c-0.0082397,0.3133125-0.0768204,0.8174934-0.1844406,1.3188591
			c-0.040062,0.1866302-0.1170731,0.2030525-0.2709694,0.1417007c-0.7402306-0.2950897-1.4817848-0.5868874-2.2236099-0.8779678
			c-0.1364689-0.0535469-0.1906338-0.125248-0.1292648-0.2797241c0.1493073-0.3758278,0.1837463-0.7569389-0.0009041-1.1353607
			c-0.0543728-0.1114368,0.0305176-0.1481056,0.10639-0.1774139c0.7584705-0.2930069,1.5191822-0.580267,2.2760296-0.8773766
			c0.1661034-0.0652046,0.2014313,0.0230083,0.2300758,0.147356C33.9412155,31.1305676,34.0273743,31.6415024,34.0210953,32.3634491
			z"/>
		<path class="st14" d="M25.1596489,32.3374901c-0.0414066-0.4482746,0.0520897-0.9993973,0.1024952-1.5528545
			c0.014389-0.1579685,0.0437145-0.2616673,0.2670841-0.1668186c0.7870255,0.3341961,1.5854855,0.6415615,2.3811531,0.9551868
			c0.1094723,0.0431499,0.1722851,0.0801086,0.1262264,0.2206802c-0.0939026,0.2866192-0.0186996,0.5736332,0.0496254,0.8527279
			c0.0322685,0.131813,0.0022221,0.1885796-0.1163368,0.2369804c-0.836731,0.3415985-1.6720276,0.6867409-2.5068417,1.0330124
			c-0.1289482,0.0534859-0.1825466,0.023407-0.2167969-0.118763C25.1387939,33.3515511,25.1648769,32.8995323,25.1596489,32.3374901
			z"/>
		<path class="st9" d="M43.06744,43.8114929c-0.0647621,0.3316612-0.1483803,0.6673698-0.1925583,1.008194
			c-0.0634575,0.489502-0.402092,0.8161736-0.6782036,1.1708336c-0.3036957,0.3900795-0.6103401,1.0044479-0.9723206,1.3411674
			c-0.7258949,0.6752434-1.5159111,1.0680847-2.3887405,1.5547066c-0.1262398,0.0703773-0.1677094,0.0751419-0.1652756-0.0828362
			c0.0047684-0.3091545,0.006958-0.6185875-0.0012779-0.9276009c-0.0035019-0.1314278,0.0448532-0.2026787,0.1599503-0.264473
			c0.967701-0.5195427,1.8355789-1.7824974,2.5611763-2.5892487c0.5053558-0.561882,0.933754-0.6069336,1.3524857-1.2411804
			c0.060791-0.0920792,0.1317635-0.1380844,0.2434158-0.1156731C43.0690002,43.6820259,43.0631218,43.7446709,43.06744,43.8114929z"
			/>
		<path class="st14" d="M29.6918659,31.1522999c0.3527374,0.0035648,0.6312141-0.0105057,0.9067116,0.0828857
			c0.4973927,0.1686077,0.7325516,0.5781059,0.60742,1.0946026c-0.121706,0.5023727-0.3300953,0.927475-0.8783779,1.0939636
			c-0.4230022,0.1284523-0.854353,0.1194649-1.2806263,0.0806084c-0.379509-0.0345917-0.8015594-0.5302925-0.8824005-0.9652748
			c-0.023201-0.1248245-0.0459843-0.2510872-0.0520821-0.3775063c-0.0322552-0.6688423,0.1971684-0.8156357,0.8131676-0.9528255
			C29.2005138,31.1475468,29.4824505,31.1378746,29.6918659,31.1522999z"/>
		<path class="st12" d="M18.9252529,23.7728825c-0.4059372-0.3026524-0.6434174-0.663784-0.8450089-1.0546093
			c-0.3013744-0.5842724-0.4372082-1.2190552-0.54706-1.8574753c-0.116148-0.6750107-0.3230476-1.3333416-0.3656673-2.0217838
			c-0.0207424-0.335062,0.0074577-0.6636677,0.1125278-0.9820442c0.1027699-0.3113995,0.3160286-0.52425,0.6176891-0.6517754
			c0.1125832-0.047596,0.154953-0.0314198,0.1552734,0.1054516c0.0021248,0.9060287,0.0732403,1.807312,0.1751804,2.7077923
			c0.1367645,1.2081108,0.3749371,2.395649,0.6668358,3.5739899C18.9055786,23.6350403,18.9097958,23.6792221,18.9252529,23.7728825
			z"/>
		<path class="st6" d="M42.4749374,49.0089455c-0.1493759-0.1177673-0.1250343-0.2993469-0.1508713-0.4543228
			c-0.0880775-0.5282822-0.0258179-1.0161476,0.4014397-1.4072227c0.4782257-0.4377251,0.8801117-0.9492455,1.3302689-1.4142876
			c0.3843651-0.3970795,0.8628349-0.6199303,1.4050941-0.7108765
			C44.6867409,46.5167999,43.7452431,47.8860054,42.4749374,49.0089455z"/>
		<path class="st11" d="M25.9357681,21.2339687c0.0377789,0.0589371,0.098959,0.0776844,0.1615543,0.0940723
			c0.2327023,0.2019691,0.4037762,0.4403801,0.4320679,0.7575054c0.047617,0.5337334-0.2543144,0.8464947-0.6870384,1.0743999
			l0.0002422,0.0042839c-0.0689659,0.0126476-0.1416378,0.0134754-0.1992188,0.0624485l-0.0092087-0.0069828l-0.0091629,0.0070438
			c-0.1363945-0.0007668-0.2727909-0.0015316-0.4091854-0.0022964c0,0,0.003603,0.0027657,0.0036068,0.0027657
			c-0.0524502-0.0642967-0.1356926-0.0551109-0.2033901-0.0821438c-0.5113258-0.2041798-0.8070145-0.7001381-0.7014999-1.2039394
			c0.0830288-0.3964252,0.371418-0.6167641,0.7076797-0.7905254C25.3307419,21.1344814,25.6381378,21.1307049,25.9357681,21.2339687
			z M25.1731453,21.5122528c-0.1896324,0.0033436-0.275713,0.1119328-0.2700462,0.2741165
			c0.0058098,0.1662502,0.1181507,0.2550831,0.2845669,0.257328c0.1721516,0.0023232,0.3076458-0.1245556,0.2912579-0.2754879
			C25.4589672,21.584444,25.3335152,21.5184155,25.1731453,21.5122528z"/>
		<path class="st11" d="M33.3718758,23.1459694l-0.0179062-0.0071449c0,0-0.0192795,0.0000858-0.01931,0.0000668
			c-0.0560799-0.0718117-0.145977-0.0640984-0.2202606-0.0919971c-0.7507362-0.2819843-0.9606056-1.1117516-0.4264145-1.6881504
			c0.0338211-0.0364895,0.0932426-0.0553532,0.0898247-0.1201382c0.3480339-0.1684036,0.7083969-0.2619991,1.0975609-0.1808739
			c0.0141144,0.0614891,0.0721779,0.0409145,0.1095085,0.0558701c0.7120895,0.2853298,0.8704185,1.1534443,0.3128891,1.6794586
			C34.0337791,23.0421257,33.7069321,23.0980797,33.3718758,23.1459694z M33.423584,21.6697807
			c0.0011864-0.1502914-0.1132011-0.2532005-0.2820969-0.2537937c-0.1641426-0.0005741-0.2995911,0.1258392-0.2899818,0.2790318
			c0.0105209,0.1677608,0.1262894,0.2305374,0.2738609,0.2422981C33.2877197,21.9502563,33.4223633,21.8241882,33.423584,21.6697807
			z"/>
		<path class="st6" d="M32.1995544,49.6471481c-1.3613491-0.002121-2.7226982-0.0042381-4.0840549-0.0063782
			c-0.0239601-0.0946426-0.0896893-0.1720963-0.0433445-0.2908936c0.0453663-0.1162987-0.0450478-0.192234-0.1604671-0.2232704
			c0.0011215-0.0475388,0.002203-0.0950966,0.003334-0.1426659c0.1561527-0.1125069,0.3344021-0.1061935,0.5141716-0.0989761
			c1.1218376,0.0450668,2.2435322,0.0583076,3.3637199-0.036293c0.4141178-0.0349655,0.4142971-0.0399246,0.4133778,0.369236
			C32.2059669,49.3609886,32.2019081,49.5040665,32.1995544,49.6471481z"/>
		<path class="st10" d="M24.8586903,32.6082611c-0.4633579-0.2088013-0.863554-0.5142212-1.2349243-0.8516788
			c-0.7424488-0.6746521-1.3814793-1.4418488-1.950531-2.2673626c-0.0415134-0.0602245-0.0955009-0.1206493-0.0603924-0.2052803
			c0.338665,0.297617,0.6530285,0.6221638,1.0238705,0.8837395c0.6541462,0.4614067,1.3648911,0.7958755,2.1457367,0.9730091
			c0.1296406,0.0294075,0.1790371,0.0715523,0.158699,0.2065773C24.878233,31.7649536,24.8805046,32.1875153,24.8586903,32.6082611z
			"/>
		<path class="st15" d="M33.3718758,23.1459694c0.3350563-0.0478897,0.6619034-0.1038437,0.9258919-0.3529091
			c0.5575294-0.5260143,0.3992004-1.3941288-0.3128891-1.6794586c-0.0373306-0.0149555-0.0953941,0.005619-0.1095085-0.0558701
			c0.2652588-0.0402031,0.4929237,0.0698109,0.7204781,0.1803455c0.1668434,0.1275597,0.3469009,0.2408886,0.4778519,0.4088364
			c0.1077538,0.1381912,0.2138557,0.2827454,0.1011658,0.4697399c-0.372345,0.6178417-0.9053574,0.9908962-1.6322823,1.0644798
			C33.484726,23.1869888,33.4207268,23.1960964,33.3718758,23.1459694z"/>
		<path class="st15" d="M25.0222149,21.1506004c-0.3362617,0.1737614-0.624651,0.3941002-0.7076797,0.7905254
			c-0.1055145,0.5038013,0.1901741,0.9997597,0.7014999,1.2039394c0.0676975,0.0270329,0.1509399,0.0178471,0.2033901,0.0821438
			c-0.0773869,0.0000935-0.1547718,0.0001888-0.2321835,0.0002556c-0.4257355-0.1550903-0.7893982-0.3970432-1.0592728-0.7663155
			c-0.0743179-0.1016884-0.1369553-0.2119179-0.2049313-0.3182182c-0.0282745-0.2537575,0.1024303-0.4309769,0.2889214-0.5732269
			c0.1540241-0.117487,0.3183231-0.2215042,0.478054-0.3314896C24.6660309,21.2006836,24.8344135,21.1166592,25.0222149,21.1506004z
			"/>
		<path class="st15" d="M32.7778091,21.2386055c0.003418,0.064785-0.0560036,0.0836487-0.0898247,0.1201382
			c-0.5341911,0.5763988-0.3243217,1.4061661,0.4264145,1.6881504c0.0742836,0.0278988,0.1641808,0.0201855,0.2202606,0.0919971
			c-0.4966393-0.0022526-1.1821404-0.4594822-1.3727837-0.9170322c-0.0963936-0.2313347-0.006422-0.4216766,0.1369019-0.5987701
			c0.1457214-0.1800575,0.3647537-0.2561207,0.5470314-0.3843365
			C32.6898041,21.2387028,32.7338066,21.2386532,32.7778091,21.2386055z"/>
		<path class="st11" d="M40.0241318,46.2867775c0.0016174-0.0733643,0.0032349-0.1467285,0.0048332-0.2200699
			c0.2008209-0.1543083,0.4013939-0.3090591,0.6354065-0.4122581l0.0023956,0.0027351
			C40.5144691,45.9302444,40.2856636,46.1252136,40.0241318,46.2867775z"/>
		<path class="st11" d="M40.6643715,45.6544456c0.0165443-0.0112762,0.0330887-0.0225487,0.0496368-0.0338211
			c0.0039711,0.0058327,0.0079422,0.0116653,0.0119133,0.017498c-0.0197334,0.0063362-0.0394707,0.0126724-0.0591774,0.0190353
			C40.6667671,45.6571846,40.6643715,45.6544495,40.6643715,45.6544456z"/>
		<path class="st10" d="M21.5657749,29.2377625c-0.0552788,0.008337-0.0611172-0.0307121-0.0669308-0.0698071
			C21.5444794,29.1688404,21.5577965,29.2007389,21.5657749,29.2377625z"/>
		<path class="st16" d="M16.3629189,36.7112007c0.0181637-0.0046768,0.0363274-0.0093536,0.054491-0.0140305
			c-0.0010262,0.0185242-0.0020523,0.0370445-0.003027,0.0555763
			C16.3972626,36.7389069,16.3800907,36.7250519,16.3629189,36.7112007z"/>
		<path class="st10" d="M21.6080227,29.283308c-0.0346317,0.0050468-0.0489159-0.0102196-0.0441704-0.0444889
			C21.5786572,29.2535667,21.5933399,29.2684383,21.6080227,29.283308z"/>
		<path class="st7" d="M39.3499641,49.0119858c-0.0150948,0.0139732-0.0301857,0.0279465-0.0452766,0.0419273
			C39.3197784,49.0399399,39.3348694,49.0259628,39.3499641,49.0119858z"/>
		<path class="st8" d="M15.3046789,12.4024973c0.0113554,0.0157042,0.0227098,0.0314074,0.0340681,0.0471201
			C15.3273926,12.433917,15.3160362,12.4182072,15.3046789,12.4024973z"/>
		<path class="st17" d="M29.6224842,37.2738075c0.7695427,0.000061,1.3879433,0.6103401,1.3863831,1.3681641
			c-0.0015831,0.7689552-0.6267052,1.3905602-1.3973064,1.3894539c-0.7586231-0.001091-1.3660011-0.6179161-1.3674393-1.3887138
			C28.2426739,37.8671494,28.8401871,37.2737389,29.6224842,37.2738075z M29.5428009,38.1146355
			c-0.0004311-0.2005539-0.175436-0.363308-0.3828392-0.356041c-0.1532993,0.0053711-0.3724136,0.2359505-0.3712597,0.390686
			c0.0016861,0.2266502,0.1597767,0.3880005,0.3776741,0.3854713C29.3776436,38.532299,29.5433025,38.3474121,29.5428009,38.1146355
			z"/>
		<path class="st17" d="M29.6122723,45.9350281c-0.77108-0.000824-1.3673668-0.6025467-1.3681374-1.3806152
			c-0.0007668-0.7716446,0.6014004-1.3716278,1.3777008-1.3727112c0.76441-0.0010643,1.3864937,0.6139145,1.3870296,1.3711853
			C31.0094109,45.3232841,30.3904266,45.9358635,29.6122723,45.9350281z M29.22785,43.7021217
			c-0.2309723-0.0019875-0.339035,0.1074486-0.3416004,0.3459473c-0.0028725,0.2668648,0.1251202,0.4232826,0.3512764,0.4293022
			c0.2248707,0.0059814,0.3969364-0.1772423,0.3958893-0.4215698C29.6324863,43.8392677,29.4776897,43.7042732,29.22785,43.7021217z
			"/>
		<path class="st15" d="M36.8598824,24.791111c0.0838585,0.7095032-0.6785202,1.3289585-1.3176346,1.3002071
			c-0.7349014-0.0330639-1.2956696-0.602108-1.3154869-1.3572788c-0.0161972-0.6172009,0.658577-1.3049316,1.3609657-1.293047
			C36.1904984,23.4511909,36.9592819,24.0534325,36.8598824,24.791111z"/>
		<path class="st15" d="M24.5821762,24.6036205c0.0770912,0.6561413-0.5508175,1.3016033-1.3214836,1.2971554
			c-0.6865883-0.0039616-1.3105488-0.5695438-1.2997856-1.3406181c0.0096054-0.688139,0.5378876-1.3219757,1.3983917-1.3010044
			C23.969696,23.2740326,24.6906662,23.9388962,24.5821762,24.6036205z"/>
		<path class="st4" d="M25.2621555,26.715416c-0.1098976-0.0713615-0.2015858-0.1628857-0.1089935-0.2940197
			c0.0888081-0.1257706,0.2149391-0.069725,0.3240032-0.0144444c0.8375263,0.4245205,1.7158756,0.7331181,2.6394234,0.9008045
			c1.7249718,0.3132,3.3705273,0.0643921,4.9301338-0.7358418c0.2099838-0.1077442,0.4431801-0.1749325,0.6010437-0.3822727
			c0.0776215-0.1019478,0.2345543-0.0799656,0.3282318,0.010191c0.1037178,0.0998192,0.0128822,0.1916847-0.0579491,0.2712021
			c-0.2074471,0.2328987-0.502018,0.3256474-0.7634964,0.4714222c-0.0917931,0.0511761-0.1868591,0.0964699-0.2804337,0.1444435
			c-0.9484253,0.4023476-1.9304104,0.6686859-2.963728,0.7181721c-0.9869041,0.047266-1.9462261-0.1079159-2.8903675-0.3910427
			C26.4127121,27.2319088,25.8422623,26.9628525,25.2621555,26.715416z"/>
		<path class="st12" d="M25.2621555,26.715416c0.5801067,0.2474365,1.1505566,0.5164928,1.7578678,0.6986141
			c0.9441414,0.2831268,1.9034634,0.4383087,2.8903675,0.3910427c1.0333176-0.0494862,2.0153027-0.3158245,2.963728-0.7181721
			c-0.0010376,0.1326847-0.0700684,0.2145615-0.1760635,0.2934551c-0.3021622,0.2248955-0.6505585,0.3461437-0.9984741,0.4662533
			c-0.7397575,0.2553864-1.4844494,0.4914227-2.2833691,0.4571228c-0.8423405-0.0361671-1.6465645-0.2143574-2.4062767-0.5935116
			c-0.3425579-0.1709614-0.7126923-0.2865562-1.0557442-0.456665C25.6917133,27.1234035,25.4135151,26.9961014,25.2621555,26.715416
			z"/>
		<path class="st3" d="M32.1529808,24.866991c0.1118965-0.027483,0.2341766-0.1109905,0.3209038,0.0373802
			c0.0836487,0.1431084-0.0136032,0.2427349-0.1013222,0.3367863c-0.1810913,0.1941738-0.429512,0.2496796-0.6735802,0.2856636
			c-0.1443367,0.0212784-0.252573,0.0793381-0.3613644,0.1626034c-0.5515785,0.4221363-1.1610947,0.7023563-1.8680725,0.6987591
			c-0.5642262-0.0028725-1.0855598-0.182148-1.5446548-0.5028954c-0.2297688-0.1605263-0.4564629-0.2331409-0.7328873-0.2195721
			c-0.2809868,0.0137901-0.5372906-0.0737381-0.723259-0.3021908c-0.0464973-0.0571213-0.0858879-0.1252956-0.1090031-0.1948814
			c-0.0309124-0.0930634-0.0099316-0.1834679,0.0851192-0.2334328c0.0962372-0.0505905,0.1831665-0.0198364,0.2335186,0.0693665
			c0.1816406,0.321785,0.4887123,0.329937,0.7915668,0.2981777c0.1665897-0.0174713,0.2847958,0.0226994,0.414093,0.1143513
			c0.4671173,0.3311291,0.9642143,0.5713234,1.5591545,0.5874443c0.6566315,0.0177898,1.1991138-0.2399464,1.7069817-0.6136475
			c0.0482368-0.0354939,0.0921078-0.0769215,0.1380119-0.1156578c0.0775509-0.0589294,0.1605148-0.0876026,0.2619019-0.0969391
			c0.2035198-0.0187435,0.4101734-0.0482025,0.5584431-0.2171497c0.0352364-0.0241604,0.0512009-0.0565968,0.0427322-0.0995216
			L32.1529808,24.866991z"/>
		<path class="st12" d="M29.8206749,28.9839039c0.3235569,0.0000076,0.6471138-0.0000725,0.9706707,0.0000477
			c0.1231155,0.0000458,0.256567,0.0033512,0.3029461,0.140234c0.0459824,0.1357117-0.0259323,0.2533913-0.1302013,0.3372421
			c-0.2167892,0.1743393-0.4759274,0.2687759-0.7462597,0.285923c-0.5269947,0.0334301-1.0505314,0.0196838-1.520277-0.2845993
			c-0.1294174-0.0838299-0.2131195-0.1775589-0.1659927-0.3291912c0.0474243-0.1525784,0.189045-0.1492004,0.3184395-0.149456
			C29.1735573,28.9834614,29.497118,28.9838924,29.8206749,28.9839039z"/>
		<path class="st15" d="M28.9301491,24.5636826c-0.0075893,0.1028118,0.0142727,0.2068901-0.0280876,0.3102798
			c-0.1139355,0.2780762-0.2357979,0.3501568-0.6196404,0.3493195c-0.3095703-0.0006771-0.5555382-0.1408215-0.641901-0.3657322
			c-0.0840321-0.218853,0.0664692-0.64048,0.3001118-0.840744c0.18503-0.1585979,0.5478725-0.2126484,0.7414093-0.0883331
			C28.9107494,24.0753803,28.9559212,24.3089046,28.9301491,24.5636826z"/>
		<path class="st12" d="M32.108532,24.9611568c-0.1482697,0.1689472-0.3549232,0.1984062-0.5584431,0.2171497
			c-0.101387,0.0093365-0.184351,0.0380096-0.2619019,0.096941c-0.169199-0.3583126-0.3904037-0.6901169-0.5330067-1.0626984
			c-0.0598183-0.1562691-0.1106663-0.3076458-0.1055202-0.4785576c0.0056992-0.1893139,0.1095905-0.2135448,0.2559738-0.1693974
			c0.1240692,0.0374203,0.2253819,0.1180515,0.3227921,0.2015533c0.3025608,0.2593594,0.5935459,0.5300617,0.8333187,0.850956
			c0.0555115,0.0742912,0.0896072,0.1560268,0.0912323,0.2498512c0.0000038,0.0000362-0.0017128-0.0053196-0.001709-0.0053043
			C32.1068573,24.8818722,32.1023102,24.9192028,32.108532,24.9611568z"/>
		<path class="st15" d="M25.8423519,23.1599464c0.432724-0.2279053,0.7346554-0.5406666,0.6870384-1.0743999
			c-0.0282917-0.3171253-0.1993656-0.5555363-0.4320679-0.7575054c0.3628521,0.0591488,0.6384525,0.2638035,0.8392277,0.554987
			c0.1500511,0.217617,0.0999565,0.47472-0.1025639,0.7008572c-0.2554836,0.2852745-0.5579395,0.5036182-0.9348907,0.6036339
			C25.8801613,23.1783047,25.8612576,23.1691246,25.8423519,23.1599464z"/>
		<path class="st6" d="M25.8423519,23.1599464c0.0189056,0.0091782,0.0378094,0.0183582,0.0567436,0.0275726
			c0.0249977,0.4052658-0.189291,0.0400848-0.2759838,0.0857716c0.0006371-0.0155048,0.0012646-0.0310287,0.0018921-0.0465508
			l0.0091629-0.0070438c0,0,0.0092087,0.0069828,0.0092564,0.0069637c0.0689163-0.0128651,0.1592255,0.0426979,0.1991711-0.0624294
			L25.8423519,23.1599464z"/>
		<path class="st15" d="M25.6250038,23.2267399c-0.0006275,0.015522-0.001255,0.0310459-0.0018921,0.0465508
			c-0.1353397-0.0197697-0.2816143,0.0516281-0.4072704-0.0488758
			C25.3522129,23.2252083,25.4886093,23.2259731,25.6250038,23.2267399z"/>
		<path class="st15" d="M25.1731453,21.5122528c0.1603699,0.0061626,0.2858219,0.0721912,0.3057785,0.2559566
			c0.0163879,0.1509323-0.1191063,0.2778111-0.2912579,0.2754879c-0.1664162-0.0022449-0.2787571-0.0910778-0.2845669-0.257328
			C24.8974323,21.6241856,24.9835129,21.5155964,25.1731453,21.5122528z"/>
		<path class="st15" d="M25.8425941,23.1642303c-0.0399456,0.1051273-0.1302547,0.0495644-0.1991711,0.0624294
			C25.7009563,23.1777058,25.7736282,23.176878,25.8425941,23.1642303z"/>
		<path class="st16" d="M33.423584,21.6697807c-0.0012207,0.1544075-0.1358643,0.2804756-0.2982178,0.2675362
			c-0.1475716-0.0117607-0.26334-0.0745373-0.2738609-0.2422981c-0.0096092-0.1531925,0.1258392-0.2796059,0.2899818-0.2790318
			C33.3103828,21.4165802,33.4247704,21.5194893,33.423584,21.6697807z"/>
		<path class="st16" d="M29.5428009,38.1146355c0.0005016,0.2327766-0.1651573,0.4176636-0.3764248,0.4201164
			c-0.2178974,0.0025291-0.375988-0.1588211-0.3776741-0.3854713c-0.0011539-0.1547356,0.2179604-0.3853149,0.3712597-0.390686
			C29.3673649,37.7513275,29.5423698,37.9140816,29.5428009,38.1146355z"/>
		<path class="st16" d="M29.22785,43.7021217c0.2498398,0.0021515,0.4046364,0.137146,0.4055653,0.3536797
			c0.0010471,0.2443275-0.1710186,0.4275513-0.3958893,0.4215698c-0.2261562-0.0060196-0.3541489-0.1624374-0.3512764-0.4293022
			C28.8888149,43.8095703,28.9968777,43.7001343,29.22785,43.7021217z"/>
		<path class="st6" d="M32.108532,24.9611568c-0.0062218-0.041954-0.0016747-0.0792847,0.0427361-0.0995064
			C32.1597328,24.9045601,32.1437683,24.9369965,32.108532,24.9611568z"/>
		<g>
			<path class="st18" d="M40.5855865,19.5586548c0.0600014-0.5900002,0.1223488-1.179781,0.1774635-1.770237
				c0.0082397-0.0882969,0.0120544-0.1998672-0.0329895-0.2659988c-0.1358032-0.1993847-0.0512886-0.380003,0.0429573-0.5393696
				c0.0689812-0.1166382,0.0713921-0.207819,0.060688-0.3350773c-0.0174561-0.2074718-0.0371971-0.416214-0.0184326-0.6302223
				c0.0175247-0.199831,0.0827141-0.3499155,0.2206535-0.4787302c0.5791931-0.5408669,1.1595192-1.0805168,1.7397766-1.6202383
				c0.119194-0.1108675,0.2390213-0.2210817,0.3600349-0.3299561c0.4482956-0.4033241,0.4866066-0.7572632,0.0869675-1.3181181
				c-0.3625259-0.508769-0.9172211-0.750349-1.4669571-0.9924164c-1.435997-0.6323223-2.9446983-1.0283632-4.4719772-1.3561974
				c-0.2598572-0.0557804-0.5337753-0.0825043-0.8080635-0.0887766c-1.2811508-0.0292969-2.560936-0.0933132-3.840641-0.1654472
				c-0.5584564-0.0314798-1.1196213-0.0442619-1.6796017-0.0660915c-0.6094646-0.0237589-1.2206097-0.0466194-1.82971-0.0277023
				c-0.9506359,0.0295238-1.9013977,0.0783224-2.8497601,0.1499968c-0.6920929,0.0523062-1.3829079,0.1376686-2.0697327,0.2391586
				c-0.7429886,0.1097889-1.4796486,0.261692-2.2210369,0.3832245c-0.4961262,0.0813284-0.9942589,0.1510477-1.4996357,0.1531591
				c-1.5870228,0.0066309-3.1121521,0.3316984-4.5905828,0.8975277c-0.2301388,0.0880795-0.4143372,0.2341785-0.6028242,0.3873243
				c-0.2701874,0.2195253-0.3008747,0.5397863-0.0509014,0.869875c0.316432,0.4178476,0.6730328,0.8054028,1.0145855,1.204073
				c0.609005,0.7108507,1.2232819,1.4172268,1.8278236,2.1318436c0.2170773,0.2566023,0.2213955,0.58253,0.2418957,0.8983965"/>
			<path class="st18" d="M40.6155853,17.3686543c-0.2999153,0.0808125-0.4998398,0.3362522-0.7808571,0.4478436
				c-0.1064682,0.0422802-0.0902443,0.1352825-0.1195564,0.211998c-0.646122,1.6913147-1.8585129,2.6556149-3.6582756,2.9191189
				c-0.7558212,0.1106606-1.502243,0.0905762-2.2502747,0.011261c-0.2366371-0.0250912-0.4727287-0.0189114-0.688385,0.0233192
				c-0.3521767,0.0689678-0.7003479,0.0758629-1.0526505,0.0760307c-1.8899994,0.000906-3.7800083,0.0035877-5.6699905-0.002285
				c-0.3700581-0.0011501-0.7405415-0.0607471-1.1098976-0.0523834c-0.7600136,0.0172062-1.518774,0.0750408-2.2801495,0.0566883
				c-0.7738228-0.0186501-1.5297127-0.127039-2.2495327-0.4226398c-0.8429756-0.3461781-1.4660702-0.936388-1.8894615-1.7394619
				c-0.1118259-0.2121029-0.1984482-0.4402943-0.420969-0.5694885"/>
			<path class="st18" d="M39.7455864,17.8786545c-0.1621742-0.086544-0.3075485-0.1224098-0.5132942-0.0739975
				c-0.3784599,0.0890541-0.7774582,0.0878448-1.1665344,0.1354122c-0.6106529,0.0746632-1.2182579,0.1836338-1.8307991,0.230381
				c-0.4608612,0.0351715-0.9187698,0.0961857-1.3794403,0.1272163c-0.9397774,0.0633011-1.8796654,0.1257648-2.8200836,0.1782722
				c-0.3090363,0.0172539-0.6200905-0.0052299-0.9298038,0.0041714c-1.0205574,0.0309811-2.0406837,0.0075684-3.0599213-0.0344143
				c-1.1827049-0.0487156-2.3630962-0.124752-3.5411243-0.2582092c-0.9130077-0.1034317-1.8236046-0.2210388-2.7278194-0.3757267
				c-0.8654652-0.1480579-1.7229881-0.3451061-2.5798683-0.5389023c-0.206358-0.0466709-0.4126358-0.1327133-0.572298-0.2932205
				c-0.0719872-0.0723648-0.1876087-0.1077957-0.2663517-0.0826454c-0.1313725,0.0419559-0.0994873,0.1850948-0.0903835,0.2914677
				c0.0231514,0.270586,0.045208,0.5423832,0.0919266,0.8094597c0.0336075,0.1921329,0.0165958,0.352026-0.0445175,0.5469093
				c-0.0733337,0.2338676-0.0150414,0.515543,0.0137959,0.7734375c0.0471191,0.4214401,0.1294994,0.8390255,0.1737442,1.2606792
				c0.0853043,0.8129158,0.2806587,1.6036263,0.447361,2.4008408c0.0636272,0.3042889,0.2292004,0.6003151,0.125412,0.9288692"/>
			<path class="st18" d="M39.8955879,24.0586548c0.537117,0.3776875,1.1317253,0.6620178,1.6781311,1.0228291
				c1.6704483,1.1030579,3.1544533,2.3966351,4.2046356,4.135498c0.5700378,0.943861,0.8997269,1.9757786,1.163868,3.0325146
				c0.2000656,0.8003807,0.3625984,1.6106453,0.4641914,2.4296761c0.0852814,0.6874847,0.1513519,1.3785133,0.1903343,2.0699806
				c0.014679,0.2603416,0.0034599,1.2078476,0.0071106,1.4995232c0.0062599,0.4999237,0.0309792,1.0021439-0.0058479,1.4994164
				c-0.0437584,0.5907631-0.0650864,1.1837654-0.1608162,1.7724533c-0.0451965,0.277916-0.0516891,0.5642052-0.1321983,0.8379364
				c-0.138298,0.4702339-0.4731407,0.753418-0.8956337,0.9676208c-0.0956688,0.0485001-0.1437798-0.0077858-0.2137756-0.0079002
				c-0.762207-0.0012016-1.5208511,0.0609779-2.2808876,0.1052132c-0.3126526,0.0181961-0.6457672,0.2082558-0.9591141-0.0147629"/>
			<path class="st18" d="M4.915586,26.7586536c-0.2272167,0.2087975-0.198175,0.4841709-0.1118655,0.7169857
				c0.2852035,0.7693119,0.5807085,1.5351067,0.9185729,2.2845001c0.5414248,1.2008934,1.1957479,2.3351173,1.9868574,3.3858299
				c0.7653413,1.0164909,1.6603684,1.9086914,2.7282748,2.6098824c0.8496532,0.557888,1.7858095,0.9186249,2.7888422,1.0785255
				c0.9979715,0.1590958,1.9819355,0.0585327,2.9380312-0.269474c0.1885891-0.0646973,0.4196224,0.0261841,0.5712872-0.1612473"/>
			<path class="st18" d="M3.385586,17.2786541c-0.4216018,0.109745-0.752228,0.5584106-0.7833335,1.0197754
				c-0.0311463,0.4619656,0.1107907,0.872261,0.3351464,1.2591743c0.3733485,0.643858,0.7582107,1.2810364,1.1381774,1.9210567
				c0.1915011,0.322567,0.1974196,0.4892578,0.0305429,0.6605129c-0.133393,0.1368923-0.2613039,0.1572418-0.4225786,0.0321178
				c-0.2332828-0.1809902-0.4070094-0.4138775-0.5984075-0.6322403c-0.2381115-0.2716541-0.4727621-0.546833-0.7212698-0.8087616
				c-0.3088839-0.3255653-0.7408272-0.2393875-0.9276193,0.1786594c-0.1993845,0.4462261-0.0637465,0.8544827,0.1853968,1.2256413
				c0.1361011,0.202755,0.3290814,0.3689747,0.5048864,0.5431137c0.4672294,0.4627972,0.9138925,0.9513264,1.4185851,1.3694534
				c0.2983015,0.2471352,0.3602965,0.5836868,0.4867911,0.8871994c0.1795244,0.4307537,0.4016199,0.8305607,0.6428375,1.2248135
				c0.0865746,0.1415005,0.1933002,0.2768555,0.209259,0.4496307c0.0124464,0.1347446,0.1608782,0.1289597,0.2084532,0.2116547
				c0.3747978,0.6515064,1.0438299,0.7686329,1.6839437,0.9248772c0.76261,0.1861458,1.5266867,0.2681599,2.3106222,0.0689621
				c1.142211-0.2902336,1.9417639-0.9920158,2.516881-1.9866161c0.1117268-0.1932182,0.2011595-0.3992901,0.3022203-0.598753
				c0.0161819-0.0319347,0.0601835-0.0632191,0.0563955-0.0898342c-0.0703688-0.4944324,0.2674713-0.7977581,0.5487213-1.1052685
				c0.4762115-0.5206757,1.0396585-0.9466667,1.6137619-1.3559914c0.1041136-0.0742321,0.1999426-0.1599979,0.3007011-0.2390308
				c0.3875828-0.3040085,0.1810608-0.8966675-0.2077599-1.0271606c-0.5448809-0.1828709-1.0478973-0.1514797-1.5322752,0.1571388
				c-0.3505058,0.2233219-0.661025,0.4987087-0.9252129,0.8139534c-0.3158255,0.3768616-0.8390245,0.292469-1.0628004-0.1500664
				c-0.1948709-0.3853722-0.280015-0.7903614-0.3507767-1.2042313c-0.1156673-0.6765118-0.0666847-1.3602333-0.0542059-2.03965
				c0.0124273-0.6766739,0.1236734-1.3478832,0.2676182-2.0091076c0.099164-0.4555168,0.0100918-0.8866825-0.2747002-1.0810232
				c-0.2683001-0.1830864-0.7967348-0.1397533-1.1125002,0.0559692c-0.3137264,0.1944571-0.3201122,0.5220461-0.3814335,0.8153009
				c-0.1392593,0.6659718-0.2349167,1.3410206-0.3717718,2.0075588c-0.0518713,0.2526302-0.1638088,0.4914093-0.2855473,0.7257175
				c-0.0762205,0.1466999-0.183856,0.1972675-0.3087955,0.1980667c-0.1271858,0.0008144-0.1922669-0.0975647-0.2474537-0.229475
				c-0.1513925-0.3618641-0.236866-0.7418747-0.3507171-1.1136837c-0.2260294-0.7381535-0.4406919-1.4797821-0.6630387-2.2190762
				C6.5334315,16.0362949,6.4919958,15.9354916,6.4444799,15.8392c-0.2094078-0.4243631-0.5193458-0.5828629-0.928894-0.480546
				c-0.3523717,0.0880327-0.6695499,0.5071745-0.6931825,0.8697929c-0.0420923,0.6458683,0.2311449,1.2128162,0.4244552,1.7997875
				c0.2245398,0.6817989,0.4534802,1.3622684,0.691905,2.0393009c0.0721135,0.2047749-0.0055285,0.3518429-0.1571102,0.4447002
				c-0.1517224,0.0929451-0.3091016,0.0058384-0.4126649-0.1164627c-0.1339512-0.158186-0.2604318-0.3277225-0.3603568-0.5087986
				c-0.3674541-0.6658764-0.7500901-1.323822-1.0278177-2.0364609c-0.0978763-0.2511482-0.1774182-0.5503101-0.535228-0.5718594"/>
			<path class="st18" d="M20.7255859,56.1286545c-0.1339188,0.224659-0.0147514,0.4228401,0.0585823,0.6305008
				c0.7584133,2.1475983,2.3192234,3.4095116,4.4759026,3.9413147c0.6865273,0.1692886,1.4164753,0.0309715,2.0951004-0.2229233
				c0.9748154-0.364727,1.7881145-0.9458275,2.4041119-1.7962151c0.1307163-0.1804581,0.1048965-0.3844719,0.1361847-0.5743446
				c0.0419693-0.2547188,0.0329628-0.5181656,0.0624104-0.7792015c0.0911045-0.8076172,0.147707-1.6191292,0.2177086-2.4291306"/>
			<path class="st18" d="M38.935585,55.7686539c0.057888,0.1642418,0.0609131,0.3052063-0.0216675,0.4838524
				c-0.4285507,0.9270821-0.9613342,1.787426-1.5670357,2.6071091c-0.7562408,1.0233994-1.8146057,1.4709511-3.0298843,1.6869659
				c-1.452816,0.2582397-2.6031647-0.3203011-3.6592541-1.2104874c-0.2644234-0.2228851-0.5021572-0.4774399-0.7521572-0.7174377"/>
			<path class="st18" d="M17.9355869,50.1586533c0.2469063,0.2413063,0.1976147,0.5844421,0.2540035,0.8731232
				c0.1759224,0.9006653,0.5138474,1.7314072,0.912571,2.5485497c0.3461628,0.7094307,0.8046894,1.3418617,1.2565498,1.9831734
				c0.228014,0.3236122,0.5150833,0.5612717,0.8105564,0.8125839c0.7560997,0.6430893,1.5409813,1.2349205,2.4357929,1.673645
				c0.864109,0.4236641,1.7796898,0.5883141,2.7298031,0.501049c0.5538483-0.0508728,1.0719414-0.2712364,1.5922241-0.4681587
				c0.5655212-0.2140388,1.1321144-0.2927132,1.6811867,0.0820999c0.221611,0.1512756,0.4681606,0.0960083,0.7166843-0.1167984
				c0.3560905-0.3049126,0.7589703-0.4434166,1.2310677-0.3934288c0.1667042,0.0176544,0.3090439,0.0793991,0.4490128,0.1551743
				c0.6470146,0.3502769,1.3309326,0.5807686,2.07061,0.5959473c0.828022,0.016983,1.5968475-0.2250137,2.3076096-0.631031
				c0.792305-0.4525948,1.4599686-1.0639992,2.0698624-1.7381592c0.0578346-0.0639267,0.0979309-0.1541748,0.183136-0.1750259
				c0.3547554-0.0868225,0.4765549-0.3946152,0.6263123-0.6644173c0.4684067-0.8438377,1.0754662-1.5972939,1.5640678-2.4277077
				c0.4870262-0.8277435,0.9075966-1.6874161,1.2555084-2.581955c0.0541267-0.1391678,0.0736008-0.2901421,0.070919-0.4487877
				c-0.0034637-0.2049751,0.1450729-0.3552284,0.2941055-0.4779472c0.9045029-0.7448578,1.6334114-1.6436729,2.2755318-2.6138382
				c0.6619186-1.0000725,1.2202835-2.0571861,1.6520462-3.1784134c0.0067101-0.0174141,0.0008392-0.0396767,0.0008392-0.0596771"/>
			<path class="st18" d="M19.0755863,45.478653c0.1831436-0.0017128,0.32761,0.0597343,0.4848137,0.1733398
				c1.5966911,1.1538849,3.3294182,2.0349922,5.2459812,2.5235405c0.7685356,0.1959114,1.5501137,0.3244209,2.3380013,0.4319305
				c1.2992096,0.1772919,2.6009731,0.0979652,3.9012222,0.1000252c0.4485664,0.0007095,0.9181786,0.0274925,1.3451462-0.0466576
				c0.5902634-0.1025124,1.1883926-0.1932869,1.77528-0.3302803c1.3827438-0.3227539,2.7173958-0.7816238,3.9879951-1.4150276
				c0.7588997-0.378315,1.4827271-0.8208313,2.1920738-1.2860909c0.144165-0.0945587,0.2877235-0.2078323,0.4794846-0.1207771"/>
			<path class="st18" d="M16.7655869,42.7186546c-0.866416,0.4835625-1.1607275,1.129837-1.0236998,2.1305046
				c0.2209597,1.6136055,0.6233435,3.1878395,0.9926157,4.7697487c0.0605125,0.2592316,0.2029076,0.4567947,0.4220066,0.59832
				c0.157093,0.1014709,0.6677189,0.0491028,0.7724781-0.0934258c0.0452137-0.061512,0.0532036-0.1610565,0.0474873-0.2657394
				c-0.037468-0.6863403-0.1559029-1.3609734-0.2426682-2.0404587c-0.0433064-0.3391342-0.0702896-0.681015-0.1277733-1.0190277
				c-0.0224438-0.1319618,0.0288239-0.2476044,0.0895519-0.3599205"/>
			<path class="st18" d="M43.4055862,35.1886559c-0.0252914,0.2650566,0.0829506,0.5026016,0.1474419,0.7506638
				c0.1819687,0.6999207,0.3319626,1.4038124,0.4050941,2.1280708c0.0457115,0.4526634,0.0660057,0.9036713,0.0398712,1.3508224
				c-0.0747986,1.2797165-0.3996696,2.4895744-0.9959412,3.6389809c-0.2200661,0.424202-0.5340042,0.7541008-0.8030396,1.1267128
				c-0.3153877,0.4368019-0.7474213,0.7715912-1.1402702,1.1373978c-0.1197357,0.1114883-0.2121964,0.2133217-0.2303848,0.3676758
				c-0.0176659,0.1499214-0.1186447,0.2357254-0.2130737,0.3293686c-0.5671082,0.562355-1.1695137,1.0845604-1.8955803,1.4278679
				c-0.1546516,0.0731277-0.2208176,0.2120399-0.2198944,0.2822495c0.0059013,0.4497566-0.0865517,0.9052162,0.0462532,1.3500443
				c0.0063019,0.0211029,0.0195236,0.0401459,0.0295219,0.0601425"/>
			<path class="st18" d="M18.2355862,16.9786549c-0.5303841,0-0.9249916,0.2959976-1.1119862,0.8092747
				c-0.2026882,0.5563564-0.1489086,1.1248665-0.0493717,1.6791725c0.1572857,0.875885,0.3100586,1.7560062,0.5658092,2.61022
				c0.181818,0.6072807,0.4551849,1.1732197,0.9252949,1.6215973c0.1206379,0.1150589,0.2408047,0.213171,0.4192219,0.2454338
				c0.2301292,0.0416145,0.3122673,0.2771606,0.3167419,0.4446831c0.0101166,0.3785896,0.2070827,0.6847706,0.3236313,1.0163345
				c0.4536762,1.2906399,1.0737858,2.4973755,1.9721699,3.5419865c0.8879089,1.0324345,1.9734421,1.7470455,3.3282433,2.0125484
				c0.0519276,0.0101738,0.1002445,0.0387478,0.1502457,0.0587482"/>
			<path class="st18" d="M40.5555878,20.0086536c-0.1873894,1.0943565-0.328167,2.1972446-0.6208153,3.272501
				c-0.0275574,0.1012497-0.0766563,0.2289658-0.0145874,0.3600578c0.0549202,0.1159916,0.0141525,0.2478733-0.0554314,0.3569107
				c-0.3405266,0.5336018-0.486618,1.1547337-0.7770271,1.711647c-0.5400352,1.0356159-1.1712112,2.0014305-1.9438667,2.8861122
				c-0.8666611,0.9923153-1.8875084,1.741024-3.0982742,2.2427711"/>
			<path class="st18" d="M39.9555855,23.7886543c0.26437-0.0213108,0.4137726-0.2004108,0.5730896-0.3873692
				c0.5209694-0.6113758,0.7688866-1.3458195,0.9517403-2.103878c0.1456451-0.6038132,0.2821846-1.2143822,0.3548584-1.8299694
				c0.0740509-0.6272278,0.1890717-1.263176-0.0729904-1.8915768c-0.1722145-0.4129581-0.4438667-0.6628895-0.8766975-0.7472057"/>
			<path class="st18" d="M37.5855865,47.9986534c0.0799713,0.4171448,0.0294724,0.8417892,0.0684814,1.2592087
				c0.0340614,0.364502-0.1399803,0.5554123-0.4289627,0.6897621c-1.1975861,0.5567894-2.440815,0.9676514-3.7491837,1.1731796
				c-0.3290939,0.0517006-0.6541977,0.1284904-0.9903374,0.1178513"/>
			<path class="st18" d="M22.7505856,48.0886536c0.0551472,0.0705795,0.1053982,0.1563377,0.0718384,0.2387123
				c-0.1801834,0.4422684-0.0537357,0.9015312-0.0822563,1.3515778c-0.0144672,0.2282906,0.2037792,0.304863,0.3579845,0.384758
				c1.0145245,0.5256462,2.0875607,0.8888054,3.2073498,1.1153679c0.4959068,0.1003265,0.9951,0.1751862,1.5000839,0.2095833"/>
			<path class="st18" d="M16.5855865,36.5686531c0.046545,0.1683197-0.0090847,0.328476-0.0633488,0.4787941
				c-0.2455311,0.6801262-0.3837109,1.3757973-0.4230518,2.1008606c-0.0597363,1.1009445,0.1625042,2.1370659,0.570837,3.1525841
				c0.3127289,0.7777481,0.8123608,1.4251518,1.3278103,2.0659523c0.1860142,0.2312546,0.4008427,0.4390984,0.5968742,0.6625786
				c0.1914082,0.2182121,0.4228954,0.3802795,0.5062733,0.7128639c0.0584087,0.2329903,0.3420582,0.4204063,0.5470467,0.6036377
				c0.5358925,0.4790077,1.100071,0.9238586,1.7390308,1.2599297c0.30019,0.1578865,0.4609318,0.3620033,0.4248428,0.7234306
				c-0.0319176,0.3196373,0.0139179,0.6468925-0.0926132,0.9559708c-0.3071022,0.0387802-0.5372772-0.1329994-0.7844524-0.2651939
				c-1.021452-0.5463295-1.8923779-1.2796173-2.6692028-2.1314468c-0.1632061-0.1789627-0.2953415-0.3817444-0.5365295-0.4879456
				c-0.1503258-0.0661888-0.0867138-0.2937431-0.1985168-0.412014"/>
			<path class="st18" d="M28.1355858,31.5586548c-0.9282112-0.3907814-1.8511086-0.7954388-2.821228-1.1006489
				c-0.0463066,0.2285118-0.2235584,0.3857498-0.2110271,0.6207695c0.0523262,0.9813595-0.198431,1.9842129,0.1930141,3.003561
				c1.002264-0.3855171,1.9571819-0.7783623,2.8992405-1.2036819"/>
			<path class="st18" d="M32.3655853,48.7186546c0.0831223,0.2773895,0.0418091,0.557682,0.0351715,0.8401222
				c-0.0159683,0.6796227-0.0075417,1.3598938-0.003521,2.0398674c0.0010185,0.1718826-0.0476799,0.2719345-0.2416534,0.2715187
				c-1.3399925-0.0028648-2.6800003-0.0002785-4.0199928-0.0032921c-0.1442032-0.0003204-0.3687191-0.33078-0.2887402-0.5029869
				c0.1383591-0.2978935,0.0228386-0.585537,0.0464115-0.8754196c0.0210705-0.2590981,0.0318642-0.5198898,0.0297775-0.779789
				c-0.0023174-0.2889366-0.1410294-0.436306-0.4175091-0.4487419c-1.4966202-0.0673599-2.9201546-0.4622574-4.3178616-0.9670448
				c-0.1139832-0.0411644-0.219141-0.0504112-0.3320827-0.0542336"/>
			<path class="st18" d="M37.5255852,48.1186562c-0.1435699-0.0681992-0.2601624,0.0133057-0.3911591,0.0564728
				c-1.1272087,0.3714447-2.264225,0.7052307-3.4487801,0.844017c-0.4003639,0.0469055-0.8000603,0.0995102-1.2000618,0.1495132"/>
			<path class="st18" d="M19.3155861,24.7186546c-0.8505726,0.1992588-1.6369286,0.5509758-2.3689098,1.0216942
				c-0.8798599,0.5658092-1.5575829,1.3199959-2.0419798,2.2478409c-0.0331831,0.0635586-0.0791092,0.1204643-0.1191092,0.1804657"
				/>
			<path class="st18" d="M25.3905869,53.8036537c0.7081661,0.3893204,1.4899902,0.562809,2.2669487,0.7257042
				c0.7080708,0.1484489,1.4291344,0.2273483,2.1577625,0.2564697c1.5447083,0.0617447,3.1259632-0.2915001,4.4994221-0.7895584
				c0.139843-0.0507126,0.2674561-0.1351547,0.4208641-0.1476135"/>
			<path class="st18" d="M43.2555847,43.5586548c-0.0066528,0.5538902-0.1427116,1.0888519-0.2796822,1.6174927
				c-0.0970879,0.3747139-0.4355965,0.6186638-0.6521034,0.9312706c-0.1753082,0.2531319-0.3773499,0.4862747-0.5423088,0.748661
				c-0.132206,0.2102966-0.2865944,0.3726044-0.5571327,0.4756088c-0.2794495,0.1063881-0.4881973,0.3976288-0.7288971,0.6068192
				c-0.4121513,0.3581924-0.8641167,0.6616364-1.3191452,0.9612541c-0.1407738,0.0926933-0.2861748,0.1859283-0.4513474,0.2028809
				c-0.1496353,0.0153503-0.217453,0.0730782-0.2243805,0.216011"/>
			<path class="st18" d="M11.9955864,25.1686554c0.1080704,0.0465488,0.216177,0.0674362,0.3049831,0.1759186
				c0.5114269,0.6247501,0.986289,1.2701721,1.3171282,2.0131397c0.1177444,0.2644176,0.2450638,0.5574017,0.2691708,0.8136425
				c0.0363789,0.386673,0.0744095,0.8157749-0.1242695,1.1957359c-0.0064411,0.0123196-0.0570126,0.0015621-0.0870132,0.0015621"/>
			<path class="st18" d="M33.8055878,30.2986546c-0.049324,0.0301704-0.044426,0.0994606-0.026947,0.1169491
				c0.2899818,0.2902107,0.2019882,0.675415,0.271225,1.0221958c0.0718575,0.35989,0.0834389,0.7235622,0.0473518,1.0800076
				c-0.0485878,0.4798927-0.058773,0.9766235-0.3216324,1.4108467"/>
			<path class="st18" d="M28.2255859,32.8786545c0.0200005,0.0200005,0.0408249,0.0392456,0.0598755,0.060112
				c0.2504883,0.2743797,0.4664001,0.6000023,0.9001255,0.5999947c0.6541233-0.0000038,1.3305798,0.0605545,1.7973938-0.5421257
				c0.2078323-0.268322,0.226017-0.6096001,0.2643299-0.9289742c0.0279064-0.2326126-0.1041965-0.4510937-0.2073708-0.6561642
				c-0.0837231-0.1664085-0.2924767-0.1691055-0.4461708-0.2050838c-0.6504517-0.1522655-1.3017216-0.2153149-1.9509716,0.0452919
				c-0.1859856,0.0746517-0.3322048,0.202549-0.4636612,0.3218765c-0.0905914,0.0822315-0.075695,0.3060608-0.0686111,0.4648514
				c0.0120792,0.2708015,0.0550613,0.5402222,0.0850601,0.8102226"/>
			<path class="st18" d="M33.7455864,30.3886547c-0.4061584-0.0116138-0.7401199,0.22369-1.1062737,0.3415833
				c-0.5443916,0.1752853-1.0637264,0.4284172-1.5937271,0.6484165"/>
			<path class="st18" d="M31.1355858,32.9386559c0.7699986,0.3099976,1.5417671,0.6157417,2.3083763,0.9339104
				c0.138382,0.0574341,0.3825302-0.0403862,0.3916245,0.2360878"/>
			<path class="st18" d="M41.5155869,47.278656c0.0464401,0.3028069-0.0478706,0.5741959-0.1791077,0.8404388
				c-0.3209381,0.6510544,0.0777016,1.4302902,0.7791061,1.5295601"/>
			<path class="st18" d="M13.9755859,28.2286549c0.5639868-0.2003384,0.8736153-0.1075363,1.2235937,0.4242172
				c0.13867,0.2106934,0.2779036,0.4414711,0.2764063,0.7157822"/>
		</g>
	</g>
</g>
</svg>
