<svg id="Layer_1" data-name="Layer 1" xmlns="http://www.w3.org/2000/svg" width="32" height="32" viewBox="0 0 32 32"><title>facilities</title><path d="M12.13689,19.33669A5.14272,5.14272,0,0,1,7,14.19981V11.93958a0.61639,0.61639,0,0,1,.61643-0.61643h9.04092a0.61639,0.61639,0,0,1,.61643.61643v2.26023A5.14272,5.14272,0,0,1,12.13689,19.33669ZM8.23285,12.556v1.6438a3.904,3.904,0,1,0,7.80807,0V12.556H8.23285Z"/><path d="M9.05475,12.556a0.61639,0.61639,0,0,1-.61643-0.61643V8.652a0.61643,0.61643,0,1,1,1.23285,0v3.28761A0.61639,0.61639,0,0,1,9.05475,12.556Z"/><path d="M15.219,12.556a0.61639,0.61639,0,0,1-.61643-0.61643V8.652a0.61643,0.61643,0,0,1,1.23285,0v3.28761A0.61639,0.61639,0,0,1,15.219,12.556Z"/><path d="M14.60259,25.70643a2.918,2.918,0,0,1-3.08213-3.08213v-3.904a0.61643,0.61643,0,0,1,1.23285,0v3.904a1.69917,1.69917,0,0,0,1.84928,1.84928c0.87779,0,1.25854-.77341,1.807-2.03523,0.56074-1.29039,1.25874-2.89618,3.12446-2.89618a2.94882,2.94882,0,0,1,3.08213,3.08213,0.61643,0.61643,0,1,1-1.23285,0A1.71908,1.71908,0,0,0,19.534,20.775c-1.00621,0-1.41305.81882-1.99373,2.15462C17.00275,24.16681,16.33352,25.70643,14.60259,25.70643Z"/></svg>