<svg xmlns="http://www.w3.org/2000/svg" width="30" height="30" viewBox="0 0 30 30"><defs><style>.cls-1{isolation:isolate;}.cls-2{opacity:0.08;mix-blend-mode:darken;}.cls-3,.cls-4,.cls-6{fill-rule:evenodd;}.cls-4{fill:#fff;}.cls-5,.cls-6{fill:#726ad0;}</style></defs><title>maps</title><g class="cls-1"><g id="Layer_1" data-name="Layer 1"><g class="cls-2"><path class="cls-3" d="M17,4A13,13,0,1,1,4,17,13,13,0,0,1,17,4Z"/></g><path class="cls-4" d="M15,27.5A12.5,12.5,0,1,1,27.5,15,12.51409,12.51409,0,0,1,15,27.5Z"/><path class="cls-5" d="M15,3A12,12,0,1,1,3,15,12.01359,12.01359,0,0,1,15,3m0-1A13,13,0,1,0,28,15,13,13,0,0,0,15,2h0Z"/><path class="cls-6" d="M15.0007,9.9999a5.0001,5.0001,0,1,1-5.0008,5.0005A5.00084,5.00084,0,0,1,15.0007,9.9999Z"/></g></g></svg>