<?xml version="1.0" encoding="utf-8"?>
<!-- Generator: Adobe Illustrator 19.1.0, SVG Export Plug-In . SVG Version: 6.00 Build 0)  -->
<svg version="1.1" id="Layer_1" xmlns="http://www.w3.org/2000/svg" xmlns:xlink="http://www.w3.org/1999/xlink" x="0px" y="0px"
	 viewBox="0 0 195 315" style="enable-background:new 0 0 195 315;" xml:space="preserve">
<style type="text/css">
	.st0{fill:#122D46;}
	.st1{fill:#FAAE1B;}
	.st2{fill:#43B566;}
	.st3{fill:none;stroke:#FFFFFF;stroke-width:2;stroke-linecap:round;stroke-linejoin:round;stroke-miterlimit:10;}
	.st4{fill:#676767;}
	.st5{fill:#FFFFFF;}
	.st6{fill:#FAC88D;}
	.st7{fill:#EA812A;}
	.st8{opacity:0.1;fill:#122D46;}
	.st9{fill:#418CCB;}
	.st10{clip-path:url(#SVGID_1_);fill:#4CB4E6;}
	.st11{fill:#4CB4E6;}
	.st12{opacity:0.1;}
	.st13{clip-path:url(#SVGID_2_);fill:#122D46;}
	.st14{opacity:0.3;fill:#A2C9EA;}
	.st15{opacity:0.2;clip-path:url(#SVGID_3_);fill:#FFFFFF;}
	.st16{opacity:0.2;clip-path:url(#SVGID_4_);fill:#FFFFFF;}
	.st17{fill:none;stroke:#122D46;stroke-width:2;stroke-miterlimit:10;}
	.st18{fill:none;stroke:#122D46;stroke-width:3;stroke-miterlimit:10;}
</style>
<g>
	<g>
		<path class="st0" d="M95.101738,123.5496216c0.2125168,1.1091003-0.5135422,2.1794586-1.6227112,2.3919983l0,0
			c-1.1075439,0.2122192-2.1779251-0.5139236-2.3904419-1.6230164l-9.7993622-51.140892
			c-0.212532-1.109169,0.5136261-2.1794739,1.6211624-2.3916931l0,0c1.109169-0.2125397,2.1794586,0.5135422,2.3919907,1.6227112
			L95.101738,123.5496216z"/>
		<g>
			<path class="st1" d="M157.9337769,69.987114c0.3245392,1.7027817-0.7930756,3.3459244-2.4952393,3.6703415l-138.8596191,26.46521
				c-1.7027493,0.3245316-3.3458071-0.7924652-3.6703396-2.4952393L0.055994,30.1915359
				c-0.3244089-1.7021313,0.792494-3.3458118,2.4952428-3.6703377L141.4108582,0.0559819
				c1.7021637-0.3244148,3.345932,0.7931106,3.6703339,2.4952428L157.9337769,69.987114z"/>
			<g>
				<path id="rect2832_22_" class="st2" d="M77.065239,39.2832603L77.065239,39.2832603
					c-5.4257736,1.0340958-10.6614304-2.5259933-11.6954498-7.951376l0,0
					c-1.0340271-5.4253826,2.5251312-10.6616745,7.9509048-11.6957722l0,0
					c5.424202-1.0337963,10.6614304,2.5259953,11.6954575,7.9513779l0,0
					C86.0501709,33.0128708,82.4894409,38.2494621,77.065239,39.2832603z"/>
				<g id="g3604_23_" transform="translate(-104.3057,471.71079)">
					<path id="path2824_23_" class="st3" d="M179.4362183-442.5787964l-0.7398071-3.8816528"/>
					<path id="path2826_23_" class="st3" d="M180.3011475-438.0405579l-0.0871582-0.4573669"/>
				</g>
			</g>
			<g>
				<g>
					<path class="st4" d="M26.6094494,62.7594032l-4.2457333,0.8095589l0.7058487,3.7045288l4.8819752-0.9309921
						l0.1233368,0.6479721l-5.6499729,1.0774078l-1.7301407-9.0786552l5.6181946-1.0707817l0.1246014,0.6547585
						l-4.8501968,0.9243622l0.652092,3.4237442l4.2457333-0.8095589L26.6094494,62.7594032z"/>
					<path class="st4" d="M31.7943478,65.7589417c0.2363567-0.0449066,0.4577427-0.1218643,0.6632252-0.2336502
						c0.2051849-0.1096191,0.3802872-0.2472153,0.5249977-0.4136963c0.1462593-0.1649475,0.2537994-0.3559647,0.3272629-0.5715408
						c0.072834-0.2174301,0.0924644-0.4549942,0.0597992-0.716114l0.717701-0.1366158
						c0.0443726,0.3231354,0.0204353,0.6332932-0.0699577,0.9298553c-0.0925446,0.2993546-0.2380371,0.567131-0.4361496,0.8073502
						c-0.1981163,0.2402267-0.439003,0.4454269-0.7254524,0.613472c-0.2870636,0.169281-0.6012306,0.2858734-0.9412594,0.3503952
						c-0.4736347,0.0901337-0.9057026,0.083725-1.2968273-0.0210724c-0.3901997-0.1051025-0.7356472-0.285141-1.0369663-0.5419693
						c-0.301321-0.2568283-0.551672-0.5793533-0.7513504-0.9654083c-0.2018433-0.3863525-0.3470535-0.8155823-0.4384232-1.2898293
						l-0.049345-0.2616577c-0.0901318-0.4736366-0.1125412-0.9268837-0.0672264-1.3597412
						c0.0440769-0.4334717,0.1575222-0.8233986,0.3421898-1.1704102c0.1834278-0.3476257,0.438118-0.6430664,0.7643833-0.8854065
						c0.3265629-0.2444992,0.7242012-0.4099503,1.1947479-0.5000687c0.3603954-0.0683174,0.7065506-0.0751152,1.037529-0.0231667
						c0.3319168,0.054718,0.6322613,0.1623878,0.9032116,0.3263969c0.2709503,0.1640053,0.5019875,0.3806915,0.6959076,0.6522026
						c0.1926765,0.2709007,0.3336792,0.5871162,0.4208488,0.9514427l-0.7186279,0.1369324
						c-0.0685425-0.2726898-0.1742744-0.5059929-0.317524-0.7039223c-0.1426239-0.1960831-0.3131905-0.3559036-0.5107574-0.476696
						c-0.1978798-0.1217155-0.4150333-0.2028923-0.6526871-0.2410507c-0.2376518-0.0381546-0.4846878-0.0339622-0.7373943,0.0144157
						c-0.3872375,0.0743027-0.6997681,0.2109642-0.9388199,0.4124565c-0.2406025,0.199955-0.4211006,0.4434929-0.5430412,0.7290802
						c-0.1225548,0.2868233-0.1906357,0.6005783-0.2045441,0.9434319c-0.0145206,0.3440895,0.0120583,0.6938629,0.0806732,1.0520935
						l0.0502701,0.2613449c0.068943,0.3622475,0.1729813,0.7002487,0.3127441,1.0158539
						c0.1391506,0.3168411,0.3179111,0.5831757,0.5347614,0.803627c0.2152996,0.2189178,0.4741821,0.3777237,0.7757244,0.4767456
						C31.0645733,65.8202667,31.4080372,65.8329315,31.7943478,65.7589417z"/>
					<path class="st4" d="M38.3733864,64.5053711c0.2363548-0.0449142,0.4574318-0.1227951,0.6632271-0.2336578
						c0.2051849-0.1096191,0.3802872-0.2472076,0.5249977-0.4136925c0.1450195-0.1655579,0.2534866-0.3568916,0.3269501-0.5724678
						c0.0731468-0.2164993,0.0924644-0.4549942,0.0597954-0.7161102l0.7177048-0.1366196
						c0.0446815,0.3240623,0.0204315,0.633297-0.0705719,0.9310989c-0.0919304,0.298111-0.2374229,0.5658913-0.4352226,0.8070374
						c-0.1981163,0.2402191-0.4383926,0.444191-0.7254562,0.613472c-0.2870598,0.169281-0.6012268,0.2858734-0.9412575,0.3503952
						c-0.4745598,0.0904388-0.9060135,0.0827942-1.2968254-0.0210724c-0.3902016-0.1051102-0.7356491-0.2851486-1.0369682-0.5419769
						c-0.3013191-0.2568207-0.5516701-0.5793457-0.7525864-0.9660149c-0.2006073-0.385746-0.3458176-0.8149719-0.4362602-1.2895317
						l-0.0502701-0.2613449c-0.0901337-0.4736366-0.1125412-0.9268837-0.0684662-1.3603516
						c0.0443916-0.4325485,0.1578369-0.8224754,0.3431168-1.1707268c0.1837387-0.3466988,0.4384308-0.6421394,0.7646942-0.8844795
						c0.3265648-0.2444992,0.7229652-0.4105644,1.1938248-0.4997559c0.3603935-0.0683174,0.7074738-0.075428,1.0393791-0.0237961
						c0.3309898,0.0550346,0.6310234,0.1617813,0.9019737,0.3257866c0.2709503,0.1640091,0.5023003,0.3816185,0.6959038,0.6522064
						c0.1929932,0.2718239,0.333992,0.5880394,0.4199257,0.9517555l-0.716465,0.1372299
						c-0.0694656-0.272377-0.1751976-0.5056801-0.3184471-0.7036095c-0.1426277-0.1960831-0.3141174-0.3555908-0.5101471-0.4779358
						c-0.197567-0.1207886-0.4156456-0.2016525-0.6532974-0.2398109c-0.2379646-0.0390816-0.4846878-0.0339622-0.7373962,0.0144157
						c-0.3875504,0.0733795-0.6997681,0.2109642-0.9391327,0.4115334c-0.2402878,0.2008781-0.4211006,0.4434929-0.5427284,0.7300034
						c-0.1228676,0.2858963-0.1915588,0.6008911-0.2054672,0.9437447c-0.0145226,0.3440895,0.0129814,0.6935501,0.0812836,1.0508575
						l0.0493469,0.2616577c0.0698662,0.3619308,0.1732941,0.7011719,0.3139801,1.0164642
						c0.1391525,0.3168449,0.3179131,0.5831718,0.5344505,0.8027c0.2152977,0.2189178,0.4744949,0.3786545,0.7757225,0.4767456
						C37.6436119,64.5666885,37.986763,64.5784378,38.3733864,64.5053711z"/>
					<path class="st4" d="M45.1895332,63.858181c-0.4406166,0.0841179-0.8609467,0.0788956-1.262516-0.0141182
						c-0.401886-0.0939369-0.763958-0.2621689-1.0880623-0.5040703c-0.3228683-0.2412872-0.5984802-0.5501099-0.8258972-0.9236908
						c-0.2258797-0.3751335-0.386219-0.8033638-0.4773178-1.2859497l-0.0515366-0.2681351
						c-0.0992889-0.5189896-0.110424-1.0059471-0.0355492-1.4580841c0.0764275-0.4506035,0.2176247-0.8499184,0.4276085-1.1982803
						c0.2090569-0.3480453,0.4715042-0.6358032,0.7888718-0.8648224c0.3161469-0.2265434,0.6675148-0.3794365,1.0529022-0.4531136
						c0.43013-0.0816002,0.8235855-0.0765648,1.1862373,0.0141525c0.3617249,0.0910263,0.6817589,0.2508011,0.9601135,0.4824066
						c0.2792816,0.2312927,0.512516,0.5245552,0.7012558,0.881321c0.1893501,0.3555336,0.3254852,0.7579346,0.4105682,1.2075005
						l0.0869598,0.4551201l-4.8134804,0.917099l0.0278168,0.1431656c0.0705223,0.3699608,0.1930885,0.7078781,0.3670769,1.0119057
						c0.174305,0.3049507,0.3879051,0.5584641,0.6367912,0.7608604c0.2488861,0.2024002,0.5287056,0.3469124,0.8369789,0.432312
						c0.3101273,0.084774,0.6372108,0.094738,0.9821777,0.0295792c0.3989639-0.07621,0.7380371-0.2166939,1.0166092-0.4202156
						c0.2773323-0.2041359,0.5107613-0.4892921,0.6984177-0.857933l0.53545,0.2662773
						c-0.0819397,0.1844215-0.1821213,0.363678-0.3017883,0.5371513c-0.119976,0.1725464-0.2668762,0.3325539-0.4422493,0.4784851
						c-0.1735268,0.1453018-0.3789406,0.2725296-0.611618,0.3801117
						C45.7623787,63.7169609,45.4928474,63.80093,45.1895332,63.858181z M43.8397789,57.5250854
						c-0.2820206,0.0531425-0.5332413,0.1577187-0.7536736,0.3106422c-0.2210426,0.1541634-0.4045372,0.3492317-0.5520287,0.5836678
						c-0.1471825,0.2353592-0.2531395,0.5041962-0.3175621,0.8074379c-0.0647354,0.3023148-0.0861282,0.6291389-0.0629501,0.9780045
						l4.0473328-0.7713089l-0.0151863-0.081459c-0.0633316-0.2816696-0.1599388-0.5458946-0.2944603-0.7942009
						c-0.1332817-0.2476959-0.2985153-0.4588051-0.497242-0.6317825c-0.1996536-0.1726646-0.4296646-0.2979431-0.6891136-0.3761482
						C44.444519,57.4720421,44.1563568,57.4643745,43.8397789,57.5250854z"/>
					<path class="st4" d="M48.5755997,56.0919876l0.2447891,1.1501846c0.0799484-0.2146759,0.1800346-0.4155502,0.3018074-0.6010742
						c0.1211472-0.1873779,0.2655411-0.3547859,0.4310265-0.5025253c0.1664085-0.1480522,0.3511429-0.2724037,0.5557442-0.3746109
						c0.2049103-0.101284,0.4272385-0.1754684,0.6694565-0.2213287c0.3350906-0.0638809,0.6466408-0.0754623,0.9297028-0.034111
						c0.2827492,0.0404243,0.5361328,0.143364,0.7585983,0.3072777c0.2246284,0.1642151,0.4137268,0.3940582,0.5713081,0.6892014
						c0.1575813,0.2951469,0.2793655,0.664257,0.3641205,1.1098137l0.8364487,4.3892136l-0.742691,0.1419792l-0.8374062-4.3950768
						c-0.0667229-0.3495941-0.1597099-0.6335983-0.2780418-0.8523331c-0.1192513-0.2184181-0.2611275-0.3848572-0.4262466-0.5011597
						c-0.1626472-0.1150818-0.3497887-0.1837273-0.5586548-0.2068825c-0.2094765-0.0219154-0.4345551-0.0107193-0.6746101,0.0354424
						c-0.2662849,0.0509109-0.4996567,0.141201-0.6985664,0.2724152c-0.1982994,0.1299706-0.3680687,0.286377-0.5049973,0.4667206
						c-0.1375389,0.1815834-0.2484398,0.3809586-0.3330154,0.5972023c-0.0827255,0.2156143-0.1410446,0.4332848-0.1718864,0.6499062
						l0.8804092,4.6197052l-0.7426949,0.1419792l-1.2855148-6.7465858L48.5755997,56.0919876z"/>
					<path class="st4" d="M55.708828,52.9416389l0.3298225,1.7276039l1.3968391-0.2653427l0.115757,0.6103249l-1.3965263,0.2662697
						l0.8570023,4.4956665c0.0452194,0.237278,0.1059608,0.4229164,0.1803703,0.5575371
						c0.0756493,0.1352348,0.1607094,0.2342949,0.2579689,0.2993279c0.0966492,0.0662727,0.2002602,0.101326,0.3117714,0.1079292
						c0.1109009,0.007843,0.2251358,0.0011559,0.3411484-0.0215988c0.1113892-0.0211868,0.2184258-0.0491524,0.3201828-0.0835762
						c0.1008301-0.034111,0.1911736-0.0657082,0.2719536-0.0950966l0.1472359,0.6058617
						c-0.0850105,0.0504074-0.1984367,0.0990906-0.3424492,0.1457481c-0.1449318,0.0469742-0.2889862,0.0843658-0.4352417,0.1121941
						c-0.2110519,0.0404739-0.4129753,0.0500259-0.6048508,0.0283394c-0.1906357-0.0210762-0.3651123-0.0888519-0.5197144-0.2014999
						c-0.1546059-0.1126442-0.2902908-0.2760201-0.4064293-0.4882774c-0.1164513-0.2131805-0.2050743-0.4873276-0.269577-0.8242683
						l-0.8570023-4.4956665l-1.2407036,0.2362366l-0.1160698-0.6112518l1.2407036-0.2362366l-0.3298225-1.7276039
						L55.708828,52.9416389z"/>
					<path class="st4" d="M62.2210579,54.1508904c-0.1627464,0.0004158-0.3343735,0.0172424-0.5124092,0.0517006
						c-0.2539444,0.0477676-0.4753036,0.1309013-0.6650352,0.2435417c-0.189415,0.1135674-0.3487663,0.2520142-0.4801979,0.418129
						c-0.1286545,0.1651764-0.2303619,0.3490677-0.3001633,0.5541267c-0.0716553,0.2056847-0.1169968,0.4251518-0.1347733,0.6620941
						l0.8829384,4.6332817l-0.7430077,0.1410561l-1.285511-6.7465858l0.7294273-0.1385231l0.2178726,1.0706291
						c0.1112137-0.4056702,0.3036346-0.7449951,0.5769501-1.0189056c0.2723923-0.2735939,0.6381531-0.4540367,1.0951233-0.5416222
						c0.0910225-0.0173912,0.1867142-0.0270844,0.2852211-0.0284538c0.0994339-0.0016785,0.1735764,0.0041656,0.2242775,0.0169106
						L62.2210579,54.1508904z"/>
					<path class="st4" d="M65.3993912,59.8767014l-0.7476273,0.1426201l-1.2855148-6.7465858l0.7476273-0.1426201
						L65.3993912,59.8767014z M62.8616676,51.3454895c-0.0268784-0.1403923-0.0021248-0.2683525,0.0711632-0.383873
						c0.0723686-0.1152039,0.186924-0.1879807,0.345829-0.2180252c0.1567459-0.0303497,0.2921219-0.0050125,0.404892,0.0753937
						c0.1115303,0.079792,0.1818161,0.1900368,0.2077713,0.3307419c0.027504,0.1422424,0.0024376,0.2692795-0.072403,0.3832588
						c-0.0751572,0.1130562-0.1925011,0.1836815-0.349247,0.2140312c-0.158905,0.0300484-0.2914925,0.0068626-0.401474-0.0713959
						S62.8891716,51.4877319,62.8616676,51.3454895z"/>
					<path class="st4" d="M69.8248444,58.5104637c0.236351-0.0449104,0.4577408-0.1218681,0.6632233-0.233654
						c0.2051849-0.1096191,0.3802872-0.2472115,0.5253067-0.4127693c0.1440964-0.1652451,0.2534943-0.3568916,0.3269501-0.5724678
						c0.0731506-0.2164993,0.0924683-0.4549942,0.0597992-0.7161102l0.7177048-0.1366196
						c0.0446854,0.3240623,0.0204315,0.633297-0.0714951,0.9314117c-0.091011,0.2977982-0.2365036,0.5655785-0.4346161,0.8057976
						c-0.1977997,0.2411461-0.439003,0.4454269-0.7251358,0.6143951c-0.2873764,0.1683578-0.6015472,0.2849503-0.9415741,0.349472
						c-0.4745636,0.0904427-0.9066238,0.0840378-1.2965164-0.0201454c-0.3914337-0.1057205-0.7368851-0.285759-1.0369644-0.5419731
						c-0.3013229-0.2568283-0.5519867-0.5802765-0.7525864-0.9660187c-0.2018433-0.3863564-0.3458176-0.8149719-0.4371872-1.2892189
						l-0.0493469-0.2616577c-0.0904388-0.4745598-0.1137772-0.927494-0.0684586-1.3603516
						c0.0449982-0.4337845,0.1587601-0.8227882,0.3431091-1.1707268c0.1828156-0.346386,0.4375076-0.6418266,0.7643814-0.8854027
						c0.3259583-0.2432632,0.724205-0.4099541,1.1947479-0.5000725c0.3603973-0.0683136,0.7065582-0.0751114,1.0378418-0.0222397
						c0.331604,0.0537949,0.6319504,0.1614647,0.9029007,0.32547c0.2700272,0.1643219,0.5019913,0.3806915,0.6959076,0.6522064
						c0.1926804,0.2708969,0.333992,0.5880394,0.4208527,0.9514427l-0.7186279,0.1369324
						c-0.0682297-0.2717667-0.1742783-0.5059929-0.317215-0.7029991s-0.3131866-0.3559036-0.5110703-0.4776192
						c-0.197876-0.1217194-0.4156418-0.2016563-0.6523743-0.2401276c-0.2379608-0.0390816-0.4846878-0.0339622-0.737709,0.0134926
						c-0.3881607,0.0746155-0.6997681,0.2109642-0.939743,0.4127693c-0.2396774,0.1996422-0.4201736,0.4431801-0.5421143,0.7287636
						c-0.122551,0.2868233-0.1906357,0.6005821-0.206398,0.9440575c-0.013588,0.3437767,0.0142212,0.6941643,0.0825272,1.0514717
						l0.0502701,0.2613449c0.0689392,0.3622437,0.1720581,0.7005577,0.311821,1.0161629
						c0.1400757,0.3165321,0.3191452,0.583786,0.5356827,0.8033142c0.2153015,0.2189178,0.4744949,0.3786545,0.7748032,0.4770622
						C69.0953827,58.5727081,69.4376068,58.5847664,69.8248444,58.5104637z"/>
					<path class="st4" d="M79.0629883,50.9407654c-0.1636734,0.0007324-0.3343735,0.0172424-0.512413,0.0517006
						c-0.2548676,0.0480804-0.4762268,0.131218-0.6659546,0.2438583c-0.189415,0.1135635-0.3487701,0.2520103-0.4792709,0.4178123
						c-0.1295853,0.1654892-0.2303696,0.3490677-0.3001709,0.5541267c-0.0716476,0.2056885-0.1176071,0.4263878-0.1356964,0.6624069
						l0.8829422,4.6332855l-0.7430115,0.1410522l-1.2855148-6.7465858l0.7294312-0.1385231l0.2178726,1.0706291
						c0.1112137-0.4056664,0.3045578-0.7453079,0.5778732-1.0192184c0.2723923-0.2735939,0.6381531-0.4540367,1.0951233-0.5416222
						c0.0910263-0.0173912,0.1861038-0.0258484,0.2843018-0.0281372c0.1003571-0.0019951,0.1744995,0.003849,0.2242737,0.0169067
						L79.0629883,50.9407654z"/>
					<path class="st4" d="M80.2069855,53.456852c-0.0929871-0.4912262-0.1077423-0.9584045-0.0442505-1.401535
						c0.0653381-0.4437561,0.1991348-0.8405685,0.4041672-1.1913795c0.2041092-0.3504944,0.4739227-0.6469307,0.8131714-0.8874741
						c0.3370743-0.2408447,0.7328644-0.4056702,1.1842804-0.4913788c0.4628372-0.0885391,0.8949051-0.0821304,1.2999039,0.0179672
						c0.40345,0.0985641,0.7670975,0.2745094,1.0859985,0.5253868c0.3192062,0.2518082,0.5889969,0.5708466,0.8093796,0.9602089
						c0.2203903,0.3893623,0.3783035,0.8287239,0.4712906,1.3199463l0.0395203,0.2051888
						c0.093605,0.4899864,0.1083527,0.9571648,0.0467148,1.3996696c-0.0619507,0.4415779-0.1951218,0.8402443-0.4001541,1.1910515
						c-0.2037888,0.3514214-0.4764023,0.64571-0.8137894,0.8856277c-0.3370972,0.237751-0.734436,0.4010429-1.1926422,0.4880142
						c-0.4569702,0.0875854-0.8865585,0.0824051-1.2875366-0.0149345c-0.40345-0.0985603-0.7655487-0.2729683-1.0866089-0.524147
						c-0.3207474-0.2502556-0.5923996-0.5717545-0.8161697-0.9589424c-0.2222366-0.3887367-0.3801575-0.8280983-0.4737549-1.3180847
						L80.2069855,53.456852z M80.9950638,53.519104c0.0705185,0.3699608,0.1875534,0.7128448,0.3510895,1.0286522
						c0.1635437,0.3158073,0.3654633,0.5804901,0.6042099,0.7955971c0.2387543,0.215107,0.5139923,0.3704453,0.8250961,0.4672585
						c0.3117142,0.0955772,0.6499329,0.1079636,1.0149536,0.0380821c0.3662567-0.0692711,0.6756973-0.2059174,0.9277115-0.4087029
						c0.2520218-0.2027855,0.449791-0.4501076,0.5939636-0.7370262c0.1426239-0.2884598,0.231369-0.6081734,0.2671509-0.9625511
						c0.0364075-0.3525238,0.0190353-0.7146912-0.0514832-1.0846519l-0.0385971-0.2055016
						c-0.069252-0.3631706-0.1865692-0.7008018-0.3501129-1.0166092c-0.1635361-0.3158112-0.3642349-0.5829659-0.6023712-0.7993126
						c-0.2406158-0.2175674-0.5177155-0.37537-0.830986-0.4724808c-0.3141937-0.0968018-0.6539536-0.1107216-1.0198975-0.0405312
						c-0.3613205,0.0686302-0.6676788,0.205265-0.9187546,0.4108238c-0.2526321,0.2040253-0.4497757,0.4531975-0.5920868,0.7425804
						c-0.1432343,0.2896919-0.2332001,0.6118851-0.2689819,0.9662628c-0.0360947,0.3534508-0.0187531,0.7094383,0.050499,1.0726089
						L80.9950638,53.519104z"/>
					<path class="st4" d="M92.6101151,53.8071861c-0.1528625,0.3465614-0.3896484,0.6400719-0.7072754,0.8805161
						c-0.3191757,0.2389107-0.737175,0.4081573-1.2561646,0.5074463c-0.3332443,0.0632553-0.6429443,0.0742149-0.9312592,0.0325775
						c-0.2889404-0.0434875-0.5488129-0.1473236-0.7833252-0.3133469c-0.2354431-0.1657104-0.4353714-0.400135-0.602562-0.7023392
						c-0.1681137-0.3018913-0.2955093-0.6845665-0.3834229-1.1455498l-0.8228683-4.3216438l0.7420807-0.1407433l0.8256989,4.3330574
						c0.069252,0.3631706,0.168457,0.656414,0.2970047,0.88097c0.1285477,0.2245522,0.2775497,0.3968239,0.4470139,0.5168152
						c0.1685181,0.117218,0.3541412,0.1905022,0.5543671,0.2155495c0.2011642,0.0278206,0.4089661,0.0204048,0.620018-0.0200653
						c0.2993011-0.0569267,0.5574036-0.1411514,0.7727814-0.2511292c0.2162933-0.1102905,0.3954391-0.2420311,0.5389786-0.3936844
						c0.1432266-0.1525803,0.2536545-0.3198357,0.3300476-0.5023804c0.0773087-0.1828575,0.1289368-0.3776436,0.1545715-0.5852852
						l-0.930069-4.8822899l0.7476349-0.1426201l1.2855148,6.7465858l-0.7235718,0.1375732L92.6101151,53.8071861z"/>
					<path class="st4" d="M94.9917526,45.4550209l0.3298264,1.7276039l1.3974457-0.2665825l0.1160736,0.6112518
						l-1.3974533,0.2665825l0.8570023,4.4956627c0.0452194,0.2372818,0.1059647,0.4229202,0.1809845,0.5563011
						c0.0756454,0.1352348,0.1607056,0.2342949,0.2573547,0.3005676s0.1993332,0.101635,0.3117752,0.1079292
						c0.1105881,0.006916,0.2248154,0.0002289,0.3420715-0.0219116c0.1113892-0.0211906,0.2184219-0.0491524,0.3201828-0.08358
						c0.1008301-0.034111,0.1911697-0.0657043,0.2719498-0.0950966l0.1463089,0.6061745
						c-0.0840836,0.0500984-0.1975098,0.0987816-0.3424454,0.145752s-0.2889862,0.084362-0.4352417,0.1121941
						c-0.2110519,0.0404739-0.4132843,0.0490952-0.6051636,0.0274124c-0.1903229-0.0201492-0.3641891-0.0891647-0.5184784-0.2008858
						c-0.155838-0.1132584-0.291214-0.2757111-0.4064255-0.4882812c-0.1164551-0.2131805-0.2060013-0.487011-0.2705078-0.8239555
						l-0.8569946-4.4956627l-1.2407074,0.2362328l-0.1160736-0.6112518l1.2407074-0.2362328l-0.3298187-1.7276039
						L94.9917526,45.4550209z"/>
					<path class="st4" d="M102.187912,52.9947853c-0.4406204,0.0841141-0.8609467,0.0788918-1.2625198-0.0141182
						c-0.401886-0.0939407-0.7639542-0.2621689-1.0880585-0.5040703c-0.3231812-0.2422142-0.5990982-0.5488739-0.8258972-0.9236946
						c-0.2258835-0.3751297-0.3862228-0.8033638-0.4773178-1.2859497l-0.0515366-0.2681313
						c-0.0992889-0.5189934-0.1104202-1.0059509-0.0352325-1.4571609c0.0761108-0.4515266,0.217308-0.8508453,0.4272919-1.1992035
						c0.2099838-0.348362,0.4715042-0.635807,0.7888718-0.8648262c0.3161469-0.2265396,0.6684418-0.3797455,1.0541382-0.4524994
						c0.4279633-0.0818977,0.8235855-0.0765648,1.1849976,0.0135384c0.3617249,0.0910301,0.6826859,0.2504883,0.9601135,0.4824066
						c0.2792816,0.2312927,0.5125198,0.5245552,0.7012558,0.8813248c0.1893539,0.3555298,0.3254852,0.7579308,0.4105682,1.2075005
						l0.0869598,0.4551201l-4.8134766,0.9170952l0.0278168,0.1431694c0.0695953,0.3702698,0.1940155,0.7075653,0.3670731,1.0119019
						c0.1746216,0.3058777,0.3869858,0.5587769,0.636795,0.7608643c0.2501221,0.2030106,0.5287018,0.3469124,0.8379059,0.4319992
						c0.3091965,0.0850868,0.6362839,0.0950508,0.9812469,0.029892c0.3989639-0.07621,0.7380371-0.2166939,1.015686-0.4199028
						c0.2773361-0.2041359,0.5116882-0.4896049,0.6996536-0.8573227l0.5354538,0.2662773
						c-0.0822525,0.1834984-0.1824341,0.362751-0.301178,0.5359116c-0.1205902,0.1737862-0.2677994,0.3328705-0.4431763,0.4787979
						c-0.1744461,0.1456184-0.3789368,0.2725296-0.6125412,0.3804245
						C102.7598343,52.853878,102.4912262,52.9375343,102.187912,52.9947853z M100.8381577,46.6616859
						c-0.2820206,0.0531425-0.5332413,0.1577225-0.7536774,0.3106461c-0.2210388,0.1541634-0.4045334,0.3492317-0.5520248,0.5836639
						c-0.1471863,0.235363-0.2531433,0.5042-0.3175659,0.8074379c-0.0647354,0.3023148-0.0861282,0.6291428-0.0629501,0.9780045
						l4.0473328-0.7713051l-0.0151825-0.081459c-0.0630188-0.2807465-0.1599426-0.5458946-0.2944641-0.7942047
						c-0.1332779-0.2476921-0.2985153-0.4588051-0.4972382-0.6317825c-0.1996536-0.1726608-0.4296646-0.2979431-0.6888046-0.3752213
						C101.442894,46.6086464,101.1547318,46.6009789,100.8381577,46.6616859z"/>
					<path class="st4" d="M113.5128937,50.7067566c-0.0640945-0.1071815-0.1227646-0.2440376-0.1781616-0.4077721
						c-0.0557022-0.1646614-0.1024704-0.333374-0.1443176-0.5058174c-0.0848007,0.166832-0.1924667,0.3300591-0.3202209,0.4887466
						c-0.1302338,0.1574631-0.2812195,0.3023567-0.4544983,0.4331436c-0.1726532,0.132637-0.3679199,0.2502441-0.586113,0.3518944
						c-0.2172623,0.1013374-0.4584198,0.1777687-0.7256241,0.2289925c-0.3273773,0.0623016-0.6355438,0.0717087-0.920784,0.0269699
						c-0.2873993-0.0450363-0.5416565-0.1353111-0.7627563-0.2708206c-0.2220383-0.1382866-0.4078064-0.3125572-0.5566711-0.5240479
						c-0.1473312-0.2130432-0.2478714-0.458416-0.3003616-0.7324142c-0.0626144-0.3283005-0.0479431-0.6384239,0.0437164-0.928196
						c0.0891876-0.2909966,0.2516785-0.5542221,0.4822464-0.7899551c0.2302475-0.2366562,0.5270462-0.4380989,0.8888321-0.6089478
						c0.3608704-0.1705399,0.7790527-0.2996407,1.2526855-0.3897743l1.3857193-0.2646751l-0.1461029-0.7670746
						c-0.0920181-0.4822731-0.3137741-0.8330269-0.663414-1.052887c-0.3502579-0.2186203-0.8106461-0.275238-1.3790054-0.1664619
						c-0.2625885,0.0496559-0.4969254,0.1309967-0.703331,0.2430954c-0.2070236,0.1133385-0.3784409,0.2465858-0.5145493,0.4019127
						c-0.1367264,0.1565666-0.2335587,0.324379-0.2920456,0.5049896c-0.0584869,0.1806145-0.0687714,0.3665695-0.0336609,0.5526276
						l-0.7498245,0.1361465c-0.0477676-0.2539444-0.0316238-0.5109558,0.0471954-0.7716408
						c0.0797424-0.2610016,0.2145309-0.5055695,0.4065247-0.7334099c0.1907578-0.2284546,0.434761-0.4274979,0.7326126-0.6014595
						c0.2953873-0.1720963,0.6379318-0.2962303,1.0233154-0.3699074c0.3582306-0.068615,0.6972427-0.0843391,1.0157852-0.0508652
						c0.3185425,0.0334702,0.6030502,0.1217575,0.8541412,0.2636185c0.2510834,0.141861,0.462883,0.3382492,0.6354065,0.5891647
						c0.1728287,0.2518425,0.2937164,0.5604286,0.3639145,0.9263763l0.6226654,3.2666855
						c0.0218353,0.1163254,0.0492401,0.2369537,0.0815964,0.3600273c0.0320435,0.1221466,0.0690155,0.2405701,0.1093597,0.3537254
						c0.0412674,0.1128426,0.0837479,0.2201233,0.1283646,0.3215256c0.0455399,0.1010895,0.093483,0.1879616,0.1416779,0.2603188
						l0.013916,0.0746727L113.5128937,50.7067566z M111.0666504,50.6188698
						c0.2699814-0.0521622,0.5132751-0.1344681,0.7320328-0.2466202c0.2162857-0.1133804,0.4080811-0.2473373,0.5716705-0.4037132
						c0.1648331-0.1557655,0.2987137-0.3268318,0.4068985-0.5129166c0.1057053-0.1873055,0.1835861-0.3806686,0.231163-0.5843925
						l-0.2824097-1.4838486l-1.279274,0.2441292c-0.3826141,0.0727386-0.7172394,0.1715126-1.0063477,0.2981834
						c-0.2881775,0.1263618-0.5240784,0.2731781-0.7061462,0.4419899c-0.184227,0.1685143-0.3127899,0.3553085-0.3884583,0.5613174
						c-0.0747375,0.2056999-0.090126,0.4253387-0.0461502,0.6589203c0.0347824,0.182045,0.1028366,0.346653,0.2041702,0.4938126
						c0.1022644,0.1468506,0.2294159,0.2667236,0.3823853,0.3593025c0.153595,0.094429,0.3292847,0.1566429,0.5314026,0.1903267
						C110.6172256,50.66782,110.833992,50.662529,111.0666504,50.6188698z"/>
					<path class="st4" d="M116.9289246,50.0562401l-0.7476349,0.1426201l-1.8256302-9.5772781l0.7476273-0.1426201
						L116.9289246,50.0562401z"/>
					<path class="st4" d="M121.5927124,49.2970047c-0.4409332,0.0831909-0.8609467,0.0788918-1.2625198-0.014122
						c-0.4021912-0.0948601-0.7639542-0.2621689-1.0883713-0.5049934c-0.3228683-0.2412872-0.5990906-0.5488739-0.8258972-0.9236908
						c-0.2258835-0.3751335-0.3862228-0.8033676-0.4773178-1.2859535l-0.0515366-0.2681313
						c-0.0992889-0.5189896-0.1101074-1.005024-0.0352325-1.4571609c0.0761108-0.4515266,0.217308-0.8508415,0.4276047-1.1982803
						c0.2099838-0.3483582,0.4715042-0.6358032,0.788559-0.8657455c0.3161469-0.2265434,0.6687546-0.3788261,1.0541382-0.4525032
						c0.4279709-0.0818977,0.8235855-0.0765648,1.1849976,0.0135422c0.3617325,0.0910263,0.6826859,0.2504883,0.960434,0.4833298
						c0.2789612,0.2303658,0.5125122,0.5245552,0.7009354,0.8803978c0.1893539,0.3555298,0.3254929,0.7579308,0.4105759,1.2075005
						l0.0869598,0.4551201l-4.8131714,0.9180222l0.0278168,0.1431694c0.0695953,0.3702698,0.1940155,0.7075615,0.3670807,1.0119019
						c0.1743011,0.3049507,0.3869781,0.5587769,0.6367874,0.7608643c0.2498093,0.2020836,0.5287094,0.3469086,0.8375931,0.4310722
						c0.3095093,0.08601,0.6365967,0.095974,0.9812546,0.029892c0.3989563-0.07621,0.7383499-0.2157707,1.0159912-0.4189796
						c0.2770233-0.2050591,0.5113754-0.4905281,0.6993484-0.8582458l0.5354462,0.2662773
						c-0.0819397,0.1844215-0.1824341,0.362751-0.301178,0.5359116c-0.1205826,0.17379-0.2677994,0.3328705-0.4431763,0.4788017
						c-0.1744461,0.1456146-0.378624,0.2734528-0.6122208,0.3813477
						C122.1643219,49.1551704,121.8957138,49.2388268,121.5927124,49.2970047z M120.2426453,42.9629784
						c-0.2817078,0.0540695-0.5332413,0.1577225-0.7533569,0.311573c-0.2210464,0.1541595-0.4048538,0.3483047-0.5520325,0.5836639
						c-0.1474915,0.234436-0.2531433,0.5042-0.3175659,0.8074379c-0.0647354,0.3023148-0.0864334,0.6282158-0.0632629,0.9770775
						l4.0473404-0.7713051l-0.0151901-0.081459c-0.0630188-0.2807465-0.1599426-0.5458946-0.2944565-0.7942009
						c-0.1332855-0.2476959-0.2985229-0.4588089-0.4972458-0.6317863c-0.1996536-0.1726608-0.4293518-0.2970161-0.6888046-0.3752213
						C120.847702,42.910862,120.559227,42.9022713,120.2426453,42.9629784z"/>
					<path class="st4" d="M127.5047913,41.7082024c-0.1627502,0.0004196-0.3343735,0.0172462-0.512413,0.0517044
						c-0.2539444,0.0477676-0.4753036,0.1309013-0.6647186,0.2444687c-0.1897278,0.1126404-0.3487625,0.2520103-0.4805145,0.417202
						c-0.1286545,0.1651764-0.2303619,0.3490677-0.3001633,0.5541267c-0.0716553,0.2056847-0.116684,0.426075-0.1347733,0.6620941
						l0.8829422,4.6332817l-0.7426987,0.1419792l-1.2855072-6.746582l0.7291107-0.1394501l0.2178726,1.0706291
						c0.1112137-0.4056702,0.3039474-0.744072,0.5772629-1.0179787c0.2723923-0.2735977,0.6378403-0.4549637,1.0948105-0.5425491
						c0.0910263-0.017395,0.187027-0.0261612,0.2855377-0.0275269c0.0991211-0.0026054,0.1732635,0.0032387,0.2239609,0.0159836
						L127.5047913,41.7082024z"/>
					<path class="st4" d="M129.7052612,38.8390083l0.329834,1.7276039l1.3965149-0.2662697l0.1160736,0.6112518
						l-1.3965302,0.2662697l0.8570099,4.4956665c0.0452118,0.237278,0.1056519,0.4219933,0.1800537,0.5566139
						c0.0756531,0.135231,0.1607056,0.2342911,0.2573547,0.3005638c0.09758,0.0659599,0.2011871,0.1010132,0.3126984,0.1076164
						c0.1105957,0.006916,0.2238922,0.0005417,0.341156-0.0215988c0.1113892-0.0211906,0.2184143-0.0491524,0.3201752-0.0835762
						c0.1005249-0.035038,0.1911774-0.0657082,0.2719574-0.0950966l0.1472321,0.6058617
						c-0.0850067,0.0504074-0.1984406,0.0990906-0.342453,0.1457481c-0.144928,0.0469704-0.2899017,0.0846786-0.4352417,0.1121941
						c-0.2113647,0.0395508-0.4132843,0.049099-0.6051636,0.0274124c-0.1906281-0.0210724-0.3651123-0.0888519-0.5193939-0.200573
						c-0.1549225-0.1135712-0.2902985-0.2760201-0.4064331-0.4882774c-0.1164551-0.2131844-0.2059937-0.4870148-0.2705078-0.8239555
						l-0.8569946-4.4956665l-1.2397766,0.2359238l-0.1160736-0.6112518l1.2397766-0.2359238l-0.3298187-1.7276039
						L129.7052612,38.8390083z"/>
					<path class="st4" d="M134.1619415,46.3199921c-0.0271912-0.1413155-0.0036774-0.2698898,0.0696106-0.3854065
						c0.0723572-0.1152039,0.1881561-0.1873703,0.3458252-0.218029c0.1570587-0.0294228,0.2921143-0.0050125,0.4045715,0.0744705
						c0.1118469,0.080719,0.1821442,0.1909599,0.2084045,0.332592c0.0268555,0.1373062,0.0008545,0.2615662-0.0740051,0.3724594
						c-0.0757751,0.1112022-0.1928101,0.1827545-0.3498688,0.2121773c-0.1576691,0.0306625-0.2914886,0.0068626-0.400528-0.0686188
						C134.2556763,46.5635414,134.187561,46.4566879,134.1619415,46.3199921z M134.5808411,44.0751648l-0.6923981,0.1321831
						l-1.2858429-6.5464668l0.7735443-0.1482964L134.5808411,44.0751648z"/>
					<g>
						<path class="st5" d="M47.1640968,75.3871536l-3.5919037,0.6852646l0.7071152,3.711319l-1.8701591,0.3563995
							l-1.7301407-9.0786514l5.9107056-1.126442l0.2890358,1.515625l-4.0405464,0.7700424l0.4465332,2.3437958l3.5918999-0.6852722
							L47.1640968,75.3871536z"/>
						<path class="st5" d="M51.1884995,78.4669266l-1.8081398,0.344696l-1.2861366-6.748436l1.8084526-0.3437729
							L51.1884995,78.4669266z M47.6550903,70.3385391c-0.0515518-0.2712173-0.0022774-0.5095444,0.1444016-0.718956
							c0.1479149-0.2088089,0.3764572-0.3438568,0.6893349-0.4033127c0.1530418-0.0290985,0.297245-0.0325241,0.4304466-0.0105743
							c0.1335106,0.0228729,0.2522926,0.0661926,0.3541908,0.1327515c0.1049881,0.0665436,0.190918,0.1529388,0.2593231,0.257637
							c0.0705719,0.1049881,0.1171188,0.2242966,0.1427307,0.3578949c0.0265503,0.1363831,0.0271301,0.2660828,0.0002022,0.3906555
							c-0.0253906,0.123024-0.0733757,0.234108-0.1467361,0.3341827c-0.0702744,0.1000671-0.1650085,0.1857224-0.280201,0.2535629
							c-0.1164207,0.0703125-0.251152,0.120018-0.4041977,0.1491089c-0.154892,0.0297241-0.298172,0.0328369-0.4316826,0.009964
							c-0.133812-0.0207138-0.2510567-0.0655823-0.354805-0.1315155c-0.102211-0.0674896-0.1887512-0.1526413-0.2593231-0.257637
							C47.729126,70.5970001,47.6816406,70.4749222,47.6550903,70.3385391z"/>
						<path class="st5" d="M53.0453186,71.1201477l0.204792,0.7698975c0.1779213-0.3364792,0.4154015-0.6127014,0.7136726-0.831131
							c0.3001175-0.2190628,0.65028-0.3663864,1.0532532-0.4429245c0.320591-0.0610352,0.6200981-0.07164,0.8982086-0.0327377
							c0.2805901,0.0401306,0.5321236,0.143692,0.7576904,0.3106842c0.2258797,0.1679153,0.420269,0.4073029,0.5847092,0.7166214
							c0.1641273,0.3083954,0.2934341,0.7027969,0.3845024,1.1792068l0.817482,4.2904816l-1.8022766,0.3437424l-0.8196983-4.3031311
							c-0.0411148-0.2159882-0.0999489-0.3899002-0.1752701-0.5211182c-0.0737839-0.1327744-0.164093-0.2321167-0.2727814-0.2974091
							c-0.1068382-0.065918-0.2308426-0.1033478-0.369236-0.1132278c-0.1405602-0.0101852-0.297699,0.0007095-0.4729576,0.0342255
							c-0.2656746,0.049675-0.4823112,0.1528625-0.6483955,0.304924c-0.1670074,0.1523819-0.2903137,0.3394547-0.3680763,0.5606079
							l0.9066582,4.758255l-1.8031998,0.3440552l-1.2858276-6.7475128L53.0453186,71.1201477z"/>
						<path class="st5" d="M58.8918076,73.4515381c-0.0980225-0.5121994-0.1273422-0.9919739-0.0907364-1.438385
							c0.0378456-0.4457932,0.1398354-0.8421555,0.3062859-1.1881638c0.1670609-0.3472366,0.398941-0.633934,0.6956177-0.8631668
							c0.2969894-0.2283096,0.6551476-0.3824692,1.0754013-0.4627914c0.3455811-0.0663986,0.6639977-0.0607147,0.9561768,0.0167236
							c0.2928085,0.0792923,0.5633202,0.2145844,0.8112411,0.4080353l-0.654953-3.4413376l1.8072166-0.3443832l1.824707,9.5775909
							l-1.6270142,0.3102264l-0.2239456-0.701561c-0.1610641,0.3070679-0.3702393,0.5603104-0.6234932,0.7624817
							c-0.2548065,0.2006378-0.5719604,0.3388596-0.9496346,0.4109573
							c-0.4156265,0.0787582-0.8026505,0.0622711-1.1616859-0.0482254
							c-0.3596458-0.1092606-0.6813393-0.2952728-0.9632187-0.5555878
							c-0.2828064-0.2599945-0.5217552-0.5884399-0.7205505-0.9840698c-0.1966362-0.39534-0.3434525-0.8384552-0.4370537-1.3284378
							L58.8918076,73.4515381z M60.7184448,73.2376938c0.052803,0.2749252,0.1230965,0.5253677,0.2152252,0.7550278
							c0.0899544,0.2262726,0.203846,0.4197006,0.3388901,0.5781403c0.1353455,0.1562729,0.2955132,0.270134,0.478344,0.3412704
							c0.1843681,0.0695877,0.3941154,0.0831604,0.6313934,0.037941c0.2906647-0.0550385,0.5211792-0.1629181,0.6899948-0.3251877
							c0.1700554-0.1616516,0.2883568-0.363533,0.355217-0.6047058l-0.5078659-2.6622238
							c-0.151619-0.2043762-0.335392-0.3483963-0.5522614-0.4348221c-0.2165565-0.0855026-0.465538-0.1022949-0.7490997-0.0476074
							c-0.2363548,0.0449142-0.4274178,0.1353226-0.5750542,0.2687759s-0.2556,0.2988434-0.3226547,0.496788
							c-0.0676689,0.1991806-0.1021805,0.423233-0.1044655,0.6724548c-0.0019684,0.2501526,0.0245361,0.514389,0.0779762,0.7942505
							L60.7184448,73.2376938z"/>
						<path class="st5" d="M69.2647934,71.4608307c-0.0935974-0.4899826-0.1089783-0.9590149-0.0489044-1.4061432
							c0.060997-0.4474411,0.1984863-0.8485947,0.4105911-1.2059174c0.2121048-0.3573303,0.4991837-0.6606369,0.8630905-0.910553
							c0.3639069-0.2499237,0.8001099-0.4232635,1.3064499-0.52034c0.5125122-0.0970917,0.9828491-0.0964203,1.4150162,0.001709
							c0.4321671,0.0981216,0.8143463,0.2739868,1.1446838,0.5282135c0.3309555,0.2529831,0.6063232,0.5763245,0.827034,0.969696
							c0.2225571,0.3927536,0.3801804,0.8342743,0.4737778,1.3242645l0.0246735,0.1308289
							c0.0945587,0.4958496,0.1108551,0.9645615,0.0483093,1.4104691c-0.0610123,0.4443512-0.1988144,0.8445816-0.4136887,1.2028503
							c-0.2142715,0.3570251-0.5025864,0.6597214-0.8649597,0.9080887c-0.3608322,0.2468109-0.7979584,0.4204712-1.3083115,0.517868
							c-0.512207,0.0980225-0.9825363,0.0973511-1.4131546,0.0007629c-0.4296951-0.0969009-0.8087845-0.2727814-1.1397324-0.5257645
							c-0.3303375-0.2542267-0.6063156-0.5763245-0.8270187-0.9666138
							c-0.2210083-0.3912125-0.3786316-0.8327408-0.4731827-1.3285904L69.2647934,71.4608307z M71.0926666,71.2476044
							c0.052803,0.2749252,0.125885,0.5275192,0.2220459,0.7599411c0.0955276,0.2305679,0.2146683,0.4242783,0.3583527,0.5808258
							c0.1442947,0.1553116,0.3143463,0.2678909,0.5101395,0.3377304c0.196106,0.0707703,0.4237595,0.0824127,0.6832504,0.0327682
							c0.248085-0.046814,0.4511719-0.1412964,0.6080627-0.2778778c0.1574936-0.1378174,0.2737885-0.3060226,0.353508-0.5030975
							c0.0781708-0.198616,0.1194687-0.4239273,0.1236038-0.6737823s-0.0208206-0.5125427-0.0727005-0.7877808l-0.0246735-0.1308289
							c-0.0509109-0.2662811-0.1239624-0.5127029-0.2194901-0.7432709
							c-0.0958328-0.2284088-0.2171402-0.4224243-0.3633118-0.5832825
							c-0.1477127-0.1593094-0.3186951-0.2746582-0.5182037-0.3463364c-0.1998215-0.0726089-0.425621-0.084877-0.6792526-0.0361862
							c-0.2499313,0.0474396-0.4530258,0.141922-0.6086578,0.2822037c-0.1562653,0.1384277-0.2725372,0.3097305-0.3488464,0.5108032
							c-0.0747528,0.2026062-0.1148148,0.4285355-0.1186523,0.6762238c-0.0047531,0.2480011,0.0192413,0.504837,0.0701523,0.7711182
							L71.0926666,71.2476044z"/>
						<path class="st5" d="M81.3312759,72.0106277c-0.1648026,0.299057-0.3829575,0.5470886-0.6587677,0.746582
							c-0.277359,0.1979599-0.622612,0.3384705-1.0333023,0.4165802c-0.3323135,0.0629425-0.6451035,0.0739136-0.9374313,0.032608
							c-0.2923279-0.0413132-0.5552826-0.145134-0.7910309-0.3086853c-0.2366638-0.1632309-0.4384308-0.3939438-0.6080627-0.6911926
							c-0.1687088-0.2975693-0.2942047-0.6685181-0.3789597-1.1140747l-0.8323288-4.36483l1.8013535-0.3434372l0.8345413,4.3774872
							c0.0354233,0.1869888,0.090477,0.3436203,0.1629791,0.4665146c0.0737457,0.1235123,0.1597137,0.2191696,0.2606735,0.2829514
							c0.1003494,0.0650177,0.2132568,0.1062088,0.3368454,0.1210938c0.1235962,0.0148926,0.2557449,0.0093613,0.3970642-0.0178299
							c0.3246002-0.0613632,0.5770493-0.1684189,0.7591934-0.3187027c0.1827621-0.1515198,0.3094711-0.3376846,0.3782806-0.5578766
							l-0.9098282-4.7767563l1.8093796-0.3440857l1.2858276,6.7475052l-1.6958237,0.3231964L81.3312759,72.0106277z"/>
						<path class="st5" d="M85.1216354,63.288063l0.3156204,1.6581879l1.1546173-0.2194824l0.2523499,1.3218536
							l-1.1546249,0.2194824l0.6413422,3.3675842c0.0271912,0.1413193,0.0647583,0.2554092,0.1114731,0.3416748
							c0.0454636,0.0856476,0.1038055,0.1483841,0.1703873,0.1897736c0.0693588,0.0404587,0.1478958,0.0623398,0.2362289,0.064415
							c0.0883255,0.0020752,0.1914368-0.0070267,0.3077621-0.028862c0.1082993-0.0211716,0.2057877-0.0438461,0.2939911-0.0695572
							c0.0882111-0.0257187,0.1643753-0.0504608,0.2275772-0.0738983l0.2602539,1.3635025
							c-0.14048,0.0753632-0.2973633,0.1449356-0.4675446,0.2086945c-0.1695557,0.0656052-0.3678894,0.1193008-0.592514,0.1623077
							c-0.2952881,0.0565948-0.5679092,0.0704803-0.8184891,0.0428772c-0.250885-0.0285263-0.4757385-0.1050339-0.6736374-0.2298355
							c-0.1991272-0.1254196-0.3679428-0.3074875-0.5076599-0.5437241
							c-0.1394043-0.2353134-0.2441864-0.5328598-0.3127975-0.8910904l-0.6777191-3.5604324l-0.9858398,0.1881561
							l-0.2514191-1.3221664l0.9849091-0.1878433l-0.3156128-1.6581841L85.1216354,63.288063z"/>
						<path class="st5" d="M92.4655457,63.6066666l0.2003632,0.7445908
							c0.1724472-0.3160706,0.4034805-0.5839272,0.6958923-0.8014069c0.2933273-0.2177925,0.6515121-0.3657761,1.07547-0.4473457
							c0.4029694-0.0765343,0.7745438-0.0630646,1.1153183,0.0391731c0.3414001,0.1040916,0.6304932,0.3186646,0.8694534,0.6501923
							c0.1595764-0.363266,0.3885956-0.6675491,0.6895218-0.9147148c0.2999954-0.2468529,0.6806412-0.4137726,1.1416168-0.5016861
							c0.3283081-0.0626144,0.6349182-0.0735588,0.9204407-0.0340729c0.2858429,0.0404129,0.5426254,0.1442642,0.770668,0.3124771
							c0.2289658,0.1679001,0.4245834,0.4048157,0.5880814,0.7113609c0.1638184,0.3074684,0.2918701,0.6981735,0.3820038,1.1718063
							l0.818428,4.2963409l-1.808136,0.344696l-0.8184357-4.2963409c-0.0430069-0.2246246-0.1031036-0.4053268-0.1790619-0.5414886
							c-0.0750427-0.136467-0.1638107-0.2373657-0.2669373-0.301445c-0.1021957-0.0643959-0.2193985-0.1000023-0.3506775-0.1071396
							c-0.1294327-0.0077591-0.2742157,0.0030823-0.4321976,0.0328178
							c-0.2789383,0.0531273-0.4967575,0.1680565-0.6584167,0.3423347
							c-0.1604233,0.1748886-0.2656937,0.3909149-0.3167496,0.6453018c0.0037994,0.0203705,0.0106964,0.043808,0.016983,0.0684814
							c0.0072174,0.0243683,0.0116348,0.0465851,0.0157471,0.0678711l0.8570023,4.4956665l-1.8031998,0.3440552
							l-0.8165283-4.2846146c-0.0430069-0.2246246-0.0987854-0.4047241-0.1738205-0.5411987
							c-0.0731812-0.1370926-0.1613464-0.2392273-0.2641678-0.3054733s-0.2218933-0.1043167-0.3547211-0.1129913
							c-0.1322174-0.009903-0.278244,0.0003204-0.4359131,0.030983c-0.2665939,0.0499802-0.4801636,0.1500702-0.6416321,0.2974777
							c-0.1617813,0.146492-0.2776947,0.3310623-0.346817,0.5503235l0.9085693,4.7699738l-1.8022766,0.34375l-1.2858276-6.7475128
							L92.4655457,63.6066666z"/>
						<path class="st5" d="M102.1815796,65.1866913c-0.0935974-0.4899902-0.1099014-0.9587021-0.0489044-1.406147
							c0.0603867-0.4462051,0.1975632-0.8482819,0.4109039-1.204998c0.2111816-0.3570099,0.4988708-0.6615562,0.8627777-0.9114761
							c0.3639069-0.2499161,0.7991867-0.4229507,1.3055267-0.5200195c0.5125122-0.0970993,0.9837723-0.0967369,1.415947,0.0013885
							c0.4321671,0.0981255,0.8137283,0.2752266,1.1449966,0.5291367c0.3300247,0.2533035,0.6050797,0.5757141,0.8267136,0.9687767
							c0.2219467,0.3939896,0.3804932,0.8352013,0.4740982,1.3251877l0.0246735,0.130825
							c0.0945511,0.4958496,0.1090012,0.9651947,0.0479889,1.4095459c-0.0619354,0.4446716-0.1994247,0.8458252-0.4133759,1.2037735
							c-0.2155075,0.3564148-0.5025864,0.6597214-0.8652725,0.9071655
							c-0.3605194,0.2477417-0.7985764,0.4217148-1.3092346,0.5181885c-0.512207,0.0980225-0.9816132,0.0970306-1.4122314,0.0004425
							c-0.4296951-0.0969009-0.8097076-0.2724609-1.1397324-0.5257645
							c-0.3312607-0.2539139-0.6069336-0.5750885-0.8270187-0.9666138c-0.2210083-0.3912125-0.378624-0.8327332-0.4731827-1.3285828
							L102.1815796,65.1866913z M104.0085297,64.9737701c0.0518799,0.275238,0.1271286,0.5281372,0.2220459,0.7599411
							c0.0964508,0.2302551,0.2159119,0.4248962,0.3592758,0.5805206c0.1443024,0.155304,0.3137283,0.2691193,0.5104523,0.3386536
							c0.1957932,0.0698395,0.4237595,0.0824127,0.6810913,0.0324707c0.2499313-0.0474472,0.453331-0.1409988,0.6099091-0.2785034
							c0.1565704-0.1375122,0.2741013-0.3051071,0.3525848-0.5027924c0.0772476-0.1982956,0.1207047-0.423317,0.1239166-0.6728516
							c0.0047455-0.251091-0.0198975-0.5128632-0.0727005-0.7877808l-0.0246735-0.1308289
							c-0.0509109-0.2662888-0.1233521-0.5139427-0.2194901-0.7432747c-0.0949097-0.2287216-0.217453-0.4233475-0.3636246-0.5842056
							c-0.1464767-0.1586952-0.3186951-0.2746582-0.5182037-0.3463402
							c-0.1985855-0.0719948-0.4243851-0.0842628-0.6792526-0.0361824c-0.2486954,0.0480499-0.452095,0.1416054-0.6077347,0.2818871
							c-0.1568756,0.1396713-0.2725372,0.3097305-0.3488464,0.5108032
							c-0.0753632,0.2038498-0.1148148,0.4285393-0.1195755,0.6765442
							c-0.0035172,0.2486115,0.0192413,0.5048294,0.0701523,0.7711105L104.0085297,64.9737701z"/>
						<path class="st5" d="M113.1657791,61.4129105c-0.0938568,0.0059776-0.2031326,0.0151138-0.3278427,0.0274048
							c-0.1253204,0.0135307-0.2358093,0.0282326-0.3308487,0.0459518c-0.3532944,0.0679741-0.6270142,0.1822243-0.822403,0.3421402
							c-0.1975479,0.1596184-0.3247986,0.3624649-0.385788,0.6057777l0.8412018,4.4154396l-1.8013458,0.3434372
							l-1.2858276-6.7475128l1.701683-0.3241501l0.2033691,0.796154c0.113739-0.3250771,0.2802353-0.5917168,0.4991608-0.8039284
							c0.217392-0.210659,0.4944077-0.3487053,0.8254852-0.4122581c0.0959625-0.0180321,0.1984406-0.0289879,0.3074341-0.0328712
							c0.1090012-0.0038872,0.1985703-0.0011978,0.2705612,0.0074348L113.1657791,61.4129105z"/>
						<path class="st5" d="M118.0057144,65.8611221c-0.5239258,0.0999298-1.0075226,0.1027069-1.4535522,0.0123672
							c-0.4463425-0.0912704-0.8429947-0.25811-1.1877823-0.497139c-0.3454132-0.2408829-0.631813-0.5450211-0.8585892-0.9136658
							c-0.2276993-0.3683319-0.3839417-0.7783585-0.4699631-1.2307053l-0.0474167-0.2437553
							c-0.0964737-0.5106621-0.1125259-0.9938927-0.0456924-1.4484673c0.0659103-0.454258,0.2049179-0.8600502,0.4194794-1.2192383
							c0.2139435-0.361042,0.499176-0.663723,0.855072-0.9099007c0.3546524-0.246788,0.7748184-0.4157372,1.2561646-0.5074463
							c0.4872131-0.0926628,0.9297409-0.0949516,1.330986-0.0059509c0.3997116,0.0905495,0.7525024,0.2557335,1.0596161,0.4961662
							c0.3061905,0.2407455,0.5632858,0.5527382,0.7663574,0.9366188c0.2049179,0.383255,0.3541946,0.8245087,0.448761,1.3234482
							l0.1467133,0.765831l-4.2963333,0.8184357c0.0716782,0.2149239,0.1685638,0.4037971,0.2921982,0.5650673
							c0.1233292,0.1634293,0.2662735,0.2934189,0.4300919,0.3936768c0.1628876,0.100563,0.3453903,0.1676865,0.5468979,0.2026062
							c0.1987305,0.0358658,0.4158096,0.0314941,0.6500015-0.01371c0.3273773-0.0623016,0.618988-0.1815796,0.875145-0.3568954
							c0.2539902-0.175621,0.4576797-0.411541,0.6076736-0.7086792l1.075592,0.8237534
							c-0.0801315,0.17453-0.1868134,0.3498001-0.3212891,0.5251923c-0.1347809,0.1775589-0.3001785,0.3438263-0.4989853,0.4997406
							c-0.1984863,0.1568451-0.4300995,0.2949905-0.6929779,0.4169159
							C118.6306915,65.7063904,118.3349457,65.7981949,118.0057144,65.8611221z M116.7455444,60.3626709
							c-0.1956177,0.0373154-0.3596115,0.1041336-0.4950638,0.2004738c-0.1348267,0.0981903-0.2420731,0.2169456-0.325737,0.3596878
							c-0.0827484,0.1424255-0.1406937,0.3063583-0.1747665,0.4890251
							c-0.0350113,0.1829758-0.0470886,0.3819084-0.0350189,0.5943222l2.5064011-0.4778328l-0.0278168-0.1431656
							c-0.0372314-0.1770973-0.0950928-0.3389664-0.17202-0.4840775c-0.0778503-0.1447983-0.1753464-0.2623291-0.2949677-0.3569107
							c-0.1190033-0.0927315-0.2613449-0.1569481-0.4242477-0.1904984
							C117.138176,60.3195305,116.9538269,60.3231354,116.7455444,60.3626709z"/>
						<path class="st5" d="M121.7037125,64.109024c-0.0256195-0.136692-0.0262146-0.2694817-0.0005417-0.3977585
							c0.0250626-0.127037,0.0748901-0.2418327,0.1473083-0.3446846c0.0727386-0.1019249,0.1680832-0.1888199,0.2823257-0.2625198
							c0.1151657-0.0740166,0.2501984-0.125885,0.403244-0.1549797c0.154892-0.0297203,0.2991104-0.030056,0.4354095-0.0050354
							c0.1366119,0.0259476,0.2572632,0.0717316,0.3628693,0.1401253c0.1056137,0.0683975,0.1934128,0.1572533,0.2643051,0.2662582
							c0.0702896,0.1102409,0.1180878,0.2332458,0.1437149,0.3699379c0.0268631,0.1373062,0.0271454,0.2691727,0.0026932,0.3949661
							c-0.026619,0.1255035-0.0758286,0.2390594-0.1494904,0.341301c-0.072731,0.1019287-0.1680756,0.1888199-0.2857208,0.2616119
							c-0.1179581,0.0718613-0.2533035,0.1228027-0.4085083,0.1516037
							c-0.1530457,0.0290909-0.2966385,0.0312805-0.4301453,0.0084076c-0.13414-0.0247269-0.2538605-0.0708237-0.3591614-0.1382904
							c-0.1046906-0.0687103-0.1930923-0.1563263-0.2633667-0.2634811
							C121.7780685,64.3684082,121.7296524,64.2466431,121.7037125,64.109024z"/>
					</g>
				</g>
			</g>
		</g>
	</g>
	<g>
		<path class="st6" d="M154.7256012,146.661377c2.317627,1.0590363,3.3384399,3.7989349,2.279129,6.1178894l0,0
			c-1.0592346,2.3188934-3.7976532,3.338562-6.1165314,2.2792664l-61.1193924-27.9312286
			c-2.3200302-1.0607681-3.3409729-3.799324-2.2817383-6.1182861l0,0c1.0605698-2.3186951,3.8004608-3.3394318,6.1178894-2.279129
			L154.7256012,146.661377z"/>
		<path class="st7" d="M102.1316376,140.2285614l45.4602661,23.9130402
			c4.5700226,2.4043274,10.2234344,0.647934,12.6275635-3.9207611c2.4030609-4.570282,0.6482086-10.224762-3.9218292-12.6291046
			l-44.4318161-23.3725891C108.531189,129.5007935,105.2995834,134.8450623,102.1316376,140.2285614z"/>
		<circle class="st6" cx="92.8495407" cy="121.1202393" r="7.3767681"/>
		<path class="st8" d="M166.2983551,203.8044434c0.290863-0.0308228,0.581955-0.0494537,0.8729401-0.0394592
			c2.3920593,0.0849762,4.2437286,1.3193207,5.3585358,3.1096497c2.4803314-0.8291168,5.4769745-0.4967499,7.2528687,1.6352081
			c1.7948456,2.1545715,2.8188019,4.4920044,3.2881317,7.0684967c0.2722168,0.1260529,0.5378723,0.27005,0.7961121,0.4348297
			c0.3826294-0.0171814,0.7639465-0.0054626,1.1455231,0.036087c0.0834961-0.1532288,0.1742249-0.2986145,0.2532959-0.4535217
			c0.9674225-1.8918915,1.796875-3.8491058,2.7537994-5.745285c2.4439087-4.8412476,5.9053955-8.6356812,11.5649567-9.1144409
			c1.2170258-7.2421722,2.1691589-14.5562897,2.5466766-21.8935242c0.3238068-6.2774811,0.6446533-13.8940125-0.0381317-19.5011444
			c-0.5457306-4.4781494-1.4625549-9.4184875-0.7338104-14.0055237
			c-8.391983-10.3787994-22.3251038-15.5468445-36.1215363-12.0822449
			c-13.387207,3.3619385-23.0567474,13.9446869-25.8958282,26.5491638l0.6841888,0.37146
			c-1.0213928,5.0190887,8.5249634,7.8202515,9.8558197,13.1196899l4.5906067,18.3425751
			c1.6170502,6.4408569-2.4393005-2.5408325,1.9431,1.8323822c0.105423-1.6684265-2.3473663,15.7721558-2.3242645,14.083725
			C154.1871185,200.5545044,162.8869629,199.4719849,166.2983551,203.8044434z"/>
		
			<rect x="188.7332916" y="208.6433868" transform="matrix(0.9730216 -0.2307141 0.2307141 0.9730216 -54.4118233 51.528717)" class="st9" width="8.7850361" height="99.561142"/>
		<path class="st7" d="M214.3535919,176.6006927c4.7562256,18.9392242-6.7422943,38.147644-25.6815796,42.9039001l0,0
			c-18.9393158,4.7561798-38.1476593-6.7423553-42.9039154-25.6816406l-5.0314026-20.0368042
			c-4.7562408-18.9392242,6.7422791-38.147644,25.6815796-42.9039001l0,0
			c18.9382935-4.7546158,38.1476593,6.7423553,42.9039154,25.6816406L214.3535919,176.6006927z"/>
		<g>
			<defs>
				<path id="SVGID_39_" d="M214.3329468,176.6341705c4.7562408,18.9393005-6.7423553,38.1476593-25.6815796,42.9039001l0,0
					c-18.9405518,4.756546-38.1486664-6.7407227-42.9039001-25.6815796l-5.0327301-20.0365601
					c-4.7546234-18.9382782,6.7435913-38.1479492,25.6815643-42.9038849l0,0
					c18.939621-4.7549362,38.1489868,6.7420349,42.9052429,25.6813202L214.3329468,176.6341705z"/>
			</defs>
			<clipPath id="SVGID_1_">
				<use xlink:href="#SVGID_39_"  style="overflow:visible;"/>
			</clipPath>
			<path class="st10" d="M236.9380951,222.4303436l-88.7125549,21.034729l-8.6942444-36.6674042
				c0,0,19.4866638,0.2512512,45.2133789-5.8488312c25.7267303-6.1000977,43.499176-15.1858978,43.499176-15.1858978
				L236.9380951,222.4303436z"/>
		</g>
		<path class="st6" d="M178.4529266,129.3358154c1.3929138,5.8744812-2.2389679,11.7639771-8.1121826,13.1565704l0,0
			c-5.8744812,1.3929138-11.7652283-2.2386627-13.1581268-8.1131439l-6.4555664-27.2259598
			c-1.3925934-5.8731537,2.2402191-11.764267,8.1146851-13.1571655l0,0c5.87323-1.3926086,11.763031,2.2405853,13.1556244,8.113739
			L178.4529266,129.3358154z"/>
		<g>
			<path class="st8" d="M211.0469513,153.8963165c-2.2570343-3.0378571-4.6526337-5.9825897-6.8181763-9.0862885
				c-3.6772156-0.8177338-7.4433136-1.3028107-11.1729126-1.7658081c-0.1529541-0.0190277-0.2987976-0.0538635-0.4454346-0.0849304
				c-1.5245972,3.2264862-1.4728241,7.1793365,0.2832031,10.5475464l27.9417114,40.9364624
				c0.8003387-1.0368042,1.0509491-1.6941986,1.3095093-2.3393707c0.409256-1.026001,0.8448334-2.0406342,1.2522583-3.0669708
				c0.2400818-0.6031494,0.4867554-1.2058716,0.6938477-1.8208313c0.1230164-0.3722382,0.1889496-0.5699158,0.2017517-0.5987854
				c0.4238892-1.302475,1.1103668-2.4659271,2.0113068-3.3674774c0.9586639-1.2455292,2.2649384-2.1481476,3.8141174-2.4850006
				c-3.052887-4.3961945-6.1395416-8.7689056-9.2143402-13.1429291
				C217.6630249,163.0144501,214.4066925,158.4170074,211.0469513,153.8963165z"/>
			<path class="st6" d="M204.6606293,144.5215149c-1.3789673-2.1438293-4.2365112-2.7627411-6.3803406-1.3837738l0,0
				c-2.143158,1.3801422-2.7615814,4.2358398-1.3826141,6.3796692l36.3687592,56.5076752
				c1.379715,2.1449585,4.2361908,2.7645874,6.3792725,1.3844757l0,0c2.1449738-1.379715,2.7637939-4.2372894,1.3836823-6.3803711
				L204.6606293,144.5215149z"/>
			<path class="st7" d="M221.8625946,193.298584l-29.9680786-40.927948
				c-3.0307922-4.1798248-5.6170502-8.319931-1.4374695-11.3537292c4.1794739-3.0289612,10.0267639-2.0983429,13.0587311,2.0807953
				l29.4746246,40.640274c-1.5898895,2.5547638-1.8258057,3.178894-4.430481,5.3440399
				C223.4797974,193.3046265,224.4885559,192.1386719,221.8625946,193.298584z"/>
			<circle class="st6" cx="234.9467926" cy="205.3115082" r="7.3768563"/>
		</g>
		
			<rect x="198.5215149" y="213.293808" transform="matrix(-0.9730216 0.2307141 -0.2307141 -0.9730216 461.0487366 472.2362976)" class="st11" width="8.7850361" height="99.561142"/>
		
			<rect x="209.7975006" y="309.5764771" transform="matrix(0.9730216 -0.2307141 0.2307141 0.9730216 -65.7527924 59.2181816)" class="st0" width="21.0744267" height="2.3701303"/>
		<g class="st12">
			<path class="st0" d="M178.1336365,129.3216705c-1.6945648-0.7555084-3.0393219-1.5287094-3.9685974-3.2254791
				c-0.5917206-1.0945892-0.8689575-2.2638245-0.832016-3.5089417c0.0915527-2.5828323,1.6009674-4.6468201,3.7641296-5.7683258
				c0.3074341-2.6769562-0.5222015-5.4123764-0.9676056-8.025856c-0.3675385-2.1472244-0.4284058-4.1956024-0.3679962-6.2720413
				c-0.8375702-0.5005569-1.7074738-0.9478531-2.6094208-1.323555c0.0652618-1.1660156-0.0316772-2.361618-0.3147125-3.555336
				c-1.0704346-4.5144958-4.4901123-7.8537445-8.6546936-9.0462036c-1.0545807,1.1800232-2.0687561,2.3981552-3.0450592,3.644043
				c0.3863678,1.3080826,0.4714203,2.7290955,0.2275543,4.0491486c-0.8993378,4.8610077-3.8436127,9.0679321-4.4692993,14.1125183
				c-0.3527985,2.8361359-0.626236,5.7255402-0.4286652,8.5857239c0.085022,1.2488327,0.3283386,2.4587326,0.5872498,3.6827087
				c0.1330109,0.6356201,0.2781677,1.0178757,0.3711853,1.2149963c2.340683,2.665184,2.661911,6.8738708-0.2293396,9.4724731
				c-0.0178986,0.0165253-0.0399475,0.0326233-0.0591125,0.0494385c-0.2300262,0.2873077-0.4799652,0.5712585-0.7744293,0.8453369
				c-0.819046,0.7606354-1.5437622,1.5860291-2.316452,2.3928223c4.527771,3.062912,10.2726593,4.2932281,16.0091858,2.9330292
				c5.3742523-1.274292,9.7254944-4.5894012,12.450531-8.9227295c-0.3409271-0.1057129-0.680481-0.2226257-1.0178375-0.3591003
				C180.3302765,130.0983887,179.1890564,129.7930908,178.1336365,129.3216705z"/>
		</g>
		<g>
			<g>
				<path class="st6" d="M172.6616821,98.6409607c0.0652618-1.1660156-0.0313873-2.3603592-0.3144226-3.5540771
					c-1.5778198-6.6543579-8.2503662-10.7691116-14.9034576-9.1915894
					c-6.6530457,1.577507-10.7677917,8.2500458-9.1899719,14.9044037c0.2830353,1.193718,0.7329254,2.304306,1.3147583,3.3168945
					c-4.0862122,4.7486572-5.9194336,11.3213654-4.3636169,17.8829193
					c2.5788727,10.8761902,13.4868011,17.6016693,24.3616791,15.0231171
					c10.874939-2.5785675,17.6020355-13.4855042,15.0231781-24.3616943
					C183.0340118,106.0993729,178.44487,101.0494766,172.6616821,98.6409607z"/>
			</g>
			<g>
				<defs>
					<path id="SVGID_37_" d="M172.6616821,98.6409607c0.0652618-1.1660156-0.0313873-2.3603592-0.3144226-3.5540771
						c-1.5778198-6.6543579-8.2503662-10.7691116-14.9034576-9.1915894
						c-6.6530457,1.577507-10.7677917,8.2500458-9.1899719,14.9044037c0.2830353,1.193718,0.7329254,2.304306,1.3147583,3.3168945
						c-4.0862122,4.7486572-5.9194336,11.3213654-4.3636169,17.8829193
						c2.5788727,10.8761902,13.4868011,17.6016693,24.3616791,15.0231171
						c10.874939-2.5785675,17.6020355-13.4855042,15.0231781-24.3616943
						C183.0340118,106.0993729,178.44487,101.0494766,172.6616821,98.6409607z"/>
				</defs>
				<clipPath id="SVGID_2_">
					<use xlink:href="#SVGID_37_"  style="overflow:visible;"/>
				</clipPath>
				<path class="st13" d="M178.7676239,100.1941147c-0.60466-2.3034134-1.8395691-4.3130188-3.3469391-6.1395798
					c-0.3338013-0.4028473-0.5656738-0.863884-0.6717682-1.3398285c-0.6907654-0.7484741-1.3964691-1.4852524-2.1009064-2.2222672
					c-1.6208954-1.0249176-3.1971588-2.1829681-4.190506-3.7882843c-1.4675751-0.5561295-3.0865173-0.8489609-4.8658905-0.7620239
					c0,0,2.1544495,10.0223846,12.4737396,11.2504959l3.2143097,4.0237885
					C179.0547943,100.9457092,178.8767242,100.6080704,178.7676239,100.1941147z"/>
				<path class="st13" d="M146.7904053,96.3907242c-0.3517151,0.0384293-0.5765228-0.0253143-0.5765228-0.0253143
					l0.8138885-5.1695938l6.9876404-6.3053131l6.4898376-0.15271l3.6603241,1.3337784
					C164.1655731,86.0715714,160.7855988,94.8668671,146.7904053,96.3907242z"/>
			</g>
			<circle class="st0" cx="156.3942261" cy="100.3210144" r="1.0320692"/>
			<circle class="st0" cx="164.4260406" cy="98.4165802" r="1.0313909"/>
			<path class="st5" d="M160.0062561,104.8563843c0.2031555,0.6789322,0.9025574,1.0903931,1.6025696,0.9244156
				c0.6987-0.1656723,1.1388397-0.8473282,1.0156097-1.5452118L160.0062561,104.8563843z"/>
			<g>
				<circle class="st14" cx="154.7347717" cy="100.8907928" r="4.6727672"/>
				<g>
					<defs>
						<circle id="SVGID_31_" cx="154.7347717" cy="100.8907928" r="4.6727672"/>
					</defs>
					<clipPath id="SVGID_3_">
						<use xlink:href="#SVGID_31_"  style="overflow:visible;"/>
					</clipPath>
					
						<rect x="151.8875275" y="95.6662521" transform="matrix(0.9979703 0.0636806 -0.0636806 0.9979703 6.7534595 -9.5542955)" class="st15" width="2.7429287" height="11.0019045"/>
				</g>
				<circle class="st14" cx="166.2323456" cy="98.1645966" r="4.6727333"/>
				<g>
					<defs>
						<circle id="SVGID_30_" cx="166.5857849" cy="98.4293518" r="4.6720891"/>
					</defs>
					<clipPath id="SVGID_4_">
						<use xlink:href="#SVGID_30_"  style="overflow:visible;"/>
					</clipPath>
					
						<rect x="163.578186" y="92.7142105" transform="matrix(0.9979839 0.0634682 -0.0634682 0.9979839 6.566123 -10.2710381)" class="st16" width="2.7427504" height="11.002553"/>
				</g>
				<g>
					<circle class="st17" cx="154.7347717" cy="100.8907928" r="4.6727672"/>
					<circle class="st17" cx="166.2323456" cy="98.1645966" r="4.6727333"/>
					<line class="st18" x1="159.4705811" y1="99.6800461" x2="161.6478729" y2="99.1637878"/>
				</g>
			</g>
		</g>
	</g>
</g>
<g>
</g>
<g>
</g>
<g>
</g>
<g>
</g>
<g>
</g>
<g>
</g>
</svg>
