<?xml version="1.0" encoding="utf-8"?>
<!-- Generator: Adobe Illustrator 19.1.0, SVG Export Plug-In . SVG Version: 6.00 Build 0)  -->
<svg version="1.1" id="Layer_1" xmlns="http://www.w3.org/2000/svg" xmlns:xlink="http://www.w3.org/1999/xlink" x="0px" y="0px"
	 viewBox="0 0 16 16" style="enable-background:new 0 0 16 16;" xml:space="preserve">
<style type="text/css">
	.st0{fill:#41B5E8;}
</style>
<g>
	<g id="rect2832_4_">
		<path class="st0" d="M8,16.0004463c-4.4111605,0-8-3.5883932-8-8S3.5888393,0,8,0c4.4116068,0,8,3.5888393,8,8.0004463
			S12.4116068,16.0004463,8,16.0004463z M8,1.3714286c-3.6549106,0-6.6285715,2.9736609-6.6285715,6.6290178
			S4.3450894,14.6290178,8,14.6290178c3.6553574,0,6.6285715-2.9732141,6.6285715-6.6285715S11.6553574,1.3714286,8,1.3714286z"/>
	</g>
	<g id="g3604_4_" transform="translate(-104.3057,471.71079)">
		<g id="path2824_4_">
			<path class="st0" d="M112.3057709-463.4663391v2.8902588"/>
			<path class="st0" d="M112.3057022-459.6621094c-0.5049133,0-0.9142838-0.4089355-0.9142838-0.9143066v-2.88974
				c0-0.5048828,0.4093704-0.9142761,0.9142838-0.9142761s0.9142838,0.4093933,0.9142838,0.9142761v2.88974
				C113.219986-460.0710449,112.8106155-459.6621094,112.3057022-459.6621094z"/>
		</g>
		<g id="path2826_4_">
			<path class="st0" d="M112.3057709-466.845459v0.3405457"/>
			<path class="st0" d="M112.3057022-465.5906982c-0.5049133,0-0.9142838-0.4093628-0.9142838-0.9142761v-0.3406372
				c0-0.5049133,0.4093704-0.9142761,0.9142838-0.9142761s0.9142838,0.4093628,0.9142838,0.9142761v0.3406372
				C113.219986-466.000061,112.8106155-465.5906982,112.3057022-465.5906982z"/>
		</g>
	</g>
</g>
<g>
</g>
<g>
</g>
<g>
</g>
<g>
</g>
<g>
</g>
<g>
</g>
<g>
</g>
<g>
</g>
<g>
</g>
<g>
</g>
<g>
</g>
<g>
</g>
<g>
</g>
<g>
</g>
<g>
</g>
</svg>
