<?xml version="1.0" encoding="utf-8"?>
<!-- Generator: Adobe Illustrator 19.1.0, SVG Export Plug-In . SVG Version: 6.00 Build 0)  -->
<svg version="1.1" id="Layer_1" xmlns="http://www.w3.org/2000/svg" xmlns:xlink="http://www.w3.org/1999/xlink" x="0px" y="0px"
	 viewBox="0 0 20 16" style="enable-background:new 0 0 20 16;" xml:space="preserve">
<style type="text/css">
	.st0{opacity:0.6;}
	.st1{fill-rule:evenodd;clip-rule:evenodd;fill:#FFFFFF;}
</style>
<g class="st0">
	<g>
		<g>
			<g>
				<path class="st1" d="M9.1672974,10.9862671c-0.3806763-0.388855-0.9543152-0.3966675-1.3443298-0.0172729L6,12.7907715
					V1.1175537c0-0.5432129-0.4548035-0.9836426-1.0000305-0.9836426C4.4549866,0.1339111,4,0.5743408,4,1.1175537v12.0863647
					l-2.2922974-2.1913452c-0.3904419-0.3793945-1.033783-0.371521-1.4146423,0.0172729
					c-0.3804321,0.3887939-0.3820343,1.0115967,0.0079803,1.3908081l3.5276108,3.4338379
					c0.2741699,0.2665405,0.6598015,0.3308716,0.9996452,0.2171021c0.2819824,0.0297241,0.5716305-0.0479736,0.7905025-0.2607422
					l3.5313902-3.4337158C9.5404482,11.9977417,9.5479126,11.375061,9.1672974,10.9862671z"/>
			</g>
		</g>
	</g>
	<g>
		<g>
			<g>
				<path class="st1" d="M19.696106,3.8471069L16.1637573,0.413269c-0.274231-0.2665405-0.6621704-0.3308105-1.0020142-0.217041
					c-0.2819824-0.0297241-0.5728149,0.0479736-0.791687,0.2607422L10.8380737,3.890686
					c-0.3902588,0.3793945-0.3983154,1.0020752-0.0177002,1.3908691c0.3806763,0.388855,0.9605103,0.3966064,1.3505249,0.0172729
					L14,3.4771118v11.6731567c0,0.5432129,0.454834,0.9836426,1.000061,0.9836426
					c0.5449829,0,0.999939-0.4404297,0.999939-0.9836426V3.0639038l2.2861328,2.1913452
					c0.3904419,0.3793945,1.0307007,0.371521,1.4115601-0.0172729C20.078125,4.8491821,20.0861206,4.2263794,19.696106,3.8471069z"
					/>
			</g>
		</g>
	</g>
</g>
</svg>
