<?xml version="1.0" encoding="utf-8"?>
<!-- Generator: Adobe Illustrator 19.0.1, SVG Export Plug-In . SVG Version: 6.00 Build 0)  -->
<svg version="1.1" id="Layer_1" xmlns="http://www.w3.org/2000/svg" xmlns:xlink="http://www.w3.org/1999/xlink" x="0px" y="0px"
	 viewBox="0 0 112 112" style="enable-background:new 0 0 112 112;" xml:space="preserve">
<style type="text/css">
	.st0{fill:#52A8DE;}
	.st1{fill:#E51A42;}
</style>
<g>
	<g>
		<path class="st0" d="M56,20.5c19.5752029,0,35.5,15.9248009,35.5,35.5S75.5752029,91.5,56,91.5S20.5,75.5752029,20.5,56
			S36.4248009,20.5,56,20.5 M56,19.5c-20.1581993,0-36.5,16.3418007-36.5,36.5S35.8418007,92.5,56,92.5S92.5,76.1582031,92.5,56
			S76.1582031,19.5,56,19.5L56,19.5z"/>
	</g>
	<g>
		<path class="st0" d="M56,36.375c10.8212967,0,19.625,8.8036995,19.625,19.625S66.8212967,75.625,56,75.625
			S36.375,66.8212967,36.375,56S45.1786995,36.375,56,36.375 M56,35.375c-11.3905983,0-20.625,9.2344017-20.625,20.625
			S44.6094017,76.625,56,76.625S76.625,67.3906021,76.625,56S67.3906021,35.375,56,35.375L56,35.375z"/>
	</g>
</g>
<g>
	<g>
		<path class="st0" d="M56,4c28.6727982,0,52,23.3271008,52,52c0,28.6727982-23.3272018,52-52,52C27.3271008,108,4,84.6727982,4,56
			C4,27.3271008,27.3271008,4,56,4 M56,0C25.0722008,0,0,25.0723,0,56s25.0722008,56,56,56c30.9276962,0,56-25.0723038,56-56
			S86.9276962,0,56,0L56,0z"/>
	</g>
</g>
<circle class="st1" cx="25.1865005" cy="37.2705002" r="2.3125"/>
<circle class="st1" cx="83.6865005" cy="59.8955002" r="2.3125"/>
<circle class="st1" cx="56.5615005" cy="91.6455002" r="2.3125"/>
</svg>
