<?xml version="1.0" encoding="utf-8"?>
<!-- Generator: Adobe Illustrator 19.1.0, SVG Export Plug-In . SVG Version: 6.00 Build 0)  -->
<svg version="1.1" id="Layer_1" xmlns="http://www.w3.org/2000/svg" xmlns:xlink="http://www.w3.org/1999/xlink" x="0px" y="0px"
	 viewBox="0 0 20 11" style="enable-background:new 0 0 20 11;" xml:space="preserve">
<style type="text/css">
	.st0{opacity:0.7;}
	.st1{fill:#F2F2F2;}
</style>
<g class="st0">
	<g>
		<path class="st1" d="M10.5967665,6.4325204c-0.000638-0.1801124-0.0746861-0.3499093-0.1996956-0.4616838
			c-0.0023527-0.0024176-0.0047054-0.0048351-0.0070581-0.0072126l-0.0257196-0.0259891L10.3342266,5.916924
			C10.15415,5.7929406,9.9175291,5.7826657,9.716836,5.8900075C9.5111189,6.0000496,9.3835173,6.208488,9.3837967,6.4340115
			L9.3958788,7.253623c-0.0142756,0.154808,0.0346518,0.3112278,0.1377296,0.4357352
			c0.1143227,0.1381264,0.2778921,0.2181897,0.449954,0.2206473c0.005702,0.0001612,0.0113649,0.0002418,0.017067,0.0002418
			c0.1652832,0,0.3241072-0.071279,0.4391079-0.1979623c0.1142836-0.1258368,0.1711454-0.2905569,0.1585045-0.4562039
			L10.5967665,6.4325204z"/>
		<path class="st1" d="M10.593976,3.7389748c0.0083332-0.1677823-0.0529156-0.326257-0.174017-0.4485884l-0.0001192-0.0001209
			c-0.0433445-0.0437589-0.0898399-0.077122-0.1391659-0.0999684c-0.1806355-0.0990014-0.4015846-0.0950525-0.5898371,0.0136192
			C9.4934139,3.3180277,9.3777351,3.5233235,9.3861094,3.742682l0.0015154,0.7779884
			c-0.0084143,0.16746,0.0535917,0.3337116,0.172102,0.4592261c0.113884,0.1205988,0.2685614,0.1885338,0.4275045,0.1885338
			c0.005064,0,0.010128-0.0000806,0.015192-0.0002017c0.1628513-0.0022159,0.3213568-0.0756712,0.4360781-0.2023544
			c0.1124487-0.1241446,0.1709461-0.2860842,0.1622133-0.4471779L10.593976,3.7389748z"/>
		<path class="st1" d="M19.4256248,7.5943456c-0.5293465-0.0298572-1.0203323-0.2591276-1.3825607-0.6455431
			c-0.3642616-0.3886318-0.5651932-0.9021335-0.5658321-1.4460163c-0.0007172-0.538322,0.1977024-1.0463438,0.5587349-1.4304223
			c0.3598347-0.3827889,0.8491478-0.6094403,1.3752632-0.6381295c0.3178463-0.0151906,0.5767975-0.2896302,0.5772762-0.61077
			l0.0042667-1.0620182c0.0061417-0.4505628-0.1791592-0.8997961-0.5083313-1.2324599L19.4844017,0.528946
			c-0.3297691-0.3331473-0.7592278-0.5121717-1.2116146-0.5077798L1.8089004,0.0080709
			C1.7692642,0.0008986,1.7225701-0.0028487,1.6724467,0.0025909C1.2298294,0.0103273,0.8152446,0.18774,0.5020232,0.5042461
			c-0.3241075,0.327466-0.5023906,0.7646514-0.5020317,1.2312109l0.0011963,1.0716078
			c0.0005981,0.3206966,0.264733,0.5924366,0.5803071,0.6010997c1.0853693,0.0705137,1.9355135,0.9850574,1.9368293,2.0855961
			c0.001276,1.0980406-0.8490276,2.0122619-1.9371084,2.0849109c-0.1489746,0.0043116-0.2951978,0.0687814-0.4034596,0.17838
			C0.0657461,7.8704376,0.0016663,8.0248022,0.0019454,8.1823502l0.0066193,1.0637503
			c0.0009969,0.958746,0.7687982,1.7395554,1.7116926,1.7405224L18.2861061,11h0.0009556
			c0.4580097,0,0.8873482-0.1792259,1.209383-0.5047178c0.3223133-0.3257732,0.4995594-0.7599773,0.4990807-1.2206535
			l0.0044651-1.0683842C19.9993935,7.8844595,19.7405605,7.609899,19.4256248,7.5943456z M10.4154139,8.7222033
			l-0.0185823-0.0187769l-0.020895-0.016077C10.1926689,8.546443,9.9362307,8.5273838,9.7224979,8.638876
			C9.5134706,8.7479916,9.3874245,8.9556246,9.3923693,9.1819534l0.0040674,0.5884876L1.7146349,9.7668552
			C1.439335,9.766613,1.2208176,9.5400019,1.2159129,9.2503719L1.218744,8.6776791
			C1.8706675,8.5206146,2.4619005,8.170826,2.9093826,7.6721125c0.5344901-0.5956197,0.8283322-1.367403,0.8274949-2.1746044
			C3.7330494,4.6885333,3.437094,3.913003,2.9035208,3.3138373C2.4539652,2.8089988,1.861217,2.456027,1.2082967,2.2989626
			L1.2075391,1.7322737c0.0038679-0.2874948,0.216683-0.5038713,0.4960902-0.5038713h0.0002792l7.6808448,0.0033444
			L9.3791304,1.8285754v0.0044323c0.0002794,0.1640755,0.0710983,0.3261362,0.194313,0.4445995
			c0.1132069,0.1089134,0.2557611,0.1679435,0.4039383,0.1679435C9.9834032,2.4455104,9.9894247,2.445591,9.9955254,2.445591
			c0.1456652,0,0.2860661-0.0556052,0.3981962-0.1583538C10.5154209,2.175745,10.5895491,2.0188015,10.597086,1.85666
			l0.0005178-0.0105972l-0.0042267-0.6135101l7.6765776,0.0089855c0.1342621,0.0001209,0.2655315,0.0550007,0.3601151,0.1506577
			l0.0000401,0.0000403c0.0988922,0.0999281,0.1492138,0.2227026,0.1495342,0.3644555l0.000597,0.5547622
			c-1.4600773,0.3408837-2.5178146,1.6595719-2.5105572,3.1963291c-0.0040264,1.5405445,1.0566597,2.865962,2.5174961,3.2138166
			l0.0006371,0.5461788c0.0001602,0.1409874-0.0514393,0.270854-0.1453056,0.3656645
			c-0.0936279,0.0945692-0.2216663,0.1465883-0.3608322,0.1465883h-0.0005589l-7.6782522-0.0086231l0.0024319-0.5943298
			C10.6058187,9.0105848,10.5365944,8.8447771,10.4154139,8.7222033z"/>
	</g>
</g>
</svg>
