<?xml version="1.0" encoding="utf-8"?>
<!-- Generator: Adobe Illustrator 19.1.0, SVG Export Plug-In . SVG Version: 6.00 Build 0)  -->
<svg version="1.1" id="Layer_1" xmlns="http://www.w3.org/2000/svg" xmlns:xlink="http://www.w3.org/1999/xlink" x="0px" y="0px"
	 viewBox="-41 7 55 10" style="enable-background:new -41 7 55 10;" xml:space="preserve">
<path d="M13.5398226,11.8951435c0.0286665-0.2810574-0.0463915-0.5709276-0.2519054-0.7890329L9.9718885,7.5859232
	c-0.3663816-0.3888502-0.96772-0.3968887-1.3431091-0.0175295C8.2531977,7.947753,8.2456436,8.5703983,8.6120253,8.9591522
	l1.7592697,1.8678379h-50.0129623c-0.5246353,0-0.9499969,0.4400845-0.9499969,0.9835062
	c0,0.5431318,0.4253616,0.9833126,0.9499969,0.9833126h50.4119797l-2.1162577,2.2469082
	c-0.3663816,0.3890438-0.3588276,1.0113993,0.0166578,1.3909521c0.3754854,0.3791656,0.9769211,0.3713207,1.3433027-0.0174332
	l3.3161249-3.520381C13.5875692,12.6205454,13.6495523,12.2338257,13.5398226,11.8951435z"/>
</svg>
