<?xml version="1.0" encoding="utf-8"?>
<!-- Generator: Adobe Illustrator 18.0.0, SVG Export Plug-In . SVG Version: 6.00 Build 0)  -->
<!DOCTYPE svg PUBLIC "-//W3C//DTD SVG 1.1//EN" "http://www.w3.org/Graphics/SVG/1.1/DTD/svg11.dtd">
<svg version="1.1" id="Isolation_Mode" xmlns="http://www.w3.org/2000/svg" xmlns:xlink="http://www.w3.org/1999/xlink" x="0px"
	 y="0px" width="175.3px" height="16.2px" viewBox="0 0 175.3 16.2" enable-background="new 0 0 175.3 16.2" xml:space="preserve">
<path fill-rule="evenodd" clip-rule="evenodd" fill="#FFFFFF" d="M22.2,11.1c-0.8,0.9-1.8,1.3-3,1.3c-1.2,0-2.2-0.4-3-1.3
	c-0.8-0.9-1.2-1.9-1.2-3.2c0-1.1,0.4-2,1.3-2.8c0.8-0.8,1.8-1.2,3-1.2c1.2,0,2.2,0.4,3,1.2c0.8,0.8,1.3,1.7,1.3,2.8
	C23.4,9.1,23,10.2,22.2,11.1L22.2,11.1z M64.7,0.5h-3.9v5.9H55V0.5l-12.4,0l-2,2.1V0.5h-3.9v8c0,0.8,0,1.5-0.1,2
	c-0.1,0.7-0.4,1.2-0.7,1.6c-0.4,0.4-1,0.6-1.8,0.6c-0.8,0-1.4-0.2-1.8-0.6c-0.4-0.3-0.6-0.9-0.7-1.6c-0.1-0.4-0.1-1.1-0.1-1.9v-8
	h-3.9v5.9C27,4.5,26.1,3,24.5,1.8C22.9,0.6,21.1,0,19.1,0c-2.3,0-4.2,0.7-5.8,2.2c-1.7,1.5-2.5,3.4-2.5,5.6c0,0.3,0,0.7,0,0.9
	c-0.3-0.6-0.7-1.1-1.3-1.5C9,6.9,8.3,6.7,7.5,6.4l-1-0.3C5.9,5.9,5.5,5.8,5.3,5.6c-0.4-0.3-0.6-0.6-0.6-1c0-0.4,0.2-0.7,0.6-1
	C5.6,3.5,6,3.4,6.4,3.4c0.5,0,0.9,0.1,1.4,0.3C8.2,3.8,8.6,4.1,9,4.4l1.6-3C9.9,1,9.1,0.7,8.3,0.4C7.4,0.2,6.6,0.1,5.8,0.1
	C4.3,0.1,3,0.6,2.1,1.5c-1,0.9-1.5,2.2-1.5,3.7c0,0.9,0.2,1.7,0.5,2.3C1.4,8,1.9,8.4,2.5,8.7C3,8.9,3.7,9.2,4.7,9.5
	C5.4,9.7,5.9,9.8,6.2,10c0.6,0.3,0.9,0.7,0.9,1.2c0,0.5-0.2,0.9-0.6,1.2c-0.4,0.2-0.8,0.4-1.3,0.4c-0.6,0-1.2-0.2-1.9-0.5
	c-0.5-0.3-1.1-0.6-1.6-1.1L0,14.3c0.8,0.6,1.6,1,2.6,1.3c0.9,0.3,1.8,0.4,2.8,0.4c0.8,0,1.6-0.1,2.3-0.4c0.8-0.2,1.4-0.6,2-1.1
	c0.6-0.5,1-1.1,1.2-1.8c0.2-0.6,0.3-1.4,0.3-2.2c0.5,1.7,1.5,3,2.9,4c1.4,1,3.1,1.5,5,1.5c2.1,0,4-0.6,5.5-1.9
	c1.5-1.2,2.4-2.9,2.8-4.9c0,1.1,0.1,2,0.3,2.6c0.2,0.9,0.7,1.7,1.3,2.3c0.6,0.6,1.4,1,2.3,1.3c0.8,0.3,1.7,0.4,2.7,0.4
	c1,0,1.9-0.1,2.7-0.4c1-0.3,1.7-0.7,2.3-1.3c0.5-0.5,0.9-1.1,1.2-1.8c0.3-0.8,0.4-2,0.4-3.5V3.8H44v11.8H48V3.8h3.1v11.8H55V9.5h5.7
	v6.2h3.9V0.5L64.7,0.5z"/>
<path fill-rule="evenodd" clip-rule="evenodd" fill="#FFFFFF" d="M118.8,3.8h-3.3v11.8h-3.9V3.8h-3.8l-0.3,0.6
	c-0.4-0.3-0.8-0.5-1.2-0.7c-0.5-0.2-0.9-0.3-1.4-0.3c-0.4,0-0.8,0.1-1.1,0.3c-0.4,0.2-0.6,0.6-0.6,1c0,0.4,0.2,0.7,0.6,1
	c0.2,0.1,0.6,0.3,1.1,0.5l1,0.3c1.2,0.3,2.1,0.8,2.7,1.4c0.7,0.7,1.1,1.6,1.1,2.8c0,0.8-0.1,1.6-0.3,2.2c-0.3,0.8-0.7,1.4-1.2,1.9
	c-0.6,0.5-1.2,0.8-2,1.1c-0.8,0.2-1.5,0.4-2.3,0.4c-0.9,0-1.7-0.1-2.5-0.4c-0.8-0.2-1.6-0.6-2.3-1.1v1h-9.6V2.3L85,15.7h-3.7L79,6.9
	l-2.7,8.8h-3.7L68.1,0.5h4.1l2.6,9.8l2.5-9.8h3.1l2.3,9.8l2.9-9.8h12.8v3.3h-5.4v2.5h4.4v3.3h-4.4v2.6h5.7v1.1l1.2-2.3
	c0.6,0.5,1.1,0.8,1.6,1.1c0.6,0.3,1.3,0.5,1.9,0.5c0.5,0,0.9-0.1,1.3-0.4c0.4-0.3,0.6-0.7,0.6-1.2c0-0.5-0.3-0.9-0.9-1.2
	c-0.3-0.2-0.8-0.4-1.5-0.5c-1-0.3-1.7-0.5-2.2-0.8c-0.6-0.3-1.1-0.7-1.4-1.3c-0.3-0.6-0.5-1.3-0.5-2.3c0-1.5,0.5-2.8,1.5-3.7
	c1-0.9,2.2-1.4,3.8-1.4c0.8,0,1.7,0.1,2.6,0.4c1,0.3,1.8,0.6,2.4,1l0,0.1l1-1l8.5,0V3.8L118.8,3.8z"/>
<path fill-rule="evenodd" clip-rule="evenodd" fill="#FAB31E" d="M141.1,9.7l2.9-7l2.8,7H141.1L141.1,9.7z M175.3,9.7
	c-0.3-0.5-0.7-0.9-1.3-1.2L171.3,7c-0.5-0.2-0.9-0.5-1.2-0.6c-0.5-0.3-0.8-0.6-1-0.8c-0.3-0.4-0.4-0.8-0.4-1.3c0-0.8,0.3-1.4,0.8-2
	c0.5-0.5,1.2-0.8,1.9-0.8c0.7,0,1.2,0.2,1.8,0.5c0.5,0.3,0.9,0.7,1.2,1.3l0.7-0.5c-0.3-0.6-0.8-1.1-1.5-1.5
	c-0.6-0.4-1.3-0.6-2.1-0.6c-1.1,0-2,0.3-2.7,1c-0.7,0.7-1,1.6-1,2.7c0,0.6,0.1,1.1,0.4,1.5c0.2,0.4,0.6,0.8,1.1,1.1l2.6,1.4
	c0.6,0.3,1.1,0.5,1.3,0.7c0.5,0.3,0.9,0.6,1.1,0.9c0.3,0.4,0.5,0.8,0.5,1.4c0,1-0.4,1.8-1.1,2.4c-0.7,0.7-1.6,1-2.5,1
	c-0.8,0-1.6-0.2-2.2-0.7c-0.6-0.4-1-1.1-1.3-1.9l-0.8,0.4c0.3,1,0.9,1.7,1.7,2.3c0.8,0.6,1.6,0.8,2.6,0.8c1.2,0,2.3-0.4,3.2-1.2
	c0.9-0.8,1.4-1.8,1.4-3C175.7,10.7,175.6,10.1,175.3,9.7L175.3,9.7z M166,0.8H165v12.7L154.4,0.6v14.8h0.9V2.9l10.6,13V0.8L166,0.8z
	 M152.1,15.4V0.8h-0.9v14.6H152.1L152.1,15.4z M143.9,0.3L138,15l-4.5-6.5c1.3,0,2.3-0.3,3-1c0.8-0.7,1.2-1.6,1.2-2.8
	c0-0.6-0.1-1.2-0.3-1.8c-0.3-0.6-0.6-1-1.1-1.4c-0.5-0.3-1-0.6-1.6-0.7c-0.4-0.1-1-0.1-1.7-0.1H131v14.6h0.9V8.5h0.5l4.7,6.9h1.6
	l1.9-4.8h6.4l2,4.8h0.9L143.9,0.3L143.9,0.3z M129.9,0.8h-8.5v0.9h3.8v13.7h0.9V1.7h3.8V0.8L129.9,0.8z M136.5,5.9
	c-0.2,0.4-0.4,0.7-0.8,1c-0.3,0.2-0.6,0.4-0.9,0.5c-0.4,0.1-0.9,0.2-1.6,0.2H132V1.7h1c0.4,0,0.8,0,1.2,0.1c0.4,0,0.7,0.1,1,0.3
	c0.5,0.2,0.9,0.6,1.2,1.1c0.3,0.5,0.4,1,0.4,1.6C136.7,5.1,136.6,5.5,136.5,5.9L136.5,5.9z"/>
<path fill-rule="evenodd" clip-rule="evenodd" fill="#E40520" d="M153.5-2.2c0,1-0.8,1.9-1.9,1.9c-1,0-1.9-0.8-1.9-1.9
	c0-1,0.8-1.9,1.9-1.9C152.7-4.1,153.5-3.3,153.5-2.2L153.5-2.2z"/>
</svg>
