<?xml version="1.0" encoding="utf-8"?>
<!-- Generator: Adobe Illustrator 18.0.0, SVG Export Plug-In . SVG Version: 6.00 Build 0)  -->
<!DOCTYPE svg PUBLIC "-//W3C//DTD SVG 1.1//EN" "http://www.w3.org/Graphics/SVG/1.1/DTD/svg11.dtd">
<svg version="1.1" id="Layer_1" xmlns="http://www.w3.org/2000/svg" xmlns:xlink="http://www.w3.org/1999/xlink" x="0px" y="0px"
	 width="10.9px" height="10px" viewBox="0 0 10.9 10" enable-background="new 0 0 10.9 10" xml:space="preserve">
<g>
	<g>
		<path fill="#FFFFFF" d="M10.5,7.1C9.6,5.5,8.1,2.8,7.2,1.2c-0.9-1.6-2.4-1.6-3.4,0C2.9,2.8,1.3,5.4,0.4,7C-0.5,8.7,0.2,10,2.1,10
			c1.9,0,4.9,0,6.8,0C10.7,10,11.5,8.7,10.5,7.1z M5.4,8.2c-0.5,0-0.9-0.4-0.9-0.9c0-0.5,0.4-0.9,0.9-0.9c0.5,0,0.9,0.4,0.9,0.9
			C6.3,7.8,5.9,8.2,5.4,8.2z M6.3,5.1C6.3,5.6,5.9,6,5.4,6C4.9,6,4.5,5.6,4.5,5.1l0-1.5c0-0.5,0.4-0.9,0.9-0.9
			c0.5,0,0.9,0.4,0.9,0.9L6.3,5.1z"/>
	</g>
</g>
</svg>
