<?xml version="1.0" encoding="utf-8"?>
<!-- Generator: Adobe Illustrator 19.2.1, SVG Export Plug-In . SVG Version: 6.00 Build 0)  -->
<svg version="1.1" id="Layer_1" xmlns="http://www.w3.org/2000/svg" xmlns:xlink="http://www.w3.org/1999/xlink" x="0px" y="0px"
	 viewBox="0 0 29.7 37" style="enable-background:new 0 0 29.7 37;" xml:space="preserve">
<style type="text/css">
	.st0{fill:#CCCCCC;}
</style>
<path class="st0" d="M14.8,33.3C11.7,30.7,3.2,22.8,3.2,14.9c0-6.4,5.2-11.6,11.5-11.7c0,0,0.1,0,0.1,0h0h0c0,0,0.1,0,0.1,0
	c6.4,0.1,11.5,5.4,11.5,11.7C26.4,22.8,17.9,30.7,14.8,33.3z M15.1,0c-0.1,0-0.1,0-0.2,0h-0.2c-0.1,0-0.1,0-0.2,0
	C6.5,0.2,0,6.9,0,14.9c0,10.4,11.5,19.9,13.8,21.7c0.3,0.2,0.6,0.3,1,0.3c0.4,0,0.7-0.1,1-0.3c2.3-1.8,13.8-11.4,13.8-21.7
	C29.7,6.9,23.2,0.2,15.1,0z"/>
<path class="st0" d="M14.9,17.9c-2,0-3.6-1.6-3.6-3.6c0-2,1.6-3.6,3.6-3.6c2,0,3.6,1.6,3.6,3.6C18.6,16.3,16.9,17.9,14.9,17.9z
	 M14.9,7.5c-3.8,0-6.8,3.1-6.8,6.8c0,3.8,3.1,6.8,6.8,6.8c3.8,0,6.8-3.1,6.8-6.8C21.8,10.6,18.7,7.5,14.9,7.5z"/>
</svg>
