<?xml version="1.0" encoding="utf-8"?>
<!-- Generator: Adobe Illustrator 19.2.1, SVG Export Plug-In . SVG Version: 6.00 Build 0)  -->
<svg version="1.1" id="Layer_1" xmlns="http://www.w3.org/2000/svg" xmlns:xlink="http://www.w3.org/1999/xlink" x="0px" y="0px"
	 viewBox="-246.7 471.2 84.1 82.1" style="enable-background:new -246.7 471.2 84.1 82.1;" xml:space="preserve">
<g>
	<path d="M-205.1,504.3c-11.8,0.3-22.8,5.1-30.9,13.6c-1.2,1.2-1.3,3.1-0.4,4.5c0.1,0.2,0.3,0.4,0.5,0.5c1.4,1.3,3.6,1.3,5-0.1
		c6.8-7.2,16.1-11.2,26-11.5c9.9-0.2,19.3,3.4,26.5,10.3c1.4,1.3,3.7,1.3,5-0.1c1.4-1.4,1.3-3.6-0.1-5
		C-182.1,508.4-193.3,504-205.1,504.3z"/>
	<path d="M-246.7,511.5c0.1,0.2,0.3,0.4,0.5,0.5c1.4,1.4,3.6,1.3,5-0.1c9.5-9.9,22.3-15.6,36-15.9c13.7-0.3,26.7,4.7,36.7,14.2
		c1.4,1.3,3.6,1.3,5-0.1c1.4-1.4,1.3-3.6-0.1-5c-11.3-10.8-26.1-16.5-41.7-16.2c-15.6,0.4-30.1,6.8-40.9,18
		C-247.5,508.3-247.7,510.1-246.7,511.5z"/>
	<path d="M-225.1,529.4c-1.2,1.2-1.3,3.1-0.4,4.4c0.1,0.2,0.3,0.4,0.5,0.5c1.4,1.4,3.6,1.3,5-0.1c8.3-8.7,22.2-9,31-0.7
		c1.4,1.3,3.6,1.3,5-0.1c1.4-1.4,1.3-3.6-0.1-5C-195.7,517.4-214,517.9-225.1,529.4z"/>
</g>
<path d="M-2.3,539.9c-4.8,5.5-11.7,8.4-18.9,8.1c-13.1-0.6-23.3-11.7-22.7-24.8c0.3-6.7,3.3-12.7,8.3-17c1.1-0.9,1.2-2.6,0.3-3.7
	c-0.9-1.1-2.6-1.2-3.7-0.3c-6.1,5.2-9.8,12.7-10.2,20.7c-0.7,16,11.7,29.5,27.6,30.2c0.4,0,0.9,0,1.3,0c8.3,0,16.2-3.6,21.8-9.9
	c0.9-1.1,0.8-2.7-0.2-3.7C0.2,538.7-1.4,538.8-2.3,539.9z M-26.2,487.9c4.6,0,8.3-3.7,8.3-8.3s-3.7-8.3-8.3-8.3s-8.3,3.7-8.3,8.3
	S-30.8,487.9-26.2,487.9z M-26.2,476.3c1.7,0,3.2,1.4,3.2,3.2c0,1.7-1.4,3.2-3.2,3.2s-3.2-1.4-3.2-3.2
	C-29.3,477.8-27.9,476.3-26.2,476.3z M14.1,539l-12-20.9c-0.5-0.9-1.6-1.4-2.6-1.3l-20.1,2.6l-2.4-12.9c4.1,3.8,10.1,6.8,18.9,6.2
	c1.4-0.1,2.5-1.3,2.4-2.7c-0.1-1.4-1.3-2.5-2.7-2.4c-17.1,1-21-14.1-21.2-14.7c-0.3-1.4-1.7-2.2-3.1-1.9c-1.4,0.3-2.3,1.6-2,3
	l5.4,28.9c0.3,1.4,1.5,2.3,2.9,2.1l20.8-2.6l11.1,19.4c0.5,0.8,1.4,1.3,2.3,1.3c0.4,0,0.9-0.1,1.3-0.3
	C14.4,541.9,14.8,540.3,14.1,539z"/>
<path d="M-180.9,576.6h-46.9c-5,0-9,4-9,9v46.9c0,5,4,9,9,9h46.9c5,0,9-4,9-9v-46.9C-171.9,580.7-175.9,576.6-180.9,576.6z
	 M-175.5,632.6c0,3-2.5,5.4-5.4,5.4h-46.9c-3,0-5.4-2.5-5.4-5.4v-46.9c0-3,2.5-5.4,5.4-5.4h46.9c3,0,5.4,2.5,5.4,5.4V632.6z"/>
<path d="M-204.4,591.1c-10,0-18.1,8.1-18.1,18.1c0,10,8.1,18.1,18.1,18.1c10,0,18.1-8.1,18.1-18.1
	C-186.3,599.1-194.4,591.1-204.4,591.1z M-204.4,623.6c-7.9,0-14.4-6.5-14.4-14.4c0-7.9,6.5-14.4,14.4-14.4s14.4,6.5,14.4,14.4
	C-189.9,617.1-196.4,623.6-204.4,623.6z"/>
<path d="M-209.8,606.4c-1.4,0-2.7,1.2-2.7,2.7c0,1.4,1.2,2.7,2.7,2.7c1.4,0,2.7-1.2,2.7-2.7S-208.3,606.4-209.8,606.4z"/>
<path d="M-198.9,606.4c-1.4,0-2.7,1.2-2.7,2.7c0,1.4,1.2,2.7,2.7,2.7c1.4,0,2.7-1.2,2.7-2.7S-197.5,606.4-198.9,606.4z"/>
</svg>
