<svg id="sleeper" xmlns="http://www.w3.org/2000/svg" width="58" height="58" viewBox="0 0 58 58"><defs><style>.cls-1{fill:#7d0f37;fill-rule:evenodd;}.cls-2{fill:#d1ad3f;}</style></defs><title>carrier-icon-megabusgold</title><path id="circle" class="cls-1" d="M29,0A29,29,0,1,1,0,29,28.99995,28.99995,0,0,1,29,0Z"/><path class="cls-2" d="M42.62329,26.93616H29.56787v4.01843h7.55188A8.34528,8.34528,0,1,1,29,20.70343a8.09164,8.09164,0,0,1,6.97528,3.7049l4.09192-3.616A13.58568,13.58568,0,0,0,29,15.25574,13.74432,13.74432,0,1,0,42.78418,29.05322,9.71636,9.71636,0,0,0,42.62329,26.93616Z"/></svg>