<svg id="sleeper" xmlns="http://www.w3.org/2000/svg" width="50" height="50" viewBox="0 0 116 116">
  <defs>
    <style>
      .cls-1 {
        fill: #228;
      }

      .cls-1, .cls-3, .cls-4, .cls-5, .cls-6, .cls-7 {
        fill-rule: evenodd;
      }

      .cls-2, .cls-7 {
        opacity: 0.4;
      }

      .cls-4, .cls-5, .cls-6, .cls-7 {
        fill: #fbbf00;
      }

      .cls-5 {
        opacity: 0.8;
      }

      .cls-6 {
        opacity: 0.6;
      }
    </style>

    <filter id="f1" x="0" y="0">
      <feGaussianBlur in="SourceGraphic" stdDeviation="1" />
    </filter>
  </defs>
  <title>carrier-icon-sleeper</title>
  <path id="circle" class="cls-1" d="M58,0A58,58,0,1,1,0,58,57.99989,57.99989,0,0,1,58,0Z"/>
  <g id="moon">
    <g class="cls-2">
      <path class="cls-3" d="M78.17542,23.53113c-1.132-.30383-2.26562-0.533-3.39844-0.72961A40.55211,40.55211,0,0,1,49.32361,94.255a38.10466,38.10466,0,0,0,55.87793-23.57874A38.44936,38.44936,0,0,0,78.17542,23.53113Z"/>
    </g>
    <path class="cls-4" d="M67.47461,19.04761c-1.13208-.30383-2.26575-0.533-3.39868-0.72961A40.55208,40.55208,0,0,1,38.6228,89.77161,38.10466,38.10466,0,0,0,94.50073,66.19287,38.44949,38.44949,0,0,0,67.47461,19.04761Z"/>
  </g>
  <g id="stars" filter="url(#f1)" >
    <polygon class="cls-4" points="58.333 49.333 59.882 54.451 65 56 59.882 57.549 58.333 62.667 56.784 57.549 51.667 56 56.784 54.451 58.333 49.333"/>
    <polygon class="cls-4" points="53.333 35.333 54.185 38.148 57 39 54.185 39.852 53.333 42.667 52.481 39.852 49.667 39 52.481 38.148 53.333 35.333"/>
    <polygon class="cls-4" points="40.333 63.36 40.947 65.386 42.974 66 40.947 66.614 40.333 68.64 39.72 66.614 37.693 66 39.72 65.386 40.333 63.36"/>
    <polygon class="cls-4" points="43.333 50.4 43.705 51.628 44.933 52 43.705 52.372 43.333 53.6 42.962 52.372 41.734 52 42.962 51.628 43.333 50.4"/>
    <polygon class="cls-5" points="35.333 44.4 35.705 45.628 36.933 46 35.705 46.372 35.333 47.6 34.962 46.372 33.734 46 34.962 45.628 35.333 44.4"/>
    <polygon class="cls-6" points="26.333 40.4 26.705 41.628 27.933 42 26.705 42.372 26.333 43.6 25.962 42.372 24.734 42 25.962 41.628 26.333 40.4"/>
    <polygon class="cls-6" points="23.333 53 23.566 53.768 24.333 54 23.566 54.232 23.333 55 23.101 54.232 22.333 54 23.101 53.768 23.333 53"/>
    <polygon class="cls-6" points="75.333 47.1 75.542 47.791 76.233 48 75.542 48.209 75.333 48.9 75.124 48.209 74.433 48 75.124 47.791 75.333 47.1"/>
    <polygon class="cls-7" points="77.333 57.1 77.542 57.791 78.233 58 77.542 58.209 77.333 58.9 77.124 58.209 76.433 58 77.124 57.791 77.333 57.1"/>
    <polygon class="cls-7" points="72.333 68.25 72.508 68.826 73.083 69 72.508 69.174 72.333 69.75 72.159 69.174 71.583 69 72.159 68.826 72.333 68.25"/>
  </g>
</svg>
