<svg id="Layer_1" data-name="Layer 1" xmlns="http://www.w3.org/2000/svg" viewBox="0 0 18 18"><defs><style>.cls-1{fill-rule:evenodd; fill:#222288; }</style></defs><title>datepicker-close</title><path class="cls-1" d="M10.97056,9L17.88828,2.0826a0.50432,0.50432,0,0,0-.03918-0.66971A2.777,2.777,0,0,0,17.563,1.05667c-0.10521-.114-0.21367-0.22078-0.30564-0.3133A2.34833,2.34833,0,0,0,16.23058.00289a0.36393,0.36393,0,0,0-.3133.1092l-6.917,6.9176L7.48975,5.51927,2.08331,0.11209a0.35882,0.35882,0,0,0-.273-0.10546A0.40019,0.40019,0,0,0,1.76914.00289a0.7564,0.7564,0,0,0-.266.09841A3.25069,3.25069,0,0,0,.83671.6506l-0.09277.09277A1.65941,1.65941,0,0,0,.01831,1.93392a0.37755,0.37755,0,0,0,.094.14868L7.03,9,0.11231,15.91768a0.377,0.377,0,0,0-.094.1485,1.65953,1.65953,0,0,0,.72563,1.19037l0.09277,0.09277a3.24475,3.24475,0,0,0,.66646.5493,0.7564,0.7564,0,0,0,.266.09841,0.40025,0.40025,0,0,0,.0412-0.0038,0.35882,0.35882,0,0,0,.273-0.10546l5.40644-5.40705,1.51048-1.51036,6.917,6.91742a0.364,0.364,0,0,0,.3133.10926,2.34636,2.34636,0,0,0,1.02673-.74047c0.092-.09246.20043-0.19926,0.30564-0.31324A2.7817,2.7817,0,0,0,17.8491,16.587a0.50384,0.50384,0,0,0,.03918-0.66934Z"/></svg>