<svg id="Layer_1" data-name="Layer 1" xmlns="http://www.w3.org/2000/svg" width="32" height="32" viewBox="0 0 32 32"><title>facilities</title><path d="M15.96727,13.4131a10.99978,10.99978,0,0,0-7.753,3.4208,0.884,0.884,0,0,0-.0883,1.1166,0.78351,0.78351,0,0,0,.1169.13672,0.88875,0.88875,0,0,0,1.25307-.0286,9.29859,9.29859,0,0,1,13.1501-.299,0.88646,0.88646,0,0,0,1.225-1.28167A11.012,11.012,0,0,0,15.96727,13.4131Z"/><path d="M5.53153,14.71961a0.841,0.841,0,0,0,.11966.13672,0.88389,0.88389,0,0,0,1.25332-.0286,12.88554,12.88554,0,0,1,18.22008-.41292,0.8854,0.8854,0,1,0,1.22322-1.28041,14.65847,14.65847,0,0,0-20.725.47012A0.88581,0.88581,0,0,0,5.53153,14.71961Z"/><path d="M10.96577,20.21656a0.88591,0.88591,0,0,0-.0883,1.1151,1.05309,1.05309,0,0,0,.1169.13672,0.88519,0.88519,0,0,0,1.25332-.0286,5.50215,5.50215,0,0,1,7.76979-.1751A0.88585,0.88585,0,0,0,21.2407,19.983,7.27636,7.27636,0,0,0,10.96577,20.21656Z"/><circle cx="16.31346" cy="23.67248" r="1.25433"/></svg>