<svg id="Layer_1" data-name="Layer 1" xmlns="http://www.w3.org/2000/svg" width="32" height="32" viewBox="0 0 32 32"><defs><style>.cls-1{fill:none;}</style></defs><title>facilities</title><polyline class="cls-1" points="4.632 29.758 4.632 2.314 32.075 2.314 32.075 29.758"/><path d="M22.53665,10.32808H13.12027L12.19694,3.98037a0.155,0.155,0,0,0-.15271-0.13282L12.022,3.84924l-0.68736.09911a0.15523,0.15523,0,0,0-.1308.175l0.90243,6.20444h0l0.146,1.00357,1.01772,6.99832a8.23072,8.23072,0,0,1-1.404.13686c-0.09843,0-.18339-0.0027-0.25485-0.00641L10.5741,11.33131h0.82052l-0.146-1.00357H9.464a0.15459,0.15459,0,0,0-.15473.15406v0.69511a0.15488,0.15488,0,0,0,.15473.15439H9.55975l2.1359,14.68637a0.155,0.155,0,0,0,.15271.13248l0.02225-.00135,0.02731-.004a0.12711,0.12711,0,0,0,.02731.00573h7.978a0.14551,0.14551,0,0,0,.05394-0.01112l0.06439,0.00944,0.02225,0.00135a0.15473,0.15473,0,0,0,.15271-0.13248l2.1359-14.68637h0.204a0.15481,0.15481,0,0,0,.15439-0.15439V10.4818A0.15416,0.15416,0,0,0,22.53665,10.32808ZM19.3092,25.1466H12.58326l-0.81074-5.57405c0.03068,0.00067.06034,0.00135,0.09338,0.00135a12.70246,12.70246,0,0,0,4.409-.9503,11.60372,11.60372,0,0,1,4.01729-.87884c0.03337,0,.063.001,0.093,0.00135Zm1.23651-8.50317c-0.07686-.00337-0.15979-0.00573-0.2535-0.00573a12.69431,12.69431,0,0,0-4.40935.9503,16.33448,16.33448,0,0,1-1.63024.52521l-0.98637-6.7819H21.318Z"/></svg>