<svg xmlns="http://www.w3.org/2000/svg" width="8.813" height="8" viewBox="0 0 8.813 8">
  <defs>
    <style>
      .cls-1 {
        fill: #666670;
        fill-rule: evenodd;
      }
    </style>
  </defs>
  <path id="Rounded_Rectangle_36_copy_4" data-name="Rounded Rectangle 36 copy 4" class="cls-1" d="M12.95,12h0.006a0.95,0.95,0,0,1,.95.95v6.1a0.95,0.95,0,0,1-.95.95H12.95A0.95,0.95,0,0,1,12,19.05v-6.1A0.95,0.95,0,0,1,12.95,12Zm3.456,0a0.938,0.938,0,0,1,.938.938v6.125a0.938,0.938,0,1,1-1.875,0V12.938A0.937,0.937,0,0,1,16.406,12Zm3.469,0a0.937,0.937,0,0,1,.938.938v6.125a0.938,0.938,0,0,1-1.875,0V12.938A0.937,0.937,0,0,1,19.875,12Z" transform="translate(-12 -12)"/>
</svg>
