<svg id="Layer_1" data-name="Layer 1" xmlns="http://www.w3.org/2000/svg" viewBox="0 0 60.45005 60.45001"><defs><style>.cls-1{fill:#726dcd;stroke:#726dcd;stroke-miterlimit:10;stroke-width:2px;}</style></defs><title>geoloc</title><path class="cls-1" d="M58.5,54l-5.6-5.6-0.1-.1a29.00737,29.00737,0,0,0,0-36.1l0.1-.1,5.6-5.6a3.08316,3.08316,0,0,0,0-4.5A3.08318,3.08318,0,0,0,54,2L48.4,7.6l-0.1.1a29.00737,29.00737,0,0,0-36.1,0l-0.1-.1L6.5,2A3.08318,3.08318,0,0,0,2,2,3.08316,3.08316,0,0,0,2,6.5l5.7,5.7h0a29.00737,29.00737,0,0,0,0,36.1l-0.1.1L2,54a3.08316,3.08316,0,0,0,0,4.5,3.08318,3.08318,0,0,0,4.5,0l5.6-5.6,0.1-.1a29.00734,29.00734,0,0,0,36.1,0h0L54,58.5A3.182,3.182,0,0,0,58.5,54ZM13.2,47.3a24.11234,24.11234,0,1,1,34.1,0A24.14222,24.14222,0,0,1,13.2,47.3Z" transform="translate(-0.02497 -0.02499)"/></svg>