<svg id="Layer_1" data-name="Layer 1" xmlns="http://www.w3.org/2000/svg" width="80" height="80" viewBox="0 0 80 80"><defs><style>.cls-1{fill:#b4b4b4;}</style></defs><title>itinerary-layover</title><path class="cls-1" d="M40,80A40,40,0,1,0,0,40,40.04411,40.04411,0,0,0,40,80ZM40,8A32,32,0,1,1,8,40,32.03606,32.03606,0,0,1,40,8Z"/><path class="cls-1" d="M36.079,40.784c0.022,0.113.065,0.219,0.098,0.329a3.87668,3.87668,0,0,0,.129.418,3.70931,3.70931,0,0,0,.192.364c0.059,0.108.106,0.221,0.176,0.324a3.99258,3.99258,0,0,0,.455.557c0.016,0.017.026,0.036,0.042,0.053l14,14a3.99975,3.99975,0,0,0,5.656-5.657L44,38.343V22.25a4,4,0,0,0-8,0V39.999A3.98941,3.98941,0,0,0,36.079,40.784Z"/></svg>