<?xml version="1.0" encoding="utf-8"?>
<!-- Generator: Adobe Illustrator 19.2.1, SVG Export Plug-In . SVG Version: 6.00 Build 0)  -->
<svg version="1.1" id="Layer_1" xmlns="http://www.w3.org/2000/svg" xmlns:xlink="http://www.w3.org/1999/xlink" x="0px" y="0px"
	 viewBox="0 0 20 20" style="enable-background:new 0 0 20 20;" xml:space="preserve">
<style type="text/css">
	.st0{fill:#CCCCCC;}
</style>
<g id="nearby">
	<path class="st0" d="M16.9,2.3l-6.1,14.1l-2.3-5.9L2.7,8.4L16.9,2.3 M16.9,0.3c-0.3,0-0.5,0.1-0.8,0.2L1.9,6.5
		C1.2,6.8,0.7,7.6,0.7,8.4c0,0.8,0.5,1.5,1.3,1.8l4.9,1.9l2,5.1c0.3,0.8,1,1.2,1.8,1.3c0,0,0,0,0,0c0.8,0,1.5-0.5,1.8-1.2l6.1-14.1
		c0.3-0.8,0.2-1.6-0.4-2.2C17.9,0.5,17.4,0.3,16.9,0.3L16.9,0.3z"/>
</g>
</svg>
