<?xml version="1.0" encoding="utf-8"?>
<!-- Generator: Adobe Illustrator 19.2.1, SVG Export Plug-In . SVG Version: 6.00 Build 0)  -->
<svg version="1.1" id="Layer_1" xmlns="http://www.w3.org/2000/svg" xmlns:xlink="http://www.w3.org/1999/xlink" x="0px" y="0px"
	 viewBox="0 0 60.5 60.5" style="enable-background:new 0 0 60.5 60.5;" xml:space="preserve">
<style type="text/css">
	.st0{fill:#726DCD;stroke:#726DCD;stroke-width:2;stroke-miterlimit:10;}
	.st1{fill:#726DCD;}
</style>
<g>
	<path class="st0" d="M58.5,54l-5.6-5.6l-0.1-0.1c8.4-10.5,8.4-25.6,0-36.1l0.1-0.1l5.6-5.6c1.3-1.3,1.3-3.3,0-4.5
		c-1.3-1.3-3.3-1.3-4.5,0l-5.6,5.6l-0.1,0.1c-10.5-8.4-25.6-8.4-36.1,0l-0.1-0.1L6.5,2C5.2,0.7,3.2,0.7,2,2C0.7,3.3,0.7,5.3,2,6.5
		l5.7,5.7l0,0c-8.4,10.5-8.4,25.6,0,36.1l-0.1,0.1L2,54c-1.3,1.3-1.3,3.3,0,4.5c1.3,1.3,3.3,1.3,4.5,0l5.6-5.6l0.1-0.1
		c10.5,8.4,25.6,8.4,36.1,0l0,0l5.7,5.7c1.3,1.3,3.3,1.3,4.5,0C59.8,57.3,59.8,55.3,58.5,54z M13.2,47.3c-9.4-9.4-9.4-24.7,0-34.1
		s24.7-9.4,34.1,0s9.4,24.7,0,34.1C37.9,56.8,22.6,56.7,13.2,47.3z"/>
	<polygon class="st1" points="28.4,32.4 31.7,40.7 40.2,20.7 20.2,29.3 	"/>
</g>
</svg>
