<?xml version="1.0" encoding="utf-8"?>
<!-- Generator: Adobe Illustrator 19.2.1, SVG Export Plug-In . SVG Version: 6.00 Build 0)  -->
<svg version="1.1" id="Layer_1" xmlns="http://www.w3.org/2000/svg" xmlns:xlink="http://www.w3.org/1999/xlink" x="0px" y="0px"
	 viewBox="0 0 51.5 51.8" style="enable-background:new 0 0 51.5 51.8;" xml:space="preserve">
<style type="text/css">
	.st0{fill:#726DCD;}
</style>
<path class="st0" d="M49.9,42.3L38.7,31.1c1.8-3,2.8-6.6,2.8-10.3C41.5,9.4,32.2,0,20.7,0C9.3,0-0.1,9.3-0.1,20.8
	c0,11.4,9.3,20.8,20.8,20.8c3.6,0,7.1-0.9,10-2.6l11.2,11.2c1.1,1.1,2.5,1.6,4,1.6c1.4,0,2.9-0.5,3.9-1.6
	C52.1,48,52.1,44.4,49.9,42.3z M3.4,20.8c0-9.6,7.8-17.4,17.4-17.4s17.4,7.8,17.4,17.4s-7.8,17.4-17.4,17.4S3.4,30.4,3.4,20.8z
	 M47.6,47.8c-0.9,0.9-2.3,0.9-3.2,0L33.6,37c1.2-0.9,2.3-2,3.2-3.2l10.7,10.7C48.5,45.5,48.5,46.9,47.6,47.8z"/>
</svg>
