<?xml version="1.0" encoding="utf-8"?>
<!-- Generator: Adobe Illustrator 19.2.1, SVG Export Plug-In . SVG Version: 6.00 Build 0)  -->
<svg version="1.1" id="Layer_1" xmlns="http://www.w3.org/2000/svg" xmlns:xlink="http://www.w3.org/1999/xlink" x="0px" y="0px"
	 viewBox="0 0 10 7.9" style="enable-background:new 0 0 10 7.9;" xml:space="preserve">
<style type="text/css">
	.st0{fill:#FBBF00;}
</style>
<path d="M4.7,2.1C4.7,2.1,4.7,2.1,4.7,2.1C4.7,2.1,4.7,2.1,4.7,2.1z"/>
<path class="st0" d="M9.8,3.4L6.6,0.2c-0.3-0.3-0.7-0.3-1,0c-0.3,0.3-0.3,0.7,0,1l2,2H0.7C0.3,3.2,0,3.6,0,3.9
	c0,0.4,0.3,0.7,0.7,0.7h6.9l-2,2c-0.3,0.3-0.3,0.7,0,1c0.1,0.1,0.3,0.2,0.5,0.2c0.2,0,0.4-0.1,0.5-0.2l3.2-3.2
	C10.1,4.2,10.1,3.7,9.8,3.4z"/>
</svg>
