<svg id="Layer_1" data-name="Layer 1" xmlns="http://www.w3.org/2000/svg" width="12.99643" height="12.00836" viewBox="0 0 12.99643 12.00836"><defs><style>.cls-1{fill:#aaa4ff;fill-rule:evenodd;}</style></defs><title>bar-close</title><path class="cls-1" d="M12.54718,9.75188L8.47546,6.238,12.558,2.39714a1.34673,1.34673,0,0,0,0-1.98566,1.55833,1.55833,0,0,0-2.11011,0L6.6626,3.972,2.87976,0.41148a1.55982,1.55982,0,0,0-2.11127,0,1.34455,1.34455,0,0,0,0,1.98566L4.69226,6.09019,0.44769,9.75188a1.19944,1.19944,0,0,0,0,1.86926,1.708,1.708,0,0,0,2.16589,0L6.498,8.27l3.88177,3.35114a1.71009,1.71009,0,0,0,2.16742,0A1.19684,1.19684,0,0,0,12.54718,9.75188Z"/></svg>