<svg id="Layer_1" data-name="Layer 1" xmlns="http://www.w3.org/2000/svg" width="32" height="32" viewBox="0 0 32 32"><title>facilities</title><path d="M19.9839,22.77565a5.79974,5.79974,0,1,1-8.12106-8.23925,0.63285,0.63285,0,0,0-.82013-0.96406,7.0659,7.0659,0,0,0,4.26145,12.43949c0.10806,0.00507.21527,0.0076,0.32248,0.0076A7.03694,7.03694,0,0,0,20.93656,23.611,0.63351,0.63351,0,0,0,19.9839,22.77565ZM14.16915,10.07319a2.0366,2.0366,0,1,0-2.03618-2.037A2.03918,2.03918,0,0,0,14.16915,10.07319Zm0-2.80776a0.77011,0.77011,0,1,1-.7699.7699A0.77037,0.77037,0,0,1,14.16915,7.26543Zm9.83012,15.2941-2.92552-5.10648a0.63666,0.63666,0,0,0-.62892-0.31319l-4.90683.62428L14.94538,14.6052A5.97908,5.97908,0,0,0,19.56687,16.129a0.633,0.633,0,0,0-.076-1.26375,4.863,4.863,0,0,1-5.17232-3.59665,0.633,0.633,0,0,0-1.238.26339l1.32368,7.05233a0.6357,0.6357,0,0,0,.70152.512l5.07989-.6458,2.71659,4.73968A0.63268,0.63268,0,1,0,23.99927,22.55954Z"/></svg>