<?xml version="1.0" encoding="utf-8"?>
<!-- Generator: Adobe Illustrator 18.0.0, SVG Export Plug-In . SVG Version: 6.00 Build 0)  -->
<!DOCTYPE svg PUBLIC "-//W3C//DTD SVG 1.1//EN" "http://www.w3.org/Graphics/SVG/1.1/DTD/svg11.dtd">
<svg version="1.1" id="Layer_1" xmlns="http://www.w3.org/2000/svg" xmlns:xlink="http://www.w3.org/1999/xlink" x="0px" y="0px"
	 viewBox="0 0 468.5 67.5" enable-background="new 0 0 468.5 67.5" xml:space="preserve">
<path fill="#FFFFFF" d="M0,26.6c0-10,6.7-15.8,14.5-15.8c6,0,10.3,2.9,11.9,7h0.1c1.6-4.2,5.9-7,11.8-7c7.8,0,14.5,5.8,14.5,15.8
	v24.8h-8.5V26.6c0-4.7-3.1-7.4-6.6-7.4c-4.1,0-7.1,2.4-7.1,8.6v23.5h-8.5V27.8c0-6.1-3-8.6-7.1-8.6c-3.5,0-6.6,2.7-6.6,7.4v24.7H0
	V26.6"/>
<path fill="#FFFFFF" d="M89.3,27.5c-1.8-6.1-6.3-9.2-11.7-9.2c-5.4,0-9.8,3.3-11.2,9.2H89.3 M97.1,42.7c-4.7,6-11.3,9.6-18.4,9.6
	c-13.8,0-21.8-10.4-21.8-20.8c0-10.5,8-20.8,21.8-20.8c8.3,0,20.5,6.8,20.5,22.2v1.6H66.4c0.5,6,6.1,10.4,12.1,10.4
	c4.6,0,8.5-2.2,11.5-6.1L97.1,42.7z"/>
<path fill="#FFFFFF" d="M121.3,43.3c6.9,0,11.7-5.5,11.7-12.3c0-6.9-5.3-12.3-11.7-12.3c-6.6,0-11.9,5.5-11.9,12.2
	C109.4,37.8,114.1,43.3,121.3,43.3 M141.1,46.9c0,13.1-10,20.6-20.7,20.6c-5.5,0-12.2-2.3-16.7-7.9l7-5.1c1.6,2.3,5.3,4.9,9.3,4.9
	c8.6,0,13.1-5.6,13.1-11.7v-2.6c-3.6,4-7.7,6.1-13.5,6.1c-10.2,0-19.2-7.7-19.2-20.2c0-13,9.7-20.4,20.2-20.4c5.3,0,9.6,2,12.4,5.7
	h0.1v-4.7h8V46.9z"/>
<path fill="#FFFFFF" d="M166.1,44.4c6.7,0,12.4-5.7,12.4-12.8c0-7.1-5.7-12.8-12.4-12.8c-6.9,0-12.6,5.7-12.6,12.8
	C153.5,38.7,159.2,44.4,166.1,44.4 M178.2,46.5H178c-2.7,3.6-7.6,5.9-13,5.9c-13,0-20.5-10.6-20.5-20.8c0-9.7,8.1-20.9,21-20.9
	c5.9,0,10.4,2.5,12.5,5.9h0.2v-4.8h8.5v39.6h-8.5V46.5z"/>
<path fill="#FFFFFF" d="M213.9,18.7c-7.1,0-12.3,5.5-12.3,12.8c0,7.3,5.2,12.8,12.3,12.8c7.1,0,12.4-5.5,12.4-12.8
	C226.3,24.2,221,18.7,213.9,18.7 M193.1,0h8.5v16.6h0.1c2.1-3.3,7.4-5.9,12.9-5.9c10.3,0,20.6,7.6,20.6,20.8
	c0,13.2-10.3,20.8-20.6,20.8c-5.5,0-10.9-2.6-12.9-5.9h-0.1v4.8h-8.5V0z"/>
<path fill="#FFFFFF" d="M238.7,11.8h8.5v22.2c0,5.8,4.2,10,9.5,10c5.3,0,9.6-4.2,9.6-10V11.8h8.5v22.9c0,11.1-8.7,17.7-18.1,17.7
	c-9.4,0-18-6.6-18-17.7V11.8"/>
<path fill="#FFFFFF" d="M283.2,39.6c3.1,3.3,8,5.8,12.4,5.8c4.9,0,7.8-2.8,7.8-5c0-2.6-2.1-4-5.2-4.6l-4.8-0.9
	c-11.1-2.1-14.2-5.6-14.2-11.3c0-6.7,5.6-12.9,15.5-12.9c5.5,0,10.3,1.6,15.7,5.5l-4.8,6c-4.2-3.5-7.8-4.4-10.7-4.4
	c-3.7,0-7.2,1.8-7.2,5c0,2.4,1.9,3.6,5.1,4.2l8.6,1.6c7,1.3,10.5,4.7,10.5,10.6c0,5.8-4.8,13.3-16.8,13.3c-6.7,0-12.4-2.4-17.8-6.9
	L283.2,39.6"/>
<path fill="#FFFFFF" d="M320.2,42.4c2.8,0,5,2.2,5,5s-2.2,5-5,5c-2.8,0-5-2.2-5-5S317.4,42.4,320.2,42.4"/>
<path fill="#FFFFFF" d="M361.3,24.7c-2.3-3.5-5.5-6-10.3-6c-7.5,0-12.9,5.7-12.9,12.8c0,7.1,5.4,12.8,12.9,12.8c4.6,0,8-2.4,10.3-6
	l7.4,4.4c-3.5,5.6-10.2,9.6-17.7,9.6c-13.8,0-21.8-10.4-21.8-20.8c0-10.5,8-20.8,21.8-20.8c8.4,0,13.9,4,17.7,9.6L361.3,24.7"/>
<path fill="#FFFFFF" d="M390.5,44.4c7.5,0,12.8-5.7,12.8-12.8c0-7.1-5.4-12.8-12.8-12.8c-7.4,0-12.8,5.7-12.8,12.8
	C377.6,38.7,383,44.4,390.5,44.4 M390.5,10.7c13.8,0,21.8,10.4,21.8,20.8c0,10.4-8,20.8-21.8,20.8c-13.8,0-21.8-10.4-21.8-20.8
	C368.7,21.1,376.7,10.7,390.5,10.7"/>
<path fill="#FFFFFF" d="M415.7,26.6c0-10,6.7-15.8,14.5-15.8c6,0,10.3,2.9,11.8,7h0.2c1.5-4.2,5.9-7,11.8-7
	c7.7,0,14.5,5.8,14.5,15.8v24.8H460V26.6c0-4.7-3-7.4-6.5-7.4c-4.1,0-7.1,2.4-7.1,8.6v23.5h-8.5V27.8c0-6.1-3-8.6-7.1-8.6
	c-3.5,0-6.5,2.7-6.5,7.4v24.7h-8.5V26.6"/>
</svg>
