<svg id="Layer_1" data-name="Layer 1" xmlns="http://www.w3.org/2000/svg" width="50" height="70" viewBox="0 0 50 70"><defs><style>.cls-1,.cls-2{fill-rule:evenodd;}.cls-1{opacity:0.25;}.cls-2{fill:#f9be2c;}.cls-3{fill:#823f0d;}</style></defs><title>maps</title><path class="cls-1" d="M24.9994,64C30.7993,64,35.5,65.34287,35.5,66.99975,35.5,68.65713,30.7993,70,24.9994,70,19.2006,70,14.5,68.65713,14.5,66.99975,14.5,65.34287,19.2006,64,24.9994,64Z"/><path class="cls-2" d="M50,25.00019A25,25,0,1,0,4.57532,39.40736L4.54584,39.394,25.0006,67.97558,45.45416,39.394l-0.02954.01343A24.87528,24.87528,0,0,0,50,25.00019Z"/><path class="cls-3" d="M36,20.64641H35.5v-2.5a2.665,2.665,0,0,0-1.3415-2.17075S31.5,14.64641,25,14.64641s-9.15825,1.32925-9.15825,1.32925A2.66465,2.66465,0,0,0,14.5,18.14641v2.5H14a1.50441,1.50441,0,0,0-1.5,1.5v1.5a1.50441,1.50441,0,0,0,1.5,1.5h0.5v10.25a1.504,1.504,0,0,0,1,1.41175v0.83825a2,2,0,0,0,4,0v-0.75h11v0.75a2,2,0,0,0,4,0V36.80816a1.50421,1.50421,0,0,0,1-1.41175v-10.25H36a1.50441,1.50441,0,0,0,1.5-1.5v-1.5A1.50441,1.50441,0,0,0,36,20.64641Zm-18.25,14.25a1.25,1.25,0,1,1,1.25-1.25A1.25014,1.25014,0,0,1,17.75,34.89641Zm14.5,0a1.25,1.25,0,1,1,1.25-1.25A1.25014,1.25014,0,0,1,32.25,34.89641Zm1.25-5.75a0.50147,0.50147,0,0,1-.5.5H17a0.50147,0.50147,0,0,1-.5-0.5v-8a0.50147,0.50147,0,0,1,.5-0.5H33a0.50147,0.50147,0,0,1,.5.5v8Z"/></svg>