<?xml version="1.0" encoding="utf-8"?>
<!-- Generator: Adobe Illustrator 19.1.0, SVG Export Plug-In . SVG Version: 6.00 Build 0)  -->
<svg version="1.1" id="Layer_1" xmlns="http://www.w3.org/2000/svg" xmlns:xlink="http://www.w3.org/1999/xlink" x="0px" y="0px"
	 viewBox="0 0 65 175" style="enable-background:new 0 0 65 175;" xml:space="preserve">
<style type="text/css">
	.st0{fill:#FAC78D;}
	.st1{fill:#112D46;}
	.st2{fill:#E51F40;}
	.st3{fill:none;stroke:#F9E925;stroke-width:0.4561163;stroke-miterlimit:10;}
	.st4{opacity:0.1;}
	.st5{clip-path:url(#SVGID_2_);fill:#112D46;}
	.st6{fill:#FFFFFF;}
	.st7{fill:#102D45;}
	.st8{fill:#102D45;stroke:#112D46;stroke-width:1.3683488;stroke-miterlimit:10;}
</style>
<g>
	<g>
		<path class="st0" d="M16.1995182,64.3537674c0.1721382-1.7055588,1.6946087-2.9491615,3.4001637-2.7772484l0,0
			c1.7052822,0.1724091,2.9480171,1.6944237,2.7763348,3.4003944l-4.5366707,44.957283
			c-0.172184,1.7064667-1.6944256,2.9496078-3.3997078,2.7772446l0,0c-1.7057829-0.1715012-2.9493837-1.6943817-2.7765617-3.3999405
			L16.1995182,64.3537674z"/>
		<circle class="st0" cx="16.6143131" cy="110.0201721" r="4.9603515"/>
	</g>
	<rect x="28.5641003" y="102.2261047" class="st0" width="5.9072075" height="66.9466476"/>
	<rect x="20.4323673" y="168.8057098" class="st1" width="14.1703463" height="1.5937614"/>
	<rect x="34.2468529" y="106.787262" class="st0" width="5.9072075" height="66.9466476"/>
	<rect x="34.1154442" y="173.3668823" class="st1" width="14.1703005" height="1.5937614"/>
	<rect x="15.9119816" y="87.0059128" class="st2" width="36.0334206" height="34.8167229"/>
	<path class="st2" d="M53.3137512,85.3328781c0,10.3285217-8.3722496,18.7007675-18.7007675,18.7007675l0,0
		c-10.3281212,0-18.7007675-8.3722458-18.7007675-18.7007675v-18.244194c0-10.3285255,8.3726473-18.7007675,18.7007675-18.7007675
		l0,0c10.3285179,0,18.7007675,8.372242,18.7007675,18.7007675V85.3328781z"/>
	<circle class="st3" cx="23.8559361" cy="32.7467766" r="4.6751919"/>
	<circle class="st3" cx="46.6617508" cy="32.7467766" r="4.6751919"/>
	<path class="st0" d="M41.9442253,48.9638519c0,4.0596199-3.2903328,7.3499489-7.3490829,7.3499489l0,0
		c-4.059618,0-7.3499489-3.290329-7.3499489-7.3499489V30.1490574c0-4.0587044,3.2903309-7.3495388,7.3499489-7.3495388l0,0
		c4.0587502,0,7.3490829,3.2908344,7.3490829,7.3495388V48.9638519z"/>
	<g>
		<path class="st0" d="M53.3529243,68.2530136c0.0075722-1.7139969-1.3763771-3.1103973-3.0903702-3.1179657l0,0
			c-1.7139931-0.007576-3.1095276,1.3759155-3.1175079,3.0903702l-0.1995506,45.1853409
			c-0.0075722,1.7149048,1.3759193,3.1108475,3.0899124,3.1184158l0,0c1.7144508,0.0080338,3.1108513-1.3763733,3.1175079-3.0903702
			L53.3529243,68.2530136z"/>
		<circle class="st0" cx="48.1548157" cy="113.6245804" r="4.9603238"/>
	</g>
	<g class="st4">
		<path class="st1" d="M41.7371025,48.9055176c-0.9915047-0.7577019-1.7513962-1.4717064-2.0961723-2.7260246
			c-0.2173424-0.8084679-0.2173424-1.6164322,0-2.4248962c0.4610405-1.6756821,1.7683601-2.791935,3.3576546-3.1901703
			c0.6168938-1.7039604,0.4979401-3.622612,0.611969-5.4011917c0.0930939-1.4623528,0.3710556-2.8117752,0.7322998-4.1609669
			c-0.4703522-0.4574375-0.9696999-0.8850479-1.5019913-1.2710133c0.223629-0.7527733,0.3456879-1.549654,0.3456879-2.3745861
			c0-3.1202011-1.7189217-5.8355064-4.2591629-7.2613258c-0.8726044,0.6084595-1.7255859,1.2478428-2.5572243,1.9117661
			c0.0499001,0.9157906-0.1153488,1.8585358-0.4796944,2.6843815c-1.3425331,3.0408802-3.9210968,5.336834-5.1135216,8.5401382
			c-0.6708088,1.8008385-1.2979698,3.6489296-1.6124153,5.5508881c-0.1376572,0.8304977-0.1661644,1.6599007-0.1870995,2.5003853
			c-0.0111294,0.4365501,0.0244942,0.7091217,0.0547791,0.8530273c1.1180325,2.1063919,0.6748238,4.9099083-1.6199875,6.1615829
			c-0.0142765,0.0079842-0.0311985,0.0155563-0.0458851,0.0231247c-0.1950817,0.1528015-0.4031162,0.2993507-0.6382904,0.432991
			c-0.6538868,0.371006-1.2556877,0.7982063-1.886816,1.2066574c2.4872475,2.7059555,6.0550804,4.4025726,10.019825,4.4025726
			c3.713974,0,7.0751381-1.4939651,9.5303688-3.9068184c-0.2067146-0.1220589-0.4111443-0.2507744-0.6106949-0.3924446
			C43.053772,49.7540283,42.354454,49.3771858,41.7371025,48.9055176z"/>
	</g>
	<g>
		<g>
			<path class="st0" d="M42.9170341,27.9829617c0.223629-0.7527752,0.3456841-1.5496559,0.3456841-2.374588
				c0-4.5981083-3.7273293-8.3254433-8.325489-8.3254433c-4.5976963,0-8.3249817,3.727335-8.3249817,8.3254433
				c0,0.8249321,0.1220055,1.6218128,0.3456383,2.374588c-3.4101982,2.472971-5.6288338,6.4889393-5.6288338,11.0233707
				c0,7.5161133,6.0929775,13.6086845,13.6081772,13.6086845c7.5157013,0,13.6086845-6.0925713,13.6086845-13.6086845
				C48.5459137,34.4719009,46.3272285,30.4559326,42.9170341,27.9829617z"/>
		</g>
		<g>
			<defs>
				<path id="SVGID_1_" d="M42.9170341,27.9829617c0.223629-0.7527752,0.3456841-1.5496559,0.3456841-2.374588
					c0-4.5981083-3.7273293-8.3254433-8.325489-8.3254433c-4.5976963,0-8.3249817,3.727335-8.3249817,8.3254433
					c0,0.8249321,0.1220055,1.6218128,0.3456383,2.374588c-3.4101982,2.472971-5.6288338,6.4889393-5.6288338,11.0233707
					c0,7.5161133,6.0929775,13.6086845,13.6081772,13.6086845c7.5157013,0,13.6086845-6.0925713,13.6086845-13.6086845
					C48.5459137,34.4719009,46.3272285,30.4559326,42.9170341,27.9829617z"/>
			</defs>
			<clipPath id="SVGID_2_">
				<use xlink:href="#SVGID_1_"  style="overflow:visible;"/>
			</clipPath>
			<path class="st5" d="M47.6590424,30.7826481c-0.0383148-1.6012878-0.534523-3.1072922-1.2378082-4.536623
				c-0.1554909-0.3153591-0.23563-0.6530228-0.2316628-0.980423c-0.3358383-0.5972843-0.6828041-1.1888199-1.0293579-1.7803574
				c-0.9015656-0.922039-1.7531776-1.9242191-2.1545143-3.128685c-0.8739204-0.5914917-1.8872719-1.0338326-3.0654221-1.2529507
				c0,0-0.1447716,6.8911877,6.4159126,9.2956047l1.4792328,3.1313286
				C47.7303314,31.3185387,47.6661568,31.0699558,47.6590424,30.7826481z"/>
			<polygon class="st5" points="26.8968639,21.9329433 33.8904953,21.9329433 34.7648697,18.9684162 35.7149582,21.8189144 
				45.2560005,21.8189144 40.4284668,15.4713726 30.8500233,15.6613445 27.0868301,19.7663918 			"/>
			<path class="st5" d="M22.0998383,29.8706436c0.0383129-1.6012878,0.5345211-3.1072922,1.237854-4.5366688
				c0.1554432-0.3153591,0.2356281-0.652977,0.2316151-0.9803772c0.3358383-0.5972843,0.6828518-1.1888199,1.0293636-1.7803574
				c0.9015656-0.922039,1.7532196-1.9242191,2.1545563-3.128685c0.8739185-0.5914917,1.8872261-1.0338326,3.0654202-1.2529507
				c0,0,0.1449547,6.8911877-6.4159603,9.2956047l-1.479229,3.1313286
				C22.0285931,30.4064884,22.0927219,30.1579514,22.0998383,29.8706436z"/>
		</g>
		<circle class="st1" cx="32.0125656" cy="26.5580082" r="0.6939809"/>
		<circle class="st1" cx="37.5632515" cy="26.5580082" r="0.6937301"/>
		<path class="st6" d="M33.5586624,30.5015888c0.0431938,0.7456589,0.6605492,1.3376522,1.4177933,1.3376522
			c0.757206,0,1.3741417-0.5919933,1.4173355-1.3376522H33.5586624z"/>
		<g>
			<g>
				<path class="st7" d="M34.8472824,26.5560017c0,2.383709-1.9322891,4.3170948-4.3170929,4.3170948
					c-2.3821144,0-4.3166389-1.9333858-4.3166389-4.3170948c0-2.3836632,1.9345245-3.8604774,4.3166389-3.8604774
					C32.9149933,22.6955242,34.8472824,24.1723385,34.8472824,26.5560017z"/>
				<path class="st7" d="M43.6738167,26.5183716c0,2.383709-1.9327011,4.3170948-4.3170471,4.3170948
					c-2.3826141,0-4.3157272-1.9333858-4.3157272-4.3170948c0-2.3836632,1.9331131-3.8604774,4.3157272-3.8604774
					C41.7411156,22.6578941,43.6738167,24.1347084,43.6738167,26.5183716z"/>
				<line class="st8" x1="33.5256882" y1="25.450922" x2="35.5928955" y2="25.450922"/>
			</g>
		</g>
	</g>
	<ellipse class="st1" cx="34.6987076" cy="9.3231535" rx="7.307869" ry="9.2840185"/>
</g>
</svg>
