<?xml version="1.0" encoding="utf-8"?>
<!-- Generator: Adobe Illustrator 19.1.0, SVG Export Plug-In . SVG Version: 6.00 Build 0)  -->
<svg version="1.1" id="Layer_1" xmlns="http://www.w3.org/2000/svg" xmlns:xlink="http://www.w3.org/1999/xlink" x="0px" y="0px"
	 viewBox="0 0 65 175" style="enable-background:new 0 0 65 175;" xml:space="preserve">
<style type="text/css">
	.st0{fill:#112D46;}
	.st1{fill:#418CCB;}
	.st2{clip-path:url(#SVGID_2_);fill:#48B4E7;}
	.st3{fill:#48B4E7;}
	.st4{fill:#FAC78D;}
	.st5{fill:#FFFFFF;}
	.st6{opacity:0.1;fill:#112D46;}
	.st7{clip-path:url(#SVGID_4_);fill:#112D46;}
</style>
<g>
	<path class="st0" d="M52.0804749,139.2176208c0,0.6872864-0.556591,1.2438202-1.2433357,1.2438202l0,0
		c-0.6867981,0-1.2433891-0.5565338-1.2433891-1.2438202v-31.6884995c0-0.687233,0.556591-1.2438202,1.2433891-1.2438202l0,0
		c0.6867447,0,1.2433357,0.5565872,1.2433357,1.2438202V139.2176208z"/>
	<path class="st0" d="M59.3397751,153.3705902c0,2.1120453-1.7124634,3.8245087-3.8240204,3.8245087h-8.7960243
		c-2.1129532,0-3.824501-1.7124634-3.824501-3.8245087v-33.2717285c0-2.11203,1.7115479-3.824501,3.824501-3.824501h8.7960243
		c2.111557,0,3.8240204,1.712471,3.8240204,3.824501V153.3705902z"/>
	<rect x="26.7642326" y="98.2409592" class="st1" width="6.2341137" height="70.6509476"/>
	<g>
		<defs>
			<path id="SVGID_1_" d="M57.9150162,80.5648193c0.1833,13.8558731-10.9009857,25.2363358-24.7568588,25.419632l0,0
				c-13.8563099,0.1833496-25.2367725-10.9004974-25.4196301-24.756813L7.5443883,66.5688705
				c-0.1828666-13.8553467,10.9014683-25.2362938,24.756813-25.4195938l0,0
				c13.8553925-0.1824303,25.2368202,10.9009399,25.4201202,24.756813L57.9150162,80.5648193z"/>
		</defs>
		<clipPath id="SVGID_2_">
			<use xlink:href="#SVGID_1_"  style="overflow:visible;"/>
		</clipPath>
		<path class="st2" d="M66.0256424,115.8870163H1.3276999V89.14505c0,0,13.4139919,3.3643265,32.1764526,3.3643265
			S66.0256424,89.14505,66.0256424,89.14505V115.8870163z"/>
	</g>
	<rect x="18.1826038" y="168.5045624" class="st0" width="14.954421" height="1.6818994"/>
	<rect x="32.761425" y="103.0545044" class="st3" width="6.2341137" height="70.6509476"/>
	<rect x="32.6227455" y="173.3181" class="st0" width="14.954421" height="1.6818994"/>
	<g>
		<path class="st4" d="M7.854188,62.7603455c-0.0061131-1.8088303,1.4553261-3.2811012,3.2646399-3.2876472l0,0
			c1.8093138-0.0065956,3.2811022,1.4548454,3.2872152,3.2636757l0.1730089,47.6860199
			c0.0070181,1.8097992-1.4549026,3.2815857-3.2632542,3.2886581l0,0c-1.8093138,0.0061188-3.2815838-1.4558029-3.2876968-3.2646866
			L7.854188,62.7603455z"/>
		<path class="st1" d="M18.1938667,104.5286484l2.1505947-41.3527489c0.2157421-4.1573105-0.5062885-7.2724915-4.6621466-7.4896774
			c-4.1573687-0.2152634-7.7035913,2.9793396-7.9198251,7.1366501l-2.1021695,40.4172859
			C10.6520586,103.8973541,13.1833553,104.028038,18.1938667,104.5286484z"/>
		<circle class="st4" cx="13.3025389" cy="110.6468735" r="5.2348204"/>
	</g>
	<path class="st1" d="M7.9011679,97.9824219h49.8892746c0.1043549-0.9843216,0.1584129-1.983223,0.1447906-2.9972
		l-0.1941795-29.09935c-0.1828537-13.8558731-11.5642433-24.9391937-25.4196358-24.7568092
		c-13.8558273,0.1833-24.9401608,11.5642433-24.756813,25.4196358l0.1936584,29.09935
		C7.7686033,96.4358826,7.8198767,97.2138443,7.9011679,97.9824219z"/>
	<path class="st5" d="M40.8847542,42.031601c0,4.2842445-3.4724388,24.6040344-7.755722,24.6040344l0,0
		c-4.2842426,0-7.7566833-20.3197899-7.7566833-24.6040344V22.1757431c0-4.2833309,3.4724407-7.7562046,7.7566833-7.7562046l0,0
		c4.2832832,0,7.755722,3.4728737,7.755722,7.7562046V42.031601z"/>
	<g>
		<path class="st6" d="M56.4290771,69.8335571c-0.1682816-2.6798935-0.4554596-5.3588181-0.5433998-8.0424652
			c-1.8722763-1.9085197-3.9255409-3.6534309-5.9651833-5.371048c-0.0836945-0.0705185-0.1570168-0.1476288-0.2326851-0.2232971
			c-2.1548309,1.3307495-3.6524696,3.7027664-3.9100876,6.3854485l0.7967834,35.1623421
			c0.877182-0.3069077,1.2800179-0.6016922,1.6833458-0.8855972c0.6402016-0.4517441,1.2917595-0.8874664,1.93153-1.3401794
			c0.3760338-0.2660446,0.7553864-0.5297852,1.1168861-0.8155594c0.216713-0.1734848,0.3328056-0.2656174,0.3511467-0.2782745
			c0.7558708-0.6111221,1.6142197-1.037941,2.4989014-1.2259598c1.0519981-0.3699722,2.178318-0.4023666,3.2308006-0.003273
			c-0.1165848-3.7963409-0.262291-7.5921555-0.4009666-11.3833008
			C56.839962,77.8177261,56.6796684,73.8225861,56.4290771,69.8335571z"/>
		<path class="st4" d="M56.2542496,61.7863731c0.007988-1.8088303-1.4525337-3.2824974-3.2613678-3.2904892l0,0
			c-1.8088341-0.007988-3.2815819,1.4520531-3.2900543,3.2613678l-0.2105942,47.6855431
			c-0.007988,1.8097458,1.4520531,3.2829742,3.2608871,3.2909698l0,0c1.8093147,0.0084686,3.2829781-1.4525375,3.2900543-3.2613678
			L56.2542496,61.7863731z"/>
		<path class="st1" d="M47.6815224,102.9905777l-2.254467-40.4102592c-0.2101135-4.1145172-0.1405563-8.0091057,3.9744415-8.221096
			c4.1131744-0.2096291,7.6208496,2.9553719,7.83144,7.0698891l2.0499916,40.0036583
			c-2.1745644,1.0171967-2.6037407,1.3321457-5.2869034,1.6485443
			C48.7608147,103.6980209,49.9425888,103.356308,47.6815224,102.9905777z"/>
		<circle class="st4" cx="50.7684708" cy="109.6684036" r="5.2347889"/>
	</g>
	<g>
		<g>
			<path class="st4" d="M41.9113884,19.8897438c0.2359581-0.7944279,0.3647804-1.6353531,0.3647804-2.5059299
				c0-4.8525791-3.9335899-8.786109-8.7861176-8.786109c-4.8520889,0-8.785677,3.9335299-8.785677,8.786109
				c0,0.8705769,0.1288109,1.7115021,0.364769,2.5059299c-3.5988426,2.6098537-5.9402943,6.848032-5.9402943,11.6333656
				c0,7.9319954,6.4301205,14.3616333,14.3612022,14.3616333c7.9315109,0,14.3616409-6.4296379,14.3616409-14.3616333
				C47.8516922,26.7377758,45.5102806,22.4995975,41.9113884,19.8897438z"/>
		</g>
		<g>
			<defs>
				<path id="SVGID_3_" d="M41.9113884,19.8897438c0.2359581-0.7944279,0.3647804-1.6353531,0.3647804-2.5059299
					c0-4.8525791-3.9335899-8.786109-8.7861176-8.786109c-4.8520889,0-8.785677,3.9335299-8.785677,8.786109
					c0,0.8705769,0.1288109,1.7115021,0.364769,2.5059299c-3.5988426,2.6098537-5.9402943,6.848032-5.9402943,11.6333656
					c0,7.9319954,6.4301205,14.3616333,14.3612022,14.3616333c7.9315109,0,14.3616409-6.4296379,14.3616409-14.3616333
					C47.8516922,26.7377758,45.5102806,22.4995975,41.9113884,19.8897438z"/>
			</defs>
			<clipPath id="SVGID_4_">
				<use xlink:href="#SVGID_3_"  style="overflow:visible;"/>
			</clipPath>
			<path class="st7" d="M45.8731728,21.9618282c-0.040432-1.6898899-0.5640984-3.2792244-1.3063469-4.787693
				c-0.1640358-0.3328075-0.2486687-0.689106-0.2444229-1.0346222c-0.3544769-0.6303329-0.7206421-1.2546015-1.0863762-1.8788691
				c-0.9513969-0.9730577-1.8501816-2.0306892-2.2737236-3.3018007c-0.9222755-0.6242199-1.9916992-1.0910368-3.2350388-1.3222799
				c0,0-0.1527824,7.2724905,6.7709198,9.8099012l1.5611267,3.3046398
				C45.9483604,22.5273228,45.8806839,22.2650337,45.8731728,21.9618282z"/>
			<path class="st7" d="M24.416235,14.1003532c-0.24963-0.0310478-0.3944206-0.1123486-0.3944206-0.1123486l1.4083462-3.4357615
				l5.8575974-3.2101026l4.505619,0.9570289l2.3090096,1.5206938C38.1023865,9.8198633,34.3286629,15.3394547,24.416235,14.1003532z
				"/>
			<path class="st7" d="M24.5313759,22.1705437c0.9693031-0.9561138,1.8473892-1.5855331,2.137886-1.8863792
				c0,0-0.8216724-1.3237228-0.6613808-3.4898167s1.1229992-3.8508329,1.1229992-3.8508329l-2.0857067-1.1229992
				l-2.5670624,7.139926l-0.9965477,1.2870445C22.4640083,20.9248466,23.5014706,21.5505123,24.5313759,22.1705437z"/>
			<path class="st7" d="M40.0278015,20.2841644c0.2806282,0.2909794,1.1098595,0.8879547,2.040123,1.7900124
				c0.9810486-0.7004185,1.9696045-1.3881283,2.9717827-2.0532646l-0.820755-1.0604706l-2.5670624-7.139926l-2.0857086,1.1229992
				c0,0,0.9627113,1.6847391,1.1230011,3.8508329S40.0278015,20.2841644,40.0278015,20.2841644z"/>
		</g>
		<circle class="st0" cx="30.4035339" cy="18.385994" r="0.7323563"/>
		<circle class="st0" cx="36.2613487" cy="18.385994" r="0.7321396"/>
		<path class="st5" d="M32.1554947,22.1089783c0.029171,0.5020523,0.4446754,0.9006615,0.9547272,0.9006615
			c0.509552,0,0.925106-0.3986092,0.9542274-0.9006615H32.1554947z"/>
	</g>
	<path class="st6" d="M30.5045948,45.5811043l-1.3453274,5.2323685l-2.7513332-0.2749977
		c0.0897732,0.336132,0.1429138,0.6849213,0.1555748,1.0430946l3.3779602-0.0460663l1.2221966-5.8185577
		C30.9389687,45.6873398,30.7194233,45.641758,30.5045948,45.5811043z"/>
	<path class="st6" d="M39.7969933,50.5318794l-2.8157196,0.2815933l-1.3077545-5.0852661
		c-0.2157326,0.0400009-0.4432793,0.0639725-0.6783142,0.0766335l1.2038689,5.7306633l3.3454971,0.0455856
		C39.5878067,51.2177162,39.6752586,50.8675308,39.7969933,50.5318794z"/>
	<polyline class="st6" points="22.2802372,43.6533318 22.214859,43.8018761 18.9507103,51.194706 22.9623146,52.7990608 
		21.357481,59.1370506 32.5489655,70.890274 20.836174,59.3377724 22.761591,52.9598312 18.5497417,51.3954315 	"/>
	<polyline class="st6" points="43.2586136,43.6533318 43.3239708,43.8018761 46.5881386,51.194706 42.5765343,52.7990608 
		44.1813698,59.1370506 32.9898834,70.890274 44.7026749,59.3377724 42.7772598,52.9598312 46.9891052,51.3954315 	"/>
</g>
</svg>
