<?xml version="1.0" encoding="utf-8"?>
<!-- Generator: Adobe Illustrator 19.0.1, SVG Export Plug-In . SVG Version: 6.00 Build 0)  -->
<svg version="1.1" id="Layer_1" xmlns="http://www.w3.org/2000/svg" xmlns:xlink="http://www.w3.org/1999/xlink" x="0px" y="0px"
	 viewBox="0 0 560 305" style="enable-background:new 0 0 560 305;" xml:space="preserve">
<style type="text/css">
	.st0{fill:#FBBC30;}
	.st1{opacity:0.4;fill:#FBBC30;}
	.st2{fill:#418CCB;}
	.st3{fill:#FAC78D;}
	.st4{fill:#EFB880;}
	.st5{fill:#48B4E7;}
	.st6{opacity:0.1;}
	.st7{fill:#EA602C;}
	.st8{opacity:0.4;fill:#48B4E7;}
	.st9{fill:#1F4392;}
	.st10{fill:#112D46;}
	.st11{fill:#E51F40;}
	.st12{stroke:#E51F40;stroke-miterlimit:10;}
</style>
<g>
	<g>
		<rect x="205.0395508" y="182.354248" class="st0" width="56.2187996" height="33.4463005"/>
		<rect x="201.8374481" y="176.2165527" class="st0" width="62.6230011" height="7.2939"/>
		<rect x="205.0395508" y="183.4221497" class="st1" width="56.2187996" height="3.3799"/>
	</g>
	<g>
		<polygon class="st2" points="344.9653625,254.9680481 265.245636,254.9680481 269.5942383,165.8264465 341.7045593,165.8264465 		
			"/>
		<path class="st2" d="M287.1635437,181.5896454v-18.2740021c0-9.6053925,7.8145142-17.4198914,17.4208984-17.4198914
			c9.6054993,0,17.4200134,7.8144989,17.4200134,17.4198914v18.2740021h3.2606812v-18.2740021
			c0-11.4037933-9.2772827-20.6810913-20.6806946-20.6810913c-11.4042969,0-20.6815796,9.277298-20.6815796,20.6810913v18.2740021
			H287.1635437z"/>
		<g>
			<path class="st0" d="M319.1567383,216.2702484l-3.094696-18.3847961
				c-0.2460938-1.9736023-1.6083984-5.6743011-3.7608032-5.6743011c-2.1600952,0-3.7440796,3.7250977-3.7635803,5.6949005
				l-1.6534119,18.4794006v0.0039978l-0.0741882,0.863205c0,3.4990997,1.7704773,9.7465973,5.3046875,9.7465973
				c3.6123047,0,7.2773132-5.9360046,7.2773132-9.2523956C319.3920593,217.4997559,319.1567383,216.2702484,319.1567383,216.2702484
				z M317.4223633,217.4948425c-0.2578125,0-0.4697266-0.2030945-0.4902039-0.4491882
				c-0.0039062-0.0146027-0.1719055-1.2187042-0.1719055-1.2187042c-0.3105164-0.7998047-1.0751953-0.9073029-2.3828125-0.9073029
				c-0.1972961,0-3.2421875-0.0839996-3.5438843-0.0839996c-0.7832031,0-1.3213196,0.0782013-1.4952087,0.9561005
				l-0.0047913,0.0205078l-0.0879211,0.7548981c-0.070282,0.1826019-0.2529907,0.3182983-0.4589844,0.316391
				c-0.4931946-0.0058899-0.4892883-0.4306946-0.4892883-0.4550934l0.0497742-0.6367035l1.2383118-17.1557922
				c0.0147095-1.5986023,0.906311-4.0805054,2.7128906-4.0805054c1.8057251,0,2.344696,1.8500977,2.5908203,4.0702972
				l2.8388977,16.9833984c0,0,0.1825867,1.3632965,0.1825867,1.3973999
				C317.9106445,217.2731476,317.6870422,217.4948425,317.4223633,217.4948425z"/>
			<path class="st0" d="M292.4379578,217.7468567c0,3.316391,3.6669922,9.2523956,7.2783813,9.2523956
				c3.5332031,0,5.3037109-6.2485046,5.3037109-9.7465973l-0.0733032-0.863205v-0.0039978l-1.6532898-18.4794006
				c-0.0205078-1.9698029-1.6035156-5.6949005-3.7655945-5.6949005c-2.1513977,0-3.5117188,3.7006989-3.7598267,5.6743011
				l-3.093689,18.3847961C292.6743469,216.2702484,292.4379578,217.4997559,292.4379578,217.7468567z M293.9204407,217.006546
				c0-0.0350952,0.1816101-1.3973999,0.1816101-1.3973999l2.8388977-16.9833984
				c0.2470093-2.2201996,0.7850952-4.0702972,2.5907898-4.0702972c1.8066101,0,2.6992188,2.4819031,2.7148132,4.0805054
				l1.2363892,17.1557922l0.0498047,0.6367035c0,0.0243988,0.0049133,0.4492035-0.4882812,0.4550934
				c-0.2070007,0.0019073-0.3897095-0.1337891-0.460022-0.316391l-0.0878906-0.7548981l-0.0047913-0.0205078
				c-0.1729126-0.8778992-0.710022-0.9561005-1.4952087-0.9561005c-0.3016968,0-3.3457031,0.0839996-3.5439148,0.0839996
				c-1.3075867,0-2.0722961,0.1074982-2.3817749,0.9073029c0,0-0.1679993,1.2041016-0.1729126,1.2187042
				c-0.0205078,0.2460938-0.2333984,0.4491882-0.4891968,0.4491882
				C294.1430359,217.4948425,293.9204407,217.2731476,293.9204407,217.006546z"/>
		</g>
	</g>
	<path class="st3" d="M446.2504578,185.2170563c0,2.0907898-1.6943054,3.786087-3.7861023,3.786087h-69.8378906
		c-2.0898132,0-3.7861023-1.6952972-3.7861023-3.786087l0,0c0-2.0913086,1.6962891-3.7866058,3.7861023-3.7866058h69.8378906
		C444.5561523,181.4304504,446.2504578,183.1257477,446.2504578,185.2170563L446.2504578,185.2170563z"/>
	<path class="st4" d="M459.8784485,192.6701508c0,2.0908051-1.694397,3.7861938-3.7861938,3.7861938h-69.8377991
		c-2.0899048,0-3.7861938-1.6953888-3.7861938-3.7861938l0,0c0-2.0912933,1.6962891-3.7866058,3.7861938-3.7866058h69.8377991
		C458.1840515,188.8835449,459.8784485,190.5788574,459.8784485,192.6701508L459.8784485,192.6701508z"/>
	<path class="st5" d="M516.3774414,189.0500488c0,8.5605011-6.9394836,15.5-15.5,15.5h-78.6669922
		c-8.5604858,0-15.5-6.9394989-15.5-15.5l0,0c0-8.5605011,6.9395142-15.5,15.5-15.5h78.6669922
		C509.4379578,173.5500488,516.3774414,180.4895477,516.3774414,189.0500488L516.3774414,189.0500488z"/>
	<path class="st5" d="M515.144043,186.8762512c0.0546875-0.3291016,0.1123047-0.6558075,0.1553345-0.9882965l10.8319702-82.7944031
		c2.1483765-16.428299-9.4268188-31.4888-25.8554993-33.6381989l-6.4443054-0.8432999
		c-16.4286804-2.1489029-31.4892883,9.426796-33.6387024,25.8549957l-10.8320007,82.7943954
		c-0.0429993,0.3325043-0.0712891,0.6636047-0.1044922,0.9951019L515.144043,186.8762512z"/>
	<rect x="21.3754501" y="228.4758453" class="st6" width="108.6211014" height="66.9179993"/>
	<g>
		<path class="st7" d="M149.0307465,213.0441437c0,8.6734009-7.032196,15.7071075-15.7070007,15.7071075H16.9106503
			c-8.6738005,0-15.7051001-7.0337067-15.7051001-15.7071075l0,0c0-8.6732941,7.0312996-15.7059937,15.7051001-15.7059937
			h116.4130936C141.9985504,197.33815,149.0307465,204.3708496,149.0307465,213.0441437L149.0307465,213.0441437z"/>
	</g>
	<g>
		<path class="st7" d="M151.5952454,47.6027489c8.6269073,0.8921013,14.9004059,8.6104012,14.0077972,17.2392998
			l-15.0595856,145.6362c-0.8916016,8.6279907-8.6113129,14.8998871-17.239212,14.0072937l0,0
			c-8.6279984-0.8925018-14.899498-8.6103058-14.006897-17.238205l15.0596008-145.636795
			C135.2485504,52.982151,142.9672546,46.7102509,151.5952454,47.6027489L151.5952454,47.6027489z"/>
	</g>
	<path class="st0" d="M142.3774567,156.0500488c0,5.2465973-4.2528992,9.5-9.5,9.5H46.877449c-5.2471008,0-9.5-4.2534027-9.5-9.5
		l0,0c0-5.2465973,4.2528992-9.5,9.5-9.5h86.0000076C138.1245575,146.5500488,142.3774567,150.8034515,142.3774567,156.0500488
		L142.3774567,156.0500488z"/>
	<circle class="st7" cx="144.6274567" cy="61.5500488" r="21.5"/>
	<g>
		<rect x="414.04245" y="227.4758453" class="st6" width="108.6211014" height="66.9179993"/>
		<g>
			<path class="st7" d="M541.6977539,212.0441437c0,8.6739044-7.0322266,15.7071075-15.7070312,15.7071075H409.5776367
				c-8.6737976,0-15.7050781-7.0332031-15.7050781-15.7071075l0,0c0-8.6737976,7.0312805-15.7059937,15.7050781-15.7059937
				h116.4130859C534.6655273,196.33815,541.6977539,203.3703461,541.6977539,212.0441437L541.6977539,212.0441437z"/>
		</g>
		<g>
			<path class="st7" d="M544.2622681,46.6027489c8.6268921,0.892601,14.9003906,8.6104012,14.0077515,17.2392998
				l-15.0595703,145.6357117c-0.8916016,8.628891-8.6113281,14.9003906-17.2391968,14.0077972l0,0
				c-8.6279907-0.8925018-14.8995056-8.6103058-14.006897-17.238205l15.0595703-145.636795
				C527.9155273,51.9816513,535.6342773,45.7102509,544.2622681,46.6027489L544.2622681,46.6027489z"/>
		</g>
		<path class="st0" d="M535.0444336,155.0500488c0,5.2460938-4.2528687,9.5-9.5,9.5h-85.9999695c-5.2471008,0-9.5-4.2539062-9.5-9.5
			l0,0c0-5.2460938,4.2528992-9.5,9.5-9.5h85.9999695C530.7915649,145.5500488,535.0444336,149.8039551,535.0444336,155.0500488
			L535.0444336,155.0500488z"/>
		<circle class="st7" cx="537.2944336" cy="60.5500488" r="21.5"/>
	</g>
	<g>
		<rect x="171.7602539" y="254.8273468" class="st0" width="68.169899" height="40.5567017"/>
		<rect x="167.8774567" y="247.3850555" class="st0" width="75.9355011" height="8.8446999"/>
		<rect x="171.7602539" y="256.122345" class="st1" width="68.169899" height="4.0985999"/>
	</g>
	<g>
		<rect x="158.7192535" y="206.9104462" class="st5" width="68.169899" height="40.5565987"/>
		<rect x="154.8364563" y="199.4680481" class="st5" width="75.9355011" height="8.8446999"/>
		<rect x="158.7192535" y="208.2053528" class="st8" width="68.169899" height="4.0985999"/>
	</g>
	<g>
		<polygon class="st9" points="304.5473633,304.7189636 231.2143555,304.7189636 235.2143555,222.7189484 301.5473633,222.7189484 
					"/>
		<path class="st2" d="M251.3764496,237.2189484v-16.809494c0-8.8359985,7.1884918-16.0243988,16.0243988-16.0243988
			c8.8359985,0,16.0245056,7.1884003,16.0245056,16.0243988v16.809494h3v-16.809494
			c0-10.4903107-8.5342102-19.0243988-19.0245056-19.0243988c-10.4902039,0-19.0243988,8.5340881-19.0243988,19.0243988v16.809494
			H251.3764496z"/>
		<g>
			<path class="st2" d="M279.426239,275.1008606l-2.8466797-16.9121094
				c-0.2265015-1.8154907-1.4794006-5.2198029-3.4589233-5.2198029c-1.9872742,0-3.444397,3.4268036-3.4628906,5.2382965
				l-1.5205078,16.999115v0.0038757l-0.0683899,0.7939148c0,3.218811,1.6289062,8.9648132,4.8799133,8.9648132
				c3.3222961,0,6.6942749-5.4598999,6.6942749-8.5107117C279.6430359,276.2316589,279.426239,275.1008606,279.426239,275.1008606z
				 M277.8305359,276.2268372c-0.2362976,0-0.4315796-0.1865845-0.4501953-0.4130859
				c-0.0038757-0.0137024-0.1582031-1.1210938-0.1582031-1.1210938c-0.2861023-0.7354126-0.9891968-0.835022-2.1923828-0.835022
				c-0.1816101,0-2.9823914-0.0770874-3.2597046-0.0770874c-0.7207031,0-1.2157898,0.0722046-1.375,0.8799133l-0.0049133,0.0184937
				l-0.0810852,0.6943054c-0.0643921,0.1679993-0.2323914,0.2929993-0.421814,0.2910767
				c-0.4541016-0.0048828-0.4501953-0.3954773-0.4501953-0.4179993l0.0458984-0.5858765l1.1386108-15.781311
				c0.0137024-1.4707031,0.8339844-3.7539062,2.4960938-3.7539062c1.6611938,0,2.156311,1.7021179,2.3828125,3.7441101
				l2.6113892,15.6231079c0,0,0.1679077,1.2538757,0.1679077,1.2850952
				C278.2797546,276.0227356,278.0747375,276.2268372,277.8305359,276.2268372z"/>
			<path class="st2" d="M254.8481445,276.458252c0,3.0508118,3.3731079,8.5107117,6.6953125,8.5107117
				c3.25,0,4.8789062-5.7470093,4.8789062-8.9648132l-0.0674133-0.7939148v-0.0038757l-1.5205078-16.999115
				c-0.0195007-1.8114929-1.4755859-5.2382965-3.4638062-5.2382965c-1.9794922,0-3.2314758,3.4043121-3.4589844,5.2198029
				l-2.8457031,16.9121094C255.0659485,275.1008606,254.8481445,276.2316589,254.8481445,276.458252z M256.2114563,275.7775574
				c0-0.032196,0.1679993-1.2850952,0.1679993-1.2850952l2.6112976-15.6231079
				c0.2265015-2.0419922,0.7217102-3.7441101,2.382782-3.7441101c1.6621094,0,2.483429,2.2832031,2.4971008,3.7539062
				l1.1377258,15.781311l0.0458984,0.5858765c0,0.022522,0.0047913,0.4131165-0.4493103,0.4179993
				c-0.1903992,0.0019226-0.3583984-0.1230774-0.4227905-0.2910767l-0.0811157-0.6943054l-0.0047913-0.0184937
				c-0.1592102-0.8077087-0.6534119-0.8799133-1.375-0.8799133c-0.2774048,0-3.0782166,0.0770874-3.2597961,0.0770874
				c-1.2030945,0-1.906311,0.0996094-2.1914062,0.835022c0,0-0.1542969,1.1073914-0.1592102,1.1210938
				c-0.0185852,0.2265015-0.2138977,0.4130859-0.4491882,0.4130859
				C256.4165649,276.2268372,256.2114563,276.0227356,256.2114563,275.7775574z"/>
		</g>
	</g>
	<g>
		<polygon class="st10" points="328.6274414,263.2160645 339.4604492,267.5490417 353.6274414,275.6330566 357.1342468,270.7229614 
			348.4907532,264.6730652 328.9604492,260.7160645 		"/>
		
			<rect x="350.3762512" y="273.799469" transform="matrix(0.58124 -0.8137322 0.8137322 0.58124 -75.790329 402.3237305)" class="st10" width="5.2504988" height="2.0001338"/>
	</g>
	<g>
		<polygon class="st10" points="338.9360352,287.0500488 350.5053406,285.5432434 366.8159485,285.6828613 367.47995,279.6857605 
			356.9829407,278.6252441 338.0063477,284.7053528 		"/>
		
			<rect x="363.2384338" y="284.2618103" transform="matrix(0.1101388 -0.9939162 0.9939162 0.1101388 42.0415649 617.4805298)" class="st10" width="5.2497382" height="1.9993086"/>
	</g>
	<g>
		<path class="st0" d="M515.628479,90.2985535V21.6140499c0-11.7823-9.5508423-21.3330002-21.3330383-21.3330002
			c-11.7822876,0-21.3329773,9.5507002-21.3329773,21.3330002v68.6845016H515.628479z"/>
		<g>
			<circle class="st3" cx="481.3798523" cy="50.5505486" r="28.6665001"/>
			<circle class="st3" cx="494.0043945" cy="20.9675503" r="15.9580498"/>
			<rect x="492.5864563" y="22.8415508" class="st3" width="17.375" height="29"/>
		</g>
		<circle class="st10" cx="489.7315063" cy="18.3098507" r="1.23975"/>
		<circle class="st10" cx="481.1494141" cy="18.1535492" r="1.23975"/>
		<ellipse class="st11" cx="485.4395142" cy="23.2478504" rx="2.0102501" ry="1.5727001"/>
		<line class="st12" x1="482.6694641" y1="23.2165508" x2="488.2534485" y2="23.2165508"/>
		<path class="st0" d="M497.7124634,3.80005c0,0-9.3340149,8.4165001-20.6670227,10.4165001
			c-6.3262024,1.1162004,2.5830078-4.75,2.5830078-4.75l8.8340149-6L497.7124634,3.80005z"/>
		<path class="st0" d="M496.5454407,4.7165499c0,0,9,17.4165001,14.75,21.25c5.7500305,3.8334999-0.25-8.0830002-0.25-8.0830002
			l-3.3329773-10.3335009L496.5454407,4.7165499z"/>
	</g>
	<circle class="st5" cx="466.8784485" cy="113.7165527" r="15.5"/>
	<path class="st3" d="M373.6401367,181.6755524c2.0312195,0.4945984,3.2773132,2.5424957,2.7832031,4.5746918
		l-19.6777039,81.4931946c-0.4931946,2.0302124-2.5429993,3.2773132-4.5742798,2.7832031l0,0
		c-2.032196-0.4960938-3.2773132-2.5440063-2.7832031-4.5742798l19.6758118-81.4946136
		C369.5600586,182.4255524,371.6088562,181.180954,373.6401367,181.6755524L373.6401367,181.6755524z"/>
	<path class="st4" d="M385.5561523,189.0729523c2.0253906,0.519104,3.2460938,2.581604,2.7255859,4.6080017l-22.1542969,85.6190948
		c-0.5195007,2.0244141-2.5839844,3.2460938-4.6094055,2.726593l0,0c-2.0253906-0.5195923-3.2450867-2.5839844-2.7255859-4.6074829
		l22.155304-85.6201019C381.4672546,189.7727509,383.5307617,188.552948,385.5561523,189.0729523L385.5561523,189.0729523z"/>
	<path class="st3" d="M480.3774414,140.9250488c0,2.5541992-2.070282,4.625-4.625,4.625h-70.75
		c-2.5546875,0-4.625-2.0708008-4.625-4.625l0,0c0-2.5541992,2.0703125-4.625,4.625-4.625h70.75
		C478.3071594,136.3000488,480.3774414,138.3708496,480.3774414,140.9250488L480.3774414,140.9250488z"/>
	<circle class="st3" cx="404.7524414" cy="145.4250488" r="9.375"/>
	<path class="st3" d="M490.886261,106.3947525l-17.6934204,31.2988968c-1.2568054,2.2245941-0.4736023,5.0458984,1.75,6.3027039
		c2.2237244,1.2567902,5.0458984,0.4736023,6.3027954-1.7505035l18.0410156-31.9144974
		C496.5053406,108.9812469,493.6860352,107.7063522,490.886261,106.3947525z"/>
	<g>
		<polygon class="st9" points="255.800354,176.1999512 209.9672546,176.1999512 212.4672546,124.9499512 253.925354,124.9499512 		
			"/>
		<path class="st2" d="M222.5688477,134.0124512v-10.5058975c0-5.5223999,4.4932098-10.0151062,10.0147095-10.0151062
			c5.5233917,0,10.0155945,4.4927063,10.0155945,10.0151062v10.5058975h1.875v-10.5058975
			c0-6.5561066-5.3339996-11.8901062-11.8905945-11.8901062c-6.5567017,0-11.8897095,5.3339996-11.8897095,11.8901062v10.5058975
			H222.5688477z"/>
		<g>
			<path class="st2" d="M240.0991516,157.6887512l-1.7783051-10.5702972
				c-0.1416016-1.1343079-0.9247894-3.262207-2.1620941-3.262207c-1.2422028,0-2.1533966,2.1416016-2.1641083,3.2739105
				l-0.9501953,10.6244965v0.0023956l-0.0429993,0.4960938c0,2.0117035,1.0175934,5.6031036,3.0498047,5.6031036
				c2.0762024,0,4.1846008-3.4125977,4.1846008-5.319397C240.2358551,158.3952484,240.0991516,157.6887512,240.0991516,157.6887512z
				 M239.1030426,158.3923492c-0.1484985,0-0.2704926-0.1166992-0.282196-0.2583008
				c-0.0019989-0.0083008-0.0986938-0.7006989-0.0986938-0.7006989c-0.1786957-0.4595032-0.618103-0.5214996-1.3701019-0.5214996
				c-0.1141968,0-1.8641968-0.0482941-2.0381012-0.0482941c-0.4492035,0-0.7597046,0.0448914-0.8594055,0.5497894
				l-0.0018921,0.0117035l-0.0507965,0.4340973c-0.0410004,0.105011-0.1455078,0.1831055-0.2637024,0.1816101
				c-0.2841034-0.0028992-0.2812042-0.2470093-0.2812042-0.2612l0.0283051-0.3662109l0.7118988-9.8632965
				c0.0077972-0.9188995,0.5214996-2.3461914,1.5596008-2.3461914s1.347702,1.0639954,1.4893036,2.3402863l1.6327972,9.7642059
				c0,0,0.1044922,0.7837067,0.1044922,0.8032074C239.3833466,158.2648468,239.2553558,158.3923492,239.1030426,158.3923492z"/>
			<path class="st2" d="M224.737854,158.53685c0,1.9067993,2.1092987,5.319397,4.1855011,5.319397
				c2.031189,0,3.0487976-3.5917969,3.0487976-5.6031036l-0.0420074-0.4960938v-0.0023956l-0.9501953-10.6244965
				c-0.0117035-1.132309-0.9217987-3.2739105-2.1649933-3.2739105c-1.2373047,0-2.0195007,2.1278992-2.1621094,3.262207
				l-1.7782898,10.5702972C224.8745575,157.6887512,224.737854,158.3952484,224.737854,158.53685z M225.5903473,158.111557
				c0-0.0200043,0.1045074-0.8032074,0.1045074-0.8032074l1.6327972-9.7642059
				c0.1416016-1.2762909,0.4512024-2.3402863,1.4893036-2.3402863c1.0379944,0,1.5516968,1.4272919,1.5605011,2.3461914
				l0.7108917,9.8632965l0.0283966,0.3662109c0,0.0141907,0.0039062,0.2583008-0.2802887,0.2612
				c-0.1192017,0.0014954-0.2236023-0.0765991-0.2647095-0.1816101l-0.0506897-0.4340973l-0.0020142-0.0117035
				c-0.0995941-0.5048981-0.4091949-0.5497894-0.8593903-0.5497894c-0.1737976,0-1.9237976,0.0482941-2.0381012,0.0482941
				c-0.7519073,0-1.1914062,0.0619965-1.3701019,0.5214996c0,0-0.0957031,0.6923981-0.0986023,0.7006989
				c-0.0117035,0.1416016-0.1338043,0.2583008-0.2812958,0.2583008
				C225.7182465,158.3923492,225.5903473,158.2648468,225.5903473,158.111557z"/>
		</g>
	</g>
</g>
</svg>
