<?xml version="1.0" encoding="utf-8"?>
<!-- Generator: Adobe Illustrator 19.0.1, SVG Export Plug-In . SVG Version: 6.00 Build 0)  -->
<svg version="1.1" id="Layer_1" xmlns="http://www.w3.org/2000/svg" xmlns:xlink="http://www.w3.org/1999/xlink" x="0px" y="0px"
	 viewBox="0 0 75 105" style="enable-background:new 0 0 75 105;" xml:space="preserve">
<style type="text/css">
	.st0{fill:#EFBB89;}
	.st1{fill:#FAC78D;}
	.st2{fill:#112D46;}
	.st3{fill:#164160;}
	.st4{fill:#EA602B;}
	.st5{fill:#FFCD01;}
</style>
<g>
	<polygon class="st0" points="57.223526,104.7129135 67.8377075,79.6334457 32.2137756,64.5563049 15.2185488,104.7129135 	"/>
	<path class="st1" d="M67.9681549,33.2808075c0.045845,0.5891609,3.2162018,34.5586624,3.2162018,34.5586624l-17.5156479-2.535347
		l-4.7236519-24.5931625"/>
	<circle class="st1" cx="49.2508011" cy="68.0306015" r="21.7327862"/>
	<path class="st2" d="M41.6038322,83.874527c-1.5204544,2.6987457-4.9402885,3.6539078-7.6390266,2.1324768L2.8563704,68.4779434
		c-2.69925-1.5209198-3.6534557-4.9408035-2.132992-7.6392899L33.3960304,2.8564394
		c1.5209732-2.6989949,4.9408073-3.6537023,7.6395454-2.1330347l31.1084366,17.529623
		c2.6982269,1.5201569,3.6534424,4.9407539,2.1324692,7.6392899L41.6038322,83.874527z"/>
	<circle class="st3" cx="21.8655472" cy="69.4727097" r="5.9147444"/>
	<path class="st4" d="M46.3936958,66.6163635c-1.5204201,2.6982269-4.9412727,3.65345-7.6395035,2.1329803l-23.128273-13.03228
		c-2.6982298-1.5211754-3.6533957-4.9412651-2.1319723-7.6397476l21.19944-37.623455
		c1.521431-2.6987395,4.9412613-3.6533961,7.6400032-2.132473l23.1287384,13.0317726
		c2.6982803,1.520668,3.6524811,4.9410095,2.132019,7.6394939L46.3936958,66.6163635z"/>
	<path class="st1" d="M50.4550056,86.8297348c-2.1474075,2.2321167-5.6982574,2.3023376-7.9308395,0.1548767L26.0852108,71.1752014
		c-2.2330914-2.1469498-2.302803-5.6967773-0.1553879-7.9296608l1.1653748-1.2126503
		c2.1479263-2.2325783,5.6982594-2.3020859,7.9303799-0.1546211l16.4399261,15.8084373
		c2.2330894,2.1474152,2.3028107,5.6972885,0.1553421,7.9303741L50.4550056,86.8297348z"/>
	<g>
		<g>
			<path class="st5" d="M46.2353439,44.3842964c-0.0308456-2.8874779-0.0801697-7.6153755-0.1110725-10.5025978
				c-0.0288658-2.8892632-2.0886574-4.0498447-4.5752525-2.5784893c-2.4850655,1.4696178-6.5548553,3.8765583-9.0409393,5.3461781
				c-2.4860859,1.4703827-2.4611473,3.8334656,0.0552788,5.2515755c2.5164795,1.4180641,6.6345558,3.7385635,9.1510353,5.1564217
				C44.2303581,48.4754448,46.2652245,47.2729988,46.2353439,44.3842964z M38.4349556,42.038147
				c-0.6444473-0.3625374-0.8720436-1.1782761-0.5094566-1.8217545c0.3625336-0.6441879,1.1787834-0.8722458,1.8222084-0.5097084
				c0.6439362,0.3633003,0.8715324,1.1783257,0.5089989,1.8232307C39.8936691,42.173336,39.0788879,42.4011917,38.4349556,42.038147
				z M42.0345993,38.4746056c-0.3759995,0.6675949-1.2231026,0.904171-1.889473,0.527916
				c-0.6678543-0.3759956-0.9038658-1.2223892-0.5278587-1.8902397l1.1678238-2.071991
				c0.3764992-0.6678009,1.2221222-0.9043732,1.8894653-0.5278664c0.6678009,0.3759995,0.903862,1.222847,0.5278664,1.8899345
				L42.0345993,38.4746056z"/>
		</g>
	</g>
</g>
</svg>
