<?xml version="1.0" encoding="utf-8"?>
<!-- Generator: Adobe Illustrator 19.1.0, SVG Export Plug-In . SVG Version: 6.00 Build 0)  -->
<svg version="1.0" id="Layer_1" xmlns="http://www.w3.org/2000/svg" xmlns:xlink="http://www.w3.org/1999/xlink" x="0px" y="0px"
	 viewBox="0 0 16 8" style="enable-background:new 0 0 16 8;" xml:space="preserve">
<style type="text/css">
	.st0{fill:#41B5E8;}
</style>
<g>
	<g>
		<path class="st0" d="M8.5,1h-8C0.2236328,1,0,0.7763672,0,0.5S0.2236328,0,0.5,0h8C8.7763672,0,9,0.2236328,9,0.5
			S8.7763672,1,8.5,1z"/>
	</g>
	<g>
		<path class="st0" d="M6.5,4h-6C0.2236328,4,0,3.7763672,0,3.5S0.2236328,3,0.5,3h6C6.7763672,3,7,3.2236328,7,3.5
			S6.7763672,4,6.5,4z"/>
	</g>
	<g>
		<path class="st0" d="M4.5,7h-4C0.2236328,7,0,6.7763672,0,6.5S0.2236328,6,0.5,6h4C4.7763672,6,5,6.2236328,5,6.5
			S4.7763672,7,4.5,7z"/>
	</g>
	<path class="st0" d="M14.9542446,3.6235352c-0.2070312-0.1811523-0.5224609-0.1616211-0.7050781,0.0473633l-2.1865234,2.4984741
		V0.5c0-0.2763672-0.2236328-0.5-0.5-0.5s-0.5,0.2236328-0.5,0.5v5.6693726L8.8761196,3.6708984
		C8.694479,3.4619141,8.3770962,3.4423828,8.1710415,3.6235352C7.9630342,3.8056641,7.9415498,4.121582,8.1241665,4.3291016
		l3.0625,3.5c0.0032349,0.0037231,0.0083008,0.0050659,0.0116577,0.008728
		c0.0343018,0.0370483,0.0761719,0.0643921,0.1202393,0.0896606c0.0152588,0.008728,0.0271606,0.0220947,0.0432739,0.0291748
		C11.4234829,7.9838257,11.4909267,8,11.5626431,8s0.1391602-0.0161743,0.2008057-0.043335
		c0.0161133-0.0070801,0.0280151-0.0204468,0.0432739-0.0291748c0.0440674-0.0252686,0.0859375-0.0526123,0.1202393-0.0896606
		c0.0033569-0.0036621,0.0084229-0.0050049,0.0116577-0.008728l3.0625-3.5
		C15.1837368,4.121582,15.1622524,3.8056641,14.9542446,3.6235352z"/>
</g>
<g>
</g>
<g>
</g>
<g>
</g>
<g>
</g>
<g>
</g>
<g>
</g>
<g>
</g>
<g>
</g>
<g>
</g>
<g>
</g>
<g>
</g>
<g>
</g>
<g>
</g>
<g>
</g>
<g>
</g>
</svg>
