<?xml version="1.0" encoding="utf-8"?>
<!-- Generator: Adobe Illustrator 19.1.0, SVG Export Plug-In . SVG Version: 6.00 Build 0)  -->
<svg version="1.1" id="Layer_1" xmlns="http://www.w3.org/2000/svg" xmlns:xlink="http://www.w3.org/1999/xlink" x="0px" y="0px"
	 viewBox="0 0 24 28" style="enable-background:new 0 0 24 28;" xml:space="preserve">
<style type="text/css">
	.st0{fill:#FFFFFF;}
</style>
<g>
	<path class="st0" d="M11.9997482,0C7.9758873,0,4.7017961,3.2573166,4.7017961,7.2616525s3.2740912,7.2616525,7.2979522,7.2616525
		c4.024353,0,7.2984447-3.2573166,7.2984447-7.2616525S16.0241013,0,11.9997482,0z"/>
	<g>
		<path class="st0" d="M17.428812,14.7759008c-1.5304108,1.098011-3.4023743,1.7525091-5.4290638,1.7525091
			c-2.0264435,0-3.8981609-0.6544981-5.4284482-1.7525091c-3.2117338,1.5718737-5.6837835,4.4879904-6.5713058,8.086997
			C3.131413,26.1339207,7.4760413,28,12.0002403,28c4.5237064,0,8.8678436-1.8660793,11.999754-5.1380825
			C23.1124725,19.263401,20.6405449,16.3475304,17.428812,14.7759008z"/>
	</g>
</g>
<g>
</g>
<g>
</g>
<g>
</g>
<g>
</g>
<g>
</g>
<g>
</g>
<g>
</g>
<g>
</g>
<g>
</g>
<g>
</g>
<g>
</g>
<g>
</g>
<g>
</g>
<g>
</g>
<g>
</g>
</svg>
