<?xml version="1.0" encoding="utf-8"?>
<!-- Generator: Adobe Illustrator 19.1.0, SVG Export Plug-In . SVG Version: 6.00 Build 0)  -->
<svg version="1.1" id="Layer_1" xmlns="http://www.w3.org/2000/svg" xmlns:xlink="http://www.w3.org/1999/xlink" x="0px" y="0px"
	 viewBox="0 0 12 7" style="enable-background:new 0 0 12 7;" xml:space="preserve">
<style type="text/css">
	.st0{fill:#43B4E7;}
</style>
<g>
	<path class="st0" d="M11.7490234,4.6015739C11.0083008,4.56007,10.4272461,3.9428828,10.4262695,3.196789
		c-0.0009766-0.7402344,0.5771484-1.3510743,1.3154297-1.3906251c0.1225586-0.0063477,0.222168-0.1108398,0.222168-0.2333984
		l0.0029297-0.6450195c0.0029297-0.2397461-0.0932617-0.4702148-0.2709961-0.6479492
		c-0.1733398-0.1728516-0.3979492-0.2675781-0.6323242-0.2675781c-0.003418,0-0.0073242,0-0.0112305,0L0.9560547,0.0044061
		c-0.0161133-0.003418-0.0371094-0.0058594-0.0605469-0.003418c-0.2373047,0.0024414-0.4604492,0.0961914-0.628418,0.2641602
		C0.0947266,0.4375116,0,0.6679803,0,0.9135858l0.0004883,0.6494141c0.0009766,0.1230469,0.1049805,0.2265625,0.2211914,0.2265625
		c0,0,0,0,0.0004883,0C0.9614258,1.8344842,1.5410156,2.450207,1.5419922,3.1909297
		c0.0009766,0.7397461-0.5791016,1.3549802-1.3139648,1.4008787c-0.1230469,0-0.2270508,0.1040039-0.2270508,0.2275391
		l0.0043945,0.6450195C0.0058594,5.969738,0.4145508,6.3813591,0.9160156,6.3818474L11.059082,6.3901482
		c0.0004883,0,0.0004883,0,0.0009766,0c0.2431641,0,0.4716797-0.0942383,0.6425781-0.265625
		c0.1713867-0.1713867,0.265625-0.3999023,0.265625-0.6430664l0.0029297-0.6464844
		C11.9711914,4.7143669,11.8691406,4.606945,11.7490234,4.6015739z M6.1328125,5.2358513
		C6.0629883,5.1821404,5.9633789,5.176281,5.8789062,5.2187614c-0.081543,0.0419922-0.1303711,0.1210938-0.1279297,0.2036133
		l0.003418,0.4975586L0.9121094,5.9179802C0.6669922,5.9174919,0.4726562,5.719738,0.4697266,5.4687614l0.0019531-0.4604492
		C1.3710938,4.848156,2.0141602,4.098156,2.0131836,3.1938593C2.0087891,2.2807734,1.362793,1.5258905,0.4648438,1.3667108
		L0.4643555,0.9116327c0.0024414-0.2480469,0.1962891-0.4423828,0.440918-0.4423828c0.0004883,0,0.0004883,0,0.0009766,0
		L5.7475586,0.471203L5.7426758,0.9726678c0,0.0620117,0.027832,0.1235352,0.0761719,0.1699219
		C5.8657227,1.186535,5.9272461,1.2114373,5.972168,1.2065545c0.0664062,0.0029297,0.121582-0.0205078,0.1674805-0.065918
		C6.184082,1.0981561,6.2109375,1.0400506,6.2138672,0.9755975L6.2104492,0.471203l4.8388672,0.0058594
		c0.1181641,0,0.2338867,0.0478516,0.3173828,0.1313477c0.0864258,0.0864258,0.1318359,0.1967773,0.1318359,0.3178711
		l0.0009766,0.4492188C10.612793,1.5263788,9.9575195,2.2959101,9.9619141,3.1997187
		c-0.0024414,0.9057615,0.6542969,1.679199,1.5415039,1.8349607l0.0004883,0.4428711
		c0,0.1225586-0.0458984,0.2358398-0.1293945,0.3193359s-0.1962891,0.1289062-0.3178711,0.1289062
		c-0.0004883,0-0.0004883,0-0.0009766,0L6.2167969,5.9204216L6.21875,5.4223747
		C6.21875,5.3579216,6.1899414,5.2915154,6.1328125,5.2358513z"/>
	<path class="st0" d="M6.137207,3.5830195L6.1123047,3.5610468C6.0449219,3.5151484,5.9541016,3.5122187,5.8764648,3.5527461
		C5.7958984,3.5957148,5.7456055,3.6753047,5.7456055,3.7622187l0.0097656,0.4902341
		C5.7436523,4.3154411,5.7617188,4.3813591,5.8051758,4.4336052c0.0444336,0.0522461,0.1088867,0.0839844,0.168457,0.0839844
		c0.0029297,0.0014648,0.0092773,0,0.0126953,0c0.0625,0,0.1225586-0.0268555,0.1665039-0.074707
		C6.2001953,4.391613,6.222168,4.3242302,6.2143555,4.2705193L6.2133789,3.7607539
		C6.2133789,3.6870234,6.1806641,3.6157343,6.137207,3.5830195z M6.0560303,3.6437495L6.0560303,3.6437495l0.0001221-0.0001831
		L6.0560303,3.6437495z"/>
	<path class="st0" d="M6.1455078,1.9531366L6.1147461,1.9262811c-0.0761719-0.0488281-0.1748047-0.0488281-0.2548828,0
		c-0.0751953,0.0444336-0.1181641,0.123047-0.112793,0.197754l0.0014648,0.4760742
		C5.7426758,2.6660273,5.7680664,2.7353632,5.815918,2.7851679C5.8598633,2.8310664,5.918457,2.856457,5.9741211,2.856457
		C6.0380859,2.8520625,6.1054688,2.8300898,6.152832,2.7778437C6.1982422,2.728039,6.2211914,2.6630976,6.2158203,2.6084101
		L6.2114258,2.1289179C6.2167969,2.0634882,6.1933594,2.0009882,6.1455078,1.9531366z"/>
</g>
<g>
</g>
<g>
</g>
<g>
</g>
<g>
</g>
<g>
</g>
<g>
</g>
<g>
</g>
<g>
</g>
<g>
</g>
<g>
</g>
<g>
</g>
<g>
</g>
<g>
</g>
<g>
</g>
<g>
</g>
</svg>
