<?xml version="1.0" encoding="utf-8"?>
<!-- Generator: Adobe Illustrator 18.0.0, SVG Export Plug-In . SVG Version: 6.00 Build 0)  -->
<!DOCTYPE svg PUBLIC "-//W3C//DTD SVG 1.1//EN" "http://www.w3.org/Graphics/SVG/1.1/DTD/svg11.dtd">
<svg version="1.1" id="Layer_1" xmlns="http://www.w3.org/2000/svg" xmlns:xlink="http://www.w3.org/1999/xlink" x="0px" y="0px"
	 width="152.7px" height="152.7px" viewBox="0 0 152.7 152.7" enable-background="new 0 0 152.7 152.7" xml:space="preserve">
<circle fill="#FFFFFF" cx="76.3" cy="76.3" r="76.3"/>
<rect x="-100.2" y="108.1" transform="matrix(0.9951 9.902798e-02 -9.902798e-02 0.9951 13.1114 8.5417)" fill="#EFBB89" width="41.5" height="56.4"/>
<path fill="#FBC78E" d="M-70.7,62.8c0.2,0.6,14.3,34.3,14.3,34.3l-18.7,3l-12.7-23.7"/>
<circle fill="#FBC78E" cx="-78.8" cy="104.4" r="23.3"/>
<path fill="#112D47" d="M-81.6,123c-0.7,3.2-3.9,5.3-7.1,4.6l-37.4-8.1c-3.2-0.7-5.3-3.9-4.6-7.1l15-69.7c0.7-3.2,3.9-5.3,7.1-4.6
	l37.4,8.1c3.2,0.7,5.3,3.9,4.6,7.1L-81.6,123z"/>
<circle fill="#174160" cx="-106.3" cy="114.5" r="6.3"/>
<path fill="#189B38" d="M-82.2,103.8c-0.7,3.2-3.9,5.3-7.1,4.6l-27.8-6c-3.2-0.7-5.3-3.9-4.6-7.1l9.7-45.2c0.7-3.2,3.9-5.3,7.1-4.6
	l27.8,6c3.2,0.7,5.3,3.9,4.6,7.1L-82.2,103.8z"/>
<path fill="#FBC78E" d="M-71.6,123.2c-1.5,3-5.1,4.2-8.1,2.7l-21.9-11c-3-1.5-4.2-5.1-2.7-8.1l0.8-1.6c1.5-3,5.1-4.2,8.1-2.7
	l21.9,11c3,1.5,4.2,5.1,2.7,8.1L-71.6,123.2z"/>
<g>
	<circle fill="#FFCE03" cx="-97" cy="76.4" r="10.2"/>
	<path fill="#189B38" d="M-93.1,77c-0.5,2-2.5,3.3-4.6,2.9c-2.1-0.4-3.4-2.4-3.1-4.5l-1.5-0.3c-0.5,2.9,1.4,5.7,4.3,6.3
		c2.9,0.6,5.8-1.2,6.5-4.1L-93.1,77z"/>
</g>
<g>
	<g>
		<path fill="#FFFFFF" d="M76.2,116.3c-22.1,0-40-17.9-40-40s17.9-40,40-40s40,17.9,40,40S98.2,116.3,76.2,116.3z"/>
		<g>
			<path fill="#EB5F2C" d="M76.2,44.3c17.6,0,32,14.4,32,32s-14.4,32-32,32s-32-14.4-32-32S58.5,44.3,76.2,44.3 M76.2,28.3
				c-26.5,0-48,21.5-48,48s21.5,48,48,48s48-21.5,48-48S102.7,28.3,76.2,28.3L76.2,28.3z"/>
		</g>
	</g>
	<rect x="19.8" y="64.3" fill="#204392" width="113" height="25"/>
</g>
</svg>
