<?xml version="1.0" encoding="utf-8"?>
<!-- Generator: Adobe Illustrator 19.2.1, SVG Export Plug-In . SVG Version: 6.00 Build 0)  -->
<svg version="1.1" id="Layer_1" xmlns="http://www.w3.org/2000/svg" xmlns:xlink="http://www.w3.org/1999/xlink" x="0px" y="0px"
	 viewBox="-237 339 64 84.4" style="enable-background:new -237 339 64 84.4;" xml:space="preserve">
<style type="text/css">
	.st0{fill:#FFFFFF;}
</style>
<g>
	<g>
		<path class="st0" d="M-205,379c11,0,20-9,20-20s-9-20-20-20s-20,9-20,20S-216,379-205,379z M-205,349c5.5,0,10,4.5,10,10
			s-4.5,10-10,10s-10-4.5-10-10S-210.5,349-205,349z"/>
		<path class="st0" d="M-193,383.4h-24c-11,0-20,9-20,20v20h64v-20C-173,392.4-182,383.4-193,383.4z M-183,413.4h-44v-10
			c0-5.5,4.5-10,10-10h24c5.5,0,10,4.5,10,10V413.4z"/>
	</g>
</g>
</svg>
