<?xml version="1.0" encoding="utf-8"?>
<!-- Generator: Adobe Illustrator 19.2.1, SVG Export Plug-In . SVG Version: 6.00 Build 0)  -->
<svg version="1.1" id="Layer_1" xmlns="http://www.w3.org/2000/svg" xmlns:xlink="http://www.w3.org/1999/xlink" x="0px" y="0px"
	 viewBox="-252.5 287.5 218.5 218.5" style="enable-background:new -252.5 287.5 218.5 218.5;" xml:space="preserve">
<style type="text/css">
	.st0{fill:#7E78D4;}
	.st1{fill:none;}
	.st2{fill:#FFFFFF;}
</style>
<circle class="st0" cx="-143.3" cy="396.8" r="109.3"/>
<g>
	<path class="st1" d="M-141.3,412.8c-0.3-0.2-0.5-0.3-0.8-0.4c0,0,0,0,0,0c-0.3-0.1-0.6-0.2-0.8-0.3c-0.1,0-0.2,0-0.3-0.1
		c-0.2-0.1-0.5-0.1-0.7-0.1c-0.1,0-0.2,0-0.3,0c-0.3,0-0.6-0.1-1-0.1s-0.7,0-1,0.1c-0.1,0-0.2,0-0.3,0c-0.2,0-0.5,0.1-0.7,0.1
		c-0.1,0-0.2,0-0.3,0.1c-0.3,0.1-0.6,0.2-0.8,0.3c0,0,0,0,0,0c-0.3,0.1-0.6,0.3-0.8,0.4c-2.4,1.4-4.1,4-4.1,7s1.6,5.6,4.1,7
		c0.3,0.2,0.5,0.3,0.8,0.4c0,0,0,0,0,0c0.3,0.1,0.6,0.2,0.8,0.3c0.1,0,0.2,0,0.3,0.1c0.2,0.1,0.5,0.1,0.7,0.1c0.1,0,0.2,0,0.3,0
		c0.3,0,0.6,0.1,1,0.1s0.7,0,1-0.1c0.1,0,0.2,0,0.3,0c0.2,0,0.5-0.1,0.7-0.1c0.1,0,0.2,0,0.3-0.1c0.3-0.1,0.6-0.2,0.8-0.3
		c0,0,0,0,0,0c0.3-0.1,0.6-0.3,0.8-0.4c2.4-1.4,4.1-4,4.1-7S-138.9,414.2-141.3,412.8z"/>
	<path class="st1" d="M-173.3,372.8c-0.3-0.2-0.5-0.3-0.8-0.4c0,0,0,0,0,0c-0.3-0.1-0.6-0.2-0.8-0.3c-0.1,0-0.2,0-0.3-0.1
		c-0.2-0.1-0.5-0.1-0.7-0.1c-0.1,0-0.2,0-0.3,0c-0.3,0-0.6-0.1-1-0.1s-0.7,0-1,0.1c-0.1,0-0.2,0-0.3,0c-0.2,0-0.5,0.1-0.7,0.1
		c-0.1,0-0.2,0-0.3,0.1c-0.3,0.1-0.6,0.2-0.8,0.3c0,0,0,0,0,0c-0.3,0.1-0.6,0.3-0.8,0.4c-2.4,1.4-4.1,4-4.1,7s1.6,5.6,4.1,7
		c0.3,0.2,0.5,0.3,0.8,0.4c0,0,0,0,0,0c0.3,0.1,0.6,0.2,0.8,0.3c0.1,0,0.2,0,0.3,0.1c0.2,0.1,0.5,0.1,0.7,0.1c0.1,0,0.2,0,0.3,0
		c0.3,0,0.6,0.1,1,0.1s0.7,0,1-0.1c0.1,0,0.2,0,0.3,0c0.2,0,0.5-0.1,0.7-0.1c0.1,0,0.2,0,0.3-0.1c0.3-0.1,0.6-0.2,0.8-0.3
		c0,0,0,0,0,0c0.3-0.1,0.6-0.3,0.8-0.4c2.4-1.4,4.1-4,4.1-7S-170.9,374.2-173.3,372.8z"/>
	<path class="st1" d="M-105.3,388.8c-0.3-0.2-0.5-0.3-0.8-0.4c0,0,0,0,0,0c-0.3-0.1-0.6-0.2-0.8-0.3c-0.1,0-0.2,0-0.3-0.1
		c-0.2-0.1-0.5-0.1-0.7-0.1c-0.1,0-0.2,0-0.3,0c-0.3,0-0.6-0.1-1-0.1s-0.7,0-1,0.1c-0.1,0-0.2,0-0.3,0c-0.2,0-0.5,0.1-0.7,0.1
		c-0.1,0-0.2,0-0.3,0.1c-0.3,0.1-0.6,0.2-0.8,0.3c0,0,0,0,0,0c-0.3,0.1-0.6,0.3-0.8,0.4c-2.4,1.4-4.1,4-4.1,7s1.6,5.6,4.1,7
		c0.3,0.2,0.5,0.3,0.8,0.4c0,0,0,0,0,0c0.3,0.1,0.6,0.2,0.8,0.3c0.1,0,0.2,0,0.3,0.1c0.2,0.1,0.5,0.1,0.7,0.1c0.1,0,0.2,0,0.3,0
		c0.3,0,0.6,0.1,1,0.1s0.7,0,1-0.1c0.1,0,0.2,0,0.3,0c0.2,0,0.5-0.1,0.7-0.1c0.1,0,0.2,0,0.3-0.1c0.3-0.1,0.6-0.2,0.8-0.3
		c0,0,0,0,0,0c0.3-0.1,0.6-0.3,0.8-0.4c2.4-1.4,4.1-4,4.1-7S-102.9,390.2-105.3,388.8z"/>
	<path class="st2" d="M-105.3,380.3v-28.5c0-2.2-1.8-4-4-4s-4,1.8-4,4v28.5c-6.9,1.8-12,8-12,15.5c0,7.5,5.1,13.7,12,15.5v30.5
		c0,2.2,1.8,4,4,4s4-1.8,4-4v-30.5c6.9-1.8,12-8,12-15.5S-98.4,382.1-105.3,380.3z M-105.3,402.7c-0.3,0.2-0.5,0.3-0.8,0.4
		c0,0,0,0,0,0c-0.3,0.1-0.6,0.2-0.8,0.3c-0.1,0-0.2,0-0.3,0.1c-0.2,0.1-0.5,0.1-0.7,0.1c-0.1,0-0.2,0-0.3,0c-0.3,0-0.6,0.1-1,0.1
		s-0.7,0-1-0.1c-0.1,0-0.2,0-0.3,0c-0.2,0-0.5-0.1-0.7-0.1c-0.1,0-0.2,0-0.3-0.1c-0.3-0.1-0.6-0.2-0.8-0.3c0,0,0,0,0,0
		c-0.3-0.1-0.6-0.3-0.8-0.4c-2.4-1.4-4.1-4-4.1-7s1.6-5.6,4.1-7c0.3-0.2,0.5-0.3,0.8-0.4c0,0,0,0,0,0c0.3-0.1,0.6-0.2,0.8-0.3
		c0.1,0,0.2,0,0.3-0.1c0.2-0.1,0.5-0.1,0.7-0.1c0.1,0,0.2,0,0.3,0c0.3,0,0.6-0.1,1-0.1s0.7,0,1,0.1c0.1,0,0.2,0,0.3,0
		c0.2,0,0.5,0.1,0.7,0.1c0.1,0,0.2,0,0.3,0.1c0.3,0.1,0.6,0.2,0.8,0.3c0,0,0,0,0,0c0.3,0.1,0.6,0.3,0.8,0.4c2.4,1.4,4.1,4,4.1,7
		S-102.9,401.4-105.3,402.7z"/>
	<path class="st2" d="M-173.3,364.3v-12.5c0-2.2-1.8-4-4-4s-4,1.8-4,4v12.5c-6.9,1.8-12,8-12,15.5s5.1,13.7,12,15.5v46.5
		c0,2.2,1.8,4,4,4s4-1.8,4-4v-46.5c6.9-1.8,12-8,12-15.5S-166.4,366.1-173.3,364.3z M-173.3,386.7c-0.3,0.2-0.5,0.3-0.8,0.4
		c0,0,0,0,0,0c-0.3,0.1-0.6,0.2-0.8,0.3c-0.1,0-0.2,0-0.3,0.1c-0.2,0.1-0.5,0.1-0.7,0.1c-0.1,0-0.2,0-0.3,0c-0.3,0-0.6,0.1-1,0.1
		s-0.7,0-1-0.1c-0.1,0-0.2,0-0.3,0c-0.2,0-0.5-0.1-0.7-0.1c-0.1,0-0.2,0-0.3-0.1c-0.3-0.1-0.6-0.2-0.8-0.3c0,0,0,0,0,0
		c-0.3-0.1-0.6-0.3-0.8-0.4c-2.4-1.4-4.1-4-4.1-7s1.6-5.6,4.1-7c0.3-0.2,0.5-0.3,0.8-0.4c0,0,0,0,0,0c0.3-0.1,0.6-0.2,0.8-0.3
		c0.1,0,0.2,0,0.3-0.1c0.2-0.1,0.5-0.1,0.7-0.1c0.1,0,0.2,0,0.3,0c0.3,0,0.6-0.1,1-0.1s0.7,0,1,0.1c0.1,0,0.2,0,0.3,0
		c0.2,0,0.5,0.1,0.7,0.1c0.1,0,0.2,0,0.3,0.1c0.3,0.1,0.6,0.2,0.8,0.3c0,0,0,0,0,0c0.3,0.1,0.6,0.3,0.8,0.4c2.4,1.4,4.1,4,4.1,7
		S-170.9,385.4-173.3,386.7z"/>
	<path class="st2" d="M-141.3,404.3v-52.5c0-2.2-1.8-4-4-4s-4,1.8-4,4v52.5c-6.9,1.8-12,8-12,15.5c0,7.5,5.1,13.7,12,15.5v6.5
		c0,2.2,1.8,4,4,4s4-1.8,4-4v-6.5c6.9-1.8,12-8,12-15.5S-134.4,406.1-141.3,404.3z M-141.3,426.7c-0.3,0.2-0.5,0.3-0.8,0.4
		c0,0,0,0,0,0c-0.3,0.1-0.6,0.2-0.8,0.3c-0.1,0-0.2,0-0.3,0.1c-0.2,0.1-0.5,0.1-0.7,0.1c-0.1,0-0.2,0-0.3,0c-0.3,0-0.6,0.1-1,0.1
		s-0.7,0-1-0.1c-0.1,0-0.2,0-0.3,0c-0.2,0-0.5-0.1-0.7-0.1c-0.1,0-0.2,0-0.3-0.1c-0.3-0.1-0.6-0.2-0.8-0.3c0,0,0,0,0,0
		c-0.3-0.1-0.6-0.3-0.8-0.4c-2.4-1.4-4.1-4-4.1-7s1.6-5.6,4.1-7c0.3-0.2,0.5-0.3,0.8-0.4c0,0,0,0,0,0c0.3-0.1,0.6-0.2,0.8-0.3
		c0.1,0,0.2,0,0.3-0.1c0.2-0.1,0.5-0.1,0.7-0.1c0.1,0,0.2,0,0.3,0c0.3,0,0.6-0.1,1-0.1s0.7,0,1,0.1c0.1,0,0.2,0,0.3,0
		c0.2,0,0.5,0.1,0.7,0.1c0.1,0,0.2,0,0.3,0.1c0.3,0.1,0.6,0.2,0.8,0.3c0,0,0,0,0,0c0.3,0.1,0.6,0.3,0.8,0.4c2.4,1.4,4.1,4,4.1,7
		S-138.9,425.4-141.3,426.7z"/>
</g>
</svg>
