<?xml version="1.0" encoding="utf-8"?>
<!-- Generator: Adobe Illustrator 19.2.1, SVG Export Plug-In . SVG Version: 6.00 Build 0)  -->
<svg version="1.1" id="Layer_1" xmlns="http://www.w3.org/2000/svg" xmlns:xlink="http://www.w3.org/1999/xlink" x="0px" y="0px"
	 viewBox="0 0 25 25" style="enable-background:new 0 0 25 25;" xml:space="preserve">
<style type="text/css">
	.st0{fill:#726DCD;}
</style>
<path class="st0" d="M12.8,16.3c-0.3,0-0.6,0.1-0.8,0.3s-0.3,0.5-0.3,0.8c0,0.4,0.1,0.7,0.4,0.9c0.2,0.2,0.5,0.3,0.8,0.3
	c0.3,0,0.6-0.1,0.8-0.3c0.2-0.2,0.4-0.5,0.4-0.9c0-0.3-0.1-0.6-0.3-0.8C13.4,16.4,13.1,16.3,12.8,16.3z"/>
<path class="st0" d="M16.3,8.3C16,7.8,15.6,7.4,15,7.2c-0.6-0.3-1.2-0.4-2-0.4c-0.8,0-1.5,0.2-2.1,0.5C10.2,7.6,9.8,8,9.5,8.5
	C9.1,9,9,9.5,9,10c0,0.2,0.1,0.5,0.3,0.7C9.5,10.9,9.7,11,10,11c0.5,0,0.8-0.3,1-0.9c0.2-0.6,0.4-1,0.7-1.3s0.7-0.4,1.3-0.4
	c0.5,0,0.9,0.1,1.2,0.4c0.3,0.3,0.5,0.6,0.5,1.1c0,0.2-0.1,0.4-0.2,0.6c-0.1,0.2-0.2,0.3-0.4,0.5c-0.1,0.1-0.4,0.4-0.7,0.7
	c-0.4,0.3-0.7,0.6-0.9,0.9S12.1,13,12,13.3c-0.1,0.3-0.2,0.7-0.2,1.1c0,0.3,0.1,0.6,0.3,0.8c0.2,0.2,0.4,0.3,0.7,0.3
	c0.5,0,0.8-0.3,0.9-0.8c0.1-0.3,0.1-0.4,0.1-0.5c0-0.1,0.1-0.2,0.1-0.3c0.1-0.1,0.1-0.2,0.2-0.3c0.1-0.1,0.2-0.3,0.4-0.4
	c0.6-0.6,1.1-1,1.3-1.2c0.2-0.2,0.5-0.5,0.6-0.9c0.2-0.3,0.3-0.7,0.3-1.2C16.8,9.3,16.7,8.8,16.3,8.3z"/>
<path class="st0" d="M12.5,0C5.6,0,0,5.6,0,12.5S5.6,25,12.5,25S25,19.4,25,12.5S19.4,0,12.5,0z M12.5,23.2
	c-5.9,0-10.7-4.8-10.7-10.7S6.6,1.8,12.5,1.8s10.7,4.8,10.7,10.7S18.4,23.2,12.5,23.2z"/>
</svg>
