<?xml version="1.0" encoding="utf-8"?>
<!-- Generator: Adobe Illustrator 19.0.1, SVG Export Plug-In . SVG Version: 6.00 Build 0)  -->
<svg version="1.1" xmlns="http://www.w3.org/2000/svg" xmlns:xlink="http://www.w3.org/1999/xlink" x="0px" y="0px"
	 viewBox="0 0 375 667" style="enable-background:new 0 0 375 667;" xml:space="preserve">
<style type="text/css">
	.st0{fill:#FAC78D;}
	.st1{fill:#EA812C;}
	.st2{fill:#112D46;}
	.st3{fill:#FBBC30;}
	.st4{opacity:0.4;fill:#F6BD59;}
	.st5{opacity:0.1;fill:#112D46;}
	.st6{fill:#418CCB;}
	.st7{clip-path:url(#SVGID_2_);fill:#48B4E7;}
	.st8{fill:#48B4E7;}
	.st9{opacity:0.1;}
	.st10{clip-path:url(#SVGID_4_);fill:#112D46;}
	.st11{fill:#FFFFFF;}
	.st12{opacity:0.3;fill:#A1C9EA;}
	.st13{opacity:0.2;clip-path:url(#SVGID_6_);fill:#FFFFFF;}
	.st14{opacity:0.2;clip-path:url(#SVGID_8_);fill:#FFFFFF;}
	.st15{fill:none;stroke:#112D46;stroke-width:2;stroke-miterlimit:10;}
	.st16{fill:none;stroke:#112D46;stroke-width:3;stroke-miterlimit:10;}
	.st17{opacity:0.2;fill:#112D46;}
	.st18{fill:#E51F40;}
	.st19{fill:none;stroke:#F9E925;stroke-miterlimit:10;}
	.st20{clip-path:url(#SVGID_10_);fill:#112D46;}
	.st21{fill:#102D45;}
	.st22{fill:#102D45;stroke:#112D46;stroke-width:3;stroke-miterlimit:10;}
	.st23{fill:#EA602C;stroke:#FFFFFF;stroke-width:3;stroke-miterlimit:10;}
	.st24{fill:#47B3E7;stroke:#FFFFFF;stroke-width:3;stroke-miterlimit:10;}
	.st25{fill:#E51F40;stroke:#FFFFFF;stroke-width:3;stroke-miterlimit:10;}
	.st26{clip-path:url(#SVGID_12_);fill:#48B4E7;}
	.st27{clip-path:url(#SVGID_14_);fill:#112D46;}
	.st28{clip-path:url(#SVGID_16_);fill:#48B4E7;}
	.st29{opacity:0.1;fill:#FBBC30;}
	.st30{clip-path:url(#SVGID_18_);fill:#112D46;}
	.st31{clip-path:url(#SVGID_20_);fill:#48B4E7;}
	.st32{clip-path:url(#SVGID_22_);fill:#112D46;}
	.st33{fill:#FFFFFF;stroke:#FBBC30;stroke-miterlimit:10;}
	.st34{opacity:0.05;}
	.st35{display:none;}
	.st36{display:inline;}
	.st37{clip-path:url(#SVGID_24_);fill:#48B4E7;}
	.st38{clip-path:url(#SVGID_26_);fill:#112D46;}
	.st39{clip-path:url(#SVGID_28_);fill:#112D46;}
	.st40{fill:#EA602C;}
	.st41{opacity:0.5;fill:#EA602C;}
	.st42{opacity:0.5;clip-path:url(#SVGID_30_);}
	.st43{opacity:0.5;clip-path:url(#SVGID_32_);}
	.st44{opacity:0.5;clip-path:url(#SVGID_34_);}
	.st45{opacity:0.5;clip-path:url(#SVGID_36_);}
	.st46{clip-path:url(#SVGID_38_);fill:#48B4E7;}
	.st47{fill:#169B38;}
	.st48{clip-path:url(#SVGID_40_);fill:#112D46;}
	.st49{fill:#F6A733;}
	.st50{fill:#FBC353;}
	.st51{opacity:0.3;fill:#FBC353;}
	.st52{clip-path:url(#SVGID_42_);fill:#48B4E7;}
	.st53{clip-path:url(#SVGID_44_);fill:#112D46;}
	.st54{clip-path:url(#SVGID_46_);}
	.st55{fill:#EAEEF2;}
	.st56{opacity:0.45;fill:#418CCB;}
</style>
<g id="Layer_1">
</g>
<g id="Layer_2" class="st35">
</g>
<g id="Layer_3">
	<g>
		<g>
			<defs>
				<path id="SVGID_23_" d="M397.8522339,569.0562134c0.2144775,16.2084961-12.7518921,29.5213623-28.9604187,29.7358398l0,0
					c-16.2090759,0.2144165-29.5218811-12.7514038-29.7358093-28.9605103l-0.2270813-17.1477051
					c-0.2139282-16.2080078,12.7524109-29.5213013,28.9604187-29.7357788l0,0
					c16.2079773-0.2133789,29.5218811,12.7518921,29.7363586,28.9604492L397.8522339,569.0562134z"/>
			</defs>
			<clipPath id="SVGID_2_">
				<use xlink:href="#SVGID_23_"  style="overflow:visible;"/>
			</clipPath>
			<path class="st7" d="M407.3400574,610.3759766h-75.6834717v-31.2825928c0,0,15.6916504,3.9354858,37.6399536,3.9354858
				c21.9482727,0,38.0435181-3.9354858,38.0435181-3.9354858V610.3759766z"/>
		</g>
		<g>
			<path class="st0" d="M339.2912598,548.2286377c-0.0071411-2.1159668,1.7024841-3.8381958,3.8190308-3.8459473l0,0
				c2.1165161-0.0076294,3.8381958,1.7019653,3.8453674,3.8179321l0.202301,55.7828979
				c0.0082703,2.1171265-1.7018738,3.8388062-3.8173218,3.8469849l0,0
				c-2.1164856,0.0072021-3.8387451-1.7029419-3.8458862-3.8189087L339.2912598,548.2286377z"/>
			<path class="st3" d="M351.3866272,597.0890503l2.5157471-48.3743286
				c0.2523804-4.8631592-0.5922546-8.5073242-5.4538269-8.7613525c-4.8631897-0.2518311-9.0115662,3.4852295-9.2644958,8.3483887
				l-2.4591064,47.2800293C342.564209,596.3505249,345.5253601,596.5033569,351.3866272,597.0890503z"/>
			<circle class="st0" cx="345.6647644" cy="604.2460938" r="6.1236653"/>
		</g>
		<path class="st3" d="M339.346283,589.4312744h58.36026c0.1220398-1.1514893,0.1853333-2.3200073,0.169342-3.5061035
			l-0.2271118-34.0402832c-0.2138977-16.2085571-13.5278015-29.1738281-29.7357788-28.9605103
			c-16.2084961,0.2144775-29.1749268,13.527832-28.9604492,29.7357788l0.226532,34.0403442
			C339.1911926,587.6221313,339.2511597,588.5322266,339.346283,589.4312744z"/>
		<path class="st0" d="M377.9303589,523.9801636c0,5.0117188-4.0620728,28.7817993-9.0726318,28.7817993l0,0
			c-5.0116882,0-9.0737305-23.7700806-9.0737305-28.7817993v-23.2272949c0-5.0105591,4.0620422-9.0731812,9.0737305-9.0731812l0,0
			c5.0105591,0,9.0726318,4.0626221,9.0726318,9.0731812V523.9801636z"/>
		<g class="st9">
			<path class="st2" d="M377.6746521,523.9081421c-1.2240906-0.9353027-2.1622009-1.8168335-2.5877686-3.3653564
				c-0.2683716-0.9979858-0.2683716-1.9954834,0-2.9935913c0.5690918-2.0686646,2.1830139-3.4466553,4.14505-3.9382324
				c0.7615662-2.103363,0.6147766-4.47229,0.7555237-6.6679688c0.1149292-1.8053284,0.4580994-3.4714355,0.9039917-5.1365356
				c-0.580658-0.5652771-1.197052-1.0931702-1.854187-1.5693665c0.2760315-0.9293213,0.4266968-1.9130554,0.4266968-2.931427
				c0-3.8520203-2.1220398-7.2041321-5.2580261-8.9643555c-1.07724,0.7511597-2.1302795,1.5402832-3.1568909,2.3601379
				c0.061554,1.1306152-0.1424561,2.2946777-0.5922546,3.314209c-1.6573792,3.75354-4.8406982,6.5882263-6.3127136,10.5424194
				c-0.828125,2.2238159-1.602356,4.5046997-1.9906006,6.8527832c-0.1699524,1.0255432-0.2051392,2.049408-0.2309875,3.0870667
				c-0.0137329,0.5388794,0.030304,0.8754272,0.067688,1.0530396c1.3801575,2.6004028,0.8330688,6.0614624-1.9999695,7.6065674
				c-0.0175781,0.0099487-0.0385132,0.0192871-0.0566406,0.0286255c-0.2408447,0.1885986-0.4976807,0.3695068-0.7879944,0.5344849
				c-0.807251,0.4580688-1.5501099,0.9854126-2.3293152,1.489624c3.0705566,3.3405762,7.4751892,5.4351196,12.369751,5.4351196
				c4.5849304,0,8.734436-1.8442993,11.7654114-4.8230591c-0.255127-0.1506958-0.5075684-0.3095703-0.7539062-0.484436
				C379.3001099,524.9557495,378.4367981,524.4904785,377.6746521,523.9081421z"/>
		</g>
		<g>
			<g>
				<path class="st0" d="M379.1312866,498.0787659c0.2760315-0.9293213,0.4267273-1.9130859,0.4267273-2.931427
					c0-5.6765137-4.6015015-10.2780151-10.2779541-10.2780151c-5.6759644,0-10.2774658,4.6015015-10.2774658,10.2780151
					c0,1.0183411,0.1506958,2.0021057,0.4266968,2.931427c-4.2098999,3.053009-6.9489136,8.0108032-6.9489136,13.6086731
					c0,9.2788086,7.5219116,16.8001709,16.7996826,16.8001709c9.2782288,0,16.8001709-7.5213623,16.8001709-16.8001709
					C386.0802307,506.0895691,383.341217,501.1317749,379.1312866,498.0787659z"/>
			</g>
			<g>
				<defs>
					<path id="SVGID_25_" d="M379.1312866,498.0787659c0.2760315-0.9293213,0.4267273-1.9130859,0.4267273-2.931427
						c0-5.6765137-4.6015015-10.2780151-10.2779541-10.2780151c-5.6759644,0-10.2774658,4.6015015-10.2774658,10.2780151
						c0,1.0183411,0.1506958,2.0021057,0.4266968,2.931427c-4.2098999,3.053009-6.9489136,8.0108032-6.9489136,13.6086731
						c0,9.2788086,7.5219116,16.8001709,16.7996826,16.8001709c9.2782288,0,16.8001709-7.5213623,16.8001709-16.8001709
						C386.0802307,506.0895691,383.341217,501.1317749,379.1312866,498.0787659z"/>
				</defs>
				<clipPath id="SVGID_4_">
					<use xlink:href="#SVGID_25_"  style="overflow:visible;"/>
				</clipPath>
				<path class="st10" d="M383.7657166,500.5026855c-0.0472412-1.9768372-0.6598206-3.8360291-1.5281067-5.6006165
					c-0.1918945-0.3893127-0.2908936-0.8061218-0.2859192-1.2102966c-0.4146729-0.7374268-0.8429871-1.4676819-1.2708435-2.1979065
					c-1.1129456-1.1382751-2.1643372-2.3755493-2.65979-3.8624268c-1.0788574-0.7302856-2.3298645-1.2763062-3.7843323-1.5468445
					c0,0-0.1787109,8.5073242,7.9205933,11.4756165l1.8262024,3.8657227
					C383.8537292,501.1642151,383.7745667,500.8573608,383.7657166,500.5026855z"/>
				<path class="st10" d="M358.6655273,491.306366c-0.2920227-0.0363159-0.4613953-0.1314392-0.4613953-0.1314392
					l1.6474915-4.0191345l6.8522034-3.7552185l5.2706604,1.1195984l2.7010498,1.7789001
					C374.6755371,486.2990723,370.2609863,492.7558594,358.6655273,491.306366z"/>
				<path class="st10" d="M358.4246521,499.8087463c1.1338806-1.1185303,2.1610718-1.8548279,2.500885-2.2067566
					c0,0-0.9611816-1.5484619-0.7736816-4.0823669c0.1875-2.5338745,1.3136902-4.5046997,1.3136902-4.5046997l-2.4398499-1.3136597
					l-3.0029602,8.3522644l-1.165741,1.5056152C356.0062561,498.351532,357.2198792,499.0834351,358.4246521,499.8087463z"/>
			</g>
			<circle class="st2" cx="365.6694641" cy="496.3197021" r="0.8567076"/>
			<circle class="st2" cx="372.5219116" cy="496.3197021" r="0.8564542"/>
			<path class="st11" d="M367.7189026,500.6748352c0.0340576,0.5872192,0.5201721,1.0535889,1.1168213,1.0535889
				c0.5960693,0,1.0821838-0.4663696,1.1162415-1.0535889H367.7189026z"/>
		</g>
	</g>
	<g>
		<rect x="3.6077051" y="592.1972046" class="st0" width="7.2926426" height="47.7358627"/>
		<rect x="10.6231966" y="597.828064" class="st0" width="7.2926426" height="33.0956192"/>
		<rect x="-12.0113506" y="573.4074707" class="st8" width="44.4838142" height="42.9820633"/>
		<path class="st8" d="M34.1617241,571.3421631c0,12.7507935-10.3356743,23.0865479-23.0865383,23.0865479l0,0
			c-12.7502432,0-23.0865364-10.3357544-23.0865364-23.0865479v-22.5229492
			c0-12.7507935,10.3362932-23.0865479,23.0865364-23.0865479l0,0c12.750864,0,23.0865383,10.3357544,23.0865383,23.0865479
			V571.3421631z"/>
		<circle class="st19" cx="-2.2045746" cy="506.4233093" r="5.7716341"/>
		<circle class="st19" cx="25.9497395" cy="506.4233093" r="5.7716341"/>
		<path class="st0" d="M20.1258411,526.4436646c0,5.0117188-4.062048,9.0737305-9.0726156,9.0737305l0,0
			c-5.0116925,0-9.073741-4.0620117-9.073741-9.0737305v-23.2272949c0-5.0105591,4.062048-9.0731812,9.073741-9.0731812l0,0
			c5.0105677,0,9.0726156,4.0626221,9.0726156,9.0731812V526.4436646z"/>
		<g>
			<path class="st0" d="M34.2101479,550.2566528c0.009346-2.1159668-1.6991692-3.8399048-3.815134-3.8492432l0,0
				c-2.1159668-0.0093384-3.8387852,1.6986084-3.8486958,3.8151245l-0.2463398,55.7824097
				c-0.0093575,2.1170654,1.698597,3.8404541,3.8145618,3.8497925l0,0c2.1165276,0.0098267,3.8404732-1.6992188,3.8486938-3.8151855
				L34.2101479,550.2566528z"/>
			<circle class="st0" cx="27.7929363" cy="606.2688599" r="6.1236634"/>
		</g>
		<g class="st9">
			<path class="st2" d="M19.870142,526.3716431c-1.2240353-0.9353027-2.1621933-1.8168335-2.5877743-3.3653564
				c-0.2683678-0.9979858-0.2683678-1.9954834,0-2.9935913c0.5691109-2.0686646,2.1830292-3.4466553,4.1450462-3.9382324
				c0.761631-2.1033936,0.6147785-4.47229,0.7555485-6.6679688c0.1149273-1.8053284,0.4580822-3.4714355,0.9040451-5.1365356
				c-0.5807209-0.5652771-1.1971207-1.0931702-1.8542423-1.5693665c0.2760143-0.9293213,0.4266968-1.9130554,0.4266968-2.931427
				c0-3.8520203-2.1219902-7.2041321-5.2580433-8.9643555c-1.07724,0.7511597-2.1302681,1.5402832-3.1568861,2.3601379
				c0.0616016,1.1306152-0.1424046,2.2946777-0.5922546,3.314209c-1.6573315,3.75354-4.8406739,6.5882263-6.3127036,10.54245
				c-0.8281307,2.2237854-1.6023746,4.5046692-1.9906225,6.8527222c-0.1698833,1.0255737-0.2050762,2.0494385-0.2309217,3.0870972
				c-0.0137391,0.5388794,0.0302377,0.8754272,0.067627,1.0530396c1.3802366,2.6004028,0.833086,6.0614624-1.99997,7.6066284
				c-0.0175683,0.0098877-0.0384588,0.0192261-0.0565903,0.0285645c-0.2408882,0.1885986-0.4976555,0.3695068-0.7880391,0.5344849
				c-0.8072405,0.4580688-1.5501201,0.9854126-2.329319,1.489624c3.0705657,3.3405762,7.4751954,5.4351196,12.3697662,5.4351196
				c4.5849857,0,8.7344255-1.8442993,11.7654066-4.8230591c-0.2551346-0.1506958-0.5075111-0.3095703-0.7538605-0.484436
				C21.4956036,527.4192505,20.6322803,526.9539795,19.870142,526.3716431z"/>
		</g>
		<g>
			<g>
				<path class="st0" d="M21.3268013,500.5422668c0.2760143-0.9293213,0.4266968-1.9130859,0.4266968-2.931427
					c0-5.6765137-4.6014843-10.2780151-10.2779579-10.2780151c-5.6759653,0-10.2774506,4.6015015-10.2774506,10.2780151
					c0,1.0183411,0.1506819,2.0021057,0.4267068,2.931427c-4.2099142,3.053009-6.948935,8.0108032-6.948935,13.6086731
					c0,9.2788086,7.5219316,16.8001709,16.7996788,16.8001709c9.2782536,0,16.8001862-7.5213623,16.8001862-16.8001709
					C28.2757263,508.5530701,25.5367622,503.5952759,21.3268013,500.5422668z"/>
			</g>
			<g>
				<defs>
					<path id="SVGID_27_" d="M21.3268013,500.5422668c0.2760143-0.9293213,0.4266968-1.9130859,0.4266968-2.931427
						c0-5.6765137-4.6014843-10.2780151-10.2779579-10.2780151c-5.6759653,0-10.2774506,4.6015015-10.2774506,10.2780151
						c0,1.0183411,0.1506819,2.0021057,0.4267068,2.931427c-4.2099142,3.053009-6.948935,8.0108032-6.948935,13.6086731
						c0,9.2788086,7.5219316,16.8001709,16.7996788,16.8001709c9.2782536,0,16.8001862-7.5213623,16.8001862-16.8001709
						C28.2757263,508.5530701,25.5367622,503.5952759,21.3268013,500.5422668z"/>
				</defs>
				<clipPath id="SVGID_6_">
					<use xlink:href="#SVGID_27_"  style="overflow:visible;"/>
				</clipPath>
				<path style="clip-path:url(#SVGID_6_);fill:#112D46;" d="M27.1809177,503.9983215
					c-0.0473003-1.9763184-0.6598816-3.8360291-1.5281601-5.6000671c-0.1919003-0.3893127-0.2908802-0.8061523-0.2859364-1.2108459
					c-0.4146004-0.7368469-0.8429966-1.4671326-1.2707634-2.1973267c-1.1130047-1.1382751-2.1644001-2.3755493-2.6598587-3.8624573
					c-1.0788746-0.7302551-2.3298836-1.2768555-3.7843342-1.5473938c0,0-0.1786671,8.5078735,7.9206066,11.4761963
					l1.8261909,3.8656921C27.2688713,504.6604004,27.1897011,504.3535767,27.1809177,503.9983215z"/>
				<polygon style="clip-path:url(#SVGID_6_);fill:#112D46;" points="1.5495214,493.0731506 10.1833229,493.0731506 
					11.2627592,489.4136047 12.435668,492.932373 24.214241,492.932373 18.2545357,485.0964355 6.4297242,485.330719 
					1.7842629,490.3984985 				"/>
				<path style="clip-path:url(#SVGID_6_);fill:#112D46;" d="M-4.3722405,502.8727112
					c0.0472426-1.9768677,0.6598244-3.8360291,1.5275402-5.6006165c0.192472-0.3893127,0.2914534-0.8061829,0.2859914-1.2102966
					c0.4146006-0.7374268,0.8435032-1.4676819,1.2713362-2.1979065c1.1129401-1.1382751,2.1643348-2.3755493,2.6592312-3.8624268
					c1.0788733-0.7302551,2.3304453-1.2763062,3.7843337-1.5468445c0,0,0.1792865,8.5073242-7.9205966,11.475647
					l-1.8256383,3.8656921C-4.4602513,503.5342407-4.3810811,503.227417-4.3722405,502.8727112z"/>
			</g>
			<circle class="st2" cx="7.864975" cy="498.7832031" r="0.8567358"/>
			<circle class="st2" cx="14.7173967" cy="498.7832031" r="0.8564542"/>
			<path class="st11" d="M9.773612,503.6519165c0.0533247,0.9204712,0.8155184,1.6507568,1.7502975,1.6507568
				c0.934845,0,1.6964102-0.7302856,1.7497339-1.6507568H9.773612z"/>
			<g>
				<g>
					<path class="st21" d="M11.3644438,498.7810059c0,2.9424438-2.3854027,5.3294983-5.3294992,5.3294983
						c-2.9408305,0-5.3289919-2.3870544-5.3289919-5.3294983c0-2.9430237,2.3881614-4.7664795,5.3289919-4.7664795
						C8.9790411,494.0145264,11.3644438,495.8379822,11.3644438,498.7810059z"/>
					<path class="st21" d="M22.2610626,498.7342529c0,2.9424744-2.3859653,5.3294983-5.3295536,5.3294983
						c-2.9413376,0-5.3278666-2.3870239-5.3278666-5.3294983c0-2.9424438,2.386529-4.7658997,5.3278666-4.7658997
						C19.8750973,493.9683533,22.2610626,495.7918091,22.2610626,498.7342529z"/>
					<line class="st22" x1="9.7329569" y1="497.4161377" x2="12.284977" y2="497.4161377"/>
				</g>
			</g>
		</g>
		<ellipse class="st2" cx="11.1335316" cy="477.5299377" rx="5.0325837" ry="10.8746033"/>
	</g>
	<rect x="-42.1628189" y="637.4415283" class="st9" width="184.2914276" height="37.6799889"/>
	<rect x="-42.1628189" y="633.499939" class="st2" width="184.3854065" height="7.8364153"/>
	<g>
		<g>
			<g>
				<path class="st2" d="M99.377449,545.6379395c5.1610718,0,9.3598633,4.1987915,9.3598633,9.3598633v2.871521
					c0,5.1610107-4.1987915,9.3598022-9.3598633,9.3598022h-9.3338013c-5.1607056,0-9.3592224-4.1987915-9.3592224-9.3598022
					v-2.871521c0-5.1610718,4.1985168-9.3598633,9.3592224-9.3598633H99.377449 M99.377449,540.6379395h-9.3338013
					c-7.9305115,0-14.3592224,6.428772-14.3592224,14.3598633v2.871521c0,7.9310303,6.4287109,14.3598022,14.3592224,14.3598022
					h9.3338013c7.930542,0,14.3598633-6.428772,14.3598633-14.3598022v-2.871521
					C113.7373123,547.0667114,107.307991,540.6379395,99.377449,540.6379395L99.377449,540.6379395z"/>
			</g>
			<path class="st40" d="M127.0187531,626.4140625V569.477417c0-7.9304199-6.4287491-14.3591919-14.3592606-14.3591919H75.8037567
				c-7.931076,0-14.3598289,6.428772-14.3598289,14.3591919v56.9366455H127.0187531z"/>
			<path class="st40" d="M136.0522919,633.7875366c0,4.1763916-3.3856659,7.5620728-7.5615082,7.5620728h-69.52742
				c-4.1758461,0-7.5615158-3.3856812-7.5615158-7.5620728l0,0c0-4.1758423,3.3856697-7.5615234,7.5615158-7.5615234h69.52742
				C132.666626,626.2260132,136.0522919,629.6116943,136.0522919,633.7875366L136.0522919,633.7875366z"/>
			<rect x="61.4444885" y="621.6745605" class="st41" width="65.5742645" height="4.7394972"/>
		</g>
		<g>
			<defs>
				<path id="SVGID_29_" d="M127.0187531,626.4140625V569.477417c0-7.9304199-6.4287491-14.3591919-14.3592606-14.3591919
					H75.8037567c-7.931076,0-14.3598289,6.428772-14.3598289,14.3591919v56.9366455H127.0187531z"/>
			</defs>
			<clipPath id="SVGID_8_">
				<use xlink:href="#SVGID_29_"  style="overflow:visible;"/>
			</clipPath>
			<g style="opacity:0.5;clip-path:url(#SVGID_8_);">
				<g>
					<path class="st40" d="M59.3504982,579.8261719c1.1850433-3.3546753,2.998127-7.7114868,6.8956871-3.4278564
						c1.4272385,1.5686035,2.337944,3.937439,3.5260086,5.7098999c1.7475204,2.6071167,3.7707977,5.6137085,6.9148865,6.6433716
						c3.172287,1.0389404,6.561142-0.1512451,9.0810928-2.1223755c3.0904694-2.4174194,5.8213043-10.5723877,10.0920563-6.0570068
						c2.0614166,2.1794434,4.9334717,5.2684937,8.2446442,5.2069092c3.5736313-0.0664062,5.5487061-3.5264282,8.1400909-5.3868408
						c4.8274765-3.4658813,8.0171204,0.1381226,12.9822388,0.5280151c1.3516617,0.1061401,2.6688309-0.0621338,3.9232635-0.5854492
						c1.4979706-0.624939,1.8392792-1.2700195,3.5150909-1.4577026c1.5666504-0.175354,2.3265228,0.2929688,3.8494415,0.5835571
						c3.1443481,0.5999756,4.4913635-4.2180176,1.3291931-4.8214111c-1.8736572-0.3574829-3.6265106-1.5125122-5.5915985-1.3562622
						c-1.9082794,0.1517944-2.8736115,1.5413818-4.5281448,2.1625977
						c-4.4630814,1.6757202-9.0731964-2.8375244-13.9518814-1.4528198
						c-1.7734375,0.5032959-3.4159317,1.4723511-4.8512115,2.6078491c-2.7458649,2.1723022-4.1468811,4.5045776-7.7581253,2.2582397
						c-3.1532135-1.9614868-4.283493-6.2053833-8.7625275-5.5942993c-4.1514359,0.5663452-5.952301,5.2140503-8.2974243,7.984436
						c-6.4079361,7.5698242-11.3054352-4.2075195-14.30616-8.6516724
						c-5.7638626-8.536377-12.8465614-0.9552002-15.2680168,5.8995972
						C53.4552727,581.5368042,58.2842751,582.8444824,59.3504982,579.8261719L59.3504982,579.8261719z"/>
				</g>
			</g>
			<g style="opacity:0.5;clip-path:url(#SVGID_8_);">
				<g>
					<path class="st40" d="M61.9453125,559.1097412c6.6578293-6.1445923,11.2557678,8.2400513,15.1501999,11.7056885
						c4.7902451,4.2627563,10.0618973,3.3037109,14.7655182-0.423584c1.3693771-1.085083,2.6555786-2.4634399,4.2081146-3.2895508
						c3.5741043-1.9017334,5.70298-0.4309082,9.0196762,0.8998413c3.0618591,1.2284546,5.6357193,1.3765259,8.7252197,0.230896
						c1.868454-0.6928101,3.4409409-1.4989014,5.4875641-1.6340332c2.1715469-0.1434326,4.3062744,0.5108032,6.4754868,0.5631104
						c3.8420639,0.0925903,7.122261-1.5862427,10.9801865-1.2669678c3.2067719,0.2653809,3.1892242-4.736084,0-5
						c-4.3081207-0.3565063-8.0511932,1.4481201-12.2931519,1.1444092
						c-3.8875961-0.2782593-6.9430618-0.6187744-10.6551437,0.8331909
						c-3.3837738,1.3236084-5.6062241,0.9389038-8.9444275-0.4335327c-1.3506927-0.5552979-2.6833878-1.0881348-4.1447983-1.2625122
						c-3.5381546-0.4223022-6.4654999,0.9506836-9.2142334,3.0697632c-1.6751328,1.2913818-3.2533722,3.0870972-5.2236176,3.9110107
						c-2.9384689,1.2288208-5.3343201-0.2874756-7.20858-2.5770874c-2.1480484-2.6240234-3.4477005-5.8023071-5.499939-8.4918823
						c-3.9860992-5.2241211-10.2068977-6.0889282-15.1636086-1.5142822
						C56.0400162,557.7612915,59.5826073,561.2902832,61.9453125,559.1097412L61.9453125,559.1097412z"/>
				</g>
			</g>
			<g style="opacity:0.5;clip-path:url(#SVGID_8_);">
				<g>
					<path class="st40" d="M60.3358994,607.2766113c1.2311897-4.9697876,3.4454422-12.1376953,9.90271-11.4536743
						c4.6689301,0.4946289,7.7065887,6.3831787,11.2846603,9.0471802
						c5.3908997,4.0137939,12.1250992,3.5584106,16.0525208-2.1966553c2.4356689-3.5690308,3.1437683-8.9877319,8.7975693-7.0649414
						c3.5055389,1.1922607,5.9412079,4.0554199,9.9360809,3.795166c1.823288-0.1187744,3.2664642-0.9174805,4.7472229-1.9205933
						c2.4609222-1.6671753,4.3467026-2.2391357,7.2594681-1.2410889c1.3525848,0.463501,2.1610565,1.2946167,3.7056732,1.2821045
						c2.9671478-0.0241089,4.4006653-1.9753418,7.7309265-1.4523926c3.1478729,0.4943237,4.5037689-4.322876,1.3292084-4.8214111
						c-1.9288177-0.3028564-3.8691559-0.6184082-5.8031006-0.1187744c-2.9976501,0.7745361-4.0491333,0.642334-7.0785828-0.4385986
						c-4.0517654-1.4458008-5.7527695,0.3952637-9.1641083,2.079895c-2.6041107,1.2859497-4.5801773,1.3878784-7.3745956,0.121582
						c-0.9588776-0.4345093-1.8208542-1.1272583-2.764595-1.6032104c-1.755867-0.8855591-3.6462936-1.565979-5.6433105-1.3970947
						c-3.5418091,0.2994385-5.7528305,2.7961426-7.4675522,5.6793823c-1.0838699,1.8224487-1.7757263,3.989624-3.38414,5.4313354
						c-3.295372,2.9539185-6.7445984,1.0584106-9.5367508-1.5597534c-3.3091202-3.1029053-6.2035828-7.5981445-10.8908463-8.7240601
						c-9.4926834-2.2800903-14.6404076,7.8820801-16.4598541,15.2263794
						C54.7407455,609.0707397,59.5613213,610.4032593,60.3358994,607.2766113L60.3358994,607.2766113z"/>
				</g>
			</g>
			<g style="opacity:0.5;clip-path:url(#SVGID_8_);">
				<g>
					<path class="st40" d="M61.0692787,616.1896362c-1.3473892-2.9961548,9.4054222-2.5119019,10.1343727-2.3746338
						c3.4930344,0.6577148,6.8505478,1.8986206,10.3620987,2.4805298
						c7.4180756,1.2293091,12.0384369-2.4395142,18.9282227-3.9175415c4.0924835-0.8779297,7.4810333,1.0039062,11.385994,1.7125244
						c2.8697281,0.5206909,5.2418976,0.1694946,7.9625168-0.829895c3.2684097-1.2006226,3.9204483-1.6356812,7.4204636-0.3032837
						c1.1551132,0.4397583,2.1328659,0.9473877,3.4012222,1.036377c0.9569855,0.0671387,1.6703949-0.2025146,2.60495-0.2903442
						c1.8310394-0.1721191,3.5543518-0.1720581,5.4589539-0.0866699c3.2170105,0.1442871,3.2098999-4.8560791,0-5
						c-1.4398041-0.0645752-2.7222748-0.6359253-4.1838837-0.4737549c-1.0730286,0.1190186-2.1621246,0.8480835-3.241806,0.7918091
						c-1.2162323-0.0634155-2.0774536-0.706543-3.2273712-1.1455078c-3.2609482-1.2446899-5.9379349-0.8283081-9.1331406,0.4491577
						c-5.3821564,2.1518555-9.3093643-0.6206055-14.642868-1.0870972c-4.1557541-0.3634644-7.7592697,1.2540894-11.5327148,2.767334
						c-5.2610092,2.1097412-9.6531067,1.7513428-15.0809479,0.3552246
						c-3.8532181-0.9910889-7.7364578-2.1307983-11.7532654-1.7363892
						c-4.8646851,0.4776001-11.7445335,4.4733887-9.1801491,10.1757202
						C58.0694504,621.6430054,62.3796082,619.1033936,61.0692787,616.1896362L61.0692787,616.1896362z"/>
				</g>
			</g>
		</g>
	</g>
	<g>
		<g>
			<g>
				<path class="st2" d="M12.0991011,545.8254395c5.1610403,0,9.3598318,4.1988525,9.3598318,9.3598633v2.871521
					c0,5.1610107-4.1987915,9.3598022-9.3598318,9.3598022H2.7652688c-5.160675,0-9.3591919-4.1987915-9.3591919-9.3598022
					v-2.871521c0-5.1610107,4.1985168-9.3598633,9.3591919-9.3598633H12.0991011 M12.0991011,540.8254395H2.7652688
					c-7.9305115,0-14.3591919,6.428772-14.3591919,14.3598633v2.871521c0,7.9310913,6.4286799,14.3598022,14.3591919,14.3598022
					h9.3338318c7.9305105,0,14.3598318-6.4287109,14.3598318-14.3598022v-2.871521
					C26.4589329,547.2542114,20.0296116,540.8254395,12.0991011,540.8254395L12.0991011,540.8254395z"/>
			</g>
			<path class="st40" d="M39.740387,626.6015625V569.664917c0-7.9304199-6.4287567-14.3591919-14.3592625-14.3591919H-11.474617
				c-7.9310703,0-14.3598251,6.428772-14.3598251,14.3591919v56.9366455H39.740387z"/>
			<path class="st40" d="M48.773922,633.9750366c0,4.1763916-3.3856659,7.5620728-7.5615158,7.5620728h-69.5274124
				c-4.1758461,0-7.5615158-3.3856812-7.5615158-7.5620728l0,0c0-4.1758423,3.3856697-7.5615234,7.5615158-7.5615234h69.5274124
				C45.3882561,626.4135132,48.773922,629.7991943,48.773922,633.9750366L48.773922,633.9750366z"/>
			<rect x="-25.8338795" y="621.8620605" class="st41" width="65.5742645" height="4.7394972"/>
		</g>
		<g>
			<defs>
				<path id="SVGID_31_" d="M39.740387,626.6015625V569.664917c0-7.9304199-6.4287567-14.3591919-14.3592625-14.3591919H-11.474617
					c-7.9310703,0-14.3598251,6.428772-14.3598251,14.3591919v56.9366455H39.740387z"/>
			</defs>
			<clipPath id="SVGID_10_">
				<use xlink:href="#SVGID_31_"  style="overflow:visible;"/>
			</clipPath>
			<g style="opacity:0.5;clip-path:url(#SVGID_10_);">
				<g>
					<path class="st40" d="M-27.9278717,580.0136719c1.1850433-3.3546753,2.9981251-7.7114868,6.8956871-3.4278564
						c1.4272385,1.5686646,2.3379478,3.937439,3.5260105,5.7098999c1.7475224,2.6071167,3.7707996,5.6137085,6.9148827,6.6433716
						c3.1722875,1.0389404,6.5611429-0.1512451,9.0810986-2.1223755c3.0904682-2.4174194,5.8213015-10.5723877,10.0920525-6.0570068
						c2.0614176,2.1794434,4.9334726,5.2684937,8.2446442,5.2069092c3.5736332-0.0664062,5.548708-3.5263672,8.1400871-5.3868408
						c4.8274822-3.4658813,8.0171242,0.1381226,12.9822464,0.5280151c1.3516617,0.1062012,2.6688309-0.0621338,3.9232597-0.5854492
						c1.4979668-0.624939,1.8392792-1.2700195,3.5150986-1.4576416c1.5666351-0.175415,2.3265114,0.2929077,3.8494263,0.5834961
						c3.144352,0.5999756,4.4913712-4.2180176,1.3292007-4.8214111c-1.873661-0.3574829-3.626503-1.5125122-5.5916061-1.3562622
						c-1.9082794,0.1517944-2.8736076,1.5413818-4.5281372,2.1625977
						c-4.4630814,1.6757202-9.0731983-2.8375244-13.9518852-1.4528198
						c-1.7734356,0.5033569-3.4159298,1.4723511-4.8512096,2.6078491c-2.745863,2.1723022-4.1468811,4.5046387-7.7581253,2.2582397
						c-3.1532106-1.9614868-4.2834892-6.2053223-8.7625246-5.5942993c-4.1514382,0.5663452-5.9523005,5.2140503-8.2974262,7.984436
						c-6.4079366,7.5698242-11.3054352-4.2075195-14.3061619-8.6516724
						c-5.763855-8.536377-12.8465557-0.9551392-15.268013,5.8995972
						C-33.8230972,581.7243042-28.9940948,583.0319824-27.9278717,580.0136719L-27.9278717,580.0136719z"/>
				</g>
			</g>
			<g style="opacity:0.5;clip-path:url(#SVGID_10_);">
				<g>
					<path class="st40" d="M-25.3330555,559.2972412c6.6578255-6.1445923,11.2557678,8.2400513,15.1502008,11.7056885
						c4.7902417,4.2627563,10.0618982,3.3037109,14.7655153-0.4235229c1.3693748-1.085144,2.6555829-2.463501,4.2081184-3.2896118
						c3.5741005-1.9017334,5.7029791-0.4309082,9.0196724,0.8998413c3.0618553,1.2284546,5.6357155,1.3765869,8.7252235,0.230896
						c1.8684483-0.6928101,3.4409332-1.4988403,5.4875603-1.6340332c2.1715469-0.1433716,4.3062744,0.5108032,6.4754906,0.5631104
						c3.8420601,0.0925903,7.122261-1.5862427,10.9801826-1.2669678c3.206768,0.2653809,3.1892319-4.736084,0-5
						c-4.3081169-0.3565063-8.0511971,1.4481201-12.2931519,1.1444092
						c-3.8875923-0.2782593-6.9430618-0.6187744-10.6551476,0.8331909
						c-3.3837662,1.3236084-5.6062222,0.9389038-8.9444218-0.4335327c-1.3506927-0.5552979-2.6833916-1.0880737-4.1448002-1.2625122
						c-3.5381546-0.4223022-6.4655004,0.9506836-9.2142315,3.0697632c-1.6751359,1.2913818-3.2533736,3.0870972-5.2236214,3.9110107
						c-2.9384632,1.2288208-5.3343191-0.2874756-7.2085762-2.5770874c-2.1480513-2.6240234-3.4476995-5.8023071-5.4999409-8.4918823
						c-3.9860973-5.2240601-10.2068977-6.0889282-15.1636066-1.5142822
						C-31.2383537,557.9487915-27.6957607,561.4777832-25.3330555,559.2972412L-25.3330555,559.2972412z"/>
				</g>
			</g>
			<g style="opacity:0.5;clip-path:url(#SVGID_10_);">
				<g>
					<path class="st40" d="M-26.9424706,607.4641113c1.2311916-4.9697876,3.4454422-12.1376953,9.9027081-11.4536133
						c4.6689281,0.4945679,7.7065916,6.3831177,11.2846642,9.0471802
						c5.3908997,4.0137329,12.1250954,3.5583496,16.0525227-2.1966553c2.4356651-3.5690918,3.1437654-8.987793,8.7975674-7.0649414
						c3.5055351,1.1921997,5.941206,4.0553589,9.9360809,3.795105c1.8232841-0.1187744,3.2664623-0.9174805,4.747221-1.9205933
						c2.4609222-1.6671753,4.3467064-2.2391357,7.2594681-1.2410889c1.3525887,0.463501,2.1610603,1.2946167,3.7056694,1.2821045
						c2.9671555-0.0240479,4.4006691-1.9752808,7.730938-1.4523926c3.1478653,0.4943237,4.5037537-4.322876,1.3291969-4.8213501
						c-1.9288177-0.3029175-3.8691483-0.6184692-5.803093-0.1187744c-2.9976616,0.7744751-4.0491333,0.642334-7.0785828-0.4386597
						c-4.0517654-1.4457397-5.7527733,0.3952637-9.1641102,2.079895c-2.6041088,1.2860107-4.5801792,1.3878784-7.3745956,0.121582
						c-0.9588814-0.4345093-1.8208523-1.1271973-2.7645969-1.6032104c-1.755867-0.8855591-3.6462917-1.565979-5.6433125-1.3970947
						c-3.54181,0.2994385-5.7528315,2.7961426-7.4675484,5.6793823c-1.0838704,1.8225098-1.7757277,3.989624-3.384141,5.4313354
						c-3.2953711,2.9539185-6.7445974,1.0584106-9.5367489-1.5597534c-3.3091187-3.1029053-6.2035823-7.5981445-10.8908443-8.723999
						c-9.4926891-2.2801514-14.6404114,7.882019-16.4598579,15.2263794
						C-32.5376244,609.2582397-27.7170467,610.5907593-26.9424706,607.4641113L-26.9424706,607.4641113z"/>
				</g>
			</g>
			<g style="opacity:0.5;clip-path:url(#SVGID_10_);">
				<g>
					<path class="st40" d="M-26.2090912,616.3771362c-1.3473911-2.9961548,9.4054203-2.5119019,10.1343727-2.3746338
						c3.4930382,0.6577148,6.8505516,1.8986816,10.3620977,2.4805908c7.4180741,1.229248,12.0384398-2.4395142,18.9282265-3.9176025
						c4.0924768-0.8779297,7.4810324,1.0039062,11.385993,1.7125244c2.8697281,0.520752,5.2418938,0.1694946,7.9625187-0.829895
						c3.2684021-1.2006226,3.9204483-1.6356812,7.4204636-0.3032837c1.1551132,0.4397583,2.1328545,0.9473877,3.4012222,1.036377
						c0.9569817,0.0671387,1.6703911-0.2025146,2.6049423-0.2903442c1.8310509-0.1721191,3.5543518-0.1720581,5.4589653-0.0866699
						c3.2170067,0.1442871,3.2098961-4.8560181,0-5c-1.4398041-0.0645752-2.72229-0.6359253-4.1838913-0.4737549
						c-1.0730247,0.1190186-2.1621284,0.8480835-3.2418098,0.7918091c-1.2162209-0.0633545-2.0774498-0.706543-3.2273636-1.1455078
						c-3.2609482-1.2446899-5.9379349-0.8283081-9.1331463,0.4491577
						c-5.3821507,2.1518555-9.3093643-0.6206055-14.6428661-1.0870972c-4.155755-0.3634644-7.7592726,1.2540894-11.5327158,2.767334
						c-5.2610092,2.1097412-9.6531067,1.7513428-15.080946,0.3552246
						c-3.8532181-0.9910889-7.7364626-2.1307983-11.7532644-1.7363892
						c-4.864687,0.4776611-11.7445354,4.4733887-9.180151,10.1757812
						C-29.2089195,621.8305054-24.8987617,619.2908936-26.2090912,616.3771362L-26.2090912,616.3771362z"/>
				</g>
			</g>
		</g>
	</g>
	<rect x="232.4357758" y="636.878479" class="st9" width="184.2913818" height="37.6799889"/>
	<rect x="232.4357758" y="632.9368896" class="st2" width="184.3854218" height="7.8364153"/>
	<g>
		<g>
			<g>
				<path class="st2" d="M373.9760742,545.0748901c5.1610107,0,9.3598022,4.1987915,9.3598022,9.3598022v2.871521
					c0,5.1610107-4.1987915,9.3598022-9.3598022,9.3598022h-9.3338623c-5.1607056,0-9.3592529-4.1987915-9.3592529-9.3598022
					v-2.871521c0-5.1610107,4.1985474-9.3598022,9.3592529-9.3598022H373.9760742 M373.9760742,540.0748901h-9.3338623
					c-7.930481,0-14.3592529,6.4287109-14.3592529,14.3598022v2.871521c0,7.9310913,6.428772,14.3598022,14.3592529,14.3598022
					h9.3338623c7.930481,0,14.3598022-6.4287109,14.3598022-14.3598022v-2.871521
					C388.3358765,546.5036011,381.9065552,540.0748901,373.9760742,540.0748901L373.9760742,540.0748901z"/>
			</g>
			<path class="st40" d="M401.6173706,625.8510132v-56.9366455c0-7.930481-6.428772-14.3592529-14.3592834-14.3592529h-36.8557434
				c-7.9310608,0-14.3598022,6.428772-14.3598022,14.3592529v56.9366455H401.6173706z"/>
			<path class="st40" d="M410.6509094,633.2244263c0,4.1763916-3.3856812,7.5620728-7.5615234,7.5620728h-69.5274353
				c-4.1758423,0-7.5614929-3.3856812-7.5614929-7.5620728l0,0c0-4.1758423,3.3856506-7.5615234,7.5614929-7.5615234h69.5274353
				C407.2652283,625.6629028,410.6509094,629.048584,410.6509094,633.2244263L410.6509094,633.2244263z"/>
			<rect x="336.0430908" y="621.1115112" class="st41" width="65.5742645" height="4.7394972"/>
		</g>
		<g>
			<defs>
				<path id="SVGID_33_" d="M401.6173706,625.8510132v-56.9366455c0-7.930481-6.428772-14.3592529-14.3592834-14.3592529
					h-36.8557434c-7.9310608,0-14.3598022,6.428772-14.3598022,14.3592529v56.9366455H401.6173706z"/>
			</defs>
			<clipPath id="SVGID_12_">
				<use xlink:href="#SVGID_33_"  style="overflow:visible;"/>
			</clipPath>
			<g style="opacity:0.5;clip-path:url(#SVGID_12_);">
				<g>
					<path class="st40" d="M333.9490967,579.2630615c1.1850586-3.3546753,2.9981384-7.7114258,6.8956909-3.4277954
						c1.4272461,1.5686035,2.3379517,3.937439,3.526001,5.7098389c1.7475281,2.6071167,3.770813,5.6137695,6.9148865,6.6434326
						c3.1723022,1.0388794,6.5611572-0.1512451,9.0811157-2.1224365c3.0904541-2.4174194,5.8212891-10.5723877,10.092041-6.0570068
						c2.0614319,2.1795044,4.9334717,5.2684937,8.2446594,5.2069702c3.5736084-0.0664673,5.5487061-3.5264282,8.1400757-5.3869019
						c4.8274841-3.4658813,8.0171204,0.1381226,12.9822388,0.5280762c1.3516541,0.1061401,2.6688232-0.0621338,3.9232788-0.5855103
						c1.4979553-0.624939,1.8392639-1.2700195,3.5150757-1.4576416c1.5666504-0.175415,2.3265076,0.2929077,3.8494263,0.5834961
						c3.1443481,0.5999756,4.491394-4.2180176,1.3292236-4.8214111c-1.8736877-0.3574829-3.6265259-1.5125122-5.5916138-1.3562012
						c-1.9082947,0.1517334-2.8736267,1.5413208-4.5281372,2.1625366
						c-4.4630737,1.6757202-9.0732117-2.8374634-13.9519043-1.4528198
						c-1.7734375,0.5033569-3.4159241,1.4724121-4.8511963,2.6078491c-2.7458496,2.1723633-4.1468811,4.5046387-7.7581177,2.2582397
						c-3.1532288-1.9614868-4.2835083-6.2053223-8.7625427-5.5942993c-4.1514282,0.5663452-5.952301,5.2140503-8.2974243,7.984436
						c-6.4079285,7.5698853-11.3054199-4.2075195-14.3061523-8.6516113
						c-5.763855-8.536377-12.8465576-0.9552002-15.2680054,5.8995972
						C328.0538635,580.9737549,332.8828735,582.2813721,333.9490967,579.2630615L333.9490967,579.2630615z"/>
				</g>
			</g>
			<g style="opacity:0.5;clip-path:url(#SVGID_12_);">
				<g>
					<path class="st40" d="M336.5439148,558.5466309c6.6578369-6.1445923,11.2557678,8.2400513,15.1502075,11.7056885
						c4.7902222,4.2627563,10.0618896,3.3037109,14.7655029-0.4235229c1.3693848-1.085144,2.6555786-2.463501,4.2081299-3.2895508
						c3.5740967-1.9017944,5.7029724-0.4309692,9.0196838,0.8997803c3.0618286,1.2285156,5.6357117,1.3765869,8.7252197,0.230957
						c1.8684387-0.6928711,3.440918-1.4989014,5.4875488-1.6340942c2.1715393-0.1433716,4.3062744,0.5108032,6.4754944,0.5631104
						c3.8420715,0.0925903,7.1222534-1.5862427,10.9801941-1.2669678c3.2067566,0.2654419,3.189209-4.7360229,0-5
						c-4.308136-0.3565063-8.0512085,1.4481201-12.2931519,1.1444702
						c-3.8876038-0.2783203-6.9430847-0.6188354-10.6551514,0.8331909
						c-3.3837891,1.3235474-5.6062317,0.9389038-8.9444275-0.4335327c-1.350708-0.5553589-2.6834106-1.0881348-4.1448059-1.2625732
						c-3.538147-0.4222412-6.4654846,0.9507446-9.2142334,3.0697632c-1.6751404,1.2913818-3.2533569,3.0870972-5.2236328,3.9110718
						c-2.938446,1.2287598-5.3343201-0.2875366-7.2085571-2.5770874c-2.1480713-2.6240845-3.4476929-5.8023682-5.499939-8.4919434
						c-3.9861145-5.2240601-10.2069092-6.0888672-15.1636047-1.5142822
						C330.6386108,557.1981812,334.1812134,560.7272339,336.5439148,558.5466309L336.5439148,558.5466309z"/>
				</g>
			</g>
			<g style="opacity:0.5;clip-path:url(#SVGID_12_);">
				<g>
					<path class="st40" d="M334.9345093,606.713501c1.2311707-4.9697876,3.4454346-12.1376343,9.90271-11.4536133
						c4.6689148,0.4945679,7.7065735,6.3831787,11.284668,9.0471802c5.3908997,4.0137329,12.1250916,3.5583496,16.0525208-2.1966553
						c2.4356689-3.5690918,3.1437683-8.987793,8.7975464-7.0649414c3.5055542,1.1921997,5.9412231,4.0553589,9.9360962,3.795105
						c1.8232727-0.1187744,3.266449-0.9174805,4.7472229-1.9205933c2.460907-1.6671753,4.3467102-2.2390747,7.2594604-1.2410278
						c1.3526001,0.4634399,2.1610718,1.2945557,3.705658,1.2820435c2.9671631-0.0240479,4.4006958-1.9752808,7.730957-1.4523315
						c3.1478577,0.4942627,4.5037537-4.322937,1.3291931-4.8214111c-1.928833-0.3028564-3.8691406-0.6184692-5.8031006-0.1187744
						c-2.9976501,0.7744751-4.0491333,0.642334-7.0785828-0.4386597c-4.0517578-1.4457397-5.7527771,0.3952637-9.164093,2.079895
						c-2.604126,1.2860107-4.5802002,1.3879395-7.3746033,0.1216431c-0.9588928-0.4345093-1.8208618-1.1272583-2.7645874-1.6032715
						c-1.7558899-0.8855591-3.6463013-1.565918-5.6433411-1.3970947c-3.5418091,0.2994995-5.7528076,2.7961426-7.4675293,5.6793823
						c-1.0838623,1.8225098-1.7757263,3.989624-3.3841553,5.4313965c-3.2953491,2.9538574-6.7445984,1.0584106-9.5367432-1.5598145
						c-3.3091125-3.1029053-6.2035828-7.5981445-10.8908386-8.723999
						c-9.4927063-2.2801514-14.6404114,7.882019-16.4598694,15.2263794
						C329.3393555,608.5076904,334.1599121,609.8401489,334.9345093,606.713501L334.9345093,606.713501z"/>
				</g>
			</g>
			<g style="opacity:0.5;clip-path:url(#SVGID_12_);">
				<g>
					<path class="st40" d="M335.6678772,615.6265259c-1.3473816-2.9961548,9.405426-2.5119019,10.1343689-2.3746338
						c3.493042,0.6577148,6.8505554,1.8986816,10.3620911,2.4805908c7.4180908,1.229248,12.0384521-2.4395142,18.9282532-3.9175415
						c4.0924683-0.8779907,7.4810181,1.0038452,11.3859863,1.7124634c2.8697205,0.520752,5.2418823,0.1694946,7.9625244-0.829895
						c3.2684021-1.2005615,3.9204407-1.6356812,7.4204407-0.3032837c1.1551208,0.4397583,2.1328735,0.9473877,3.4012451,1.036377
						c0.9569702,0.0671387,1.6703796-0.2024536,2.6049194-0.2903442c1.8310547-0.1720581,3.5543518-0.1720581,5.4589844-0.0866699
						c3.2170105,0.1442871,3.2098999-4.8560181,0-5c-1.4398193-0.0645142-2.72229-0.6359253-4.1838989-0.4737549
						c-1.0730286,0.1190796-2.1621399,0.8481445-3.2418213,0.7918701c-1.216217-0.0634155-2.0774231-0.706604-3.227356-1.1455078
						c-3.2609558-1.244751-5.9379272-0.8283691-9.1331482,0.4490967c-5.3821411,2.1518555-9.3093567-0.6205444-14.6428528-1.0870972
						c-4.1557617-0.3634644-7.7592773,1.2540894-11.5327148,2.767334
						c-5.2610168,2.1097412-9.6531067,1.7513428-15.0809631,0.3552246
						c-3.8532104-0.9910889-7.7364502-2.1307983-11.7532654-1.7363892
						c-4.8646851,0.4776611-11.7445374,4.4733887-9.1801453,10.1757812
						C332.6680603,621.079895,336.9782104,618.5402832,335.6678772,615.6265259L335.6678772,615.6265259z"/>
				</g>
			</g>
		</g>
	</g>
	<g>
		<g>
			<g>
				<path class="st2" d="M286.6976929,545.2623901c5.1610107,0,9.3598022,4.1987915,9.3598022,9.3598022v2.871521
					c0,5.1610107-4.1987915,9.3598022-9.3598022,9.3598022h-9.3338013c-5.1607666,0-9.359314-4.1987915-9.359314-9.3598022
					v-2.871521c0-5.1610107,4.1985474-9.3598022,9.359314-9.3598022H286.6976929 M286.6976929,540.2623901h-9.3338013
					c-7.930542,0-14.359314,6.4287109-14.359314,14.3598022v2.871521c0,7.9310913,6.428772,14.3598022,14.359314,14.3598022
					h9.3338013c7.930481,0,14.3598022-6.4287109,14.3598022-14.3598022v-2.871521
					C301.0574951,546.6911011,294.6281738,540.2623901,286.6976929,540.2623901L286.6976929,540.2623901z"/>
			</g>
			<path class="st40" d="M314.3389893,626.0385132v-56.9366455c0-7.930481-6.4287415-14.3591919-14.3592529-14.3591919h-36.8557434
				c-7.931076,0-14.3598328,6.4287109-14.3598328,14.3591919v56.9366455H314.3389893z"/>
			<path class="st40" d="M323.3725281,633.4119263c0,4.1763916-3.3856812,7.5620728-7.5615234,7.5620728h-69.5274048
				c-4.1758575,0-7.5615234-3.3856812-7.5615234-7.5620728l0,0c0-4.1758423,3.3856659-7.5615234,7.5615234-7.5615234h69.5274048
				C319.9868469,625.8504028,323.3725281,629.236084,323.3725281,633.4119263L323.3725281,633.4119263z"/>
			<rect x="248.7647247" y="621.2990112" class="st41" width="65.5742645" height="4.7394972"/>
		</g>
		<g>
			<defs>
				<path id="SVGID_35_" d="M314.3389893,626.0385132v-56.9366455c0-7.930481-6.4287415-14.3591919-14.3592529-14.3591919
					h-36.8557434c-7.931076,0-14.3598328,6.4287109-14.3598328,14.3591919v56.9366455H314.3389893z"/>
			</defs>
			<clipPath id="SVGID_14_">
				<use xlink:href="#SVGID_35_"  style="overflow:visible;"/>
			</clipPath>
			<g style="opacity:0.5;clip-path:url(#SVGID_14_);">
				<g>
					<path class="st40" d="M246.6707306,579.4505615c1.1850433-3.3546753,2.9981232-7.7114258,6.8956909-3.4277954
						c1.4272308,1.5686035,2.3379364,3.937439,3.5260162,5.7098999c1.7474976,2.6070557,3.7707825,5.6137085,6.9148865,6.6433716
						c3.1722717,1.0388794,6.5611267-0.1512451,9.0810852-2.1224365c3.0904541-2.4173584,5.8212891-10.5723267,10.092041-6.0570068
						c2.0614319,2.1795044,4.9334717,5.2684937,8.2446594,5.2069702c3.5736389-0.0664673,5.5487061-3.5264282,8.1400757-5.3869019
						c4.8274841-3.4658203,8.0171204,0.1381226,12.9822388,0.5280762c1.3516846,0.1061401,2.6688538-0.0621338,3.9232788-0.5855103
						c1.4979553-0.624939,1.8392639-1.2700195,3.5151062-1.4576416c1.5666199-0.175415,2.3265076,0.2929077,3.8494263,0.5834961
						c3.1443481,0.5999756,4.4913635-4.2180176,1.3291931-4.8213501c-1.8736572-0.3575439-3.6264954-1.5125732-5.5916138-1.3562622
						c-1.9082642,0.1517334-2.8735962,1.5413208-4.5281372,2.1625366
						c-4.4630737,1.6757812-9.0731812-2.8374634-13.9518738-1.4528198
						c-1.7734375,0.5033569-3.4159241,1.4724121-4.8512268,2.6079102c-2.7458496,2.1723022-4.1468811,4.5045776-7.7581177,2.2581787
						c-3.1531982-1.9614868-4.2834778-6.2053223-8.7625122-5.5942993c-4.1514587,0.5663452-5.952301,5.2141113-8.2974243,7.984436
						c-6.407959,7.5698853-11.3054504-4.2075195-14.3061829-8.6516113
						c-5.763855-8.536377-12.8465576-0.9552002-15.2680054,5.8995972
						C240.7754974,581.1612549,245.6045074,582.4688721,246.6707306,579.4505615L246.6707306,579.4505615z"/>
				</g>
			</g>
			<g style="opacity:0.5;clip-path:url(#SVGID_14_);">
				<g>
					<path class="st40" d="M249.2655487,558.7341309c6.6578217-6.1445923,11.2557526,8.2401123,15.1501923,11.7056885
						c4.7902527,4.2627563,10.0618896,3.3037109,14.7655334-0.4235229c1.3693542-1.085144,2.6555786-2.463501,4.2080994-3.2895508
						c3.5740967-1.9017334,5.7029724-0.4309082,9.0196838,0.8997803c3.0618591,1.2285156,5.6357117,1.3765869,8.7252197,0.230957
						c1.8684387-0.6928711,3.440918-1.4989014,5.4875488-1.6340332c2.1715698-0.1434326,4.3062744,0.5108032,6.4754944,0.5630493
						c3.8420715,0.0925903,7.1222839-1.5861816,10.9801941-1.2669067c3.2067566,0.2653809,3.1892395-4.736084,0-5
						c-4.3081055-0.3565674-8.0512085,1.4480591-12.2931519,1.1444092
						c-3.8876038-0.2783203-6.9430542-0.6188354-10.6551514,0.8331909
						c-3.3837585,1.3235474-5.6062317,0.9389038-8.9444275-0.4335327c-1.3506775-0.5553589-2.6833801-1.0881348-4.1448059-1.2625732
						c-3.538147-0.4222412-6.4654846,0.9507446-9.2142334,3.0697632c-1.6751099,1.2913818-3.2533569,3.0871582-5.2236023,3.9110718
						c-2.9384766,1.2287598-5.3343201-0.2875366-7.2085876-2.5770874c-2.1480408-2.6240845-3.4476929-5.8023071-5.499939-8.4919434
						c-3.986084-5.2240601-10.2068939-6.0888672-15.1636047-1.5142822
						C243.3602448,557.3856812,246.902832,560.9147339,249.2655487,558.7341309L249.2655487,558.7341309z"/>
				</g>
			</g>
			<g style="opacity:0.5;clip-path:url(#SVGID_14_);">
				<g>
					<path class="st40" d="M247.6561279,606.901062c1.2311859-4.9698486,3.4454498-12.1376953,9.90271-11.4536743
						c4.6689148,0.4945679,7.706604,6.3831787,11.284668,9.0471802c5.3908997,4.0137329,12.1250916,3.5584106,16.0525208-2.1966553
						c2.4356689-3.5690918,3.1437683-8.987793,8.7975769-7.0649414c3.5055237,1.1921997,5.9411926,4.0553589,9.9360657,3.795105
						c1.8233032-0.1187744,3.2664795-0.9174194,4.7472229-1.9205933c2.4609375-1.6671753,4.3467102-2.2390747,7.2594604-1.2410278
						c1.3526001,0.4634399,2.1610718,1.2946167,3.7056885,1.2820435c2.9671326-0.0240479,4.4006653-1.9752808,7.7309265-1.4523315
						c3.1478577,0.4942627,4.5037537-4.322937,1.3291931-4.8214111c-1.9288025-0.3028564-3.8691406-0.6184082-5.8031006-0.1187744
						c-2.9976501,0.7744751-4.0491028,0.642334-7.0785828-0.4386597c-4.0517578-1.4457397-5.7527466,0.3952637-9.164093,2.079895
						c-2.604126,1.2860107-4.5801697,1.3879395-7.3746033,0.1216431c-0.9588623-0.4345093-1.8208618-1.1272583-2.7645874-1.6032715
						c-1.7558594-0.8855591-3.6463013-1.565918-5.6433105-1.3970947c-3.5418091,0.2994995-5.7528381,2.7962036-7.4675598,5.6793823
						c-1.0838623,1.8225098-1.7757263,3.989624-3.3841248,5.4313965c-3.2953796,2.9538574-6.7445984,1.0584106-9.5367737-1.5597534
						c-3.3091125-3.1029663-6.2035828-7.5982056-10.8908386-8.7240601
						c-9.4926758-2.2801514-14.6404114,7.882019-16.4598541,15.2263794
						C242.0609741,608.6951904,246.881546,610.02771,247.6561279,606.901062L247.6561279,606.901062z"/>
				</g>
			</g>
			<g style="opacity:0.5;clip-path:url(#SVGID_14_);">
				<g>
					<path class="st40" d="M248.3895111,615.8140259c-1.3473969-2.9961548,9.4054108-2.5119019,10.1343842-2.3746338
						c3.4930115,0.6577148,6.8505249,1.8986816,10.3620911,2.4805908c7.4180603,1.229248,12.0384216-2.4395142,18.9282227-3.9175415
						c4.0924683-0.8779907,7.4810181,1.0038452,11.3859863,1.7124634c2.8697205,0.520752,5.2419128,0.1695557,7.9625244-0.829834
						c3.2684021-1.2006226,3.9204407-1.6357422,7.4204712-0.3032837c1.1551208,0.4396973,2.132843,0.9473877,3.4012146,1.0363159
						c0.9569702,0.0671387,1.6703796-0.2024536,2.60495-0.2903442c1.8310547-0.1720581,3.5543518-0.1720581,5.4589539-0.0866089
						c3.2170105,0.1442261,3.2098999-4.8560791,0-5c-1.4397888-0.0645752-2.72229-0.6359863-4.1838989-0.4738159
						c-1.072998,0.1190796-2.1621094,0.8481445-3.2417908,0.7918701c-1.216217-0.0634155-2.0774536-0.706604-3.227356-1.1455078
						c-3.2609558-1.244751-5.9379578-0.8283691-9.1331482,0.4491577c-5.3821716,2.1518555-9.3093872-0.6206055-14.6428833-1.0870972
						c-4.1557617-0.3635254-7.7592773,1.2540283-11.5327148,2.7672729
						c-5.2610168,2.1097412-9.6531067,1.7513428-15.0809326,0.3552246
						c-3.853241-0.9910889-7.7364807-2.1307983-11.7532806-1.7363892
						c-4.8646851,0.4776611-11.7445374,4.4733887-9.1801453,10.1757812
						C245.389679,621.267395,249.6998444,618.7277832,248.3895111,615.8140259L248.3895111,615.8140259z"/>
				</g>
			</g>
		</g>
	</g>
	<g>
		<g>
			<path class="st2" d="M353.505188,631.3340454v5.1741333h-8.6934204v-5.1741333H353.505188 M353.8743286,625.3340454h-9.4317017
				c-3.1101685,0-5.6308594,2.520752-5.6308594,5.6309204v5.9123535c0,3.1091309,2.5206909,5.6308594,5.6308594,5.6308594h9.4317017
				c3.1090698,0,5.6308594-2.5217285,5.6308594-5.6308594v-5.9123535
				C359.505188,627.8547974,356.9833984,625.3340454,353.8743286,625.3340454L353.8743286,625.3340454z"/>
		</g>
		<path class="st3" d="M383.9994507,678.4049683c0,3.1090698-2.521759,5.6308594-5.6308594,5.6308594H321.215332
			c-3.110199,0-5.6308594-2.5217896-5.6308594-5.6308594v-39.979126c0-3.1101685,2.5206604-5.6308594,5.6308594-5.6308594
			h57.1532593c3.1091003,0,5.6308594,2.5206909,5.6308594,5.6308594V678.4049683z"/>
		<path class="st4" d="M326.9396667,675.0264282c0,0.6213989,0.5048218,1.1261597,1.1261902,1.1261597l0,0
			c0.6224976,0,1.1261597-0.5047607,1.1261597-1.1261597v-31.9089966c0-0.6213379-0.5036621-1.1261597-1.1261597-1.1261597l0,0
			c-0.6213684,0-1.1261902,0.5048218-1.1261902,1.1261597V675.0264282z"/>
		<path class="st4" d="M333.1336365,675.0264282c0,0.6213989,0.5047913,1.1261597,1.1261597,1.1261597l0,0
			c0.6224976,0,1.1261597-0.5047607,1.1261597-1.1261597v-31.9089966c0-0.6213379-0.5036621-1.1261597-1.1261597-1.1261597l0,0
			c-0.6213684,0-1.1261597,0.5048218-1.1261597,1.1261597V675.0264282z"/>
		<path class="st4" d="M339.3275757,675.0264282c0,0.6213989,0.5047913,1.1261597,1.1261597,1.1261597l0,0
			c0.6224976,0,1.1261902-0.5047607,1.1261902-1.1261597v-31.9089966c0-0.6213379-0.5036926-1.1261597-1.1261902-1.1261597l0,0
			c-0.6213684,0-1.1261597,0.5048218-1.1261597,1.1261597V675.0264282z"/>
		<path class="st4" d="M345.5215149,675.0264282c0,0.6213989,0.5048218,1.1261597,1.1261902,1.1261597l0,0
			c0.6224976,0,1.1261597-0.5047607,1.1261597-1.1261597v-31.9089966c0-0.6213379-0.5036621-1.1261597-1.1261597-1.1261597l0,0
			c-0.6213684,0-1.1261902,0.5048218-1.1261902,1.1261597V675.0264282z"/>
		<path class="st4" d="M351.7154846,675.0264282c0,0.6213989,0.5047913,1.1261597,1.1261597,1.1261597l0,0
			c0.6224976,0,1.1261597-0.5047607,1.1261597-1.1261597v-31.9089966c0-0.6213379-0.5036621-1.1261597-1.1261597-1.1261597l0,0
			c-0.6213684,0-1.1261597,0.5048218-1.1261597,1.1261597V675.0264282z"/>
		<path class="st4" d="M357.9094238,675.0264282c0,0.6213989,0.5047913,1.1261597,1.1261597,1.1261597l0,0
			c0.6224976,0,1.1261902-0.5047607,1.1261902-1.1261597v-31.9089966c0-0.6213379-0.5036926-1.1261597-1.1261902-1.1261597l0,0
			c-0.6213684,0-1.1261597,0.5048218-1.1261597,1.1261597V675.0264282z"/>
		<path class="st4" d="M364.103363,675.0264282c0,0.6213989,0.5048218,1.1261597,1.1261902,1.1261597l0,0
			c0.622467,0,1.1261597-0.5047607,1.1261597-1.1261597v-31.9089966c0-0.6213379-0.5036926-1.1261597-1.1261597-1.1261597l0,0
			c-0.6213684,0-1.1261902,0.5048218-1.1261902,1.1261597V675.0264282z"/>
		<path class="st4" d="M370.2973328,675.0264282c0,0.6213989,0.5047913,1.1261597,1.1261597,1.1261597l0,0
			c0.6224976,0,1.1261597-0.5047607,1.1261597-1.1261597v-31.9089966c0-0.6213379-0.5036621-1.1261597-1.1261597-1.1261597l0,0
			c-0.6213684,0-1.1261597,0.5048218-1.1261597,1.1261597V675.0264282z"/>
		<circle class="st23" cx="338.0133362" cy="652.3149414" r="6.7570353"/>
		
			<rect x="348.618103" y="659.5422974" transform="matrix(0.9861395 -0.165918 0.165918 0.9861395 -105.2365875 68.9107437)" class="st24" width="22.4307308" height="9.5720644"/>
		<polygon class="st23" points="365.3164368,648.8417969 358.0557251,661.4177856 350.7949524,648.8417969 		"/>
	</g>
	<path class="st2" d="M102.9951859,530.1697388c0,2.2809448-1.8487244,4.1296387-4.1291122,4.1296387H74.8408737
		c-2.2803879,0-4.1291122-1.8486938-4.1291122-4.1296387l0,0c0-2.2803955,1.8487244-4.1290894,4.1291122-4.1290894h24.0251999
		C101.1464615,526.0406494,102.9951859,527.8893433,102.9951859,530.1697388L102.9951859,530.1697388z"/>
	<path class="st2" d="M98.5608826,514.1217651c0,2.2809448-1.8487244,4.1296997-4.1291122,4.1296997H70.4065704
		c-2.2803879,0-4.1291122-1.8487549-4.1291122-4.1296997l0,0c0-2.280365,1.8487244-4.1290894,4.1291122-4.1290894h24.0251999
		C96.7121582,509.9926758,98.5608826,511.8414001,98.5608826,514.1217651L98.5608826,514.1217651z"/>
	<path class="st2" d="M100.3689117,521.9901733c0,2.6872559-2.1780853,4.8659668-4.8648529,4.8659668H60.5624733
		c-2.6867676,0-4.8648872-2.1787109-4.8648872-4.8659668l0,0c0-2.6867676,2.1781197-4.8649292,4.8648872-4.8649292h34.9415855
		C98.1908264,517.1252441,100.3689117,519.3034058,100.3689117,521.9901733L100.3689117,521.9901733z"/>
	<g>
		<rect x="86.7267227" y="614.7195435" class="st6" width="7.2926426" height="67.2024918"/>
		<g>
			<defs>
				<path id="SVGID_37_" d="M123.1667938,594.0420532c0.2144241,16.2085571-12.7519302,29.5213623-28.9604797,29.7358398l0,0
					c-16.2090607,0.2144775-29.5218735-12.7514038-29.7358017-28.9604492l-0.2270889-17.1477051
					c-0.213913-16.2080078,12.7524948-29.5214233,28.9604263-29.7358398l0,0
					c16.2079849-0.2133179,29.5218811,12.7519531,29.7363739,28.9604492L123.1667938,594.0420532z"/>
			</defs>
			<clipPath id="SVGID_16_">
				<use xlink:href="#SVGID_37_"  style="overflow:visible;"/>
			</clipPath>
			<path class="st28" d="M132.6545868,635.3618774H56.9711647v-31.2826538c0,0,15.6915779,3.9355469,37.6398964,3.9355469
				c21.9482651,0,38.0435257-3.9355469,38.0435257-3.9355469V635.3618774z"/>
		</g>
		<rect x="93.742218" y="622.0957642" class="st8" width="7.2926426" height="59.7652435"/>
		<g>
			<path class="st0" d="M64.6058273,573.0511475c-0.0071564-2.0257568,1.7029953-3.6749268,3.8195267-3.6825562l0,0
				c2.1164703-0.0076904,3.8376694,1.6292725,3.8448105,3.6550903l0.1935272,53.4107056
				c0.0082779,2.0274658-1.7024231,3.6760254-3.8178329,3.6842651l0,0c-2.1165314,0.0071411-3.8382263-1.6298828-3.8453751-3.656189
				L64.6058273,573.0511475z"/>
			<path class="st2" d="M76.7011414,622.0748901l2.5157623-48.3743286c0.2523727-4.8631592-0.5922546-8.5073242-5.4538193-8.7613525
				c-4.8632202-0.2518311-9.0115891,3.4851685-9.2645264,8.3483887l-2.4591103,47.2800293
				C67.8787613,621.3363647,70.8398666,621.4892578,76.7011414,622.0748901z"/>
		</g>
		<path class="st47" d="M64.6607971,614.4171143h58.3602753c0.1220703-1.1514282,0.1853104-2.3199463,0.1693192-3.5061035
			l-0.2270813-34.0402832c-0.2139282-16.2084961-13.5278244-29.1738281-29.7358093-28.9604492
			c-16.2084961,0.2144165-29.1749039,13.527832-28.9604263,29.7357788l0.2265244,34.0403442
			C64.5057068,612.6079712,64.5656738,613.5180664,64.6607971,614.4171143z"/>
		<path class="st0" d="M103.2448578,551.0545654c0,1.6660767-4.0620422,9.5691528-9.0726089,9.5691528l0,0
			c-5.0116959,0-9.0737457-7.9030762-9.0737457-9.5691528v-7.7227173c0-1.6661377,4.0620499-3.0166626,9.0737457-3.0166626l0,0
			c5.0105667,0,9.0726089,1.3505249,9.0726089,3.0166626V551.0545654z"/>
		<g>
			<path class="st0" d="M121.5055771,572.6381836c0.009346-2.1159668-1.6991653-3.8398438-3.8151321-3.8491821l0,0
				c-2.1159515-0.0093384-3.8387833,1.6986084-3.8486938,3.8151245l-0.2463531,55.7823486
				c-0.009346,2.1171265,1.6986084,3.8404541,3.8145752,3.8497925l0,0c2.1165237,0.0098877,3.8404236-1.6991577,3.8486938-3.8151245
				L121.5055771,572.6381836z"/>
			<path class="st47" d="M111.4772415,620.8387451l-2.6372604-47.2717896
				c-0.2458038-4.8131714-0.1644211-9.3689575,4.6492767-9.6170044c4.8115692-0.2452393,8.9148407,3.4571533,9.1611862,8.2703247
				l2.3980179,46.7961426c-2.5437393,1.1899414-3.0457764,1.5584106-6.1845474,1.9284668
				C112.7397919,621.6663208,114.1222229,621.2665405,111.4772415,620.8387451z"/>
			<circle class="st0" cx="115.0883408" cy="628.6504517" r="6.1236439"/>
		</g>
		<g class="st9">
			<path class="st2" d="M102.9891663,548.8939819c-1.2240982-0.9353638-2.1622009-1.8167725-2.5877762-3.3652954
				c-0.2683716-0.9980469-0.2683716-1.9955444,0-2.9935913c0.5691071-2.0686646,2.1830292-3.4467163,4.1450577-3.9383545
				c0.7615585-2.1032715,0.6147614-4.472168,0.7555389-6.6679077c0.1149216-1.8052979,0.4580688-3.4714355,0.9040298-5.1364746
				c-0.5806961-0.5653076-1.1971207-1.0932007-1.8542404-1.569397c0.2760239-0.9293213,0.4267044-1.9130859,0.4267044-2.9314575
				c0-3.8519897-2.1220474-7.2041016-5.2580414-8.9642944c-1.07724,0.7511597-2.1302567,1.5402222-3.1568832,2.3601074
				c0.0615387,1.1305542-0.1424637,2.2946777-0.592247,3.3141479c-1.657402,3.75354-4.8406906,6.5882568-6.3127136,10.5424805
				c-0.8281326,2.2237549-1.6023788,4.5046997-1.9906235,6.8527222c-0.1698837,1.0255737-0.2050781,2.0494995-0.2309189,3.0870972
				c-0.0138016,0.5388794,0.0302353,0.8754272,0.067627,1.0530396c1.380188,2.6004028,0.8330841,6.0614014-1.9999695,7.6065674
				c-0.0175705,0.0099487-0.0384598,0.0192871-0.0566483,0.0286255c-0.2408371,0.1886597-0.4976578,0.3695679-0.7879868,0.5344849
				c-0.8072357,0.4580688-1.5501175,0.9854126-2.3293152,1.489624c3.0705643,3.3406372,7.4751968,5.4351196,12.3697662,5.4351196
				c4.5849838,0,8.7344208-1.8442993,11.7654037-4.8230591c-0.2551346-0.1506348-0.5075684-0.3095703-0.7539139-0.484436
				C104.614624,549.9415283,103.751297,549.4763184,102.9891663,548.8939819z"/>
		</g>
		<g>
			<g>
				<path class="st0" d="M104.4458084,523.0646362c0.2760239-0.9293213,0.426712-1.9130859,0.426712-2.9314575
					c0-5.6765137-4.6014862-10.2779541-10.2779617-10.2779541c-5.6759644,0-10.2774506,4.6014404-10.2774506,10.2779541
					c0,1.0183716,0.1506805,2.0021362,0.4267197,2.9314575c-4.2099228,3.0529785-6.9489441,8.0107422-6.9489441,13.6086426
					c0,9.2788086,7.5219269,16.8002319,16.799675,16.8002319c9.2782593,0,16.8001862-7.5214233,16.8001862-16.8002319
					C111.3947449,531.0753784,108.6557236,526.1176147,104.4458084,523.0646362z"/>
			</g>
			<g>
				<defs>
					<path id="SVGID_39_" d="M104.5106812,523.060791c0.2787781-0.937561,0.4305878-1.9295654,0.4305878-2.9567871
						c0-5.7254028-4.6410599-10.3664856-10.3665161-10.3664856c-5.7248993,0-10.3659821,4.6410828-10.3659821,10.3664856
						c0,1.0272217,0.1523132,2.0192261,0.4305954,2.9567871c-4.2462387,3.0794067-7.0089035,8.0795288-7.0089035,13.725769
						c0,9.3585205,7.5867996,16.9448242,16.9442902,16.9448242c9.3579712,0,16.9448318-7.5863037,16.9448318-16.9448242
						C111.5195847,531.1403198,108.7569122,526.1401978,104.5106812,523.060791z"/>
				</defs>
				<clipPath id="SVGID_18_">
					<use xlink:href="#SVGID_39_"  style="overflow:visible;"/>
				</clipPath>
				<path class="st30" d="M109.1853104,525.5055542c-0.0478668-1.9938965-0.6653976-3.8690186-1.5413284-5.6489868
					c-0.1935959-0.3926392-0.293663-0.8127441-0.2887039-1.2207642c-0.417923-0.7434082-0.8501511-1.4802856-1.28125-2.2165527
					c-1.1229019-1.1481934-2.1830826-2.3959351-2.6829376-3.8959961c-1.0882187-0.7363281-2.3502045-1.2872925-3.8167648-1.5600586
					c0,0-0.1803589,8.5805054,7.9887848,11.574646l1.8415756,3.8986816
					C109.2738266,526.1726074,109.1940918,525.8630371,109.1853104,525.5055542z"/>
				<path class="st30" d="M83.8689499,516.2301025c-0.2947159-0.0369263-0.4652252-0.1325684-0.4652252-0.1325684
					l1.6612167-4.053772l6.9116058-3.7876587l5.3157578,1.1294861l2.7241592,1.7937317
					C100.0164642,511.1793213,95.5639725,517.6921997,83.8689499,516.2301025z"/>
				<path class="st30" d="M83.6259232,524.805603c1.1437378-1.128418,2.1797638-1.8707275,2.5223465-2.2260132
					c0,0-0.9694672-1.5616455-0.7803268-4.1175537c0.1891937-2.5553589,1.3252258-4.5431519,1.3252258-4.5431519
					l-2.4607468-1.3251953l-3.0293503,8.4242554l-1.1756516,1.5187988
					C81.1865768,523.3356934,82.4106674,524.0742188,83.6259232,524.805603z"/>
				<path class="st30" d="M103.0458221,522.9579468c0.3315353,0.343689,1.3097839,1.0480957,2.4068451,2.1121216
					c1.1580505-0.8264771,2.3237991-1.6375732,3.5060577-2.4228516l-0.9683456-1.2509155l-3.0282211-8.4243774l-2.4613037,1.3252563
					c0,0,1.1360855,1.987854,1.3257904,4.5432129C104.0152206,521.3963013,103.0458221,522.9579468,103.0458221,522.9579468z"/>
			</g>
			<circle class="st2" cx="90.9839706" cy="521.305542" r="0.8567076"/>
			<circle class="st2" cx="97.8364182" cy="521.305542" r="0.8564542"/>
			<path class="st11" d="M93.0334015,525.6606445c0.0341263,0.5872803,0.5201797,1.0535889,1.1168289,1.0535889
				c0.5960846,0,1.0822067-0.4663086,1.1162643-1.0535889H93.0334015z"/>
		</g>
	</g>
	<polygon class="st3" points="81.3131027,630.1395874 50.908638,635.7704468 50.908638,567.8244629 81.3131027,573.4553833 	"/>
	<polygon class="st49" points="142.0818176,630.1159058 111.6779327,635.7467651 111.6779327,567.8008423 142.0818176,573.4317017 	
		"/>
	<polygon class="st50" points="81.2932816,630.1159058 111.6977463,635.7467651 111.6977463,567.8008423 81.2932816,573.4317017 	
		"/>
	<polygon class="st51" points="58.9331245,591.7572632 66.53479,587.6749268 75.5441666,591.6165161 81.151947,594.0569458 
		81.1750336,616.6738892 67.0978775,620.4746704 58.7923546,607.3829346 	"/>
	<polygon class="st51" points="134.1051331,617.8704224 126.503479,621.9528198 117.4940948,618.0111694 111.886322,615.5708008 
		111.8632355,592.9538574 125.9403915,589.1530151 134.2459106,602.244751 	"/>
	<path class="st51" d="M81.3631058,594.4088745l7.5312729-6.8978271c0,0,10.9097977,1.9708252,11.1209564,1.9708252
		s0.2111588,1.6188354,0.2111588,1.6188354l-8.1647491,1.0557861c0,0,2.1819534,1.2669678,2.8858185,1.1965942
		c1.4077148-0.1408081,16.8925858-0.2111816,16.8925858-0.2111816s-0.2815475,22.0307617-0.14077,22.3123169
		c0.14077,0.2815552-5.2789383-0.774231-5.2789383-0.774231s-6.3347168,6.8977661-6.6162643,6.6866455
		c-0.2815399-0.2111816-17.7372131-3.0969849-17.7372131-3.0969849l-0.844635-1.4077148l-0.14077-22.3123169"/>
	<path class="st51" d="M68.529808,598.2097168l12.3878937,1.4077148l5.2552872-3.0969849l25.9019623,2.9094849l5.2558517-2.0648804
		l8.7278366,3.2844849l3.7535248,6.8510742l-2.3458099,5.7249146l-10.7926712-2.4404297l-4.5046921-1.0321045l-8.1647491,0.1875
		c0,0-9.1034164,2.4403687-9.5724716,2.3463745c-0.4690475-0.0940552-10.0415115-3.56604-10.0415115-3.56604l-3.2850494,0.0935059
		l-11.5432663,1.314209l-2.908905-7.4141235L68.529808,598.2097168z"/>
	<polygon class="st51" points="79.5330734,603.3478394 93.4694595,601.4474487 114.2332611,603.3478394 117.7525558,605.3890381 
		109.3062592,605.4594116 83.6858368,604.9667358 79.4626846,604.9667358 	"/>
	<circle class="st0" cx="51.6369362" cy="600.2745361" r="6.1237435"/>
	<circle class="st0" cx="140.6045685" cy="600.2745361" r="6.1237435"/>
	<g>
		<g>
			<g>
				<defs>
					<path id="SVGID_41_" d="M311.2370605,596.2977295c0.2144165,16.2085571-12.7519226,29.5213013-28.9604797,29.7357788l0,0
						c-16.2090759,0.2144775-29.5218811-12.7513428-29.7358093-28.9604492l-0.2270813-17.1477051
						c-0.2139282-16.2080078,12.7525024-29.5213623,28.9604797-29.7358398l0,0
						c16.2079163-0.2133179,29.5218811,12.7519531,29.7362976,28.9605103L311.2370605,596.2977295z"/>
				</defs>
				<clipPath id="SVGID_20_">
					<use xlink:href="#SVGID_41_"  style="overflow:visible;"/>
				</clipPath>
				<path class="st31" d="M282.6813354,610.2703857c-21.9482727,0-37.6399078-3.9355469-37.6399078-3.9355469v31.2826538h75.6833954
					v-31.2826538C320.724823,606.3348389,304.6295776,610.2703857,282.6813354,610.2703857z M292.8025818,634.0625
					c-0.1330566,0.0164795-0.2672424,0.0252686-0.4002991,0.0411987c-0.9128418,0.6829834-2.0142822,1.0717163-3.1893921,0.9441528
					c-1.3351135-0.1451416-2.6702576-0.2963867-4.0054016-0.4481201c-4.62677,0.1434937-9.2788086,0.0582886-13.8813782,0.3034668
					c-4.7823792,0.2546387-12.0601807,2.0895996-15.79776-1.8563843c-2.1951447-2.317749-2.0923157-5.633606,0-7.963501
					c3.3851013-3.7678223,8.8823547-3.5946045,13.5096741-3.2977295c5.2580261,0.3366089,10.4924316,0.9205322,15.7262573,1.5067139
					c2.6878357-0.0488892,5.3713379-0.1594238,8.0382996-0.4915771c3.0534973-0.3804932,5.6308594,2.8495483,5.6308594,5.6308594
					C298.4334412,631.7880859,295.8478699,633.6829834,292.8025818,634.0625z"/>
			</g>
			<path class="st6" d="M252.7310486,616.6727905h58.3602905c0.1220703-1.1514893,0.1853027-2.3200073,0.1693726-3.5061035
				l-0.2271423-34.0403442c-0.2138672-16.2085571-13.527832-29.1738281-29.7357483-28.9604492
				c-16.2085571,0.2144775-29.1749115,13.527832-28.9604797,29.7357788l0.2265778,34.0403442
				C252.5759735,614.8636475,252.6359406,615.7736816,252.7310486,616.6727905z"/>
			<path class="st11" d="M291.3151245,551.2216797c0,5.0116577-4.0620422,28.7817383-9.0726013,28.7817383l0,0
				c-5.0117188,0-9.073761-23.7700806-9.073761-28.7817383v-23.2272949c0-5.0106201,4.0620422-9.0731201,9.073761-9.0731201l0,0
				c5.0105591,0,9.0726013,4.0625,9.0726013,9.0731201V551.2216797z"/>
			<g>
				<g>
					<path class="st0" d="M292.5160828,525.3202515c0.276001-0.9293213,0.4266968-1.9130249,0.4266968-2.9313965
						c0-5.6765747-4.6014709-10.2780151-10.2779541-10.2780151c-5.6759644,0-10.2774658,4.6014404-10.2774658,10.2780151
						c0,1.0183716,0.1506958,2.0020752,0.4267273,2.9313965c-4.2099304,3.0530396-6.9489441,8.0108032-6.9489441,13.6087036
						c0,9.2788086,7.5219421,16.8001709,16.7996826,16.8001709c9.2782593,0,16.8001709-7.5213623,16.8001709-16.8001709
						C299.4649963,533.3310547,296.7260437,528.373291,292.5160828,525.3202515z"/>
				</g>
				<g>
					<defs>
						<path id="SVGID_43_" d="M292.5160828,525.3202515c0.276001-0.9293213,0.4266968-1.9130249,0.4266968-2.9313965
							c0-5.6765747-4.6014709-10.2780151-10.2779541-10.2780151c-5.6759644,0-10.2774658,4.6014404-10.2774658,10.2780151
							c0,1.0183716,0.1506958,2.0020752,0.4267273,2.9313965c-4.2099304,3.0530396-6.9489441,8.0108032-6.9489441,13.6087036
							c0,9.2788086,7.5219421,16.8001709,16.7996826,16.8001709c9.2782593,0,16.8001709-7.5213623,16.8001709-16.8001709
							C299.4649963,533.3310547,296.7260437,528.373291,292.5160828,525.3202515z"/>
					</defs>
					<clipPath id="SVGID_22_">
						<use xlink:href="#SVGID_43_"  style="overflow:visible;"/>
					</clipPath>
					<path class="st32" d="M297.1505432,527.7442017c-0.0473022-1.9768677-0.6598816-3.8360596-1.5281372-5.600647
						c-0.191925-0.3893433-0.2908936-0.8060913-0.2859497-1.2102661c-0.4146118-0.7374268-0.8429871-1.4676514-1.2707825-2.197937
						c-1.1129761-1.1382446-2.1643677-2.3755493-2.6598511-3.8624268c-1.0788574-0.7302856-2.3298645-1.2763062-3.7843323-1.546875
						c0,0-0.1787109,8.5073853,7.9206238,11.475647l1.8261719,3.8657227
						C297.2384949,528.4057007,297.1593323,528.098877,297.1505432,527.7442017z"/>
					<path class="st32" d="M272.0503235,518.5478516c-0.2920227-0.0363159-0.4613647-0.1314087-0.4613647-0.1314087
						l1.6474304-4.019165l6.8522034-3.7552185l5.2706604,1.1195984l2.7010498,1.7788696
						C288.0603027,513.5405273,283.6458435,519.9973755,272.0503235,518.5478516z"/>
					<path class="st32" d="M272.1850586,527.9883423c1.1338196-1.1184692,2.1610718-1.8547974,2.500885-2.2067261
						c0,0-0.9612427-1.5485229-0.7737427-4.0823975c0.187561-2.5338745,1.3137512-4.5046997,1.3137512-4.5046997
						l-2.4399109-1.3136597l-3.0029297,8.3522339l-1.1657715,1.5056763
						C269.7666016,526.5311279,270.9802246,527.2630005,272.1850586,527.9883423z"/>
					<path class="st32" d="M290.3126526,525.7816162c0.3282776,0.3403931,1.2983093,1.0387573,2.3865356,2.0939941
						c1.1476135-0.8193359,2.3040466-1.6238403,3.4763794-2.4019165l-0.9600525-1.2406006l-3.0029907-8.3522339
						l-2.4398499,1.3136597c0,0,1.1261597,1.9708252,1.3136597,4.5046997
						C291.2738953,524.2330933,290.3126526,525.7816162,290.3126526,525.7816162z"/>
				</g>
				<circle class="st2" cx="279.0542603" cy="523.5611572" r="0.8567358"/>
				<circle class="st2" cx="285.9066772" cy="523.5611572" r="0.8564542"/>
			</g>
			<path class="st5" d="M279.1724548,555.3739014l-1.573761,6.1208496l-3.2185059-0.3217163
				c0.105011,0.3931274,0.1671753,0.8011475,0.1820068,1.2202148l3.9515076-0.053894l1.429718-6.8065186
				C279.6805725,555.4981689,279.4237671,555.4448242,279.1724548,555.3739014z"/>
			<path class="st5" d="M290.0426636,561.1653442l-3.2938232,0.3294067l-1.5298157-5.9487305
				c-0.2523499,0.0466919-0.5185242,0.0747681-0.7934875,0.0895996l1.4082642,6.7037354l3.9135742,0.0533447
				C289.7980042,561.9675903,289.9002686,561.5579834,290.0426636,561.1653442z"/>
			<polyline class="st5" points="269.5516052,553.1188354 269.4751892,553.2926025 265.6567383,561.9406738 
				270.3495178,563.8174438 268.472168,571.2316284 281.5639343,584.9804688 267.8623657,571.4664307 270.1146851,564.0055542 
				265.1876831,562.1754761 			"/>
			<polyline class="st5" points="294.092041,553.1188354 294.1685181,553.2926025 297.986908,561.9406738 293.2941589,563.8174438 
				295.1714783,571.2316284 282.0797119,584.9804688 295.781311,571.4664307 293.5289612,564.0055542 298.4559631,562.1754761 			
				"/>
		</g>
		<path class="st2" d="M288.0966492,525.137146c-0.3547058,0.0126953-9.3865967-0.0357666-9.7611084-0.0219727
			c-0.4987183,0.0175781-0.8891907,0.4371338-0.8710327,0.9359131c0.0176086,0.4998779,0.436615,0.8902588,0.9358826,0.8721313
			c0.2227783-0.0077515,0.4201355-0.0984497,0.5724487-0.2364502c0.1314087,0.6411133,0.7071838,1.1135254,1.3829956,1.0892944
			c0.541626-0.0192261,0.9941711-0.3530273,1.198761-0.8182373c0.0775146,0.9095459,0.8551025,1.6084595,1.7783203,1.5754395
			c0.8517761-0.0302124,1.5353088-0.6741333,1.6452942-1.4918213c0.2612,0.3342896,0.6697388,0.5454712,1.1261597,0.5289917
			c0.6219482-0.0220337,1.1267395-0.4602661,1.2702332-1.0360107c0.1677246,0.2562256,0.4586182,0.4228516,0.7874756,0.4113159
			c0.4992676-0.0181274,0.8897095-0.4371338,0.8721008-0.9370117
			C289.0154724,525.5094604,288.5964966,525.1190186,288.0966492,525.137146z"/>
		<g>
			<defs>
				<path id="SVGID_45_" d="M291.3156738,551.2689819c0,5.0116577-4.0620422,28.7817383-9.0726013,28.7817383l0,0
					c-5.0116882,0-9.0737305-23.7700806-9.0737305-28.7817383V528.041687c0-5.0106201,4.0620422-9.0731812,9.0737305-9.0731812l0,0
					c5.0105591,0,9.0726013,4.062561,9.0726013,9.0731812V551.2689819z"/>
			</defs>
			<clipPath id="SVGID_24_">
				<use xlink:href="#SVGID_45_"  style="overflow:visible;"/>
			</clipPath>
			<g style="clip-path:url(#SVGID_24_);">
				<path class="st2" d="M280.0632935,555.7005005c-0.0462036,0-0.0890503-0.0054321-0.1347351-0.0065918l-0.2408142,0.2409058
					l1.4544373,2.8154297h2.2523499l1.3609619-2.9089355l-0.1347351-0.1408081H280.0632935z"/>
				<path class="st2" d="M281.0300293,558.421936c0,0-2.6576843,4.1439209-2.7027283,10.4500732
					c-0.0456543,6.3067017,0.6565857,11.0874634,0.6565857,11.0874634l6.0064392,1.689209
					c0,0,1.4450989-10.8399658,1.17453-13.3171997c-0.269989-2.4772339-2.4321289-9.6846313-2.4321289-9.6846313
					L281.0300293,558.421936z"/>
			</g>
		</g>
	</g>
	<g>
		<rect x="251.8028564" y="620.2316895" class="st55" width="60.3910027" height="5.7716341"/>
		<path class="st11" d="M312.2411499,617.6037598c0,1.8657837-1.5127258,3.378479-3.3785095,3.378479h-53.4931946
			c-1.8657837,0-3.3785248-1.5126953-3.3785248-3.378479v-27.0281372c0-1.8657837,1.5127411-3.37854,3.3785248-3.37854h53.4931946
			c1.8657837,0,3.3785095,1.5127563,3.3785095,3.37854V617.6037598z"/>
		<circle class="st3" cx="281.8818054" cy="604.7929688" r="3.1437106"/>
	</g>
	<path class="st6" d="M277.9511719,681.0802002c0,1.8657837-1.5127258,3.378479-3.3785095,3.378479h-0.7038574
		c-1.8657837,0-3.37854-1.5126953-3.37854-3.378479v-55.1824951c0-1.8657837,1.5127563-3.378479,3.37854-3.378479h0.7038574
		c1.8657837,0,3.3785095,1.5126953,3.3785095,3.378479V681.0802002z"/>
	<path class="st6" d="M292.5914001,669.8184204c0,1.8657837-1.5127258,3.37854-3.3785095,3.37854h-0.7038574
		c-1.8657837,0-3.3785095-1.5127563-3.3785095-3.37854v-43.9207153c0-1.8657837,1.5127258-3.378479,3.3785095-3.378479h0.7038574
		c1.8657837,0,3.3785095,1.5126953,3.3785095,3.378479V669.8184204z"/>
	<g>
		<path class="st2" d="M153.0736084,645.6491699c0,0.9243164-0.7483978,1.6727295-1.6722565,1.6727295l0,0
			c-0.923233,0-1.6721954-0.7484131-1.6721954-1.6727295v-42.6192017c0-0.9243164,0.7489624-1.6727295,1.6721954-1.6727295l0,0
			c0.9238586,0,1.6722565,0.7484131,1.6722565,1.6727295V645.6491699z"/>
		<path class="st8" d="M158.0379944,676.4556274c0,3.5753174-2.8990479,6.4738159-6.4738464,6.4738159h-14.8904266
			c-3.5754242,0-6.4732971-2.8984985-6.4732971-6.4738159v-56.322937c0-3.5748291,2.8978729-6.473877,6.4732971-6.473877h14.8904266
			c3.5747986,0,6.4738464,2.8990479,6.4738464,6.473877V676.4556274z"/>
		<path class="st56" d="M136.4575958,675.376709c0,0.7148438,0.5800934,1.2944336,1.2949982,1.2944336l0,0
			c0.7148285,0,1.2944183-0.5795898,1.2944183-1.2944336v-52.8707275c0-0.7148438-0.5795898-1.2944336-1.2944183-1.2944336l0,0
			c-0.7149048,0-1.2949982,0.5795898-1.2949982,1.2944336V675.376709z"/>
		<path class="st56" d="M142.9314117,675.376709c0,0.7148438,0.5801392,1.2944336,1.2949829,1.2944336l0,0
			c0.7154541,0,1.2949829-0.5795898,1.2949829-1.2944336v-52.8707275c0-0.7148438-0.5795288-1.2944336-1.2949829-1.2944336l0,0
			c-0.7148438,0-1.2949829,0.5795898-1.2949829,1.2944336V675.376709z"/>
		<path class="st56" d="M150.0530396,675.376709c0,0.7148438,0.5795898,1.2944336,1.2949829,1.2944336l0,0
			c0.7148438,0,1.2944336-0.5795898,1.2944336-1.2944336v-52.8707275c0-0.7148438-0.5795898-1.2944336-1.2944336-1.2944336l0,0
			c-0.7153931,0-1.2949829,0.5795898-1.2949829,1.2944336V675.376709z"/>
	</g>
</g>
</svg>
