<?xml version="1.0" encoding="utf-8"?>
<!-- Generator: Adobe Illustrator 19.1.0, SVG Export Plug-In . SVG Version: 6.00 Build 0)  -->
<svg version="1.1" id="Layer_1" xmlns="http://www.w3.org/2000/svg" xmlns:xlink="http://www.w3.org/1999/xlink" x="0px" y="0px"
	 viewBox="0 0 52 34" style="enable-background:new 0 0 52 34;" xml:space="preserve">
<style type="text/css">
	.st0{fill-rule:evenodd;clip-rule:evenodd;fill:#FBAE17;}
	.st1{fill:#FFFFFF;}
</style>
<g>
	<path class="st0" d="M50.5,7.9998169H44v-6.5C44,0.6714478,43.3283691,0,42.5,0C41.6715698,0,41,0.6714478,41,1.4998169v6.5
		h-6.499939C33.6715698,7.9998169,33,8.6714478,33,9.5c0,0.8283081,0.6715698,1.4998169,1.500061,1.4998169H41v6.5
		C41,18.3283081,41.6715698,19,42.5,19c0.8283691,0,1.5-0.6716919,1.5-1.5001831v-6.5h6.5c0.8283691,0,1.5-0.6715088,1.5-1.4998169
		C52,8.6714478,51.3283691,7.9998169,50.5,7.9998169z"/>
</g>
<g>
	<g>
		<path class="st1" d="M23.7186127,17.73629c0.0187511-0.3735027-0.1191483-0.7263699-0.3915367-0.9987144
			c-0.097435-0.0973911-0.20187-0.1716785-0.3127632-0.2225952c-0.4064312-0.2208004-0.9039268-0.2123661-1.3277168,0.0300121
			c-0.4442024,0.2539959-0.7044792,0.7112083-0.6856384,1.1996861l0.0034103,1.7322197
			c-0.019022,0.3729649,0.1205826,0.7834873,0.3872299,1.0630093C21.6478367,20.8084373,21.9957695,21,22.3534374,21
			c0.0113945,0,0.022789,0,0.0341835,0c0.366415,0,0.7230511-0.209034,0.9811745-0.4911575
			c0.2530098-0.2764282,0.3846283-0.6572819,0.3649807-1.0159817L23.7186127,17.73629z"/>
		<path class="st1" d="M23.7186127,11.73629c0.0187511-0.3735027-0.1191483-0.7263708-0.3915367-0.9987144
			c-0.097435-0.0973911-0.20187-0.1716785-0.3127632-0.2225952c-0.4064312-0.2207994-0.9039268-0.2123661-1.3277168,0.0300112
			c-0.4442024,0.2539968-0.7044792,0.7112083-0.6856384,1.199688l0.0034103,1.7322178
			c-0.019022,0.3729649,0.1205826,0.7834883,0.3872299,1.0630102C21.6478367,14.8084383,21.9957695,15,22.3534374,15
			c0.0113945,0,0.022789,0,0.0341835,0c0.366415,0,0.7230511-0.2090349,0.9811745-0.4911585
			c0.2530098-0.2764263,0.3846283-0.6572809,0.3649807-1.0159798L23.7186127,11.73629z"/>
		<path class="st1" d="M23.7186127,23.73629c0.0187511-0.3735027-0.1191483-0.7263699-0.3915367-0.9987144
			c-0.097435-0.0973911-0.20187-0.1716785-0.3127632-0.2225952c-0.4064312-0.2208004-0.9039268-0.2123661-1.3277168,0.0300121
			c-0.4442024,0.2539959-0.7044792,0.7112083-0.6856384,1.1996861l0.0034103,1.7322197
			c-0.019022,0.3729649,0.1205826,0.7834873,0.3872299,1.0630093C21.6478367,26.8084373,21.9957695,27,22.3534374,27
			c0.0113945,0,0.022789,0,0.0341835,0c0.366415,0,0.7230511-0.209034,0.9811745-0.4911575
			c0.2530098-0.2764282,0.3846283-0.6572819,0.3649807-1.0159817L23.7186127,23.73629z"/>
		<path class="st1" d="M23.7186127,29.73629c0.0187511-0.3735027-0.1191483-0.7263699-0.3915367-0.9987144
			c-0.097435-0.0973911-0.20187-0.1716785-0.3127632-0.2225952c-0.4064312-0.2208004-0.9039268-0.2123661-1.3277168,0.0300121
			c-0.4442024,0.2539959-0.7044792,0.7112083-0.6856384,1.1996861l0.0034103,1.7322197
			c-0.019022,0.3729649,0.1205826,0.7834854,0.3872299,1.0630074C21.6478367,32.8084373,21.9957695,33,22.3534374,33
			c0.0113945,0,0.022789,0,0.0341835,0c0.366415,0,0.7230511-0.209034,0.9811745-0.4911575
			c0.2530098-0.2764282,0.3846283-0.6572819,0.3649807-1.0159817L23.7186127,29.73629z"/>
	</g>
	<path class="st1" d="M43.7077026,26.3209229c-1.19104-0.0664673-2.2957764-0.5769653-3.1107788-1.4373779
		c-0.8195801-0.8653564-1.2716675-2.008728-1.2731323-3.2197876c-0.0004272-0.3311768,0.0407104-0.6546631,0.1069336-0.9711304
		c-0.8868408-0.243042-1.7365112-0.5732422-2.5334473-0.9942627c-0.1772461,0.6332397-0.2939453,1.2905884-0.2906494,1.9765015
		c-0.0090332,3.4302979,2.3775635,6.3815308,5.6644897,7.1560669l0.0014648,1.2161255
		c0.0003662,0.3139648-0.1157227,0.5092773-0.3269043,0.7203979C41.7349854,30.9780273,41.4468994,31,41.1337891,31
		c-0.0006104,0-0.0012207,0-0.0018921,0L3.8579724,31.1583252c-0.6193848-0.0005493-1.111084-0.505127-1.1221313-1.1500244
		l0.0064087-1.2751465c1.4667966-0.3497314,2.7970579-1.1286011,3.8039548-2.2390747
		c1.2025146-1.3262329,1.8637085-3.0447388,1.8618164-4.8421021c-0.008606-1.8013306-0.6744995-3.5281372-1.875061-4.8622437
		c-1.0114746-1.1240845-2.3452148-1.9099731-3.8142698-2.2598267l-0.001709-1.3348389
		C2.7257092,12.5549316,3.204591,12,3.8331311,12c0.0003052,0,0.0007324,0,0.0010376,0l26.8824768,0.1634521
		c-0.2932739-0.9890137-0.4606781-2.0301514-0.5005341-3.1046143L4.0702448,9.1998901
		C3.9812558,9.1841431,3.876157,9.2905273,3.7634861,9.3021851C2.7675145,9.319397,1.8344719,9.7717285,1.129638,10.4765015
		c-0.729187,0.729126-1.1303701,1.7312622-1.1295767,2.7700806l0.0026555,2.4003906
		c0.0012817,0.7141724,0.5957491,1.326416,1.3058932,1.3456421c2.4420776,0.1569824,4.3546677,2.1970215,4.3576584,4.6474609
		c0.0028687,2.4449463-1.9102819,4.4824219-4.3585854,4.644165c-0.335144,0.0095825-0.6641254,0.1540527-0.9077167,0.3980713
		c-0.2520142,0.2525024-0.3961801,0.5966187-0.3955698,0.9474487l0.0148921,2.3688354
		c0.0023193,2.1347656,1.7299192,3.9213257,3.8513181,3.923584L41.1437378,34c0.0011597,0,0.0021973,0,0.0032349,0
		c1.02948,0,1.9954834-0.4470215,2.7200317-1.1717529c0.7252197-0.7254028,1.1240234-1.7161865,1.1229248-2.7419434L45,27.6953735
		C44.9986572,26.9788818,44.4162598,26.3555298,43.7077026,26.3209229z"/>
</g>
<g>
</g>
<g>
</g>
<g>
</g>
<g>
</g>
<g>
</g>
<g>
</g>
<g>
</g>
<g>
</g>
<g>
</g>
<g>
</g>
<g>
</g>
<g>
</g>
<g>
</g>
<g>
</g>
<g>
</g>
</svg>
