<?xml version="1.0" encoding="utf-8"?>
<!-- Generator: Adobe Illustrator 19.1.0, SVG Export Plug-In . SVG Version: 6.00 Build 0)  -->
<svg version="1.1" id="Layer_1" xmlns="http://www.w3.org/2000/svg" xmlns:xlink="http://www.w3.org/1999/xlink" x="0px" y="0px"
	 viewBox="0 0 11 35" style="enable-background:new 0 0 11 35;" xml:space="preserve">
<style type="text/css">
	.st0{fill:#FFFFFF;}
</style>
<g>
	<path class="st0" d="M2.0470719,27.3829994c-0.0021415-0.1661587-0.1348586-0.3967419-0.2768135-0.4845486
		c-1.1522398-0.7127304-1.7678571-1.7208424-1.7695205-3.0838375L0,19.1108456
		c0.0005223-1.9642735,1.2699577-3.4350042,3.2299364-3.5507765l4.7238207,0.0185661
		C9.6547632,15.6813784,10.9870672,17.1693249,11,18.8710175l-0.0053482,5.1612358
		c-0.0159721,1.2323761-0.6368065,2.1794395-1.6956606,2.8024902c-0.2852392,0.167841-0.3611631,0.3394775-0.3599615,0.6514397
		l0.007062,4.3436546c0,1.6467514-1.1902485,2.8426208-2.8278556,2.844532c0,0.0000038-1.2966738-0.0001984-1.2966738-0.0002022
		c-1.5428395-0.0062256-2.7575989-1.2162743-2.7612634-2.7569618L2.0470719,27.3829994z"/>
	<circle class="st0" cx="5.4999614" cy="11.4310999" r="3.1054699"/>
</g>
<g>
</g>
<g>
</g>
<g>
</g>
<g>
</g>
<g>
</g>
<g>
</g>
<g>
</g>
<g>
</g>
<g>
</g>
<g>
</g>
<g>
</g>
<g>
</g>
<g>
</g>
<g>
</g>
<g>
</g>
</svg>
