<?xml version="1.0" encoding="utf-8"?>
<!-- Generator: Adobe Illustrator 19.1.0, SVG Export Plug-In . SVG Version: 6.00 Build 0)  -->
<svg version="1.1" id="Layer_1" xmlns="http://www.w3.org/2000/svg" xmlns:xlink="http://www.w3.org/1999/xlink" x="0px" y="0px"
	 viewBox="-472 191.6801147 334.2698975 418.3198853" style="enable-background:new -472 191.6801147 334.2698975 418.3198853;"
	 xml:space="preserve">
<style type="text/css">
	.st0{fill:#FFFFFF;}
</style>
<path class="st0" d="M-304.3712769,610l-7.9199219-5.7598267c-33.8399048-23.7606812-115.9198914-89.999939-150.4804993-190.0800781
	c-20.8798828-61.2001953-5.7597961-127.4398804,39.6006165-173.519989
	c31.6796875-31.680191,73.4393921-48.9599915,118.0800781-48.9599915c44.6395874,0,86.3994141,17.2798004,118.0800781,48.9599915
	c46.0800171,46.0801086,61.1992188,112.3197937,39.5996704,173.519989l-0.7198486,1.4395142
	c-38.1600952,108-131.039978,176.4003906-149.7597046,189.3602905L-304.3712769,610L-304.3712769,610z M-304.3712769,220.4799194
	c-36.7197266,0-71.2803345,14.3998871-97.9199219,41.0400696c-38.1601868,38.1601257-50.4003906,92.8804016-33.1200867,143.2798157
	c29.5205078,84.9598999,96.4803772,144,131.0400085,169.9198608
	c27.3604126-20.8798828,99.3604126-80.6396484,130.3202515-168.4794312l0.7197266-1.4404297
	c17.2802734-50.3994141,5.0401001-105.8399048-33.1201172-144
	C-233.0910034,234.8798065-267.6516113,220.4799194-304.3712769,220.4799194L-304.3712769,220.4799194z M-304.3712769,424.2402344
	c-14.4003906,0-28.0801392-5.7598267-38.1602173-15.8398438c-20.8797607-20.8798828-20.8797607-55.4404907,0-77.0405884
	c10.0800781-10.0795898,23.7598267-15.8397827,38.1602173-15.8397827s28.0800781,5.7601929,38.1601562,15.8397827
	c20.8798218,20.8804321,20.8798218,55.4400024,0,77.0405884
	C-276.2911987,418.4804077-289.9708862,424.2402344-304.3712769,424.2402344z M-304.3712769,343.5996094
	c-6.4805298,0-12.960022,2.8807983-18,7.9208984c-10.0801392,10.0791016-10.0801392,25.9199219,0,36
	c10.0800781,10.0791016,25.9198608,10.0791016,35.2802734,0c10.0801392-10.0800781,10.0801392-25.9208984,0-36
	C-291.4112549,346.4804077-297.8908081,343.5996094-304.3712769,343.5996094z"/>
</svg>
