<svg id="Layer_1" data-name="Layer 1" xmlns="http://www.w3.org/2000/svg" viewBox="0 0 11 15.00071"><defs><style>.cls-1{fill:#41b5e8;}</style></defs><title>icon-bookmark-blue</title><g id="bookmark-2-icon"><path class="cls-1" d="M10.5,15a0.497,0.497,0,0,1-.31543-0.1123L5.5,11.07129,0.81592,14.8877A0.50047,0.50047,0,0,1,0,14.5V0.5A0.49971,0.49971,0,0,1,.5,0h10a0.49971,0.49971,0,0,1,.5.5v14a0.49872,0.49872,0,0,1-.28516.45117A0.48983,0.48983,0,0,1,10.5,15Zm-5-5.07324a0.49858,0.49858,0,0,1,.31592.1123L10,13.44824V1H1V13.44824l4.18408-3.40918A0.49858,0.49858,0,0,1,5.5,9.92676Z"/></g></svg>