<?xml version="1.0" encoding="utf-8"?>
<!-- Generator: Adobe Illustrator 19.1.0, SVG Export Plug-In . SVG Version: 6.00 Build 0)  -->
<svg version="1.1" id="Layer_1" xmlns="http://www.w3.org/2000/svg" xmlns:xlink="http://www.w3.org/1999/xlink" x="0px" y="0px"
	 viewBox="0 0 16 16" style="enable-background:new 0 0 16 16;" xml:space="preserve">
<style type="text/css">
	.st0{fill-rule:evenodd;clip-rule:evenodd;fill:#FCB131;}
	.st1{fill-rule:evenodd;clip-rule:evenodd;fill:#FFFFFF;}
</style>
<g>
	<circle class="st0" cx="8" cy="8" r="8"/>
	<path class="st1" d="M11.5116072,4.488338c0.2839994,0.2842183,0.2839994,0.7445817,0,1.0285091L5.5169163,11.511611
		c-0.2840004,0.283927-0.7445092,0.283927-1.0285091,0c-0.2840729-0.2842188-0.2840729-0.7445822,0-1.0285091L10.483098,4.488338
		C10.7670975,4.2043381,11.2275343,4.2043381,11.5116072,4.488338z"/>
	<path class="st1" d="M4.4884071,4.488338c0.2839999-0.2839999,0.7445087-0.2839999,1.0285091,0l5.9946909,5.9947639
		c0.2839994,0.283927,0.2839994,0.7442904,0,1.0285091c-0.2840729,0.283927-0.7445097,0.283927-1.0285091,0L4.4884071,5.5168471
		C4.2043343,5.2329197,4.2043343,4.7725563,4.4884071,4.488338z"/>
</g>
</svg>
