<svg id="Layer_1" data-name="Layer 1" xmlns="http://www.w3.org/2000/svg" viewBox="0 0 11.67579 9.35106"><defs><style>.cls-1{fill:#41b5e8;}</style></defs><title>icon-swap-blue</title><path class="cls-1" d="M5.353,6.34257a0.54251,0.54251,0,0,0-.78568-0.0101L3.5019,7.39719V0.57488a0.58452,0.58452,0,0,0-1.16888,0V7.63865L0.9933,6.35794a0.59173,0.59173,0,0,0-.82678.0101,0.57353,0.57353,0,0,0,.00466.81285L2.23287,9.18776a0.57089,0.57089,0,0,0,.58423.12688,0.56711,0.56711,0,0,0,.462-0.15239L5.343,7.15545A0.57341,0.57341,0,0,0,5.353,6.34257Z" transform="translate(0)"/><path class="cls-1" d="M11.50647,2.17015L9.442,0.16327A0.57327,0.57327,0,0,0,8.8564.03642a0.56855,0.56855,0,0,0-.46269.15239L6.32947,2.19561a0.57341,0.57341,0,0,0-.01034.81288,0.54678,0.54678,0,0,0,.7893.0101l1.069-1.06469V8.77618a0.58452,0.58452,0,0,0,1.16888,0V1.71241l1.33611,1.28071a0.58952,0.58952,0,0,0,.825-0.0101A0.57357,0.57357,0,0,0,11.50647,2.17015Z" transform="translate(0)"/></svg>