<svg id="Layer_1" data-name="Layer 1" xmlns="http://www.w3.org/2000/svg" viewBox="0 0 26.40921 17.88965"><defs><style>.cls-1{fill:#41b5e8;}</style></defs><title>icon-filters</title><path class="cls-1" d="M9.067,6.48109a0.88387,0.88387,0,0,0-.881-0.88358V5.59686H0.881V5.59751a0.88358,0.88358,0,0,0,0,1.76716V7.36532H8.18594V7.36467A0.88391,0.88391,0,0,0,9.067,6.48109Z"/><path class="cls-1" d="M12.3792,11.01806a0.88387,0.88387,0,0,0-.881-0.88358V10.13383H0.881v0.00065a0.88358,0.88358,0,0,0,0,1.76716v0.00065H11.49816V11.90164A0.88391,0.88391,0,0,0,12.3792,11.01806Z"/><path class="cls-1" d="M12.3792,15.555a0.88387,0.88387,0,0,0-.881-0.88358V14.67081H0.881v0.00065a0.88358,0.88358,0,0,0,0,1.76716v0.00065H11.49816V16.43862A0.88391,0.88391,0,0,0,12.3792,15.555Z"/><path class="cls-1" d="M26.26157,1.07227A2.1919,2.1919,0,0,0,24.09946,0H10.827A2.193,2.193,0,0,0,8.66489,1.07129a2.09586,2.09586,0,0,0,.55859,2.3125l5.083,6.03516v7.73877a0.73206,0.73206,0,0,0,1.13086.61377L20.286,14.626a0.7277,0.7277,0,0,0,.333-0.61377V9.41895l5.084-6.03516A2.0945,2.0945,0,0,0,26.26157,1.07227ZM19.326,8.68164a0.73571,0.73571,0,0,0-.1709.47021v4.46289l-3.38379,2.19482V9.15186a0.73812,0.73812,0,0,0-.17187-0.47168L10.3436,2.44043a1.00518,1.00518,0,0,1-.35156-0.751,1.05444,1.05444,0,0,1,.835-0.2251H24.09946a1.05728,1.05728,0,0,1,.835.22461,1.00533,1.00533,0,0,1-.35156.75146Z"/></svg>