<?xml version="1.0" encoding="utf-8"?>
<!-- Generator: Adobe Illustrator 19.1.0, SVG Export Plug-In . SVG Version: 6.00 Build 0)  -->
<svg version="1.1" id="Layer_1" xmlns="http://www.w3.org/2000/svg" xmlns:xlink="http://www.w3.org/1999/xlink" x="0px" y="0px"
	 viewBox="-334 95.4393921 610.5600586 610.5606079" style="enable-background:new -334 95.4393921 610.5600586 610.5606079;"
	 xml:space="preserve">
<style type="text/css">
	.st0{fill:#FFFFFF;}
</style>
<path class="st0" d="M-28.7201843,95.4393921C-197.2007141,95.4393921-334,232.2396698-334,400.7196655
	C-334,569.2001953-197.2007141,706-28.7201843,706s305.2802734-136.7998047,305.2802734-305.2803345
	C276.5600891,232.2396698,139.7602844,95.4393921-28.7201843,95.4393921z M-28.7201843,672.1591797
	c-149.7598267,0-271.4399109-121.6796875-271.4399109-271.4395142S-178.480011,129.2797852-28.7201843,129.2797852
	s271.4394531,121.6800995,271.4394531,271.4398804S121.0395813,672.1591797-28.7201843,672.1591797z"/>
<path class="st0" d="M82.1596985,381.9999695h-92.8798828V208.4794922c0-10.0796051-7.9199219-18.7198181-18.7197266-18.7198181
	c-10.0800781,0-18.7197876,7.9199982-18.7197876,18.7198181v192.2401733l0,0l0,0
	c0,10.0801086,7.9199829,18.7197266,18.7197876,18.7197266H82.1596985c10.0801392,0,18.7196655-7.9199219,18.7196655-18.7197266
	C100.1596985,390.6395874,92.2398376,381.9999695,82.1596985,381.9999695z"/>
</svg>
