<?xml version="1.0" encoding="utf-8"?>
<!-- Generator: Adobe Illustrator 18.0.0, SVG Export Plug-In . SVG Version: 6.00 Build 0)  -->
<!DOCTYPE svg PUBLIC "-//W3C//DTD SVG 1.1//EN" "http://www.w3.org/Graphics/SVG/1.1/DTD/svg11.dtd">
<svg version="1.1" id="Layer_1" xmlns="http://www.w3.org/2000/svg" xmlns:xlink="http://www.w3.org/1999/xlink" x="0px" y="0px"
	 width="62px" height="67.4px" viewBox="0 0 62 67.4" enable-background="new 0 0 62 67.4" xml:space="preserve">
<circle fill="#41AF66" cx="31" cy="31" r="31"/>
<rect x="29.7" y="43.7" transform="matrix(0.9951 9.902798e-02 -9.902798e-02 0.9951 5.6467 -3.5059)" fill="#EFBB89" width="16.8" height="22.9"/>
<path fill="#FBC78E" d="M41.7,25.3c0.1,0.2,5.8,13.9,5.8,13.9l-7.6,1.2l-5.1-9.6"/>
<circle fill="#FBC78E" cx="38.4" cy="42.1" r="9.5"/>
<path fill="#112D47" d="M37.3,49.7c-0.3,1.3-1.6,2.2-2.9,1.9l-15.2-3.3c-1.3-0.3-2.2-1.6-1.9-2.9l6.1-28.3c0.3-1.3,1.6-2.2,2.9-1.9
	l15.2,3.3c1.3,0.3,2.2,1.6,1.9,2.9L37.3,49.7z"/>
<circle fill="#174160" cx="27.2" cy="46.3" r="2.6"/>
<path fill="#189B38" d="M37.1,41.9c-0.3,1.3-1.6,2.2-2.9,1.9l-11.3-2.4c-1.3-0.3-2.2-1.6-1.9-2.9l4-18.4c0.3-1.3,1.6-2.2,2.9-1.9
	l11.3,2.4c1.3,0.3,2.2,1.6,1.9,2.9L37.1,41.9z"/>
<path fill="#FBC78E" d="M41.4,49.8c-0.6,1.2-2.1,1.7-3.3,1.1l-8.9-4.4c-1.2-0.6-1.7-2.1-1.1-3.3l0.3-0.7c0.6-1.2,2.1-1.7,3.3-1.1
	l8.9,4.4c1.2,0.6,1.7,2.1,1.1,3.3L41.4,49.8z"/>
<g>
	<circle fill="#FFCE03" cx="31" cy="30.8" r="4.2"/>
	<path fill="#189B38" d="M32.6,31c-0.2,0.8-1,1.3-1.9,1.2c-0.8-0.2-1.4-1-1.3-1.8l-0.6-0.1c-0.2,1.2,0.6,2.3,1.8,2.6
		c1.2,0.2,2.3-0.5,2.6-1.7L32.6,31z"/>
</g>
</svg>
