<svg id="Layer_1" data-name="Layer 1" xmlns="http://www.w3.org/2000/svg" width="32" height="32" viewBox="0 0 32 32"><title>facilities</title><path d="M30.88248,20.16352a5.66317,5.66317,0,0,0-1.62784-3.88688,5.50982,5.50982,0,0,0-3.88688-1.62784,5.8739,5.8739,0,0,0-1.7275.26577,4.94268,4.94268,0,0,0-1.196.56476L20.451,12.95451l1.39529-3.02313h0.79731a0.249,0.249,0,0,0,.16611-0.03322,0.5686,0.5686,0,0,0,.39865-0.53154,0.58216,0.58216,0,0,0-.56476-0.56476H19.12217a0.56476,0.56476,0,0,0,0,1.12952h1.46173L19.42116,12.423l-8.57108-.86375L11.91316,8.669a0.61079,0.61079,0,0,0-.06644-0.53154,0.50269,0.50269,0,0,0-.4651-0.23255H8.02628a0.56476,0.56476,0,0,0,0,1.12952h2.558L9.58768,11.825,8.292,14.91456A5.36058,5.36058,0,0,0,6.66421,14.682a5.87392,5.87392,0,0,0-1.7275.26577A5.51527,5.51527,0,0,0,6.631,25.71146a5.87392,5.87392,0,0,0,1.7275-.26577,5.52519,5.52519,0,0,0,3.78722-5.249,5.374,5.374,0,0,0-1.62784-3.88688,5.44933,5.44933,0,0,0-1.22919-.93019l0.96342-2.259,6.1127,6.97646h0l0.09966,0.09966h0c0.03322,0.03322.09966,0.03322,0.13289,0.06644H16.697l3.08957,0.16611A5.55121,5.55121,0,0,0,30.88248,20.16352Zm-19.86629.03322a4.35909,4.35909,0,0,1-2.98991,4.15265,4.72111,4.72111,0,0,1-1.39529.23255A4.3825,4.3825,0,0,1,5.2357,16.04408,4.72111,4.72111,0,0,1,6.631,15.81153a4.4678,4.4678,0,0,1,1.16274.16611L6.09945,19.96419a0.52639,0.52639,0,0,0,.299.73087,0.42357,0.42357,0,0,0,.39865,0,0.5458,0.5458,0,0,0,.33221-0.33221L8.82359,16.3763A4.42354,4.42354,0,0,1,11.01619,20.19674Zm7.90665-6.64424-2.32549,5.11607-5.14929-5.91338Zm0.99664,0.598,1.62784,2.05972a5.50388,5.50388,0,0,0-1.62784,3.08957l-2.29226-.13288Zm4.21909,5.38184L21.049,19.36621a4.3499,4.3499,0,0,1,1.16274-2.259Zm-3.156.96342,4.352,0.26577a0.42136,0.42136,0,0,0,.19933-0.03322,0.52781,0.52781,0,0,0,.33221-0.26577,0.55791,0.55791,0,0,0-.06644-0.598l-2.69092-3.42179a4.07679,4.07679,0,0,1,.86375-0.39865,4.72111,4.72111,0,0,1,1.39529-.23255,4.3825,4.3825,0,0,1,1.39529,8.53785,4.72111,4.72111,0,0,1-1.39529.23255A4.44364,4.44364,0,0,1,20.98256,20.49573Z"/></svg>