<svg id="Layer_1" data-name="Layer 1" xmlns="http://www.w3.org/2000/svg" width="166.6995" height="27.44344" viewBox="0 0 166.6995 27.44344"><defs><style>.cls-1{fill:none;}</style></defs><title>facilities</title><path d="M54.9839,22.77565a5.79974,5.79974,0,1,1-8.12106-8.23925,0.63285,0.63285,0,0,0-.82013-0.96406,7.0659,7.0659,0,0,0,4.26145,12.43949c0.10806,0.00507.21527,0.0076,0.32248,0.0076A7.03694,7.03694,0,0,0,55.93656,23.611,0.63351,0.63351,0,0,0,54.9839,22.77565ZM49.16915,10.07319a2.0366,2.0366,0,1,0-2.03618-2.037A2.03918,2.03918,0,0,0,49.16915,10.07319Zm0-2.80776a0.77011,0.77011,0,1,1-.7699.7699A0.77037,0.77037,0,0,1,49.16915,7.26543Zm9.83012,15.2941-2.92552-5.10648a0.63666,0.63666,0,0,0-.62892-0.31319l-4.90683.62428L49.94538,14.6052A5.97908,5.97908,0,0,0,54.56687,16.129a0.633,0.633,0,0,0-.076-1.26375,4.863,4.863,0,0,1-5.17232-3.59665,0.633,0.633,0,0,0-1.238.26339l1.32368,7.05233a0.6357,0.6357,0,0,0,.70152.512l5.07989-.6458,2.71659,4.73968A0.63268,0.63268,0,1,0,58.99927,22.55954Z" transform="translate(-5.37596 -2.31412)"/><path d="M15.96727,13.4131a10.99978,10.99978,0,0,0-7.753,3.4208,0.884,0.884,0,0,0-.0883,1.1166,0.78351,0.78351,0,0,0,.1169.13672,0.88875,0.88875,0,0,0,1.25307-.0286,9.29859,9.29859,0,0,1,13.1501-.299,0.88646,0.88646,0,0,0,1.225-1.28167A11.012,11.012,0,0,0,15.96727,13.4131Z" transform="translate(-5.37596 -2.31412)"/><path d="M5.53153,14.71961a0.841,0.841,0,0,0,.11966.13672,0.88389,0.88389,0,0,0,1.25332-.0286,12.88554,12.88554,0,0,1,18.22008-.41292,0.8854,0.8854,0,1,0,1.22322-1.28041,14.65847,14.65847,0,0,0-20.725.47012A0.88581,0.88581,0,0,0,5.53153,14.71961Z" transform="translate(-5.37596 -2.31412)"/><path d="M10.96577,20.21656a0.88591,0.88591,0,0,0-.0883,1.1151,1.05309,1.05309,0,0,0,.1169.13672,0.88519,0.88519,0,0,0,1.25332-.0286,5.50215,5.50215,0,0,1,7.76979-.1751A0.88585,0.88585,0,0,0,21.2407,19.983,7.27636,7.27636,0,0,0,10.96577,20.21656Z" transform="translate(-5.37596 -2.31412)"/><circle cx="10.9375" cy="21.35836" r="1.25433"/><path d="M82.13689,19.33669A5.14272,5.14272,0,0,1,77,14.19981V11.93958a0.61639,0.61639,0,0,1,.61643-0.61643h9.04092a0.61639,0.61639,0,0,1,.61643.61643v2.26023A5.14272,5.14272,0,0,1,82.13689,19.33669Zm-3.904-6.78069v1.6438a3.904,3.904,0,1,0,7.80807,0V12.556H78.23285Z" transform="translate(-5.37596 -2.31412)"/><path d="M79.05475,12.556a0.61639,0.61639,0,0,1-.61643-0.61643V8.652a0.61643,0.61643,0,0,1,1.23285,0v3.28761A0.61639,0.61639,0,0,1,79.05475,12.556Z" transform="translate(-5.37596 -2.31412)"/><path d="M85.219,12.556a0.61639,0.61639,0,0,1-.61643-0.61643V8.652a0.61643,0.61643,0,0,1,1.23285,0v3.28761A0.61639,0.61639,0,0,1,85.219,12.556Z" transform="translate(-5.37596 -2.31412)"/><path d="M84.60259,25.70643a2.918,2.918,0,0,1-3.08213-3.08213v-3.904a0.61643,0.61643,0,0,1,1.23285,0v3.904a1.69917,1.69917,0,0,0,1.84928,1.84928c0.87779,0,1.25854-.77341,1.807-2.03523,0.56074-1.29039,1.25874-2.89618,3.12446-2.89618a2.94882,2.94882,0,0,1,3.08213,3.08213,0.61643,0.61643,0,0,1-1.23285,0A1.71908,1.71908,0,0,0,89.534,20.775c-1.00621,0-1.41305.81882-1.99373,2.15462C87.00275,24.16681,86.33352,25.70643,84.60259,25.70643Z" transform="translate(-5.37596 -2.31412)"/><path d="M135.88248,20.16352a5.66317,5.66317,0,0,0-1.62784-3.88688,5.50982,5.50982,0,0,0-3.88688-1.62784,5.87391,5.87391,0,0,0-1.7275.26577,4.94268,4.94268,0,0,0-1.196.56476L125.451,12.95451l1.39529-3.02313h0.79731a0.249,0.249,0,0,0,.16611-0.03322,0.5686,0.5686,0,0,0,.39865-0.53154,0.58216,0.58216,0,0,0-.56476-0.56476h-3.52145a0.56476,0.56476,0,0,0,0,1.12952h1.46173L124.42116,12.423l-8.57108-.86375L116.91316,8.669a0.61079,0.61079,0,0,0-.06644-0.53154,0.50269,0.50269,0,0,0-.4651-0.23255h-3.35534a0.56476,0.56476,0,0,0,0,1.12952h2.558L114.58768,11.825,113.292,14.91456a5.36058,5.36058,0,0,0-1.62784-.23255,5.87392,5.87392,0,0,0-1.7275.26577A5.51527,5.51527,0,0,0,111.631,25.71146a5.87392,5.87392,0,0,0,1.7275-.26577,5.52519,5.52519,0,0,0,3.78722-5.249,5.374,5.374,0,0,0-1.62784-3.88688,5.44933,5.44933,0,0,0-1.22919-.93019l0.96342-2.259,6.1127,6.97646h0l0.09966,0.09966h0c0.03322,0.03322.09966,0.03322,0.13289,0.06644H121.697l3.08957,0.16611A5.55121,5.55121,0,0,0,135.88248,20.16352Zm-19.86629.03322a4.35909,4.35909,0,0,1-2.98991,4.15265,4.72111,4.72111,0,0,1-1.39529.23255,4.3825,4.3825,0,0,1-1.39529-8.53785,4.72111,4.72111,0,0,1,1.39529-.23255,4.4678,4.4678,0,0,1,1.16274.16611l-1.69428,3.98655a0.52639,0.52639,0,0,0,.299.73087,0.42357,0.42357,0,0,0,.39865,0,0.5458,0.5458,0,0,0,.33221-0.33221l1.69428-3.98655A4.42354,4.42354,0,0,1,116.01619,20.19674Zm7.90665-6.64424-2.32549,5.11607-5.14929-5.91338Zm0.99664,0.598,1.62784,2.05972a5.50388,5.50388,0,0,0-1.62784,3.08957l-2.29226-.13288Zm4.21909,5.38184-3.08957-.16611a4.3499,4.3499,0,0,1,1.16274-2.259Zm-3.156.96342,4.352,0.26577a0.42136,0.42136,0,0,0,.19933-0.03322,0.52781,0.52781,0,0,0,.33221-0.26577,0.55791,0.55791,0,0,0-.06644-0.598l-2.69092-3.42179a4.0768,4.0768,0,0,1,.86375-0.39865,4.72111,4.72111,0,0,1,1.39529-.23255,4.3825,4.3825,0,0,1,1.39529,8.53785,4.72111,4.72111,0,0,1-1.39529.23255A4.44364,4.44364,0,0,1,125.98256,20.49573Z" transform="translate(-5.37596 -2.31412)"/><polyline class="cls-1" points="139.256 27.443 139.256 0 166.7 0 166.7 27.443"/><path d="M162.20708,10.00134h-8.94162l-0.87678-6.02766a0.14722,0.14722,0,0,0-.145-0.12612l-0.02113.0016-0.6527.09411a0.1474,0.1474,0,0,0-.1242.16614l0.85693,5.89162h0l0.13861,0.953,0.96641,6.64547a7.81574,7.81574,0,0,1-1.33326.13c-0.09347,0-.17414-0.00256-0.242-0.00608L150.84767,10.954h0.77915l-0.13861-.953h-1.69466a0.14679,0.14679,0,0,0-.14693.14629v0.66007a0.14707,0.14707,0,0,0,.14693.14661h0.09091l2.02821,13.94589a0.14718,0.14718,0,0,0,.145.1258l0.02113-.00128,0.02593-.00384a0.1207,0.1207,0,0,0,.02593.00544h7.57571a0.13817,0.13817,0,0,0,.05122-0.01056l0.06114,0.009,0.02113,0.00128a0.14693,0.14693,0,0,0,.145-0.1258L162.0131,10.954h0.19367a0.147,0.147,0,0,0,.14661-0.14661V10.14731A0.14639,0.14639,0,0,0,162.20708,10.00134Zm-3.06473,14.07138h-6.38683l-0.76986-5.293c0.02913,0.00064.0573,0.00128,0.08867,0.00128a12.062,12.062,0,0,0,4.18671-.90239,11.01868,11.01868,0,0,1,3.81475-.83453c0.03169,0,.05986.001,0.08835,0.00128Zm1.17416-8.07444c-0.073-.0032-0.15173-0.00544-0.24072-0.00544a12.05428,12.05428,0,0,0-4.187.90239,15.51091,15.51091,0,0,1-1.548.49873l-0.93664-6.44h7.64582Z" transform="translate(-5.37596 -2.31412)"/></svg>