<svg id="Layer_1" xmlns="http://www.w3.org/2000/svg" xmlns:xlink="http://www.w3.org/1999/xlink" viewBox="0 0 100 100"><style>.st0{fill:transparent}.st1{fill:#fbbf00}.st2{clip-path:url(#SVGID_2_)}.st3{fill:#979797}.st4{fill:#84405c}.st5{fill:#f1dc0f}.st6{fill:#f7c6db}.st7{fill:#446b8f}.st8{fill:#f1af23}.st9{fill:#27272a}.st10{fill:#f0af24}.st11{fill:#124465}.st12{fill:#f6a0c1}.st13{fill:#121649}.st14{fill:#1f1f23}.st15{fill:#f9d9e7}.st16{fill:#fefefe}.st17{fill:#373635}.st18{fill:none;stroke:#363636;stroke-width:.7;stroke-linecap:round;stroke-linejoin:round;stroke-miterlimit:10}.scales{-webkit-transform:scale(2.6);z-index:100}</style><path class="st0" d="M52.16 19.202c-6.324-.14-14.14-1.132-17.623 0-3.482 1.133-6.68 1.84-7.675 4.246s3.695 5.66 3.91 6.58-.144 6.014.07 8.066.78 4.245.426 4.953a5.167 5.167 0 0 1-3.198 1.132c.404-.828.855-1.63 1.35-2.407 0 0-.213-3.396-.213-3.962 0-.565-3.91-2.9-5.046-1.06-1.136 1.84 0-6.864-1.35-7.783-1.35-.92-2.785-1.707-3.53-.622-.747 1.086-.59 5.433-1.088 5.645-.498.212-1.492-.92-1.35-2.547.142-1.627.07-4.387-.782-4.033s-2.735-1.557-3.748 0c-1.013 1.557-3.145 3.114-3.5 4.033-.356.92-2.914 6.156-1.564 8.774s1.634 4.882 3.056 5.802 3.482 10.116 5.187 11.885 5.83 6.015 8.387 6.298 5.543-.354 5.97 0c.426.353-.338 15-.338 15a2.963 2.963 0 0 0 .976 4.528c3.056 1.7 15.35 5.45 19.26 5.237s18.12-2.547 23.948-6.227c5.827-3.68 5.188-14.434 5.188-14.434s.71-10.825.497-14.08c-.214-3.255-9.808-10.613-9.737-11.816.07-1.203 1.635-4.316 1.706-5.943a33.914 33.914 0 0 0-.925-5.236c-.07-.848 3.198-2.97 3.766-4.245a4.312 4.312 0 0 0-1.35-4.6c-1.42-1.2-10.02-4.95-13.146-4.244-2.488.5-5.003.854-7.533 1.062z"/><ellipse class="st1" cx="50" cy="50" rx="37.996" ry="37.83"/><defs><path id="SVGID_1_" d="M88.304 50c0 20.893-17.012 37.83-37.996 37.83S12.312 70.893 12.312 50c-14.443-9.955-6.918-17.197-.89-23.892C18.38 18.382 39.067 12.17 50.31 12.17c20.984 0 37.996 16.937 37.996 37.83z"/></defs><clipPath id="SVGID_2_"><use xlink:href="#SVGID_1_" overflow="visible"/></clipPath><g class="st2"><path class="st3" d="M52.062 20.29a3.213 3.213 0 0 1-1.446 0h1.446z"/><path class="st4" d="M78.864 64.65c.01-.437-.09-.877.052-1.307v1.303a.108.108 0 0 1-.052.003z"/><path class="st3" d="M78.864 64.65a.108.108 0 0 0 .052-.004v1.165l-.067.003.014-1.164z"/><path class="st5" d="M15.702 48.19c.892.253 1.79.465 2.727.476 2.34.026 4.117-.974 5.405-2.89.216-.32.436-.64.575-1.007.064-.17.195-.254.333-.08.706.898 1.418 1.793 1.872 2.855.406.947.613 1.913.292 2.93-.055.174-.015.304.145.362.178.065.312-.013.373-.198.14-.428.214-.867.186-1.315-.013-.226.074-.302.282-.33.4-.057.716.076.982.368.283.31.476.672.592 1.07.057.197.16.325.358.268.197-.055.227-.22.16-.415-.167-.492-.378-.96-.76-1.322-.16-.15-.15-.26-.058-.438.858-1.63 2.13-2.838 3.756-3.693.71-.374 1.455-.664 2.213-.928.28-.097.386-.054.48.238.523 1.6 1.22 3.125 2.148 4.534.356.542.76 1.053 1.143 1.578.01.06.018.118.102.106h-.003c-.007.053.015.076.067.07h.008c-.054.128.028.22.092.31.864 1.25 1.836 2.41 2.964 3.43.564.512 1.173.974 1.877 1.29-.05.734.113 1.442.272 2.148.098.433.216.48.628.315.084-.034.17-.063.256-.094.025.11.056.218.077.33.13.683.936 1.187 1.564.914.538-.233 1.05-.51 1.58-.758.345-.163.696-.278 1.088-.256.535.03 1.072-.02 1.61.065.723.114 1.405-.096 2.065-.37.23-.094.42-.07.648.033 1 .452 1.96.995 2.996 1.368.328.118.653.21.997.06.514-.22.774-.653.954-1.146.375-1.026.537-2.088.545-3.176.002-.153-.042-.312.22-.33 1.294-.097 2.334-.74 3.262-1.585 1.013-.922 1.806-2.02 2.515-3.184a21.16 21.16 0 0 0 2.242-5.047c.12-.41.12-.857.37-1.227 3.43 1.957 6.387 4.397 8.203 7.994.775 1.534 1.137 3.2 1.494 4.86.447 2.08.67 4.187.73 6.314.063 2.356-.05 4.7-.375 7.033-.058.415-.23.788-.505 1.108-.293.34-.632.556-1.12.554-.744-.004-1.488.058-2.23.092-.046-.265.055-.518.07-.78.034-.622.08-1.246.147-1.866.118-1.116.082-2.232-.05-3.34-.135-1.112-.36-2.215-.508-3.327-.226-1.673-.835-3.184-1.86-4.526-.213-.28-.424-.57-.755-.734-.127-.064-.26-.117-.392-.04-.15.085-.107.24-.087.37.027.168.077.332.115.498.117.497.313.968.297 1.5-.025.842-.054 1.68-.143 2.52-.086.812-.17 1.623-.34 2.423-.308 1.446-.85 2.81-1.478 4.142-.952 2.018-2.19 3.824-3.87 5.332-1.37 1.23-2.846 2.287-4.485 3.115-1.808.915-3.71 1.612-5.62 2.28-.495.174-1.023.237-1.496.474-1.304.133-2.61.047-3.916.03a23.79 23.79 0 0 1-7.053-1.166c-2.656-.857-5.047-2.198-7.23-3.92a21.74 21.74 0 0 1-1.235-1.036c-1.57-1.44-2.524-3.24-3.008-5.288-.53-2.24-.226-4.415.632-6.53.092-.225.25-.446.106-.71.278-.47.547-.947.834-1.413.423-.69.86-1.37 1.287-2.058.157-.252.147-.732-.026-.87-.257-.203-.492-.12-.748.05-.723.478-1.478.91-2.192 1.4-1.57 1.073-3.266 1.464-5.14 1.074-2.717-.565-4.727-2.134-6.185-4.41-1.095-1.708-2.158-3.436-3.238-5.153-.277-.442-.63-.836-.83-1.326zm35.55 14.33c-1.188 0-2.096.898-2.094 2.07a2.085 2.085 0 0 0 2.078 2.103c1.172 0 2.122-.94 2.124-2.103.002-1.147-.937-2.07-2.107-2.07zm-.014 13.106c1.182 0 2.123-.926 2.122-2.092 0-1.145-.946-2.076-2.108-2.074-1.18 0-2.095.91-2.094 2.077 0 1.177.908 2.088 2.08 2.09zM29.492 24.885c-.185-.368.03-.616.28-.827.573-.487 1.288-.685 1.99-.885 1.826-.518 3.686-.885 5.584-.888 1.623-.003 3.172-.41 4.752-.652a64.18 64.18 0 0 1 5.535-.604c1.74-.116 3.48-.19 5.223-.112 3.114.14 6.23.26 9.342.42 1.14.06 2.22.45 3.31.743 1.672.447 3.33.944 4.873 1.745.582.302 1.13.656 1.457 1.257-.47.684-1.1 1.173-1.842 1.537-1.595.78-3.305 1.197-5.03 1.546-1.228.247-2.47.428-3.707.614-.788.118-1.583.268-2.375.27-2.142.007-4.285.045-6.43-.035-1.92-.072-3.844-.068-5.766-.145-1.415-.056-2.833 0-4.244-.207-1.205-.177-2.41-.362-3.63-.434a54.6 54.6 0 0 1-2.96-.268c-.713-.08-1.45-.125-2.082-.503-.97-.582-1.907-1.215-2.872-1.804-.434-.264-.828-.615-1.356-.702a.7.7 0 0 0-.05-.07z"/><path class="st6" d="M67.356 37.63c-.12 1.172-.41 2.31-.66 3.458-.808 3.696-2.704 6.77-5.44 9.348-.863.814-1.874 1.422-2.946 1.93-.205.1-.32.086-.34-.166-.007-.066-.038-.13-.056-.197-.09-.337-.175-.385-.516-.256-.995.377-1.987.76-2.98 1.14-.032.013-.066.022-.097.037-.562.267-1.077.31-1.737.133-1.165-.313-2.39-.31-3.472.415-.155.104-.26.028-.378-.02-1.267-.5-2.532-1.005-3.797-1.51-.474-.187-.58-.124-.646.38-.057.43-.058.43-.466.325-2.45-.637-4.225-2.158-5.58-4.227-1.382-2.108-2.245-4.424-2.773-6.874-.166-.78-.4-1.546-.52-2.336.048.03.11.05.14.09.355.47.807.71 1.412.673.445-.027.893.004 1.338-.008.376-.01.754.05 1.126-.05.998-.276 2.016-.345 3.046-.292.092.005.183 0 .275 0 .103.162.198.33.31.482.412.56.964.925 1.61 1.16.09.483.51.8 1.07.827.38.018.756-.015 1.127-.073 1.146-.18 2.012-.586 2.377-1.8.09-.292.21-.322.464-.33 1.248-.037 2.492.12 3.74.07.418-.016.81.128 1.217.16.126.01.235.09.286.222.098.25.273.446.47.622.09.08.142.174.135.3-.02.36.202.56.482.724.446.263.952.32 1.448.364.344.03.72.11 1.048-.068.68-.37 1.432-.64 2.02-1.153.49-.428 1.015-.533 1.63-.484a4.693 4.693 0 0 0 2.05-.298c1.217-.458 2.194-1.25 3.07-2.18.17-.18.295-.406.518-.537zM55.1 43.747a.637.637 0 0 0-.14-.378c-.364-.486-.806-.895-1.266-1.288-.148-.126-.302-.248-.49-.305-.223-.067-.38-.03-.39.257-.008.258.07.487.16.724.217.563.553 1.066.81 1.608-.07.058-.136.12-.21.175-.77.564-1.595.954-2.593.927-.904-.024-1.66-.388-2.37-.89a.848.848 0 0 0-.628-.172c-.46.048-.927.036-1.203-.45-.078-.136-.21-.182-.356-.106-.145.075-.177.212-.13.352a.956.956 0 0 0 .166.295c.283.346.672.478 1.1.458.42-.02.764.09 1.113.332a4.1 4.1 0 0 0 2.348.76c1.075.006 2-.418 2.84-1.057a1.14 1.14 0 0 1 .55-.246c.37-.054.747-.138 1.023-.432.133-.142.28-.293.154-.51-.132-.224-.318-.098-.488-.056zm1.095 3.36c.142-.073.287-.142.426-.22.4-.22.846-.36 1.162-.713.107-.12.245-.26.088-.41-.143-.137-.38-.17-.5-.016-.24.314-.594.416-.913.58-2.37 1.21-4.87 1.586-7.493 1.112a14.67 14.67 0 0 1-4.01-1.364c-.167-.083-.36-.168-.494.022-.14.2 0 .337.166.445.23.425.653.617 1.052.814.52.258 1.084.433 1.604.69 1.155.575 2.377.845 3.658.9 1.214.05 2.346-.306 3.47-.692.53-.182 1.058-.366 1.517-.706.162-.12.266-.244.268-.445zm6.058-3.475c.15-1.115-1.018-2.026-1.934-2.042-1.068-.018-2.094 1.023-2.07 1.957.03 1.143.883 2.004 2 2.054.97.042 2.13-.895 2.003-1.97zm-18.66-.283c.165-1.005-.93-2.01-1.86-2.034-1.307-.032-2.11.927-2.124 1.97a1.997 1.997 0 0 0 1.974 2.027c1.17.007 2.126-.97 2.01-1.963zm7.96 6.63c-.49 0-.982-.002-1.474 0-.198 0-.413-.006-.485.225-.072.23.056.37.252.498.714.46 1.51.48 2.31.43.412-.025.806-.168 1.135-.432.16-.127.268-.305.198-.51-.07-.207-.273-.212-.46-.212h-1.476zm-1.352-6.69c.04-.386-.03-.74-.376-.96-.294-.19-.846-.108-1.127.132-.355.303-.584.94-.456 1.272.132.34.506.552.976.553.584 0 .77-.108.942-.528.065-.157.03-.314.043-.47z"/><path class="st7" d="M57.762 94.185c-.937-.022-1.807-.307-2.608-.76-1.113-.63-2.098-.427-3.038.336-.05.043-.086.113-.187.097.105-1.003.213-2.006.316-3.01.037-.362.07-.725.09-1.088.015-.283.075-.43.43-.45a18.617 18.617 0 0 0 6.055-1.362c.15-.06.31-.122.33-.313.024-.244-.22-.35-.536-.218a16.5 16.5 0 0 1-2.875.906c-1.41.31-2.838.52-4.283.44-1.91-.105-3.79-.41-5.597-1.066-.28-.1-.566-.168-.814-.348-.19-.14-.368-.088-.492.117-.236.282-.18.622-.107.917.368 1.492.774 2.974 1.153 4.462.137.54.362 1.056.405 1.618-2.152.156-3.98-.68-5.69-1.86a16.21 16.21 0 0 1-2.137-1.77c-1.514-1.486-2.543-3.278-3.338-5.216-.594-1.445-.876-2.96-1.038-4.51-.15-1.445-.356-2.885-.547-4.4.285.298-1.208-4.262 1.238-2.452.712.527 2.844 1.852 3.146 2.06 1.958 1.336 2.902 1.98 5.18 2.673 1.382.42 2.79.706 4.213.927.214.033.43.077.646.073.353-.006.678.065.978.25l-.005.215c-.845-.027 9.452-.888 10.492-1.155 2.74-.704 5.287-1.855 7.684-3.343.076-.048.16-.088.24-.132l-.008.333c-.448.53-1.433 4.367-1.092 4.185-.055.552-.3 1.05-.474 1.564-.22.647-.403 1.317-.773 1.896-.454.71-.957 1.39-1.456 2.072-1.483 2.025-3.018 4.013-4.364 6.133-.44.693-.874 1.393-1.14 2.177z"/><path class="st8" d="M29.542 24.954c.528.087.922.438 1.356.702.965.59 1.903 1.222 2.873 1.803.632.377 1.37.42 2.082.502a54.6 54.6 0 0 0 2.962.267c1.22.07 2.424.256 3.63.433 1.41.206 2.828.15 4.243.207 1.922.077 3.846.073 5.767.145 2.144.08 4.287.042 6.43.036.79-.002 1.586-.152 2.374-.27 1.238-.186 2.48-.367 3.706-.614 1.726-.35 3.436-.765 5.03-1.547.744-.365 1.374-.854 1.843-1.538.413.75.222.938-.347 1.496-1.06 1.04-2.18 2.023-3.283 3.02-.178.162-.26.33-.244.568.016.216-.022.438.01.65.08.554-.166 1-.446 1.434-.198.305-.538.39-.866.43-1.725.22-3.452.44-5.182.626-3.65.393-7.314.56-10.986.512-2.293-.03-4.58-.16-6.86-.407a63.69 63.69 0 0 1-8.313-1.468c-.54-.132-.875-.498-1.008-1.02a1.792 1.792 0 0 0-.398-.74c-1.368-1.6-2.734-3.2-4.097-4.804-.108-.128-.245-.244-.275-.424z"/><path class="st6" d="M12.188 40.09c.717-.22.918-.792.505-1.515-.545-.95-1.11-1.89-1.666-2.834-.34-.576-.61-1.173-.566-1.868.035-.545.308-.943.74-1.248.206-.146.385-.108.535.092.13.176.226.37.305.572.51 1.302 1.215 2.503 1.967 3.677.154.24.353.46.65.53.558.133 1.027-.347.874-.962-.16-.65-.423-1.273-.63-1.91-.333-1.02-.727-2.018-1.01-3.053-.084-.31-.098-.63-.05-.95a1.18 1.18 0 0 1 .99-1c.32-.05.584.035.78.31.174.248.283.52.367.806.464 1.585.93 3.17 1.397 4.756.035.12.085.237.144.347.133.245.335.422.624.407.298-.016.52-.164.682-.44.468-.802.552-1.706.732-2.584.143-.692.27-1.387.404-2.08.123-.634.67-.956 1.39-.82.53.098.814.56.692 1.182-.205 1.042-.38 2.088-.444 3.148-.083 1.416-.095 2.83.24 4.222.097.4.238.785.466 1.134.533.814 1.286.89 1.97.187.422-.436.854-.858 1.364-1.197.63-.417 1.31-.433 2.01-.248.29.077.47.285.52.576.054.305-.097.518-.346.688-.68.465-1.33.97-1.962 1.5-.78.655-1.456 1.388-1.823 2.358-.89.443-1.733.973-2.642 1.38-.72.324-1.46.62-2.255.667a8.993 8.993 0 0 1-3.086-.326c-1.814-.53-2.958-1.662-3.31-3.53-.128-.676-.09-1.394-.556-1.974z"/><path class="st9" d="M50.203 37.76c-3.067 0-6.134-.004-9.2.002-1.205.003-2.375-.186-3.477-.66-1.112-.477-1.977-1.266-2.582-2.314a8.516 8.516 0 0 1-.944-2.43c-.023-.102-.075-.223.023-.29.085-.058.032-.43.11-.382.552.332 1.327.873 1.935 1.015 1.674.39 3.363.714 5.07.936 1.277.167 2.554.338 3.842.428.998.07 1.996.14 2.993.214.83.062 1.662-.015 2.485.067.772.077 1.54.062 2.31.05 1.305-.02 2.61-.074 3.915-.138 1.022-.05 2.044-.118 3.064-.21 1.017-.09 2.03-.223 3.046-.334.9-.1 1.802-.19 2.702-.292.265-.03.527-.084.79-.123.104-.016.226-.053.303.027.072.076-.003.182-.037.26-.705 1.624-1.822 2.85-3.488 3.537-.804.332-1.65.5-2.51.565-2.24.172-4.488.04-6.732.072-1.206.017-2.412.003-3.617.003z"/><path class="st10" d="M53.644 79.516c.473-.237 1-.3 1.496-.473 1.91-.67 3.812-1.366 5.62-2.28 1.64-.83 3.117-1.886 4.487-3.116 1.68-1.508 2.917-3.314 3.87-5.332.627-1.33 1.17-2.696 1.476-4.142.17-.8.255-1.61.34-2.424.09-.84.12-1.678.144-2.52.016-.532-.18-1.003-.296-1.5-.037-.165-.087-.33-.114-.496-.02-.13-.062-.286.087-.372.132-.076.265-.023.392.04.33.165.542.456.755.735 1.025 1.342 1.634 2.853 1.86 4.526.148 1.112.372 2.215.506 3.328.133 1.108.17 2.224.05 3.34-.065.62-.112 1.244-.147 1.867-.015.26-.116.514-.07.78-.71.038-1.42.075-2.13.116-.318.018-.198-.14-.12-.286.683-1.244 1.114-2.573 1.35-3.968.347-2.048.183-4.07-.305-6.076-.13-.532-.297-1.054-.435-1.584-.057-.218-.16-.376-.4-.302-.244.075-.18.273-.126.455.433 1.446.783 2.913.863 4.424.16 3.003-.512 5.782-2.372 8.21-.506.66-1.21 1.116-1.863 1.614-2.988 2.273-6.292 3.904-9.96 4.776-1.63.388-3.28.634-4.958.66z"/><path class="st11" d="M57.762 94.185c.267-.784.7-1.484 1.14-2.177 1.347-2.12 2.882-4.108 4.365-6.133.5-.68 1.002-1.362 1.456-2.072.37-.58.554-1.25.773-1.896.175-.515.42-1.012.474-1.564l-.002.002.07-.063c1.03-.7 2.313-1.734 3.29-2.623.005.4-.41.973-.548 1.213-.547.954.09 2.157.983 2.583.264.126.25.246.172.462-.447 1.225-1.03 2.383-1.675 3.515-.86 1.51-1.295 2.842-2.356 4.208-1.15 1.483-3.064 2.87-4.752 3.775-1.06.57-2.18.864-3.39.77z"/><path class="st12" d="M67.356 37.63c-.223.132-.347.357-.518.538-.876.93-1.853 1.722-3.07 2.18a4.693 4.693 0 0 1-2.05.298c-.615-.05-1.14.056-1.63.485-.588.513-1.34.784-2.02 1.154-.328.178-.704.098-1.048.068-.496-.044-1.002-.1-1.448-.364-.28-.165-.503-.364-.48-.724a.353.353 0 0 0-.135-.3c-.198-.176-.373-.37-.47-.622a.333.333 0 0 0-.286-.22c-.407-.034-.798-.178-1.217-.16-1.247.05-2.49-.11-3.74-.07-.252.006-.374.036-.462.328-.364 1.214-1.23 1.62-2.376 1.8-.37.057-.747.09-1.126.072-.562-.027-.98-.344-1.07-.827h.353l-.004-.005c.19.153.413.044.62.074.13-.07.456.484.418-.13.573-.15 1.033-.48 1.42-.913.31-.34.385-.73.157-1.06-.304-.44-.723-.75-1.275-.84-.095-.024-.188-.052-.245-.14 3.4 0 6.8.003 10.198.006-.277.194-.61.31-.83.58-.22.27-.356.557-.21.907.29.693 1.332 1.385 2.087 1.388h.03l.027.012c.074.076.17.062.26.053 1.104-.11 1.914-.676 2.48-1.61.17-.284.01-.503-.154-.712-.2-.254-.473-.425-.726-.618.95-.017 1.895-.057 2.834-.257 2.287-.487 3.963-1.753 4.917-3.872.292-.647.63-1.137 1.336-1.355.002.688-.112 1.383-.17 2.08-.023.273-.063.544-.088.817-.017.18.05.33.242.35.184.02.292-.088.313-.282.106-.998.225-1.995.264-3 .007-.147.018-.295.03-.442.01-.112-.052-.27.044-.324.134-.074.255.067.363.14.484.328.663.824.726 1.375.08.71.018 1.412-.134 2.105-.264 1.2-.356 2.438-.76 3.61-.293.848-.654 1.656-1.267 2.33-.09.098-.17.216-.35.268.138-.61.268-1.195.404-1.78.257-1.113.39-2.247.582-3.37.03-.177-.023-.34-.22-.36-.17-.017-.304.068-.335.27-.055.358-.125.715-.19 1.073z"/><path class="st10" d="M15.702 48.19c.2.49.553.885.83 1.327 1.08 1.717 2.143 3.445 3.237 5.153 1.457 2.276 3.467 3.845 6.183 4.41 1.875.39 3.572-.002 5.14-1.076.715-.49 1.47-.92 2.193-1.4.256-.17.49-.252.748-.05.173.14.183.62.027.87-.426.688-.863 1.37-1.286 2.06-.287.465-.556.94-.834 1.413-.168-.092-.323-.05-.49.023-1.127.486-2.303.76-3.533.765-2.304.008-4.37-.715-6.21-2.07-2.573-1.897-4.4-4.4-5.86-7.2-.775-1.49-1.418-3.04-1.992-4.617-.096-.262-.208-.532-.1-.86.358.222.45.684.82.846.365.16.75.273 1.127.407zM67.902 43.523c-.25.37-.25.817-.37 1.226a21.16 21.16 0 0 1-2.243 5.046c-.71 1.163-1.503 2.262-2.516 3.183-.928.843-1.968 1.487-3.263 1.583-.26.02-.216.178-.218.33-.008 1.09-.17 2.15-.545 3.177-.18.493-.44.925-.954 1.147-.344.15-.67.057-.997-.06-1.037-.374-1.995-.917-2.995-1.37-.227-.102-.417-.126-.647-.03-.66.272-1.342.482-2.066.368-.537-.085-1.074-.036-1.61-.065-.39-.022-.742.093-1.088.256-.53.248-1.042.525-1.58.758-.627.273-1.432-.23-1.563-.915-.02-.112-.052-.22-.078-.33 1.246-.516 2.493-1.03 3.738-1.55.144-.06.23-.037.314.088.6.897 1.472.898 2.412.75.3-.046.61-.036.896-.16.286-.12.583-.235.763-.502.128-.19.26-.16.435-.092 1.19.472 2.385.937 3.578 1.405.42.164.51.122.636-.307a9.14 9.14 0 0 0 .26-4.195c-.03-.166-.007-.268.17-.346 3.094-1.356 5.207-3.728 6.844-6.587.624-1.09 1.187-2.21 1.62-3.404.367.168.723.368 1.066.593z"/><path class="st11" d="M46.005 94.464c-.043-.562-.268-1.08-.405-1.618-.38-1.488-.785-2.97-1.153-4.462-.072-.295-.13-.635.107-.917-.037.286.135.4.373.49a20.676 20.676 0 0 0 5.14 1.24c.487.05.973.128 1.463.123.227-.003.276.1.257.292-.054.553-.102 1.107-.16 1.66-.057.563-.123 1.126-.183 1.69-.03.293-.055.587-.088.94-.434-.326-.906-.407-1.418-.405-.67.002-1.292.184-1.885.447-.66.29-1.35.404-2.048.52z"/><path class="st9" d="M39.048 79.575v.138c0 .807-.01.823-.737.43a14.855 14.855 0 0 1-2.67-1.842c-.93-.803-1.772-.94-2.514-1.912-.116-.153-.394.7-.317 1.33.082.675.163 1.35.248 2.025.058.46.425 1.36.495 1.82.045.297-.25.132-.575.295-.288.145-.508.08-.783-.21-.325-.338-.33-.793-.43-1.2-.395-1.622-.78-3.247-1.077-4.89-.137-.757-.327-1.505-.324-2.287.003-.906-.242-1.278.43-1.81.135-.108.768-.858.92-.7 1.027 1.07 2.618 3.446 3.548 4.574 1.01 1.225 1.272 1.768 2.598 2.638.238.156.48.315.74.43.332.146.517.346.452.73-.024.143-.004.295-.004.443z"/><path class="st12" d="M12.188 40.09c.465.58.428 1.298.556 1.973.352 1.87 1.496 3.002 3.31 3.53a8.993 8.993 0 0 0 3.086.328c.794-.047 1.534-.342 2.255-.666.91-.407 1.753-.937 2.642-1.38-.638 2.768-3.448 4.568-6.077 4.215a12.935 12.935 0 0 1-2.924-.722c-.116-.044-.228-.08-.315-.19-1.016-1.288-1.936-2.63-2.397-4.23-.038-.133-.127-.214-.216-.3-.984-.96-1.978-1.907-2.946-2.88-.454-.456-.686-1.023-.555-1.682.053-.264.19-.503.473-.58.285-.077.484.056.672.285.515.628 1.065 1.226 1.59 1.847.226.27.495.43.848.453z"/><path class="st13" d="M37.903 91.372c.756.64 1.5 1.273 2.313 1.823 1.347.913 2.79 1.623 4.424 1.804a7.027 7.027 0 0 0 3.72-.576c.6-.272 1.23-.418 1.897-.37.127.008.248.017.367.07.617.28.69.548.27 1.054-1.238 1.497-2.868 2.308-4.766 2.564-1.07.144-2.118-.104-3.102-.545-1.2-.537-2.285-1.248-3.17-2.234a8.782 8.782 0 0 1-1.953-3.59zM65.22 90.89c-.254.503-.492 1.015-.763 1.508a22.178 22.178 0 0 1-1.646 2.553c-1.053 1.417-2.467 2.18-4.187 2.475-.868.148-1.72.184-2.58-.006-.626-.14-1.175-.443-1.715-.764-.8-.474-1.507-1.065-2.17-1.71-.18-.176-.19-.294-.006-.477.52-.52 1.095-.885 1.873-.832.248.017.47.083.685.194.62.322 1.254.61 1.937.778 1.787.44 3.44.066 5.002-.82 1.06-.6 1.972-1.394 2.825-2.257.226-.227.37-.54.744-.643z"/><path class="st3" d="M55.17 81.243c.002.946.002 1.892.01 2.838.002.19-.06.262-.255.262-1.913-.005-3.825-.005-5.737 0-.173 0-.247-.057-.245-.237.01-.957.014-1.915.02-2.872l6.207.01z"/><path class="st12" d="M70.787 80.277c-.22.182-.44.36-.655.548-.126.11-.225.1-.36.003-.538-.384-.74-1.006-.508-1.62.06-.16.133-.316.175-.48.356-1.408 1.176-2.553 2.082-3.645.45-.54.404-1.217.572-1.835.083-.307.13-.624.19-.937.02-.11.052-.184.188-.19 1.29-.06 2.58-.124 3.928-.19-.37.797-.666 1.58-1.075 2.315-.824.137-1.552.475-2.136 1.075-.685.704-1.296 1.478-2.023 2.14-.65.592-.744 1.33-.61 2.13.04.234.003.51.23.687zM42.287 39.624c-.092 0-.183.004-.275 0-1.03-.054-2.048.015-3.046.29-.372.102-.75.04-1.126.05-.445.013-.893-.018-1.338.01-.605.035-1.057-.205-1.412-.673-.03-.04-.092-.06-.14-.09-.362-1.607-.498-3.243-.67-4.88.14-.01.132.09.16.15 1.087 2.292 2.983 3.406 5.438 3.7 1.188.14 2.384.018 3.575.075-.243.166-.493.324-.727.502-.283.215-.482.483-.44.867z"/><path class="st9" d="M63.148 80.24c0 .17-.02.345.004.513.05.358-.09.553-.426.7-1.33.59-2.68 1.113-4.097 1.454-.81.195-1.63.32-2.452.452-.268.04-.42-.015-.407-.352.03-.662.01-1.325.008-1.988 0-.152.017-.252.215-.268a25.713 25.713 0 0 0 6.243-1.304c.205-.07.41-.14.612-.223.2-.082.306-.047.3.192-.005.274 0 .548 0 .822zM41.244 79.413c.142.056.29.12.44.173 1.708.617 3.467 1.034 5.264 1.3.36.052.727.046 1.09.08.225.02.367.046.33.386-.07.643-.027 1.298-.02 1.948 0 .225.004.322-.312.288a20.185 20.185 0 0 1-5.633-1.478c-.376-.158-.733-.363-1.104-.537-.147-.07-.192-.167-.19-.323.008-.536 0-1.072.005-1.61 0-.085-.05-.217.13-.227z"/><path class="st14" d="M57.938 55.09c-.012.474-.117 1.237-.28 1.995-.06.283-.178.307-.412.215a672.914 672.914 0 0 0-3.38-1.33c-.207-.08-.29-.188-.196-.422.227-.57.28-1.146 0-1.718-.084-.17.045-.224.16-.27 1.153-.442 2.31-.877 3.46-1.326.252-.1.306.035.35.223.177.767.308 1.54.298 2.633zM44.47 55.05c-.063-.678.08-1.512.156-2.35.022-.24.067-.395.406-.252 1.196.506 2.41.97 3.62 1.445.165.066.26.122.19.334-.142.434-.028.868.076 1.29.05.2.004.286-.177.36-1.27.516-2.54 1.038-3.81 1.562-.195.08-.276.035-.328-.18-.163-.675-.124-1.36-.132-2.21z"/><path class="st9" d="M71.687 72.413c-.098.5-.225 1.01-.293 1.525-.096.74-.61 1.235-1.03 1.772-.462.59-.928 1.52-1.478 2.03-1.103 1.02-2.304 1.616-3.63 2.352-.192.106-.255.114-.252-.125.008-.468.01-.936-.002-1.404-.005-.2.07-.307.243-.4 1.47-.786 2.79-2.698 3.893-3.918.768-.85 1.42-.92 2.056-1.878.092-.14.2-.21.37-.175.125.025.117.12.123.22z"/><path class="st14" d="M51.36 53.257c.535.005.958-.016 1.377.125.756.255 1.113.875.923 1.657-.185.76-.502 1.402-1.335 1.654-.643.194-1.3.18-1.947.122-.576-.052-1.218-.802-1.34-1.46-.036-.19-.07-.38-.08-.572-.05-1.012.3-1.234 1.236-1.442a4.252 4.252 0 0 1 1.165-.085z"/><path class="st12" d="M34.995 42.09c-.617-.458-.978-1.004-1.284-1.595-.457-.885-.664-1.845-.83-2.81-.177-1.023-.492-2.02-.556-3.06a3.904 3.904 0 0 1 .17-1.487c.157-.47.48-.793.94-.986.17-.072.235-.047.235.16.003 1.37.11 2.735.266 4.097.208 1.827.57 3.624 1.013 5.407.015.065.022.132.045.273z"/><path class="st6" d="M70.787 80.277c-.227-.178-.19-.453-.23-.687-.134-.8-.04-1.538.61-2.13.727-.662 1.338-1.436 2.022-2.14.583-.6 1.31-.938 2.135-1.075-1.177 2.26-2.608 4.333-4.538 6.032z"/><path class="st11" d="M45.65 38.25c.057.088.15.116.245.14.354.306.614.667.657 1.147.072.808-.386 1.28-1.044 1.626v.006c-.105.02-.215.02-.303.094l-.014-.01-.012.01c-.208 0-.415-.002-.622-.004l.005.005c-.08-.098-.205-.084-.308-.125-.777-.31-1.226-1.06-1.066-1.82.126-.6.564-.935 1.075-1.198.47-.024.938-.03 1.39.127zm-1.16.42c-.287.005-.418.17-.41.414.01.252.18.386.433.39.262.003.467-.19.443-.417-.03-.278-.22-.378-.465-.387zM56.952 41.142l-.028-.01h-.03c-.084-.11-.22-.098-.334-.14-1.14-.427-1.46-1.682-.648-2.555.052-.055.142-.083.137-.18.528-.256 1.075-.398 1.667-.275.02.093.11.062.166.084 1.082.432 1.323 1.746.476 2.542-.403.377-.9.46-1.408.534zm.078-2.234c.002-.227-.172-.383-.43-.384-.248 0-.454.19-.44.422.017.254.193.35.417.367.247.02.45-.17.453-.405z"/><path class="st6" d="M55.17 81.243l-6.207-.01c-.037-.143-.137-.26-.066-.44.07-.176-.07-.29-.244-.338l.005-.215c.237-.17.508-.16.78-.15 1.706.068 3.41.088 5.114-.055.63-.053.63-.06.628.56 0 .215-.007.432-.01.648z"/><path class="st10" d="M44.013 55.46c-.704-.316-1.313-.778-1.877-1.29-1.128-1.02-2.1-2.18-2.964-3.43-.064-.09-.146-.182-.092-.31.514.45.992.94 1.556 1.337.994.698 2.074 1.204 3.26 1.472.198.044.273.108.242.312-.095.632-.092 1.27-.125 1.908z"/><path class="st15" d="M56.952 41.142c.51-.073 1.005-.157 1.407-.534.846-.796.605-2.11-.477-2.542-.057-.022-.145.01-.166-.084.403-.06.75.105 1.095.273.253.193.527.364.726.618.164.21.325.428.154.71-.566.936-1.376 1.5-2.48 1.612-.09.01-.186.023-.26-.053zM44.26 38.122c-.51.263-.948.597-1.074 1.197-.16.76.29 1.51 1.066 1.82.103.04.23.027.31.125h-.354c-.647-.235-1.2-.6-1.61-1.16-.113-.153-.208-.32-.31-.48-.044-.385.155-.653.438-.868.234-.178.484-.336.727-.502.267-.057.523-.184.808-.133zM56.05 38.256c.004.098-.086.126-.138.18-.812.874-.493 2.13.648 2.556.113.042.25.03.335.14-.755-.004-1.797-.696-2.086-1.39-.148-.35-.01-.637.207-.905.22-.272.554-.387.83-.58h.202z"/><path class="st11" d="M67.062 76.158l.007-.333c.304-.233.61-.467.965-.624l.004.005c-.233.414-.58.71-.978.953zM68.035 75.2l.075-.05.018.027c-.03.01-.06.02-.09.028l-.003-.004z"/><path class="st10" d="M39.008 50.36c-.084.012-.093-.047-.102-.106.07 0 .09.05.102.106z"/><path class="st16" d="M31.1 61.67c.028-.01.056-.016.084-.023l-.005.084-.08-.06z"/><path class="st10" d="M39.072 50.43c-.052.006-.074-.017-.067-.07l.067.07z"/><path class="st7" d="M66.037 80.282l-.07.063c.024-.02.047-.042.07-.063z"/><path class="st8" d="M29.492 24.885z"/><path class="st17" d="M51.253 62.52c1.17 0 2.11.923 2.107 2.07a2.113 2.113 0 0 1-2.124 2.103 2.085 2.085 0 0 1-2.078-2.102c-.002-1.172.906-2.07 2.095-2.07zm-.12 1.272a.555.555 0 0 0-.583-.54c-.233.01-.566.358-.564.593.002.343.243.587.574.583.32-.004.573-.284.572-.636zM51.238 75.626c-1.172 0-2.08-.912-2.08-2.09 0-1.167.914-2.075 2.094-2.076 1.162-.002 2.107.93 2.108 2.074 0 1.166-.94 2.093-2.122 2.092zm-.585-3.38c-.35-.002-.515.164-.52.525-.003.404.19.64.535.65.342.01.603-.268.602-.638-.002-.327-.237-.532-.617-.535z"/><path class="st15" d="M62.253 43.63c.127 1.075-1.032 2.012-2.003 1.97-1.117-.05-1.97-.912-2-2.055-.024-.934 1.002-1.975 2.07-1.957.915.016 2.084.927 1.933 2.043zM43.593 43.347c.117.993-.838 1.97-2.01 1.963a1.997 1.997 0 0 1-1.974-2.028c.013-1.042.816-2 2.124-1.97.928.024 2.024 1.03 1.86 2.035z"/><path class="st4" d="M44.626 46.543c-.167-.108-.306-.246-.166-.445.135-.19.327-.105.493-.022a14.67 14.67 0 0 0 4.01 1.363c2.623.473 5.124.097 7.494-1.114.32-.163.674-.265.914-.58.12-.153.357-.12.5.017.157.15.02.29-.088.41-.316.353-.763.493-1.16.714-.14.077-.285.146-.427.218-1.44.61-2.934 1.012-4.504 1.087-1.5.07-2.957-.163-4.392-.592-.923-.275-1.79-.683-2.672-1.057z"/><path class="st12" d="M44.626 46.543c.882.374 1.75.782 2.672 1.057 1.435.43 2.893.663 4.393.592 1.57-.075 3.064-.478 4.505-1.087-.002.2-.106.325-.268.444-.46.34-.988.523-1.517.705-1.124.386-2.256.743-3.47.69-1.28-.053-2.503-.323-3.658-.897-.52-.258-1.083-.433-1.604-.69-.4-.198-.822-.39-1.052-.815z"/><path class="st3" d="M55.1 43.746c.17-.042.355-.168.487.057.127.216-.02.367-.154.51-.276.293-.653.377-1.024.43a1.14 1.14 0 0 0-.55.247c-.84.64-1.765 1.063-2.84 1.058a4.1 4.1 0 0 1-2.347-.76 1.702 1.702 0 0 0-1.114-.333c-.428.02-.817-.112-1.1-.458a.956.956 0 0 1-.166-.295c-.047-.14-.015-.277.13-.353.146-.077.278-.03.355.104.275.487.74.5 1.202.45a.848.848 0 0 1 .63.174c.71.5 1.464.865 2.37.89.997.026 1.82-.364 2.593-.93.073-.053.14-.116.21-.174a.74.74 0 0 1 .398-.147c.31-.028.623-.073.848-.33.055-.035.08-.084.066-.15l.003.01z"/><path class="st12" d="M51.554 49.976h1.476c.187 0 .39.005.46.212.07.205-.04.383-.198.51-.33.264-.723.407-1.134.433-.8.05-1.597.03-2.31-.43-.197-.127-.325-.268-.253-.498.072-.23.287-.226.484-.226h1.474z"/><path class="st15" d="M50.2 43.287c-.01.156.023.313-.042.47-.173.42-.358.53-.942.528-.47 0-.844-.213-.975-.553-.127-.33.102-.97.457-1.273.28-.24.833-.322 1.127-.134.347.222.416.575.377.96z"/><path class="st12" d="M55.03 43.888c-.224.256-.538.3-.847.33a.74.74 0 0 0-.398.146c-.258-.542-.594-1.045-.81-1.608-.09-.237-.17-.466-.16-.724.008-.287.166-.324.388-.257.19.057.343.18.49.305.46.393.903.802 1.267 1.288a.637.637 0 0 1 .14.378l-.004-.008c-.067.03-.074.087-.065.15z"/><path class="st15" d="M45.508 41.163c.658-.345 1.116-.818 1.044-1.626-.043-.48-.303-.84-.657-1.146.552.09.97.4 1.276.84.23.33.153.72-.155 1.06-.388.433-.848.763-1.42.915a92.16 92.16 0 0 0-.087-.042z"/><path class="st6" d="M45.508 41.163l.086.042c.038.613-.288.06-.42.13l.004-.07.013-.012.016.01c.104-.02.242.065.302-.094v-.007z"/><path class="st15" d="M45.178 41.264l-.003.07c-.206-.03-.428.08-.62-.074l.623.004zM44.49 38.67c.245.01.435.11.466.387.024.228-.18.42-.443.417-.253-.004-.424-.138-.433-.39-.008-.245.123-.41.41-.414zM45.508 41.17c-.06.158-.198.074-.302.094.087-.074.197-.075.302-.095z"/><path class="st16" d="M57.03 38.908a.416.416 0 0 1-.453.405c-.224-.018-.4-.113-.416-.367-.014-.232.192-.423.44-.422.258 0 .432.157.43.384zM51.132 63.792c0 .352-.25.632-.572.636-.33.004-.572-.24-.574-.583-.002-.235.33-.583.564-.592.315-.01.58.236.582.54zM50.653 72.247c.38.003.615.208.617.535 0 .37-.26.647-.602.638-.344-.01-.538-.246-.534-.65.004-.36.168-.526.52-.523z"/><path class="st6" d="M55.03 43.888c-.008-.063 0-.12.066-.15.013.065-.01.114-.065.15z"/><path class="st18" d="M67.915 35.713c.09-.892.186-1.785.27-2.678.012-.134.018-.303-.05-.403-.207-.3-.078-.575.065-.816.105-.176.108-.314.092-.507-.026-.315-.056-.63-.028-.955.027-.302.126-.53.336-.724.88-.817 1.762-1.634 2.644-2.45.18-.17.363-.335.547-.5.682-.61.74-1.146.133-1.995-.55-.77-1.394-1.135-2.23-1.5-2.182-.958-4.475-1.557-6.796-2.054a6.634 6.634 0 0 0-1.228-.133c-1.948-.044-3.893-.14-5.838-.25-.85-.048-1.702-.067-2.553-.1-.927-.036-1.856-.07-2.782-.042-1.445.045-2.89.118-4.33.227-1.053.08-2.103.208-3.147.362-1.128.166-2.248.396-3.374.58-.754.123-1.51.228-2.28.23-2.41.01-4.73.503-6.976 1.36-.35.133-.63.354-.917.586-.41.332-.457.816-.077 1.316.48.632 1.023 1.22 1.542 1.822.926 1.076 1.86 2.144 2.778 3.226.33.388.337.88.368 1.36"/><path class="st18" d="M67.96 32.4c-.455.122-.76.508-1.186.677-.162.064-.137.205-.182.32-.982 2.56-2.824 4.02-5.56 4.418-1.148.168-2.283.137-3.42.017a3.568 3.568 0 0 0-1.046.036c-.535.104-1.064.114-1.6.115-2.872 0-5.745.005-8.617-.004-.564-.003-1.127-.093-1.688-.08-1.155.026-2.308.113-3.466.086-1.176-.03-2.324-.193-3.418-.64-1.282-.524-2.23-1.417-2.872-2.632-.17-.32-.302-.666-.64-.862"/><path class="st18" d="M66.638 33.17c-.246-.13-.467-.184-.78-.11-.575.134-1.18.132-1.773.204-.928.113-1.85.278-2.782.35-.7.052-1.396.144-2.097.19a375.7 375.7 0 0 1-4.286.27c-.47.027-.942-.007-1.413.007-1.55.048-3.1.013-4.65-.05a75.612 75.612 0 0 1-9.528-.96c-1.316-.224-2.62-.522-3.922-.815-.314-.07-.627-.2-.87-.444-.11-.11-.285-.162-.405-.124-.2.063-.15.28-.137.44.035.41.07.822.14 1.226.05.29.025.532-.068.827-.11.353-.023.78.02 1.17.073.637.198 1.27.265 1.907.13 1.23.427 2.427.68 3.633.097.46.348.91.19 1.406M66.866 42.523c.817.57 1.72 1.002 2.55 1.548 2.54 1.67 4.795 3.627 6.39 6.258.868 1.43 1.37 2.99 1.77 4.59.304 1.21.55 2.436.706 3.676.13 1.04.23 2.086.29 3.132.02.394.004 1.828.01 2.27.01.755.047 1.515-.01 2.268-.066.894-.098 1.79-.244 2.682-.068.42-.078.854-.2 1.268-.21.71-.72 1.14-1.362 1.464-.145.074-.218-.012-.325-.012-1.157-.002-2.31.092-3.465.16-.475.027-.982.315-1.458-.023M13.703 46.608c-.346.316-.3.733-.17 1.085a54.205 54.205 0 0 0 1.396 3.457 26.737 26.737 0 0 0 3.018 5.124c1.164 1.538 2.524 2.888 4.147 3.95a10.77 10.77 0 0 0 4.24 1.63c1.515.242 3.01.09 4.464-.407.286-.098.637.04.867-.244"/><path class="st18" d="M11.377 32.263c-.64.166-1.143.845-1.19 1.543-.047.7.168 1.32.51 1.906.567.974 1.152 1.938 1.73 2.907.29.487.3.74.045.998-.202.207-.397.238-.642.05-.354-.275-.618-.627-.91-.958-.36-.41-.718-.827-1.095-1.224-.47-.492-1.126-.362-1.41.27-.303.676-.097 1.294.28 1.855.208.308.502.56.77.823.71.7 1.388 1.44 2.155 2.072.453.374.547.884.74 1.343.273.652.61 1.257.977 1.853.13.215.293.42.318.682.02.204.244.195.317.32.57.986 1.586 1.163 2.56 1.4 1.158.28 2.32.405 3.51.104 1.737-.44 2.952-1.5 3.826-3.006.17-.293.306-.605.46-.906.024-.05.09-.096.085-.136-.107-.748.406-1.207.834-1.673.724-.788 1.58-1.432 2.452-2.052.158-.112.303-.242.457-.36.59-.46.275-1.358-.316-1.556-.827-.276-1.592-.23-2.328.238a6.132 6.132 0 0 0-1.406 1.232c-.48.57-1.275.442-1.616-.227-.296-.583-.425-1.196-.533-1.822-.175-1.024-.1-2.06-.082-3.087.02-1.023.188-2.038.407-3.04.15-.688.015-1.34-.418-1.635-.408-.277-1.21-.21-1.69.085-.477.294-.487.79-.58 1.234-.212 1.007-.357 2.03-.565 3.037-.08.384-.25.745-.435 1.1-.116.222-.28.298-.47.3-.193 0-.292-.148-.376-.348-.23-.548-.36-1.123-.534-1.685-.343-1.117-.67-2.24-1.007-3.358a2.948 2.948 0 0 0-.184-.455c-.318-.642-.79-.882-1.41-.727-.537.133-1.02.767-1.055 1.316-.063.978.352 1.835.646 2.724.34 1.03.69 2.06 1.052 3.085.11.31-.01.533-.24.673-.23.14-.47.01-.626-.176a4.794 4.794 0 0 1-.548-.77c-.558-1.007-1.14-2.003-1.562-3.08-.15-.38-.27-.834-.813-.867M37.73 91.05c-.202.34-.02.64.09.955 1.153 3.25 3.525 5.16 6.803 5.964 1.043.255 2.153.046 3.184-.338 1.482-.552 2.718-1.432 3.654-2.718.2-.274.16-.582.208-.87.064-.385.05-.784.095-1.18.138-1.22.224-2.45.33-3.674M65.407 90.506a.882.882 0 0 1-.033.732c-.65 1.403-1.46 2.705-2.38 3.945-1.15 1.55-2.76 2.226-4.606 2.553-2.208.39-3.956-.485-5.562-1.832-.4-.337-.763-.722-1.143-1.085"/><path class="st18" d="M33.49 82.017c.376.365.3.884.387 1.32.267 1.364.78 2.62 1.387 3.858.526 1.073 1.223 2.03 1.91 3 .346.49.783.85 1.232 1.23 1.15.973 2.342 1.87 3.702 2.533a7.71 7.71 0 0 0 4.148.758c.842-.077 1.63-.41 2.42-.708.86-.324 1.72-.443 2.555.124.338.23.713.145 1.09-.177.542-.46 1.154-.67 1.872-.595.253.026.47.12.682.235.983.53 2.023.878 3.147.9 1.26.027 2.428-.34 3.508-.954 1.204-.683 2.22-1.61 3.146-2.63.088-.095.15-.232.278-.264.54-.13.725-.597.952-1.005.712-1.276 1.635-2.416 2.377-3.673a26.938 26.938 0 0 0 1.91-3.907c.082-.21.112-.44.107-.68-.005-.31.22-.536.447-.722 1.375-1.127 2.483-2.487 3.46-3.955a24.92 24.92 0 0 0 2.51-4.81c.01-.026 0-.06 0-.09"/><path class="st18" d="M35.224 74.935c.278-.002.497.09.736.263 2.427 1.746 5.06 3.08 7.973 3.818 1.168.297 2.356.49 3.554.654 1.974.268 3.953.148 5.93.15.68.002 1.394.043 2.043-.07.897-.155 1.807-.292 2.698-.5 2.102-.488 4.13-1.182 6.062-2.14 1.153-.573 2.253-1.242 3.33-1.946.22-.144.438-.315.73-.183M31.713 70.76c-1.317.73-1.764 1.71-1.556 3.223.336 2.44.947 4.824 1.508 7.217.092.393.31.692.642.906.24.153 1.015.074 1.174-.142.07-.093.082-.243.073-.402-.057-1.038-.237-2.06-.37-3.087-.065-.514-.106-1.03-.193-1.542-.034-.2.044-.375.136-.545"/><path class="st18" d="M72.2 59.365c-.037.4.127.76.225 1.136.277 1.06.505 2.125.616 3.22.07.686.1 1.368.06 2.045a13.467 13.467 0 0 1-1.512 5.506c-.335.643-.812 1.142-1.22 1.706-.48.66-1.137 1.168-1.734 1.72-.182.17-.322.324-.35.558-.027.226-.18.356-.324.498-.862.85-1.777 1.64-2.88 2.16-.236.11-.336.322-.335.428.01.68-.13 1.37.07 2.043.01.032.03.06.045.09M33.947 31.81c-.806 0-1.406.447-1.69 1.224-.308.842-.226 1.702-.075 2.54.24 1.326.47 2.658.86 3.95.276.92.692 1.776 1.406 2.454.183.175.366.323.637.372.35.063.475.42.482.673.015.573.314 1.036.49 1.538.69 1.954 1.633 3.78 3 5.36 1.348 1.563 2.998 2.644 5.057 3.046.08.015.153.058.23.09M67.87 36.394c-.285 1.656-.5 3.325-.944 4.952-.042.154-.117.347-.022.545.083.177.02.376-.084.54-.518.81-.74 1.75-1.18 2.59-.822 1.568-1.78 3.03-2.956 4.368-1.317 1.502-2.868 2.635-4.71 3.394"/><path class="st18" d="M66.958 42.114c.4-.032.628-.303.87-.586.792-.925 1.17-2.036 1.447-3.183.22-.914.43-1.838.54-2.77.112-.95.287-1.91-.11-2.862-.263-.625-.676-1.003-1.334-1.13M63.356 78.75c.12.63.044 1.272.104 1.904.05.552-.213.84-.652 1.044-1.82.842-3.71 1.464-5.698 1.775-.5.078-.995.194-1.506.178M40.81 78.885c.083.107.16.236.108.36-.274.67-.082 1.365-.125 2.046-.022.347.31.463.544.583a18.57 18.57 0 0 0 4.875 1.688c.753.153 1.512.266 2.28.318M31.44 61.453c.07.255-.015.497-.097.724a10.996 10.996 0 0 0-.643 3.18c-.09 1.665.247 3.233.867 4.77.476 1.177 1.235 2.156 2.02 3.126.28.35.608.664.906 1.003.29.33.642.575.77 1.078.088.353.52.636.83.914.815.725 1.672 1.398 2.644 1.906.456.24.7.548.645 1.095-.048.483.02.978-.14 1.445-.467.06-.817-.2-1.193-.4-1.553-.828-2.877-1.937-4.057-3.226-.248-.272-.45-.58-.816-.74-.228-.1-.132-.444-.302-.623M48.993 53.872c-1.41-.592-2.813-1.204-4.288-1.666-.07.346-.34.584-.32.94.08 1.485-.302 3.002.293 4.545a83.635 83.635 0 0 0 4.406-1.82"/><path class="st18" d="M55.422 79.838c.126.42.064.844.054 1.27-.025 1.03-.012 2.06-.006 3.088.002.26-.072.412-.367.41-2.037-.003-4.073 0-6.11-.004-.22 0-.56-.5-.44-.76.212-.452.036-.887.072-1.326.032-.392.048-.787.045-1.18-.003-.437-.214-.66-.634-.68-2.275-.1-4.44-.698-6.563-1.462a1.58 1.58 0 0 0-.504-.082M63.264 78.93c-.218-.103-.395.02-.594.086-1.713.562-3.44 1.067-5.242 1.277-.608.07-1.216.15-1.824.226M35.588 43.522c-1.292.3-2.488.833-3.6 1.546a8.842 8.842 0 0 0-3.104 3.4c-.05.097-.12.183-.18.274M44.82 87.533c1.078.59 2.266.85 3.447 1.098 1.076.225 2.172.345 3.28.39 2.347.092 4.75-.442 6.837-1.196.213-.077.407-.204.64-.223M71.973 72.03c-.01.838-.217 1.648-.425 2.448-.148.567-.662.936-.99 1.41-.268.382-.575.735-.825 1.132-.2.318-.436.563-.847.72-.425.16-.742.6-1.108.918-.626.542-1.313 1-2.005 1.454-.214.14-.435.28-.686.307-.227.022-.33.11-.34.326M24.463 44.202c.164.07.33.102.464.267.777.944 1.5 1.92 2 3.045.18.4.374.843.41 1.23.056.586.114 1.236-.188 1.81-.01.02-.088.003-.134.003M57.61 51.965c-.074.046-.067.15-.04.177.44.44.307 1.022.412 1.547a5.48 5.48 0 0 1 .072 1.633c-.074.726-.09 1.478-.49 2.135M49.13 55.87c.03.03.062.06.09.09.382.415.71.908 1.37.908.993 0 2.02.092 2.73-.82.317-.406.344-.923.403-1.406.042-.352-.16-.683-.316-.993-.127-.253-.444-.257-.678-.31-.99-.232-1.98-.327-2.966.067-.283.113-.505.307-.705.487-.138.125-.116.463-.105.704.018.41.084.817.13 1.226M57.52 52.1c-.618-.016-1.125.34-1.682.518-.827.265-1.617.648-2.422.98M53.553 55.96c1.17.47 2.343.932 3.508 1.413.21.087.582-.06.596.357M69.33 77.66c.07.457-.074.868-.274 1.27-.487.986.118 2.165 1.184 2.315"/><path class="st18" d="M27.472 48.833c.858-.303 1.328-.163 1.86.642.21.32.422.668.42 1.083"/></g><g><defs><linearGradient x1="8.042%" y1="0%" x2="65.682%" y2="23.865%" id="a"><stop stop-color="#f9bf20" stop-opacity="0" offset="0%"/><stop stop-color="#f9bf20" stop-opacity=".631" offset="63.146%"/><stop stop-color="#f9bf20" offset="100%"/></linearGradient></defs><g transform="translate(1 1)" fill="none" fill-rule="evenodd" class="scales"><path d="M36 18c0-9.94-8.06-18-18-18" id="Oval-2" stroke="url(#a)" stroke-width="2"><animateTransform attributeName="transform" type="rotate" from="0 18 18" to="360 18 18" dur="0.9s" repeatCount="indefinite"/></path><circle fill="#f9bf20" cx="36" cy="18" r="1"><animateTransform attributeName="transform" type="rotate" from="0 18 18" to="360 18 18" dur="0.9s" repeatCount="indefinite"/></circle></g></g></svg>