<?xml version="1.0" encoding="utf-8"?>
<!-- Generator: Adobe Illustrator 19.2.1, SVG Export Plug-In . SVG Version: 6.00 Build 0)  -->
<svg version="1.1" id="Layer_1" xmlns="http://www.w3.org/2000/svg" xmlns:xlink="http://www.w3.org/1999/xlink" 
     viewBox="0 0 100 100">
<style type="text/css">
    .st0{fill:transparent;}
    .st1{fill:#FBBF00;}
    .st2{clip-path:url(#SVGID_2_);}
    .st3{fill:#979797;}
    .st4{fill:#84405C;}
    .st5{fill:#F1DC0F;}
    .st6{fill:#F7C6DB;}
    .st7{fill:#446B8F;}
    .st8{fill:#F1AF23;}
    .st9{fill:#27272A;}
    .st10{fill:#F0AF24;}
    .st11{fill:#124465;}
    .st12{fill:#F6A0C1;}
    .st13{fill:#121649;}
    .st14{fill:#1F1F23;}
    .st15{fill:#F9D9E7;}
    .st16{fill:#FEFEFE;}
    .st17{fill:#373635;}
    .st18{fill:none;stroke:#363636;stroke-width:0.7;stroke-linecap:round;stroke-linejoin:round;stroke-miterlimit:10;}
    .scales {
        -webkit-transform:scale(2.6);
        z-index:100;
    }
</style>
<g >
    <path class="st0" d="M52.1611786,19.2024746c-6.32481-0.1415138-14.1420364-1.1320782-17.6241989,0
        c-3.4821644,1.1320801-6.6801472,1.839632-7.6750603,4.2452888s3.6953945,5.6603909,3.908596,6.5802002
        s-0.1421318,6.0141621,0.0710697,8.0660496s0.7817268,4.2452888,0.4263878,4.9528389
        c-0.9069958,0.726078-2.0341434,1.1250877-3.1979389,1.1320801c0.4042149-0.8265724,0.8550148-1.6297417,1.3502483-2.405674
        c0,0-0.213274-3.3961906-0.213274-3.9622726c0-0.5660858-3.908596-2.9009552-5.0456429-1.0613213
        c-1.1370487,1.8396301,0-6.8632126-1.3502502-7.7830353c-1.3502483-0.9198246-2.7858505-1.7071075-3.5317383-0.6215897
        c-0.7458878,1.085516-0.590044,5.43293-1.0874996,5.6451836c-0.4974556,0.2122574-1.4923687-0.9191551-1.3502502-2.5468483
        c0.1421204-1.6276951,0.0710678-4.3871346-0.7817249-4.0333519s-2.7345877-1.5566044-3.7479811,0
        c-1.0133934,1.5566063-3.1452627,3.1138744-3.5006599,4.0333633c-0.3553972,0.919487-2.9136848,6.1553421-1.563436,8.7732697
        s1.6345029,4.8820076,3.0558047,5.8018913s3.4822083,10.1179352,5.1877632,11.8868065s5.8273687,6.014164,8.3857164,6.2971764
        s5.5431004-0.3537712,5.9694881,0c0.4263897,0.353775-0.3372669,15.0000229-0.3372669,15.0000229
        c-1.0390797,1.2738876-0.8441982,3.1452332,0.4352798,4.1797714c0.1673527,0.1353149,0.348938,0.252182,0.5415783,0.3485413
        c3.0558033,1.6981201,15.3501186,5.4481201,19.2586994,5.2358551s18.121666-2.5471725,23.949028-6.2264175
        c5.8273544-3.6792526,5.1877594-14.4339828,5.1877594-14.4339828s0.7106628-10.8254814,0.4974518-14.0802383
        c-0.2132034-3.2547531-9.8070145-10.6132164-9.7359467-11.8160515c0.0710678-1.2028389,1.6344986-4.3160439,1.7055664-5.9434052
        c-0.1704254-1.7665901-0.4793167-3.5172081-0.9238434-5.2358532c-0.0710678-0.8490524,3.1979446-2.9716949,3.7664642-4.2452869
        c0.5222092-1.6638527-0.0101776-3.4771881-1.3502502-4.5990562c-1.4213028-1.2028351-10.0202484-4.9528389-13.1470909-4.2452869
        C57.2058449,18.6399059,54.6906548,18.9942799,52.1611786,19.2024746z"/>
    <ellipse class="st1" cx="50" cy="50" rx="37.9957924" ry="37.8297691"/>
    <g>
        <defs>
            <path id="SVGID_1_" d="M88.3035202,50c0,20.8927994-17.0112991,37.8297729-37.9957924,37.8297729
                S12.3119326,70.8927994,12.3119326,50c-14.4428406-9.955204-6.9175749-17.1969414-0.8887978-23.8924789
                c6.9566526-7.7260056,27.642643-13.9372902,38.8845978-13.9372902C71.2922287,12.1702309,88.3035202,29.1071968,88.3035202,50z"
                />
        </defs>
        <clipPath id="SVGID_2_">
            <use xlink:href="#SVGID_1_"  style="overflow:visible;"/>
        </clipPath>
        <g class="st2">
            <path class="st3" d="M52.0615883,20.2903061c-0.4819946,0.1075821-0.9639893,0.1121464-1.4459839,0
                C51.097599,20.2903061,51.5795937,20.2903061,52.0615883,20.2903061z"/>
            <path class="st4" d="M78.8635254,64.6487961c0.0097961-0.4355316-0.0891647-0.8753624,0.052002-1.305706
                c0,0.4341812,0,0.8683662,0,1.3025551C78.8984604,64.6509247,78.8811264,64.6519699,78.8635254,64.6487961z"/>
            <path class="st3" d="M78.863533,64.6487961c0.0175934,0.0031738,0.0349274,0.0021286,0.0519943-0.0031509
                c0,0.3884811,0,0.7769547,0,1.1654358c-0.0222168,0.0006409-0.0444183,0.0012665-0.0666351,0.0018997
                C78.853775,65.4249191,78.8586578,65.0368576,78.863533,64.6487961z"/>
            <path class="st5" d="M15.7018185,48.190712c0.8924465,0.2518806,1.7888451,0.4647446,2.7268391,0.4753265
                c2.3401184,0.0263977,4.1186333-0.9742851,5.4062386-2.8895149c0.2158909-0.321125,0.4364033-0.6402626,0.5748806-1.0074844
                c0.0638371-0.1692886,0.1950989-0.2534561,0.3330994-0.0780983c0.7062912,0.8974838,1.4182415,1.7917976,1.8726215,2.854332
                c0.4050426,0.9471512,0.6125431,1.9126663,0.2916279,2.928627c-0.0551853,0.1747093-0.0151901,0.3046799,0.1453686,0.3635483
                c0.1773319,0.0650177,0.3117485-0.0132256,0.3722668-0.1986351c0.1393814-0.4270363,0.2145996-0.8660736,0.1863422-1.3134117
                c-0.0142937-0.2262802,0.0728626-0.3027763,0.2804279-0.3317108c0.3997517-0.0557327,0.7165871,0.0772629,0.9823589,0.3691673
                c0.2828655,0.3106842,0.4760857,0.6718597,0.5918522,1.0694427c0.0576305,0.1979218,0.1594315,0.3259544,0.3580971,0.2690735
                c0.1970539-0.0564156,0.22756-0.2200279,0.1607227-0.4163857c-0.1674175-0.4918137-0.3782387-0.9601402-0.7617111-1.3220406
                c-0.1576996-0.1488266-0.1495094-0.2611656-0.0564957-0.4379616c0.8576813-1.6302109,2.1296101-2.8377533,3.7555771-3.6927757
                c0.7109718-0.3738632,1.4546127-0.6645737,2.2127647-0.9277153c0.280529-0.0973701,0.3866005-0.0541115,0.4814568,0.2371445
                c0.5214348,1.6010895,1.2176628,3.1250687,2.1463928,4.5347977c0.356945,0.5418091,0.7612076,1.0527191,1.1439438,1.5777092
                c0.0088348,0.0591583,0.0177078,0.118248,0.1017227,0.1056328c0,0-0.0027351,0.0014114-0.0029221,0.0015984
                c-0.0072136,0.051857,0.0144997,0.0749588,0.067131,0.0673218c0,0,0.0075951,0.0008163,0.007328,0.0009537
                c-0.05336,0.128067,0.0286903,0.2194977,0.0917854,0.3106308c0.8648605,1.249157,1.8360825,2.4100723,2.9644775,3.4309502
                c0.5644188,0.5106354,1.1726494,0.9727974,1.8768768,1.2887497c-0.05093,0.7335243,0.1129951,1.4415207,0.272316,2.147541
                c0.0977898,0.4333572,0.2162552,0.4792824,0.6274719,0.3154716c0.084549-0.03368,0.1710129-0.0625992,0.256588-0.093647
                c0.0261879,0.1099625,0.0566368,0.2190437,0.077877,0.3298836c0.1310883,0.6839752,0.9359398,1.1878548,1.5642052,0.9150238
                c0.5366974-0.2330704,1.0495949-0.5104065,1.5775871-0.7586632c0.3456383-0.1625175,0.6967583-0.2777786,1.0885849-0.256073
                c0.5358963,0.029686,1.0723152-0.0199203,1.6098862,0.0650101c0.7236214,0.1143341,1.4057121-0.0956116,2.0660706-0.3686867
                c0.2296715-0.0949745,0.419239-0.0704231,0.647438,0.0326271c1.0001526,0.4516563,1.9582367,0.9947815,2.9948616,1.3673782
                c0.3287163,0.1181526,0.6529045,0.2098274,0.997467,0.0610313c0.5141945-0.2220459,0.7734909-0.6536484,0.954052-1.1473236
                c0.374958-1.0251465,0.5369644-2.0872269,0.5451279-3.175396c0.0011444-0.152832-0.0425873-0.3119278,0.2184448-0.3312492
                c1.2955513-0.0958824,2.335247-0.7402496,3.2631493-1.5836487c1.0131683-0.9208984,1.8058929-2.0206795,2.5148163-3.1837234
                c0.9667358-1.5860214,1.7173843-3.2653275,2.2429352-5.0467339c0.1207047-0.4091568,0.1190643-0.8562508,0.3699036-1.2262917
                c3.4305496,1.9570427,6.3875732,4.3972244,8.2036285,7.9948235c0.7743683,1.5340309,1.1363907,3.1985474,1.4938507,4.8591576
                c0.4476395,2.0795746,0.6710587,4.1870308,0.729454,6.3141747c0.0646439,2.3549767-0.0490494,4.6987114-0.3737869,7.0318871
                c-0.0577774,0.4151154-0.2291183,0.7889023-0.5043793,1.1082001c-0.2935181,0.340477-0.6320801,0.555542-1.1215668,0.5529099
                c-0.7431564-0.0039902-1.4866714,0.0584488-2.2300339,0.0926819c-0.0449371-0.2654648,0.0558624-0.5180969,0.070488-0.7794113
                c0.0349045-0.6233139,0.0819855-1.2465897,0.1477432-1.8674011c0.1182022-1.1157837,0.0818939-2.2310486-0.051239-3.3384399
                c-0.1338577-1.1134033-0.3573456-2.2158623-0.5068436-3.3277473c-0.2250137-1.6735306-0.8341446-3.1846161-1.8593597-4.526619
                c-0.2127304-0.2784653-0.4233932-0.5697021-0.7541809-0.7340393c-0.1273956-0.0632935-0.2605515-0.1164551-0.3920975-0.0409889
                c-0.1496735,0.0858688-0.1073151,0.2415199-0.0869675,0.3720551c0.0261383,0.1676331,0.0763168,0.3315048,0.1151047,0.4972382
                c0.1159821,0.4956131,0.3111267,0.9667244,0.2955551,1.4989586c-0.0246353,0.841877-0.0535431,1.6810799-0.1429291,2.5195351
                c-0.0865784,0.8122177-0.1712418,1.6236382-0.3409729,2.4236679c-0.3067932,1.446106-0.84935,2.8108139-1.4774323,4.1417923
                c-0.952095,2.0176239-2.1886749,3.8244095-3.8689651,5.3325272c-1.3696213,1.2292862-2.8471069,2.2867661-4.4858704,3.1149216
                c-1.8088455,0.9141083-3.7094879,1.6115036-5.6208382,2.2806931c-0.494648,0.1731949-1.0232391,0.2359772-1.4964714,0.4729919
                c-1.3040123,0.1329575-2.6100693,0.046524-3.9151077,0.0308456c-2.4102478-0.0289612-4.7603416-0.4274445-7.0530968-1.1669388
                c-2.6562805-0.8567505-5.0476151-2.1982803-7.230381-3.9192505c-0.4219131-0.3326492-0.8389854-0.67379-1.2347183-1.0365067
                c-1.571125-1.4400406-2.5238571-3.2401581-3.0079479-5.288475c-0.5296879-2.2412415-0.2264881-4.4146538,0.6321068-6.5297012
                c0.0912514-0.2247849,0.2490292-0.4464912,0.1060543-0.7089043c0.2771187-0.4717331,0.5468445-0.9479599,0.8330574-1.4141502
                c0.4233627-0.6895828,0.860527-1.3707581,1.2874146-2.0582237c0.1562843-0.2516823,0.1463661-0.7322273-0.0274162-0.869812
                c-0.2562828-0.2029076-0.4910545-0.1196785-0.7472687,0.0497475c-0.7231293,0.4781761-1.4778786,0.909729-2.1927567,1.3993225
                c-1.5681515,1.0739784-3.2657547,1.4648247-5.1408958,1.0750732c-2.7153282-0.564373-4.7259617-2.1332932-6.1836987-4.4090614
                c-1.0938396-1.7076683-2.1573315-3.435791-3.2367039-5.1533813
                C16.2549019,49.0754013,15.9005289,48.6806335,15.7018185,48.190712z M51.2530556,62.5198479
                c-1.188961-0.000103-2.0970764,0.8978424-2.0948792,2.0714149c0.0021858,1.1663666,0.9252968,2.0997391,2.0782776,2.101387
                c1.1711845,0.0016785,2.1212654-0.9389343,2.1236725-2.1025009
                C53.3624954,63.443409,52.4226341,62.5199432,51.2530556,62.5198479z M51.2375336,75.6259308
                c1.1826668,0.0012589,2.1234169-0.9256897,2.1225891-2.0914459c-0.0008163-1.1458969-0.9462776-2.0764771-2.1080513-2.0748596
                c-1.1798477,0.0016327-2.0950394,0.909523-2.0938759,2.0771713
                C49.1593704,74.7141571,50.0656242,75.6246872,51.2375336,75.6259308z"/>
            <path class="st5" d="M29.4924011,24.8848133c-0.185627-0.3679905,0.0287666-0.6157112,0.2781372-0.8270988
                c0.5747089-0.4871712,1.2893829-0.6843433,1.9928017-0.8843575c1.8242226-0.5187092,3.6842766-0.8850765,5.5826225-0.8883057
                c1.6228828-0.0027599,3.1723404-0.4089642,4.7523041-0.652092c1.8357086-0.2824821,3.680069-0.4813442,5.5343208-0.6038437
                c1.7403183-0.1149712,3.4795761-0.1887665,5.2232971-0.1110725c3.1142349,0.1387577,6.2293396,0.2605228,9.3424683,0.4204903
                c1.1386185,0.0585079,2.2183113,0.4504166,3.3110085,0.7424049c1.6708832,0.4464893,3.3285294,0.9430485,4.871582,1.7445335
                c0.5809097,0.3017349,1.1298752,0.6550407,1.456192,1.2563839c-0.4694519,0.6842098-1.0989838,1.1734257-1.84198,1.5374393
                c-1.5953598,0.7816086-3.3054123,1.1977596-5.0310669,1.5462189c-1.2266655,0.2476997-2.4677315,0.4279938-3.7060623,0.614006
                c-0.7880592,0.1183739-1.5826569,0.268919-2.3747025,0.2711678c-2.142746,0.0060921-4.285244,0.0446014-6.4296646-0.0355644
                c-1.9204483-0.0717907-3.8441658-0.0685692-5.7662392-0.1451473c-1.4154396-0.0563927-2.8331795-0.000494-4.2439728-0.2072392
                c-1.2050934-0.1765995-2.4099388-0.3621902-3.62994-0.4335556c-0.989193-0.0578632-1.9769783-0.1553307-2.96175-0.2670135
                c-0.712101-0.080759-1.4494057-0.1248951-2.0809593-0.5034218c-0.9694862-0.5810699-1.907877-1.2133694-2.8726997-1.8024426
                c-0.4336185-0.2647476-0.8277016-0.6156063-1.3560867-0.7028027c0,0,0.0021706,0.0026264,0.0021667,0.0026131
                C29.5269146,24.9323387,29.5096588,24.9085751,29.4924011,24.8848133z"/>
            <path class="st6" d="M67.356369,37.6305733c-0.119339,1.1715736-0.4097443,2.3107758-0.6604156,3.4574699
                c-0.8079453,3.6959038-2.703476,6.7686119-5.4398842,9.3482742c-0.8626099,0.8131981-1.874012,1.4218559-2.9456558,1.9310074
                c-0.2057762,0.0977669-0.3205109,0.0844345-0.3417435-0.1670074c-0.0056381-0.0667877-0.0371056-0.1311989-0.0546837-0.1972351
                c-0.0896339-0.3367844-0.1749535-0.385376-0.5162468-0.2560539c-0.9947052,0.3769112-1.9869652,0.7602119-2.9802246,1.1409073
                c-0.0319939,0.0122643-0.0656166,0.0209465-0.0964241,0.0355911c-0.5630722,0.2676811-1.07827,0.3108406-1.7384186,0.133461
                c-1.16436-0.3128548-2.3898697-0.3086281-3.471962,0.4147987c-0.1553154,0.1038322-0.2608871,0.0283356-0.3792076-0.0184326
                c-1.2665939-0.5006371-2.5311623-1.0063324-3.7965889-1.5098915c-0.4737511-0.18853-0.5807228-0.125-0.6463547,0.3796501
                c-0.0556526,0.4278412-0.0563164,0.4303741-0.4649162,0.3240547c-2.4492226-0.6373215-4.2241554-2.1584206-5.5796051-4.2267189
                c-1.3817711-2.1084633-2.245369-4.4245682-2.7726288-6.8749313c-0.1678123-0.7798843-0.4000778-1.5455399-0.5204468-2.3358192
                c0.0472145,0.0300369,0.1077652,0.0498924,0.1393852,0.091526c0.3549347,0.4673119,0.8069954,0.7077026,1.4118195,0.6714439
                c0.4446144-0.0266495,0.8923836,0.0038643,1.3382912-0.0080223c0.3751373-0.0099983,0.753212,0.0517616,1.1254349-0.0508842
                c0.9979439-0.2752037,2.0164566-0.3436203,3.0464554-0.2906151c0.0912933,0.0046997,0.183033,0.0007477,0.2745399,0.0008011
                c0.1033134,0.1608543,0.198513,0.3276482,0.3114624,0.4815254c0.4101639,0.5587769,0.9628716,0.9249001,1.6098747,1.1595383
                c0.089901,0.4829102,0.5081711,0.800293,1.0698738,0.8266945c0.3788872,0.0178108,0.7544975-0.0142899,1.1259956-0.0724678
                c1.1457939-0.179451,2.0114288-0.5855179,2.3765984-1.7991333c0.088028-0.292572,0.2102547-0.3219414,0.4629097-0.3295135
                c1.2482185-0.0373917,2.4923096,0.1208687,3.7394104,0.0705414c0.4192276-0.0169182,0.8095589,0.1264801,1.2184448,0.1595459
                c0.1243782,0.0100594,0.2339668,0.0892067,0.2849655,0.2210617c0.0973358,0.2516327,0.2727737,0.4459496,0.4703445,0.622673
                c0.0902824,0.080761,0.1416473,0.1739273,0.133976,0.2995644c-0.0219879,0.3599892,0.2012291,0.5593758,0.4808617,0.7240829
                c0.4468002,0.2631721,0.9523888,0.320015,1.4478989,0.3639107c0.3445168,0.0305214,0.7203674,0.1101303,1.0480232-0.0677834
                c0.6819611-0.3703117,1.432251-0.6416397,2.0189781-1.1535301c0.4907951-0.4281998,1.0166512-0.5337334,1.6306992-0.4842415
                c0.7021179,0.056591,1.3857613-0.0489082,2.049614-0.2984772c1.2183342-0.4580154,2.1952477-1.2493172,3.0714149-2.180069
                C67.0088806,37.9865799,67.1331253,37.7618713,67.356369,37.6305733z M55.0989685,43.7458572
                c-0.0024567-0.1419144-0.0542755-0.2655983-0.1386452-0.3780174c-0.3644142-0.4855728-0.8066635-0.895195-1.2665062-1.2876549
                c-0.1480484-0.1263542-0.3020248-0.2483673-0.4905891-0.3049927c-0.2224808-0.066803-0.3803787-0.0301361-0.3890381,0.2563324
                c-0.0078201,0.2586212,0.0694618,0.4876823,0.1603737,0.7241516c0.216732,0.5637817,0.5529251,1.0658684,0.8100739,1.6081581
                c-0.0697594,0.0585175-0.1364365,0.1212044-0.2097473,0.1749153c-0.7718773,0.5654793-1.5963554,0.9554825-2.594326,0.9285622
                c-0.9042091-0.0243912-1.6597137-0.3878517-2.3696518-0.8889122c-0.1965103-0.1386871-0.3761635-0.1994743-0.6293526-0.1730385
                c-0.460289,0.0480614-0.9269829,0.0357246-1.2030487-0.4511986c-0.0765266-0.1349792-0.2086449-0.1815186-0.354908-0.1049652
                c-0.1444626,0.0756073-0.1763496,0.2124062-0.1293678,0.3532295c0.0351295,0.1052971,0.0949974,0.2084579,0.1656647,0.2948952
                c0.2826424,0.3456917,0.6721802,0.478138,1.0992355,0.4572716c0.4201164-0.0205345,0.7646523,0.089344,1.1138649,0.3322525
                c0.6977463,0.4853554,1.4900856,0.7566299,2.3476143,0.7609787c1.0744896,0.0054436,2.0008507-0.4185829,2.8391571-1.0573578
                c0.1653442-0.1259956,0.3298454-0.2138481,0.5492096-0.2460518c0.370945-0.0544472,0.7485008-0.1384392,1.023735-0.4322586
                c0.133316-0.1423187,0.2811165-0.2930717,0.1539879-0.5096245C55.454895,43.5780182,55.2690468,43.7043839,55.0989685,43.7458572
                z M56.1949921,47.1051292c0.1422195-0.0726089,0.286705-0.1411438,0.4262161-0.218586
                c0.3974037-0.2205849,0.8451004-0.3609276,1.1603813-0.7133484c0.1076508-0.120327,0.2457085-0.2593346,0.0880737-0.4103813
                c-0.1423759-0.136425-0.3808861-0.1696854-0.4988556-0.015419c-0.2399254,0.3137436-0.5943451,0.4154091-0.9134865,0.5784492
                c-2.3703384,1.210907-4.8713074,1.5873985-7.4929733,1.1134682c-1.4036369-0.2537422-2.7385826-0.7207069-4.0114822-1.3630867
                c-0.1657562-0.0836525-0.3574562-0.168457-0.4924278,0.0218544c-0.1407242,0.1984329-0.0013733,0.3369255,0.1656532,0.4449081
                c0.2300377,0.4247322,0.6528549,0.617363,1.0517769,0.8143082c0.5213814,0.2574081,1.0839233,0.4323235,1.6045532,0.691021
                c1.1546326,0.5737343,2.3769226,0.8433685,3.6571388,0.898098c1.214222,0.051899,2.3460274-0.3052673,3.4703331-0.6917152
                c0.5287743-0.1817474,1.0582809-0.3652191,1.5175133-0.7055321
                C56.088501,47.4297905,56.1934166,47.3058929,56.1949921,47.1051292z M62.2526817,43.6311455
                c0.1510696-1.1162453-1.0173492-2.0275536-1.9334641-2.042984c-1.0675087-0.0179863-2.0930481,1.0226822-2.0684357,1.9566269
                c0.0301208,1.1427155,0.8823929,2.0037918,1.9993172,2.0538216
                C61.2214432,45.6421127,62.3801308,44.7047615,62.2526817,43.6311455z M43.5926361,43.3474388
                c0.1648865-1.0058556-0.9308701-2.0119209-1.8585663-2.0344353c-1.3078232-0.0317345-2.1107216,0.9273834-2.1253204,1.9686661
                c-0.0163574,1.1667862,0.9319534,2.0226173,1.9754524,2.028614
                C42.7554855,45.3170128,43.7098007,44.3403053,43.5926361,43.3474388z M51.5542717,49.9756279
                c-0.4917526,0-0.9835091-0.0006523-1.4752617,0.0003166c-0.1966591,0.0003891-0.4118958-0.0047226-0.4839745,0.2261581
                c-0.0716248,0.2294464,0.0555916,0.3712769,0.2522812,0.498127c0.7139359,0.4604416,1.5096245,0.4812393,2.3105659,0.4306564
                c0.4108582-0.0259476,0.8047066-0.1688499,1.1341896-0.4326553c0.1584702-0.1268845,0.2677689-0.3049583,0.1978836-0.5103149
                c-0.070488-0.2071304-0.2733116-0.2121315-0.4604263-0.2122002
                C52.5377769,49.9755325,52.0460243,49.9756546,51.5542717,49.9756279z M50.2008247,43.2870026
                c0.0391693-0.3855247-0.0294876-0.7388916-0.3770828-0.9611893c-0.2941437-0.1881142-0.8456039-0.1063271-1.1268196,0.1336632
                c-0.3550949,0.3030357-0.5838318,0.94104-0.4561195,1.2722054c0.1312599,0.3403358,0.5050888,0.5523987,0.9755821,0.553421
                c0.5833778,0.0012703,0.7685852-0.1077995,0.9417496-0.5285835
                C50.2225151,43.600071,50.1892891,43.4425774,50.2008247,43.2870026z"/>
            <path class="st7" d="M57.7615089,94.1852951c-0.936821-0.0224915-1.8069-0.3070908-2.6071777-0.7598114
                c-1.113575-0.6299591-2.0979347-0.4277725-3.0379753,0.3360062c-0.0505447,0.0410614-0.0865746,0.1111755-0.1868591,0.0951538
                c0.1058693-1.0029373,0.2138596-2.0060806,0.3166008-3.009758c0.037056-0.3620453,0.0693283-0.7249603,0.0892029-1.0882721
                c0.0154152-0.2817764,0.0760574-0.4300842,0.4314499-0.4491806c2.0925674-0.1124496,4.1122589-0.5716705,6.0537872-1.3617477
                c0.1484833-0.0604248,0.3084679-0.1221771,0.3284302-0.3131027c0.0254784-0.2436829-0.2187119-0.3509445-0.5354233-0.2172699
                c-0.92976,0.3924332-1.889534,0.6886749-2.8741951,0.9056473c-1.4101791,0.3107224-2.8369598,0.5207901-4.282196,0.440979
                c-1.91008-0.105484-3.7888298-0.4105835-5.5973969-1.0670853c-0.2786942-0.1011734-0.5659447-0.1682892-0.8138809-0.3475418
                c-0.1912651-0.1382751-0.3681908-0.0874863-0.4923515,0.1179657c-0.2350426,0.2820053-0.1789093,0.6214066-0.1060677,0.9170456
                c0.3674812,1.4914169,0.7736435,2.9733276,1.152462,4.4620438c0.1371002,0.5387573,0.3622208,1.056076,0.4054947,1.6180649
                c-2.1528549,0.1553268-3.9817772-0.6794815-5.6913719-1.8609543c-0.7627831-0.5271454-1.4729614-1.1201401-2.1360092-1.7705994
                c-1.5140228-1.4852219-2.5429039-3.2769775-3.3384476-5.2146454c-0.5932655-1.4449997-0.8751221-2.9616547-1.0373764-4.5097275
                c-0.1514969-1.4454575-0.3564377-2.8853607-0.5471382-4.4015274c0.2844391,0.2985611-1.2079926-4.2613144,1.2376213-2.4514008
                c0.7120361,0.5269547,2.8440666,1.8528976,3.1464119,2.0593262c1.9584999,1.3371277,2.9033051,1.981575,5.1813812,2.673851
                c1.3818436,0.4199142,2.7887383,0.706955,4.212326,0.9281845c0.2143822,0.0333176,0.4313736,0.0769501,0.6463928,0.0731583
                c0.3536987-0.0062485,0.6786041,0.0647049,0.9787979,0.2494202c-0.0017204,0.0719757-0.0033607,0.1439438-0.0050011,0.2159042
                c-0.8454132-0.0272751,9.4524002-0.888855,10.4924545-1.1557922c2.7404137-0.7033539,5.2863998-1.854744,7.6834793-3.3430862
                c0.0773926-0.0480423,0.1600113-0.087738,0.2402267-0.1313629c-0.0024338,0.1109848-0.0048904,0.2220001-0.0073471,0.3330154
                c-0.4474945,0.5308533-1.4326019,4.3666229-1.0913773,4.1848068c-0.0558243,0.5518494-0.2991714,1.0487213-0.4740067,1.5643082
                c-0.2192917,0.6467056-0.403923,1.3168564-0.7733917,1.895401c-0.4538574,0.7106934-0.9570427,1.3910675-1.4558754,2.0722275
                c-1.4828949,2.0249023-3.0182533,4.0129929-4.3646393,6.1335602
                C58.4627342,92.7011566,58.0286026,93.4009552,57.7615089,94.1852951z"/>
            <path class="st8" d="M29.5420113,24.9535007c0.5283852,0.0871964,0.9224682,0.438055,1.3560867,0.7028027
                c0.9648228,0.5890732,1.9032135,1.2213726,2.8726997,1.8024426c0.6315536,0.3785267,1.3688583,0.4226627,2.0809593,0.5034218
                c0.9847717,0.1116829,1.9725571,0.2091503,2.96175,0.2670135c1.2200012,0.0713654,2.4248466,0.2569561,3.62994,0.4335556
                c1.4107933,0.2067451,2.8285332,0.1508465,4.2439728,0.2072392c1.9220734,0.0765781,3.8457909,0.0733566,5.7662392,0.1451473
                c2.1444206,0.0801659,4.2869186,0.0416565,6.4296646,0.0355644c0.7920456-0.0022488,1.5866432-0.1527939,2.3747025-0.2711678
                c1.2383308-0.1860123,2.4793968-0.3663063,3.7060623-0.614006c1.7256546-0.3484592,3.4357071-0.7646103,5.0310669-1.5462189
                c0.7429962-0.3640137,1.3725281-0.8532295,1.84198-1.5374393c0.4123917,0.7502556,0.2217712,0.9379559-0.3469238,1.4958534
                c-1.0611572,1.0410156-2.1805115,2.0234776-3.2835236,3.0216732c-0.177803,0.1609077-0.261116,0.3292465-0.2433624,0.5667171
                c0.0161362,0.2158546-0.0226746,0.4376373,0.0084839,0.6501598c0.0811462,0.5534439-0.164856,0.9999161-0.4450302,1.4334888
                c-0.1974411,0.3055382-0.5373535,0.3890419-0.8652802,0.4306374c-1.7266922,0.2190247-3.4534912,0.4399757-5.1839676,0.6260262
                c-3.6509018,0.3925285-7.3139839,0.5597153-10.985836,0.5113029c-2.2924995-0.0302277-4.5789185-0.1591721-6.8599586-0.4065971
                c-2.8051147-0.3042679-5.5741615-0.7978096-8.312336-1.4693699c-0.5386314-0.1321049-0.874855-0.4982433-1.007637-1.0184441
                c-0.0739708-0.2898045-0.2095871-0.5216618-0.3977127-0.7415981c-1.3678932-1.5991879-2.7339916-3.1999073-4.0966339-4.8035297
                C29.7088852,25.250452,29.5722466,25.1343117,29.5420113,24.9535007z"/>
            <path class="st6" d="M12.1875782,40.0904884c0.717454-0.221817,0.9184227-0.7927132,0.5049648-1.515419
                c-0.5440702-0.9510078-1.1106329-1.8892441-1.6654491-2.8341827c-0.3388834-0.5771713-0.6106014-1.1734123-0.5663185-1.8686447
                c0.0347137-0.5450096,0.3073311-0.9429169,0.7401552-1.2486382c0.2054625-0.1451225,0.3845415-0.1079559,0.5338755,0.0925827
                c0.130764,0.175602,0.2262478,0.3691864,0.3056593,0.5718498c0.5103607,1.3024597,1.2143774,2.5030327,1.9661112,3.6770668
                c0.1539812,0.2404861,0.3529434,0.4602928,0.6504707,0.5307465c0.558239,0.1321831,1.0272751-0.347599,0.8738861-0.9632759
                c-0.1616917-0.6490021-0.4238844-1.272747-0.6319771-1.9108238c-0.3321266-1.0183983-0.7263231-2.0165596-1.0077591-3.0513477
                c-0.0847464-0.3115978-0.0995693-0.6305561-0.0521708-0.9502926c0.0772667-0.5212154,0.4763556-0.9226341,0.9908772-1.0008297
                c0.3213015-0.04883,0.5844593,0.0359001,0.7798338,0.3120632c0.1743546,0.2464542,0.2832479,0.5181217,0.366992,0.8042622
                c0.4641352,1.5858784,0.9293699,3.171442,1.3972826,4.7562199c0.0352821,0.119503,0.0851631,0.2369385,0.1442432,0.346817
                c0.1325474,0.2465134,0.3343258,0.4237442,0.6241131,0.4081459c0.2973614-0.0160027,0.5206089-0.1633301,0.6820183-0.4399109
                c0.4678669-0.801712,0.5518131-1.7053909,0.7320766-2.5836945c0.1420746-0.6922302,0.2686539-1.3876057,0.4036808-2.0812817
                c0.1231918-0.6328793,0.6697063-0.9548626,1.3890266-0.8203983c0.5298824,0.0990524,0.8144417,0.562788,0.6924419,1.1832466
                c-0.2048855,1.0420074-0.3806934,2.0879402-0.4432869,3.1483994c-0.0835514,1.4155579-0.0951042,2.8296928,0.2404804,4.2217598
                c0.0963802,0.3997993,0.2375145,0.7847748,0.4653549,1.1337929c0.5324478,0.8156433,1.2858315,0.892292,1.9689484,0.1884918
                c0.4230556-0.4358673,0.8550568-0.8586922,1.3645859-1.1967583c0.6298809-0.4179115,1.3093815-0.4336548,2.0102444-0.2480927
                c0.2898693,0.0767403,0.4699097,0.2843208,0.5210743,0.5760689c0.0534325,0.3046646-0.0978184,0.517395-0.3469181,0.6874619
                c-0.6809635,0.4649162-1.3308125,0.9705849-1.9624634,1.5005379c-0.7806034,0.6549263-1.455471,1.3871613-1.8223591,2.3573608
                c-0.8893337,0.4436874-1.7337303,0.9728584-2.6418934,1.3804779c-0.7214317,0.3238068-1.4611645,0.6186218-2.2555141,0.6664886
                c-1.0417042,0.0627708-2.0722733-0.0304985-3.0860424-0.3264236c-1.8133526-0.5293427-2.9578905-1.66185-3.3101473-3.5313377
                C12.6164036,41.387516,12.6533585,40.6700211,12.1875782,40.0904884z"/>
            <path class="st9" d="M50.202652,37.7602043c-3.0670395,0-6.1340904-0.0044861-9.2011185,0.0022354
                c-1.203537,0.0026398-2.3732185-0.1859703-3.4756279-0.6594734c-1.1122055-0.4777107-1.9771881-1.2668762-2.5822754-2.3153572
                c-0.4383354-0.7595329-0.7544556-1.5717926-0.9440727-2.4300766c-0.0224152-0.10149-0.0740929-0.2224426,0.0239182-0.2896347
                c0.084034-0.0576172,0.0317497-0.4289684,0.1098366-0.3820591c0.5521202,0.3316822,1.3271217,0.8734951,1.9344406,1.0146809
                c1.6743088,0.3892365,3.3627777,0.7132683,5.0692825,0.9356079c1.2783127,0.1665497,2.5549011,0.3376617,3.8430748,0.4276047
                c0.9978294,0.0696716,1.9958916,0.1393051,2.9930382,0.2137909c0.8305092,0.0620384,1.6618652-0.0146675,2.4844551,0.067421
                c0.7720451,0.0770493,1.5411797,0.0620384,2.3100929,0.0497818c1.3056068-0.0208092,2.6111107-0.0738983,3.9154816-0.1373253
                c1.0222511-0.0497055,2.0442696-0.1185226,3.0635567-0.2101402c1.0172768-0.0914345,2.0308609-0.2233505,3.0463829-0.3346367
                c0.9005699-0.0986862,1.8019295-0.1903152,2.7021675-0.2918129c0.2648163-0.0298576,0.526741-0.0845032,0.790535-0.1241188
                c0.1028976-0.0154495,0.2256012-0.0529175,0.3020248,0.0272102c0.0721893,0.0756912-0.0030365,0.1822166-0.0367126,0.2596855
                c-0.7061768,1.6246529-1.8230438,2.8507156-3.4894371,3.5373116c-0.8034363,0.3310432-1.6486206,0.4985542-2.508358,0.5645103
                c-2.2420654,0.1720085-4.4889259,0.0399551-6.7334862,0.0717583
                C52.6143494,37.7742462,51.4083977,37.7602043,50.202652,37.7602043z"/>
            <path class="st10" d="M53.6435623,79.5160828c0.4732323-0.2370148,1.0018234-0.2997971,1.4964714-0.4729919
                c1.9113503-0.6691895,3.8119926-1.3665848,5.6208382-2.2806931c1.6387634-0.8281555,3.1162491-1.8856354,4.4858704-3.1149216
                c1.6802902-1.5081177,2.9168701-3.3149033,3.8689651-5.3325272c0.6280823-1.3309784,1.170639-2.6956863,1.4774323-4.1417923
                c0.1697311-0.8000298,0.2543945-1.6114502,0.3409729-2.4236679c0.089386-0.8384552,0.1182938-1.6776581,0.1429291-2.5195351
                c0.0155716-0.5322342-0.1795731-1.0033455-0.2955551-1.4989586c-0.0387878-0.1657333-0.0889664-0.3296051-0.1151047-0.4972382
                c-0.0203476-0.1305351-0.062706-0.2861862,0.0869675-0.3720551c0.131546-0.0754662,0.2647018-0.0223045,0.3920975,0.0409889
                c0.3307877,0.1643372,0.5414505,0.455574,0.7541809,0.7340393c1.0252151,1.3420029,1.634346,2.8530884,1.8593597,4.526619
                c0.149498,1.1118851,0.3729858,2.214344,0.5068436,3.3277473c0.1331329,1.1073914,0.1694412,2.2226562,0.051239,3.3384399
                c-0.0657578,0.6208115-0.1128387,1.2440872-0.1477432,1.8674011c-0.0146255,0.2613144-0.1154251,0.5139465-0.070488,0.7794113
                c-0.7091751,0.0385818-1.4184265,0.0758514-2.1274948,0.1163483c-0.3192291,0.0182343-0.1995697-0.1403198-0.120163-0.2853394
                c0.681427-1.2445526,1.1128845-2.5732574,1.3489304-3.9679871c0.34655-2.0475922,0.1823959-4.0706139-0.3047943-6.0757561
                c-0.1291656-0.531601-0.2968445-1.0538216-0.4351654-1.5833664c-0.0570297-0.2183495-0.1598434-0.3765907-0.4012299-0.3022881
                c-0.2434158,0.0749397-0.1796646,0.2725563-0.125061,0.4548264c0.4334183,1.4465752,0.7827835,2.913517,0.8627548,4.4243622
                c0.1589661,3.0030975-0.5118942,5.7816315-2.3711472,8.2092896c-0.5067291,0.6616516-1.2094574,1.1168823-1.863327,1.614212
                c-2.9882126,2.2728195-6.2922478,3.903038-9.9591293,4.7757645
                C56.9730644,79.244339,55.3226929,79.4898682,53.6435623,79.5160828z"/>
            <path class="st11" d="M57.7615089,94.1852951c0.2670937-0.7843399,0.7012253-1.4841385,1.1410141-2.176796
                c1.346386-2.1205673,2.8817444-4.1086578,4.3646393-6.1335602c0.4988327-0.68116,1.002018-1.3615341,1.4558754-2.0722275
                c0.3694687-0.5785446,0.5541-1.2486954,0.7733917-1.895401c0.1748352-0.5155869,0.4181824-1.0124588,0.4740067-1.5643082
                c0,0-0.0020599,0.0023956-0.0020599,0.0023956c0.022934-0.0211563,0.0458755-0.042305,0.0688095-0.063446
                c1.0311508-0.7008591,2.3135757-1.7337189,3.2913818-2.6228638c0.0045776,0.3995667-0.4113235,0.9741669-0.5486069,1.2135239
                c-0.5472488,0.9541016,0.0904922,2.1576996,0.983284,2.5830536c0.2641907,0.1258621,0.2498245,0.2467041,0.1712799,0.4621201
                c-0.4465637,1.2248077-1.0307617,2.3834152-1.6747284,3.5150146c-0.8586426,1.5088577-1.2944412,2.8426437-2.3554306,4.2082291
                c-1.1515198,1.4821091-3.0648384,2.8696976-4.7524452,3.7742157
                C60.0905533,93.984108,58.9718552,94.2785797,57.7615089,94.1852951z"/>
            <path class="st12" d="M67.356369,37.6305733c-0.2232437,0.1312981-0.3474884,0.3560066-0.5181351,0.5372963
                c-0.8761673,0.9307518-1.8530807,1.7220535-3.0714149,2.180069c-0.6638527,0.2495689-1.347496,0.3550682-2.049614,0.2984772
                c-0.614048-0.0494919-1.139904,0.0560417-1.6306992,0.4842415c-0.5867271,0.5118904-1.3370171,0.7832184-2.0189781,1.1535301
                c-0.3276558,0.1779137-0.7035065,0.0983047-1.0480232,0.0677834c-0.4955101-0.0438957-1.0010986-0.1007385-1.4478989-0.3639107
                c-0.2796326-0.1647072-0.5028496-0.3640938-0.4808617-0.7240829c0.0076714-0.1256371-0.0436935-0.2188034-0.133976-0.2995644
                c-0.1975708-0.1767235-0.3730087-0.3710403-0.4703445-0.622673c-0.0509987-0.131855-0.1605873-0.2110023-0.2849655-0.2210617
                c-0.408886-0.0330658-0.7992172-0.1764641-1.2184448-0.1595459c-1.2471008,0.0503273-2.4911919-0.107933-3.7394104-0.0705414
                c-0.252655,0.0075722-0.3748817,0.0369415-0.4629097,0.3295135c-0.3651695,1.2136154-1.2308044,1.6196823-2.3765984,1.7991333
                c-0.3714981,0.0581779-0.7471085,0.0902786-1.1259956,0.0724678c-0.5617027-0.0264015-0.9799728-0.3437843-1.0698318-0.8266525
                c0.1176529-0.000103,0.2352638-0.0002441,0.3528748-0.0003853c0,0-0.0054741-0.0041847-0.0054436-0.0042305
                c0.190979,0.1520805,0.4132919,0.0440445,0.6189728,0.0739365c0.1317711-0.0691071,0.4574547,0.4834785,0.4195137-0.129715
                c0.5728493-0.1513939,1.0325317-0.4817886,1.4208221-0.9134636c0.3078003-0.3421898,0.383934-0.7312355,0.15588-1.0605316
                c-0.3051453-0.4406128-0.7240105-0.7502975-1.2755318-0.8398247c-0.0950851-0.0247726-0.1880684-0.0531425-0.2454872-0.1423264
                c3.3993759,0.0024147,6.7987442,0.0048294,10.1981316,0.0072365c-0.2770309,0.1940193-0.6099205,0.3091164-0.8313942,0.5815773
                c-0.2178268,0.2679787-0.3545685,0.5559998-0.2080688,0.9060555c0.2897491,0.6923599,1.3315926,1.3842354,2.0864449,1.3876724
                l0.0293045-0.0001297l0.0272179,0.0108109c0.0742416,0.0758514,0.1715088,0.0620689,0.2594452,0.0532112
                c1.1048012-0.1113472,1.9148941-0.6758499,2.480793-1.6107635c0.1712723-0.2829552,0.0100098-0.5016975-0.1537552-0.7108078
                c-0.1990242-0.2541351-0.4726791-0.4256248-0.7262268-0.6186409c0.9508553-0.0163269,1.8952522-0.0565071,2.8339119-0.256588
                c2.2869339-0.487484,3.9629631-1.7527046,4.9176826-3.8719368c0.2917175-0.647522,0.6305313-1.1371193,1.3352127-1.3551445
                c0.0033112,0.6872902-0.1109009,1.3815041-0.1688843,2.0792122c-0.0226593,0.2726631-0.0626373,0.5438652-0.08815,0.8163414
                c-0.0168686,0.1800728,0.0509949,0.3311195,0.2421799,0.3516273c0.1845245,0.0197906,0.2927246-0.0888367,0.3134155-0.2834625
                c0.106102-0.9980202,0.224556-1.9948654,0.2642288-2.998703c0.0058441-0.1478729,0.0164108-0.2956657,0.0290298-0.4431343
                c0.0095367-0.1114807-0.052269-0.2708626,0.043602-0.3235188c0.1344147-0.073822,0.2549744,0.0672054,0.3628693,0.1403103
                c0.4845886,0.3283424,0.663147,0.8241959,0.7262421,1.3756943c0.0811386,0.7092094,0.0180054,1.4114571-0.1337891,2.1048393
                c-0.2629547,1.2011566-0.3548813,2.437355-0.7597809,3.609684c-0.2928085,0.8477821-0.6535645,1.6561775-1.2660599,2.3294182
                c-0.0897217,0.0986252-0.1693344,0.2164154-0.3504868,0.2683144c0.1378021-0.6085854,0.2682419-1.1949577,0.4035873-1.780201
                c0.2572784-1.1125031,0.3913574-2.2460175,0.5821304-3.3698425c0.0299835-0.1766396-0.0220032-0.3407097-0.2199478-0.3599739
                c-0.1691284-0.0164604-0.3027039,0.0686798-0.3336716,0.2690125
                C67.4895554,36.9157791,67.4200363,37.272728,67.356369,37.6305733z"/>
            <path class="st10" d="M15.7018185,48.190712c0.1987104,0.4899216,0.5530834,0.8846893,0.8303852,1.3259544
                c1.0793724,1.7175903,2.1428642,3.445713,3.2367039,5.1533813c1.457737,2.2757683,3.4683704,3.8446884,6.1836987,4.4090614
                c1.8751411,0.3897514,3.5727444-0.0010948,5.1408958-1.0750732c0.7148781-0.4895935,1.4696274-0.9211464,2.1927567-1.3993225
                c0.2562141-0.169426,0.4909859-0.252655,0.7472687-0.0497475c0.1737823,0.1375847,0.1837006,0.6181297,0.0274162,0.869812
                c-0.4268875,0.6874657-0.8640518,1.3686409-1.2874146,2.0582237c-0.2862129,0.4661903-0.5559387,0.9424171-0.8330574,1.4141502
                c-0.1684799-0.0919647-0.3231354-0.0491676-0.4905376,0.0230446c-1.1265888,0.4860191-2.3026371,0.7608948-3.533392,0.7651253
                c-2.3033199,0.0079155-4.3684063-0.7153435-6.2095814-2.0717773c-2.5732174-1.8957329-4.4010372-4.3987007-5.8585186-7.1985931
                c-0.7763348-1.4913788-1.4189863-3.0395737-1.9937191-4.6166496c-0.0957232-0.2626686-0.2079172-0.5325851-0.0986719-0.8589096
                c0.357399,0.2202492,0.4498892,0.6825294,0.8185482,0.8441391C14.9396009,47.9435387,15.3252344,48.0568924,15.7018185,48.190712
                z"/>
            <path class="st10" d="M67.9016724,43.5225143c-0.2508392,0.3700409-0.2491989,0.8171349-0.3699036,1.2262917
                c-0.5255508,1.7814064-1.2761993,3.4607124-2.2429352,5.0467339c-0.7089233,1.163044-1.5016479,2.262825-2.5148163,3.1837234
                c-0.9279022,0.843399-1.967598,1.4877663-3.2631493,1.5836487c-0.2610321,0.0193214-0.2173004,0.1784172-0.2184448,0.3312492
                c-0.0081635,1.0881691-0.1701698,2.1502495-0.5451279,3.175396c-0.1805611,0.4936752-0.4398575,0.9252777-0.954052,1.1473236
                c-0.3445625,0.1487961-0.6687508,0.0571213-0.997467-0.0610313c-1.0366249-0.3725967-1.994709-0.9157219-2.9948616-1.3673782
                c-0.228199-0.1030502-0.4177666-0.1276016-0.647438-0.0326271c-0.6603584,0.2730751-1.3424492,0.4830208-2.0660706,0.3686867
                c-0.537571-0.0849304-1.0739899-0.0353241-1.6098862-0.0650101c-0.3918266-0.0217056-0.7429466,0.0935555-1.0885849,0.256073
                c-0.5279922,0.2482567-1.0408897,0.5255928-1.5775871,0.7586632c-0.6282654,0.272831-1.4331169-0.2310486-1.5642052-0.9150238
                c-0.0212402-0.1108398-0.0516891-0.2199211-0.077877-0.3298836c1.246582-0.5151215,2.4941139-1.0279121,3.73843-1.5483322
                c0.1438332-0.060154,0.2305336-0.0380211,0.3140869,0.0867577c0.6008377,0.8973579,1.4722061,0.8987083,2.4120293,0.7516899
                c0.3006096-0.0470238,0.608757-0.0379219,0.8966446-0.1603127c0.2858505-0.1215324,0.5823517-0.2362556,0.7628174-0.5026855
                c0.1281204-0.1891441,0.2597847-0.1617317,0.4351196-0.0922737c1.1909943,0.4717941,2.384613,0.9370308,3.5772743,1.4046478
                c0.4215202,0.1652718,0.5090675,0.1228523,0.6363373-0.306179c0.408947-1.3785477,0.502243-2.7768707,0.2595406-4.194767
                c-0.0284653-0.1663094-0.0068092-0.268219,0.1698685-0.3456688c3.0948715-1.3567238,5.2075081-3.7286339,6.8448563-6.5875778
                c0.6241989-1.0898895,1.1867447-2.2093964,1.6182938-3.4041023
                C67.2031631,43.0979881,67.5589828,43.2982178,67.9016724,43.5225143z"/>
            <path class="st11" d="M46.0054131,94.4644318c-0.0432739-0.5619888-0.2683945-1.0793076-0.4054947-1.6180649
                c-0.3788185-1.4887161-0.7849808-2.9706268-1.152462-4.4620438c-0.0728416-0.295639-0.1289749-0.6350403,0.1060677-0.9170456
                c-0.0365868,0.2853622,0.135437,0.3989182,0.3736725,0.4886627c1.6618423,0.6260452,3.370121,1.0536194,5.1394615,1.2401199
                c0.487442,0.0513763,0.9728661,0.1285858,1.4635582,0.1235504c0.2268066-0.002327,0.2760201,0.0998383,0.2571373,0.2919617
                c-0.0543594,0.5532379-0.1024208,1.1071091-0.1591148,1.6601028c-0.057785,0.5637436-0.1244392,1.1265717-0.1841431,1.6901169
                c-0.0310555,0.2931137-0.0554962,0.5869064-0.0884666,0.9397049c-0.4337082-0.3250198-0.9055672-0.4065552-1.4172554-0.404747
                c-0.6705093,0.0023651-1.292717,0.1844559-1.8858643,0.4470596
                C47.3941422,94.2352676,46.7022743,94.3484573,46.0054131,94.4644318z"/>
            <path class="st9" d="M39.0480042,79.5754318c0,0.0457077,0,0.0914078,0,0.1371078
                c0,0.8071671-0.0089264,0.8235855-0.7371521,0.4309845c-0.9565735-0.5157166-1.8450165-1.1296844-2.6704521-1.8427658
                c-0.9299049-0.8033524-1.7726364-0.9410172-2.5142212-1.9127502c-0.1165085-0.1526642-0.3945732,0.700676-0.3170204,1.3305893
                c0.0830727,0.6747208,0.1641922,1.3496704,0.2489357,2.0241776c0.0578957,0.4608078,0.4250603,1.3603897,0.4949875,1.8194504
                c0.045372,0.2978516-0.2498436,0.1326065-0.5749397,0.2960434c-0.2879448,0.1447678-0.5082016,0.079071-0.7833824-0.2088318
                c-0.324646-0.3396454-0.3305244-0.7945328-0.430048-1.2028885c-0.3950329-1.6208496-0.7783051-3.24543-1.076458-4.8876495
                c-0.137598-0.7578888-0.327549-1.5054779-0.3244858-2.2883072c0.0035477-0.9067993-0.2421093-1.2789078,0.4297543-1.8109741
                c0.1356888-0.10746,0.7683792-0.857872,0.9192123-0.700676c1.0280647,1.0714111,2.6194992,3.446785,3.549408,4.5753326
                c1.0095177,1.2251587,1.2723312,1.7676392,2.5976944,2.6377563c0.2383156,0.156456,0.4805794,0.3149185,0.7402191,0.4292068
                c0.3323784,0.1463242,0.5166054,0.3463745,0.4519081,0.7292633
                C39.0275536,79.2749481,39.0480042,79.4269028,39.0480042,79.5754318z"/>
            <path class="st12" d="M12.1875782,40.0904884c0.4657803,0.5795326,0.4288254,1.2970276,0.556098,1.9724884
                c0.3522568,1.8694878,1.4967947,3.0019951,3.3101473,3.5313377c1.0137691,0.2959251,2.0443382,0.3891945,3.0860424,0.3264236
                c0.7943497-0.0478668,1.5340824-0.3426819,2.2555141-0.6664886c0.9081631-0.4076195,1.7525597-0.9367905,2.6418934-1.3804779
                c-0.6382599,2.7681274-3.4482822,4.5685539-6.0776367,4.2152863c-1.0044174-0.1349525-1.9794054-0.3589668-2.9237814-0.7206078
                c-0.1156034-0.0442696-0.2281294-0.0794182-0.3150225-0.1896057c-1.0165892-1.2891693-1.9364576-2.6318245-2.3976765-4.2317505
                c-0.0380001-0.1318207-0.1272869-0.2127113-0.2166262-0.2997856c-0.983304-0.9583206-1.9775629-1.9058228-2.9459839-2.8788185
                c-0.4546299-0.4567795-0.6867352-1.0233269-0.5551729-1.6822777c0.0527964-0.2644424,0.1893301-0.5029297,0.473073-0.5798225
                c0.2849455-0.0772209,0.4837341,0.0557022,0.671566,0.2842827c0.5152388,0.627018,1.0652351,1.2255898,1.5887051,1.8460999
                C11.5661125,39.9063225,11.8348522,40.0684929,12.1875782,40.0904884z"/>
            <path class="st13" d="M37.9031181,91.3721161c0.7554321,0.6391525,1.4999504,1.2733002,2.3124619,1.8232956
                c1.3474808,0.912117,2.7911072,1.6222,4.4245911,1.8033066c1.2758102,0.1414337,2.5320129-0.0377808,3.7191124-0.575058
                c0.6012497-0.2721329,1.2309952-0.4177017,1.8981628-0.3709641c0.126812,0.0088806,0.2473564,0.0185394,0.3661079,0.0724411
                c0.6174393,0.2802811,0.6904526,0.5467148,0.271595,1.0526505c-1.2394905,1.4971237-2.8696442,2.3078461-4.7668419,2.5640869
                c-1.0701637,0.1445389-2.1187401-0.1036072-3.1020813-0.5443878c-1.1997337-0.5377884-2.2855835-1.2481766-3.1698875-2.2342606
                C38.9218407,93.9211578,38.2734833,92.7229462,37.9031181,91.3721161z"/>
            <path class="st13" d="M65.2194519,90.8903656c-0.2532043,0.5030518-0.4913864,1.0143127-0.7629166,1.5073624
                c-0.4890175,0.8879929-1.0373154,1.7369766-1.6450882,2.5530167c-1.0547791,1.416214-2.4681358,2.1797638-4.1888924,2.4741211
                c-0.8671646,0.1483536-1.7198334,0.1845856-2.5810318-0.0059357c-0.6248627-0.1382294-1.1735115-0.4421997-1.7136574-0.7629166
                c-0.7989235-0.4743805-1.5065651-1.064827-2.1705971-1.7114334c-0.1789703-0.1742783-0.1896667-0.2922745-0.0057144-0.4754105
                c0.5209694-0.5186615,1.0956612-0.8840561,1.8734894-0.8310394c0.2481728,0.0168991,0.4703331,0.0828094,0.68536,0.1941605
                c0.6203728,0.3212814,1.2532806,0.608963,1.9365463,0.7776108c1.7865639,0.4409866,3.4402504,0.0660172,5.0019264-0.8199615
                c1.0600662-0.6014099,1.972744-1.3939667,2.8263054-2.2566223
                C64.7005157,91.3055954,64.8447495,90.9934769,65.2194519,90.8903656z"/>
            <path class="st3" d="M55.1697617,81.2430725c0.0026855,0.9459229,0.0020828,1.8918762,0.0108376,2.8377457
                c0.0017433,0.1887207-0.0603561,0.2612076-0.2559853,0.260704c-1.9121399-0.0049133-3.8243027-0.0043106-5.7364464-0.0008698
                c-0.1729774,0.0003128-0.2469711-0.055336-0.2449265-0.2359772c0.010807-0.9570465,0.0137672-1.9141846,0.019455-2.871254
                C51.0317268,81.2366638,53.1007462,81.2398682,55.1697617,81.2430725z"/>
            <path class="st12" d="M70.7866211,80.2773514c-0.2186432,0.1819305-0.4409485,0.3597488-0.6545563,0.5473633
                c-0.1257553,0.110466-0.2247086,0.1003952-0.3601532,0.0036087c-0.5377731-0.384285-0.7388687-1.0068207-0.5077362-1.619751
                c0.0603027-0.1599197,0.1332474-0.3169403,0.1749878-0.4816742c0.3564453-1.4067688,1.1770554-2.5517349,2.0831833-3.6438904
                c0.4484406-0.5405045,0.4037781-1.2172546,0.5712051-1.8350601c0.0832138-0.3070374,0.131897-0.6235809,0.1903687-0.9368973
                c0.0207748-0.1113205,0.0522156-0.1854553,0.1884842-0.1916809c1.2898636-0.0589523,2.5794907-0.1229553,3.9276199-0.1883316
                c-0.3701172,0.7960281-0.6659164,1.5798111-1.0752869,2.3136597c-0.8241501,0.137619-1.5513382,0.4748383-2.1355057,1.0756912
                c-0.684166,0.7037048-1.29496,1.4777298-2.0217819,2.1400909c-0.6493607,0.5917664-0.743988,1.3300018-0.6101303,2.1293945
                C70.5965881,79.8243866,70.5595932,80.099144,70.7866211,80.2773514z"/>
            <path class="st12" d="M42.2869148,39.6239624c-0.0915337-0.0000687-0.1832733,0.0038834-0.2745667-0.0008163
                c-1.0299988-0.0530052-2.0485115,0.0154114-3.0464554,0.2906151c-0.3722229,0.1026459-0.7502975,0.0408859-1.1254349,0.0508842
                c-0.4459076,0.0118866-0.8936768-0.0186272-1.3382912,0.0080223c-0.6048241,0.0362587-1.0568848-0.2041321-1.4118195-0.6714439
                c-0.03162-0.0416336-0.0921707-0.0614891-0.1393852-0.091526c-0.3627281-1.6065063-0.498497-3.2426834-0.6698532-4.8804512
                c0.1374283-0.0096092,0.1309433,0.0912285,0.1593361,0.1510773c1.0868301,2.291214,2.9825287,3.4057388,5.4377441,3.6986008
                c1.1881599,0.1417236,2.3835144,0.0187836,3.5743713,0.0760155c-0.2427597,0.1664276-0.492466,0.3238258-0.7265587,0.501606
                C42.4425697,38.9717979,42.2439156,39.2399635,42.2869148,39.6239624z"/>
            <path class="st9" d="M63.1475029,80.2394333c0.0001106,0.1713562-0.0194588,0.3454285,0.004158,0.5134964
                c0.0502625,0.3577805-0.0902214,0.5526886-0.4259949,0.7015076c-1.3291321,0.5890579-2.6790924,1.1119156-4.0965042,1.4529419
                c-0.8091011,0.194664-1.6302528,0.3202133-2.4506912,0.4511261c-0.2685242,0.0428543-0.4216881-0.013176-0.4074783-0.3508224
                c0.027832-0.6614151,0.0099411-1.3248215,0.0070038-1.987381c-0.0006752-0.1527405,0.016716-0.2518692,0.2147865-0.2679596
                c2.1354637-0.1734772,4.2160797-0.6124878,6.2428436-1.3039932c0.205513-0.0701294,0.4112282-0.1409225,0.612072-0.2229996
                c0.201458-0.0823135,0.3066483-0.0469818,0.3011551,0.1916122C63.14254,79.6909866,63.1473885,79.9652634,63.1475029,80.2394333z
                "/>
            <path class="st9" d="M41.2444687,79.4132462c0.1412277,0.0558167,0.2882614,0.1183243,0.4383087,0.172554
                c1.7089272,0.6176529,3.4687119,1.0340424,5.2648811,1.2989426c0.3594055,0.0529938,0.7272186,0.0471191,1.0900497,0.0803375
                c0.2253876,0.0206299,0.3671684,0.0464401,0.3304558,0.3868942c-0.0693169,0.6428833-0.0272408,1.2982178-0.0216179,1.948288
                c0.0019455,0.2246857,0.0054321,0.3221817-0.3106689,0.2874222c-1.9537277-0.2148666-3.8260956-0.7194977-5.6324196-1.4776306
                c-0.3768463-0.1581573-0.7336121-0.363205-1.1041107-0.537178c-0.1461792-0.0686417-0.1917725-0.1670609-0.1895065-0.3231125
                c0.0077896-0.5360107,0.000618-1.0722275,0.0054245-1.6083069
                C41.1160355,79.5549774,41.0643044,79.4232635,41.2444687,79.4132462z"/>
            <path class="st14" d="M57.9382057,55.0895386c-0.0125237,0.474102-0.1167526,1.2370262-0.280323,1.9956894
                c-0.0608864,0.2824059-0.1779289,0.3072548-0.4118233,0.2144203c-1.1250305-0.4465294-2.2520676-0.8880768-3.3795128-1.328537
                c-0.2074127-0.0810242-0.2897339-0.1895256-0.1964645-0.423275c0.2269249-0.5686989,0.2792664-1.1453934-0.0013695-1.7180176
                c-0.0826416-0.1686249,0.0463791-0.2241096,0.1616936-0.2684593c1.1527443-0.4433784,2.3089027-0.8780556,3.4591827-1.3276367
                c0.2524452-0.0986671,0.3061409,0.0348129,0.349678,0.2229729C57.816803,53.2239571,57.9477463,53.997097,57.9382057,55.0895386z
                "/>
            <path class="st14" d="M44.470295,55.0502586c-0.0629272-0.6783257,0.0791702-1.5122795,0.155777-2.349762
                c0.0218697-0.2390366,0.0664406-0.3959541,0.4059219-0.25243c1.1961479,0.505703,2.4096718,0.9708023,3.6189537,1.4453812
                c0.1663818,0.0652924,0.2618446,0.1212158,0.1918411,0.333931c-0.1427155,0.4337082-0.0284195,0.8680153,0.0754242,1.2903366
                c0.0490417,0.1994591,0.003376,0.2853584-0.1768112,0.3586006c-1.2716942,0.5169029-2.5412025,1.0391693-3.8099785,1.5631447
                c-0.1959801,0.0809326-0.2774391,0.0354156-0.3294945-0.179718C44.4386024,56.5847282,44.478241,55.9007378,44.470295,55.0502586
                z"/>
            <path class="st9" d="M71.6871262,72.4126129c-0.0984268,0.5018692-0.2255096,1.0098572-0.2926559,1.525589
                c-0.0964432,0.740715-0.6111069,1.2350235-1.0307541,1.771698c-0.4615631,0.5902634-0.9276199,1.5199203-1.4777679,2.0294418
                c-1.1032333,1.0217743-2.3039246,1.6162109-3.6304779,2.352562c-0.191864,0.1064987-0.2548904,0.1137085-0.2511902-0.1253433
                c0.0072479-0.4678116,0.0105743-0.9360428-0.0019455-1.4036331c-0.0053177-0.1988754,0.0681686-0.306694,0.2430954-0.4001999
                c1.4707489-0.7861633,2.789772-2.697258,3.8925629-3.9180298c0.7680511-0.850235,1.4191437-0.9184036,2.0555496-1.8781433
                c0.092392-0.139328,0.2002563-0.2089462,0.3699493-0.1750336C71.6894989,72.2167053,71.6805649,72.3115005,71.6871262,72.4126129
                z"/>
            <path class="st14" d="M51.3585052,53.2568398c0.5360985,0.005394,0.9593391-0.0158958,1.3780479,0.1254234
                c0.7559547,0.2551346,1.1133575,0.8747864,0.9231758,1.6563416c-0.1849709,0.7601852-0.5016861,1.4034424-1.3349876,1.6553764
                c-0.6428909,0.1943703-1.2984734,0.1807709-1.9463348,0.1219749c-0.5767899-0.0523415-1.218235-0.8024292-1.3411026-1.4606438
                c-0.0352592-0.1888847-0.0698853-0.3799477-0.079155-0.5712395c-0.0490189-1.0120888,0.2996635-1.2342148,1.235878-1.4418068
                C50.6117325,53.249649,51.0402298,53.2350121,51.3585052,53.2568398z"/>
            <path class="st12" d="M34.9950638,42.090374c-0.6169548-0.4579697-0.9778862-1.0044327-1.2842712-1.5958252
                c-0.4580383-0.8841171-0.6644821-1.8446617-0.83144-2.8107147c-0.1765251-1.0214195-0.4909782-2.0175972-0.5557518-3.0593452
                c-0.0315247-0.5070114,0.0113335-1.0042534,0.1710243-1.4860191c0.1561928-0.4712067,0.4803085-0.7932892,0.9387817-0.9862633
                c0.1711082-0.0720177,0.2355003-0.0475426,0.2359886,0.1595688c0.003231,1.3709946,0.1113129,2.7348099,0.2662468,4.0974083
                c0.207859,1.8281021,0.5698395,3.6250725,1.0134773,5.4081306C34.9651642,41.881794,34.9715729,41.9486465,34.9950638,42.090374z
                "/>
            <path class="st6" d="M70.7866211,80.2773514c-0.2270279-0.1782074-0.190033-0.4529648-0.2293015-0.6874771
                c-0.1338577-0.7993927-0.0392303-1.5376282,0.6101303-2.1293945c0.7268219-0.6623611,1.337616-1.4363861,2.0217819-2.1400909
                c0.5841675-0.600853,1.3113556-0.9380722,2.1355057-1.0756912
                C74.1481934,76.5062561,72.7172775,78.5781326,70.7866211,80.2773514z"/>
            <path class="st11" d="M45.649868,38.2485123c0.0574188,0.0891838,0.1504021,0.1175537,0.2455368,0.1423492
                c0.3536644,0.3056183,0.6136703,0.6663818,0.6566696,1.1462517c0.0723686,0.8076401-0.3865166,1.2809067-1.0441856,1.6257706
                l0.00037,0.006485c-0.1048164,0.0191383-0.2152672,0.0203896-0.3027802,0.0944977l-0.0139923-0.0105705l-0.0139275,0.0106583
                c-0.2072983-0.0011597-0.4145966-0.0023155-0.621891-0.0034714c0,0,0.0054741,0.0041847,0.0054779,0.0041847
                c-0.0797157-0.0972939-0.2062263-0.0833969-0.3091164-0.1243019c-0.7771301-0.30896-1.2265282-1.0594406-1.0661621-1.8217888
                c0.1261864-0.5998688,0.5644913-0.9332809,1.0755539-1.1962166
                C44.7303276,38.0979691,45.1975212,38.0922546,45.649868,38.2485123z M44.4908104,38.6696091
                c-0.288208,0.0050583-0.4190369,0.1693764-0.4104271,0.4147911c0.008831,0.2515678,0.1795731,0.3859901,0.4324951,0.3893852
                c0.2616425,0.0035172,0.4675713-0.1884766,0.4426613-0.4168663C44.925209,38.7788506,44.7345428,38.678936,44.4908104,38.6696091
                z"/>
            <path class="st11" d="M56.9515038,41.1417351l-0.0272179-0.0108109c0,0-0.0293045,0.0001297-0.0293465,0.0000992
                c-0.0852356-0.1086655-0.2218628-0.0969925-0.3347588-0.1392097c-1.140995-0.4266968-1.4599609-1.6822891-0.6480789-2.554493
                c0.0513992-0.0552139,0.141716-0.0837593,0.1365166-0.1817932c0.5289536-0.2548256,1.0766487-0.3964539,1.6681099-0.2736969
                c0.02145,0.0930443,0.1096954,0.0619125,0.1664314,0.0845451c1.0822601,0.4317589,1.3228951,1.7453804,0.4755402,2.5413399
                C57.9574852,40.9846001,57.4607315,41.0692673,56.9515038,41.1417351z M57.0300903,38.9079781
                c0.0018005-0.227417-0.1720505-0.3831406-0.4287415-0.384037c-0.2494659-0.0008698-0.4553261,0.1904182-0.4407234,0.422226
                c0.0159874,0.2538567,0.1919365,0.3488503,0.4162178,0.3666458
                C56.823597,39.3323936,57.0282364,39.1416283,57.0300903,38.9079781z"/>
            <path class="st6" d="M55.1697693,81.2430725c-2.0690231-0.0032043-4.1380424-0.0064087-6.207077-0.0096512
                c-0.0364151-0.1432114-0.1363106-0.2604141-0.065876-0.4401779c0.0689507-0.1759796-0.0684662-0.2908859-0.243885-0.3378448
                c0.001709-0.0719376,0.0033493-0.1439056,0.0050697-0.2158813c0.2373238-0.1702499,0.5082359-0.1606979,0.781456-0.1497726
                c1.7050018,0.0681915,3.40979,0.0882339,5.1122856-0.0549164c0.6293907-0.0529175,0.6296616-0.0604172,0.6282654,0.5587158
                C55.1795197,80.8100586,55.1733437,81.0265656,55.1697693,81.2430725z"/>
            <path class="st10" d="M44.0128899,55.4599838c-0.7042274-0.3159523-1.312458-0.7781143-1.8768768-1.2887497
                c-1.1283951-1.0208778-2.099617-2.1817932-2.9644775-3.4309502c-0.0630951-0.0911331-0.1451454-0.1825638-0.0917854-0.3106308
                c0.5147133,0.4503517,0.9924927,0.941452,1.5561066,1.3372688c0.994194,0.6981964,2.0744057,1.2043076,3.2611618,1.4723473
                c0.1970329,0.0444984,0.2721062,0.1082726,0.2411957,0.3125916
                C44.0425949,54.1839027,44.0460434,54.8233147,44.0128899,55.4599838z"/>
            <path class="st15" d="M56.9515038,41.1417351c0.5092278-0.0724678,1.0059814-0.157135,1.407196-0.5340195
                c0.8473549-0.7959595,0.60672-2.109581-0.4755402-2.5413399c-0.056736-0.0226326-0.1449814,0.0084991-0.1664314-0.0845451
                c0.4031487-0.060833,0.749157,0.1056404,1.095005,0.2728996c0.2535744,0.1930199,0.5272293,0.3645096,0.7262535,0.6186447
                c0.163765,0.2091103,0.3250275,0.4278526,0.1537552,0.7108078c-0.5658989,0.9349136-1.3759918,1.4994164-2.480793,1.6107635
                C57.1230125,41.203804,57.0257454,41.2175865,56.9515038,41.1417351z"/>
            <path class="st15" d="M44.2614212,38.1223602c-0.5110626,0.2629356-0.9493675,0.5963478-1.0755539,1.1962166
                c-0.1603661,0.7623482,0.289032,1.5128288,1.0661621,1.8217888c0.10289,0.040905,0.2294006,0.0270081,0.3091164,0.1243019
                c-0.1176147,0.0001411-0.2352257,0.0002823-0.3528786,0.0003853c-0.6470451-0.2346802-1.1997528-0.6008034-1.6099167-1.1595802
                c-0.1129494-0.1538773-0.208149-0.3206711-0.3114624-0.4815254c-0.0429726-0.3839836,0.1556816-0.6521492,0.4391136-0.8674011
                c0.2340927-0.1777802,0.483799-0.3351784,0.7265587-0.501606C43.7200813,38.1981468,43.9759941,38.071003,44.2614212,38.1223602z
                "/>
            <path class="st15" d="M56.0486183,38.2555275c0.0051994,0.0980339-0.0851173,0.1265793-0.1365166,0.1817932
                c-0.811882,0.8722038-0.4929161,2.1277962,0.6480789,2.554493c0.112896,0.0422173,0.2495232,0.0305443,0.3347588,0.1392097
                c-0.7548103-0.0034065-1.7966537-0.695282-2.0864029-1.3876419c-0.1464996-0.3500557-0.009758-0.6380768,0.2080688-0.9060555
                c0.2214737-0.2724609,0.5543633-0.387558,0.8313942-0.5815773
                C55.9148636,38.2556763,55.9817429,38.2556038,56.0486183,38.2555275z"/>
            <path class="st11" d="M67.0618134,76.1581955c0.0024567-0.1110153,0.0049133-0.2220306,0.0073471-0.3330154
                c0.3052139-0.23349,0.6100464-0.467659,0.9657059-0.6238174l0.0036392,0.0041351
                C67.807045,75.6186905,67.4592972,75.9137115,67.0618134,76.1581955z"/>
            <path class="st11" d="M68.0348663,75.201355c0.0251465-0.017067,0.050293-0.0341263,0.0754395-0.0511856
                c0.0060349,0.0088348,0.0120697,0.0176544,0.0181046,0.0264816c-0.0299911,0.0095901-0.0599823,0.0191803-0.0899353,0.0288086
                C68.0385056,75.2054977,68.0348663,75.2013626,68.0348663,75.201355z"/>
            <path class="st10" d="M39.008213,50.3597794c-0.0840149,0.0126152-0.0928879-0.0464745-0.1017227-0.1056328
                C38.9758453,50.2554855,38.9960899,50.3037567,39.008213,50.3597794z"/>
            <path class="st16" d="M31.1007481,61.6685143c0.0276051-0.0070724,0.0552101-0.0141487,0.0828152-0.021225
                c-0.0015602,0.0280266-0.0031185,0.0560532-0.0046005,0.084095
                C31.1529446,61.7104416,31.1268463,61.6894798,31.1007481,61.6685143z"/>
            <path class="st10" d="M39.072422,50.4286995c-0.0526314,0.007637-0.0743446-0.0154648-0.067131-0.0673218
                C39.0277901,50.3836937,39.050106,50.4061966,39.072422,50.4286995z"/>
            <path class="st7" d="M66.0371857,80.2819519c-0.022934,0.0211411-0.0458755,0.0422897-0.0688095,0.063446
                C65.9913101,80.3242493,66.0142517,80.3031006,66.0371857,80.2819519z"/>
            <path class="st8" d="M29.4924011,24.8848133c0.0172577,0.0237617,0.0345135,0.0475254,0.0517769,0.0713005
                C29.5269222,24.9323559,29.5096607,24.9085846,29.4924011,24.8848133z"/>
            <path class="st17" d="M51.2530556,62.5198479c1.1695786,0.0000954,2.1094398,0.9235611,2.1070709,2.0703011
                c-0.0024071,1.1635666-0.9524879,2.1041794-2.1236725,2.1025009c-1.1529808-0.0016479-2.0760918-0.9350204-2.0782776-2.101387
                C49.1559792,63.4176903,50.0640945,62.5197449,51.2530556,62.5198479z M51.1319504,63.7921829
                c-0.0006561-0.3034782-0.2666321-0.5497551-0.581852-0.5387573c-0.2329865,0.0081253-0.5660057,0.3570366-0.5642509,0.5911789
                c0.0025635,0.3429642,0.2428322,0.5871201,0.5740013,0.5832977
                C50.8809395,64.4241867,51.1327133,64.1444168,51.1319504,63.7921829z"/>
            <path class="st17" d="M51.2375336,75.6259308c-1.1719093-0.0012436-2.0781631-0.9117737-2.0793381-2.0891342
                c-0.0011635-1.1676483,0.9140282-2.0755386,2.0938759-2.0771713c1.1617737-0.0016174,2.107235,0.9289627,2.1080513,2.0748596
                C53.3609505,74.7002411,52.4202003,75.6271896,51.2375336,75.6259308z M50.6532784,72.2471161
                c-0.3510399-0.0030136-0.515274,0.16259-0.5191765,0.5234833c-0.004364,0.4038162,0.1901627,0.6405106,0.5338821,0.6496201
                c0.3417664,0.0090485,0.6032753-0.2682037,0.6016846-0.6379166
                C51.2682571,72.4546432,51.0329933,72.2503738,50.6532784,72.2471161z"/>
            <path class="st15" d="M62.2526817,43.6311455c0.127449,1.073616-1.0312386,2.0109673-2.0025826,1.9674644
                c-1.1169243-0.0500298-1.9691963-0.9111061-1.9993172-2.0538216c-0.0246124-0.9339447,1.000927-1.9746132,2.0684357-1.9566269
                C61.2353325,41.6035919,62.4037514,42.5149002,62.2526817,43.6311455z"/>
            <path class="st15" d="M43.5926361,43.3474388c0.1171646,0.9928665-0.8371506,1.969574-2.0084343,1.9628448
                c-1.043499-0.0059967-1.9918098-0.8618279-1.9754524-2.028614c0.0145988-1.0412827,0.8174973-2.0004005,2.1253204-1.9686661
                C42.6617661,41.3355179,43.7575226,42.3415833,43.5926361,43.3474388z"/>
            <path class="st4" d="M44.626091,46.5429878c-0.1670265-0.1079826-0.3063774-0.2464752-0.1656532-0.4449081
                c0.1349716-0.1903114,0.3266716-0.1055069,0.4924278-0.0218544c1.2728996,0.6423798,2.6078453,1.1093445,4.0114822,1.3630867
                c2.621666,0.4739304,5.1226349,0.0974388,7.4929733-1.1134682c0.3191414-0.1630402,0.6735611-0.2647057,0.9134865-0.5784492
                c0.1179695-0.1542664,0.3564796-0.121006,0.4988556,0.015419c0.1576347,0.1510468,0.019577,0.2900543-0.0880737,0.4103813
                c-0.3152809,0.3524208-0.7629776,0.4927635-1.1603813,0.7133484c-0.1395111,0.0774422-0.2839966,0.145977-0.4262123,0.2185707
                c-1.441452,0.6088295-2.9338989,1.0118523-4.5043678,1.0867348c-1.4999313,0.0715179-2.9579391-0.1632996-4.3928757-0.5917244
                C46.3747406,47.3245392,45.5077553,46.917408,44.626091,46.5429878z"/>
            <path class="st12" d="M44.626091,46.5429878c0.8816643,0.3744202,1.7486496,0.7815514,2.6716614,1.0571365
                c1.4349365,0.4284248,2.8929443,0.6632423,4.3928757,0.5917244c1.5704689-0.0748825,3.0629158-0.4779053,4.5043678-1.0867348
                c-0.0015793,0.200779-0.1064949,0.3246765-0.2675896,0.4440536c-0.4592323,0.340313-0.988739,0.5237846-1.5175133,0.7055321
                c-1.1243057,0.3864479-2.2561111,0.7436142-3.4703331,0.6917152c-1.2802162-0.0547295-2.5025063-0.3243637-3.6571388-0.898098
                c-0.5206299-0.2586975-1.0831718-0.4336128-1.6045532-0.691021C45.2789459,47.1603508,44.8561287,46.96772,44.626091,46.5429878z
                "/>
            <path class="st3" d="M55.0989838,43.7459679c0.170063-0.041584,0.3559113-0.1679497,0.4877205,0.0565643
                c0.1271286,0.2165527-0.0206718,0.3673058-0.1539879,0.5096245c-0.2752342,0.2938194-0.6527901,0.3778114-1.023735,0.4322586
                c-0.2193642,0.0322037-0.3838654,0.1200562-0.5492096,0.2460518c-0.8383064,0.6387749-1.7646675,1.0628014-2.8391571,1.0573578
                c-0.8575287-0.0043488-1.649868-0.2756233-2.3476143-0.7609787c-0.3492126-0.2429085-0.6937485-0.352787-1.1138649-0.3322525
                c-0.4270554,0.0208664-0.8165932-0.1115799-1.0992355-0.4572716c-0.0706673-0.0864372-0.1305351-0.1895981-0.1656647-0.2948952
                c-0.0469818-0.1408234-0.0150948-0.2776222,0.1293678-0.3532295c0.1462631-0.0765533,0.2783813-0.030014,0.354908,0.1049652
                c0.2760658,0.4869232,0.7427597,0.4992599,1.2030487,0.4511986c0.2531891-0.0264359,0.4328423,0.0343513,0.6293526,0.1730385
                c0.709938,0.5010605,1.4654427,0.864521,2.3696518,0.8889122c0.9979706,0.0269203,1.8224487-0.3630829,2.594326-0.9285622
                c0.0733109-0.0537109,0.1399879-0.1163979,0.2097549-0.1750145c0.1178627-0.0891724,0.2439537-0.1325569,0.3980446-0.1466866
                c0.3093147-0.0283623,0.6233978-0.072937,0.8487434-0.3285904c0.0535507-0.0365601,0.0778122-0.08564,0.0649452-0.1505928
                L55.0989838,43.7459679z"/>
            <path class="st12" d="M51.5542717,49.9756432c0.4917526,0.0000114,0.9835052-0.0001106,1.4752579,0.0000725
                c0.1871147,0.0000687,0.3899384,0.0050697,0.4604263,0.2122002c0.0698853,0.2053566-0.0394135,0.3834305-0.1978836,0.5103149
                c-0.329483,0.2638054-0.7233315,0.4067078-1.1341896,0.4326553c-0.8009415,0.0505829-1.5966301,0.0297852-2.3105659-0.4306564
                c-0.1966896-0.1268501-0.3239059-0.2686806-0.2522812-0.498127c0.0720787-0.2308807,0.2873154-0.225769,0.4839745-0.2261581
                C50.5707626,49.9749756,51.0625191,49.9756279,51.5542717,49.9756432z"/>
            <path class="st15" d="M50.2008247,43.2870026c-0.0115356,0.1555748,0.0216904,0.3130684-0.0426903,0.4695168
                c-0.1731644,0.420784-0.3583717,0.5298538-0.9417496,0.5285835c-0.4704933-0.0010223-0.8443222-0.2130852-0.9755821-0.553421
                c-0.1277122-0.3311653,0.1010246-0.9691696,0.4561195-1.2722054c0.2812157-0.2399902,0.8326759-0.3217773,1.1268196-0.1336632
                C50.1713371,42.548111,50.239994,42.9014778,50.2008247,43.2870026z"/>
            <path class="st12" d="M55.0314331,43.8884583c-0.2253456,0.2556534-0.5394287,0.3002281-0.8487434,0.3285904
                c-0.1540909,0.0141296-0.2801819,0.0575142-0.3980446,0.1466904c-0.2571564-0.5421944-0.5933495-1.044281-0.8100815-1.6080627
                c-0.0909119-0.2364693-0.1681938-0.4655304-0.1603737-0.7241516c0.0086594-0.2864685,0.1665573-0.3231354,0.3890381-0.2563324
                c0.1885643,0.0566254,0.3425407,0.1786385,0.4905891,0.3049927c0.4598427,0.3924599,0.902092,0.8020821,1.2665062,1.2876549
                c0.0843697,0.1124191,0.1361885,0.2361031,0.1386566,0.3780746c0.0000038,0.0000534-0.0026016-0.008049-0.0025978-0.0080261
                C55.0288849,43.7684898,55.0219765,43.8249741,55.0314331,43.8884583z"/>
            <path class="st15" d="M45.5078888,41.1628838c0.6576691-0.3448639,1.1165543-0.8181305,1.0441856-1.6257706
                c-0.0429993-0.4798698-0.3030052-0.8406334-0.6566696-1.1462517c0.5514717,0.0895042,0.9703369,0.399189,1.2754822,0.8398018
                c0.228054,0.3292961,0.1519203,0.7183418-0.15588,1.0605316c-0.3882904,0.431675-0.8479729,0.7620697-1.4208755,0.913414
                C45.5653534,41.1906624,45.5366249,41.1767731,45.5078888,41.1628838z"/>
            <path class="st6" d="M45.5078888,41.1628838c0.0287361,0.0138893,0.0574646,0.0277786,0.0862427,0.0417252
                c0.0379944,0.6132431-0.2876892,0.0606575-0.4194489,0.1297874c0.0009689-0.0234642,0.0019226-0.0469513,0.0028763-0.0704422
                l0.0139275-0.0106583c0,0,0.0139923,0.0105705,0.0140648,0.01054c0.104744-0.0194702,0.2419968,0.0646095,0.3027077-0.0944672
                L45.5078888,41.1628838z"/>
            <path class="st15" d="M45.1775589,41.2639542c-0.0009537,0.0234909-0.0019073,0.046978-0.0028763,0.0704422
                c-0.2056923-0.0299149-0.4280052,0.0781212-0.6189842-0.0739594
                C44.7629623,41.2616386,44.9702606,41.2627945,45.1775589,41.2639542z"/>
            <path class="st15" d="M44.4908104,38.6696091c0.2437325,0.0093269,0.4343987,0.1092415,0.4647293,0.38731
                c0.02491,0.2283897-0.1810188,0.4203835-0.4426613,0.4168663c-0.2529221-0.0033951-0.4236641-0.1378174-0.4324951-0.3893852
                C44.0717735,38.8389854,44.2026024,38.6746674,44.4908104,38.6696091z"/>
            <path class="st15" d="M45.5082588,41.1693687c-0.0607109,0.1590767-0.1979637,0.0749969-0.3027077,0.0944672
                C45.2929916,41.1897583,45.4034424,41.1885071,45.5082588,41.1693687z"/>
            <path class="st16" d="M57.0300903,38.9079781c-0.0018539,0.2336502-0.2064934,0.4244156-0.4532471,0.4048347
                c-0.2242813-0.0177956-0.4002304-0.1127892-0.4162178-0.3666458c-0.0146027-0.2318077,0.1912575-0.4230957,0.4407234-0.422226
                C56.8580399,38.5248375,57.0318909,38.6805611,57.0300903,38.9079781z"/>
            <path class="st16" d="M51.1319504,63.7921829c0.0007629,0.3522339-0.2510109,0.6320038-0.5721016,0.6357193
                c-0.3311691,0.0038223-0.5714378-0.2403336-0.5740013-0.5832977c-0.0017548-0.2341423,0.3312645-0.5830536,0.5642509-0.5911789
                C50.8653183,63.2424278,51.1312943,63.4887047,51.1319504,63.7921829z"/>
            <path class="st16" d="M50.6532784,72.2471161c0.379715,0.0032578,0.6149788,0.2075272,0.6163902,0.5351868
                c0.0015907,0.3697128-0.2599182,0.646965-0.6016846,0.6379166c-0.3437195-0.0091095-0.5382462-0.2458038-0.5338821-0.6496201
                C50.1380043,72.4097061,50.3022385,72.2441025,50.6532784,72.2471161z"/>
            <path class="st6" d="M55.0314331,43.8884583c-0.0094566-0.0634842-0.0025482-0.1199684,0.064949-0.1505699
                C55.1092453,43.8028183,55.0849838,43.8518982,55.0314331,43.8884583z"/>
            <g>
                <path class="st18" d="M67.915123,35.7134438c0.0911942-0.8927841,0.1859512-1.7852364,0.2697144-2.6787071
                    c0.0125275-0.1336098,0.0183258-0.3024368-0.0501328-0.4025078c-0.206398-0.3017044-0.0779495-0.575016,0.0652847-0.8161678
                    c0.1048431-0.1764965,0.1085052-0.3144684,0.0922394-0.5070362c-0.0265274-0.313942-0.0565338-0.6298103-0.0280151-0.9536457
                    c0.0266342-0.3023834,0.1257095-0.5294895,0.3353577-0.724411c0.8802719-0.8184338,1.7622681-1.6350269,2.644165-2.4517288
                    c0.1811523-0.1677628,0.3632736-0.3345394,0.5471954-0.4992867c0.6813278-0.6103058,0.739563-1.1458836,0.1321716-1.9945641
                    c-0.550972-0.769865-1.3940201-1.1354218-2.2295303-1.5017166c-2.1824722-0.9568233-4.475441-1.5561085-6.7966461-2.0521851
                    c-0.3949432-0.0844059-0.8112526-0.1248436-1.2281265-0.1343346c-1.9471283-0.0443325-3.892189-0.141201-5.8371277-0.2503548
                    c-0.8487587-0.0476341-1.7016335-0.0669746-2.5527115-0.100008c-0.926281-0.0359516-1.8551216-0.0705452-2.7808495-0.0419197
                    c-1.444809,0.0446758-2.8898048,0.1185169-4.3311539,0.2269745c-1.0518646,0.0791492-2.1017914,0.2083187-3.145649,0.3618927
                    c-1.1292152,0.166132-2.2488174,0.3959904-3.3756027,0.5798912c-0.7540283,0.1230659-1.5111046,0.2285652-2.2791939,0.23176
                    c-2.4120064,0.0100327-4.7299461,0.5019226-6.9769115,1.3581295c-0.3497734,0.1332817-0.6297226,0.3543568-0.9161911,0.5860958
                    c-0.4106407,0.3321838-0.4572811,0.8167992-0.0773621,1.3162861c0.4809227,0.6322842,1.0228958,1.218729,1.5419979,1.8219929
                    c0.9255848,1.0756531,1.8591843,2.1445351,2.7779846,3.2258873c0.3299217,0.3882866,0.336483,0.8814774,0.3676414,1.3594437"/>
                <path class="st18" d="M67.9607239,32.3995552c-0.4558258,0.1222839-0.7596741,0.508812-1.1867752,0.6776733
                    c-0.1618118,0.0639763-0.1371536,0.2047081-0.1817017,0.3207932c-0.9820023,2.5592804-2.8246307,4.0184517-5.559967,4.4171829
                    c-1.1487236,0.16745-2.2831573,0.1370621-3.4200363,0.0170403c-0.3596535-0.0379677-0.7184715-0.0286179-1.0462303,0.0352859
                    c-0.5352516,0.1043587-1.064415,0.1147957-1.5998535,0.1150513c-2.8724823,0.0013695-5.7449799,0.0054283-8.6174316-0.0034599
                    c-0.5624275-0.0017395-1.1254997-0.0919228-1.6868591-0.0792656c-1.1550941,0.0260353-2.3082809,0.1135521-3.4654427,0.0857811
                    c-1.1760788-0.0282211-2.3249054-0.192234-3.418911-0.6395378c-1.2811813-0.5238304-2.2281799-1.4169312-2.8716621-2.6321335
                    c-0.1699562-0.3209534-0.301609-0.6662521-0.639801-0.8617477"/>
                <path class="st18" d="M66.6384659,33.1712837c-0.2464752-0.1309586-0.4674149-0.1852303-0.7801132-0.1119728
                    c-0.5752029,0.1347542-1.1816101,0.1329231-1.7729416,0.2049065c-0.9280891,0.1129761-1.8515472,0.2778702-2.782505,0.3486099
                    c-0.7004318,0.0532188-1.3963776,0.145546-2.0965157,0.1925011c-1.4283028,0.095787-2.8567772,0.1903076-4.2860527,0.2697601
                    c-0.4696884,0.0261078-0.9424362-0.0079155-1.4131508,0.0063095c-1.551075,0.0468826-3.1014938,0.0114517-4.6505661-0.0520744
                    c-1.7975082-0.0737152-3.591507-0.1887741-5.3819122-0.3907166c-1.3876152-0.1565132-2.7715721-0.3344765-4.1458244-0.5685463
                    c-1.315361-0.224041-2.6186523-0.522213-3.9209671-0.815464c-0.3136292-0.0706215-0.6271362-0.2008209-0.8697968-0.4436989
                    c-0.1094055-0.1095028-0.2851334-0.1631145-0.404808-0.1250591c-0.1996651,0.063488-0.151207,0.2800846-0.1373672,0.4410458
                    c0.0351868,0.4094505,0.0687065,0.8207321,0.1397095,1.2248688c0.0510826,0.2907333,0.0252266,0.5326805-0.0676575,0.8275757
                    c-0.111454,0.3538895-0.0228615,0.780117,0.0209656,1.1703606c0.0716171,0.6377182,0.1968193,1.2696075,0.2640648,1.90765
                    c0.1296463,1.2300949,0.4265556,2.42659,0.6799126,3.6329269c0.0967026,0.4604492,0.3483467,0.9083939,0.1906052,1.4055557"/>
                <path class="st18" d="M66.8664398,42.5228004c0.81633,0.5715141,1.7200394,1.0017586,2.5504837,1.5477371
                    c2.5388031,1.669136,4.7942352,3.6265678,6.3903351,6.2577972c0.8663635,1.4282417,1.3674316,2.9897308,1.7688904,4.5887718
                    c0.3040619,1.2111282,0.5510864,2.4372139,0.7054901,3.6765633c0.1296082,1.0402946,0.2300262,2.0859566,0.2892761,3.1322746
                    c0.0223083,0.3939514,0.0052567,1.8277054,0.0108032,2.2690659c0.0095139,0.7564774,0.0470886,1.5164337-0.0088882,2.2689056
                    c-0.0664978,0.8939362-0.0989151,1.7912598-0.2444077,2.6820526c-0.0686951,0.4205475-0.0785675,0.8537521-0.2009201,1.2679672
                    c-0.2101974,0.7115479-0.7190933,1.1400604-1.3612137,1.4641876c-0.145401,0.0733948-0.2185211-0.0117798-0.3249054-0.0119476
                    c-1.1584244-0.0018158-2.3114319,0.0922699-3.4665604,0.1592026c-0.4751816,0.0275345-0.9814606,0.3151321-1.457695-0.0223389"
                    />
                <path class="st18" d="M13.7027273,46.6084175c-0.3453312,0.3159485-0.3011932,0.7326393-0.1700172,1.0849342
                    c0.4334612,1.1641159,0.8825798,2.3229065,1.3960762,3.4568825c0.8228741,1.8171844,1.8173361,3.5334778,3.0196886,5.1234093
                    c1.1631908,1.5381432,2.5234814,2.8882141,4.1465187,3.9492493c1.2913303,0.8441925,2.7141323,1.3900566,4.2385731,1.6320152
                    c1.5167484,0.2407417,3.012207,0.0885696,4.4653111-0.4077682c0.286623-0.0978966,0.6377563,0.0396271,0.8682613-0.2439995"/>
                <path class="st18" d="M11.3773842,32.2633667c-0.6407633,0.1660652-1.14326,0.8449821-1.1905346,1.5431175
                    c-0.0473375,0.6990395,0.1683826,1.3198967,0.509366,1.9053688c0.5674267,0.9742775,1.1523523,1.9384537,1.7298384,2.9069252
                    c0.291049,0.4881058,0.3000441,0.7403412,0.0464191,0.9994812c-0.2027349,0.2071457-0.3971376,0.2379379-0.6422482,0.0486031
                    c-0.3545504-0.2738762-0.6185856-0.6262779-0.9094782-0.9566994c-0.3618898-0.411068-0.7185192-0.8274651-1.0962095-1.2238121
                    c-0.469451-0.4926453-1.1259327-0.3622398-1.4098253,0.2703438c-0.30303,0.6752281-0.0968838,1.2929955,0.2817726,1.8546295
                    c0.2068501,0.3068085,0.5001478,0.5583305,0.7673416,0.8218346c0.7101107,0.7003021,1.3889637,1.4395409,2.1560106,2.0722427
                    c0.4533682,0.3739662,0.5475912,0.8832321,0.7398415,1.3425026c0.2728462,0.6518135,0.6103945,1.2567978,0.977005,1.8533783
                    c0.1315784,0.214119,0.2937832,0.4189377,0.318038,0.680378c0.0189161,0.2038956,0.2445078,0.1951408,0.3168144,0.3202744
                    c0.5696287,0.9858513,1.5864449,1.1630859,2.55931,1.3995132c1.1590405,0.2816734,2.3203068,0.405777,3.5117569,0.104351
                    c1.7359695-0.4391747,2.9511547-1.5011063,3.8252354-3.0061264c0.1698074-0.2923775,0.3057289-0.6042023,0.4593258-0.9060287
                    c0.0245934-0.0483246,0.0914688-0.0956612,0.0857105-0.1359329c-0.1069489-0.7481728,0.4065132-1.2071609,0.8339653-1.6724815
                    c0.7237606-0.7878838,1.5801048-1.4324913,2.4526463-2.0518761c0.1582355-0.1123276,0.3038788-0.2421074,0.457016-0.361702
                    c0.5890598-0.4600182,0.2751808-1.3568268-0.3157616-1.554287c-0.8281269-0.2767181-1.5926266-0.2292175-2.3288002,0.2377777
                    c-0.5327091,0.3379326-1.0046463,0.7546425-1.406168,1.2316704c-0.4800014,0.5702629-1.2751751,0.4425621-1.6152763-0.2270813
                    c-0.2961712-0.5831413-0.4255772-1.1959648-0.533123-1.8222313c-0.1757946-1.0236893-0.1013489-2.0582924-0.0823841-3.08638
                    c0.0188885-1.0239334,0.1879635-2.0396004,0.4067345-3.0401611c0.150713-0.6892853,0.0153389-1.3417206-0.4174976-1.6357956
                    c-0.4077702-0.2770443-1.2109013-0.2114716-1.6908131,0.084692c-0.4768105,0.2942524-0.486515,0.7899551-0.5797157,1.2337055
                    c-0.2116489,1.0077438-0.3570328,2.0292206-0.5650291,3.0378227c-0.0788345,0.3822784-0.2489624,0.7435951-0.4339828,1.0981483
                    c-0.1158428,0.221981-0.2794304,0.2985001-0.4693184,0.2997131c-0.1933002,0.0012321-0.2922134-0.1476364-0.3760872-0.3472404
                    c-0.2300911-0.5475693-0.3599968-1.1225967-0.5330315-1.685215c-0.3435268-1.1169662-0.6697788-2.239193-1.0077076-3.3578873
                    c-0.0469608-0.1554604-0.1099358-0.3079967-0.1821518-0.4537029c-0.318264-0.6421432-0.7893171-0.8819828-1.4117622-0.7271576
                    c-0.5355453,0.1332092-1.0176029,0.7674522-1.0535212,1.3161621c-0.0639734,0.9773216,0.3513012,1.8352222,0.6451006,2.7234211
                    c0.3412638,1.0316925,0.6892147,2.0613708,1.0515795,3.0858536c0.109601,0.3098602-0.0084028,0.532402-0.238781,0.6729126
                    c-0.2305927,0.1406479-0.4697828,0.0088348-0.6271811-0.1762276c-0.2035837-0.2393646-0.395813-0.4959068-0.5476818-0.7699127
                    c-0.5584679-1.0075951-1.1400108-2.0031929-1.5621099-3.0815506c-0.148756-0.3800354-0.2696466-0.8327255-0.8134565-0.8653336"
                    />
                <path class="st18" d="M37.731266,91.050827c-0.2035332,0.3399582-0.022419,0.6398392,0.0890388,0.954071
                    c1.1526604,3.2497253,3.524826,5.1592407,6.8026161,5.9639587c1.0434074,0.2561646,2.1528053,0.0468674,3.1842003-0.337326
                    c1.4815559-0.5518951,2.7176323-1.4312134,3.6538467-2.7180176c0.1986656-0.2730637,0.1594238-0.5817719,0.2069778-0.8690872
                    c0.0637856-0.3854446,0.0500984-0.7840881,0.0948524-1.1790771c0.1384659-1.222084,0.2244911-2.450058,0.3308792-3.6757431"/>
                <path class="st18" d="M65.407402,90.5060806c0.0879822,0.2485275,0.0925751,0.4618378-0.0329285,0.7321625
                    c-0.651329,1.4028473-1.4610672,2.7047119-2.3816299,3.9450455c-1.1493607,1.5486069-2.7579002,2.2258377-4.6049194,2.5527115
                    c-2.2080307,0.3907623-3.9563713-0.4846802-5.5614471-1.8317032c-0.4018784-0.3372726-0.763195-0.7224579-1.1431541-1.0856247"
                    />
                <path class="st18" d="M33.4909363,82.0170822c0.3752556,0.3651352,0.3003426,0.8843689,0.3860435,1.3212051
                    c0.2673721,1.3628693,0.7809601,2.6199417,1.3869553,3.8564301c0.5261116,1.0735092,1.2229919,2.0304947,1.9097443,3.0009232
                    c0.3465462,0.4896927,0.7828407,0.8493118,1.2319069,1.229599c1.149147,0.973114,2.3420372,1.8686676,3.7019997,2.5325394
                    c1.3133011,0.6410904,2.7048264,0.8902359,4.148838,0.7581863c0.8417587-0.0769806,1.6291695-0.4104385,2.4199142-0.7084122
                    c0.8594971-0.3238831,1.7206268-0.4429321,2.5551224,0.1242294c0.3368111,0.2289124,0.711525,0.1452789,1.0892372-0.1767426
                    c0.5411987-0.4613876,1.1535072-0.6709671,1.8710175-0.5953293c0.2533607,0.0267181,0.469696,0.1201477,0.6824265,0.2348099
                    c0.9833527,0.5300369,2.022789,0.8788147,3.1469765,0.9017792c1.2584496,0.0257034,2.4269371-0.3404846,3.5071793-0.9548645
                    c1.2041702-0.6848679,2.2189026-1.6100388,3.1458435-2.6301651c0.0878983-0.0967407,0.1488419-0.2332993,0.2783356-0.2648544
                    c0.5391693-0.1313782,0.7242813-0.5971222,0.951889-1.0053864c0.7118912-1.276886,1.6345215-2.4170151,2.377121-3.673584
                    c0.7401962-1.2525406,1.3793869-2.5533905,1.908165-3.9069901c0.0822601-0.2105865,0.1118546-0.4390411,0.1077805-0.6791
                    c-0.0052643-0.310173,0.2204895-0.537529,0.446991-0.7232285c1.3746872-1.1271133,2.4825134-2.4871902,3.4584198-3.9552383
                    c1.0060043-1.513298,1.8546295-3.112915,2.5108337-4.8095398c0.0102005-0.0263596,0.0012741-0.0600433,0.0012741-0.0903091"/>
                <path class="st18" d="M35.2235451,74.9353485c0.278347-0.002594,0.4979134,0.0903854,0.7368355,0.262291
                    c2.4267006,1.746048,5.060154,3.0793304,7.9730072,3.8186035c1.168045,0.2964478,2.3559151,0.4909058,3.5533714,0.653595
                    c1.9745789,0.2682724,3.9530411,0.1482391,5.9291992,0.1513519c0.6817474,0.0010757,1.3954773,0.0416031,2.0443993-0.0706024
                    c0.8970985-0.1551208,1.8061562-0.2924805,2.6981239-0.4997787c2.1015396-0.4883804,4.1299858-1.1827393,6.0610847-2.1412048
                    c1.1533966-0.572464,2.2534943-1.2420731,3.3315811-1.9460983c0.2191086-0.1430817,0.437294-0.3144913,0.7287369-0.1827621"/>
                <path class="st18" d="M31.7127342,70.7589417c-1.3168049,0.73172-1.7641106,1.7096634-1.555851,3.2238617
                    c0.3358231,2.4416962,0.9473782,4.8238068,1.5086079,7.2175369c0.0919685,0.3922729,0.3083858,0.6912231,0.6413784,0.9053726
                    c0.2387581,0.1535492,1.0148239,0.0743027,1.1740379-0.1413727c0.068718-0.0930786,0.080864-0.2437057,0.0721741-0.4021149
                    c-0.0569458-1.038559-0.2369461-2.0594101-0.3688126-3.0876007c-0.0658188-0.513176-0.1068306-1.0305023-0.1941986-1.5419846
                    c-0.0341072-0.1996841,0.043808-0.3746719,0.1361084-0.544632"/>
                <path class="st18" d="M72.2010498,59.3646164c-0.0384369,0.4010811,0.1260757,0.7605362,0.2240829,1.1358986
                    c0.2765656,1.0591164,0.5045319,2.1242371,0.6156769,3.2201729c0.0694733,0.6849747,0.1003189,1.3674316,0.0606003,2.0440521
                    c-0.113678,1.9364548-0.6074295,3.7672043-1.5136642,5.5064774c-0.3344574,0.6418991-0.8115921,1.141098-1.2204819,1.7049332
                    c-0.4793396,0.660965-1.1359558,1.1675568-1.733017,1.7210999c-0.1819839,0.1687012-0.3225021,0.3227921-0.3501511,0.5563583
                    c-0.0268478,0.22686-0.1803131,0.3567047-0.3238373,0.4983978c-0.861908,0.8509521-1.7774582,1.6411514-2.8809586,2.1606369
                    c-0.2350464,0.1106567-0.3356018,0.3208618-0.3342056,0.4271011c0.0089722,0.6805649-0.131546,1.3697662,0.0702972,2.0428772
                    c0.0095825,0.031929,0.0296707,0.0607452,0.0448761,0.0910034"/>
                <path class="st18" d="M33.946888,31.8094101c-0.8060951,0-1.4058342,0.4479027-1.690033,1.2245903
                    c-0.3080521,0.8418732-0.2263184,1.702137-0.0750351,2.5409088c0.239048,1.3253784,0.4712334,2.6571693,0.8599319,3.9497604
                    c0.2763329,0.9189301,0.6918068,1.7753029,1.4062958,2.4537849c0.1833458,0.1741066,0.3659821,0.322567,0.637146,0.3713875
                    c0.3497581,0.0629692,0.4745903,0.4193954,0.4813919,0.6728897c0.015377,0.5728798,0.3147316,1.03619,0.4918671,1.5379105
                    c0.6895103,1.9529839,1.6319733,3.7790031,2.997364,5.3596992c1.349472,1.5622673,2.9993019,2.6436119,5.0583725,3.0453682
                    c0.0789185,0.0153961,0.1523552,0.0586357,0.2283478,0.0889015"/>
                <path class="st18" d="M67.8695297,36.3943787c-0.2847977,1.6559715-0.4987564,3.324852-0.9435349,4.9519157
                    c-0.0418777,0.1532097-0.1165009,0.3464699-0.0221634,0.544838c0.0834656,0.175518,0.0215073,0.3750801-0.0842438,0.5400734
                    c-0.5175476,0.8074417-0.7395782,1.7473335-1.1809616,2.5900497c-0.820755,1.5670853-1.7800369,3.0285454-2.9543457,4.3672371
                    c-1.3171768,1.501564-2.8686905,2.6345024-4.7088547,3.3937416"/>
                <path class="st18" d="M66.957634,42.1142387c0.4017944-0.0322456,0.6288605-0.3032608,0.8709946-0.5861626
                    c0.7917862-0.9251251,1.1685791-2.0364838,1.4464874-3.183567c0.2213593-0.9136887,0.4288712-1.8375931,0.5393219-2.7690964
                    c0.1125488-0.9491158,0.2873611-1.9114265-0.1109314-2.8623161c-0.261734-0.6248817-0.6745987-1.0030785-1.332428-1.1306648"/>
                <path class="st18" d="M63.3556328,78.7485886c0.1215439,0.631218,0.0447922,1.2737808,0.1040802,1.905426
                    c0.0517654,0.5515594-0.2127495,0.8404388-0.6519508,1.0437393c-1.8201294,0.8425217-3.7096329,1.464241-5.6981277,1.7752457
                    c-0.5001678,0.0782318-0.9942741,0.1944275-1.505146,0.1783295"/>
                <path class="st18" d="M40.8089256,78.8847733c0.0838127,0.1068039,0.1601868,0.2365646,0.1091843,0.3612213
                    c-0.2738495,0.6692352-0.0816727,1.3641815-0.1250191,2.0451889c-0.0219879,0.3454514,0.3097115,0.461319,0.544075,0.5822144
                    c1.5419083,0.7954025,3.1727448,1.3449326,4.8746338,1.687767c0.7536964,0.1518097,1.5123863,0.2650909,2.2798767,0.3171387"/>
                <path class="st18" d="M31.4391632,61.4528198c0.0707417,0.2546959-0.0138054,0.4970398-0.0962791,0.7245026
                    c-0.3731651,1.0291595-0.5831757,2.0818405-0.6429672,3.1790009c-0.0907879,1.665947,0.2469788,3.2337952,0.8675766,4.770462
                    c0.475296,1.1768799,1.2346535,2.1565247,2.0180473,3.1261826c0.282711,0.3499298,0.6092148,0.6644363,0.9071503,1.0026093
                    c0.2909088,0.3301926,0.6427269,0.5754318,0.7694511,1.0786972c0.0887718,0.3525543,0.5198669,0.6361542,0.8314171,0.913414
                    c0.8144684,0.7248383,1.6719246,1.3979797,2.6430359,1.906517c0.4562378,0.2389145,0.7005386,0.5477829,0.6456871,1.0946884
                    c-0.0485077,0.4836731,0.0211563,0.9788742-0.1407547,1.4465714c-0.4667435,0.0586777-0.8165703-0.2012558-1.1922379-0.4012909
                    c-1.552433-0.8266983-2.8760948-1.9363098-4.0567398-3.2252884c-0.2480431-0.2708054-0.4488678-0.577652-0.8154335-0.7383575
                    c-0.2284698-0.1001587-0.1317902-0.4444885-0.301712-0.6234512"/>
                <path class="st18" d="M48.9932213,53.8717308c-1.4107246-0.5913277-2.8133736-1.2036476-4.2877922-1.6654892
                    c-0.0703773,0.3457794-0.3397713,0.5837135-0.3207283,0.9393425c0.0795288,1.4849815-0.3015823,3.002491,0.2933502,4.54496
                    c1.5232735-0.5833626,2.9745865-1.1778069,4.4063606-1.8213997"/>
                <path class="st18" d="M55.4221077,79.838089c0.1263351,0.4197388,0.0635414,0.8438721,0.0534554,1.2712631
                    c-0.0242653,1.0283966-0.0114594,2.0577774-0.0053482,3.0867081c0.0015488,0.2600937-0.0724678,0.4114838-0.3672752,0.4108582
                    c-2.0365639-0.0043335-4.0731506-0.0004196-6.1097145-0.004982c-0.219162-0.0004883-0.5603905-0.5005341-0.4388351-0.761116
                    c0.2102814-0.4507675,0.0347099-0.8860321,0.0705376-1.3246765c0.0320206-0.3920593,0.0484276-0.7866898,0.0452576-1.1799622
                    c-0.0035248-0.4372177-0.2143402-0.6602173-0.6345444-0.679039c-2.2746086-0.1019211-4.4381447-0.6994858-6.5624237-1.4633179
                    c-0.173233-0.062294-0.3330574-0.0762863-0.5047073-0.0820694"/>
                <path class="st18" d="M63.2644424,78.9301682c-0.2182007-0.1031876-0.3954048,0.0201416-0.5945015,0.0854568
                    c-1.7131653,0.5620651-3.4412384,1.0671539-5.2415657,1.2771606c-0.6084862,0.0709839-1.21595,0.1505814-1.8238869,0.2262421"/>
                <path class="st18" d="M35.5883064,43.5215073c-1.2927284,0.3015175-2.4878578,0.8337326-3.6003475,1.5460167
                    c-1.3372364,0.8561821-2.3672619,1.997406-3.1034641,3.401413c-0.0504322,0.09618-0.1202335,0.1822891-0.1810265,0.2730789"/>
                <path class="st18" d="M44.8212814,87.5326614c1.0762978,0.5891113,2.2645378,0.8516312,3.445385,1.0981216
                    c1.076149,0.2246399,2.1720428,0.3440323,3.2794342,0.388092c2.3476944,0.0934296,4.7509384-0.4410934,6.8383675-1.1947479
                    c0.2125359-0.0767365,0.4064865-0.2045212,0.6396408-0.2233734"/>
                <path class="st18" d="M71.9730759,72.0300217c-0.0101089,0.8381424-0.2168961,1.6476364-0.4250717,2.4475708
                    c-0.1475601,0.5670166-0.6620331,0.9361649-0.9910889,1.4091949c-0.2664337,0.3830338-0.5735092,0.7358246-0.8242111,1.1328659
                    c-0.2009354,0.318222-0.4355774,0.5638275-0.846756,0.7196884c-0.4247131,0.1609879-0.7419739,0.6016922-1.1077957,0.9182358
                    c-0.6264038,0.5420074-1.3133163,1.0011826-2.0048828,1.4545593c-0.2139511,0.1402664-0.4349365,0.2813416-0.6859741,0.3069916
                    c-0.227417,0.0232315-0.3304901,0.1105804-0.3410187,0.3268738"/>
                <path class="st18" d="M24.4631367,44.2024422c0.1642494,0.0704384,0.3285522,0.102047,0.463522,0.266201
                    c0.7772846,0.9453659,1.4989948,1.9220123,2.0018158,3.0462646c0.1789513,0.4001122,0.3724537,0.8434563,0.4090939,1.2311974
                    c0.0552883,0.5851097,0.1130886,1.2344208-0.1888695,1.8093758c-0.0097904,0.0186424-0.0866508,0.0023651-0.132246,0.0023651"/>
                <path class="st18" d="M57.6106682,51.9651108c-0.0749626,0.0456543-0.0675201,0.1505051-0.0409546,0.1769676
                    c0.4407272,0.4391441,0.3069878,1.0220299,0.41222,1.5467758c0.1092072,0.5445824,0.126812,1.0948868,0.0719643,1.6342583
                    c-0.0738449,0.7261696-0.089325,1.4778175-0.4888268,2.1348839"/>
                <path class="st18" d="M49.1300049,55.8691444c0.0303993,0.0302658,0.0620499,0.0593834,0.0910034,0.0909615
                    c0.3806992,0.4151917,0.708847,0.907917,1.3680344,0.9079094c0.9941597-0.0000114,2.0222588,0.091629,2.731739-0.820343
                    c0.3158684-0.4060249,0.3435097-0.9224434,0.4017372-1.4057159c0.0424118-0.3519859-0.1583633-0.6825905-0.3151703-0.9929008
                    c-0.127243-0.2518082-0.4445152-0.2558899-0.6781006-0.3103333c-0.9885788-0.2304039-1.9784012-0.3258095-2.9651527,0.0685387
                    c-0.2826653,0.1129608-0.5048943,0.3064957-0.7046852,0.4870567c-0.1376839,0.1244354-0.1150436,0.463131-0.1042786,0.7034149
                    c0.0183601,0.4097672,0.083683,0.8174553,0.1292801,1.226017"/>
                <path class="st18" d="M57.5194778,52.1012993c-0.6172905-0.0175743-1.1248589,0.3384857-1.6813469,0.51688
                    c-0.8273888,0.2652397-1.6166878,0.6482773-2.4221992,0.9811783"/>
                <path class="st18" d="M53.5527153,55.9599342c1.170269,0.4690895,2.3432274,0.9317398,3.5083466,1.4131889
                    c0.2103157,0.0869064,0.5813789-0.0611115,0.5951996,0.3572464"/>
                <path class="st18" d="M69.3285675,77.6590881c0.0705795,0.4582138-0.0727539,0.8688736-0.2722092,1.2717514
                    c-0.4877777,0.9851685,0.1180954,2.164299,1.1841125,2.3145142"/>
                <path class="st18" d="M27.4724026,48.8328056c0.8571663-0.3031464,1.3277493-0.1627197,1.8596573,0.641922
                    c0.2107544,0.318821,0.4223652,0.6680298,0.4200916,1.0831184"/>
            </g>
        </g>
    </g>
</g>
<g>
    <defs>
        <linearGradient x1="8.042%" y1="0%" x2="65.682%" y2="23.865%" id="a">
            <stop stop-color="#f9bf20" stop-opacity="0" offset="0%"/>
            <stop stop-color="#f9bf20" stop-opacity=".631" offset="63.146%"/>
            <stop stop-color="#f9bf20" offset="100%"/>
        </linearGradient>
    </defs>
    <g fill="none" fill-rule="evenodd" class="scales">
        <g transform="translate(1 1)">
            <path d="M36 18c0-9.94-8.06-18-18-18" id="Oval-2" stroke="url(#a)" stroke-width="2">
                <animateTransform
                    attributeName="transform"
                    type="rotate"
                    from="0 18 18"
                    to="360 18 18"
                    dur="0.9s"
                    repeatCount="indefinite" />
            </path>
            <circle fill="#f9bf20" cx="36" cy="18" r="1">
                <animateTransform
                    attributeName="transform"
                    type="rotate"
                    from="0 18 18"
                    to="360 18 18"
                    dur="0.9s"
                    repeatCount="indefinite" />
            </circle>
        </g>
    </g>
</g>
</svg>
