<?xml version="1.0" encoding="utf-8"?>
<!-- Generator: Adobe Illustrator 19.2.1, SVG Export Plug-In . SVG Version: 6.00 Build 0)  -->
<svg version="1.1" id="Layer_1" xmlns="http://www.w3.org/2000/svg" xmlns:xlink="http://www.w3.org/1999/xlink" x="0px" y="0px"
	 viewBox="0 0 55 40" style="enable-background:new 0 0 55 40;" xml:space="preserve">
<style type="text/css">
	.st0{fill:#A87E3B;}
</style>
<title>productlogo-x</title>
<path class="st0" d="M54.7,38.2c-7.3-0.2-6.5-0.4-14.3-9.3c-2.3-2.6-6.6-7.5-10.6-12.3c2.3-2.4,4.5-4.6,5.9-6
	C40.3,6,46.5,1,53.8,0.8c0,0.1,0.1,0.2,0.1,0.3V0H31.2v0.8h2c3.6,0,5.3,1.7,5.2,3.9c-0.1,2.1-1.7,3.6-2.7,4.7
	c-1.3,1.4-3.7,3.9-6.3,6.6c-5.2-6.1-9.9-12-9.9-12.8c0-2.2,1.6-2.5,5.6-2.5h2.2V0h-25v0.8c0,0,0.1,0,0.1,0c5.8,0,6.3-0.8,15,9.3
	c2.6,3.1,5.6,6.4,8.3,9.7c-3.3,3.4-6.7,6.8-9.1,9.3c-0.9,1-1.7,1.8-2.2,2.4C10.7,35.2,5.2,38,0.1,38c0,0-0.1,0-0.1,0v1h25v-0.8h-2.2
	c-4,0-7.1-1.7-7.1-3.9c0-1.5,0.2-3.3,2.6-5.6c0,0,3.7-4,7.9-8.3c6.1,7.3,11.5,13.9,11.5,14.9c0,2.2-1,2.9-5,2.9h-3.8V39h25.9v-0.8
	C54.8,38.2,54.7,38.2,54.7,38.2z"/>
</svg>
