<svg xmlns="http://www.w3.org/2000/svg" xmlns:xlink="http://www.w3.org/1999/xlink" preserveAspectRatio="xMidYMid" width="56" height="38" viewBox="0 0 56 38">
  <defs>
    <style>
      .cls-1 {
        fill: #fefefe;
        fill-rule: evenodd;
      }
    </style>
  </defs>
  <path d="M52.000,23.000 L4.000,23.000 C1.791,23.000 0.000,21.209 0.000,19.000 C0.000,16.791 1.791,15.000 4.000,15.000 L52.000,15.000 C54.209,15.000 56.000,16.791 56.000,19.000 C56.000,21.209 54.209,23.000 52.000,23.000 ZM52.000,8.000 L4.000,8.000 C1.791,8.000 0.000,6.209 0.000,4.000 C0.000,1.791 1.791,-0.000 4.000,-0.000 L52.000,-0.000 C54.209,-0.000 56.000,1.791 56.000,4.000 C56.000,6.209 54.209,8.000 52.000,8.000 ZM4.000,30.000 L52.000,30.000 C54.209,30.000 56.000,31.791 56.000,34.000 C56.000,36.209 54.209,38.000 52.000,38.000 L4.000,38.000 C1.791,38.000 0.000,36.209 0.000,34.000 C0.000,31.791 1.791,30.000 4.000,30.000 Z" class="cls-1"/>
</svg>
