<?xml version="1.0" encoding="utf-8"?>
<!-- Generator: Adobe Illustrator 19.1.0, SVG Export Plug-In . SVG Version: 6.00 Build 0)  -->
<svg version="1.1" id="Layer_1" xmlns="http://www.w3.org/2000/svg" xmlns:xlink="http://www.w3.org/1999/xlink" x="0px" y="0px"
	 viewBox="0 0 212.0370331 302.2670288" style="enable-background:new 0 0 212.0370331 302.2670288;" xml:space="preserve">
<style type="text/css">
	.st0{fill:#0F2D47;}
	.st1{fill:#FFFFFF;}
	.st2{fill:#28BF6A;}
	.st3{fill:#164160;}
</style>
<g>
	<path class="st0" d="M164.5293427,302.2669678H46.6300354c-15.2693558,0-27.6476135-12.3782654-27.6476135-27.6476135V27.6475697
		c0-15.2693558,12.3782578-27.6476135,27.6476135-27.6476135h117.8993073c15.2693634,0,27.6476135,12.3782587,27.6476135,27.6476135
		v246.9717865C192.1769562,289.8887024,179.7987061,302.2669678,164.5293427,302.2669678z"/>
	<path class="st1" d="M169.0332336,254.5902405H42.126152c-4.7332077,0-8.5702324-3.8370209-8.5702324-8.5702209V41.5820351
		c0-4.7332077,3.8370247-8.5702324,8.5702324-8.5702324h126.9070816c4.7332001,0,8.5702362,3.8370247,8.5702362,8.5702324
		v204.4379883C177.6034698,250.7532196,173.7664337,254.5902405,169.0332336,254.5902405z"/>
	<path class="st2" d="M198.7996216,80.4281082H69.5339813c-7.310833,0-13.2374382-5.9266052-13.2374382-13.237442v-4.1073875
		c0-7.3108368,5.9266052-13.2374382,13.2374382-13.2374382h129.2656403c7.3108215,0,13.2374268,5.9266014,13.2374268,13.2374382
		v4.1073875C212.0370483,74.501503,206.1104584,80.4281082,198.7996216,80.4281082z"/>
	<path class="st2" d="M137.4917603,183.0419464H69.3025818c-6.9460869,0-12.5769997-5.6309052-12.5769997-12.5769958v-5.4282684
		c0-6.9460754,5.6309128-12.5769958,12.5769997-12.5769958h68.1891632c6.9460907,0,12.5770111,5.6309052,12.5770111,12.5769958
		v5.4282684C150.0687561,177.4110413,144.4378357,183.0419464,137.4917603,183.0419464z"/>
	<path class="st2" d="M146.2988892,137.4543915H13.2589693c-7.3227186,0-13.258955-4.9194641-13.258955-10.9879379v-19.5472488
		c0-6.0684738,5.9362369-10.9879456,13.258956-10.9879456h133.039917c7.3227234,0,13.2589569,4.9194717,13.2589569,10.9879456
		v19.5472488c0,3.7005692-2.2074432,6.9738693-5.5906219,8.9649124
		C151.8024139,136.7053833,149.1562042,137.4543915,146.2988892,137.4543915z"/>
	<path class="st2" d="M156.5957184,133.3565826c5.4155273-12.5013428-0.0302734-8.4300537,5.5981445,8.6722412
		c0,0-8.0496368-5.3698578-19.583374-4.6072388"/>
	<circle class="st3" cx="105.579689" cy="279.5143433" r="13.6441851"/>
	<g>
		<path class="st1" d="M77.2246475,64.7869492l2.0410156-3.9257812h1.1699219l-2.6953125,4.9042969v2.9160156h-1.03125v-2.9160156
			l-2.6972656-4.9042969h1.1816406L77.2246475,64.7869492z"/>
		<path class="st1" d="M80.676796,65.722496c0-0.5703125,0.1123047-1.0820312,0.3359375-1.5371094
			c0.2236328-0.4541016,0.5351562-0.8046875,0.9345703-1.0527344c0.3994141-0.2460938,0.8554688-0.3701172,1.3671875-0.3701172
			c0.7910156,0,1.4316406,0.2744141,1.9199219,0.8212891c0.4892578,0.5488281,0.7333984,1.2773438,0.7333984,2.1865234v0.0693359
			c0,0.5664062-0.1083984,1.0742188-0.3251953,1.5234375s-0.5263672,0.7988281-0.9287109,1.0498047
			c-0.4033203,0.2509766-0.8662109,0.3759766-1.3886719,0.3759766c-0.7880859,0-1.4257812-0.2734375-1.9150391-0.8222656
			c-0.4882812-0.546875-0.7333984-1.2724609-0.7333984-2.1748047V65.722496z M81.676796,65.8396835
			c0,0.6445312,0.1494141,1.1621094,0.4482422,1.5527344s0.6992188,0.5859375,1.2001953,0.5859375
			c0.5048828,0,0.90625-0.1982422,1.203125-0.59375s0.4453125-0.9501953,0.4453125-1.6621094
			c0-0.6376953-0.1503906-1.1542969-0.453125-1.5498047s-0.7050781-0.59375-1.2060547-0.59375
			c-0.4902344,0-0.8857422,0.1953125-1.1865234,0.5849609C81.8271866,64.5545273,81.676796,65.113121,81.676796,65.8396835z"/>
		<path class="st1" d="M90.801796,68.1072617c-0.3867188,0.4541016-0.9541016,0.6816406-1.703125,0.6816406
			c-0.6191406,0-1.0908203-0.1796875-1.4150391-0.5400391c-0.3242188-0.359375-0.4873047-0.8925781-0.4912109-1.5976562v-3.78125
			h0.9941406v3.7548828c0,0.8808594,0.3574219,1.3203125,1.0742188,1.3203125c0.7587891,0,1.2636719-0.2822266,1.5136719-0.8476562
			V62.869957h0.9941406v5.8115234h-0.9453125L90.801796,68.1072617z"/>
		<path class="st1" d="M96.0869522,63.7615585c-0.1503906-0.0253906-0.3125-0.0371094-0.4882812-0.0371094
			c-0.6513672,0-1.09375,0.2773438-1.3261719,0.8320312v4.125h-0.9941406V62.869957h0.9667969l0.015625,0.6708984
			c0.3261719-0.5185547,0.7880859-0.7783203,1.3867188-0.7783203c0.1933594,0,0.3398438,0.0253906,0.4394531,0.0751953V63.7615585z"
			/>
		<path class="st1" d="M103.10746,67.1404648c0-0.2695312-0.1015625-0.4775391-0.3037109-0.6259766
			s-0.5546875-0.2763672-1.0576172-0.3837891s-0.9023438-0.2363281-1.1982422-0.3867188
			c-0.2949219-0.1503906-0.5136719-0.3300781-0.6552734-0.5371094c-0.1416016-0.2080078-0.2119141-0.4550781-0.2119141-0.7421875
			c0-0.4755859,0.2011719-0.8789062,0.6044922-1.2080078c0.4023438-0.3291016,0.9169922-0.4941406,1.5439453-0.4941406
			c0.6591797,0,1.1933594,0.1699219,1.6035156,0.5107422c0.4101562,0.3398438,0.6152344,0.7744141,0.6152344,1.3046875h-1
			c0-0.2724609-0.1152344-0.5068359-0.3457031-0.703125c-0.2314453-0.1972656-0.5224609-0.2958984-0.8730469-0.2958984
			c-0.3613281,0-0.6445312,0.0791016-0.8486328,0.2363281s-0.3056641,0.3632812-0.3056641,0.6181641
			c0,0.2392578,0.0947266,0.4199219,0.2841797,0.5419922s0.5322266,0.2382812,1.0283203,0.3486328
			c0.4960938,0.1113281,0.8984375,0.2441406,1.2060547,0.3984375c0.3076172,0.1533203,0.5361328,0.3388672,0.6845703,0.5556641
			s0.2226562,0.4804688,0.2226562,0.7919922c0,0.5195312-0.2070312,0.9355469-0.6230469,1.2490234
			c-0.4150391,0.3134766-0.9541016,0.4697266-1.6162109,0.4697266c-0.4658203,0-0.8769531-0.0820312-1.2353516-0.2470703
			s-0.6386719-0.3945312-0.8408203-0.6904297c-0.2021484-0.2949219-0.3037109-0.6152344-0.3037109-0.9589844h0.9941406
			c0.0175781,0.3339844,0.1513672,0.5976562,0.4003906,0.7929688s0.5771484,0.2929688,0.9853516,0.2929688
			c0.3759766,0,0.6777344-0.0761719,0.9052734-0.2285156S103.10746,67.394371,103.10746,67.1404648z"/>
		<path class="st1" d="M106.7432022,61.4627304v1.4072266h1.0864258v0.7685547h-1.0864258v3.6083984
			c0,0.2324219,0.0488281,0.4072266,0.1455078,0.5244141c0.0966797,0.1162109,0.2612305,0.1738281,0.4936523,0.1738281
			c0.1152344,0,0.2734375-0.0214844,0.4726562-0.0644531v0.8017578c-0.2617188,0.0712891-0.515625,0.1064453-0.7617188,0.1064453
			c-0.4448242,0-0.7797852-0.1347656-1.0043945-0.4023438c-0.2265625-0.2695312-0.3388672-0.6503906-0.3388672-1.1445312v-3.6035156
			h-1.0576172V62.869957h1.0576172v-1.4072266H106.7432022z"/>
		<path class="st1" d="M108.6186905,65.722496c0-0.5703125,0.1113281-1.0820312,0.3359375-1.5371094
			c0.2226562-0.4541016,0.5351562-0.8046875,0.9335938-1.0527344c0.4003906-0.2460938,0.8554688-0.3701172,1.3671875-0.3701172
			c0.7910156,0,1.4316406,0.2744141,1.9199219,0.8212891c0.4902344,0.5488281,0.734375,1.2773438,0.734375,2.1865234v0.0693359
			c0,0.5664062-0.109375,1.0742188-0.3261719,1.5234375s-0.5253906,0.7988281-0.9277344,1.0498047
			c-0.4042969,0.2509766-0.8671875,0.3759766-1.3886719,0.3759766c-0.7890625,0-1.4257812-0.2734375-1.9160156-0.8222656
			c-0.4882812-0.546875-0.7324219-1.2724609-0.7324219-2.1748047V65.722496z M109.6186905,65.8396835
			c0,0.6445312,0.1484375,1.1621094,0.4472656,1.5527344s0.6992188,0.5859375,1.2011719,0.5859375
			c0.5039062,0,0.90625-0.1982422,1.203125-0.59375s0.4453125-0.9501953,0.4453125-1.6621094
			c0-0.6376953-0.1503906-1.1542969-0.453125-1.5498047s-0.7050781-0.59375-1.2070312-0.59375
			c-0.4902344,0-0.8847656,0.1953125-1.1855469,0.5849609C109.7690811,64.5545273,109.6186905,65.113121,109.6186905,65.8396835z"/>
		<path class="st1" d="M120.064003,65.8396835c0,0.8847656-0.2011719,1.5976562-0.6054688,2.1386719
			c-0.40625,0.5400391-0.953125,0.8105469-1.6445312,0.8105469c-0.7050781,0-1.2597656-0.2236328-1.6640625-0.671875v2.7988281
			h-0.9941406V62.869957h0.9082031l0.046875,0.6445312c0.4042969-0.5009766,0.9667969-0.7519531,1.6875-0.7519531
			c0.6972656,0,1.25,0.2626953,1.65625,0.7900391c0.40625,0.5253906,0.609375,1.2578125,0.609375,2.1962891V65.8396835z
			 M119.0718155,65.7273788c0-0.6552734-0.140625-1.1728516-0.4199219-1.5517578
			c-0.2792969-0.3798828-0.6621094-0.5703125-1.1484375-0.5703125c-0.6015625,0-1.0527344,0.2675781-1.3535156,0.8007812v2.7773438
			c0.296875,0.5292969,0.7519531,0.7949219,1.3632812,0.7949219c0.4765625,0,0.8554688-0.1894531,1.1367188-0.5673828
			S119.0718155,66.472496,119.0718155,65.7273788z"/>
		<path class="st1" d="M124.0561905,61.3279648c0-0.1601562,0.0488281-0.296875,0.1464844-0.4082031
			c0.0996094-0.1103516,0.2441406-0.1660156,0.4375-0.1660156s0.3398438,0.0556641,0.4414062,0.1660156
			c0.0996094,0.1113281,0.1503906,0.2480469,0.1503906,0.4082031c0,0.1621094-0.0507812,0.2958984-0.1503906,0.4033203
			c-0.1015625,0.1074219-0.2480469,0.1611328-0.4414062,0.1611328s-0.3378906-0.0537109-0.4375-0.1611328
			C124.1050186,61.6238632,124.0561905,61.4900742,124.0561905,61.3279648z M125.1304092,68.6814804h-0.9941406V62.869957h0.9941406
			V68.6814804z"/>
		<path class="st1" d="M130.1030579,67.1404648c0-0.2695312-0.1015625-0.4775391-0.3046875-0.6259766
			c-0.2011719-0.1484375-0.5546875-0.2763672-1.0566406-0.3837891c-0.5039062-0.1074219-0.9023361-0.2363281-1.1992111-0.3867188
			c-0.2949219-0.1503906-0.5136719-0.3300781-0.6542969-0.5371094c-0.1425781-0.2080078-0.2128906-0.4550781-0.2128906-0.7421875
			c0-0.4755859,0.2011719-0.8789062,0.6054688-1.2080078c0.4023438-0.3291016,0.916008-0.4941406,1.5429611-0.4941406
			c0.6601562,0,1.1933594,0.1699219,1.6035156,0.5107422c0.4101562,0.3398438,0.6152344,0.7744141,0.6152344,1.3046875h-1
			c0-0.2724609-0.1152344-0.5068359-0.3457031-0.703125c-0.2304688-0.1972656-0.5214844-0.2958984-0.8730469-0.2958984
			c-0.3613281,0-0.6445312,0.0791016-0.8476486,0.2363281c-0.2050781,0.1572266-0.3066406,0.3632812-0.3066406,0.6181641
			c0,0.2392578,0.0957031,0.4199219,0.2851562,0.5419922c0.1894455,0.1220703,0.5312424,0.2382812,1.0273361,0.3486328
			c0.4960938,0.1113281,0.8984375,0.2441406,1.2070312,0.3984375c0.3066406,0.1533203,0.5351562,0.3388672,0.6835938,0.5556641
			s0.2226562,0.4804688,0.2226562,0.7919922c0,0.5195312-0.2070312,0.9355469-0.6230469,1.2490234
			c-0.4140625,0.3134766-0.953125,0.4697266-1.6152344,0.4697266c-0.4667969,0-0.8769455-0.0820312-1.2363205-0.2470703
			c-0.3574219-0.1650391-0.6386719-0.3945312-0.8398438-0.6904297c-0.203125-0.2949219-0.3046875-0.6152344-0.3046875-0.9589844
			h0.9941406c0.0175781,0.3339844,0.1523438,0.5976562,0.4003906,0.7929688
			c0.2499924,0.1953125,0.5781174,0.2929688,0.9863205,0.2929688c0.375,0,0.6777344-0.0761719,0.9042969-0.2285156
			C129.9897766,67.597496,130.1030579,67.394371,130.1030579,67.1404648z"/>
		<path class="st1" d="M136.4624329,61.4627304v1.4072266h1.0859375v0.7685547h-1.0859375v3.6083984
			c0,0.2324219,0.0488281,0.4072266,0.1445312,0.5244141c0.0976562,0.1162109,0.2617188,0.1738281,0.4941406,0.1738281
			c0.1152344,0,0.2734375-0.0214844,0.4726562-0.0644531v0.8017578c-0.2617188,0.0712891-0.515625,0.1064453-0.7617188,0.1064453
			c-0.4453125,0-0.7792969-0.1347656-1.0039062-0.4023438c-0.2265625-0.2695312-0.3398438-0.6503906-0.3398438-1.1445312v-3.6035156
			h-1.0566406V62.869957h1.0566406v-1.4072266H136.4624329z"/>
		<path class="st1" d="M139.7007141,63.5740585c0.4394531-0.5410156,1.0136719-0.8115234,1.71875-0.8115234
			c1.2285156,0,1.8476562,0.6923828,1.8574219,2.0791016v3.8398438h-0.9921875v-3.8457031
			c-0.0039062-0.4189453-0.0996094-0.7285156-0.2871094-0.9296875c-0.1894531-0.2001953-0.4824219-0.3007812-0.8789062-0.3007812
			c-0.3222656,0-0.6054688,0.0859375-0.8496094,0.2578125c-0.2421875,0.171875-0.4316406,0.3984375-0.5683594,0.6777344v4.140625
			h-0.9941406v-8.25h0.9941406V63.5740585z"/>
		<path class="st1" d="M147.1772766,68.7889023c-0.7871094,0-1.4296875-0.2587891-1.9238281-0.7763672
			s-0.7402344-1.2089844-0.7402344-2.0751953V65.753746c0-0.5761719,0.109375-1.0908203,0.3300781-1.5439453
			s0.5292969-0.8076172,0.9238281-1.0634766c0.3964844-0.2558594,0.8242188-0.3837891,1.2871094-0.3837891
			c0.7558594,0,1.3417969,0.2490234,1.7617188,0.7470703c0.4179688,0.4970703,0.6269531,1.2099609,0.6269531,2.1367188v0.4140625
			h-3.9355469c0.0136719,0.5732422,0.1816406,1.0361328,0.5019531,1.3886719s0.7265625,0.5292969,1.2207031,0.5292969
			c0.3515625,0,0.6484375-0.0722656,0.8925781-0.2148438c0.2441406-0.1435547,0.4570312-0.3339844,0.6386719-0.5703125
			l0.6074219,0.4726562C148.8823547,68.4148788,148.151886,68.7889023,147.1772766,68.7889023z M147.0542297,63.5789413
			c-0.4023438,0-0.7382812,0.1455078-1.0097656,0.4375c-0.2734375,0.2919922-0.4414062,0.7011719-0.5058594,1.2275391h2.9121094
			v-0.0751953c-0.0292969-0.5048828-0.1660156-0.8964844-0.4082031-1.1738281
			C147.7983704,63.7176132,147.4682922,63.5789413,147.0542297,63.5789413z"/>
		<path class="st1" d="M154.2554016,62.869957l0.0332031,0.7304688c0.4433594-0.5585938,1.0234375-0.8378906,1.7402344-0.8378906
			c1.2285156,0,1.8476562,0.6923828,1.8574219,2.0791016v3.8398438h-0.9921875v-3.8457031
			c-0.0039062-0.4189453-0.0996094-0.7285156-0.2871094-0.9296875c-0.1894531-0.2001953-0.4824219-0.3007812-0.8789062-0.3007812
			c-0.3222656,0-0.6054688,0.0859375-0.8496094,0.2578125c-0.2421875,0.171875-0.4316406,0.3984375-0.5683594,0.6777344v4.140625
			h-0.9941406V62.869957H154.2554016z"/>
		<path class="st1" d="M161.7983704,68.7889023c-0.7890625,0-1.4296875-0.2587891-1.9238281-0.7763672
			s-0.7402344-1.2089844-0.7402344-2.0751953V65.753746c0-0.5761719,0.109375-1.0908203,0.3300781-1.5439453
			c0.21875-0.453125,0.5273438-0.8076172,0.9238281-1.0634766c0.3945312-0.2558594,0.8242188-0.3837891,1.2851562-0.3837891
			c0.7558594,0,1.34375,0.2490234,1.7617188,0.7470703c0.4199219,0.4970703,0.6289062,1.2099609,0.6289062,2.1367188v0.4140625
			h-3.9375c0.015625,0.5732422,0.1816406,1.0361328,0.5019531,1.3886719s0.7285156,0.5292969,1.2226562,0.5292969
			c0.3515625,0,0.6484375-0.0722656,0.8925781-0.2148438c0.2421875-0.1435547,0.4550781-0.3339844,0.6386719-0.5703125
			l0.6074219,0.4726562C163.5014954,68.4148788,162.7710266,68.7889023,161.7983704,68.7889023z M161.6733704,63.5789413
			c-0.4003906,0-0.7363281,0.1455078-1.0097656,0.4375c-0.2714844,0.2919922-0.4394531,0.7011719-0.5039062,1.2275391h2.9101562
			v-0.0751953c-0.0273438-0.5048828-0.1640625-0.8964844-0.4082031-1.1738281
			C162.4194641,63.7176132,162.089386,63.5789413,161.6733704,63.5789413z"/>
		<path class="st1" d="M167.1636047,64.9920273l1.2890625-2.1220703h1.1601562l-1.9003906,2.8740234l1.9589844,2.9375h-1.1484375
			l-1.34375-2.1757812l-1.3417969,2.1757812h-1.1542969l1.9589844-2.9375l-1.9003906-2.8740234h1.1484375L167.1636047,64.9920273z"
			/>
		<path class="st1" d="M172.0132141,61.4627304v1.4072266h1.0859375v0.7685547h-1.0859375v3.6083984
			c0,0.2324219,0.0488281,0.4072266,0.1445312,0.5244141c0.0976562,0.1162109,0.2617188,0.1738281,0.4941406,0.1738281
			c0.1152344,0,0.2734375-0.0214844,0.4726562-0.0644531v0.8017578c-0.2617188,0.0712891-0.515625,0.1064453-0.7617188,0.1064453
			c-0.4453125,0-0.7792969-0.1347656-1.0039062-0.4023438c-0.2265625-0.2695312-0.3398438-0.6503906-0.3398438-1.1445312v-3.6035156
			h-1.0566406V62.869957h1.0566406v-1.4072266H172.0132141z"/>
		<path class="st1" d="M176.7182922,65.722496c0-0.5703125,0.1113281-1.0820312,0.3359375-1.5371094
			c0.2226562-0.4541016,0.5351562-0.8046875,0.9335938-1.0527344c0.4003906-0.2460938,0.8554688-0.3701172,1.3671875-0.3701172
			c0.7910156,0,1.4316406,0.2744141,1.9199219,0.8212891c0.4902344,0.5488281,0.734375,1.2773438,0.734375,2.1865234v0.0693359
			c0,0.5664062-0.109375,1.0742188-0.3261719,1.5234375s-0.5253906,0.7988281-0.9277344,1.0498047
			c-0.4042969,0.2509766-0.8671875,0.3759766-1.3886719,0.3759766c-0.7890625,0-1.4257812-0.2734375-1.9160156-0.8222656
			c-0.4882812-0.546875-0.7324219-1.2724609-0.7324219-2.1748047V65.722496z M177.7182922,65.8396835
			c0,0.6445312,0.1484375,1.1621094,0.4472656,1.5527344s0.6992188,0.5859375,1.2011719,0.5859375
			c0.5039062,0,0.90625-0.1982422,1.203125-0.59375s0.4453125-0.9501953,0.4453125-1.6621094
			c0-0.6376953-0.1503906-1.1542969-0.453125-1.5498047s-0.7050781-0.59375-1.2070312-0.59375
			c-0.4902344,0-0.8847656,0.1953125-1.1855469,0.5849609C177.8686829,64.5545273,177.7182922,65.113121,177.7182922,65.8396835z"/>
		<path class="st1" d="M184.1948547,62.869957l0.0332031,0.7304688c0.4433594-0.5585938,1.0234375-0.8378906,1.7402344-0.8378906
			c1.2265625,0,1.8476562,0.6923828,1.8574219,2.0791016v3.8398438h-0.9941406v-3.8457031
			c-0.0039062-0.4189453-0.0996094-0.7285156-0.2871094-0.9296875c-0.1875-0.2001953-0.4804688-0.3007812-0.8769531-0.3007812
			c-0.3222656,0-0.6054688,0.0859375-0.8496094,0.2578125s-0.4335938,0.3984375-0.5683594,0.6777344v4.140625h-0.9941406V62.869957
			H184.1948547z"/>
		<path class="st1" d="M191.7358704,68.7889023c-0.7871094,0-1.4296875-0.2587891-1.9238281-0.7763672
			s-0.7402344-1.2089844-0.7402344-2.0751953V65.753746c0-0.5761719,0.109375-1.0908203,0.3300781-1.5439453
			s0.5292969-0.8076172,0.9238281-1.0634766c0.3964844-0.2558594,0.8242188-0.3837891,1.2871094-0.3837891
			c0.7558594,0,1.3417969,0.2490234,1.7617188,0.7470703c0.4179688,0.4970703,0.6269531,1.2099609,0.6269531,2.1367188v0.4140625
			h-3.9355469c0.0136719,0.5732422,0.1816406,1.0361328,0.5019531,1.3886719s0.7265625,0.5292969,1.2207031,0.5292969
			c0.3515625,0,0.6484375-0.0722656,0.8925781-0.2148438c0.2441406-0.1435547,0.4570312-0.3339844,0.6386719-0.5703125
			l0.6074219,0.4726562C193.4409485,68.4148788,192.7104797,68.7889023,191.7358704,68.7889023z M191.6128235,63.5789413
			c-0.4023438,0-0.7382812,0.1455078-1.0097656,0.4375c-0.2734375,0.2919922-0.4414062,0.7011719-0.5058594,1.2275391h2.9121094
			v-0.0751953c-0.0292969-0.5048828-0.1660156-0.8964844-0.4082031-1.1738281
			C192.3569641,63.7176132,192.026886,63.5789413,191.6128235,63.5789413z"/>
	</g>
	<g>
		<path class="st1" d="M19.617712,115.1814804h-1.03125v-7.8203125h1.03125V115.1814804z"/>
		<path class="st1" d="M22.2876339,109.369957l0.0332031,0.7304688c0.4433594-0.5585938,1.0234375-0.8378906,1.7402344-0.8378906
			c1.2275391,0,1.8476562,0.6923828,1.8574219,2.0791016v3.8398438h-0.9931641v-3.8457031
			c-0.0039062-0.4189453-0.0996094-0.7285156-0.2871094-0.9296875c-0.1884766-0.2001953-0.4814453-0.3007812-0.8779297-0.3007812
			c-0.3222656,0-0.6054688,0.0859375-0.8496094,0.2578125c-0.2431641,0.171875-0.4326172,0.3984375-0.5683594,0.6777344v4.140625
			h-0.9941406v-5.8115234H22.2876339z"/>
		<path class="st1" d="M31.9819698,112.7166367l0.1503887,1.03125l0.2207031-0.9296875l1.546875-5.4570312h0.8701172
			l1.5087891,5.4570312l0.2148438,0.9453125l0.1669922-1.0527344l1.2138672-5.3496094h1.0371094l-1.8964844,7.8203125h-0.9394531
			l-1.6113281-5.6992188l-0.1240234-0.5957031l-0.1240234,0.5957031l-1.6699219,5.6992188h-0.9394512l-1.890625-7.8203125h1.03125
			L31.9819698,112.7166367z"/>
		<path class="st1" d="M43.3100929,115.1814804c-0.0576172-0.1142578-0.1035156-0.3183594-0.1396484-0.6123047
			c-0.4619141,0.4794922-1.0136719,0.7197266-1.6542969,0.7197266c-0.5732422,0-1.0429688-0.1621094-1.4101562-0.4863281
			s-0.5498047-0.734375-0.5498047-1.2324219c0-0.6054688,0.2294922-1.0751953,0.6894531-1.4101562
			s1.1074219-0.5019531,1.9414062-0.5019531h0.9667969v-0.4570312c0-0.3466797-0.1035156-0.6230469-0.3105469-0.8291016
			c-0.2080078-0.2060547-0.5146484-0.3095703-0.9189453-0.3095703c-0.3544922,0-0.6513672,0.0898438-0.8916016,0.2695312
			c-0.2402344,0.1787109-0.359375,0.3955078-0.359375,0.6494141h-1c0-0.2900391,0.1035156-0.5703125,0.3095703-0.8408203
			s0.4853516-0.484375,0.8378906-0.6416016s0.7402344-0.2363281,1.1630859-0.2363281
			c0.6689453,0,1.1933594,0.1669922,1.5732422,0.5019531s0.5761719,0.7958984,0.5908203,1.3837891v2.6738281
			c0,0.5341797,0.0683594,0.9580078,0.2041016,1.2734375v0.0859375H43.3100929z M41.6616554,114.4236679
			c0.3105469,0,0.6064453-0.0800781,0.8857422-0.2412109s0.4814453-0.3701172,0.6064453-0.6279297v-1.1933594h-0.7783203
			c-1.2177734,0-1.8261719,0.3564453-1.8261719,1.0693359c0,0.3115234,0.1035156,0.5546875,0.3115234,0.7304688
			S41.3354836,114.4236679,41.6616554,114.4236679z"/>
		<path class="st1" d="M47.053257,107.9627304v1.4072266h1.0859375v0.7685547H47.053257v3.6083984
			c0,0.2324219,0.0488281,0.4072266,0.1455078,0.5244141c0.0966797,0.1162109,0.2617188,0.1738281,0.4941406,0.1738281
			c0.1142578,0,0.2724609-0.0214844,0.4726562-0.0644531v0.8017578c-0.2617188,0.0712891-0.515625,0.1064453-0.7626953,0.1064453
			c-0.4443359,0-0.7792969-0.1347656-1.0039062-0.4023438c-0.2265625-0.2695312-0.3388672-0.6503906-0.3388672-1.1445312v-3.6035156
			h-1.0576172v-0.7685547h1.0576172v-1.4072266H47.053257z"/>
		<path class="st1" d="M51.7114601,115.2889023c-0.7880859,0-1.4296875-0.2587891-1.9238281-0.7763672
			s-0.7402344-1.2089844-0.7402344-2.0751953v-0.1835938c0-0.5761719,0.109375-1.0908203,0.3300781-1.5439453
			c0.2197266-0.453125,0.5283203-0.8076172,0.9238281-1.0634766s0.8242188-0.3837891,1.2861328-0.3837891
			c0.7558594,0,1.3427734,0.2490234,1.7617188,0.7470703c0.4189453,0.4970703,0.6279297,1.2099609,0.6279297,2.1367188v0.4140625
			h-3.9365234c0.0146484,0.5732422,0.1816406,1.0361328,0.5019531,1.3886719s0.7275391,0.5292969,1.2216797,0.5292969
			c0.3515625,0,0.6484375-0.0722656,0.8925781-0.2148438c0.2431641-0.1435547,0.4560547-0.3339844,0.6386719-0.5703125
			l0.6074219,0.4726562C53.4155617,114.9148788,52.6850929,115.2889023,51.7114601,115.2889023z M51.5874367,110.0789413
			c-0.4013672,0-0.7373047,0.1455078-1.0097656,0.4375s-0.4404297,0.7011719-0.5048828,1.2275391h2.9111328v-0.0751953
			c-0.0283203-0.5048828-0.1650391-0.8964844-0.4082031-1.1738281S52.0024757,110.0789413,51.5874367,110.0789413z"/>
		<path class="st1" d="M57.9350929,110.2615585c-0.1503906-0.0253906-0.3125-0.0371094-0.4882812-0.0371094
			c-0.6513672,0-1.09375,0.2773438-1.3261719,0.8320312v4.125h-0.9941406v-5.8115234h0.9667969l0.015625,0.6708984
			c0.3261719-0.5185547,0.7880859-0.7783203,1.3867188-0.7783203c0.1933594,0,0.3398438,0.0253906,0.4394531,0.0751953V110.2615585z
			"/>
		<path class="st1" d="M59.928257,115.1814804h-0.9941406v-8.25h0.9941406V115.1814804z"/>
		<path class="st1" d="M61.2544289,112.222496c0-0.5703125,0.1123047-1.0820312,0.3359375-1.5371094
			c0.2236328-0.4541016,0.5351562-0.8046875,0.9345703-1.0527344c0.3994141-0.2460938,0.8554688-0.3701172,1.3671875-0.3701172
			c0.7910194,0,1.4316444,0.2744141,1.9199257,0.8212891c0.4892578,0.5488281,0.7333984,1.2773438,0.7333984,2.1865234v0.0693359
			c0,0.5664062-0.1083984,1.0742188-0.3251953,1.5234375s-0.5263672,0.7988281-0.9287109,1.0498047
			c-0.4033203,0.2509766-0.8662109,0.3759766-1.3886757,0.3759766c-0.7880859,0-1.4257812-0.2734375-1.9150391-0.8222656
			c-0.4882812-0.546875-0.7333984-1.2724609-0.7333984-2.1748047V112.222496z M62.2544289,112.3396835
			c0,0.6445312,0.1494141,1.1621094,0.4482422,1.5527344s0.6992188,0.5859375,1.2001953,0.5859375
			c0.5048866,0,0.9062538-0.1982422,1.2031288-0.59375s0.4453125-0.9501953,0.4453125-1.6621094
			c0-0.6376953-0.1503906-1.1542969-0.453125-1.5498047s-0.7050781-0.59375-1.2060585-0.59375
			c-0.4902344,0-0.8857422,0.1953125-1.1865234,0.5849609C62.4048195,111.0545273,62.2544289,111.613121,62.2544289,112.3396835z"/>
		<path class="st1" d="M67.5278702,112.222496c0-0.5703125,0.1123047-1.0820312,0.3359375-1.5371094
			c0.2236328-0.4541016,0.5351562-0.8046875,0.9345703-1.0527344c0.3994141-0.2460938,0.8554688-0.3701172,1.3671875-0.3701172
			c0.7910156,0,1.4316406,0.2744141,1.9199219,0.8212891c0.4892578,0.5488281,0.7333984,1.2773438,0.7333984,2.1865234v0.0693359
			c0,0.5664062-0.1083984,1.0742188-0.3251953,1.5234375s-0.5263672,0.7988281-0.9287109,1.0498047
			c-0.4033203,0.2509766-0.8662109,0.3759766-1.3886719,0.3759766c-0.7880859,0-1.4257812-0.2734375-1.9150391-0.8222656
			c-0.4882812-0.546875-0.7333984-1.2724609-0.7333984-2.1748047V112.222496z M68.5278702,112.3396835
			c0,0.6445312,0.1494141,1.1621094,0.4482422,1.5527344s0.6992188,0.5859375,1.2001953,0.5859375
			c0.5048828,0,0.90625-0.1982422,1.203125-0.59375s0.4453125-0.9501953,0.4453125-1.6621094
			c0-0.6376953-0.1503906-1.1542969-0.453125-1.5498047s-0.7050781-0.59375-1.2060547-0.59375
			c-0.4902344,0-0.8857422,0.1953125-1.1865234,0.5849609C68.6782608,111.0545273,68.5278702,111.613121,68.5278702,112.3396835z"/>
		<path class="st1" d="M76.5513077,112.2273788c0-0.90625,0.2089844-1.6269531,0.6289062-2.1621094
			c0.4179688-0.5351562,0.9736328-0.8027344,1.6640625-0.8027344c0.7089844,0,1.2626953,0.2509766,1.6601562,0.7519531
			l0.0488281-0.6445312h0.9072266v5.671875c0,0.7519531-0.2226562,1.3447266-0.6689453,1.7783203
			c-0.4453125,0.4326172-1.0449219,0.6494141-1.796875,0.6494141c-0.4179688,0-0.828125-0.0898438-1.2294922-0.2685547
			s-0.7070312-0.4238281-0.9189453-0.7363281l0.515625-0.5957031c0.4267578,0.5263672,0.9472656,0.7890625,1.5634766,0.7890625
			c0.4833984,0,0.8603516-0.1357422,1.1308594-0.4082031c0.2705078-0.2714844,0.4052734-0.6542969,0.4052734-1.1484375v-0.5
			c-0.3974609,0.4580078-0.9394531,0.6875-1.6269531,0.6875c-0.6806641,0-1.2314453-0.2734375-1.6523438-0.8222656
			C76.7612686,113.9197617,76.5513077,113.1726913,76.5513077,112.2273788z M77.5503311,112.3396835
			c0,0.65625,0.1337891,1.1708984,0.4033203,1.5449219c0.2675781,0.3740234,0.6445312,0.5605469,1.1269531,0.5605469
			c0.6269531,0,1.0869141-0.2841797,1.3808594-0.8535156v-2.6533203c-0.3046875-0.5546875-0.7607422-0.8330078-1.3691406-0.8330078
			c-0.484375,0-0.8613281,0.1884766-1.1337891,0.5644531S77.5503311,111.6023788,77.5503311,112.3396835z"/>
		<path class="st1" d="M82.6958389,112.222496c0-0.5703125,0.1123047-1.0820312,0.3359375-1.5371094
			c0.2236328-0.4541016,0.5351562-0.8046875,0.9345703-1.0527344c0.3994141-0.2460938,0.8554688-0.3701172,1.3671875-0.3701172
			c0.7910156,0,1.4316406,0.2744141,1.9199219,0.8212891c0.4892578,0.5488281,0.7333984,1.2773438,0.7333984,2.1865234v0.0693359
			c0,0.5664062-0.1083984,1.0742188-0.3251953,1.5234375s-0.5263672,0.7988281-0.9287109,1.0498047
			c-0.4033203,0.2509766-0.8662109,0.3759766-1.3886719,0.3759766c-0.7880859,0-1.4257812-0.2734375-1.9150391-0.8222656
			c-0.4882812-0.546875-0.7333984-1.2724609-0.7333984-2.1748047V112.222496z M83.6958389,112.3396835
			c0,0.6445312,0.1494141,1.1621094,0.4482422,1.5527344s0.6992188,0.5859375,1.2001953,0.5859375
			c0.5048828,0,0.90625-0.1982422,1.203125-0.59375s0.4453125-0.9501953,0.4453125-1.6621094
			c0-0.6376953-0.1503906-1.1542969-0.453125-1.5498047s-0.7050781-0.59375-1.2060547-0.59375
			c-0.4902344,0-0.8857422,0.1953125-1.1865234,0.5849609C83.8462296,111.0545273,83.6958389,111.613121,83.6958389,112.3396835z"/>
		<path class="st1" d="M93.3032608,107.9627304v1.4072266h1.0859375v0.7685547h-1.0859375v3.6083984
			c0,0.2324219,0.0488281,0.4072266,0.1455078,0.5244141c0.0966797,0.1162109,0.2617188,0.1738281,0.4941406,0.1738281
			c0.1142578,0,0.2724609-0.0214844,0.4726562-0.0644531v0.8017578c-0.2617188,0.0712891-0.515625,0.1064453-0.7626953,0.1064453
			c-0.4443359,0-0.7792969-0.1347656-1.0039062-0.4023438c-0.2265625-0.2695312-0.3388672-0.6503906-0.3388672-1.1445312v-3.6035156
			h-1.0576172v-0.7685547h1.0576172v-1.4072266H93.3032608z"/>
		<path class="st1" d="M95.1782608,112.222496c0-0.5703125,0.1123047-1.0820312,0.3359375-1.5371094
			c0.2236328-0.4541016,0.5351562-0.8046875,0.9345703-1.0527344c0.3994141-0.2460938,0.8554688-0.3701172,1.3671875-0.3701172
			c0.7910156,0,1.4316406,0.2744141,1.9199219,0.8212891c0.4892578,0.5488281,0.7333984,1.2773438,0.7333984,2.1865234v0.0693359
			c0,0.5664062-0.1083984,1.0742188-0.3251953,1.5234375s-0.5263672,0.7988281-0.9287109,1.0498047
			c-0.4033203,0.2509766-0.8662109,0.3759766-1.3886719,0.3759766c-0.7880859,0-1.4257812-0.2734375-1.9150391-0.8222656
			c-0.4882812-0.546875-0.7333984-1.2724609-0.7333984-2.1748047V112.222496z M96.1782608,112.3396835
			c0,0.6445312,0.1494141,1.1621094,0.4482422,1.5527344s0.6992188,0.5859375,1.2001953,0.5859375
			c0.5048828,0,0.90625-0.1982422,1.203125-0.59375s0.4453125-0.9501953,0.4453125-1.6621094
			c0-0.6376953-0.1503906-1.1542969-0.453125-1.5498047s-0.7050781-0.59375-1.2060547-0.59375
			c-0.4902344,0-0.8857422,0.1953125-1.1865234,0.5849609C96.3286514,111.0545273,96.1782608,111.613121,96.1782608,112.3396835z"/>
		<path class="st1" d="M109.3472061,112.3396835c0,0.8847656-0.2021484,1.5976562-0.6064453,2.1386719
			c-0.4052734,0.5400391-0.953125,0.8105469-1.6445312,0.8105469c-0.7050781,0-1.2597656-0.2236328-1.6640625-0.671875v2.7988281
			h-0.9941406v-8.0458984h0.9082031l0.0478516,0.6445312c0.4042969-0.5009766,0.9667969-0.7519531,1.6865234-0.7519531
			c0.6982422,0,1.2509766,0.2626953,1.6572266,0.7900391c0.40625,0.5253906,0.609375,1.2578125,0.609375,2.1962891V112.3396835z
			 M108.3540421,112.2273788c0-0.6552734-0.140625-1.1728516-0.4199219-1.5517578
			c-0.2792969-0.3798828-0.6621094-0.5703125-1.1484375-0.5703125c-0.6015625,0-1.0527344,0.2675781-1.3535156,0.8007812v2.7773438
			c0.296875,0.5292969,0.7519531,0.7949219,1.3632812,0.7949219c0.4765625,0,0.8554688-0.1894531,1.1367188-0.5673828
			S108.3540421,112.972496,108.3540421,112.2273788z"/>
		<path class="st1" d="M111.6899796,115.1814804h-0.9941406v-8.25h0.9941406V115.1814804z"/>
		<path class="st1" d="M116.8677139,115.1814804c-0.0576172-0.1142578-0.1035156-0.3183594-0.1396484-0.6123047
			c-0.4619141,0.4794922-1.0136719,0.7197266-1.6542969,0.7197266c-0.5732422,0-1.0429688-0.1621094-1.4101562-0.4863281
			s-0.5498047-0.734375-0.5498047-1.2324219c0-0.6054688,0.2294922-1.0751953,0.6894531-1.4101562
			s1.1074219-0.5019531,1.9414062-0.5019531h0.9667969v-0.4570312c0-0.3466797-0.1035156-0.6230469-0.3105469-0.8291016
			c-0.2080078-0.2060547-0.5146484-0.3095703-0.9189453-0.3095703c-0.3544922,0-0.6513672,0.0898438-0.8916016,0.2695312
			c-0.2402344,0.1787109-0.359375,0.3955078-0.359375,0.6494141h-1c0-0.2900391,0.1035156-0.5703125,0.3095703-0.8408203
			s0.4853516-0.484375,0.8378906-0.6416016s0.7402344-0.2363281,1.1630859-0.2363281
			c0.6689453,0,1.1933594,0.1669922,1.5732422,0.5019531s0.5761719,0.7958984,0.5908203,1.3837891v2.6738281
			c0,0.5341797,0.0683594,0.9580078,0.2041016,1.2734375v0.0859375H116.8677139z M115.2192764,114.4236679
			c0.3105469,0,0.6064453-0.0800781,0.8857422-0.2412109s0.4814453-0.3701172,0.6064453-0.6279297v-1.1933594h-0.7783203
			c-1.2177734,0-1.8261719,0.3564453-1.8261719,1.0693359c0,0.3115234,0.1035156,0.5546875,0.3115234,0.7304688
			S114.8931046,114.4236679,115.2192764,114.4236679z"/>
		<path class="st1" d="M120.6099014,107.9627304v1.4072266h1.0859375v0.7685547h-1.0859375v3.6083984
			c0,0.2324219,0.0488281,0.4072266,0.1455078,0.5244141c0.0966797,0.1162109,0.2617188,0.1738281,0.4941406,0.1738281
			c0.1142578,0,0.2724609-0.0214844,0.4726562-0.0644531v0.8017578c-0.2617188,0.0712891-0.515625,0.1064453-0.7626953,0.1064453
			c-0.4443359,0-0.7792969-0.1347656-1.0039062-0.4023438c-0.2265625-0.2695312-0.3388672-0.6503906-0.3388672-1.1445312v-3.6035156
			h-1.0576172v-0.7685547h1.0576172v-1.4072266H120.6099014z"/>
		<path class="st1" d="M123.3442764,115.1814804v-5.0429688h-0.9179688v-0.7685547h0.9179688v-0.5966797
			c0-0.6230469,0.1669922-1.1044922,0.5-1.4443359s0.8037109-0.5107422,1.4121094-0.5107422
			c0.2294922,0,0.4570312,0.03125,0.6826172,0.0908203l-0.0537109,0.8017578
			c-0.1679688-0.0332031-0.3476562-0.0488281-0.5371094-0.0488281c-0.3222656,0-0.5712891,0.0947266-0.7460938,0.2832031
			c-0.1757812,0.1884766-0.2636719,0.4589844-0.2636719,0.8105469v0.6142578h1.2402344v0.7685547h-1.2402344v5.0429688H123.3442764z
			"/>
		<path class="st1" d="M126.4106827,112.222496c0-0.5703125,0.1123047-1.0820312,0.3359375-1.5371094
			c0.2236328-0.4541016,0.5351562-0.8046875,0.9345703-1.0527344c0.3994064-0.2460938,0.8554611-0.3701172,1.3671799-0.3701172
			c0.7910156,0,1.4316406,0.2744141,1.9199219,0.8212891c0.4892578,0.5488281,0.7333984,1.2773438,0.7333984,2.1865234v0.0693359
			c0,0.5664062-0.1083984,1.0742188-0.3251953,1.5234375s-0.5263672,0.7988281-0.9287109,1.0498047
			c-0.4033203,0.2509766-0.8662109,0.3759766-1.3886719,0.3759766c-0.7880859,0-1.4257736-0.2734375-1.9150314-0.8222656
			c-0.4882812-0.546875-0.7333984-1.2724609-0.7333984-2.1748047V112.222496z M127.4106827,112.3396835
			c0,0.6445312,0.1494141,1.1621094,0.4482422,1.5527344c0.2988205,0.390625,0.6992111,0.5859375,1.2001877,0.5859375
			c0.5048828,0,0.90625-0.1982422,1.203125-0.59375s0.4453125-0.9501953,0.4453125-1.6621094
			c0-0.6376953-0.1503906-1.1542969-0.453125-1.5498047s-0.7050781-0.59375-1.2060547-0.59375
			c-0.4902344,0-0.8857422,0.1953125-1.1865158,0.5849609C127.5610733,111.0545273,127.4106827,111.613121,127.4106827,112.3396835z
			"/>
		<path class="st1" d="M135.7563782,110.2615585c-0.1503906-0.0253906-0.3125-0.0371094-0.4882812-0.0371094
			c-0.6513672,0-1.09375,0.2773438-1.3261719,0.8320312v4.125h-0.9941406v-5.8115234h0.9667969l0.015625,0.6708984
			c0.3261719-0.5185547,0.7880859-0.7783203,1.3867188-0.7783203c0.1933594,0,0.3398438,0.0253906,0.4394531,0.0751953V110.2615585z
			"/>
		<path class="st1" d="M137.605011,109.369957l0.0263672,0.6445312c0.4267578-0.5009766,1.0009766-0.7519531,1.7246094-0.7519531
			c0.8125,0,1.3662109,0.3115234,1.6601562,0.9345703c0.1933594-0.2792969,0.4443359-0.5048828,0.7539062-0.6767578
			s0.6757812-0.2578125,1.0986328-0.2578125c1.2744141,0,1.9228516,0.6748047,1.9443359,2.0244141v3.8945312h-0.9941406v-3.8349609
			c0-0.4150391-0.0947266-0.7255859-0.2841797-0.9316406s-0.5087891-0.3095703-0.9560547-0.3095703
			c-0.3691406,0-0.6748047,0.1103516-0.9179688,0.3310547c-0.2441406,0.2197266-0.3857422,0.5166016-0.4248047,0.8886719v3.8564453
			h-0.9990234v-3.8085938c0-0.8447266-0.4140625-1.2675781-1.2402344-1.2675781
			c-0.6523438,0-1.0976562,0.2783203-1.3378906,0.8330078v4.2431641h-0.9941406v-5.8115234H137.605011z"/>
		<path class="st1" d="M24.7046261,125.7547226h1.0849609v0.8115234h-1.0849609v1.8154221h-0.9990234v-1.8154221h-3.5605469
			v-0.5849609l3.5019531-5.4199219h1.0576172V125.7547226z M21.2720089,125.7547226h2.4335938v-3.8339844l-0.1181641,0.2148438
			L21.2720089,125.7547226z"/>
		<path class="st1" d="M33.100132,128.3816681c-0.0576172-0.1142578-0.1035156-0.3183594-0.1396484-0.6122971
			c-0.4619141,0.4794846-1.01367,0.7197189-1.654295,0.7197189c-0.5732422,0-1.0429688-0.1621094-1.4101562-0.4863281
			c-0.3671875-0.3242111-0.5498047-0.7343674-0.5498047-1.2324142c0-0.6054688,0.2294922-1.0751953,0.6894531-1.4101562
			s1.1074219-0.5019531,1.9414062-0.5019531h0.966795v-0.4570312c0-0.3466797-0.1035156-0.6230469-0.3105469-0.8291016
			c-0.2080078-0.2060547-0.5146484-0.3095703-0.9189434-0.3095703c-0.3544922,0-0.6513672,0.0898438-0.8916016,0.2695312
			c-0.2402344,0.1787109-0.359375,0.3955078-0.359375,0.6494141h-1c0-0.2900391,0.1035156-0.5703125,0.3095703-0.8408203
			s0.4853516-0.484375,0.8378906-0.6416016s0.7402344-0.2363281,1.1630859-0.2363281
			c0.6689434,0,1.1933575,0.1669922,1.5732403,0.5019531s0.5761719,0.7958984,0.5908203,1.3837891v2.6738281
			c0,0.5341797,0.0683594,0.9580078,0.2041016,1.2734299v0.0859375H33.100132z M31.4516964,127.6238632
			c0.3105469,0,0.6064434-0.0800781,0.8857403-0.2412109s0.4814453-0.3701172,0.6064453-0.6279297v-1.1933594h-0.7783203
			c-1.2177715,0-1.82617,0.3564453-1.82617,1.0693359c0,0.3115234,0.1035156,0.5546875,0.3115234,0.7304688
			S31.1255245,127.6238632,31.4516964,127.6238632z"/>
		<path class="st1" d="M36.4341164,122.5701523l0.0332031,0.7304688c0.4433594-0.5585938,1.0234375-0.8378906,1.7402344-0.8378906
			c1.2275391,0,1.8476562,0.6923828,1.8574219,2.0791016v3.8398361h-0.9931641v-3.8456955
			c-0.0039062-0.4189453-0.0996094-0.7285156-0.2871094-0.9296875c-0.1884766-0.2001953-0.4814453-0.3007812-0.8779297-0.3007812
			c-0.3222656,0-0.6054688,0.0859375-0.8496094,0.2578125c-0.2431641,0.171875-0.4326172,0.3984375-0.5683594,0.6777344v4.1406174
			h-0.9941406v-5.8115158H36.4341164z"/>
		<path class="st1" d="M41.3227882,125.4275742c0-0.8916016,0.2119141-1.6083984,0.6347656-2.1513672
			c0.421875-0.5419922,0.9755859-0.8134766,1.6591797-0.8134766c0.6806641,0,1.2197266,0.2324219,1.6162109,0.6982422v-3.0292969
			h0.9941406v8.2499924h-0.9130859l-0.0478516-0.6230392c-0.3984375,0.4872971-0.9511719,0.7304611-1.6601562,0.7304611
			c-0.6728516,0-1.2216797-0.2753906-1.6464844-0.8271408c-0.4238281-0.5517578-0.6367188-1.2714844-0.6367188-2.1591797
			V125.4275742z M42.3169289,125.5398788c0,0.6591797,0.1357422,1.1748047,0.4082031,1.546875
			c0.2724609,0.3730469,0.6484375,0.5585938,1.1279297,0.5585938c0.6298828,0,1.0908203-0.2822266,1.3798828-0.8476562v-2.6699219
			c-0.296875-0.5478516-0.7529297-0.8222656-1.3691406-0.8222656c-0.4873047,0-0.8662109,0.1884766-1.1386719,0.5644531
			S42.3169289,124.8025742,42.3169289,125.5398788z"/>
		<path class="st1" d="M52.8218117,127.6785507c0.3544922,0,0.6640625-0.1074219,0.9287109-0.3222656
			c0.265625-0.2148438,0.4121094-0.484375,0.4414062-0.8066406h0.9394531
			c-0.0175781,0.3339844-0.1328125,0.6503906-0.34375,0.9511719s-0.4931641,0.541008-0.8457031,0.7197189
			s-0.7265625,0.2685547-1.1201172,0.2685547c-0.7910156,0-1.4208984-0.2636719-1.8876953-0.7919846
			c-0.4677734-0.5283203-0.7011719-1.2509766-0.7011719-2.1669922v-0.1669922c0-0.5654297,0.1035156-1.0693359,0.3115234-1.5087891
			c0.2080078-0.4414062,0.5058594-0.7832031,0.8945312-1.0263672s0.8476562-0.3652344,1.3779297-0.3652344
			c0.6513672,0,1.1923828,0.1953125,1.6240234,0.5849609c0.4316406,0.390625,0.6621094,0.8974609,0.6904297,1.5205078h-0.9394531
			c-0.0292969-0.3759766-0.171875-0.6845703-0.4277344-0.9267578c-0.2558594-0.2412109-0.5722656-0.3623047-0.9472656-0.3623047
			c-0.5058594,0-0.8964844,0.1816406-1.1738281,0.5449219s-0.4160156,0.8896484-0.4160156,1.5771484v0.1875
			c0,0.6699219,0.1376953,1.1855469,0.4130859,1.546875S52.3100929,127.6785507,52.8218117,127.6785507z"/>
		<path class="st1" d="M59.8364601,128.3816681c-0.0576172-0.1142578-0.1035156-0.3183594-0.1396484-0.6122971
			c-0.4619141,0.4794846-1.0136719,0.7197189-1.6542969,0.7197189c-0.5732422,0-1.0429688-0.1621094-1.4101562-0.4863281
			c-0.3671875-0.3242111-0.5498047-0.7343674-0.5498047-1.2324142c0-0.6054688,0.2294922-1.0751953,0.6894531-1.4101562
			s1.1074219-0.5019531,1.9414062-0.5019531h0.9667969v-0.4570312c0-0.3466797-0.1035156-0.6230469-0.3105469-0.8291016
			c-0.2080078-0.2060547-0.5146484-0.3095703-0.9189453-0.3095703c-0.3544922,0-0.6513672,0.0898438-0.8916016,0.2695312
			c-0.2402344,0.1787109-0.359375,0.3955078-0.359375,0.6494141h-1c0-0.2900391,0.1035156-0.5703125,0.3095703-0.8408203
			s0.4853516-0.484375,0.8378906-0.6416016s0.7402344-0.2363281,1.1630859-0.2363281
			c0.6689453,0,1.1933594,0.1669922,1.5732422,0.5019531s0.5761719,0.7958984,0.5908203,1.3837891v2.6738281
			c0,0.5341797,0.0683594,0.9580078,0.2041016,1.2734299v0.0859375H59.8364601z M58.1880226,127.6238632
			c0.3105469,0,0.6064453-0.0800781,0.8857422-0.2412109s0.4814453-0.3701172,0.6064453-0.6279297v-1.1933594h-0.7783203
			c-1.2177734,0-1.8261719,0.3564453-1.8261719,1.0693359c0,0.3115234,0.1035156,0.5546875,0.3115234,0.7304688
			S57.8618507,127.6238632,58.1880226,127.6238632z"/>
		<path class="st1" d="M63.5806007,121.1629257v1.4072266h1.0859413v0.7685547h-1.0859413v3.6083984
			c0,0.2324219,0.0488281,0.4072266,0.1455078,0.5244141c0.0966797,0.1162109,0.2617188,0.1738281,0.4941444,0.1738281
			c0.1142578,0,0.2724609-0.0214844,0.4726562-0.0644531v0.8017502c-0.2617188,0.0712891-0.515625,0.1064453-0.7626991,0.1064453
			c-0.4443359,0-0.7792969-0.1347656-1.0039062-0.4023438c-0.2265625-0.2695236-0.3388672-0.650383-0.3388672-1.1445236v-3.6035156
			h-1.0576172v-0.7685547h1.0576172v-1.4072266H63.5806007z"/>
		<path class="st1" d="M68.1567764,127.6785507c0.3544922,0,0.6640625-0.1074219,0.9287109-0.3222656
			c0.265625-0.2148438,0.4121094-0.484375,0.4414062-0.8066406h0.9394531
			c-0.0175781,0.3339844-0.1328125,0.6503906-0.34375,0.9511719s-0.4931641,0.541008-0.8457031,0.7197189
			s-0.7265625,0.2685547-1.1201172,0.2685547c-0.7910156,0-1.4208984-0.2636719-1.8876953-0.7919846
			c-0.4677734-0.5283203-0.7011719-1.2509766-0.7011719-2.1669922v-0.1669922c0-0.5654297,0.1035156-1.0693359,0.3115234-1.5087891
			c0.2080078-0.4414062,0.5058594-0.7832031,0.8945312-1.0263672s0.8476562-0.3652344,1.3779297-0.3652344
			c0.6513672,0,1.1923828,0.1953125,1.6240234,0.5849609c0.4316406,0.390625,0.6621094,0.8974609,0.6904297,1.5205078h-0.9394531
			c-0.0292969-0.3759766-0.171875-0.6845703-0.4277344-0.9267578c-0.2558594-0.2412109-0.5722656-0.3623047-0.9472656-0.3623047
			c-0.5058594,0-0.8964844,0.1816406-1.1738281,0.5449219s-0.4160156,0.8896484-0.4160156,1.5771484v0.1875
			c0,0.6699219,0.1376953,1.1855469,0.4130859,1.546875S67.6450577,127.6785507,68.1567764,127.6785507z"/>
		<path class="st1" d="M72.5776749,123.2742538c0.4394531-0.5410156,1.0126953-0.8115234,1.71875-0.8115234
			c1.2275391,0,1.8476562,0.6923828,1.8574219,2.0791016v3.8398361h-0.9931641v-3.8456955
			c-0.0039062-0.4189453-0.0996094-0.7285156-0.2871094-0.9296875c-0.1884766-0.2001953-0.4814453-0.3007812-0.8779297-0.3007812
			c-0.3222656,0-0.6054688,0.0859375-0.8496094,0.2578125c-0.2431641,0.171875-0.4326172,0.3984375-0.5683594,0.6777344v4.1406174
			h-0.9941406v-8.2499924h0.9941406V123.2742538z"/>
		<path class="st1" d="M81.7134171,121.1629257v1.4072266h1.0859375v0.7685547h-1.0859375v3.6083984
			c0,0.2324219,0.0488281,0.4072266,0.1455078,0.5244141c0.0966797,0.1162109,0.2617188,0.1738281,0.4941406,0.1738281
			c0.1142578,0,0.2724609-0.0214844,0.4726562-0.0644531v0.8017502c-0.2617188,0.0712891-0.515625,0.1064453-0.7626953,0.1064453
			c-0.4443359,0-0.7792969-0.1347656-1.0039062-0.4023438c-0.2265625-0.2695236-0.3388672-0.650383-0.3388672-1.1445236v-3.6035156
			h-1.0576172v-0.7685547h1.0576172v-1.4072266H81.7134171z"/>
		<path class="st1" d="M84.9526749,123.2742538c0.4394531-0.5410156,1.0126953-0.8115234,1.71875-0.8115234
			c1.2275391,0,1.8476562,0.6923828,1.8574219,2.0791016v3.8398361h-0.9931641v-3.8456955
			c-0.0039062-0.4189453-0.0996094-0.7285156-0.2871094-0.9296875c-0.1884766-0.2001953-0.4814453-0.3007812-0.8779297-0.3007812
			c-0.3222656,0-0.6054688,0.0859375-0.8496094,0.2578125c-0.2431641,0.171875-0.4326172,0.3984375-0.5683594,0.6777344v4.1406174
			h-0.9941406v-8.2499924h0.9941406V123.2742538z"/>
		<path class="st1" d="M92.4292374,128.48909c-0.7880859,0-1.4296875-0.2587891-1.9238281-0.7763596
			c-0.4941406-0.5175781-0.7402344-1.2089844-0.7402344-2.0751953v-0.1835938c0-0.5761719,0.109375-1.0908203,0.3300781-1.5439453
			c0.2197266-0.453125,0.5283203-0.8076172,0.9238281-1.0634766s0.8242188-0.3837891,1.2861328-0.3837891
			c0.7558594,0,1.3427734,0.2490234,1.7617188,0.7470703c0.4189453,0.4970703,0.6279297,1.2099609,0.6279297,2.1367188v0.4140625
			h-3.9365234c0.0146484,0.5732422,0.1816406,1.0361328,0.5019531,1.3886719s0.7275391,0.5292969,1.2216797,0.5292969
			c0.3515625,0,0.6484375-0.0722656,0.8925781-0.2148438c0.2431641-0.1435547,0.4560547-0.3339844,0.6386719-0.5703125
			l0.6074219,0.4726562C94.1333389,128.1150665,93.4028702,128.48909,92.4292374,128.48909z M92.3052139,123.2791367
			c-0.4013672,0-0.7373047,0.1455078-1.0097656,0.4375s-0.4404297,0.7011719-0.5048828,1.2275391h2.9111328v-0.0751953
			c-0.0283203-0.5048828-0.1650391-0.8964844-0.4082031-1.1738281S92.720253,123.2791367,92.3052139,123.2791367z"/>
		<path class="st1" d="M99.5073624,122.5701523l0.0332031,0.7304688c0.4433594-0.5585938,1.0234375-0.8378906,1.7402344-0.8378906
			c1.2275391,0,1.8476562,0.6923828,1.8574219,2.0791016v3.8398361h-0.9931641v-3.8456955
			c-0.0039062-0.4189453-0.0996094-0.7285156-0.2871094-0.9296875c-0.1884766-0.2001953-0.4814453-0.3007812-0.8779297-0.3007812
			c-0.3222656,0-0.6054688,0.0859375-0.8496094,0.2578125c-0.2431641,0.171875-0.4326172,0.3984375-0.5683594,0.6777344v4.1406174
			h-0.9941406v-5.8115158H99.5073624z"/>
		<path class="st1" d="M107.0493546,128.48909c-0.7880859,0-1.4296875-0.2587891-1.9238281-0.7763596
			c-0.4941406-0.5175781-0.7402344-1.2089844-0.7402344-2.0751953v-0.1835938c0-0.5761719,0.109375-1.0908203,0.3300781-1.5439453
			c0.2197266-0.453125,0.5283203-0.8076172,0.9238281-1.0634766s0.8242188-0.3837891,1.2861328-0.3837891
			c0.7558594,0,1.3427734,0.2490234,1.7617188,0.7470703c0.4189453,0.4970703,0.6279297,1.2099609,0.6279297,2.1367188v0.4140625
			h-3.9365234c0.0146484,0.5732422,0.1816406,1.0361328,0.5019531,1.3886719s0.7275391,0.5292969,1.2216797,0.5292969
			c0.3515625,0,0.6484375-0.0722656,0.8925781-0.2148438c0.2431641-0.1435547,0.4560547-0.3339844,0.6386719-0.5703125
			l0.6074219,0.4726562C108.7534561,128.1150665,108.0229874,128.48909,107.0493546,128.48909z M106.9253311,123.2791367
			c-0.4013672,0-0.7373047,0.1455078-1.0097656,0.4375s-0.4404297,0.7011719-0.5048828,1.2275391h2.9111328v-0.0751953
			c-0.0283203-0.5048828-0.1650391-0.8964844-0.4082031-1.1738281S107.3403702,123.2791367,106.9253311,123.2791367z"/>
		<path class="st1" d="M112.4145889,124.6922226l1.2890625-2.1220703h1.1601562l-1.9003906,2.8740234l1.9599609,2.9374924
			h-1.1494141l-1.3427734-2.1757736l-1.3427734,2.1757736h-1.1542969l1.9599609-2.9374924l-1.9013672-2.8740234h1.1494141
			L112.4145889,124.6922226z"/>
		<path class="st1" d="M117.2641983,121.1629257v1.4072266h1.0859375v0.7685547h-1.0859375v3.6083984
			c0,0.2324219,0.0488281,0.4072266,0.1455078,0.5244141c0.0966797,0.1162109,0.2617188,0.1738281,0.4941406,0.1738281
			c0.1142578,0,0.2724609-0.0214844,0.4726562-0.0644531v0.8017502c-0.2617188,0.0712891-0.515625,0.1064453-0.7626953,0.1064453
			c-0.4443359,0-0.7792969-0.1347656-1.0039062-0.4023438c-0.2265625-0.2695236-0.3388672-0.650383-0.3388672-1.1445236v-3.6035156
			h-1.0576172v-0.7685547h1.0576172v-1.4072266H117.2641983z"/>
		<path class="st1" d="M123.5806046,121.1629257v1.4072266h1.0859375v0.7685547h-1.0859375v3.6083984
			c0,0.2324219,0.0488281,0.4072266,0.1455078,0.5244141c0.0966797,0.1162109,0.2617188,0.1738281,0.4941406,0.1738281
			c0.1142578,0,0.2724609-0.0214844,0.4726562-0.0644531v0.8017502c-0.2617188,0.0712891-0.515625,0.1064453-0.7626953,0.1064453
			c-0.4443359,0-0.7792969-0.1347656-1.0039062-0.4023438c-0.2265625-0.2695236-0.3388672-0.650383-0.3388672-1.1445236v-3.6035156
			h-1.0576172v-0.7685547h1.0576172v-1.4072266H123.5806046z"/>
		<path class="st1" d="M128.6352844,123.4617538c-0.1503906-0.0253906-0.3125-0.0371094-0.4882812-0.0371094
			c-0.6513596,0-1.0937424,0.2773438-1.3261642,0.8320312v4.1249924h-0.9941406v-5.8115158h0.9667969l0.015625,0.6708984
			c0.3261719-0.5185547,0.7880859-0.7783203,1.3867111-0.7783203c0.1933594,0,0.3398438,0.0253906,0.4394531,0.0751953V123.4617538z
			"/>
		<path class="st1" d="M132.9214172,128.3816681c-0.0576172-0.1142578-0.1035156-0.3183594-0.1396484-0.6122971
			c-0.4619141,0.4794846-1.0136719,0.7197189-1.6542969,0.7197189c-0.5732422,0-1.0429688-0.1621094-1.4101562-0.4863281
			c-0.3671875-0.3242111-0.5498047-0.7343674-0.5498047-1.2324142c0-0.6054688,0.2294922-1.0751953,0.6894531-1.4101562
			s1.1074219-0.5019531,1.9414062-0.5019531h0.9667969v-0.4570312c0-0.3466797-0.1035156-0.6230469-0.3105469-0.8291016
			c-0.2080078-0.2060547-0.5146484-0.3095703-0.9189453-0.3095703c-0.3544922,0-0.6513672,0.0898438-0.8916016,0.2695312
			c-0.2402344,0.1787109-0.359375,0.3955078-0.359375,0.6494141h-1c0-0.2900391,0.1035156-0.5703125,0.3095703-0.8408203
			s0.4853516-0.484375,0.8378906-0.6416016s0.7402344-0.2363281,1.1630859-0.2363281
			c0.6689453,0,1.1933594,0.1669922,1.5732422,0.5019531s0.5761719,0.7958984,0.5908203,1.3837891v2.6738281
			c0,0.5341797,0.0683594,0.9580078,0.2041016,1.2734299v0.0859375H132.9214172z M131.2729797,127.6238632
			c0.3105469,0,0.6064453-0.0800781,0.8857422-0.2412109s0.4814453-0.3701172,0.6064453-0.6279297v-1.1933594h-0.7783203
			c-1.2177734,0-1.8261719,0.3564453-1.8261719,1.0693359c0,0.3115234,0.1035156,0.5546875,0.3115234,0.7304688
			S130.9468079,127.6238632,131.2729797,127.6238632z"/>
		<path class="st1" d="M135.3227844,121.0281601c0-0.1601562,0.0488281-0.296875,0.1474609-0.4082031
			c0.0986328-0.1103516,0.2441406-0.1660156,0.4375-0.1660156s0.3398438,0.0556641,0.4404297,0.1660156
			c0.1005859,0.1113281,0.1503906,0.2480469,0.1503906,0.4082031c0,0.1621094-0.0498047,0.2958984-0.1503906,0.4033203
			s-0.2470703,0.1611328-0.4404297,0.1611328s-0.3388672-0.0537109-0.4375-0.1611328
			S135.3227844,121.1902695,135.3227844,121.0281601z M136.3970032,128.3816681h-0.9941406v-5.8115158h0.9941406V128.3816681z"/>
		<path class="st1" d="M138.9263,122.5701523l0.0332031,0.7304688c0.4433594-0.5585938,1.0234375-0.8378906,1.7402344-0.8378906
			c1.2275391,0,1.8476562,0.6923828,1.8574219,2.0791016v3.8398361h-0.9931641v-3.8456955
			c-0.0039062-0.4189453-0.0996094-0.7285156-0.2871094-0.9296875c-0.1884766-0.2001953-0.4814453-0.3007812-0.8779297-0.3007812
			c-0.3222656,0-0.6054688,0.0859375-0.8496094,0.2578125c-0.2431641,0.171875-0.4326172,0.3984375-0.5683594,0.6777344v4.1406174
			h-0.9941406v-5.8115158H138.9263z"/>
	</g>
	<path class="st2" d="M147.7782288,230.0902405H29.5820141c-6.5056992,0-11.7796097-3.7641296-11.7796097-8.4074249v-14.9565735
		c0-4.6432953,5.2739105-8.4074402,11.7796097-8.4074402h118.1962128c6.5057068,0,11.7796173,3.7641449,11.7796173,8.4074402
		v14.9565735c0,2.8314972-1.9611511,5.3360596-4.9668579,6.8595123
		C152.6677094,229.5171356,150.3167419,230.0902405,147.7782288,230.0902405z"/>
	<path class="st2" d="M156.8457184,226.2605133c5.4155273-12.5013428-0.0302734-8.4300537,5.5981445,8.6722412
		c0,0-8.0496368-6.1051331-19.583374-5.342514"/>
	<g>
		<path class="st1" d="M46.4761086,217.5691681h-1.0371094v-3.6152344h-3.9414062v3.6152344h-1.03125v-7.8203125h1.03125v3.3613281
			h3.9414062v-3.3613281h1.0371094V217.5691681z"/>
		<path class="st1" d="M51.7397804,217.5691681c-0.0576172-0.1152344-0.1035156-0.3183594-0.1396484-0.6132812
			c-0.4619141,0.4804688-1.0136719,0.7207031-1.6542969,0.7207031c-0.5732422,0-1.0429688-0.1621094-1.4101562-0.4863281
			s-0.5498047-0.734375-0.5498047-1.2324219c0-0.6054688,0.2294922-1.0761719,0.6894531-1.4101562
			c0.4599609-0.3359375,1.1074219-0.5019531,1.9414062-0.5019531h0.9667969v-0.4570312
			c0-0.3476562-0.1035156-0.6230469-0.3105469-0.8300781c-0.2080078-0.2050781-0.5146484-0.3085938-0.9189453-0.3085938
			c-0.3544922,0-0.6513672,0.0898438-0.8916016,0.2695312c-0.2402344,0.1777344-0.359375,0.3945312-0.359375,0.6484375h-1
			c0-0.2890625,0.1035156-0.5703125,0.3095703-0.8398438c0.2060547-0.2714844,0.4853516-0.484375,0.8378906-0.6425781
			c0.3525391-0.15625,0.7402344-0.2363281,1.1630859-0.2363281c0.6689453,0,1.1933594,0.1679688,1.5732422,0.5019531
			c0.3798828,0.3359375,0.5761719,0.796875,0.5908203,1.3847656v2.6738281c0,0.5332031,0.0683594,0.9570312,0.2041016,1.2734375
			v0.0859375H51.7397804z M50.0913429,216.8113556c0.3105469,0,0.6064453-0.0800781,0.8857422-0.2421875
			c0.2792969-0.1601562,0.4814453-0.3691406,0.6064453-0.6269531v-1.1933594h-0.7783203
			c-1.2177734,0-1.8261719,0.3554688-1.8261719,1.0683594c0,0.3125,0.1035156,0.5546875,0.3115234,0.7304688
			S49.7651711,216.8113556,50.0913429,216.8113556z"/>
		<path class="st1" d="M55.9731789,216.2215118l1.4394531-4.4648438h1.0146484l-2.0839844,5.8125h-0.7568359l-2.1054688-5.8125
			h1.0146484L55.9731789,216.2215118z"/>
		<path class="st1" d="M61.725132,217.67659c-0.7880859,0-1.4296875-0.2597656-1.9238281-0.7773438
			s-0.7402344-1.2089844-0.7402344-2.0742188v-0.1835938c0-0.5761719,0.109375-1.0917969,0.3300781-1.5449219
			c0.2197266-0.453125,0.5283203-0.8066406,0.9238281-1.0625s0.8242188-0.3847656,1.2861328-0.3847656
			c0.7558594,0,1.3427734,0.25,1.7617188,0.7480469c0.4189453,0.4960938,0.6279297,1.2089844,0.6279297,2.1367188v0.4140625
			h-3.9365234c0.0146484,0.5722656,0.1816406,1.0351562,0.5019531,1.3886719
			c0.3203125,0.3515625,0.7275391,0.5292969,1.2216797,0.5292969c0.3515625,0,0.6484375-0.0722656,0.8925781-0.2148438
			c0.2431641-0.1445312,0.4560547-0.3339844,0.6386719-0.5703125l0.6074219,0.4726562
			C63.4292336,217.30159,62.6987648,217.67659,61.725132,217.67659z M61.6011086,212.4656525
			c-0.4013672,0-0.7373047,0.1464844-1.0097656,0.4375c-0.2724609,0.2929688-0.4404297,0.7011719-0.5048828,1.2285156h2.9111328
			v-0.0761719c-0.0283203-0.5039062-0.1650391-0.8964844-0.4082031-1.1738281S62.0161476,212.4656525,61.6011086,212.4656525z"/>
		<path class="st1" d="M71.4516983,217.5691681c-0.0576172-0.1152344-0.1035156-0.3183594-0.1396484-0.6132812
			c-0.4619141,0.4804688-1.0136719,0.7207031-1.6542969,0.7207031c-0.5732422,0-1.0429688-0.1621094-1.4101562-0.4863281
			s-0.5498047-0.734375-0.5498047-1.2324219c0-0.6054688,0.2294922-1.0761719,0.6894531-1.4101562
			c0.4599609-0.3359375,1.1074219-0.5019531,1.9414062-0.5019531h0.9667969v-0.4570312
			c0-0.3476562-0.1035156-0.6230469-0.3105469-0.8300781c-0.2080078-0.2050781-0.5146484-0.3085938-0.9189453-0.3085938
			c-0.3544922,0-0.6513672,0.0898438-0.8916016,0.2695312c-0.2402344,0.1777344-0.359375,0.3945312-0.359375,0.6484375h-1
			c0-0.2890625,0.1035156-0.5703125,0.3095703-0.8398438c0.2060547-0.2714844,0.4853516-0.484375,0.8378906-0.6425781
			c0.3525391-0.15625,0.7402344-0.2363281,1.1630859-0.2363281c0.6689453,0,1.1933594,0.1679688,1.5732422,0.5019531
			c0.3798828,0.3359375,0.5761719,0.796875,0.5908203,1.3847656v2.6738281c0,0.5332031,0.0683594,0.9570312,0.2041016,1.2734375
			v0.0859375H71.4516983z M69.8032608,216.8113556c0.3105469,0,0.6064453-0.0800781,0.8857422-0.2421875
			c0.2792969-0.1601562,0.4814453-0.3691406,0.6064453-0.6269531v-1.1933594H70.517128
			c-1.2177734,0-1.8261719,0.3554688-1.8261719,1.0683594c0,0.3125,0.1035156,0.5546875,0.3115234,0.7304688
			S69.4770889,216.8113556,69.8032608,216.8113556z"/>
		<path class="st1" d="M76.3345108,214.61409c0-0.90625,0.2089844-1.6269531,0.6289062-2.1621094
			c0.4179688-0.5351562,0.9736328-0.8027344,1.6640625-0.8027344c0.7089844,0,1.2626953,0.2519531,1.6601562,0.7519531
			l0.0488281-0.6445312h0.9072266v5.671875c0,0.7519531-0.2226562,1.3457031-0.6689453,1.7792969
			c-0.4453125,0.4316406-1.0449219,0.6484375-1.796875,0.6484375c-0.4179688,0-0.828125-0.0898438-1.2294922-0.2675781
			c-0.4013672-0.1796875-0.7070312-0.4238281-0.9189453-0.7363281l0.515625-0.5957031
			c0.4267578,0.5253906,0.9472656,0.7890625,1.5634766,0.7890625c0.4833984,0,0.8603516-0.1367188,1.1308594-0.4082031
			s0.4052734-0.6542969,0.4052734-1.1484375v-0.5c-0.3974609,0.4570312-0.9394531,0.6875-1.6269531,0.6875
			c-0.6806641,0-1.2314453-0.2734375-1.6523438-0.8222656C76.5444717,216.3074493,76.3345108,215.5594025,76.3345108,214.61409z
			 M77.3335342,214.7273712c0,0.65625,0.1337891,1.1699219,0.4033203,1.5449219
			c0.2675781,0.3730469,0.6445312,0.5605469,1.1269531,0.5605469c0.6269531,0,1.0869141-0.2851562,1.3808594-0.8535156v-2.6542969
			c-0.3046875-0.5546875-0.7607422-0.8320312-1.3691406-0.8320312c-0.484375,0-0.8613281,0.1875-1.1337891,0.5644531
			C77.4692764,213.4324493,77.3335342,213.98909,77.3335342,214.7273712z"/>
		<path class="st1" d="M82.4780655,214.6101837c0-0.5703125,0.1123047-1.0820312,0.3359375-1.5371094
			s0.5351562-0.8046875,0.9345703-1.0527344c0.3994141-0.2460938,0.8554688-0.3710938,1.3671875-0.3710938
			c0.7910156,0,1.4316406,0.2753906,1.9199219,0.8222656c0.4892578,0.5488281,0.7333984,1.2773438,0.7333984,2.1855469v0.0703125
			c0,0.5664062-0.1083984,1.0742188-0.3251953,1.5234375s-0.5263672,0.7988281-0.9287109,1.0488281
			c-0.4033203,0.2519531-0.8662109,0.3769531-1.3886719,0.3769531c-0.7880859,0-1.4257812-0.2734375-1.9150391-0.8222656
			c-0.4882812-0.546875-0.7333984-1.2734375-0.7333984-2.1757812V214.6101837z M83.4780655,214.7273712
			c0,0.6445312,0.1494141,1.1621094,0.4482422,1.5527344s0.6992188,0.5859375,1.2001953,0.5859375
			c0.5048828,0,0.90625-0.1992188,1.203125-0.59375c0.296875-0.3964844,0.4453125-0.9511719,0.4453125-1.6621094
			c0-0.6386719-0.1503906-1.1542969-0.453125-1.5507812c-0.3027344-0.3945312-0.7050781-0.59375-1.2060547-0.59375
			c-0.4902344,0-0.8857422,0.1953125-1.1865234,0.5859375S83.4780655,214.0008087,83.4780655,214.7273712z"/>
		<path class="st1" d="M88.751503,214.6101837c0-0.5703125,0.1123047-1.0820312,0.3359375-1.5371094
			s0.5351562-0.8046875,0.9345703-1.0527344c0.3994141-0.2460938,0.8554688-0.3710938,1.3671875-0.3710938
			c0.7910156,0,1.4316406,0.2753906,1.9199219,0.8222656c0.4892578,0.5488281,0.7333984,1.2773438,0.7333984,2.1855469v0.0703125
			c0,0.5664062-0.1083984,1.0742188-0.3251953,1.5234375s-0.5263672,0.7988281-0.9287109,1.0488281
			c-0.4033203,0.2519531-0.8662109,0.3769531-1.3886719,0.3769531c-0.7880859,0-1.4257812-0.2734375-1.9150391-0.8222656
			c-0.4882812-0.546875-0.7333984-1.2734375-0.7333984-2.1757812V214.6101837z M89.751503,214.7273712
			c0,0.6445312,0.1494141,1.1621094,0.4482422,1.5527344s0.6992188,0.5859375,1.2001953,0.5859375
			c0.5048828,0,0.90625-0.1992188,1.203125-0.59375c0.296875-0.3964844,0.4453125-0.9511719,0.4453125-1.6621094
			c0-0.6386719-0.1503906-1.1542969-0.453125-1.5507812c-0.3027344-0.3945312-0.7050781-0.59375-1.2060547-0.59375
			c-0.4902344,0-0.8857422,0.1953125-1.1865234,0.5859375S89.751503,214.0008087,89.751503,214.7273712z"/>
		<path class="st1" d="M95.0464249,214.61409c0-0.890625,0.2119141-1.6074219,0.6347656-2.1503906
			c0.421875-0.5429688,0.9755859-0.8144531,1.6591797-0.8144531c0.6806641,0,1.2197266,0.2324219,1.6162109,0.6992188v-3.0292969
			h0.9941406v8.25h-0.9130859l-0.0478516-0.6230469c-0.3984375,0.4863281-0.9511719,0.7304688-1.6601562,0.7304688
			c-0.6728516,0-1.2216797-0.2753906-1.6464844-0.828125c-0.4238281-0.5507812-0.6367188-1.2714844-0.6367188-2.1582031V214.61409z
			 M96.0405655,214.7273712c0,0.6582031,0.1357422,1.1738281,0.4082031,1.546875s0.6484375,0.5585938,1.1279297,0.5585938
			c0.6298828,0,1.0908203-0.2832031,1.3798828-0.8476562v-2.6699219c-0.296875-0.5488281-0.7529297-0.8222656-1.3691406-0.8222656
			c-0.4873047,0-0.8662109,0.1875-1.1386719,0.5644531C96.1763077,213.4324493,96.0405655,213.98909,96.0405655,214.7273712z"/>
		<path class="st1" d="M103.9731827,214.61409c0-0.890625,0.2119141-1.6074219,0.6347656-2.1503906
			c0.421875-0.5429688,0.9755859-0.8144531,1.6591797-0.8144531c0.6806641,0,1.2197266,0.2324219,1.6162109,0.6992188v-3.0292969
			h0.9941406v8.25h-0.9130859l-0.0478516-0.6230469c-0.3984375,0.4863281-0.9511719,0.7304688-1.6601562,0.7304688
			c-0.6728516,0-1.2216797-0.2753906-1.6464844-0.828125c-0.4238281-0.5507812-0.6367188-1.2714844-0.6367188-2.1582031V214.61409z
			 M104.9673233,214.7273712c0,0.6582031,0.1357422,1.1738281,0.4082031,1.546875s0.6484375,0.5585938,1.1279297,0.5585938
			c0.6298828,0,1.0908203-0.2832031,1.3798828-0.8476562v-2.6699219c-0.296875-0.5488281-0.7529297-0.8222656-1.3691406-0.8222656
			c-0.4873047,0-0.8662109,0.1875-1.1386719,0.5644531C105.1030655,213.4324493,104.9673233,213.98909,104.9673233,214.7273712z"/>
		<path class="st1" d="M114.0063858,217.5691681c-0.0576172-0.1152344-0.1035156-0.3183594-0.1396484-0.6132812
			c-0.4619141,0.4804688-1.0136719,0.7207031-1.6542969,0.7207031c-0.5732422,0-1.0429688-0.1621094-1.4101562-0.4863281
			s-0.5498047-0.734375-0.5498047-1.2324219c0-0.6054688,0.2294922-1.0761719,0.6894531-1.4101562
			c0.4599609-0.3359375,1.1074219-0.5019531,1.9414062-0.5019531h0.9667969v-0.4570312
			c0-0.3476562-0.1035156-0.6230469-0.3105469-0.8300781c-0.2080078-0.2050781-0.5146484-0.3085938-0.9189453-0.3085938
			c-0.3544922,0-0.6513672,0.0898438-0.8916016,0.2695312c-0.2402344,0.1777344-0.359375,0.3945312-0.359375,0.6484375h-1
			c0-0.2890625,0.1035156-0.5703125,0.3095703-0.8398438c0.2060547-0.2714844,0.4853516-0.484375,0.8378906-0.6425781
			c0.3525391-0.15625,0.7402344-0.2363281,1.1630859-0.2363281c0.6689453,0,1.1933594,0.1679688,1.5732422,0.5019531
			c0.3798828,0.3359375,0.5761719,0.796875,0.5908203,1.3847656v2.6738281c0,0.5332031,0.0683594,0.9570312,0.2041016,1.2734375
			v0.0859375H114.0063858z M112.3579483,216.8113556c0.3105469,0,0.6064453-0.0800781,0.8857422-0.2421875
			c0.2792969-0.1601562,0.4814453-0.3691406,0.6064453-0.6269531v-1.1933594h-0.7783203
			c-1.2177734,0-1.8261719,0.3554688-1.8261719,1.0683594c0,0.3125,0.1035156,0.5546875,0.3115234,0.7304688
			S112.0317764,216.8113556,112.3579483,216.8113556z"/>
		<path class="st1" d="M118.2231827,216.11409l1.3535156-4.3574219h1.0634766l-2.3359375,6.7089844
			c-0.3623047,0.9667969-0.9365234,1.4511719-1.7246094,1.4511719l-0.1875-0.0175781l-0.3710938-0.0683594v-0.8066406
			l0.2685547,0.0214844c0.3369141,0,0.5986328-0.0683594,0.7871094-0.203125
			c0.1875-0.1367188,0.3427734-0.3867188,0.4638672-0.7480469l0.2207031-0.5898438l-2.0732422-5.7480469h1.0849609
			L118.2231827,216.11409z"/>
		<path class="st1" d="M121.6333389,217.0633087c0-0.1621094,0.0488281-0.2988281,0.1474609-0.4082031
			c0.0986328-0.1113281,0.2451172-0.1660156,0.4384766-0.1660156s0.3398438,0.0546875,0.4394531,0.1660156
			c0.1005859,0.109375,0.1503906,0.2460938,0.1503906,0.4082031c0,0.1640625-0.0498047,0.2988281-0.1503906,0.4042969
			c-0.0996094,0.1074219-0.2460938,0.1601562-0.4394531,0.1601562s-0.3398438-0.0527344-0.4384766-0.1601562
			C121.6821671,217.3621368,121.6333389,217.2273712,121.6333389,217.0633087z M122.6372452,215.3523712h-0.8964844
			l-0.0703125-5.6035156h1.0429688L122.6372452,215.3523712z"/>
	</g>
	<g>
		<path class="st1" d="M79.2290421,168.9529572l0.1503906,1.03125l0.2207031-0.9296875l1.546875-5.4570312h0.8701172
			l1.5087891,5.4570312l0.2148438,0.9453125l0.1669922-1.0527344l1.2138672-5.3496094h1.0371094l-1.8964844,7.8203125h-0.9394531
			l-1.6113281-5.6992188l-0.1240234-0.5957031l-0.1240234,0.5957031l-1.6699219,5.6992188h-0.9394531l-1.890625-7.8203125h1.03125
			L79.2290421,168.9529572z"/>
		<path class="st1" d="M89.392128,171.5252228c-0.7880859,0-1.4296875-0.2587891-1.9238281-0.7763672
			s-0.7402344-1.2089844-0.7402344-2.0751953v-0.1835938c0-0.5761719,0.109375-1.0908203,0.3300781-1.5439453
			c0.2197266-0.453125,0.5283203-0.8076172,0.9238281-1.0634766s0.8242188-0.3837891,1.2861328-0.3837891
			c0.7558594,0,1.3427734,0.2490234,1.7617188,0.7470703c0.4189453,0.4970703,0.6279297,1.2099609,0.6279297,2.1367188v0.4140625
			h-3.9365234c0.0146484,0.5732422,0.1816406,1.0361328,0.5019531,1.3886719s0.7275391,0.5292969,1.2216797,0.5292969
			c0.3515625,0,0.6484375-0.0722656,0.8925781-0.2148438c0.2431641-0.1435547,0.4560547-0.3339844,0.6386719-0.5703125
			l0.6074219,0.4726562C91.0962296,171.1511993,90.3657608,171.5252228,89.392128,171.5252228z M89.2681046,166.3152618
			c-0.4013672,0-0.7373047,0.1455078-1.0097656,0.4375s-0.4404297,0.7011719-0.5048828,1.2275391h2.9111328v-0.0751953
			c-0.0283203-0.5048828-0.1650391-0.8964844-0.4082031-1.1738281S89.6831436,166.3152618,89.2681046,166.3152618z"/>
		<path class="st1" d="M92.4487686,165.7996368l-0.5644531-0.3867188c0.3330078-0.4658203,0.5048828-0.9560547,0.515625-1.4716797
			v-0.7734375h0.9824219v0.6982422c-0.0029297,0.3583984-0.0917969,0.7148438-0.265625,1.0712891
			S92.720253,165.5808868,92.4487686,165.7996368z"/>
		<path class="st1" d="M97.3833389,166.497879c-0.1503906-0.0253906-0.3125-0.0371094-0.4882812-0.0371094
			c-0.6513672,0-1.09375,0.2773438-1.3261719,0.8320312v4.125h-0.9941406v-5.8115234h0.9667969l0.015625,0.6708984
			c0.3261719-0.5185547,0.7880859-0.7783203,1.3867188-0.7783203c0.1933594,0,0.3398438,0.0253906,0.4394531,0.0751953V166.497879z"
			/>
		<path class="st1" d="M100.6069717,171.5252228c-0.7880859,0-1.4296875-0.2587891-1.9238281-0.7763672
			s-0.7402344-1.2089844-0.7402344-2.0751953v-0.1835938c0-0.5761719,0.109375-1.0908203,0.3300781-1.5439453
			c0.2197266-0.453125,0.5283203-0.8076172,0.9238281-1.0634766s0.8242188-0.3837891,1.2861328-0.3837891
			c0.7558594,0,1.3427734,0.2490234,1.7617188,0.7470703c0.4189453,0.4970703,0.6279297,1.2099609,0.6279297,2.1367188v0.4140625
			h-3.9365234c0.0146484,0.5732422,0.1816406,1.0361328,0.5019531,1.3886719s0.7275391,0.5292969,1.2216797,0.5292969
			c0.3515625,0,0.6484375-0.0722656,0.8925781-0.2148438c0.2431641-0.1435547,0.4560547-0.3339844,0.6386719-0.5703125
			l0.6074219,0.4726562C102.3110733,171.1511993,101.5806046,171.5252228,100.6069717,171.5252228z M100.4829483,166.3152618
			c-0.4013672,0-0.7373047,0.1455078-1.0097656,0.4375s-0.4404297,0.7011719-0.5048828,1.2275391h2.9111328v-0.0751953
			c-0.0283203-0.5048828-0.1650391-0.8964844-0.4082031-1.1738281S100.8979874,166.3152618,100.4829483,166.3152618z"/>
		<path class="st1" d="M107.7397842,166.310379c0.4394531-0.5410156,1.0126953-0.8115234,1.71875-0.8115234
			c1.2275391,0,1.8476562,0.6923828,1.8574219,2.0791016v3.8398438h-0.9931641v-3.8457031
			c-0.0039062-0.4189453-0.0996094-0.7285156-0.2871094-0.9296875c-0.1884766-0.2001953-0.4814453-0.3007812-0.8779297-0.3007812
			c-0.3222656,0-0.6054688,0.0859375-0.8496094,0.2578125c-0.2431641,0.171875-0.4326172,0.3984375-0.5683594,0.6777344v4.140625
			h-0.9941406v-8.25h0.9941406V166.310379z"/>
		<path class="st1" d="M115.2163467,171.5252228c-0.7880859,0-1.4296875-0.2587891-1.9238281-0.7763672
			s-0.7402344-1.2089844-0.7402344-2.0751953v-0.1835938c0-0.5761719,0.109375-1.0908203,0.3300781-1.5439453
			c0.2197266-0.453125,0.5283203-0.8076172,0.9238281-1.0634766s0.8242188-0.3837891,1.2861328-0.3837891
			c0.7558594,0,1.3427734,0.2490234,1.7617188,0.7470703c0.4189453,0.4970703,0.6279297,1.2099609,0.6279297,2.1367188v0.4140625
			h-3.9365234c0.0146484,0.5732422,0.1816406,1.0361328,0.5019531,1.3886719s0.7275391,0.5292969,1.2216797,0.5292969
			c0.3515625,0,0.6484375-0.0722656,0.8925781-0.2148438c0.2431641-0.1435547,0.4560547-0.3339844,0.6386719-0.5703125
			l0.6074219,0.4726562C116.9204483,171.1511993,116.1899796,171.5252228,115.2163467,171.5252228z M115.0923233,166.3152618
			c-0.4013672,0-0.7373047,0.1455078-1.0097656,0.4375s-0.4404297,0.7011719-0.5048828,1.2275391h2.9111328v-0.0751953
			c-0.0283203-0.5048828-0.1650391-0.8964844-0.4082031-1.1738281S115.5073624,166.3152618,115.0923233,166.3152618z"/>
		<path class="st1" d="M121.4409561,166.497879c-0.1503906-0.0253906-0.3125-0.0371094-0.4882812-0.0371094
			c-0.6513672,0-1.09375,0.2773438-1.3261719,0.8320312v4.125h-0.9941406v-5.8115234h0.9667969l0.015625,0.6708984
			c0.3261719-0.5185547,0.7880859-0.7783203,1.3867188-0.7783203c0.1933594,0,0.3398438,0.0253906,0.4394531,0.0751953V166.497879z"
			/>
		<path class="st1" d="M124.6636124,171.5252228c-0.7880859,0-1.4296875-0.2587891-1.9238281-0.7763672
			s-0.7402344-1.2089844-0.7402344-2.0751953v-0.1835938c0-0.5761719,0.109375-1.0908203,0.3300781-1.5439453
			c0.2197266-0.453125,0.5283203-0.8076172,0.9238281-1.0634766s0.8242188-0.3837891,1.2861328-0.3837891
			c0.7558594,0,1.3427734,0.2490234,1.7617188,0.7470703c0.4189453,0.4970703,0.6279297,1.2099609,0.6279297,2.1367188v0.4140625
			h-3.9365234c0.0146484,0.5732422,0.1816406,1.0361328,0.5019531,1.3886719s0.7275391,0.5292969,1.2216797,0.5292969
			c0.3515625,0,0.6484375-0.0722656,0.8925781-0.2148438c0.2431641-0.1435547,0.4560547-0.3339844,0.6386719-0.5703125
			l0.6074219,0.4726562C126.3677139,171.1511993,125.6372452,171.5252228,124.6636124,171.5252228z M124.5395889,166.3152618
			c-0.4013672,0-0.7373047,0.1455078-1.0097656,0.4375s-0.4404297,0.7011719-0.5048828,1.2275391h2.9111328v-0.0751953
			c-0.0283203-0.5048828-0.1650391-0.8964844-0.4082031-1.1738281S124.954628,166.3152618,124.5395889,166.3152618z"/>
		<path class="st1" d="M128.1870422,170.9129181c0-0.1621094,0.0488281-0.2988281,0.1474609-0.4091797
			s0.2451172-0.1660156,0.4384766-0.1660156s0.3398438,0.0556641,0.4394531,0.1660156
			c0.1005859,0.1103516,0.1503906,0.2470703,0.1503906,0.4091797c0,0.1630859-0.0498047,0.2978516-0.1503906,0.4042969
			c-0.0996094,0.1064453-0.2460938,0.1591797-0.4394531,0.1591797s-0.3398438-0.0527344-0.4384766-0.1591797
			S128.1870422,171.076004,128.1870422,170.9129181z M129.1909485,169.201004h-0.8964844l-0.0703125-5.6035156h1.0429688
			L129.1909485,169.201004z"/>
	</g>
</g>
</svg>
