<?xml version="1.0" encoding="utf-8"?>
<!-- Generator: Adobe Illustrator 19.1.0, SVG Export Plug-In . SVG Version: 6.00 Build 0)  -->
<svg version="1.1" id="Layer_1" xmlns="http://www.w3.org/2000/svg" xmlns:xlink="http://www.w3.org/1999/xlink" x="0px" y="0px"
	 viewBox="0 0 374.5845642 269.7176514" style="enable-background:new 0 0 374.5845642 269.7176514;" xml:space="preserve">
<style type="text/css">
	.st0{fill:#FBBC30;}
	.st1{fill:#3D54A0;}
	.st2{fill:#335373;}
	.st3{opacity:0.05;}
</style>
<g>
	<g>
		<polygon class="st0" points="369.0413513,182.2458191 10.0435152,182.2458191 14.4376135,180.004715 363.7684326,180.004715 		"/>
		<rect x="-0.0000081" y="194.5120392" class="st1" width="374.5845642" height="70.8027954"/>
		<rect x="188.0703278" y="269.0100098" class="st2" width="0.3045336" height="0.7076398"/>
	</g>
	<g class="st3">
		<path d="M113.4832687,121.5878906v-77.374115C113.4832687,19.7951717,93.6880951,0,69.2694931,0H57.3317757
			C32.913166,0,13.1179962,19.7951717,13.1179962,44.2137756v77.374115H113.4832687z"/>
		<path d="M242.1453552,122.914299V45.5401917c0-24.4186077-19.795166-44.2137794-44.2137756-44.2137794H185.993866
			c-24.4186096,0-44.2137756,19.7951698-44.2137756,44.2137794v77.3741074H242.1453552z"/>
		<path d="M361.9646912,122.914299V45.5401917c0-24.4186077-19.795166-44.2137794-44.2137756-44.2137794h-11.9377136
			c-24.4186096,0-44.2137756,19.7951698-44.2137756,44.2137794v77.3741074H361.9646912z"/>
	</g>
</g>
</svg>
