<?xml version="1.0" encoding="utf-8"?>
<!-- Generator: Adobe Illustrator 19.1.0, SVG Export Plug-In . SVG Version: 6.00 Build 0)  -->
<svg version="1.1" xmlns="http://www.w3.org/2000/svg" xmlns:xlink="http://www.w3.org/1999/xlink" x="0px" y="0px"
	 viewBox="0 0 1184.5957031 74.6126785" style="enable-background:new 0 0 1184.5957031 74.6126785;" xml:space="preserve">
<style type="text/css">
	.st0{fill:none;}
	.st1{fill:none;stroke:#FFFFFF;stroke-width:4;stroke-miterlimit:10;}
	.st2{opacity:0.6;fill:none;stroke:#FFFFFF;stroke-width:2;stroke-miterlimit:10;stroke-dasharray:3,3;}
	.st3{display:none;}
	.st4{display:inline;}
	.st5{fill:#FFFFFF;}
	.st6{font-family:'Roboto-Light';}
	.st7{font-size:15px;}
</style>
<g id="Layer_1">
	<rect x="910.999939" y="-334.1679688" class="st0" width="430.0001831" height="734.4406128"/>
	<g>
		<circle class="st1" cx="41.7868843" cy="38.0779343" r="7.5347443"/>
		<circle class="st1" cx="320.7868958" cy="38.0779343" r="7.5347443"/>
		<circle class="st1" cx="591.7868652" cy="38.0779343" r="7.5347443"/>
		<line class="st2" x1="54" y1="37.8320312" x2="310" y2="37.8320312"/>
		<circle class="st1" cx="1141.7868652" cy="63.0779343" r="7.5347443"/>
		<line class="st2" x1="875" y1="62.8320312" x2="1131" y2="62.8320312"/>
		<line class="st1" x1="328" y1="38.8320312" x2="584" y2="38.8320312"/>
		<circle class="st1" cx="591.7868652" cy="63.0779343" r="7.5347443"/>
		<circle class="st1" cx="862.7868652" cy="63.0779343" r="7.5347443"/>
		<line class="st1" x1="599" y1="63.8320312" x2="855" y2="63.8320312"/>
	</g>
</g>
<g id="Layer_2" class="st3">
	<g class="st4">
		<text transform="matrix(1 0 0 1 0 10.8320312)" class="st5 st6 st7">Your location</text>
		<text transform="matrix(1 0 0 1 264 10.8320312)" class="st5 st6 st7">London Waterloo</text>
		<text transform="matrix(1 0 0 1 548 10.8320312)" class="st5 st6 st7">Brockenhurst</text>
		<text transform="matrix(1 0 0 1 807.6574707 10.8320312)" class="st5 st6 st7">Lymington Town</text>
		<text transform="matrix(1 0 0 1 1088.2597656 10.8320312)" class="st5 st6 st7">Milford on Sea</text>
	</g>
</g>
<g id="Layer_3">
	<g>
		<g>
			<path class="st5" d="M4.4750977,5.9833984L7.734375,0.1679688h1.0400391L4.921875,6.8183594v4.0136719H4.0209961V6.8183594
				L0.1757812,0.1679688h1.0693359L4.4750977,5.9833984z"/>
			<path class="st5" d="M9.1625977,6.7524414c0-0.7617188,0.1474609-1.4477539,0.4433594-2.0581055
				c0.2949219-0.6103516,0.7124023-1.0849609,1.2519531-1.4248047c0.5395508-0.3388672,1.1513672-0.5087891,1.8349609-0.5087891
				c1.0546875,0,1.9091797,0.3701172,2.5634766,1.109375c0.6542969,0.7402344,0.9814453,1.7202148,0.9814453,2.940918v0.1831055
				c0,0.7666016-0.1479492,1.456543-0.4433594,2.0693359s-0.7114258,1.0849609-1.2485352,1.4169922
				s-1.1499023,0.4980469-1.8383789,0.4980469c-1.0498047,0-1.9033203-0.3701172-2.5595703-1.109375
				c-0.6572266-0.7402344-0.9853516-1.7202148-0.9853516-2.940918V6.7524414z M10.0415039,6.9941406
				c0,0.9472656,0.2451172,1.7246094,0.7363281,2.3330078c0.4902344,0.6074219,1.1337891,0.9116211,1.9296875,0.9116211
				c0.7910156,0,1.4316406-0.3041992,1.9228516-0.9116211c0.4902344-0.6083984,0.7358398-1.4101562,0.7358398-2.40625v-0.168457
				c0-0.6054688-0.1123047-1.159668-0.3369141-1.6625977s-0.5395508-0.8920898-0.9448242-1.1679688
				s-0.8691406-0.4140625-1.3916016-0.4140625c-0.78125,0-1.418457,0.3066406-1.9116211,0.9189453
				c-0.4931641,0.6132812-0.7397461,1.4150391-0.7397461,2.40625V6.9941406z"/>
			<path class="st5" d="M23.1445312,9.8286133c-0.5273438,0.7666016-1.3696289,1.1499023-2.5268555,1.1499023
				c-0.8447266,0-1.4868164-0.2451172-1.9262695-0.7363281c-0.4394531-0.4902344-0.6640625-1.2167969-0.6738281-2.1787109v-5.15625
				h0.871582v5.0463867c0,1.5087891,0.6103516,2.2631836,1.8310547,2.2631836c1.2695312,0,2.0727539-0.5249023,2.409668-1.574707
				V2.9072266h0.8789062v7.9248047h-0.8496094L23.1445312,9.8286133z"/>
			<path class="st5" d="M29.9487305,3.6542969c-0.1855469-0.0341797-0.3833008-0.0512695-0.5932617-0.0512695
				c-0.546875,0-1.0097656,0.152832-1.3881836,0.4575195c-0.378418,0.3056641-0.6479492,0.7485352-0.809082,1.3295898v5.4418945
				h-0.871582V2.9072266h0.8569336l0.0146484,1.2597656c0.4638672-0.9375,1.2084961-1.40625,2.2338867-1.40625
				c0.2441406,0,0.4370117,0.0317383,0.5786133,0.0952148L29.9487305,3.6542969z"/>
			<path class="st5" d="M35.9619141,10.8320312h-0.8789062v-11.25h0.8789062V10.8320312z"/>
			<path class="st5" d="M37.8588867,6.7524414c0-0.7617188,0.1474609-1.4477539,0.4433594-2.0581055
				c0.2949219-0.6103516,0.7124023-1.0849609,1.2519531-1.4248047c0.5395508-0.3388672,1.1513672-0.5087891,1.8349609-0.5087891
				c1.0546875,0,1.9091797,0.3701172,2.5634766,1.109375c0.6542969,0.7402344,0.9814453,1.7202148,0.9814453,2.940918v0.1831055
				c0,0.7666016-0.1479492,1.456543-0.4433594,2.0693359s-0.7114258,1.0849609-1.2485352,1.4169922
				s-1.1499023,0.4980469-1.8383789,0.4980469c-1.0498047,0-1.9033203-0.3701172-2.5595703-1.109375
				c-0.6572266-0.7402344-0.9853516-1.7202148-0.9853516-2.940918V6.7524414z M38.737793,6.9941406
				c0,0.9472656,0.2451172,1.7246094,0.7363281,2.3330078c0.4902344,0.6074219,1.1337891,0.9116211,1.9296875,0.9116211
				c0.7910156,0,1.4316406-0.3041992,1.9228516-0.9116211C43.8168945,8.71875,44.0625,7.9169922,44.0625,6.9208984v-0.168457
				c0-0.6054688-0.1123047-1.159668-0.3369141-1.6625977s-0.5395508-0.8920898-0.9448242-1.1679688
				s-0.8691406-0.4140625-1.3916016-0.4140625c-0.78125,0-1.418457,0.3066406-1.9116211,0.9189453
				c-0.4931641,0.6132812-0.7397461,1.4150391-0.7397461,2.40625V6.9941406z"/>
			<path class="st5" d="M49.6728516,10.2387695c0.6103516,0,1.121582-0.1723633,1.5341797-0.5161133
				c0.4125977-0.3447266,0.6362305-0.7900391,0.6704102-1.3369141h0.8422852
				c-0.0244141,0.4833984-0.1757812,0.9243164-0.4541016,1.3222656s-0.6484375,0.7089844-1.109375,0.9335938
				c-0.4619141,0.2246094-0.9560547,0.3369141-1.4833984,0.3369141c-1.0400391,0-1.8642578-0.3613281-2.4716797-1.0839844
				c-0.6083984-0.7226562-0.9121094-1.6943359-0.9121094-2.9150391V6.7158203c0-0.78125,0.1367188-1.472168,0.4101562-2.0727539
				S47.3642578,3.5786133,47.875,3.2514648c0.5097656-0.3271484,1.1069336-0.4907227,1.7905273-0.4907227
				c0.8691406,0,1.5854492,0.2587891,2.1499023,0.7763672c0.5634766,0.5175781,0.8652344,1.1987305,0.9042969,2.043457h-0.8422852
				c-0.0390625-0.6201172-0.2626953-1.1206055-0.6704102-1.5014648s-0.9213867-0.5712891-1.5415039-0.5712891
				c-0.7910156,0-1.4052734,0.2856445-1.8422852,0.8569336s-0.6552734,1.3720703-0.6552734,2.4023438v0.2563477
				c0,1.0107422,0.2182617,1.7993164,0.6552734,2.3657227S48.8769531,10.2387695,49.6728516,10.2387695z"/>
			<path class="st5" d="M59.4726562,10.8320312c-0.0878906-0.2490234-0.144043-0.6176758-0.168457-1.105957
				c-0.3076172,0.4003906-0.6992188,0.7094727-1.1757812,0.9262695c-0.4755859,0.2172852-0.9799805,0.3261719-1.512207,0.3261719
				c-0.7617188,0-1.378418-0.2124023-1.8491211-0.637207c-0.4716797-0.4248047-0.7070312-0.9619141-0.7070312-1.6113281
				c0-0.7714844,0.3208008-1.3818359,0.9628906-1.8310547s1.5371094-0.6738281,2.6845703-0.6738281h1.5893555V5.3242188
				c0-0.5664062-0.1748047-1.0117188-0.5239258-1.3369141c-0.3491211-0.3242188-0.8579102-0.4868164-1.5268555-0.4868164
				c-0.6103516,0-1.1157227,0.15625-1.5161133,0.46875s-0.6005859,0.6884766-0.6005859,1.1279297l-0.8789062-0.0073242
				c0-0.6298828,0.2929688-1.1757812,0.8789062-1.6367188c0.5859375-0.4619141,1.3061523-0.6923828,2.1606445-0.6923828
				c0.8837891,0,1.5805664,0.2211914,2.0913086,0.6630859c0.5097656,0.4418945,0.7724609,1.0581055,0.7871094,1.8491211v3.75
				c0,0.7666016,0.0805664,1.340332,0.2416992,1.7211914v0.0878906H59.4726562z M56.71875,10.2021484
				c0.5859375,0,1.1098633-0.1416016,1.5708008-0.4248047c0.4619141-0.2832031,0.7973633-0.6616211,1.0073242-1.1352539V6.8989258
				h-1.5673828c-0.8740234,0.0097656-1.5576172,0.1699219-2.0507812,0.4799805s-0.7397461,0.7358398-0.7397461,1.277832
				c0,0.4443359,0.1650391,0.8129883,0.4941406,1.105957C55.7631836,10.0556641,56.1914062,10.2021484,56.71875,10.2021484z"/>
			<path class="st5" d="M63.8671875,0.878418v2.0288086h1.640625V3.625h-1.640625v5.2866211
				c0,0.4399414,0.0791016,0.7675781,0.2382812,0.9824219c0.1582031,0.215332,0.4233398,0.3227539,0.7944336,0.3227539
				c0.1464844,0,0.3833008-0.0244141,0.7104492-0.0732422l0.0366211,0.7114258
				c-0.2294922,0.0825195-0.5419922,0.1235352-0.9375,0.1235352c-0.6005859,0-1.0375977-0.1743164-1.3110352-0.5234375
				s-0.4101562-0.8632812-0.4101562-1.5419922V3.625h-1.4575195V2.9072266h1.4575195V0.878418H63.8671875z"/>
			<path class="st5" d="M67.2729492,0.6181641c0-0.1645508,0.0537109-0.3041992,0.1611328-0.418457
				c0.1074219-0.1137695,0.2539062-0.1708984,0.4394531-0.1708984s0.3334961,0.0571289,0.4428711,0.1708984
				c0.1103516,0.1142578,0.1650391,0.2539062,0.1650391,0.418457c0,0.1650391-0.0546875,0.3037109-0.1650391,0.4150391
				c-0.109375,0.1118164-0.2573242,0.1674805-0.4428711,0.1674805s-0.3320312-0.0556641-0.4394531-0.1674805
				C67.3266602,0.921875,67.2729492,0.7832031,67.2729492,0.6181641z M68.3056641,10.8320312h-0.8789062V2.9072266h0.8789062
				V10.8320312z"/>
			<path class="st5" d="M70.2026367,6.7524414c0-0.7617188,0.1474609-1.4477539,0.4433594-2.0581055
				c0.2949219-0.6103516,0.7124023-1.0849609,1.2519531-1.4248047c0.5395508-0.3388672,1.1513672-0.5087891,1.8349609-0.5087891
				c1.0546875,0,1.9091797,0.3701172,2.5634766,1.109375c0.6542969,0.7402344,0.9814453,1.7202148,0.9814453,2.940918v0.1831055
				c0,0.7666016-0.1479492,1.456543-0.4433594,2.0693359s-0.7114258,1.0849609-1.2485352,1.4169922
				s-1.1499023,0.4980469-1.8383789,0.4980469c-1.0498047,0-1.9033203-0.3701172-2.5595703-1.109375
				c-0.6572266-0.7402344-0.9853516-1.7202148-0.9853516-2.940918V6.7524414z M71.081543,6.9941406
				c0,0.9472656,0.2451172,1.7246094,0.7363281,2.3330078c0.4902344,0.6074219,1.1337891,0.9116211,1.9296875,0.9116211
				c0.7910156,0,1.4316406-0.3041992,1.9228516-0.9116211C76.1606445,8.71875,76.40625,7.9169922,76.40625,6.9208984v-0.168457
				c0-0.6054688-0.1123047-1.159668-0.3369141-1.6625977s-0.5395508-0.8920898-0.9448242-1.1679688
				s-0.8691406-0.4140625-1.3916016-0.4140625c-0.78125,0-1.418457,0.3066406-1.9116211,0.9189453
				c-0.4931641,0.6132812-0.7397461,1.4150391-0.7397461,2.40625V6.9941406z"/>
			<path class="st5" d="M79.921875,2.9072266l0.0292969,1.3549805c0.2978516-0.4882812,0.6689453-0.8608398,1.1132812-1.1166992
				c0.4443359-0.2568359,0.9350586-0.3847656,1.472168-0.3847656c0.8496094,0,1.4819336,0.2392578,1.8969727,0.7177734
				s0.625,1.1962891,0.6298828,2.1533203v5.2001953h-0.871582V5.6245117
				c-0.0048828-0.7080078-0.1552734-1.2353516-0.4506836-1.5820312s-0.7675781-0.5200195-1.4169922-0.5200195
				c-0.5419922,0-1.0214844,0.1699219-1.4394531,0.5087891c-0.4169922,0.3398438-0.7260742,0.7973633-0.9262695,1.3735352v5.4272461
				h-0.871582V2.9072266H79.921875z"/>
		</g>
		<g>
			<path class="st5" d="M266.2558594,10.0703125h5.2661133v0.7617188h-6.1743164V0.1679688h0.9082031V10.0703125z"/>
			<path class="st5" d="M272.5620117,6.7524414c0-0.7617188,0.1474609-1.4477539,0.4433594-2.0581055
				c0.2949219-0.6103516,0.7124023-1.0849609,1.2519531-1.4248047c0.5395508-0.3388672,1.1513672-0.5087891,1.8349609-0.5087891
				c1.0546875,0,1.9091797,0.3701172,2.5634766,1.109375c0.6542969,0.7402344,0.9814453,1.7202148,0.9814453,2.940918v0.1831055
				c0,0.7666016-0.1479492,1.456543-0.4433594,2.0693359s-0.7114258,1.0849609-1.2485352,1.4169922
				s-1.1499023,0.4980469-1.8383789,0.4980469c-1.0498047,0-1.9033203-0.3701172-2.5595703-1.109375
				c-0.6572266-0.7402344-0.9853516-1.7202148-0.9853516-2.940918V6.7524414z M273.440918,6.9941406
				c0,0.9472656,0.2451172,1.7246094,0.7363281,2.3330078c0.4902344,0.6074219,1.1337891,0.9116211,1.9296875,0.9116211
				c0.7910156,0,1.4316406-0.3041992,1.9228516-0.9116211c0.4902344-0.6083984,0.7358398-1.4101562,0.7358398-2.40625v-0.168457
				c0-0.6054688-0.1123047-1.159668-0.3369141-1.6625977s-0.5395508-0.8920898-0.9448242-1.1679688
				s-0.8691406-0.4140625-1.3916016-0.4140625c-0.78125,0-1.418457,0.3066406-1.9116211,0.9189453
				c-0.4931641,0.6132812-0.7397461,1.4150391-0.7397461,2.40625V6.9941406z"/>
			<path class="st5" d="M282.28125,2.9072266l0.0292969,1.3549805c0.2978516-0.4882812,0.6689453-0.8608398,1.1132812-1.1166992
				c0.4443359-0.2568359,0.9350586-0.3847656,1.472168-0.3847656c0.8496094,0,1.4819336,0.2392578,1.8969727,0.7177734
				s0.625,1.1962891,0.6298828,2.1533203v5.2001953h-0.871582V5.6245117
				c-0.0048828-0.7080078-0.1552734-1.2353516-0.4506836-1.5820312s-0.7675781-0.5200195-1.4169922-0.5200195
				c-0.5419922,0-1.0214844,0.1699219-1.4394531,0.5087891c-0.4169922,0.3398438-0.7260742,0.7973633-0.9262695,1.3735352v5.4272461
				h-0.871582V2.9072266H282.28125z"/>
			<path class="st5" d="M289.3344727,6.7963867c0-1.2304688,0.2744141-2.2104492,0.8242188-2.940918
				c0.5488281-0.7294922,1.2949219-1.0947266,2.2373047-1.0947266c1.0693359,0,1.8847656,0.4223633,2.4462891,1.2670898v-4.4458008
				h0.871582v11.25h-0.8203125l-0.0366211-1.0546875c-0.5615234,0.8007812-1.3867188,1.2011719-2.4755859,1.2011719
				c-0.9130859,0-1.6494141-0.3671875-2.2080078-1.1025391c-0.5595703-0.734375-0.8388672-1.7270508-0.8388672-2.9770508V6.7963867z
				 M290.2207031,6.9501953c0,1.0107422,0.2026367,1.8081055,0.6079102,2.3916016s0.9765625,0.875,1.7138672,0.875
				c1.0791016,0,1.8457031-0.4760742,2.2998047-1.4282227V5.0678711c-0.4541016-1.0302734-1.2158203-1.5454102-2.2851562-1.5454102
				c-0.7373047,0-1.3110352,0.2890625-1.7211914,0.8681641C290.4257812,4.96875,290.2207031,5.8222656,290.2207031,6.9501953z"/>
			<path class="st5" d="M297.5375977,6.7524414c0-0.7617188,0.1474609-1.4477539,0.4433594-2.0581055
				c0.2949219-0.6103516,0.7124023-1.0849609,1.2519531-1.4248047c0.5395508-0.3388672,1.1513672-0.5087891,1.8349609-0.5087891
				c1.0546875,0,1.9091797,0.3701172,2.5634766,1.109375c0.6542969,0.7402344,0.9814453,1.7202148,0.9814453,2.940918v0.1831055
				c0,0.7666016-0.1479492,1.456543-0.4433594,2.0693359s-0.7114258,1.0849609-1.2485352,1.4169922
				s-1.1499023,0.4980469-1.8383789,0.4980469c-1.0498047,0-1.9033203-0.3701172-2.5595703-1.109375
				c-0.6572266-0.7402344-0.9853516-1.7202148-0.9853516-2.940918V6.7524414z M298.4165039,6.9941406
				c0,0.9472656,0.2451172,1.7246094,0.7363281,2.3330078c0.4902344,0.6074219,1.1337891,0.9116211,1.9296875,0.9116211
				c0.7910156,0,1.4316406-0.3041992,1.9228516-0.9116211c0.4902344-0.6083984,0.7358398-1.4101562,0.7358398-2.40625v-0.168457
				c0-0.6054688-0.1123047-1.159668-0.3369141-1.6625977s-0.5395508-0.8920898-0.9448242-1.1679688
				s-0.8691406-0.4140625-1.3916016-0.4140625c-0.78125,0-1.418457,0.3066406-1.9116211,0.9189453
				c-0.4931641,0.6132812-0.7397461,1.4150391-0.7397461,2.40625V6.9941406z"/>
			<path class="st5" d="M307.2568359,2.9072266l0.0292969,1.3549805c0.2978516-0.4882812,0.6689453-0.8608398,1.1132812-1.1166992
				c0.4443359-0.2568359,0.9350586-0.3847656,1.472168-0.3847656c0.8496094,0,1.4819336,0.2392578,1.8969727,0.7177734
				s0.625,1.1962891,0.6298828,2.1533203v5.2001953h-0.871582V5.6245117
				c-0.0048828-0.7080078-0.1552734-1.2353516-0.4506836-1.5820312s-0.7675781-0.5200195-1.4169922-0.5200195
				c-0.5419922,0-1.0214844,0.1699219-1.4394531,0.5087891c-0.4169922,0.3398438-0.7260742,0.7973633-0.9262695,1.3735352v5.4272461
				h-0.871582V2.9072266H307.2568359z"/>
			<path class="st5" d="M320.484375,7.9536133l0.3295898,1.6552734l0.402832-1.5820312l2.3144531-7.8588867h0.8129883
				l2.2851562,7.8588867l0.3955078,1.5966797l0.3515625-1.6699219l1.9262695-7.7856445h0.9228516l-2.7319336,10.6640625h-0.8642578
				l-2.4169922-8.3422852l-0.2709961-1.0546875l-0.2636719,1.0546875l-2.4755859,8.3422852h-0.8642578l-2.7246094-10.6640625
				h0.9228516L320.484375,7.9536133z"/>
			<path class="st5" d="M336.5170898,10.8320312c-0.0878906-0.2490234-0.144043-0.6176758-0.168457-1.105957
				c-0.3076172,0.4003906-0.6992188,0.7094727-1.1757812,0.9262695c-0.4755859,0.2172852-0.9799805,0.3261719-1.512207,0.3261719
				c-0.7617188,0-1.378418-0.2124023-1.8491211-0.637207c-0.4716797-0.4248047-0.7070312-0.9619141-0.7070312-1.6113281
				c0-0.7714844,0.3208008-1.3818359,0.9628906-1.8310547s1.5371094-0.6738281,2.6845703-0.6738281h1.5893555V5.3242188
				c0-0.5664062-0.1748047-1.0117188-0.5239258-1.3369141c-0.3491211-0.3242188-0.8579102-0.4868164-1.5268555-0.4868164
				c-0.6103516,0-1.1157227,0.15625-1.5161133,0.46875s-0.6005859,0.6884766-0.6005859,1.1279297l-0.8789062-0.0073242
				c0-0.6298828,0.2929688-1.1757812,0.8789062-1.6367188c0.5859375-0.4619141,1.3061523-0.6923828,2.1606445-0.6923828
				c0.8837891,0,1.5805664,0.2211914,2.0913086,0.6630859c0.5097656,0.4418945,0.7724609,1.0581055,0.7871094,1.8491211v3.75
				c0,0.7666016,0.0805664,1.340332,0.2416992,1.7211914v0.0878906H336.5170898z M333.7631836,10.2021484
				c0.5859375,0,1.1098633-0.1416016,1.5708008-0.4248047c0.4619141-0.2832031,0.7973633-0.6616211,1.0073242-1.1352539V6.8989258
				h-1.5673828c-0.8740234,0.0097656-1.5576172,0.1699219-2.0507812,0.4799805s-0.7397461,0.7358398-0.7397461,1.277832
				c0,0.4443359,0.1650391,0.8129883,0.4941406,1.105957C332.8076172,10.0556641,333.2358398,10.2021484,333.7631836,10.2021484z"/>
			<path class="st5" d="M340.9116211,0.878418v2.0288086h1.640625V3.625h-1.640625v5.2866211
				c0,0.4399414,0.0791016,0.7675781,0.2382812,0.9824219c0.1582031,0.215332,0.4233398,0.3227539,0.7944336,0.3227539
				c0.1464844,0,0.3833008-0.0244141,0.7104492-0.0732422l0.0366211,0.7114258
				c-0.2294922,0.0825195-0.5419922,0.1235352-0.9375,0.1235352c-0.6005859,0-1.0375977-0.1743164-1.3110352-0.5234375
				s-0.4101562-0.8632812-0.4101562-1.5419922V3.625h-1.4575195V2.9072266h1.4575195V0.878418H340.9116211z"/>
			<path class="st5" d="M347.4375,10.9785156c-0.6738281,0-1.2832031-0.1660156-1.8276367-0.4980469
				s-0.9677734-0.7949219-1.2705078-1.3876953c-0.3027344-0.59375-0.4541016-1.2587891-0.4541016-1.9960938V6.7817383
				c0-0.7617188,0.1474609-1.4477539,0.4433594-2.0581055c0.2949219-0.6103516,0.706543-1.0898438,1.2338867-1.4394531
				c0.5273438-0.3486328,1.0986328-0.5234375,1.7138672-0.5234375c0.9619141,0,1.7250977,0.3286133,2.2885742,0.9853516
				c0.5644531,0.6567383,0.8461914,1.5537109,0.8461914,2.6914062v0.4907227h-5.6542969v0.168457
				c0,0.8984375,0.2573242,1.6469727,0.7729492,2.2451172c0.5146484,0.5981445,1.1630859,0.8969727,1.9443359,0.8969727
				c0.46875,0,0.8828125-0.0854492,1.2412109-0.2563477c0.359375-0.1708984,0.6850586-0.4443359,0.9780273-0.8203125
				l0.5493164,0.4174805C349.5981445,10.512207,348.6630859,10.9785156,347.4375,10.9785156z M347.2763672,3.5078125
				c-0.6591797,0-1.2148438,0.2416992-1.6665039,0.7250977s-0.7260742,1.1328125-0.8237305,1.9482422h4.753418V6.0859375
				c-0.0244141-0.7617188-0.2416992-1.3818359-0.6518555-1.8603516S347.9404297,3.5078125,347.2763672,3.5078125z"/>
			<path class="st5" d="M355.7797852,3.6542969c-0.1855469-0.0341797-0.3833008-0.0512695-0.5932617-0.0512695
				c-0.546875,0-1.0097656,0.152832-1.3881836,0.4575195c-0.378418,0.3056641-0.6479492,0.7485352-0.809082,1.3295898v5.4418945
				h-0.871582V2.9072266h0.8569336l0.0146484,1.2597656c0.4638672-0.9375,1.2084961-1.40625,2.2338867-1.40625
				c0.2441406,0,0.4370117,0.0317383,0.5786133,0.0952148L355.7797852,3.6542969z"/>
			<path class="st5" d="M358.1455078,10.8320312h-0.8789062v-11.25h0.8789062V10.8320312z"/>
			<path class="st5" d="M360.0424805,6.7524414c0-0.7617188,0.1474609-1.4477539,0.4433594-2.0581055
				c0.2949219-0.6103516,0.7124023-1.0849609,1.2519531-1.4248047c0.5395508-0.3388672,1.1513672-0.5087891,1.8349609-0.5087891
				c1.0546875,0,1.9091797,0.3701172,2.5634766,1.109375c0.6542969,0.7402344,0.9814453,1.7202148,0.9814453,2.940918v0.1831055
				c0,0.7666016-0.1479492,1.456543-0.4433594,2.0693359s-0.7114258,1.0849609-1.2485352,1.4169922
				s-1.1499023,0.4980469-1.8383789,0.4980469c-1.0498047,0-1.9033203-0.3701172-2.5595703-1.109375
				c-0.6572266-0.7402344-0.9853516-1.7202148-0.9853516-2.940918V6.7524414z M360.9213867,6.9941406
				c0,0.9472656,0.2451172,1.7246094,0.7363281,2.3330078c0.4902344,0.6074219,1.1337891,0.9116211,1.9296875,0.9116211
				c0.7910156,0,1.4316406-0.3041992,1.9228516-0.9116211c0.4902344-0.6083984,0.7358398-1.4101562,0.7358398-2.40625v-0.168457
				c0-0.6054688-0.1123047-1.159668-0.3369141-1.6625977s-0.5395508-0.8920898-0.9448242-1.1679688
				s-0.8691406-0.4140625-1.3916016-0.4140625c-0.78125,0-1.418457,0.3066406-1.9116211,0.9189453
				c-0.4931641,0.6132812-0.7397461,1.4150391-0.7397461,2.40625V6.9941406z"/>
			<path class="st5" d="M368.4433594,6.7524414c0-0.7617188,0.1474609-1.4477539,0.4433594-2.0581055
				c0.2949219-0.6103516,0.7124023-1.0849609,1.2519531-1.4248047c0.5395508-0.3388672,1.1513672-0.5087891,1.8349609-0.5087891
				c1.0546875,0,1.9091797,0.3701172,2.5634766,1.109375c0.6542969,0.7402344,0.9814453,1.7202148,0.9814453,2.940918v0.1831055
				c0,0.7666016-0.1479492,1.456543-0.4433594,2.0693359s-0.7114258,1.0849609-1.2485352,1.4169922
				s-1.1499023,0.4980469-1.8383789,0.4980469c-1.0498047,0-1.9033203-0.3701172-2.5595703-1.109375
				c-0.6572266-0.7402344-0.9853516-1.7202148-0.9853516-2.940918V6.7524414z M369.3222656,6.9941406
				c0,0.9472656,0.2451172,1.7246094,0.7363281,2.3330078c0.4902344,0.6074219,1.1337891,0.9116211,1.9296875,0.9116211
				c0.7910156,0,1.4316406-0.3041992,1.9228516-0.9116211c0.4902344-0.6083984,0.7358398-1.4101562,0.7358398-2.40625v-0.168457
				c0-0.6054688-0.1123047-1.159668-0.3369141-1.6625977s-0.5395508-0.8920898-0.9448242-1.1679688
				s-0.8691406-0.4140625-1.3916016-0.4140625c-0.78125,0-1.418457,0.3066406-1.9116211,0.9189453
				c-0.4931641,0.6132812-0.7397461,1.4150391-0.7397461,2.40625V6.9941406z"/>
		</g>
		<g>
			<path class="st5" d="M549.3476562,10.8320312V0.1679688h3.1494141c1.1425781,0,2.0092773,0.2358398,2.6000977,0.7070312
				c0.5908203,0.4716797,0.8862305,1.1665039,0.8862305,2.0854492c0,0.5517578-0.1503906,1.0317383-0.4501953,1.4399414
				c-0.3007812,0.4077148-0.7119141,0.699707-1.234375,0.8754883c0.6201172,0.1367188,1.1191406,0.4418945,1.4980469,0.9150391
				c0.3779297,0.4736328,0.5673828,1.0200195,0.5673828,1.6401367c0,0.9414062-0.3037109,1.6772461-0.9121094,2.206543
				c-0.6074219,0.5297852-1.4536133,0.7944336-2.5375977,0.7944336H549.3476562z M550.2485352,4.9506836h2.4609375
				c0.7519531-0.0146484,1.3339844-0.1918945,1.746582-0.5317383c0.4125977-0.340332,0.6191406-0.8354492,0.6191406-1.4863281
				c0-0.6845703-0.2138672-1.1894531-0.640625-1.5151367c-0.4277344-0.3251953-1.0732422-0.487793-1.9375-0.487793h-2.2485352
				V4.9506836z M550.2485352,5.7124023v4.3579102h2.7026367c0.7714844,0,1.3828125-0.1962891,1.8349609-0.5883789
				c0.4511719-0.3925781,0.6772461-0.9375,0.6772461-1.6342773c0-0.6582031-0.2163086-1.1787109-0.6479492-1.5610352
				c-0.4326172-0.3828125-1.0292969-0.5742188-1.7910156-0.5742188H550.2485352z"/>
			<path class="st5" d="M561.996582,3.6542969c-0.1855469-0.0341797-0.3833008-0.0512695-0.5932617-0.0512695
				c-0.546875,0-1.0097656,0.152832-1.3881836,0.4575195c-0.378418,0.3056641-0.6479492,0.7485352-0.809082,1.3295898v5.4418945
				h-0.871582V2.9072266h0.8569336l0.0146484,1.2597656c0.4638672-0.9375,1.2084961-1.40625,2.2338867-1.40625
				c0.2441406,0,0.4370117,0.0317383,0.5786133,0.0952148L561.996582,3.6542969z"/>
			<path class="st5" d="M562.7509766,6.7524414c0-0.7617188,0.1474609-1.4477539,0.4433594-2.0581055
				c0.2949219-0.6103516,0.7124023-1.0849609,1.2519531-1.4248047c0.5395508-0.3388672,1.1513672-0.5087891,1.8349609-0.5087891
				c1.0546875,0,1.9091797,0.3701172,2.5634766,1.109375c0.6542969,0.7402344,0.9814453,1.7202148,0.9814453,2.940918v0.1831055
				c0,0.7666016-0.1479492,1.456543-0.4433594,2.0693359s-0.7114258,1.0849609-1.2485352,1.4169922
				s-1.1499023,0.4980469-1.8383789,0.4980469c-1.0498047,0-1.9033203-0.3701172-2.5595703-1.109375
				c-0.6572266-0.7402344-0.9853516-1.7202148-0.9853516-2.940918V6.7524414z M563.6298828,6.9941406
				c0,0.9472656,0.2451172,1.7246094,0.7363281,2.3330078c0.4902344,0.6074219,1.1337891,0.9116211,1.9296875,0.9116211
				c0.7910156,0,1.4316406-0.3041992,1.9228516-0.9116211c0.4902344-0.6083984,0.7358398-1.4101562,0.7358398-2.40625v-0.168457
				c0-0.6054688-0.1123047-1.159668-0.3369141-1.6625977s-0.5395508-0.8920898-0.9448242-1.1679688
				s-0.8691406-0.4140625-1.3916016-0.4140625c-0.78125,0-1.418457,0.3066406-1.9116211,0.9189453
				c-0.4931641,0.6132812-0.7397461,1.4150391-0.7397461,2.40625V6.9941406z"/>
			<path class="st5" d="M574.5649414,10.2387695c0.6103516,0,1.121582-0.1723633,1.5341797-0.5161133
				c0.4125977-0.3447266,0.6362305-0.7900391,0.6704102-1.3369141h0.8422852
				c-0.0244141,0.4833984-0.1757812,0.9243164-0.4541016,1.3222656s-0.6484375,0.7089844-1.109375,0.9335938
				c-0.4619141,0.2246094-0.9560547,0.3369141-1.4833984,0.3369141c-1.0400391,0-1.8642578-0.3613281-2.4716797-1.0839844
				c-0.6083984-0.7226562-0.9121094-1.6943359-0.9121094-2.9150391V6.7158203c0-0.78125,0.1367188-1.472168,0.4101562-2.0727539
				s0.6650391-1.0644531,1.1757812-1.3916016c0.5097656-0.3271484,1.1069336-0.4907227,1.7905273-0.4907227
				c0.8691406,0,1.5854492,0.2587891,2.1499023,0.7763672c0.5634766,0.5175781,0.8652344,1.1987305,0.9042969,2.043457h-0.8422852
				c-0.0390625-0.6201172-0.2626953-1.1206055-0.6704102-1.5014648s-0.9213867-0.5712891-1.5415039-0.5712891
				c-0.7910156,0-1.4052734,0.2856445-1.8422852,0.8569336s-0.6552734,1.3720703-0.6552734,2.4023438v0.2563477
				c0,1.0107422,0.2182617,1.7993164,0.6552734,2.3657227S573.769043,10.2387695,574.5649414,10.2387695z"/>
			<path class="st5" d="M581.2446289,6.840332l-1.003418,0.9667969v3.0249023h-0.8789062v-11.25h0.8789062v7.199707
				l0.8276367-0.8935547l3.0322266-2.980957h1.105957l-3.3618164,3.3398438L585.5,10.8320312h-1.0473633L581.2446289,6.840332z"/>
			<path class="st5" d="M589.6308594,10.9785156c-0.6738281,0-1.2832031-0.1660156-1.8276367-0.4980469
				s-0.9677734-0.7949219-1.2705078-1.3876953c-0.3027344-0.59375-0.4541016-1.2587891-0.4541016-1.9960938V6.7817383
				c0-0.7617188,0.1474609-1.4477539,0.4433594-2.0581055c0.2949219-0.6103516,0.706543-1.0898438,1.2338867-1.4394531
				c0.5273438-0.3486328,1.0986328-0.5234375,1.7138672-0.5234375c0.9619141,0,1.7250977,0.3286133,2.2885742,0.9853516
				c0.5644531,0.6567383,0.8461914,1.5537109,0.8461914,2.6914062v0.4907227h-5.6542969v0.168457
				c0,0.8984375,0.2573242,1.6469727,0.7729492,2.2451172c0.5146484,0.5981445,1.1630859,0.8969727,1.9443359,0.8969727
				c0.46875,0,0.8828125-0.0854492,1.2412109-0.2563477c0.359375-0.1708984,0.6850586-0.4443359,0.9780273-0.8203125
				l0.5493164,0.4174805C591.7915039,10.512207,590.8564453,10.9785156,589.6308594,10.9785156z M589.4697266,3.5078125
				c-0.6591797,0-1.2148438,0.2416992-1.6665039,0.7250977s-0.7260742,1.1328125-0.8237305,1.9482422h4.753418V6.0859375
				c-0.0244141-0.7617188-0.2416992-1.3818359-0.6518555-1.8603516S590.1337891,3.5078125,589.4697266,3.5078125z"/>
			<path class="st5" d="M595.1459961,2.9072266l0.0292969,1.3549805c0.2978516-0.4882812,0.6689453-0.8608398,1.1132812-1.1166992
				c0.4443359-0.2568359,0.9350586-0.3847656,1.472168-0.3847656c0.8496094,0,1.4819336,0.2392578,1.8969727,0.7177734
				s0.625,1.1962891,0.6298828,2.1533203v5.2001953h-0.871582V5.6245117
				c-0.0048828-0.7080078-0.1552734-1.2353516-0.4506836-1.5820312s-0.7675781-0.5200195-1.4169922-0.5200195
				c-0.5419922,0-1.0214844,0.1699219-1.4394531,0.5087891c-0.4169922,0.3398438-0.7260742,0.7973633-0.9262695,1.3735352v5.4272461
				h-0.871582V2.9072266H595.1459961z"/>
			<path class="st5" d="M603.4223633,4.2475586c0.2880859-0.4736328,0.6567383-0.8398438,1.105957-1.0986328
				s0.9399414-0.3881836,1.472168-0.3881836c0.8496094,0,1.4819336,0.2392578,1.8969727,0.7177734
				s0.625,1.1962891,0.6298828,2.1533203v5.2001953h-0.871582V5.6245117
				c-0.0048828-0.7080078-0.1552734-1.2353516-0.4506836-1.5820312s-0.7675781-0.5200195-1.4169922-0.5200195
				c-0.5419922,0-1.0214844,0.1699219-1.4394531,0.5087891c-0.4169922,0.3398438-0.7260742,0.7973633-0.9262695,1.3735352v5.4272461
				h-0.871582v-11.25h0.871582V4.2475586z"/>
			<path class="st5" d="M615.8808594,9.8286133c-0.5273438,0.7666016-1.3696289,1.1499023-2.5268555,1.1499023
				c-0.8447266,0-1.4868164-0.2451172-1.9262695-0.7363281c-0.4394531-0.4902344-0.6640625-1.2167969-0.6738281-2.1787109v-5.15625
				h0.871582v5.0463867c0,1.5087891,0.6103516,2.2631836,1.8310547,2.2631836c1.2695312,0,2.0727539-0.5249023,2.409668-1.574707
				V2.9072266h0.8789062v7.9248047h-0.8496094L615.8808594,9.8286133z"/>
			<path class="st5" d="M622.6850586,3.6542969c-0.1855469-0.0341797-0.3833008-0.0512695-0.5932617-0.0512695
				c-0.546875,0-1.0097656,0.152832-1.3881836,0.4575195c-0.378418,0.3056641-0.6479492,0.7485352-0.809082,1.3295898v5.4418945
				h-0.871582V2.9072266h0.8569336l0.0146484,1.2597656c0.4638672-0.9375,1.2084961-1.40625,2.2338867-1.40625
				c0.2441406,0,0.4370117,0.0317383,0.5786133,0.0952148L622.6850586,3.6542969z"/>
			<path class="st5" d="M628.8154297,8.8178711c0-0.4345703-0.1748047-0.7836914-0.5234375-1.0473633
				c-0.3496094-0.2636719-0.8754883-0.4697266-1.5786133-0.6191406c-0.703125-0.1484375-1.2485352-0.3193359-1.637207-0.5126953
				c-0.3876953-0.1923828-0.6762695-0.4282227-0.8642578-0.706543s-0.2817383-0.6152344-0.2817383-1.0107422
				c0-0.625,0.2612305-1.1411133,0.7836914-1.5493164c0.5224609-0.4072266,1.1914062-0.6113281,2.0068359-0.6113281
				c0.8837891,0,1.5927734,0.21875,2.1279297,0.6552734c0.5341797,0.4375,0.8017578,1.0073242,0.8017578,1.7104492h-0.8789062
				c0-0.4638672-0.1943359-0.8496094-0.5820312-1.1572266c-0.3886719-0.3076172-0.8779297-0.4614258-1.46875-0.4614258
				c-0.5761719,0-1.0390625,0.1279297-1.3876953,0.3847656c-0.3496094,0.2558594-0.5239258,0.5893555-0.5239258,0.9995117
				c0,0.3955078,0.1450195,0.7021484,0.4360352,0.9194336c0.2900391,0.2172852,0.8203125,0.4160156,1.5888672,0.5966797
				c0.7695312,0.1806641,1.3452148,0.3735352,1.7285156,0.5786133s0.6679688,0.4516602,0.8535156,0.7397461
				s0.2783203,0.637207,0.2783203,1.0473633c0,0.6689453-0.2700195,1.2036133-0.8095703,1.6040039
				s-1.2436523,0.6005859-2.112793,0.6005859c-0.9228516,0-1.6713867-0.2236328-2.2446289-0.6699219
				c-0.5742188-0.4472656-0.8608398-1.012207-0.8608398-1.6958008h0.8789062
				c0.0341797,0.5126953,0.25,0.9116211,0.6479492,1.1977539c0.3979492,0.2851562,0.9243164,0.4282227,1.5786133,0.4282227
				c0.6103516,0,1.1035156-0.1342773,1.4794922-0.402832S628.8154297,9.2280273,628.8154297,8.8178711z"/>
			<path class="st5" d="M633.0268555,0.878418v2.0288086h1.640625V3.625h-1.640625v5.2866211
				c0,0.4399414,0.0791016,0.7675781,0.2382812,0.9824219c0.1582031,0.215332,0.4233398,0.3227539,0.7944336,0.3227539
				c0.1464844,0,0.3833008-0.0244141,0.7104492-0.0732422l0.0366211,0.7114258
				c-0.2294922,0.0825195-0.5419922,0.1235352-0.9375,0.1235352c-0.6005859,0-1.0375977-0.1743164-1.3110352-0.5234375
				s-0.4101562-0.8632812-0.4101562-1.5419922V3.625h-1.4575195V2.9072266h1.4575195V0.878418H633.0268555z"/>
		</g>
		<g>
			<path class="st5" d="M810.9824219,10.0703125h5.2666016v0.7617188h-6.1748047V0.1679688h0.9082031V10.0703125z"/>
			<path class="st5" d="M819.3105469,9.5722656L821.625,2.9072266h0.9443359l-3.3837891,9.2724609l-0.1757812,0.4101562
				c-0.4345703,0.9619141-1.1054688,1.4428711-2.0136719,1.4428711c-0.2099609,0-0.4345703-0.0341797-0.6738281-0.1025391
				l-0.0078125-0.7250977l0.4541016,0.0439453c0.4296875,0,0.7773438-0.1064453,1.0439453-0.3183594
				c0.265625-0.2128906,0.4921875-0.5776367,0.6777344-1.0952148l0.3876953-1.0693359l-2.9882812-7.8588867h0.9599609
				L819.3105469,9.5722656z"/>
			<path class="st5" d="M824.7226562,2.9072266l0.0292969,1.2890625c0.2929688-0.4785156,0.6591797-0.8374023,1.0986328-1.0766602
				s0.9277344-0.3588867,1.4648438-0.3588867c1.25,0,2.0439453,0.5126953,2.3808594,1.5380859
				c0.2832031-0.4931641,0.6611328-0.8725586,1.1347656-1.1386719s0.9960938-0.3994141,1.5673828-0.3994141
				c1.6992188,0,2.5664062,0.9277344,2.6005859,2.7832031v5.2880859h-0.8789062v-5.222168
				c-0.0048828-0.7080078-0.1572266-1.2329102-0.4580078-1.574707c-0.2998047-0.3417969-0.7900391-0.5126953-1.46875-0.5126953
				c-0.6298828,0.0097656-1.1621094,0.2138672-1.5966797,0.6113281c-0.4345703,0.3984375-0.6757812,0.8828125-0.7246094,1.4541016
				v5.2441406h-0.8789062V5.5439453c-0.0048828-0.6787109-0.1650391-1.1850586-0.4794922-1.5195312
				c-0.3154297-0.3344727-0.7998047-0.5019531-1.4541016-0.5019531c-0.5517578,0-1.0253906,0.1572266-1.4208984,0.4726562
				c-0.3955078,0.3144531-0.6884766,0.7822266-0.8789062,1.4023438v5.4345703h-0.8789062V2.9072266H824.7226562z"/>
			<path class="st5" d="M837.1669922,0.6181641c0-0.1645508,0.0537109-0.3041992,0.1611328-0.418457
				c0.1074219-0.1137695,0.2539062-0.1708984,0.4394531-0.1708984s0.3330078,0.0571289,0.4423828,0.1708984
				C838.3203125,0.3139648,838.375,0.4536133,838.375,0.6181641c0,0.1650391-0.0546875,0.3037109-0.1650391,0.4150391
				c-0.109375,0.1118164-0.2568359,0.1674805-0.4423828,0.1674805s-0.3320312-0.0556641-0.4394531-0.1674805
				C837.2207031,0.921875,837.1669922,0.7832031,837.1669922,0.6181641z M838.1992188,10.8320312h-0.8789062V2.9072266h0.8789062
				V10.8320312z"/>
			<path class="st5" d="M841.4150391,2.9072266l0.0292969,1.3549805c0.2978516-0.4882812,0.6689453-0.8608398,1.1132812-1.1166992
				c0.4443359-0.2568359,0.9345703-0.3847656,1.4716797-0.3847656c0.8496094,0,1.4824219,0.2392578,1.8974609,0.7177734
				s0.625,1.1962891,0.6298828,2.1533203v5.2001953h-0.8720703V5.6245117
				c-0.0048828-0.7080078-0.1552734-1.2353516-0.4501953-1.5820312c-0.2958984-0.3466797-0.7675781-0.5200195-1.4169922-0.5200195
				c-0.5419922,0-1.0214844,0.1699219-1.4394531,0.5087891c-0.4169922,0.3398438-0.7265625,0.7973633-0.9267578,1.3735352v5.4272461
				h-0.8710938V2.9072266H841.4150391z"/>
			<path class="st5" d="M848.4677734,6.7963867c0-1.2402344,0.2744141-2.2231445,0.8242188-2.9477539
				c0.5488281-0.7255859,1.2949219-1.0878906,2.2373047-1.0878906c1.0791016,0,1.8994141,0.4296875,2.4609375,1.2890625
				l0.0439453-1.1425781h0.8203125v7.7636719c0,1.0205078-0.2851562,1.8286133-0.8564453,2.4243164
				s-1.3457031,0.8935547-2.3222656,0.8935547c-0.5517578,0-1.078125-0.1235352-1.578125-0.3696289
				c-0.5009766-0.2470703-0.8945312-0.5751953-1.1826172-0.9853516l0.4902344-0.5273438
				c0.6201172,0.7617188,1.3574219,1.1425781,2.2119141,1.1425781c0.7324219,0,1.3037109-0.2158203,1.7138672-0.6484375
				c0.4101562-0.4316406,0.6230469-1.03125,0.6376953-1.7978516V9.8066406
				c-0.5615234,0.78125-1.3798828,1.171875-2.4541016,1.171875c-0.9179688,0-1.6552734-0.3662109-2.2119141-1.0986328
				s-0.8349609-1.7211914-0.8349609-2.9663086V6.7963867z M849.3544922,6.9501953
				c0,1.0107422,0.2021484,1.8081055,0.6074219,2.3916016s0.9765625,0.875,1.7138672,0.875
				c1.0791016,0,1.84375-0.4833984,2.2929688-1.4501953v-3.684082c-0.2050781-0.5078125-0.5009766-0.8945312-0.8867188-1.1606445
				s-0.8496094-0.3994141-1.3916016-0.3994141c-0.7373047,0-1.3105469,0.2890625-1.7207031,0.8681641
				C849.5595703,4.96875,849.3544922,5.8222656,849.3544922,6.9501953z"/>
			<path class="st5" d="M858.5019531,0.878418v2.0288086h1.640625V3.625h-1.640625v5.2866211
				c0,0.4399414,0.0791016,0.7675781,0.2382812,0.9824219c0.1582031,0.215332,0.4238281,0.3227539,0.7949219,0.3227539
				c0.1464844,0,0.3828125-0.0244141,0.7099609-0.0732422l0.0371094,0.7114258
				c-0.2294922,0.0825195-0.5419922,0.1235352-0.9375,0.1235352c-0.6005859,0-1.0380859-0.1743164-1.3115234-0.5234375
				s-0.4101562-0.8632812-0.4101562-1.5419922V3.625h-1.4570312V2.9072266h1.4570312V0.878418H858.5019531z"/>
			<path class="st5" d="M861.3291016,6.7524414c0-0.7617188,0.1474609-1.4477539,0.4433594-2.0581055
				c0.2949219-0.6103516,0.7128906-1.0849609,1.2519531-1.4248047c0.5400391-0.3388672,1.1513672-0.5087891,1.8349609-0.5087891
				c1.0546875,0,1.9091797,0.3701172,2.5634766,1.109375c0.6542969,0.7402344,0.9814453,1.7202148,0.9814453,2.940918v0.1831055
				c0,0.7666016-0.1474609,1.456543-0.4433594,2.0693359c-0.2949219,0.612793-0.7109375,1.0849609-1.2480469,1.4169922
				s-1.1503906,0.4980469-1.8388672,0.4980469c-1.0498047,0-1.9033203-0.3701172-2.5595703-1.109375
				c-0.6572266-0.7402344-0.9853516-1.7202148-0.9853516-2.940918V6.7524414z M862.2080078,6.9941406
				c0,0.9472656,0.2451172,1.7246094,0.7363281,2.3330078c0.4902344,0.6074219,1.1337891,0.9116211,1.9296875,0.9116211
				c0.7910156,0,1.4316406-0.3041992,1.9228516-0.9116211c0.4902344-0.6083984,0.7363281-1.4101562,0.7363281-2.40625v-0.168457
				c0-0.6054688-0.1123047-1.159668-0.3369141-1.6625977s-0.5400391-0.8920898-0.9453125-1.1679688
				s-0.8691406-0.4140625-1.3916016-0.4140625c-0.78125,0-1.4179688,0.3066406-1.9111328,0.9189453
				c-0.4931641,0.6132812-0.7402344,1.4150391-0.7402344,2.40625V6.9941406z"/>
			<path class="st5" d="M871.0488281,2.9072266l0.0292969,1.3549805c0.2978516-0.4882812,0.6689453-0.8608398,1.1132812-1.1166992
				c0.4443359-0.2568359,0.9345703-0.3847656,1.4716797-0.3847656c0.8496094,0,1.4824219,0.2392578,1.8974609,0.7177734
				s0.625,1.1962891,0.6298828,2.1533203v5.2001953h-0.8720703V5.6245117
				c-0.0048828-0.7080078-0.1552734-1.2353516-0.4501953-1.5820312c-0.2958984-0.3466797-0.7675781-0.5200195-1.4169922-0.5200195
				c-0.5419922,0-1.0214844,0.1699219-1.4394531,0.5087891c-0.4169922,0.3398438-0.7265625,0.7973633-0.9267578,1.3735352v5.4272461
				h-0.8710938V2.9072266H871.0488281z"/>
			<path class="st5" d="M889.2490234,0.9296875h-3.6542969v9.9023438h-0.9013672V0.9296875h-3.6474609V0.1679688h8.203125V0.9296875
				z"/>
			<path class="st5" d="M889.5566406,6.7524414c0-0.7617188,0.1474609-1.4477539,0.4433594-2.0581055
				c0.2949219-0.6103516,0.7128906-1.0849609,1.2519531-1.4248047c0.5400391-0.3388672,1.1513672-0.5087891,1.8349609-0.5087891
				c1.0546875,0,1.9091797,0.3701172,2.5634766,1.109375c0.6542969,0.7402344,0.9814453,1.7202148,0.9814453,2.940918v0.1831055
				c0,0.7666016-0.1474609,1.456543-0.4433594,2.0693359c-0.2949219,0.612793-0.7109375,1.0849609-1.2480469,1.4169922
				s-1.1503906,0.4980469-1.8388672,0.4980469c-1.0498047,0-1.9033203-0.3701172-2.5595703-1.109375
				c-0.6572266-0.7402344-0.9853516-1.7202148-0.9853516-2.940918V6.7524414z M890.4355469,6.9941406
				c0,0.9472656,0.2451172,1.7246094,0.7363281,2.3330078c0.4902344,0.6074219,1.1337891,0.9116211,1.9296875,0.9116211
				c0.7910156,0,1.4316406-0.3041992,1.9228516-0.9116211c0.4902344-0.6083984,0.7363281-1.4101562,0.7363281-2.40625v-0.168457
				c0-0.6054688-0.1123047-1.159668-0.3369141-1.6625977s-0.5400391-0.8920898-0.9453125-1.1679688
				s-0.8691406-0.4140625-1.3916016-0.4140625c-0.78125,0-1.4179688,0.3066406-1.9111328,0.9189453
				c-0.4931641,0.6132812-0.7402344,1.4150391-0.7402344,2.40625V6.9941406z"/>
			<path class="st5" d="M900.3378906,9.0083008l0.1318359,0.6811523l0.1757812-0.7177734l1.9042969-6.0644531h0.7470703
				l1.8828125,6.0131836l0.2050781,0.8349609l0.1679688-0.769043l1.6259766-6.0791016h0.9082031l-2.3066406,7.9248047h-0.7470703
				l-2.0361328-6.2841797l-0.0957031-0.4321289l-0.0947266,0.4394531l-2,6.2768555h-0.7470703l-2.2998047-7.9248047h0.9013672
				L900.3378906,9.0083008z"/>
			<path class="st5" d="M910.5849609,2.9072266l0.0292969,1.3549805c0.2978516-0.4882812,0.6689453-0.8608398,1.1132812-1.1166992
				c0.4443359-0.2568359,0.9345703-0.3847656,1.4716797-0.3847656c0.8496094,0,1.4824219,0.2392578,1.8974609,0.7177734
				s0.625,1.1962891,0.6298828,2.1533203v5.2001953h-0.8720703V5.6245117
				c-0.0048828-0.7080078-0.1552734-1.2353516-0.4501953-1.5820312c-0.2958984-0.3466797-0.7675781-0.5200195-1.4169922-0.5200195
				c-0.5419922,0-1.0214844,0.1699219-1.4394531,0.5087891c-0.4169922,0.3398438-0.7265625,0.7973633-0.9267578,1.3735352v5.4272461
				H909.75V2.9072266H910.5849609z"/>
		</g>
		<g>
			<path class="st5" d="M1090.8710938,0.1679688l3.9331055,9.4116211l3.9477539-9.4116211h1.2011719v10.6640625h-0.9008789
				V6.1884766l0.0732422-4.7607422l-3.9697266,9.4042969h-0.6958008l-3.9550781-9.3676758l0.0732422,4.6948242v4.6728516h-0.9008789
				V0.1679688H1090.8710938z"/>
			<path class="st5" d="M1102.3994141,0.6181641c0-0.1645508,0.0537109-0.3041992,0.1611328-0.418457
				c0.1074219-0.1137695,0.2539062-0.1708984,0.4394531-0.1708984s0.3334961,0.0571289,0.4428711,0.1708984
				c0.1103516,0.1142578,0.1650391,0.2539062,0.1650391,0.418457c0,0.1650391-0.0546875,0.3037109-0.1650391,0.4150391
				c-0.109375,0.1118164-0.2573242,0.1674805-0.4428711,0.1674805s-0.3320312-0.0556641-0.4394531-0.1674805
				C1102.453125,0.921875,1102.3994141,0.7832031,1102.3994141,0.6181641z M1103.4321289,10.8320312h-0.8789062V2.9072266h0.8789062
				V10.8320312z"/>
			<path class="st5" d="M1106.7939453,10.8320312h-0.8789062v-11.25h0.8789062V10.8320312z"/>
			<path class="st5" d="M1109.8041992,10.8320312V3.625h-1.3110352V2.9072266h1.3110352V1.9477539
				c0-0.8105469,0.2060547-1.4331055,0.6191406-1.8676758c0.4121094-0.4345703,0.9873047-0.6518555,1.7246094-0.6518555
				c0.3320312,0,0.6420898,0.0410156,0.9301758,0.1235352l-0.065918,0.7260742
				c-0.2441406-0.0585938-0.5102539-0.0878906-0.7983398-0.0878906c-0.4833984,0-0.859375,0.1503906-1.1279297,0.4516602
				s-0.402832,0.7285156-0.402832,1.2817383v0.9838867h1.8896484V3.625h-1.8896484v7.2070312H1109.8041992z"/>
			<path class="st5" d="M1113.6567383,6.7524414c0-0.7617188,0.1474609-1.4477539,0.4433594-2.0581055
				c0.2949219-0.6103516,0.7124023-1.0849609,1.2519531-1.4248047c0.5395508-0.3388672,1.1513672-0.5087891,1.8349609-0.5087891
				c1.0546875,0,1.9091797,0.3701172,2.5634766,1.109375c0.6542969,0.7402344,0.9814453,1.7202148,0.9814453,2.940918v0.1831055
				c0,0.7666016-0.1479492,1.456543-0.4433594,2.0693359s-0.7114258,1.0849609-1.2485352,1.4169922
				s-1.1499023,0.4980469-1.8383789,0.4980469c-1.0498047,0-1.9033203-0.3701172-2.5595703-1.109375
				c-0.6572266-0.7402344-0.9853516-1.7202148-0.9853516-2.940918V6.7524414z M1114.5356445,6.9941406
				c0,0.9472656,0.2451172,1.7246094,0.7363281,2.3330078c0.4902344,0.6074219,1.1337891,0.9116211,1.9296875,0.9116211
				c0.7910156,0,1.4316406-0.3041992,1.9228516-0.9116211c0.4902344-0.6083984,0.7358398-1.4101562,0.7358398-2.40625v-0.168457
				c0-0.6054688-0.1123047-1.159668-0.3369141-1.6625977s-0.5395508-0.8920898-0.9448242-1.1679688
				s-0.8691406-0.4140625-1.3916016-0.4140625c-0.78125,0-1.418457,0.3066406-1.9116211,0.9189453
				c-0.4931641,0.6132812-0.7397461,1.4150391-0.7397461,2.40625V6.9941406z"/>
			<path class="st5" d="M1126.203125,3.6542969c-0.1855469-0.0341797-0.3833008-0.0512695-0.5932617-0.0512695
				c-0.546875,0-1.0097656,0.152832-1.3881836,0.4575195c-0.378418,0.3056641-0.6479492,0.7485352-0.809082,1.3295898v5.4418945
				h-0.871582V2.9072266h0.8569336l0.0146484,1.2597656c0.4638672-0.9375,1.2084961-1.40625,2.2338867-1.40625
				c0.2441406,0,0.4370117,0.0317383,0.5786133,0.0952148L1126.203125,3.6542969z"/>
			<path class="st5" d="M1127.0966797,6.7963867c0-1.2304688,0.2744141-2.2104492,0.8242188-2.940918
				c0.5488281-0.7294922,1.2949219-1.0947266,2.2373047-1.0947266c1.0693359,0,1.8847656,0.4223633,2.4462891,1.2670898v-4.4458008
				h0.8720703v11.25h-0.8203125l-0.0371094-1.0546875c-0.5615234,0.8007812-1.3867188,1.2011719-2.4755859,1.2011719
				c-0.9130859,0-1.6494141-0.3671875-2.2080078-1.1025391c-0.5595703-0.734375-0.8388672-1.7270508-0.8388672-2.9770508V6.7963867z
				 M1127.9824219,6.9501953c0,1.0107422,0.203125,1.8081055,0.6083984,2.3916016s0.9765625,0.875,1.7138672,0.875
				c1.0791016,0,1.8457031-0.4760742,2.2998047-1.4282227V5.0678711c-0.4541016-1.0302734-1.2158203-1.5454102-2.2851562-1.5454102
				c-0.7373047,0-1.3115234,0.2890625-1.7216797,0.8681641C1128.1875,4.96875,1127.9824219,5.8222656,1127.9824219,6.9501953z"/>
			<path class="st5" d="M1138.9472656,6.7524414c0-0.7617188,0.1474609-1.4477539,0.4433594-2.0581055
				c0.2949219-0.6103516,0.7128906-1.0849609,1.2519531-1.4248047c0.5390625-0.3388672,1.1513672-0.5087891,1.8349609-0.5087891
				c1.0546875,0,1.9091797,0.3701172,2.5634766,1.109375c0.6542969,0.7402344,0.9814453,1.7202148,0.9814453,2.940918v0.1831055
				c0,0.7666016-0.1474609,1.456543-0.4433594,2.0693359s-0.7119141,1.0849609-1.2490234,1.4169922
				s-1.1494141,0.4980469-1.8378906,0.4980469c-1.0498047,0-1.9033203-0.3701172-2.5595703-1.109375
				c-0.6572266-0.7402344-0.9853516-1.7202148-0.9853516-2.940918V6.7524414z M1139.8261719,6.9941406
				c0,0.9472656,0.2451172,1.7246094,0.7363281,2.3330078c0.4902344,0.6074219,1.1337891,0.9116211,1.9296875,0.9116211
				c0.7910156,0,1.4316406-0.3041992,1.9228516-0.9116211c0.4902344-0.6083984,0.7353516-1.4101562,0.7353516-2.40625v-0.168457
				c0-0.6054688-0.1113281-1.159668-0.3359375-1.6625977s-0.5400391-0.8920898-0.9453125-1.1679688
				S1143,3.5078125,1142.4775391,3.5078125c-0.78125,0-1.4189453,0.3066406-1.9111328,0.9189453
				c-0.4941406,0.6132812-0.7402344,1.4150391-0.7402344,2.40625V6.9941406z"/>
			<path class="st5" d="M1148.6660156,2.9072266l0.0292969,1.3549805c0.2988281-0.4882812,0.6699219-0.8608398,1.1132812-1.1166992
				c0.4453125-0.2568359,0.9355469-0.3847656,1.4726562-0.3847656c0.8496094,0,1.4824219,0.2392578,1.8964844,0.7177734
				c0.4160156,0.4785156,0.625,1.1962891,0.6308594,2.1533203v5.2001953h-0.8720703V5.6245117
				c-0.0048828-0.7080078-0.1552734-1.2353516-0.4501953-1.5820312c-0.2958984-0.3466797-0.7675781-0.5200195-1.4179688-0.5200195
				c-0.5410156,0-1.0214844,0.1699219-1.4394531,0.5087891c-0.4160156,0.3398438-0.7255859,0.7973633-0.9257812,1.3735352v5.4272461
				h-0.8710938V2.9072266H1148.6660156z"/>
			<path class="st5" d="M1165.9589844,8.2099609c0-0.5908203-0.2070312-1.0585938-0.6230469-1.4023438
				c-0.4140625-0.3447266-1.1738281-0.6713867-2.2773438-0.9814453s-1.9091797-0.6484375-2.4169922-1.0146484
				c-0.7226562-0.5175781-1.0839844-1.1962891-1.0839844-2.0361328c0-0.8154297,0.3349609-1.4780273,1.0068359-1.9882812
				s1.5292969-0.765625,2.5742188-0.765625c0.7089844,0,1.3417969,0.1367188,1.9013672,0.4101562
				c0.5585938,0.2734375,0.9921875,0.6542969,1.2998047,1.1425781s0.4609375,1.0327148,0.4609375,1.6333008h-0.9082031
				c0-0.7294922-0.2480469-1.3164062-0.7460938-1.7592773c-0.4980469-0.4433594-1.1679688-0.6650391-2.0078125-0.6650391
				c-0.8144531,0-1.4648438,0.1821289-1.9472656,0.5463867c-0.484375,0.3647461-0.7255859,0.8398438-0.7255859,1.4267578
				c0,0.5429688,0.2177734,0.9858398,0.6513672,1.328125c0.4355469,0.3422852,1.1308594,0.6445312,2.0878906,0.9057617
				c0.9570312,0.2617188,1.6816406,0.5332031,2.1757812,0.8134766c0.4921875,0.28125,0.8632812,0.6166992,1.1132812,1.0073242
				c0.2480469,0.390625,0.3730469,0.8520508,0.3730469,1.3842773c0,0.8398438-0.3359375,1.5136719-1.0068359,2.0214844
				c-0.671875,0.5078125-1.5566406,0.7617188-2.6552734,0.7617188c-0.7519531,0-1.4414062-0.1342773-2.0693359-0.402832
				s-1.1035156-0.6445312-1.4277344-1.1279297c-0.3251953-0.4833984-0.4873047-1.0375977-0.4873047-1.6625977h0.9003906
				c0,0.7519531,0.28125,1.3452148,0.8427734,1.7797852s1.3085938,0.6518555,2.2412109,0.6518555
				c0.8300781,0,1.4960938-0.1831055,2-0.5493164C1165.7070312,9.3012695,1165.9589844,8.8154297,1165.9589844,8.2099609z"/>
			<path class="st5" d="M1171.671875,10.9785156c-0.6738281,0-1.2832031-0.1660156-1.828125-0.4980469
				c-0.5439453-0.3320312-0.9667969-0.7949219-1.2695312-1.3876953c-0.3027344-0.59375-0.4550781-1.2587891-0.4550781-1.9960938
				V6.7817383c0-0.7617188,0.1484375-1.4477539,0.4433594-2.0581055s0.7070312-1.0898438,1.234375-1.4394531
				c0.5273438-0.3486328,1.0986328-0.5234375,1.7138672-0.5234375c0.9619141,0,1.7255859,0.3286133,2.2880859,0.9853516
				c0.5644531,0.6567383,0.8466797,1.5537109,0.8466797,2.6914062v0.4907227h-5.6542969v0.168457
				c0,0.8984375,0.2568359,1.6469727,0.7724609,2.2451172s1.1640625,0.8969727,1.9453125,0.8969727
				c0.46875,0,0.8828125-0.0854492,1.2402344-0.2563477c0.359375-0.1708984,0.6855469-0.4443359,0.9785156-0.8203125
				l0.5488281,0.4174805C1173.8320312,10.512207,1172.8974609,10.9785156,1171.671875,10.9785156z M1171.5107422,3.5078125
				c-0.6591797,0-1.2148438,0.2416992-1.6669922,0.7250977c-0.4511719,0.4833984-0.7255859,1.1328125-0.8232422,1.9482422h4.7529297
				V6.0859375c-0.0234375-0.7617188-0.2412109-1.3818359-0.6513672-1.8603516S1172.1748047,3.5078125,1171.5107422,3.5078125z"/>
			<path class="st5" d="M1181.3544922,10.8320312c-0.0878906-0.2490234-0.1435547-0.6176758-0.1689453-1.105957
				c-0.3066406,0.4003906-0.6992188,0.7094727-1.1757812,0.9262695c-0.4746094,0.2172852-0.9794922,0.3261719-1.5117188,0.3261719
				c-0.7617188,0-1.3789062-0.2124023-1.8496094-0.637207s-0.7070312-0.9619141-0.7070312-1.6113281
				c0-0.7714844,0.3212891-1.3818359,0.9628906-1.8310547c0.6425781-0.4492188,1.5371094-0.6738281,2.6855469-0.6738281h1.5888672
				V5.3242188c0-0.5664062-0.1748047-1.0117188-0.5244141-1.3369141c-0.3486328-0.3242188-0.8574219-0.4868164-1.5263672-0.4868164
				c-0.6103516,0-1.1162109,0.15625-1.5166016,0.46875s-0.5996094,0.6884766-0.5996094,1.1279297l-0.8789062-0.0073242
				c0-0.6298828,0.2929688-1.1757812,0.8789062-1.6367188c0.5859375-0.4619141,1.3056641-0.6923828,2.1601562-0.6923828
				c0.8837891,0,1.5800781,0.2211914,2.0917969,0.6630859c0.5097656,0.4418945,0.7714844,1.0581055,0.7871094,1.8491211v3.75
				c0,0.7666016,0.0800781,1.340332,0.2412109,1.7211914v0.0878906H1181.3544922z M1178.6005859,10.2021484
				c0.5859375,0,1.1103516-0.1416016,1.5712891-0.4248047s0.796875-0.6616211,1.0068359-1.1352539V6.8989258h-1.5673828
				c-0.8740234,0.0097656-1.5576172,0.1699219-2.0507812,0.4799805s-0.7402344,0.7358398-0.7402344,1.277832
				c0,0.4443359,0.1660156,0.8129883,0.4941406,1.105957C1177.6445312,10.0556641,1178.0732422,10.2021484,1178.6005859,10.2021484z
				"/>
		</g>
	</g>
</g>
</svg>
