<?xml version="1.0" encoding="utf-8"?>
<!-- Generator: Adobe Illustrator 19.1.0, SVG Export Plug-In . SVG Version: 6.00 Build 0)  -->
<svg version="1.1" id="Layer_1" xmlns="http://www.w3.org/2000/svg" xmlns:xlink="http://www.w3.org/1999/xlink" x="0px" y="0px"
	 viewBox="-602 348 75 117.1994781" style="enable-background:new -602 348 75 117.1994781;" xml:space="preserve">
<style type="text/css">
	.st0{fill:#0F2D47;}
	.st1{fill:#FFFFFF;}
	.st2{fill:#28BF6A;}
</style>
<g>
	<path class="st0" d="M-538.9150391,465.1994934h-51.1699219c-6.5805054,0-11.9150391-5.3345642-11.9150391-11.9150696v-93.3692017
		c0-6.5805054,5.3345337-11.9150696,11.9150391-11.9150696h51.1699219c6.5805054,0,11.9150391,5.3345642,11.9150391,11.9150696
		v93.3692017C-527,459.8649292-532.3345337,465.1994934-538.9150391,465.1994934z"/>
	<path class="st1" d="M-542.776062,454.7727356h-43.447876c-5.227478,0-9.4651489-4.2377014-9.4651489-9.4651489v-73.2865295
		c0-5.2274475,4.2376709-9.4651489,9.4651489-9.4651489h43.447876c5.227478,0,9.4651489,4.2377014,9.4651489,9.4651489v73.2865295
		C-533.3109131,450.5350342-537.548584,454.7727356-542.776062,454.7727356z"/>
	<path class="st2" d="M-534.8446655,382.1401978h-42.5732422c-3.3065796,0-5.9870605-2.6805115-5.9870605-5.9870605v-1.5104065
		c0-3.3065491,2.680481-5.98703,5.9870605-5.98703h42.5732422c3.3065796,0,5.9870605,2.680481,5.9870605,5.98703v1.5104065
		C-528.857605,379.4596863-531.5380859,382.1401978-534.8446655,382.1401978z"/>
	<path class="st2" d="M-534.8446655,428.8117065h-42.5732422c-3.3065796,0-5.9870605-2.6805115-5.9870605-5.9870605v-1.5104065
		c0-3.3065491,2.680481-5.98703,5.9870605-5.98703h42.5732422c3.3065796,0,5.9870605,2.680481,5.9870605,5.98703v1.5104065
		C-528.857605,426.1311951-531.5380859,428.8117065-534.8446655,428.8117065z"/>
	<path class="st2" d="M-547.1205444,407.6383057h-48.6132202c-2.6757202,0-4.8448486-2.1690979-4.8448486-4.8448486v-8.618866
		c0-2.6757507,2.1691284-4.8448792,4.8448486-4.8448792h48.6132202c2.6757202,0,4.8448486,2.1691284,4.8448486,4.8448792v8.618866
		c0,1.6316833-0.8065796,3.0749512-2.0428467,3.9528503C-545.1095581,407.308075-546.0764771,407.6383057-547.1205444,407.6383057z"
		/>
</g>
</svg>
