<?xml version="1.0" encoding="utf-8"?>
<!-- Generator: Adobe Illustrator 19.0.1, SVG Export Plug-In . SVG Version: 6.00 Build 0)  -->
<svg version="1.1" xmlns="http://www.w3.org/2000/svg" xmlns:xlink="http://www.w3.org/1999/xlink" x="0px" y="0px"
	 viewBox="0 0 375 667" style="enable-background:new 0 0 375 667;" xml:space="preserve">
<style type="text/css">
	.st0{fill:#FAC78D;}
	.st1{fill:#EA812C;}
	.st2{fill:#112D46;}
	.st3{fill:#FBBC30;}
	.st4{opacity:0.4;fill:#F6BD59;}
	.st5{opacity:0.1;fill:#112D46;}
	.st6{fill:#418CCB;}
	.st7{clip-path:url(#SVGID_2_);fill:#48B4E7;}
	.st8{fill:#48B4E7;}
	.st9{opacity:0.1;}
	.st10{clip-path:url(#SVGID_4_);fill:#112D46;}
	.st11{fill:#FFFFFF;}
	.st12{opacity:0.3;fill:#A1C9EA;}
	.st13{opacity:0.2;clip-path:url(#SVGID_6_);fill:#FFFFFF;}
	.st14{opacity:0.2;clip-path:url(#SVGID_8_);fill:#FFFFFF;}
	.st15{fill:none;stroke:#112D46;stroke-width:2;stroke-miterlimit:10;}
	.st16{fill:none;stroke:#112D46;stroke-width:3;stroke-miterlimit:10;}
	.st17{opacity:0.2;fill:#112D46;}
	.st18{fill:#E51F40;}
	.st19{fill:none;stroke:#F9E925;stroke-miterlimit:10;}
	.st20{clip-path:url(#SVGID_10_);fill:#112D46;}
	.st21{fill:#102D45;}
	.st22{fill:#102D45;stroke:#112D46;stroke-width:3;stroke-miterlimit:10;}
	.st23{fill:#EA602C;stroke:#FFFFFF;stroke-width:3;stroke-miterlimit:10;}
	.st24{fill:#47B3E7;stroke:#FFFFFF;stroke-width:3;stroke-miterlimit:10;}
	.st25{fill:#E51F40;stroke:#FFFFFF;stroke-width:3;stroke-miterlimit:10;}
	.st26{clip-path:url(#SVGID_12_);fill:#48B4E7;}
	.st27{clip-path:url(#SVGID_14_);fill:#112D46;}
	.st28{clip-path:url(#SVGID_16_);fill:#48B4E7;}
	.st29{opacity:0.1;fill:#FBBC30;}
	.st30{clip-path:url(#SVGID_18_);fill:#112D46;}
	.st31{clip-path:url(#SVGID_20_);fill:#48B4E7;}
	.st32{clip-path:url(#SVGID_22_);fill:#112D46;}
	.st33{fill:#FFFFFF;stroke:#FBBC30;stroke-miterlimit:10;}
	.st34{opacity:0.05;}
	.st35{display:none;}
	.st36{display:inline;}
	.st37{clip-path:url(#SVGID_24_);fill:#48B4E7;}
	.st38{clip-path:url(#SVGID_26_);fill:#112D46;}
	.st39{clip-path:url(#SVGID_28_);fill:#112D46;}
	.st40{fill:#EA602C;}
	.st41{opacity:0.5;fill:#EA602C;}
	.st42{opacity:0.5;clip-path:url(#SVGID_30_);}
	.st43{opacity:0.5;clip-path:url(#SVGID_32_);}
	.st44{opacity:0.5;clip-path:url(#SVGID_34_);}
	.st45{opacity:0.5;clip-path:url(#SVGID_36_);}
	.st46{clip-path:url(#SVGID_38_);fill:#48B4E7;}
	.st47{fill:#169B38;}
	.st48{clip-path:url(#SVGID_40_);fill:#112D46;}
	.st49{fill:#F6A733;}
	.st50{fill:#FBC353;}
	.st51{opacity:0.3;fill:#FBC353;}
	.st52{clip-path:url(#SVGID_42_);fill:#48B4E7;}
	.st53{clip-path:url(#SVGID_44_);fill:#112D46;}
	.st54{clip-path:url(#SVGID_46_);}
	.st55{fill:#EAEEF2;}
	.st56{opacity:0.45;fill:#418CCB;}
</style>
<g id="Layer_1">
	<path class="st0" d="M255.5576782,520.4396362c0.5498657-1.934021,2.5654297-3.0568237,4.5005493-2.506897l0,0
		c1.9350586,0.5498657,3.0567932,2.5643921,2.5068665,4.4994507l-14.5031586,51.0041504
		c-0.5509338,1.9361572-2.5654297,3.0588989-4.5005341,2.5090332l0,0c-1.9350739-0.5509644-3.0578156-2.5665283-2.5069275-4.5005493
		L255.5576782,520.4396362z"/>
	<path class="st1" d="M256.8079834,562.2315063l13.2350769-38.3106079c1.3308105-3.8513184-0.7130127-8.0518799-4.5632629-9.3826904
		c-3.8514099-1.3297729-8.052948,0.7129517-9.3837585,4.5643311l-12.9360809,37.4439087
		C247.6772461,558.5181274,252.2311096,560.4019775,256.8079834,562.2315063z"/>
	<path class="st2" d="M248.390213,607.3822632c0,0.7642212-0.618866,1.3831177-1.3831024,1.3831177l0,0
		c-0.7631073,0-1.3820343-0.6188965-1.3820343-1.3831177v-35.2369995c0-0.7642822,0.618927-1.3831177,1.3820343-1.3831177l0,0
		c0.7642365,0,1.3831024,0.6188354,1.3831024,1.3831177V607.3822632z"/>
	<path class="st3" d="M252.4945679,638.2055054c0,2.9564819-2.3971558,5.3526001-5.3525696,5.3526001h-12.3109131
		c-2.9564362,0-5.3525696-2.3961182-5.3525696-5.3526001v-46.5673218c0-2.9553833,2.3961334-5.3526001,5.3525696-5.3526001
		h12.3109131c2.9554138,0,5.3525696,2.3972168,5.3525696,5.3526001V638.2055054z"/>
	<circle class="st2" cx="250.3535309" cy="643.0228271" r="3.7467978"/>
	<path class="st4" d="M234.6523132,637.3137817c0,0.5906372,0.4787903,1.0704956,1.0705109,1.0704956l0,0
		c0.5906525,0,1.0705109-0.4798584,1.0705109-1.0704956v-43.7133179c0-0.5906982-0.4798584-1.0704956-1.0705109-1.0704956l0,0
		c-0.5917206,0-1.0705109,0.4797974-1.0705109,1.0704956V637.3137817z"/>
	<path class="st4" d="M240.0048828,637.3137817c0,0.5906372,0.4787903,1.0704956,1.0705109,1.0704956l0,0
		c0.5906525,0,1.0705109-0.4798584,1.0705109-1.0704956v-43.7133179c0-0.5906982-0.4798584-1.0704956-1.0705109-1.0704956l0,0
		c-0.5917206,0-1.0705109,0.4797974-1.0705109,1.0704956V637.3137817z"/>
	<path class="st4" d="M245.8927002,637.3137817c0,0.5906372,0.4787903,1.0704956,1.0705261,1.0704956l0,0
		c0.5906525,0,1.0705109-0.4798584,1.0705109-1.0704956v-43.7133179c0-0.5906982-0.4798584-1.0704956-1.0705109-1.0704956l0,0
		c-0.5917358,0-1.0705261,0.4797974-1.0705261,1.0704956V637.3137817z"/>
	<circle class="st0" cx="246.6286774" cy="573.2836914" r="5.8209181"/>
	<path class="st5" d="M268.1821899,558.1585083c0.2289429,0.0292969,0.4558411,0.0679932,0.6774292,0.1286011
		c1.821167,0.5007324,3.018158,1.7855835,3.5481567,3.3631592c2.0553284-0.1850586,4.2956543,0.6156616,5.2710571,2.5759277
		c0.9858398,1.9810181,1.3464966,3.9620972,1.2377625,6.0258179c0.1860657,0.1463013,0.3638306,0.3052368,0.5321045,0.4787598
		c0.2969055,0.0564575,0.5875549,0.1348877,0.8729553,0.2362671c0.0920105-0.102478,0.1881409-0.1975708,0.2770386-0.302124
		c1.0872192-1.2764893,2.0803833-2.6281738,3.1603394-3.9098511c2.757782-3.2722168,6.1062927-5.5554199,10.5388794-4.8926392
		c2.2528992-5.3389893,4.3154907-10.7814331,5.9411316-16.3461914c1.391449-4.7609253,3.0244141-10.5504761,3.5209656-14.9799194
		c0.3962708-3.5376587,0.5917358-7.4978027,1.9863586-10.8870239c-4.5538635-9.4966431-14.3108521-16.0012512-25.5344849-15.8528137
		c-15.4074707,0.2038879-27.7330017,12.8587341-27.529129,28.2661438l0.2153473,16.3002319
		c0.068985,5.2396851,1.580658,10.1207886,4.149292,14.2763062c0.3847046-1.2617798,0.7547913-2.53302,1.079895-3.8251953
		C259.4748535,553.458313,266.3516541,554.2109985,268.1821899,558.1585083z"/>
	<rect x="275.3705444" y="565.6981201" class="st6" width="6.9321647" height="78.5624847"/>
	<path class="st1" d="M310.0315247,546.0200806c0.2038574,15.4074707-12.1216431,28.0623169-27.5291138,28.2661743l0,0
		c-15.4074707,0.2038574-28.0623016-12.1217041-28.2661743-27.5291748l-0.215332-16.3002319
		c-0.2038879-15.4074097,12.1216431-28.0622559,27.5291138-28.2661438l0,0
		c15.4064026-0.2027893,28.0622864,12.1216736,28.2661743,27.5291443L310.0315247,546.0200806z"/>
	<g>
		<defs>
			<path id="SVGID_1_" d="M310.0095825,546.0420532c0.2038574,15.4074707-12.1217041,28.0622559-27.5291138,28.2661743l0,0
				c-15.4085083,0.2038574-28.0633698-12.1206055-28.2661743-27.5291138l-0.2164001-16.300293
				c-0.2028198-15.4064331,12.1227112-28.0622864,27.5291138-28.2661743l0,0
				c15.4074707-0.2027893,28.0633545,12.1217041,28.2672424,27.5291748L310.0095825,546.0420532z"/>
		</defs>
		<clipPath id="SVGID_2_">
			<use xlink:href="#SVGID_1_"  style="overflow:visible;"/>
		</clipPath>
		<path class="st7" d="M319.0284424,585.3197021h-71.9429169v-29.7360229c0,0,14.9161224,3.7404785,35.7796173,3.7404785
			s36.1632996-3.7404785,36.1632996-3.7404785V585.3197021z"/>
	</g>
	<rect x="265.8279114" y="643.8299561" class="st2" width="16.6285038" height="1.8702409"/>
	<path class="st0" d="M291.0717468,503.1943054c0,4.7640076-3.8607483,8.6247559-8.6237183,8.6247559l0,0
		c-4.7640076,0-8.6257935-3.8607483-8.6257935-8.6247559v-22.0793457c0-4.7629089,3.8617859-8.6247559,8.6257935-8.6247559l0,0
		c4.76297,0,8.6237183,3.8618469,8.6237183,8.6247559V503.1943054z"/>
	<g>
		<path class="st5" d="M309.8287048,535.8491821c-0.1871338-2.9804688-0.5059814-5.9589233-0.604248-8.9436035
			c-2.0813904-2.1221924-4.3646545-4.0625-6.6332397-5.9725342c-0.0930176-0.0783691-0.17453-0.1641235-0.2581787-0.2477417
			c-2.3960876,1.479248-4.0614929,4.1168823-4.3479004,7.1005249l0.8854675,39.0998535
			c0.9753418-0.3418579,1.4238281-0.6690674,1.872345-0.9847412c0.7119446-0.5028687,1.4364014-0.9869385,2.1472778-1.4907837
			c0.4181824-0.2958374,0.8405762-0.588562,1.2420044-0.9064331c0.2414551-0.1933594,0.3700867-0.2958374,0.3909607-0.3094482
			c0.8405151-0.6795044,1.7949829-1.1541138,2.778717-1.3632202c1.1698608-0.4118652,2.4222717-0.4473877,3.5921326-0.0041504
			c-0.1296387-4.2214355-0.2917175-8.4418335-0.4454041-12.657959
			C310.285553,544.7269287,310.1078491,540.2849121,309.8287048,535.8491821z"/>
		<path class="st0" d="M309.6342468,526.9003296c0.0094299-2.0113525-1.6151428-3.6495361-3.6265259-3.6589966l0,0
			c-2.0114441-0.0083618-3.6485291,1.6151733-3.6579285,3.6265869l-0.2341919,53.0259399
			c-0.0094299,2.0125122,1.6141357,3.6506958,3.6255188,3.6590576l0,0c2.0124512,0.0093994,3.6506042-1.6151733,3.6589661-3.6265869
			L309.6342468,526.9003296z"/>
		<path class="st1" d="M300.042511,566.5700073l-2.2298889-39.9655151c-0.2080688-4.0687866-0.1390686-7.920105,3.9308167-8.130249
			c4.067749-0.2069702,7.5364075,2.9229736,7.7455444,6.9917603l2.0270691,39.5630493
			c-2.1504517,1.0067139-2.5749207,1.3182373-5.229248,1.6307983
			C301.1098938,567.2693481,302.2786865,566.9317017,300.042511,566.5700073z"/>
		<circle class="st0" cx="303.5342102" cy="580.1442871" r="5.8209877"/>
	</g>
	<rect x="282.0393066" y="571.0507202" class="st8" width="6.9321647" height="78.5624847"/>
	<rect x="281.884552" y="649.1824951" class="st2" width="16.6295738" height="1.8702409"/>
	<g class="st9">
		<path class="st2" d="M290.8291626,503.1253357c-1.1635132-0.8885803-2.0552673-1.7270813-2.4598694-3.1990356
			c-0.2550354-0.9481506-0.2550354-1.8963623,0-2.8456421c0.5404968-1.9664307,2.0751953-3.2763672,3.9402466-3.7436218
			c0.7233887-1.9994202,0.5843811-4.2507019,0.7182007-6.3384094c0.1087036-1.7155457,0.434906-3.2993774,0.859314-4.8826599
			c-0.5519714-0.5368347-1.1384583-1.0386353-1.7625427-1.4913025c0.2623596-0.8833618,0.4056091-1.8190002,0.4056091-2.7870789
			c0-3.6611023-2.0177002-6.8475342-4.9981689-8.5212708c-1.0245361,0.7140198-2.0249939,1.4646606-3.0014038,2.2435303
			c0.0585022,1.0746765-0.1348877,2.1812134-0.562439,3.1503601c-1.5755005,3.5685425-4.6019897,6.2626038-6.0007935,10.0219116
			c-0.7872009,2.1133728-1.5231628,4.282074-1.8921814,6.5140991c-0.1620789,0.9743042-0.1955261,1.9475708-0.2195435,2.9344788
			c-0.0136108,0.5122375,0.0282593,0.8321533,0.0637817,1.0004578c1.3119812,2.4724426,0.7924194,5.7623596-1.9005737,7.2312012
			c-0.0167542,0.0094299-0.0366211,0.0177612-0.0543823,0.0271912c-0.2289429,0.1787415-0.4725342,0.3512268-0.7485046,0.5080566
			c-0.767334,0.434906-1.4740601,0.9367065-2.2142029,1.4154968c2.9188232,3.1759949,7.1057434,5.1665039,11.7578735,5.1665039
			c4.3583374,0,8.3027649-1.7531738,11.1839294-4.584198c-0.2425232-0.143219-0.4819336-0.2948303-0.7161255-0.4609985
			C292.3743591,504.121582,291.5537109,503.6794128,290.8291626,503.1253357z"/>
	</g>
	<g>
		<g>
			<path class="st0" d="M292.2133484,478.5725098c0.2623901-0.8833923,0.4056091-1.8179932,0.4056091-2.7860718
				c0-5.3964539-4.374054-9.7705383-9.7695007-9.7705383c-5.3953857,0-9.7694397,4.3740845-9.7694397,9.7705383
				c0,0.9680786,0.143219,1.9026794,0.4056091,2.7860718c-4.0018921,2.9020996-6.6060486,7.6148682-6.6060486,12.9360657
				c0,8.8202515,7.1507263,15.9698792,15.9698792,15.9698792c8.8192139,0,15.9699402-7.1496277,15.9699402-15.9698792
				C298.819397,486.1873779,296.21521,481.4746094,292.2133484,478.5725098z"/>
		</g>
		<g>
			<defs>
				<path id="SVGID_3_" d="M292.2133484,478.5725098c0.2623901-0.8833923,0.4056091-1.8179932,0.4056091-2.7860718
					c0-5.3964539-4.374054-9.7705383-9.7695007-9.7705383c-5.3953857,0-9.7694397,4.3740845-9.7694397,9.7705383
					c0,0.9680786,0.143219,1.9026794,0.4056091,2.7860718c-4.0018921,2.9020996-6.6060486,7.6148682-6.6060486,12.9360657
					c0,8.8202515,7.1507263,15.9698792,15.9698792,15.9698792c8.8192139,0,15.9699402-7.1496277,15.9699402-15.9698792
					C298.819397,486.1873779,296.21521,481.4746094,292.2133484,478.5725098z"/>
			</defs>
			<clipPath id="SVGID_4_">
				<use xlink:href="#SVGID_3_"  style="overflow:visible;"/>
			</clipPath>
			<path class="st10" d="M296.6187439,480.8766174c-0.0449219-1.8786316-0.6272278-3.6464233-1.4520569-5.3232727
				c-0.1829529-0.3700867-0.2770386-0.7662964-0.2718506-1.1510315c-0.394104-0.7004395-0.8018188-1.3946228-1.2085266-2.0887451
				c-1.0579224-1.0820007-2.0573425-2.2581177-2.5278015-3.6715393c-1.0255432-0.6941528-2.2152405-1.2137451-3.59729-1.4709167
				c0,0-0.1704102,8.0874023,7.5291443,10.9089966l1.7354126,3.6746521
				C296.7023926,481.5059814,296.6271362,481.214325,296.6187439,480.8766174z"/>
			<path class="st10" d="M272.7590637,472.1347961c-0.2770386-0.0345154-0.4380493-0.1243896-0.4380493-0.1243896l1.56604-3.8210449
				l6.513031-3.5690918l5.0106812,1.06427l2.5675659,1.6904297
				C287.9783325,467.3749695,283.7819824,473.5126648,272.7590637,472.1347961z"/>
		</g>
		<circle class="st2" cx="279.4173279" cy="476.9009094" r="0.8143933"/>
		<circle class="st2" cx="285.9308777" cy="476.9009094" r="0.813858"/>
		<path class="st11" d="M281.3649902,481.040741c0.0323792,0.5582581,0.4944458,1.0014954,1.0621643,1.0014954
			c0.5666199,0,1.028656-0.4432373,1.0610962-1.0014954H281.3649902z"/>
		<g>
			<circle class="st12" cx="278.0394897" cy="477.0362549" r="3.6872237"/>
			<g>
				<defs>
					<circle id="SVGID_5_" cx="278.0394897" cy="477.0362549" r="3.6872237"/>
				</defs>
				<clipPath id="SVGID_6_">
					<use xlink:href="#SVGID_5_"  style="overflow:visible;"/>
				</clipPath>
				
					<rect x="275.7738647" y="472.6390686" transform="matrix(0.9563546 0.2922085 -0.2922085 0.9563546 151.4610291 -60.0817337)" class="st13" width="2.1644118" height="8.681469"/>
			</g>
			<circle class="st12" cx="287.3636169" cy="477.0362549" r="3.687197"/>
			<g>
				<defs>
					<circle id="SVGID_7_" cx="287.586792" cy="477.303894" r="3.6866884"/>
				</defs>
				<clipPath id="SVGID_8_">
					<use xlink:href="#SVGID_7_"  style="overflow:visible;"/>
				</clipPath>
				
					<rect x="285.287323" y="472.500824" transform="matrix(0.9564168 0.2920049 -0.2920049 0.9564168 151.7210388 -62.8390007)" class="st14" width="2.1642711" height="8.6819801"/>
			</g>
			<g>
				<circle class="st15" cx="278.0394897" cy="477.0362549" r="3.6872237"/>
				<circle class="st15" cx="287.3636169" cy="477.0362549" r="3.687197"/>
				<line class="st16" x1="281.8960571" y1="476.968811" x2="283.6617737" y2="476.968811"/>
			</g>
		</g>
	</g>
	<path class="st17" d="M257.9359741,646.0786133c0,0.8499146-0.6889038,1.5388794-1.5388489,1.5388794H229.500473
		c-0.8499451,0-1.5388641-0.6889648-1.5388641-1.5388794l0,0c0-0.8499146,0.6889191-1.5388794,1.5388641-1.5388794h26.8966522
		C257.2470703,644.5397339,257.9359741,645.2286987,257.9359741,646.0786133L257.9359741,646.0786133z"/>
	<g>
		<g>
			<path class="st0" d="M174.68367,519.1130371c0.2022858-2.0009766,1.9889221-3.4603882,3.9904175-3.258606l0,0
				c2.000946,0.2017212,3.4593048,1.9883423,3.2580566,3.9903564l-5.3238373,52.7573242
				c-0.2017365,2.0029907-1.9883728,3.4613647-3.9893341,3.2595825l0,0
				c-2.0020142-0.2017212-3.4613953-1.9884033-3.2585907-3.9903564L174.68367,519.1130371z"/>
			<circle class="st0" cx="175.170578" cy="572.7029419" r="5.821157"/>
		</g>
		<rect x="189.1941833" y="563.5571289" class="st0" width="6.9321647" height="78.5624847"/>
		<rect x="179.6515656" y="641.6889038" class="st2" width="16.6285038" height="1.8702409"/>
		<rect x="195.8629456" y="568.909668" class="st0" width="6.9321647" height="78.5624847"/>
		<rect x="195.7082062" y="647.0415039" class="st2" width="16.6295738" height="1.8702409"/>
		<rect x="174.3465118" y="545.6959839" class="st18" width="42.2858391" height="40.8572235"/>
		<path class="st18" d="M218.2381287,543.732666c0,12.1207275-9.8249054,21.9455566-21.9455261,21.9455566l0,0
			c-12.120636,0-21.9455566-9.8248291-21.9455566-21.9455566v-21.4102783c0-12.1206055,9.8249207-21.9454956,21.9455566-21.9454956
			l0,0c12.1206207,0,21.9455261,9.8248901,21.9455261,21.9454956V543.732666z"/>
		<circle class="st19" cx="183.6690979" cy="482.0223999" r="5.4863825"/>
		<circle class="st19" cx="210.4319458" cy="482.0223999" r="5.4863825"/>
		<path class="st0" d="M204.895401,501.0532837c0,4.7640076-3.8607483,8.6247559-8.6237335,8.6247559l0,0
			c-4.7639923,0-8.6257629-3.8607483-8.6257629-8.6247559V478.973938c0-4.7629089,3.8617706-8.6247559,8.6257629-8.6247559l0,0
			c4.7629852,0,8.6237335,3.8618469,8.6237335,8.6247559V501.0532837z"/>
		<g>
			<path class="st0" d="M218.2841034,523.6888428c0.0084076-2.0114136-1.6151276-3.6495972-3.6265717-3.6590576l0,0
				c-2.0113983-0.0083618-3.6495514,1.6152344-3.6589661,3.6265869l-0.2341766,53.026001
				c-0.0083466,2.0124512,1.6151886,3.6506348,3.6265869,3.6589966l0,0
				c2.0113831,0.0093994,3.6506042-1.6151733,3.6579437-3.6265869L218.2841034,523.6888428z"/>
			<circle class="st0" cx="212.184082" cy="576.9327393" r="5.8209877"/>
		</g>
		<g class="st9">
			<path class="st2" d="M204.652832,500.9842834c-1.1635437-0.8885803-2.0552826-1.7270508-2.4598846-3.1990051
				c-0.2550507-0.9481506-0.2550507-1.8963623,0-2.8456421c0.5404968-1.9664307,2.0751953-3.2763672,3.9402466-3.7436523
				c0.7233887-1.9993896,0.5843811-4.2506714,0.7182007-6.3383789c0.1087036-1.7155762,0.4348907-3.2993774,0.8592987-4.8826904
				c-0.5519562-0.5368042-1.1384277-1.0386047-1.7625427-1.491272c0.2623749-0.8833923,0.4056091-1.8190002,0.4056091-2.7870789
				c0-3.6611023-2.0177002-6.8475342-4.9981689-8.5213013c-1.0245361,0.7140503-2.0249786,1.4646912-3.0014038,2.2435303
				c0.0585022,1.074707-0.1348724,2.1812439-0.562439,3.1503601c-1.5754852,3.568573-4.6019745,6.2626343-6.0007629,10.0219421
				c-0.7872009,2.1133728-1.5231781,4.282074-1.8921967,6.5140686c-0.1620636,0.9743347-0.1955261,1.9476013-0.2195587,2.9345093
				c-0.0135956,0.5122375,0.0282593,0.8321533,0.063797,1.0004578c1.3119812,2.4724426,0.7924042,5.7623596-1.900589,7.2312012
				c-0.0167542,0.0094299-0.0366058,0.0177612-0.0543823,0.0271912c-0.2289276,0.1787109-0.4725189,0.3512268-0.7484894,0.5080566
				c-0.7673492,0.434906-1.4740448,0.9367065-2.2142029,1.4154968c2.918808,3.1759949,7.1057434,5.1665039,11.7578735,5.1665039
				c4.3583374,0,8.3027496-1.7531738,11.1839294-4.584198c-0.2425232-0.1432495-0.4819489-0.2948303-0.7161255-0.4610291
				C206.1980133,501.9805603,205.3773499,501.5383911,204.652832,500.9842834z"/>
		</g>
		<g>
			<g>
				<path class="st0" d="M206.0370026,476.431488c0.2623749-0.8833923,0.4056091-1.8180237,0.4056091-2.7860718
					c0-5.3964539-4.374054-9.7705383-9.7695007-9.7705383c-5.3953857,0-9.769455,4.3740845-9.769455,9.7705383
					c0,0.9680481,0.1432343,1.9026794,0.4056244,2.7860718c-4.0019073,2.9020996-6.6060333,7.6148682-6.6060333,12.9360657
					c0,8.8202515,7.1507111,15.9698792,15.9698639,15.9698792c8.8192139,0,15.9699249-7.1496277,15.9699249-15.9698792
					C212.6430359,484.0463562,210.0388489,479.3335876,206.0370026,476.431488z"/>
			</g>
			<g>
				<defs>
					<path id="SVGID_9_" d="M206.0370026,476.431488c0.2623749-0.8833923,0.4056091-1.8180237,0.4056091-2.7860718
						c0-5.3964539-4.374054-9.7705383-9.7695007-9.7705383c-5.3953857,0-9.769455,4.3740845-9.769455,9.7705383
						c0,0.9680481,0.1432343,1.9026794,0.4056244,2.7860718c-4.0019073,2.9020996-6.6060333,7.6148682-6.6060333,12.9360657
						c0,8.8202515,7.1507111,15.9698792,15.9698639,15.9698792c8.8192139,0,15.9699249-7.1496277,15.9699249-15.9698792
						C212.6430359,484.0463562,210.0388489,479.3335876,206.0370026,476.431488z"/>
				</defs>
				<clipPath id="SVGID_10_">
					<use xlink:href="#SVGID_9_"  style="overflow:visible;"/>
				</clipPath>
				<path class="st20" d="M211.6017914,479.7172546c-0.0449524-1.8791809-0.6272583-3.6464233-1.4520874-5.323822
					c-0.1829529-0.3700867-0.2770538-0.7662659-0.2718048-1.1504822c-0.394165-0.7009888-0.8018646-1.3951416-1.2085571-2.0892639
					c-1.0579376-1.0820312-2.057373-2.2581482-2.5278015-3.6715393c-1.0255585-0.6941833-2.215271-1.2132263-3.5973053-1.4703979
					c0,0-0.1704254,8.086853,7.5291443,10.9084778l1.7353973,3.6746216
					C211.6854095,480.3460693,211.6101532,480.0544128,211.6017914,479.7172546z"/>
				<polygon class="st20" points="187.2371216,469.3320007 195.4447479,469.3320007 196.4703064,465.8528137 
					197.5857849,469.1981812 208.7822723,469.1981812 203.1171265,461.7495422 191.8767242,461.9721985 187.4608612,466.7895203 
									"/>
				<path class="st20" d="M181.6080475,478.6467285c0.0449524-1.8786316,0.6272583-3.6464233,1.4526215-5.3232727
					c0.1824188-0.3700867,0.2765198-0.7663269,0.2718048-1.1510315c0.3941193-0.7004395,0.8013306-1.3945923,1.2079773-2.0887756
					c1.0579834-1.0819702,2.0574188-2.2580872,2.5283813-3.6714783c1.0255585-0.6941833,2.2152252-1.2137451,3.5973053-1.4709473
					c0,0,0.1703796,8.0874023-7.5291443,10.9090271l-1.7359314,3.6746216
					C181.5244293,479.2760925,181.5996857,478.984375,181.6080475,478.6467285z"/>
			</g>
			<circle class="st2" cx="193.2409973" cy="474.7598572" r="0.8143933"/>
			<circle class="st2" cx="199.7545319" cy="474.7598572" r="0.813858"/>
			<path class="st11" d="M195.0548096,479.3874207c0.0512238,0.875,0.7756958,1.5697021,1.6643372,1.5697021
				c0.8885803,0,1.61203-0.6947021,1.6632538-1.5697021H195.0548096z"/>
			<g>
				<g>
					<path class="st21" d="M196.5675659,474.7572327c0,2.7970581-2.2675629,5.0661011-5.0661621,5.0661011
						c-2.7954254,0-5.0661011-2.269043-5.0661011-5.0661011c0-2.7970276,2.2706757-4.5303345,5.0661011-4.5303345
						C194.3000031,470.2268982,196.5675659,471.9602051,196.5675659,474.7572327z"/>
					<path class="st21" d="M206.9255829,474.7128296c0,2.7975159-2.2685852,5.0661011-5.0661011,5.0661011
						c-2.7965088,0-5.0650787-2.2685852-5.0650787-5.0661011c0-2.7970581,2.2685699-4.5298462,5.0650787-4.5298462
						C204.6569977,470.1829834,206.9255829,471.9157715,206.9255829,474.7128296z"/>
					<line class="st22" x1="195.0161133" y1="473.4603577" x2="197.4425354" y2="473.4603577"/>
				</g>
			</g>
		</g>
		<ellipse class="st2" cx="196.3929596" cy="454.5340576" rx="8.5756178" ry="10.8953667"/>
		<g>
			<path class="st17" d="M191.9655762,654.3751221c0,0.8499146-0.6889191,1.5388184-1.5388641,1.5388184h-64.3646393
				c-0.8499374,0-1.5388641-0.6889038-1.5388641-1.5388184l0,0c0-0.8499756,0.6889267-1.5388794,1.5388641-1.5388794h64.3646393
				C191.2766571,652.8362427,191.9655762,653.5251465,191.9655762,654.3751221L191.9655762,654.3751221z"/>
			<g>
				<path class="st2" d="M161.4775696,603.3033447v4.3253174h-7.6707001v-4.3253174H161.4775696 M162.125,597.3033447h-8.9655762
					c-2.9564056,0-5.3525543,2.3961182-5.3525543,5.3525391v5.6202393c0,2.9553833,2.3961487,5.3525391,5.3525543,5.3525391H162.125
					c2.9554138,0,5.3525696-2.3971558,5.3525696-5.3525391v-5.6202393
					C167.4775696,599.6994629,165.0804138,597.3033447,162.125,597.3033447L162.125,597.3033447z"/>
			</g>
			<rect x="134.4923706" y="652.635498" class="st2" width="4.2151475" height="1.7395847"/>
			<rect x="178.3834381" y="652.635498" class="st2" width="4.2151475" height="1.7395847"/>
			<path class="st3" d="M190.7612457,647.7512817c0,2.9554443-2.3971405,5.3526001-5.3525543,5.3526001h-54.3285828
				c-2.9564362,0-5.3525696-2.3971558-5.3525696-5.3526001v-38.0032349c0-2.9564209,2.3961334-5.3525391,5.3525696-5.3525391
				h54.3285828c2.9554138,0,5.3525543,2.3961182,5.3525543,5.3525391V647.7512817z"/>
			<path class="st4" d="M136.5215302,644.5397339c0,0.5906982,0.4798584,1.0705566,1.0705109,1.0705566l0,0
				c0.5917206,0,1.0705109-0.4798584,1.0705109-1.0705566v-30.3318481c0-0.5906982-0.4787903-1.0705566-1.0705109-1.0705566l0,0
				c-0.5906525,0-1.0705109,0.4798584-1.0705109,1.0705566V644.5397339z"/>
			<path class="st4" d="M142.4093475,644.5397339c0,0.5906982,0.4798584,1.0705566,1.0705109,1.0705566l0,0
				c0.5917358,0,1.0705109-0.4798584,1.0705109-1.0705566v-30.3318481c0-0.5906982-0.478775-1.0705566-1.0705109-1.0705566l0,0
				c-0.5906525,0-1.0705109,0.4798584-1.0705109,1.0705566V644.5397339z"/>
			<path class="st4" d="M148.2971802,644.5397339c0,0.5906982,0.4798584,1.0705566,1.0705109,1.0705566l0,0
				c0.5917206,0,1.0705109-0.4798584,1.0705109-1.0705566v-30.3318481c0-0.5906982-0.4787903-1.0705566-1.0705109-1.0705566l0,0
				c-0.5906525,0-1.0705109,0.4798584-1.0705109,1.0705566V644.5397339z"/>
			<path class="st4" d="M154.1849976,644.5397339c0,0.5906982,0.4798584,1.0705566,1.0705109,1.0705566l0,0
				c0.5917358,0,1.0705109-0.4798584,1.0705109-1.0705566v-30.3318481c0-0.5906982-0.478775-1.0705566-1.0705109-1.0705566l0,0
				c-0.5906525,0-1.0705109,0.4798584-1.0705109,1.0705566V644.5397339z"/>
			<path class="st4" d="M160.0728302,644.5397339c0,0.5906982,0.4798584,1.0705566,1.0705109,1.0705566l0,0
				c0.5917206,0,1.0705109-0.4798584,1.0705109-1.0705566v-30.3318481c0-0.5906982-0.4787903-1.0705566-1.0705109-1.0705566l0,0
				c-0.5906525,0-1.0705109,0.4798584-1.0705109,1.0705566V644.5397339z"/>
			<path class="st4" d="M165.9606476,644.5397339c0,0.5906982,0.4798584,1.0705566,1.0705109,1.0705566l0,0
				c0.5917358,0,1.0705109-0.4798584,1.0705109-1.0705566v-30.3318481c0-0.5906982-0.478775-1.0705566-1.0705109-1.0705566l0,0
				c-0.5906525,0-1.0705109,0.4798584-1.0705109,1.0705566V644.5397339z"/>
			<path class="st4" d="M171.8484802,644.5397339c0,0.5906982,0.4798584,1.0705566,1.0705109,1.0705566l0,0
				c0.5917206,0,1.0705109-0.4798584,1.0705109-1.0705566v-30.3318481c0-0.5906982-0.4787903-1.0705566-1.0705109-1.0705566l0,0
				c-0.5906525,0-1.0705109,0.4798584-1.0705109,1.0705566V644.5397339z"/>
			<path class="st4" d="M177.7363129,644.5397339c0,0.5906982,0.4798584,1.0705566,1.0705109,1.0705566l0,0
				c0.5917358,0,1.0705109-0.4798584,1.0705109-1.0705566v-30.3318481c0-0.5906982-0.478775-1.0705566-1.0705109-1.0705566l0,0
				c-0.5906525,0-1.0705109,0.4798584-1.0705109,1.0705566V644.5397339z"/>
			<circle class="st23" cx="147.0478821" cy="622.9506836" r="6.4230819"/>
			
				<rect x="157.1285858" y="629.8209839" transform="matrix(0.98614 -0.1659155 0.1659155 0.98614 -102.9263077 36.6312904)" class="st24" width="21.3221397" height="9.0989313"/>
			<polygon class="st25" points="173.0015717,619.649292 166.0997162,631.6036987 159.1978455,619.649292 			"/>
		</g>
	</g>
	<g>
		<path class="st2" d="M387.9093018,626.43927c0,2.3491211-1.9047546,4.2528076-4.2527771,4.2528076h-9.7809753
			c-2.3490601,0-4.2527771-1.9036865-4.2527771-4.2528076v-36.9974976c0-2.3480225,1.903717-4.2528076,4.2527771-4.2528076
			h9.7809753c2.3480225,0,4.2527771,1.9047852,4.2527771,4.2528076V626.43927z"/>
		<rect x="351.6853638" y="565.1367188" class="st6" width="6.9322181" height="78.5625381"/>
		<g>
			<defs>
				<path id="SVGID_11_" d="M386.3244629,545.4806519c0.2038574,15.4074707-12.1217041,28.0623169-27.5291138,28.2661743l0,0
					c-15.4074707,0.2038574-28.0623474-12.1206665-28.2661743-27.5291748l-0.2153931-16.3002319
					c-0.2038269-15.4063721,12.1217041-28.0622559,27.5291748-28.2661438l0,0
					c15.4064026-0.2028198,28.0622864,12.1216736,28.2661133,27.5291443L386.3244629,545.4806519z"/>
			</defs>
			<clipPath id="SVGID_12_">
				<use xlink:href="#SVGID_11_"  style="overflow:visible;"/>
			</clipPath>
			<path class="st26" d="M395.3433228,584.7582397h-71.9429016v-29.7360229c0,0,14.9161072,3.7405396,35.7796021,3.7405396
				c20.8635254,0,36.1632996-3.7405396,36.1632996-3.7405396V584.7582397z"/>
		</g>
		<rect x="342.1427612" y="643.2684937" class="st2" width="16.6295738" height="1.8702945"/>
		<rect x="358.354126" y="570.4892578" class="st8" width="6.9322181" height="78.5625381"/>
		<rect x="358.20047" y="648.6210938" class="st2" width="16.6285038" height="1.8702945"/>
		<g>
			<path class="st0" d="M330.6577454,525.6824341c-0.0062561-2.0114136,1.6182861-3.6484985,3.6307678-3.6558838l0,0
				c2.0113831-0.0073242,3.6484985,1.6183472,3.6547852,3.6297607l0.1923523,53.026001
				c0.0083618,2.0123901-1.6172791,3.6484985-3.6286621,3.6568604l0,0
				c-2.0113831,0.0062256-3.6485291-1.6193848-3.6558533-3.6307983L330.6577454,525.6824341z"/>
			<path class="st6" d="M342.1553345,572.128479l2.3919067-45.9839478c0.2394104-4.6228638-0.5634766-8.0864258-5.1842346-8.3278809
				c-4.6229248-0.2393799-8.5661926,3.3129272-8.8067017,7.935791l-2.3375244,44.9428101
				C333.7689209,571.4259644,336.584259,571.5712891,342.1553345,572.128479z"/>
			<circle class="st0" cx="336.7164917" cy="578.9315796" r="5.8213468"/>
		</g>
		<path class="st6" d="M330.7099915,564.8491821h55.4764709c0.1160583-1.0945435,0.1756287-2.2058105,0.1610107-3.3327637
			l-0.2164001-32.3579712c-0.2028198-15.4074097-12.8587341-27.7319336-28.2661743-27.5291138
			c-15.4074707,0.2038269-27.7330017,12.8587036-27.5291748,28.2661743l0.2153931,32.3579102
			C330.5626221,563.1294556,330.6201172,563.9940796,330.7099915,564.8491821z"/>
		<path class="st11" d="M367.3876648,502.6329346c0,4.7640076-3.8618164,27.3587646-8.6247559,27.3587646l0,0
			c-4.7640076,0-8.6247559-22.5947571-8.6247559-27.3587646v-22.0793457c0-4.7629395,3.8607483-8.6247559,8.6247559-8.6247559l0,0
			c4.7629395,0,8.6247559,3.8618164,8.6247559,8.6247559V502.6329346z"/>
		<g>
			<path class="st5" d="M384.672699,533.5482178c-0.1871643-2.9805298-0.5070496-5.9589233-0.6043091-8.9436035
				c-2.0824585-2.1221924-4.3656616-4.0625-6.6331482-5.9725342c-0.0930786-0.0784302-0.1746216-0.1641235-0.2592773-0.2477417
				c-2.3961487,1.479248-4.0614929,4.1168823-4.3479614,7.1004639l0.8865662,39.0999146
				c0.9753723-0.3418579,1.4227905-0.6690674,1.8713074-0.9848022c0.7119446-0.5028076,1.4364014-0.9868164,2.1483459-1.4907227
				c0.4181519-0.2958984,0.839447-0.588562,1.2419739-0.9064331c0.2404175-0.1933594,0.3700562-0.2958374,0.3899231-0.3093872
				c0.8405151-0.6795654,1.7949829-1.1541748,2.778717-1.3632812c1.1698303-0.4118652,2.4222717-0.4473877,3.5931396-0.0041504
				c-0.1296387-4.2214355-0.2916565-8.4418335-0.4464111-12.657959
				C385.1295471,542.4259033,384.9507751,537.9839478,384.672699,533.5482178z"/>
			<path class="st6" d="M374.9450073,570.4182129l-2.5069275-44.9354858
				c-0.2331238-4.5758057-0.1557617-8.9059448,4.4200439-9.1422119c4.573761-0.2331543,8.4742432,3.2868042,8.7084045,7.8616333
				l2.2790222,44.4837646c-2.4180908,1.1311646-2.8947754,1.4813843-5.878418,1.8326416
				C376.1451416,571.2043457,377.459259,570.8248901,374.9450073,570.4182129z"/>
			<circle class="st0" cx="378.3782043" cy="577.8433228" r="5.8210135"/>
		</g>
		<g>
			<g>
				<path class="st0" d="M368.5292664,478.0111389c0.2623596-0.8833923,0.4056091-1.8180237,0.4056091-2.7860718
					c0-5.3964539-4.3740845-9.7705383-9.7705383-9.7705383c-5.3954468,0-9.7694397,4.3740845-9.7694397,9.7705383
					c0,0.9680481,0.1431885,1.9026794,0.4056091,2.7860718c-4.0018921,2.9020996-6.605011,7.6148682-6.605011,12.9360657
					c0,8.8202209,7.1496277,15.9698792,15.9688416,15.9698792c8.8202515,0,15.9698792-7.1496582,15.9698792-15.9698792
					C375.1342163,485.6260071,372.5311584,480.9132385,368.5292664,478.0111389z"/>
			</g>
			<g>
				<defs>
					<path id="SVGID_13_" d="M368.5292664,478.0111389c0.2623596-0.8833923,0.4056091-1.8180237,0.4056091-2.7860718
						c0-5.3964539-4.3740845-9.7705383-9.7705383-9.7705383c-5.3954468,0-9.7694397,4.3740845-9.7694397,9.7705383
						c0,0.9680481,0.1431885,1.9026794,0.4056091,2.7860718c-4.0018921,2.9020996-6.605011,7.6148682-6.605011,12.9360657
						c0,8.8202209,7.1496277,15.9698792,15.9688416,15.9698792c8.8202515,0,15.9698792-7.1496582,15.9698792-15.9698792
						C375.1342163,485.6260071,372.5311584,480.9132385,368.5292664,478.0111389z"/>
				</defs>
				<clipPath id="SVGID_14_">
					<use xlink:href="#SVGID_13_"  style="overflow:visible;"/>
				</clipPath>
				<path class="st27" d="M372.9346924,480.3152466c-0.0449829-1.8786621-0.6272888-3.6464539-1.453186-5.3233032
					c-0.1818848-0.3700562-0.2759705-0.7663269-0.2717896-1.151001c-0.394104-0.7004395-0.8008118-1.3946228-1.207428-2.0887756
					c-1.0579834-1.0820312-2.0574341-2.2581177-2.5289307-3.6715088c-1.0255432-0.6941833-2.2142029-1.2137451-3.5973206-1.4709473
					c0,0-0.169342,8.0874329,7.5291443,10.9090271l1.7364807,3.6746521
					C373.01828,480.9446106,372.9430237,480.6528931,372.9346924,480.3152466z"/>
				<path class="st27" d="M349.0749817,471.5733643c-0.2780762-0.0344543-0.4390869-0.1243896-0.4390869-0.1243896
					l1.5660706-3.8209839l6.5140076-3.5690918l5.0096741,1.06427l2.5675354,1.6904297
					C364.2931824,466.8135986,360.0968628,472.9512939,349.0749817,471.5733643z"/>
				<path class="st27" d="M349.2025146,480.5473328c1.0777893-1.0632324,2.0542603-1.7626038,2.3772888-2.0971375
					c0,0-0.9136658-1.4719543-0.7349548-3.8806152c0.1777649-2.4086609,1.2482605-4.2820435,1.2482605-4.2820435
					l-2.3187866-1.2492981l-2.8549805,7.9400024l-1.1082153,1.4311523
					C346.903656,479.1621399,348.0577698,479.8583984,349.2025146,480.5473328z"/>
				<path class="st27" d="M366.4342041,478.4501953c0.3125916,0.3230286,1.2346802,0.986908,2.2685852,1.990509
					c1.0914307-0.7788391,2.190155-1.5440979,3.3045654-2.2832336l-0.9126282-1.1792297l-2.8540344-7.9400024l-2.3197327,1.2492981
					c0,0,1.0704956,1.8733826,1.2492371,4.2820435C367.3479309,476.978241,366.4342041,478.4501953,366.4342041,478.4501953z"/>
			</g>
			<circle class="st2" cx="355.7322388" cy="476.3394775" r="0.8143933"/>
			<circle class="st2" cx="362.2462463" cy="476.3394775" r="0.8143933"/>
			<path class="st11" d="M357.6808777,480.4793396c0.0324402,0.5582886,0.4944763,1.0015259,1.0610962,1.0015259
				s1.028717-0.4432373,1.0611572-1.0015259H357.6808777z"/>
		</g>
		<path class="st5" d="M355.8451233,506.5793762l-1.4960022,5.8188171l-3.059967-0.3062744
			c0.1003723,0.3742676,0.1589355,0.762146,0.1735535,1.1604004l3.7561951-0.0512085l1.3590698-6.4701538
			C356.328125,506.6975098,356.0834656,506.6473694,355.8451233,506.5793762z"/>
		<path class="st5" d="M366.1780701,512.0845947l-3.131012,0.3135986l-1.4541931-5.6546326
			c-0.240448,0.0438843-0.4934692,0.0710754-0.7547607,0.0846558l1.3391418,6.3728943l3.7196045,0.0501709
			C365.9449768,512.8477783,366.0421753,512.4578247,366.1780701,512.0845947z"/>
		<polyline class="st5" points="346.6997681,504.4362793 346.6265869,504.6014404 342.9968567,512.8215942 347.4577026,514.6061401 
			345.6731567,521.6533203 358.1178589,534.7232666 345.0939941,521.8770752 347.2350159,514.7849121 342.5515137,513.0453491 		"/>
		<polyline class="st5" points="370.0273438,504.4362793 370.0994873,504.6014404 373.7291565,512.8215942 369.2684021,514.6061401 
			371.052887,521.6533203 358.6081543,534.7232666 371.6330872,521.8770752 369.4920654,514.7849121 374.1755676,513.0453491 		"/>
	</g>
	<g>
		<path class="st2" d="M107.3908157,611.7720337c0,0.7641602-0.6189194,1.3831177-1.3820343,1.3831177l0,0
			c-0.7642288,0-1.3831024-0.6189575-1.3831024-1.3831177v-35.2371216c0-0.7641602,0.6188736-1.3829956,1.3831024-1.3829956l0,0
			c0.7631149,0,1.3820343,0.6188354,1.3820343,1.3829956V611.7720337z"/>
		<path class="st2" d="M115.4635544,627.5098267c0,2.3490601-1.9047623,4.2527466-4.2527695,4.2527466h-9.7809677
			c-2.3490829,0-4.2527771-1.9036865-4.2527771-4.2527466v-36.9975586c0-2.3480225,1.9036942-4.2528076,4.2527771-4.2528076
			h9.7809677c2.3480072,0,4.2527695,1.9047852,4.2527695,4.2528076V627.5098267z"/>
		<rect x="79.2396317" y="566.2072144" class="st6" width="6.9322071" height="78.5625381"/>
		<g>
			<defs>
				<path id="SVGID_15_" d="M113.8787155,546.5512085c0.2038803,15.4074097-12.1216965,28.0622559-27.5291138,28.2661743l0,0
					c-15.4074783,0.2037964-28.0623398-12.1207275-28.2661629-27.5291748l-0.2153893-16.3002319
					c-0.2038269-15.4064331,12.1216965-28.0623169,27.5291824-28.2661743l0,0
					c15.4063873-0.2028198,28.0622711,12.1217041,28.266098,27.5291138L113.8787155,546.5512085z"/>
			</defs>
			<clipPath id="SVGID_16_">
				<use xlink:href="#SVGID_15_"  style="overflow:visible;"/>
			</clipPath>
			<path class="st28" d="M122.8975754,585.8287354H50.9546738v-29.7360229c0,0,14.9161072,3.7405396,35.7796249,3.7405396
				s36.1632767-3.7405396,36.1632767-3.7405396V585.8287354z"/>
		</g>
		<rect x="69.6970139" y="644.3390503" class="st2" width="16.6295738" height="1.8702945"/>
		<rect x="85.9084015" y="571.5597534" class="st8" width="6.9322071" height="78.5625381"/>
		<rect x="85.754715" y="649.6915894" class="st2" width="16.6285019" height="1.8702945"/>
		<g>
			<path class="st0" d="M58.2120056,526.7529297c-0.0062599-2.0113525,1.6182976-3.6484985,3.6307564-3.6558228l0,0
				c2.0113869-0.0073242,3.6485252,1.6182861,3.654789,3.6296997l0.1923676,53.026001
				c0.0083466,2.0123901-1.6172791,3.6484985-3.6286659,3.6568604l0,0
				c-2.0113869,0.0062866-3.6485252-1.6193848-3.6558571-3.6307373L58.2120056,526.7529297z"/>
			<path class="st3" d="M69.7095871,573.1989746l2.3919067-45.9839478c0.239418-4.6228638-0.5634689-8.0863647-5.1842346-8.3278198
				c-4.6229019-0.2394409-8.5661926,3.3129272-8.8066826,7.93573l-2.3375206,44.9428101
				C61.323185,572.49646,64.1385269,572.6417847,69.7095871,573.1989746z"/>
			<circle class="st0" cx="64.2707443" cy="580.0021362" r="5.8213415"/>
		</g>
		<path class="st3" d="M58.2642479,565.9197388h55.4764748c0.1160507-1.0945435,0.175621-2.2058716,0.1610107-3.3327637
			l-0.2164078-32.3580322c-0.2028046-15.4074097-12.8587418-27.7319031-28.2661514-27.5290833
			c-15.407486,0.2037964-27.7330055,12.8586731-27.5291786,28.2661438l0.2153893,32.3579712
			C58.11689,564.2000122,58.1743774,565.0645752,58.2642479,565.9197388z"/>
		<path class="st0" d="M94.9419327,503.7034607c0,4.7639771-3.8618393,27.3587341-8.6247711,27.3587341l0,0
			c-4.7639999,0-8.6247482-22.5947571-8.6247482-27.3587341V481.624115c0-4.7629395,3.8607483-8.6247559,8.6247482-8.6247559l0,0
			c4.7629318,0,8.6247711,3.8618164,8.6247711,8.6247559V503.7034607z"/>
		<g>
			<path class="st29" d="M112.2269821,534.6187134c-0.1871948-2.9805298-0.5070648-5.9589233-0.6043091-8.9436035
				c-2.0824814-2.1221924-4.3656693-4.0625-6.6331787-5.9725342c-0.0930862-0.0783691-0.1746063-0.1640625-0.259285-0.2477417
				c-2.3961258,1.4793091-4.06147,4.1168823-4.3479309,7.1005249l0.8865356,39.0999146
				c0.9753952-0.3418579,1.422821-0.6690674,1.871315-0.9848633c0.7119446-0.5028076,1.4364243-0.9868164,2.1483536-1.4907227
				c0.4181442-0.2958984,0.839447-0.588562,1.2419586-0.9063721c0.2404404-0.1934204,0.370079-0.2958374,0.3899384-0.3094482
				c0.8405075-0.6795044,1.7949829-1.1541748,2.7787323-1.3632812c1.1697998-0.4118652,2.4222488-0.4473877,3.5931244-0.0041504
				c-0.129631-4.2214355-0.2916641-8.4417725-0.4464035-12.657959
				C112.6838074,543.4963989,112.5050354,539.0544434,112.2269821,534.6187134z"/>
			<path class="st0" d="M112.0325089,525.6699219c0.0083466-2.0114746-1.6151886-3.6495972-3.6265793-3.6589966l0,0
				c-2.0113907-0.0083618-3.6495972,1.6151733-3.6590195,3.6265259l-0.234169,53.026001
				c-0.0083542,2.0124512,1.6151886,3.6505737,3.6265793,3.6589355l0,0
				c2.0113983,0.0094604,3.6506119-1.6151123,3.6579437-3.6265259L112.0325089,525.6699219z"/>
			<path class="st3" d="M102.4992599,571.4887085l-2.5069275-44.9354858
				c-0.2330933-4.5758057-0.1557617-8.9058838,4.4200439-9.1421509c4.5737686-0.2331543,8.4742432,3.2868042,8.7084122,7.8615723
				l2.2790222,44.4838257c-2.4180756,1.1311646-2.8947754,1.4813843-5.8784103,1.8325806
				C103.6994171,572.2749023,105.0135269,571.8953857,102.4992599,571.4887085z"/>
			<circle class="st0" cx="105.932457" cy="578.9138184" r="5.8210135"/>
		</g>
		<g class="st9">
			<path class="st2" d="M94.6983261,503.6344604c-1.1635437-0.8886414-2.0552826-1.7270508-2.4598846-3.1990051
				c-0.2551041-0.9482117-0.2551041-1.8963623,0-2.8456421c0.5415192-1.9664307,2.0751953-3.2763672,3.9401855-3.7436523
				c0.7244873-1.9988708,0.5843964-4.2507019,0.7182083-6.3384094c0.1097794-1.7155457,0.4359665-3.2993774,0.8593597-4.8821106
				c-0.5520172-0.5373535-1.1374207-1.0391541-1.7626038-1.4918213c0.2624359-0.8833923,0.4056168-1.8190918,0.4056168-2.7871399
				c0-3.6610413-2.0165787-6.8475037-4.9981232-8.5212402c-1.0235138,0.7140198-2.025032,1.4646301-3.0003815,2.2434692
				c0.0585556,1.074707-0.1359024,2.1818237-0.5635147,3.1509094c-1.5754242,3.5680847-4.6009064,6.2621155-6.0007095,10.0214539
				c-0.7872086,2.1138306-1.5231857,4.2820435-1.892189,6.5140076c-0.1610031,0.9743347-0.194458,1.9476624-0.2195663,2.9345093
				c-0.0125198,0.5122986,0.0292969,0.8321533,0.0648193,1.0004883c1.312027,2.4724121,0.7913818,5.7623596-1.9016037,7.2312317
				c-0.0167542,0.0093384-0.0366135,0.0177612-0.0533524,0.0271301c-0.2289429,0.178772-0.4735565,0.3512878-0.7495346,0.5081177
				c-0.7673416,0.434906-1.4730225,0.9367065-2.2142487,1.4154968c2.9188614,3.1759949,7.105751,5.1664429,11.7589493,5.1664429
				c4.3583832,0,8.302742-1.7531738,11.1839218-4.584137c-0.2425232-0.1432495-0.4829559-0.2948303-0.7171326-0.4610901
				C96.2434464,504.6307373,95.4227905,504.1885071,94.6983261,503.6344604z"/>
		</g>
		<g>
			<g>
				<path class="st0" d="M96.0835114,479.0816345c0.2623978-0.8833923,0.4056168-1.8179932,0.4056168-2.7860718
					c0-5.3964539-4.3740616-9.7705078-9.7705231-9.7705078c-5.3954391,0-9.769455,4.374054-9.769455,9.7705078
					c0,0.9680786,0.1431808,1.9026794,0.4056244,2.7860718c-4.0018921,2.9020996-6.6050186,7.6148987-6.6050186,12.9360962
					c0,8.8202209,7.1496353,15.9698486,15.9688492,15.9698486c8.8202286,0,15.9698715-7.1496277,15.9698715-15.9698486
					C102.6884766,486.6965332,100.0854187,481.9837341,96.0835114,479.0816345z"/>
			</g>
			<g>
				<defs>
					<path id="SVGID_17_" d="M96.0835114,479.0816345c0.2623978-0.8833923,0.4056168-1.8179932,0.4056168-2.7860718
						c0-5.3964539-4.3740616-9.7705078-9.7705231-9.7705078c-5.3954391,0-9.769455,4.374054-9.769455,9.7705078
						c0,0.9680786,0.1431808,1.9026794,0.4056244,2.7860718c-4.0018921,2.9020996-6.6050186,7.6148987-6.6050186,12.9360962
						c0,8.8202209,7.1496353,15.9698486,15.9688492,15.9698486c8.8202286,0,15.9698715-7.1496277,15.9698715-15.9698486
						C102.6884766,486.6965332,100.0854187,481.9837341,96.0835114,479.0816345z"/>
				</defs>
				<clipPath id="SVGID_18_">
					<use xlink:href="#SVGID_17_"  style="overflow:visible;"/>
				</clipPath>
				<path class="st30" d="M100.488945,481.3857727c-0.04496-1.8786621-0.6272659-3.6464539-1.4531708-5.3233032
					c-0.1818771-0.3700867-0.2759781-0.7663269-0.2718048-1.1510315c-0.394104-0.7004089-0.8007965-1.3945923-1.207428-2.0887756
					c-1.057991-1.0820312-2.0574112-2.2580872-2.5289307-3.6714783c-1.0255508-0.6941833-2.2141953-1.2137451-3.5972977-1.4709473
					c0,0-0.169342,8.0874023,7.5291367,10.9090271l1.7364883,3.6746216
					C100.5725555,482.0151062,100.4972916,481.7233887,100.488945,481.3857727z"/>
				<path class="st30" d="M76.6292267,472.6438904c-0.2780609-0.0344849-0.439064-0.1243896-0.439064-0.1243896l1.5660477-3.8209839
					l6.5140228-3.5690918l5.0096817,1.0642395l2.5675201,1.6904602
					C91.847435,467.8841248,87.6511307,474.0217896,76.6292267,472.6438904z"/>
				<path class="st30" d="M76.4002991,480.7261047c1.0778046-1.0632324,2.0542603-1.7626038,2.3772888-2.0971375
					c0,0-0.9137344-1.4719543-0.7359772-3.8806152c0.1787796-2.4086609,1.2492905-4.2820435,1.2492905-4.2820435
					l-2.3198013-1.2492981l-2.8540421,7.9400024l-1.1081467,1.4311829
					C74.1013718,479.3409119,75.2544785,480.0371094,76.4002991,480.7261047z"/>
				<path class="st30" d="M94.7024994,478.9854431c0.3120499,0.3230286,1.2341385,0.986908,2.2685852,1.990509
					c1.0908966-0.7788391,2.190155-1.5440979,3.3045578-2.2832336l-0.9126129-1.1792297l-2.8545761-7.9400024l-2.3192673,1.2492981
					c0,0,1.0705109,1.8734131,1.2487564,4.2820435C95.6162338,477.5134888,94.7024994,478.9854431,94.7024994,478.9854431z"/>
			</g>
			<circle class="st2" cx="83.2864838" cy="477.4099731" r="0.8143932"/>
			<circle class="st2" cx="89.8005219" cy="477.4099731" r="0.8143933"/>
			<path class="st11" d="M85.2351456,481.5498657c0.0324326,0.5582886,0.4944763,1.0015259,1.0610886,1.0015259
				c0.5666275,0,1.0287094-0.4432373,1.0611496-1.0015259H85.2351456z"/>
		</g>
	</g>
	<path class="st2" d="M17.9840851,478.6989746c0,2.1682129-1.7573566,3.9255676-3.9245043,3.9255676H-8.7787571
		c-2.1671476,0-3.9245024-1.7573547-3.9245024-3.9255676l0,0c0-2.1681519,1.7573547-3.9255066,3.9245024-3.9255066h22.8383369
		C16.2267284,474.773468,17.9840851,476.5308228,17.9840851,478.6989746L17.9840851,478.6989746z"/>
	<path class="st2" d="M13.7689371,463.4441528c0,2.1682434-1.7573557,3.9255981-3.9245033,3.9255981h-22.8383369
		c-2.1671476,0-3.9245033-1.7573547-3.9245033-3.9255981l0,0c0-2.1681519,1.7573557-3.9255066,3.9245033-3.9255066H9.8444338
		C12.0115814,459.5186462,13.7689371,461.276001,13.7689371,463.4441528L13.7689371,463.4441528z"/>
	<path class="st2" d="M15.4876461,470.9231567c0,2.5549927-2.0699453,4.6260071-4.6239223,4.6260071h-33.2152023
		c-2.553978,0-4.6239223-2.0710144-4.6239223-4.6260071l0,0c0-2.5539856,2.0699444-4.6239319,4.6239223-4.6239319h33.2152023
		C13.4177008,466.2992249,15.4876461,468.3691711,15.4876461,470.9231567L15.4876461,470.9231567z"/>
	<g>
		<rect x="5.6209455" y="587.1710815" class="st0" width="2.3825259" height="55.4126778"/>
		<rect x="11.2411423" y="592.3898315" class="st0" width="2.3825259" height="50.193924"/>
		<rect x="2.1637216" y="559.0700684" class="st6" width="6.932209" height="32.1729507"/>
		<g>
			<defs>
				<path id="SVGID_19_" d="M36.8027496,539.4140625c0.2038803,15.4074097-12.1216393,28.0623169-27.5291138,28.2661743l0,0
					c-15.4084911,0.2038574-28.0633545-12.1206665-28.2661629-27.5291748l-0.216404-16.3002319
					c-0.2028103-15.4064026,12.1227627-28.0622864,27.5291767-28.2661438l0,0
					c15.4074116-0.2028198,28.0632915,12.1216736,28.2671719,27.5291443L36.8027496,539.4140625z"/>
			</defs>
			<clipPath id="SVGID_20_">
				<use xlink:href="#SVGID_19_"  style="overflow:visible;"/>
			</clipPath>
			<path class="st31" d="M45.8216667,578.6916504h-71.9429016v-29.7359619c0,0,14.9160557,3.7404785,35.7796249,3.7404785
				c20.8634987,0,36.1632767-3.7404785,36.1632767-3.7404785V578.6916504z"/>
		</g>
		<rect x="-7.5127139" y="642.5545044" class="st2" width="16.6285019" height="1.8702945"/>
		<rect x="8.8324862" y="564.4226685" class="st8" width="6.932209" height="30.790863"/>
		<rect x="10.9525757" y="642.4206543" class="st2" width="16.6295738" height="1.8702945"/>
		<path class="st2" d="M-18.8116646,558.7825928h55.4754105c0.1160431-1.0945435,0.1766853-2.2058105,0.1610031-3.3327637
			l-0.2153854-32.3579712c-0.2038269-15.4074402-12.8597603-27.7319336-28.2661648-27.5291138
			c-15.4074211,0.2038574-27.7329941,12.8586731-27.5291138,28.2661743l0.2153339,32.3579102
			C-18.959074,557.0628662-18.9026051,557.9274902-18.8116646,558.7825928z"/>
		<path class="st0" d="M17.8649464,498.5516052c0,1.5838318-3.8607645,9.0962219-8.6236935,9.0962219l0,0
			c-4.7639999,0-8.625824-7.5123901-8.625824-9.0962219v-7.3410034c0-1.5837708,3.8618243-2.8675842,8.625824-2.8675842l0,0
			c4.762929,0,8.6236935,1.2838135,8.6236935,2.8675842V498.5516052z"/>
		<g>
			<path class="st0" d="M35.223156,519.0680542c0.0094185-2.0114136-1.6151924-3.6495972-3.6265812-3.6589966l0,0
				c-2.0113869-0.0083618-3.6485252,1.6151733-3.6579456,3.6265869l-0.2341747,53.0259399
				c-0.0094204,2.0124512,1.6141205,3.6506348,3.6255093,3.6589966l0,0
				c2.0124702,0.0093994,3.6506119-1.6151733,3.6590157-3.6265869L35.223156,519.0680542z"/>
			<path class="st2" d="M25.690979,564.8868408l-2.5069275-44.9354248c-0.2341652-4.5758057-0.1568317-8.9059448,4.418972-9.1422119
				c4.5737686-0.2331543,8.4742393,3.2868042,8.708416,7.8615723l2.2800331,44.4838257
				c-2.4180222,1.1311646-2.8957939,1.4813843-5.8794212,1.8325806
				C26.8911324,565.6730347,28.2051888,565.2935181,25.690979,564.8868408z"/>
			<circle class="st0" cx="29.1231003" cy="572.3119507" r="5.8210135"/>
		</g>
		<g class="st9">
			<path class="st2" d="M17.6224117,496.497345c-1.1635857-0.8886414-2.0553236-1.7270508-2.4598799-3.1990051
				c-0.2551041-0.9481812-0.2551041-1.8963623,0-2.8456421c0.5404482-1.9664307,2.0751371-3.2763672,3.9401865-3.7436523
				c0.7234077-1.9988708,0.5843925-4.2506714,0.7182064-6.3384094c0.1087112-1.7155457,0.4348965-3.2993774,0.8593559-4.8821106
				c-0.5520115-0.5373535-1.1384926-1.0391541-1.7626019-1.4918213c0.262392-0.8833923,0.4056187-1.8190308,0.4056187-2.7870789
				c0-3.6611023-2.0176506-6.8475647-4.9981756-8.5213013c-1.0245352,0.7140503-2.0249834,1.4646912-3.001399,2.2434692
				c0.0585575,1.0747375-0.1348848,2.1818237-0.5624475,3.1509705c-1.5754747,3.5680237-4.6019778,6.2620544-6.000711,10.0213928
				c-0.7872021,2.1138306-1.5231802,4.2820435-1.8922398,6.5140076c-0.1620221,0.9743958-0.1954758,1.9476624-0.2195089,2.9345703
				c-0.0135953,0.5122375,0.0282173,0.8320923,0.0637491,1.0004272c1.3120215,2.4724121,0.7924478,5.7623596-1.9005898,7.2312317
				c-0.0167,0.0093689-0.036558,0.0177612-0.054373,0.0271301c-0.2289385,0.178772-0.4725338,0.3512878-0.7485123,0.5081177
				c-0.7673351,0.434906-1.4740438,0.9367065-2.2141969,1.4154968c2.918818,3.1759949,7.1057482,5.1664429,11.7578793,5.1664429
				c4.3583822,0,8.3027439-1.7531128,11.1839237-4.584137c-0.2425251-0.1432495-0.481945-0.2948303-0.7161198-0.4610291
				C19.1675377,497.4936218,18.3468819,497.0514526,17.6224117,496.497345z"/>
		</g>
		<g>
			<g>
				<path class="st0" d="M19.0065327,471.944519c0.262392-0.8833923,0.4056168-1.8179932,0.4056168-2.7860718
					c0-5.3964539-4.3740654-9.7705078-9.769454-9.7705078c-5.3954425,0-9.7695074,4.374054-9.7695074,9.7705078
					c0,0.9680786,0.1432347,1.9026794,0.4056176,2.7860718c-4.0018387,2.9020996-6.6060328,7.6148987-6.6060328,12.9360962
					c0,8.8202209,7.1507101,15.9698792,15.969923,15.9698792c8.8191595,0,15.9698687-7.1496582,15.9698687-15.9698792
					C25.6125641,479.5594177,23.0084324,474.8466187,19.0065327,471.944519z"/>
			</g>
			<g>
				<defs>
					<path id="SVGID_21_" d="M19.068203,471.9413757c0.2655315-0.8917542,0.4098358-1.8347168,0.4098358-2.8111267
						c0-5.4425049-4.4116926-9.854187-9.8541842-9.854187s-9.8541851,4.4116821-9.8541851,9.854187
						c0,0.9764099,0.1453222,1.9193726,0.4098552,2.8111267c-4.0363717,2.9272156-6.6625113,7.6796875-6.6625113,13.046875
						c0,8.8965454,7.2113547,16.1079102,16.106842,16.1079102s16.106842-7.2113647,16.106842-16.1079102
						C25.7306957,479.6210632,23.1045742,474.8685913,19.068203,471.9413757z"/>
				</defs>
				<clipPath id="SVGID_22_">
					<use xlink:href="#SVGID_21_"  style="overflow:visible;"/>
				</clipPath>
				<path class="st32" d="M23.5123234,474.2653503c-0.046032-1.8953552-0.632513-3.6777954-1.4656925-5.3703613
					c-0.1840229-0.3731689-0.2791271-0.772522-0.2738914-1.1603699c-0.3972683-0.7066956-0.8081207-1.407135-1.2179241-2.1065674
					c-1.0674095-1.0913696-2.0751896-2.2779236-2.5508194-3.7039185c-1.0339565-0.6993713-2.2341089-1.223175-3.6276493-1.4823914
					c0,0-0.171443,8.1564026,7.593956,11.0020447l1.750021,3.7060242
					C23.5959396,474.8988647,23.5206738,474.6051331,23.5123234,474.2653503z"/>
				<path class="st32" d="M-0.5533582,465.4482727c-0.2801534-0.035553-0.4421757-0.1264954-0.4421757-0.1264954
					l1.5795965-3.8534546l6.5694747-3.6004028l5.0535731,1.0736084l2.5895195,1.7051086
					C14.7966299,460.646637,10.5637121,466.8376465-0.5533582,465.4482727z"/>
				<path class="st32" d="M-0.784375,473.5994263c1.0872136-1.0726013,2.0720327-1.7782898,2.3982182-2.1159058
					c0,0-0.9220779-1.4845581-0.7422942-3.914093c0.1798463-2.4284973,1.2597805-4.3186646,1.2597805-4.3186646
					l-2.3386443-1.2597046l-2.8801098,8.0079041l-1.1175625,1.4437561
					C-3.1031077,472.2027283-1.9395573,472.9042358-0.784375,473.5994263z"/>
				<path class="st32" d="M17.6757221,471.8431396c0.3156948,0.3272095,1.2450619,0.9962769,2.2884369,2.0082397
					c1.1008091-0.7861328,2.208952-1.5566406,3.332777-2.3030396l-0.9210167-1.1897278l-2.8780212-8.0079346l-2.3396626,1.2597351
					c0,0,1.0799351,1.8901062,1.2597275,4.3186646C18.5977554,470.3586121,17.6757221,471.8431396,17.6757221,471.8431396z"/>
			</g>
			<circle class="st2" cx="6.2105532" cy="470.2729187" r="0.8143711"/>
			<circle class="st2" cx="12.7240715" cy="470.2729187" r="0.813858"/>
			<path class="st11" d="M8.1581602,474.4127502c0.0324373,0.5582886,0.4944801,1.0015259,1.0621643,1.0015259
				c0.5666227,0,1.0287094-0.4432373,1.0611019-1.0015259H8.1581602z"/>
		</g>
		<rect x="-29.9945717" y="644.2940674" class="st8" width="78.9869919" height="1.8702945"/>
		<circle class="st2" cx="33.9529381" cy="649.9592285" r="3.8137047"/>
	</g>
	<g>
		<circle class="st11" cx="8.7734118" cy="526.2929688" r="6.6902018"/>
		<rect x="6.275341" y="530.3962402" class="st11" width="4.9072347" height="13.2026453"/>
		<circle class="st2" cx="6.7661719" cy="526.9620361" r="1.6501968"/>
		<circle class="st2" cx="11.0482264" cy="526.9620361" r="1.6501968"/>
		<line class="st33" x1="7.6584449" y1="544.0452881" x2="7.6584449" y2="539.7297974"/>
		<line class="st33" x1="9.2642155" y1="544.0452881" x2="9.2642155" y2="539.7297974"/>
	</g>
</g>
<g id="Layer_2" class="st35">
	<g id="vwd9s9_1_" class="st36">
		
			<image style="overflow:visible;" width="750" height="1334" id="vwd9s9" xlink:href="7C483B6109A23FE8.jpg"  transform="matrix(0.5 0 0 0.5 0.4658172 0)">
		</image>
	</g>
</g>
<g id="Layer_3">
</g>
</svg>
