<?xml version="1.0" encoding="utf-8"?>
<!-- Generator: Adobe Illustrator 19.1.0, SVG Export Plug-In . SVG Version: 6.00 Build 0)  -->
<svg version="1.1" id="Layer_1" xmlns="http://www.w3.org/2000/svg" xmlns:xlink="http://www.w3.org/1999/xlink" x="0px" y="0px"
	 viewBox="-624 396 30 10" style="enable-background:new -624 396 30 10;" xml:space="preserve">
<style type="text/css">
	.st0{fill:#F2F2F2;}
</style>
<g>
	<path class="st0" d="M-622.8235474,401.7683716c-0.5426025,0-0.9825439-0.457428-0.9825439-0.9999695
		c0-0.5427856,0.4399414-1.0000305,0.9825439-1.0000305h27.4941406c0.5426025,0,0.9824829,0.4572449,0.9824829,1.0000305
		c0,0.5425415-0.4398804,0.9999695-0.9824829,0.9999695H-622.8235474z"/>
	<path class="st0" d="M-594,400.802002c-0.0001831-0.0170898-0.0080566-0.0330811-0.0090942-0.0501099
		c-0.0099487-0.2331543-0.0935669-0.4645386-0.2692871-0.6447144l-3.4300537-3.5164185
		c-0.3788452-0.3882446-1.0009766-0.3961182-1.3893433-0.017395c-0.3883667,0.3791504-0.3961792,1.0007324-0.0172729,1.3894043
		l2.7694092,2.8393555l-2.7694092,2.8393555c-0.3789673,0.3882446-0.3712158,1.0102539,0.0172729,1.3892212
		c0.3883667,0.3789062,1.010376,0.3708496,1.3892822-0.0176392l3.4299927-3.5161133
		c0.1757812-0.1802368,0.2595215-0.4116211,0.2694092-0.6447754C-594.0080566,400.835144-594.0001221,400.8190918-594,400.802002z"
		/>
	<path class="st0" d="M-624,400.802002c0.0001831-0.0170898,0.0080566-0.0330811,0.0090942-0.0501099
		c0.0099487-0.2331543,0.0935669-0.4645386,0.2692871-0.6447144l3.4300537-3.5164185
		c0.3788452-0.3882446,1.0009766-0.3961182,1.3893433-0.017395c0.3883667,0.3791504,0.3961792,1.0007324,0.0172729,1.3894043
		l-2.7694092,2.8393555l2.7694092,2.8393555c0.3789673,0.3882446,0.3712158,1.0102539-0.0172729,1.3892212
		c-0.3883667,0.3789062-1.010376,0.3708496-1.3892822-0.0176392l-3.4299927-3.5161133
		c-0.1757812-0.1802368-0.2595215-0.4116211-0.2694092-0.6447754C-623.9919434,400.835144-623.9998779,400.8190918-624,400.802002z"
		/>
</g>
</svg>
