<?xml version="1.0" encoding="utf-8"?>
<!-- Generator: Adobe Illustrator 19.0.1, SVG Export Plug-In . SVG Version: 6.00 Build 0)  -->
<svg version="1.1" id="Layer_1" xmlns="http://www.w3.org/2000/svg" xmlns:xlink="http://www.w3.org/1999/xlink" x="0px" y="0px"
	 viewBox="432.3712769 152.6401215 334.2698975 418.3198853"
	 style="enable-background:new 432.3712769 152.6401215 334.2698975 418.3198853;" xml:space="preserve">
<style type="text/css">
	.st0{fill:#56E0FE;}
</style>
<path class="st0" d="M600,570.960022l-7.9199219-5.7598267c-33.8399048-23.7606812-115.9198914-89.9999695-150.4804993-190.0800781
	c-20.8798828-61.2001953-5.7597961-127.4398956,39.6006165-173.5200043
	c31.6796875-31.680191,73.4393921-48.9599915,118.0800781-48.9599915c44.6395874,0,86.3994141,17.2798004,118.0800781,48.9599915
	c46.0800171,46.0801086,61.1992188,112.319809,39.5996704,173.5200043l-0.7198486,1.4394836
	c-38.1600952,108-131.039978,176.4004211-149.7597046,189.360321L600,570.960022L600,570.960022z M600,181.4399261
	c-36.7197266,0-71.2803345,14.3998871-97.9199219,41.0400696c-38.1601868,38.1601105-50.4003906,92.8804169-33.1200867,143.2798309
	c29.5205078,84.9598999,96.4803772,144,131.0400085,169.9198608
	c27.3604126-20.8798828,99.3604126-80.639679,130.3202515-168.4794617l0.7197266-1.4403992
	c17.2802734-50.3994141,5.0401001-105.8399048-33.1201172-144C671.2802734,195.8398132,636.7196655,181.4399261,600,181.4399261
	L600,181.4399261z M600,385.2002258c-14.4003906,0-28.0801392-5.7597961-38.1602173-15.8398132
	c-20.8797607-20.8798828-20.8797607-55.4404907,0-77.0405884C571.9198608,282.2402039,585.5996094,276.480011,600,276.480011
	s28.0800781,5.7601929,38.1601562,15.8398132c20.8798218,20.8804016,20.8798218,55.4400024,0,77.0405884
	C628.0800781,379.4404297,614.4003906,385.2002258,600,385.2002258z M600,304.5596313
	c-6.4805298,0-12.960022,2.8807983-18,7.9208984c-10.0801392,10.0791016-10.0801392,25.9198914,0,36
	c10.0800781,10.0791016,25.9198608,10.0791016,35.2802734,0c10.0801392-10.0801086,10.0801392-25.9208984,0-36
	C612.960022,307.4404297,606.4804688,304.5596313,600,304.5596313z"/>
</svg>
