<?xml version="1.0" encoding="utf-8"?>
<!-- Generator: Adobe Illustrator 19.0.1, SVG Export Plug-In . SVG Version: 6.00 Build 0)  -->
<svg version="1.1" id="Layer_1" xmlns="http://www.w3.org/2000/svg" xmlns:xlink="http://www.w3.org/1999/xlink" x="0px" y="0px"
	 viewBox="68 78 512 512" style="enable-background:new 68 78 512 512;" xml:space="preserve">
<style type="text/css">
	.st0{fill:#FFFFFF;}
</style>
<path class="st0" d="M547.7999878,304.1000061c-1.3999634-8.6999817-3.1000366-17.3000183-5.2999878-25.8000183
	c-2.7999878-10.7999878-6.4000244-21.5-10.7999878-31.7999878c-8.8999634-21.1999969-21.1000061-41-35.8999939-58.6000061
	c-16-18.8999939-35.2999878-35.1999969-56.7000122-47.6999969C418,127.8000031,395,119,371,114.0999985
	c-12.3999939-2.5-24.8999939-4-37.6000061-4.0999985c-9.8999939-0.1000061-19.8000183,0.3000031-29.6000061,1.1999969
	c-25.5,2.5-50.6999969,9.5999985-73.8999939,20.5C210,141.1000061,191.5,153.2999878,175.0999908,167.8999939
	S144.3999939,199.5,132.8999939,218.1999969C120.1999969,239,110.6999969,261.7000122,105.4999924,285.5
	c-4.2000046,19-6.2000046,38.6000061-5.2000046,58.1000061c0.9000092,18.8999939,3.8000031,37.7999878,9.5,55.8999939
	c3.6000061,11.5,7.9000092,22.7000122,13.3000031,33.6000061c5.3000031,10.7000122,11.5,21,18.4000092,30.7000122
	c13.7999878,19.2999878,30.5999908,36.3999939,49.7999878,50.5000305c19.6000061,14.5,41.6999969,25.6999512,64.8999939,33.0999756
	c24.1999817,7.7000122,49.8999939,11.2999878,75.3000183,10.4000244c24.7999878-0.8000488,49.3999939-5.6000366,72.6000061-14.5
	c22.2999878-8.6000366,43.2000122-20.9000244,61.5-36.3000183c9.2000122-7.7999878,17.3999939-16.6000061,25.1000061-25.8999939
	c7.7999878-9.3999939,14.7999878-19.2999878,20.6000061-30c5.0000305-9.2000122,9.1999817-18.7999878,12.7999573-28.5
	c1.8000488-4.7999878,3.5-9.6000061,4.9000244-14.6000061c1.5-5.2999878,2.5999756-10.7999878,3.5999756-16.2000122
	c1.5-8.5,2.1000366-17.2999878,1.3000488-25.8999939c-0.7000732,3.7999878-1.3000488,7.5-2.2000732,11.2000122
	c-1.0999756,4.2999878-2.5,8.5-4.0999756,12.6000061c-3.2000122,8.7000122-7.2000122,17.1000061-11,25.5
	c-4.8999939,10.7000122-10.6000061,20.8999939-16.7999878,30.7999878c-3.2000122,5.1000061-6.5,10.1000061-10.1000061,14.8999939
	s-7.7000122,9.3999939-11.7999878,13.8999939c-8.2000122,9.1000061-17.1000061,17.2000122-27,24.3999939
	c-10.1000061,7.3999939-20.7999878,13.8999634-32.1000061,19.2999878C396.1999817,529.5,371.5,536.0999756,346.5,538.2999878
	C320.8999939,540.5,294.7999878,538,270.2000122,530.6999512c-23.4000092-6.8999634-45.6000061-18.0999756-65.1000061-32.7999573
	C186.2000122,483.6000061,169.8000031,466,156.9000092,446.1000061C143.3999939,425.7999878,134.1000061,402.8999939,129,379
	c-1.3000031-6.2000122-2.3000031-12.6000061-3-18.8999939c-0.5999985-5.3999939-1.0999985-10.8999939-1.3000031-16.3999939
	c-0.2999954-11.2999878,0.4000092-23,2.1000061-34.2000122C130.5,284.9000244,138.5,261.2000122,150.8999939,239.6000061
	c11-19.3000031,25.3000031-36.6999969,42.1000061-51.3999939c16.8000031-14.8000183,36-26.7000122,56.8000031-35.1000061
	c11.9999847-4.8999939,24.6000214-8.5,37.4000092-10.8999939c6.5-1.2000122,13-2.2000122,19.5-2.7000122
	c3.2000122-0.2999878,6.2999878-0.2999878,9.5-0.5999908C317.5,138.9000092,318.8000183,139,320.1000061,139
	c21.7000122-0.3999939,43.5,2.4000092,64.1999817,8.8999939c22.2999878,7,43.2999878,18.3000031,61.5,33
	c19.1000061,15.4000092,35,34.4000092,47,55.8000031C503,254.8999939,510.2999878,274.5,514.6999512,294.8999939
	c1,4.6999817,1.8000488,9.3999939,2.6000366,14.1000061c0.7000122,4.2999878,3.1000366,8.2999878,6.7999878,10.7000122
	c7.7999878,5.1999817,18.7000122,1.6999817,22.5-6.7000122C547.9000244,310.1000061,548.2999878,307,547.7999878,304.1000061z"/>
</svg>
