<?xml version="1.0" encoding="utf-8"?>
<!-- Generator: Adobe Illustrator 19.0.1, SVG Export Plug-In . SVG Version: 6.00 Build 0)  -->
<svg version="1.1" id="Layer_1" xmlns="http://www.w3.org/2000/svg" xmlns:xlink="http://www.w3.org/1999/xlink" x="0px" y="0px"
	 viewBox="0 0 22 22" style="enable-background:new 0 0 22 22;" xml:space="preserve">
<style type="text/css">
	.st0{fill:#3AAEF8;}
</style>
<circle class="st0" cx="11" cy="5.5000305" r="1.4999695"/>
<polygon class="st0" points="12,8.5001526 9,8.5001526 9,9.0000916 9.999939,9.0000916 9.999939,16.5000916 9,16.5000916 
	9,17.0000916 13,17.0000916 13,16.5000916 12,16.5000916 "/>
<circle class="st0" cx="11" cy="5.5000305" r="1.4999695"/>
<g>
	<g>
		<path class="st0" d="M11,2c4.9626198,0,9,4.0373802,9,9s-4.0373802,9-9,9s-9-4.0373802-9-9S6.0373802,2,11,2 M11,0
			C4.92487,0,0,4.92487,0,11s4.92487,11,11,11s11-4.9248695,11-11S17.0751305,0,11,0L11,0z"/>
	</g>
</g>
</svg>
