<?xml version="1.0" encoding="utf-8"?>
<!-- Generator: Adobe Illustrator 19.1.0, SVG Export Plug-In . SVG Version: 6.00 Build 0)  -->
<svg version="1.1" id="Layer_1" xmlns="http://www.w3.org/2000/svg" xmlns:xlink="http://www.w3.org/1999/xlink" x="0px" y="0px"
	 viewBox="0 0 30 10" style="enable-background:new 0 0 30 10;" xml:space="preserve">
<style type="text/css">
	.st0{fill-rule:evenodd;clip-rule:evenodd;fill:#F2F2F2;}
</style>
<g>
	<path class="st0" d="M0.9825594,5.7683668C0.4399461,5.7683668,0,5.3109312,0,4.7684159
		c0-0.5428095,0.4399461-1.0000489,0.9825594-1.0000489h27.6880341c0.542614,0,0.9824619,0.4572394,0.9824619,1.0000489
		c0,0.5425153-0.4398479,0.9999509-0.9824619,0.9999509H0.9825594z"/>
	<path class="st0" d="M30,4.8019972c-0.0001831-0.0170898-0.0080566-0.0330811-0.0090942-0.0501099
		C29.980957,4.518733,29.8973389,4.2873487,29.7216187,4.107173l-3.4300537-3.5164185
		c-0.3788452-0.3882446-1.0009766-0.3961182-1.3893433-0.017395C24.513855,0.95251,24.5060425,1.574092,24.8849487,1.9627639
		l2.7694092,2.8393555l-2.7694092,2.8393555c-0.3789673,0.3882446-0.3712158,1.0102539,0.0172729,1.3892212
		c0.3883667,0.3789062,1.010376,0.3708496,1.3892822-0.0176392l3.4299927-3.5161133
		c0.1757812-0.1802368,0.2595215-0.4116211,0.2694092-0.6447754C29.9919434,4.8351393,29.9998779,4.819087,30,4.8019972z"/>
</g>
</svg>
