<?xml version="1.0" encoding="utf-8"?>
<!-- Generator: Adobe Illustrator 19.1.0, SVG Export Plug-In . SVG Version: 6.00 Build 0)  -->
<svg version="1.1" id="Layer_1" xmlns="http://www.w3.org/2000/svg" xmlns:xlink="http://www.w3.org/1999/xlink" x="0px" y="0px"
	 viewBox="0 0 16 10" style="enable-background:new 0 0 16 10;" xml:space="preserve">
<style type="text/css">
	.st0{fill-rule:evenodd;clip-rule:evenodd;fill:#FFFFFF;}
</style>
<g>
	<g>
		<g>
			<path class="st0" d="M15.9419622,4.8951349c0.0297241-0.2810059-0.0479736-0.5708618-0.2607422-0.7889404l-3.4337158-3.5200193
				c-0.3793945-0.388855-1.0020142-0.3969116-1.3908081-0.0175781c-0.388916,0.3793335-0.3966675,1.0020142-0.017334,1.3907471
				l1.8217773,1.8677369H0.9879213c-0.5432129,0-0.9836426,0.4400022-0.9836426,0.9833982
				c0,0.5431519,0.4404297,0.9833374,0.9836426,0.9833374h12.0863647l-2.1913452,2.2467041
				c-0.3793945,0.3890991-0.371521,1.0114136,0.0172729,1.3909302c0.3887939,0.3791504,1.0115967,0.3712769,1.3908691-0.017395
				l3.4338379-3.5202637C15.9914618,5.6204767,16.0557308,5.233819,15.9419622,4.8951349z"/>
		</g>
	</g>
</g>
</svg>
