<?xml version="1.0" encoding="utf-8"?>
<!-- Generator: Adobe Illustrator 19.0.1, SVG Export Plug-In . SVG Version: 6.00 Build 0)  -->
<svg version="1.1" id="Layer_1" xmlns="http://www.w3.org/2000/svg" xmlns:xlink="http://www.w3.org/1999/xlink" x="0px" y="0px"
	 viewBox="294.7201843 54.7197227 610.5600586 610.5606079"
	 style="enable-background:new 294.7201843 54.7197227 610.5600586 610.5606079;" xml:space="preserve">
<style type="text/css">
	.st0{fill:#56E0FE;}
</style>
<path class="st0" d="M600,54.7197227c-168.4805298,0-305.2798157,136.8002777-305.2798157,305.2802734
	c0,168.4805298,136.7992859,305.2803345,305.2798157,305.2803345S905.2802734,528.4805298,905.2802734,360
	C905.2802734,191.5200043,768.4804688,54.7197227,600,54.7197227z M600,631.4395142
	c-149.7598267,0-271.4399109-121.679718-271.4399109-271.4395142S450.2401733,88.5601196,600,88.5601196
	S871.4394531,210.2402191,871.4394531,360S749.7597656,631.4395142,600,631.4395142z"/>
<path class="st0" d="M710.8798828,341.280304H618V167.7598267c0-10.0796051-7.9199219-18.7198181-18.7197266-18.7198181
	c-10.0800781,0-18.7197876,7.9199982-18.7197876,18.7198181V360l0,0l0,0c0,10.0801086,7.9199829,18.7197266,18.7197876,18.7197266
	h111.5996094c10.0801392,0,18.7196655-7.9199219,18.7196655-18.7197266
	C728.8798828,349.9199219,720.960022,341.280304,710.8798828,341.280304z"/>
</svg>
