<?xml version="1.0" encoding="utf-8"?>
<!-- Generator: Adobe Illustrator 19.0.1, SVG Export Plug-In . SVG Version: 6.00 Build 0)  -->
<svg version="1.1" id="Isolation_Mode" xmlns="http://www.w3.org/2000/svg" xmlns:xlink="http://www.w3.org/1999/xlink" x="0px"
	 y="0px" viewBox="0 0 180 22" style="enable-background:new 0 0 180 22;" xml:space="preserve">
<style type="text/css">
	.st0{fill-rule:evenodd;clip-rule:evenodd;fill:#FFFFFF;}
	.st1{fill-rule:evenodd;clip-rule:evenodd;fill:#FCB131;}
	.st2{fill-rule:evenodd;clip-rule:evenodd;fill:#ED1C2E;}
</style>
<g>
	<path class="st0" d="M24.3080559,16.0237503c-0.8344116,0.8612995-1.846611,1.2919998-3.0356121,1.2919998
		c-1.1899986,0-2.1996994-0.4307003-3.0303001-1.2919998c-0.8304996-0.8604116-1.2465992-1.9366007-1.2465992-3.2295008
		c0-1.0566998,0.4209003-1.9863997,1.2626991-2.7924995c0.8423004-0.8046999,1.8472004-1.2074995,3.0142002-1.2074995
		c1.1597004,0,2.1641006,0.4027996,3.0142002,1.2074995c0.8491001,0.8060999,1.273901,1.7357998,1.273901,2.7924995
		C25.560545,14.0871496,25.143055,15.1633387,24.3080559,16.0237503L24.3080559,16.0237503z M66.7895432,5.4700503h-3.9326019
		V11.32055h-5.695797V5.4700503L44.7953453,5.45925L42.7685432,7.58675V5.4700503h-3.9453011v7.9891992
		c0,0.835-0.0439987,1.4844007-0.1327972,1.9502001c-0.1254997,0.6796999-0.3697014,1.1962996-0.7310028,1.5507994
		c-0.4213867,0.4140892-1.0268974,0.6210899-1.8173866,0.6210899c-0.7905121,0-1.39991-0.2110004-1.8281136-0.6327896
		c-0.3549995-0.3466988-0.5946999-0.8633003-0.7206993-1.5507994c-0.0811005-0.4356003-0.1210976-1.0819998-0.1210976-1.9385004
		V5.4700503h-3.9443016v5.8836999c-0.3627872-1.8837004-1.3412991-3.4272003-2.9365997-4.6318002
		c-1.5511875-1.1669998-3.3241882-1.7509999-5.3188-1.7509999c-2.2528992,0-4.1987,0.7280998-5.8393888,2.1830997
		c-1.6992102,1.5074005-2.5483103,3.3794003-2.5483103,5.6176996c0,0.3477001,0.0150995,0.6543007,0.0443993,0.9199009
		c-0.2880888-0.5839005-0.7352991-1.0673113-1.3407993-1.4511003c-0.5092888-0.3330002-1.1781998-0.6172113-2.0053997-0.8536005
		L8.5746441,11.08815c-0.5316992-0.1698999-0.9086995-0.3290997-1.1297994-0.4770002
		c-0.4067893-0.2582998-0.6099-0.5834999-0.6099-0.9750996c0-0.3910999,0.1924-0.7090006,0.5766997-0.9527121
		c0.3250999-0.2069998,0.6932998-0.3104877,1.1074109-0.3104877c0.4730892,0,0.9344893,0.0892992,1.3856888,0.2660999
		c0.4492006,0.1771994,0.8594007,0.4208994,1.2290001,0.7313881l1.5625-3.0467882
		c-0.6796999-0.3843002-1.4442997-0.6894999-2.2933998-0.9145999c-0.8492002-0.2251-1.6660995-0.3379002-2.4482999-0.3379002
		c-1.5376,0-2.7924891,0.4653997-3.7680001,1.3965001c-0.9746997,0.9301996-1.4623997,2.1606998-1.4623997,3.6899996
		c0,0.9453001,0.1699107,1.7031002,0.5096998,2.2705002c0.3028002,0.5029001,0.7798002,0.9198999,1.4292109,1.2518997
		c0.436089,0.2227001,1.1596889,0.4765997,2.1718893,0.7656002c0.6869998,0.1913996,1.1893997,0.3731003,1.5072994,0.5419998
		c0.5830002,0.3184004,0.875,0.7129002,0.875,1.1855993c0,0.4951-0.2035999,0.8838005-0.6093998,1.1640015
		c-0.3540001,0.2441883-0.7870998,0.3652992-1.2958999,0.3652992c-0.6210999,0-1.2494998-0.1543007-1.8842001-0.4648991
		c-0.5323-0.2666016-1.0707998-0.6357002-1.6176891-1.1084003l-1.6841106,3.1796989
		c0.7979,0.5614891,1.6494,0.9903011,2.5542002,1.2852001c0.9047999,0.2959003,1.8290997,0.4432888,2.7753997,0.4432888
		c0.79,0,1.5640001-0.1180878,2.3218002-0.3534889c0.7567997-0.237299,1.4139996-0.5937004,1.9717102-1.0702991
		c0.5575895-0.4756012,0.9696894-1.080101,1.2357893-1.8115005c0.2285004-0.6357994,0.3428001-1.3544998,0.3428001-2.1602001
		c0.5473003,1.6835995,1.5292997,3.0214882,2.9477005,4.0107994c1.4179993,0.9902,3.0834999,1.4843006,4.9970989,1.4843006
		c2.1494007,0,3.9775009-0.6201,5.4848995-1.8612995c1.5068016-1.2402,2.4295998-2.8730011,2.7705002-4.8973999
		c0,1.0711994,0.091301,1.9540882,0.2758007,2.6483994c0.2441998,0.9237995,0.6835995,1.6953011,1.3188992,2.3154011
		c0.5908012,0.5917988,1.3666992,1.0312881,2.3276024,1.3183994c0.8266983,0.2509995,1.7236977,0.3768883,2.6919098,0.3768883
		c0.9897881,0,1.8950005-0.1258888,2.7143898-0.3768883c0.9530983-0.2871113,1.7250977-0.7266006,2.3163986-1.3183994
		c0.5317001-0.5166016,0.9227982-1.1220016,1.1743011-1.8174c0.2803001-0.7821999,0.4213982-1.9570007,0.4213982-3.5224009v-5.1861
		h3.3680992v11.8228006h3.9444122V8.8161497h3.1469994v11.8228006h3.9330902v-6.2158003h5.695797v6.2158003h3.9326019V5.4700503
		L66.7895432,5.4700503z"/>
	<path class="st0" d="M120.9218445,8.8176498h-3.2577896v11.8223h-3.9453125v-11.8223h-3.7881012L109.5868454,9.37185
		c-0.3768997-0.3027-0.7910004-0.5444002-1.2412033-0.7261c-0.4511032-0.1806002-0.9082031-0.2714109-1.3740005-0.2714109
		c-0.4208984,0-0.794899,0.1039991-1.1191025,0.3105106c-0.3847961,0.2441006-0.5761948,0.5614891-0.5761948,0.9531002
		c0,0.3843002,0.2061005,0.7089996,0.6200943,0.9745998c0.2294998,0.1485004,0.6055069,0.3066998,1.1309052,0.4766006
		l1.0077972,0.2987995c1.1963043,0.3477001,2.0859146,0.8057003,2.6709137,1.3739996
		c0.7157898,0.6943893,1.0741882,1.6182003,1.0741882,2.7706003c0,0.8349009-0.1112976,1.5731993-0.3320007,2.2157888
		c-0.2657013,0.7685108-0.6797028,1.3906116-1.2421875,1.8672104c-0.5606155,0.4765015-1.2197113,0.8330002-1.9766159,1.0693016
		c-0.7577972,0.2362995-1.5311966,0.3544884-2.3212967,0.3544884c-0.8651962,0-1.7030869-0.1200886-2.5156021-0.3603897
		c-0.8134842-0.2391987-1.594696-0.5926991-2.3485947-1.0576115v1.0186119h-9.628891V7.2219501l-4.2993088,13.4179993h-3.6788025
		l-2.3486023-8.7861996l-2.6591949,8.7861996h-3.6567001l-4.5317001-15.168499h4.1000977l2.6473999,9.7953987l2.5375977-9.7953987
		h3.1352997l2.3169174,9.7953987l2.8915863-9.7953987h12.8422012v3.3461995h-5.363205v2.5264006h4.4432983v3.3358994h-4.4432983
		v2.6143007h5.6953049v1.1406002l1.2186966-2.3037014c0.5537033,0.4794998,1.0898972,0.8495998,1.6064987,1.1074009
		c0.6279144,0.3106003,1.2588043,0.4657879,1.8945007,0.4657879c0.5098038,0,0.9414139-0.1219997,1.2968979-0.366188
		c0.4062042-0.2793007,0.6094055-0.6679001,0.6094055-1.1630993c0-0.4795008-0.2919998-0.8759012-0.8759995-1.1855011
		c-0.3252029-0.1767998-0.8311005-0.3573999-1.517601-0.5429993c-1.0049057-0.2881002-1.7246017-0.5430002-2.1611023-0.7646008
		c-0.6493988-0.3320999-1.1259995-0.75-1.4287033-1.2519999c-0.3408966-0.5683002-0.5097961-1.3261995-0.5097961-2.2719994
		c0-1.5283003,0.4873123-2.7583003,1.4628983-3.6889005c0.9746017-0.9312,2.2304153-1.3964996,3.7666016-1.3964996
		c0.805603,0,1.6865005,0.1259999,2.6435013,0.3768997c0.9561005,0.2509999,1.7519989,0.5762,2.386795,0.9751L111.39254,6.4910502
		l0.9863052-1.0303001l8.5429993,0.0107002V8.8176498L120.9218445,8.8176498z"/>
	<path class="st1" d="M143.2148438,14.6848497l2.8583984-7.0243998l2.8379059,7.0243998H143.2148438L143.2148438,14.6848497z
		 M177.4638367,14.6360502c-0.2733917-0.4610004-0.691391-0.8701-1.2519989-1.2245998l-2.7801971-1.4512005
		c-0.5263977-0.2441998-0.9277954-0.4511995-1.2089996-0.6210995c-0.4580078-0.2725-0.7940063-0.5537004-1.0077972-0.8423004
		c-0.2743988-0.3613005-0.410202-0.7821999-0.410202-1.2622004c0-0.7685995,0.2646942-1.4243112,0.7919922-1.9673109
		c0.5283051-0.5428886,1.1758118-0.8143888,1.9453125-0.8143888c0.6651154,0,1.2471161,0.1557002,1.75,0.4653001
		c0.4579926,0.2811999,0.8603973,0.7026,1.2079926,1.2631998l0.6533966-0.5429997
		c-0.347702-0.6269002-0.8417969-1.1265001-1.4843903-1.4961114c-0.6426086-0.3685884-1.3339996-0.5531888-2.0713043-0.5531888
		c-1.0937958,0-1.9882965,0.3433003-2.6817017,1.0297999c-0.6952972,0.6875-1.0418854,1.5737-1.0418854,2.6601
		c0,0.5752001,0.125,1.0762005,0.3768921,1.5004997c0.25,0.4247894,0.6269989,0.7930002,1.1298981,1.1026001l2.6268921,1.3964005
		c0.6484985,0.3174,1.0879059,0.5430002,1.3184052,0.6757889c0.5097961,0.2959108,0.8887024,0.6016111,1.1405945,0.9200001
		c0.3164062,0.3984108,0.4766083,0.8486109,0.4766083,1.35151c0,0.9531002-0.3594055,1.7656002-1.0752106,2.4374886
		c-0.7167969,0.6729126-1.5556946,1.008812-2.5146942,1.008812c-0.8495941,0-1.5809937-0.2441006-2.1943054-0.732399
		c-0.5536957-0.4424114-0.9970856-1.0742016-1.329071-1.8936005l-0.8096161,0.3652992
		c0.3476868,0.9608898,0.9003906,1.7215996,1.6562958,2.2821999c0.7577972,0.5615005,1.6347961,0.8418007,2.6317902,0.8418007
		c1.2110138,0,2.2666016-0.4013996,3.1690063-1.2070007c0.9315948-0.8349991,1.3965149-1.8428001,1.3965149-3.0254002
		C177.874054,15.6535501,177.7363434,15.09795,177.4638367,14.6360502L177.4638367,14.6360502z M168.1015472,5.77665h-0.9307098
		v12.710001L156.5556335,5.58915V20.34795h0.9316101V7.8274503l10.6143036,12.9969997V5.77665L168.1015472,5.77665z
		 M154.2519379,20.34795V5.7781501h-0.9198761V20.34795H154.2519379L154.2519379,20.34795z M146.0732422,5.30055
		l-5.9491882,14.6703987l-4.5108185-6.5262995c1.2559052,0,2.2539062-0.3174,2.9922028-0.9531994
		c0.782196-0.6718006,1.1748047-1.6211119,1.1748047-2.8471117c0-0.649889-0.1151886-1.2333889-0.3437042-1.7504888
		c-0.2509918-0.5688996-0.6114044-1.0209999-1.0800934-1.3573999c-0.4698029-0.3364997-1.0137024-0.5561996-1.6348114-0.6596999
		c-0.3983917-0.0664115-0.9745789-0.1001-1.7284851-0.1001h-1.8174133V20.34795h0.9317017v-6.9033003h0.464798l4.7422028,6.9033003
		h1.6074066l1.9492035-4.7979002h6.3936005l1.9501953,4.7979002h0.9423981L146.0732422,5.30055L146.0732422,5.30055z
		 M131.9902344,5.77665h-8.4648895v0.8755002h3.7675934V20.34795h0.9307098V6.6521502h3.7665863V5.77665L131.9902344,5.77665z
		 M138.5888367,10.8909502c-0.1737823,0.4101-0.4257812,0.7480001-0.7597809,1.0135994
		c-0.2656097,0.2295008-0.5742188,0.3985004-0.9238129,0.5097895c-0.3516083,0.1103106-0.8926086,0.1659994-1.6240082,0.1659994
		h-1.1737976V6.6521502h1.0301971c0.4356079,0,0.8360138,0.0229001,1.2022095,0.0664001
		c0.3652191,0.0448999,0.6884918,0.1332998,0.969696,0.2655997c0.5019989,0.2227001,0.8896027,0.5806003,1.1620941,1.076189
		c0.2520142,0.4575109,0.3779144,0.9746113,0.3779144,1.5508108
		C138.8495483,10.05445,138.7626343,10.4807501,138.5888367,10.8909502L138.5888367,10.8909502z"/>
	<path class="st2" d="M155.6728363,2.7302501c0,1.0313001-0.8359985,1.8672001-1.8672028,1.8672001
		c-1.032196,0-1.8671875-0.8359001-1.8671875-1.8672001c0-1.0302999,0.8349915-1.8671999,1.8671875-1.8671999
		C154.8368378,0.8630503,155.6728363,1.6999502,155.6728363,2.7302501L155.6728363,2.7302501z"/>
</g>
</svg>
