<svg xmlns="http://www.w3.org/2000/svg" width="30" height="18" viewBox="0 0 30 18">
  <defs>
    <style>
      .cls-1 {
        fill: #726ad0;
        fill-rule: evenodd;
      }
    </style>
  </defs>
  <path class="cls-1" d="M6670.85,6945.99l12.05,12.11c0.01,0.01.02,0.03,0.03,0.04a2.924,2.924,0,0,0,2.07.86,2.86,2.86,0,0,0,2.06-.86c0.02-.01.02-0.03,0.04-0.04l12.05-12.11a2.952,2.952,0,0,0,0-4.14,2.909,2.909,0,0,0-4.12,0l-10.04,10.08-10.03-10.08a2.9,2.9,0,0,0-4.11,0A2.952,2.952,0,0,0,6670.85,6945.99Z" transform="translate(-6670 -6941)"/>
</svg>
